=== Track 0
MetaMessage('set_tempo', tempo=416667, time=0)
MetaMessage('set_tempo', tempo=454545, time=0)
MetaMessage('set_tempo', tempo=454545, time=0)
MetaMessage('set_tempo', tempo=458015, time=350)
MetaMessage('set_tempo', tempo=461538, time=3099)
MetaMessage('set_tempo', tempo=454545, time=351)
MetaMessage('set_tempo', tempo=447761, time=3100)
MetaMessage('set_tempo', tempo=441176, time=352)
MetaMessage('set_tempo', tempo=434783, time=3101)
MetaMessage('set_tempo', tempo=428571, time=353)
MetaMessage('set_tempo', tempo=422535, time=3102)
MetaMessage('set_tempo', tempo=416667, time=354)
MetaMessage('end_of_track', time=0)
=== Track 1
MetaMessage('track_name', name='Channel #10', time=0)
Message('control_change', channel=9, control=10, value=64, time=0)
Message('control_change', channel=9, control=7, value=108, time=0)
Message('pitchwheel', channel=9, pitch=0, time=0)
Message('control_change', channel=9, control=101, value=0, time=0)
Message('control_change', channel=9, control=100, value=0, time=0)
Message('control_change', channel=9, control=6, value=12, time=0)
Message('control_change', channel=9, control=10, value=64, time=0)
Message('control_change', channel=9, control=7, value=108, time=0)
Message('pitchwheel', channel=9, pitch=0, time=0)
Message('program_change', channel=9, program=8, time=0)
Message('control_change', channel=9, control=91, value=30, time=0)
Message('control_change', channel=9, control=93, value=20, time=0)
Message('control_change', channel=9, control=101, value=0, time=0)
Message('control_change', channel=9, control=100, value=0, time=0)
Message('control_change', channel=9, control=6, value=12, time=0)
Message('control_change', channel=9, control=10, value=64, time=0)
Message('control_change', channel=9, control=7, value=108, time=0)
Message('pitchwheel', channel=9, pitch=0, time=0)
Message('program_change', channel=9, program=8, time=0)
Message('control_change', channel=9, control=91, value=30, time=0)
Message('control_change', channel=9, control=93, value=20, time=0)
Message('control_change', channel=9, control=10, value=64, time=0)
Message('control_change', channel=9, control=7, value=108, time=0)
Message('pitchwheel', channel=9, pitch=0, time=0)
Message('program_change', channel=9, program=8, time=0)
Message('control_change', channel=9, control=91, value=30, time=0)
Message('control_change', channel=9, control=93, value=20, time=0)
Message('control_change', channel=9, control=101, value=0, time=0)
Message('control_change', channel=9, control=100, value=0, time=0)
Message('control_change', channel=9, control=6, value=12, time=0)
Message('control_change', channel=9, control=10, value=64, time=0)
Message('control_change', channel=9, control=7, value=108, time=0)
Message('pitchwheel', channel=9, pitch=0, time=0)
Message('program_change', channel=9, program=8, time=0)
Message('control_change', channel=9, control=91, value=30, time=0)
Message('control_change', channel=9, control=93, value=20, time=0)
Message('control_change', channel=9, control=10, value=64, time=0)
Message('control_change', channel=9, control=7, value=108, time=0)
Message('pitchwheel', channel=9, pitch=0, time=0)
Message('program_change', channel=9, program=8, time=0)
Message('control_change', channel=9, control=91, value=30, time=0)
Message('control_change', channel=9, control=93, value=20, time=0)
Message('note_on', channel=9, note=36, velocity=106, time=3360)
Message('note_on', channel=9, note=40, velocity=106, time=0)
Message('note_on', channel=9, note=49, velocity=92, time=0)
Message('note_off', channel=9, note=36, velocity=0, time=6)
Message('note_off', channel=9, note=40, velocity=0, time=0)
Message('note_off', channel=9, note=49, velocity=0, time=0)
Message('note_on', channel=9, note=36, velocity=106, time=90)
Message('note_on', channel=9, note=49, velocity=92, time=0)
Message('note_off', channel=9, note=36, velocity=0, time=6)
Message('note_off', channel=9, note=49, velocity=0, time=0)
Message('note_on', channel=9, note=42, velocity=64, time=18)
Message('note_off', channel=9, note=42, velocity=0, time=6)
Message('note_on', channel=9, note=42, velocity=64, time=18)
Message('note_off', channel=9, note=42, velocity=0, time=6)
Message('note_on', channel=9, note=40, velocity=78, time=42)
Message('note_on', channel=9, note=46, velocity=92, time=0)
Message('note_off', channel=9, note=40, velocity=0, time=6)
Message('note_off', channel=9, note=46, velocity=0, time=0)
Message('note_on', channel=9, note=36, velocity=92, time=18)
Message('note_off', channel=9, note=36, velocity=0, time=6)
Message('note_on', channel=9, note=36, velocity=92, time=18)
Message('note_on', channel=9, note=42, velocity=92, time=0)
Message('note_off', channel=9, note=36, velocity=0, time=6)
Message('note_off', channel=9, note=42, velocity=0, time=0)
Message('note_on', channel=9, note=42, velocity=92, time=18)
Message('note_off', channel=9, note=42, velocity=0, time=6)
Message('note_on', channel=9, note=36, velocity=92, time=42)
Message('note_on', channel=9, note=42, velocity=92, time=0)
Message('note_off', channel=9, note=36, velocity=0, time=6)
Message('note_off', channel=9, note=42, velocity=0, time=0)
Message('note_on', channel=9, note=46, velocity=92, time=18)
Message('note_off', channel=9, note=46, velocity=0, time=6)
Message('note_on', channel=9, note=36, velocity=92, time=18)
Message('note_off', channel=9, note=36, velocity=0, time=6)
Message('note_on', channel=9, note=40, velocity=106, time=18)
Message('note_on', channel=9, note=42, velocity=78, time=0)
Message('note_off', channel=9, note=40, velocity=0, time=6)
Message('note_off', channel=9, note=42, velocity=0, time=0)
Message('note_on', channel=9, note=46, velocity=92, time=18)
Message('note_off', channel=9, note=46, velocity=0, time=6)
Message('note_on', channel=9, note=36, velocity=78, time=42)
Message('note_off', channel=9, note=36, velocity=0, time=6)
Message('note_on', channel=9, note=36, velocity=106, time=18)
Message('note_off', channel=9, note=36, velocity=0, time=6)
Message('note_on', channel=9, note=42, velocity=64, time=18)
Message('note_off', channel=9, note=42, velocity=0, time=6)
Message('note_on', channel=9, note=42, velocity=64, time=18)
Message('note_on', channel=9, note=36, velocity=78, time=0)
Message('note_off', channel=9, note=42, velocity=0, time=6)
Message('note_off', channel=9, note=36, velocity=0, time=0)
Message('note_on', channel=9, note=40, velocity=78, time=42)
Message('note_on', channel=9, note=46, velocity=92, time=0)
Message('note_off', channel=9, note=40, velocity=0, time=6)
Message('note_off', channel=9, note=46, velocity=0, time=0)
Message('note_on', channel=9, note=36, velocity=92, time=18)
Message('note_off', channel=9, note=36, velocity=0, time=6)
Message('note_on', channel=9, note=42, velocity=92, time=18)
Message('note_on', channel=9, note=36, velocity=92, time=0)
Message('note_off', channel=9, note=42, velocity=0, time=6)
Message('note_off', channel=9, note=36, velocity=0, time=0)
Message('note_on', channel=9, note=42, velocity=92, time=18)
Message('note_off', channel=9, note=42, velocity=0, time=6)
Message('note_on', channel=9, note=42, velocity=92, time=42)
Message('note_on', channel=9, note=36, velocity=92, time=0)
Message('note_off', channel=9, note=42, velocity=0, time=6)
Message('note_off', channel=9, note=36, velocity=0, time=0)
Message('note_on', channel=9, note=46, velocity=92, time=18)
Message('note_off', channel=9, note=46, velocity=0, time=6)
Message('note_on', channel=9, note=36, velocity=92, time=18)
Message('note_off', channel=9, note=36, velocity=0, time=6)
Message('note_on', channel=9, note=40, velocity=106, time=18)
Message('note_on', channel=9, note=42, velocity=78, time=0)
Message('note_off', channel=9, note=40, velocity=0, time=6)
Message('note_off', channel=9, note=42, velocity=0, time=0)
Message('note_on', channel=9, note=46, velocity=92, time=18)
Message('note_off', channel=9, note=46, velocity=0, time=6)
Message('note_on', channel=9, note=38, velocity=78, time=18)
Message('note_off', channel=9, note=38, velocity=0, time=6)
Message('note_on', channel=9, note=38, velocity=78, time=18)
Message('note_on', channel=9, note=42, velocity=78, time=0)
Message('note_off', channel=9, note=38, velocity=0, time=6)
Message('note_off', channel=9, note=42, velocity=0, time=0)
Message('note_on', channel=9, note=36, velocity=106, time=18)
Message('note_on', channel=9, note=49, velocity=92, time=0)
Message('note_off', channel=9, note=36, velocity=0, time=6)
Message('note_off', channel=9, note=49, velocity=0, time=0)
Message('note_on', channel=9, note=42, velocity=64, time=18)
Message('note_off', channel=9, note=42, velocity=0, time=6)
Message('note_on', channel=9, note=42, velocity=64, time=18)
Message('note_off', channel=9, note=42, velocity=0, time=6)
Message('note_on', channel=9, note=40, velocity=78, time=42)
Message('note_on', channel=9, note=46, velocity=92, time=0)
Message('note_off', channel=9, note=40, velocity=0, time=6)
Message('note_off', channel=9, note=46, velocity=0, time=0)
Message('note_on', channel=9, note=36, velocity=92, time=18)
Message('note_off', channel=9, note=36, velocity=0, time=6)
Message('note_on', channel=9, note=36, velocity=92, time=18)
Message('note_on', channel=9, note=42, velocity=92, time=0)
Message('note_off', channel=9, note=36, velocity=0, time=6)
Message('note_off', channel=9, note=42, velocity=0, time=0)
Message('note_on', channel=9, note=42, velocity=92, time=18)
Message('note_off', channel=9, note=42, velocity=0, time=6)
Message('note_on', channel=9, note=36, velocity=92, time=42)
Message('note_on', channel=9, note=42, velocity=92, time=0)
Message('note_off', channel=9, note=36, velocity=0, time=6)
Message('note_off', channel=9, note=42, velocity=0, time=0)
Message('note_on', channel=9, note=46, velocity=92, time=18)
Message('note_off', channel=9, note=46, velocity=0, time=6)
Message('note_on', channel=9, note=36, velocity=92, time=18)
Message('note_off', channel=9, note=36, velocity=0, time=6)
Message('note_on', channel=9, note=42, velocity=78, time=18)
Message('note_on', channel=9, note=40, velocity=106, time=0)
Message('note_off', channel=9, note=42, velocity=0, time=6)
Message('note_off', channel=9, note=40, velocity=0, time=0)
Message('note_on', channel=9, note=46, velocity=92, time=18)
Message('note_off', channel=9, note=46, velocity=0, time=6)
Message('note_on', channel=9, note=36, velocity=78, time=42)
Message('note_off', channel=9, note=36, velocity=0, time=6)
Message('note_on', channel=9, note=36, velocity=106, time=18)
Message('note_off', channel=9, note=36, velocity=0, time=6)
Message('note_on', channel=9, note=42, velocity=64, time=18)
Message('note_off', channel=9, note=42, velocity=0, time=6)
Message('note_on', channel=9, note=36, velocity=78, time=18)
Message('note_on', channel=9, note=42, velocity=64, time=0)
Message('note_off', channel=9, note=36, velocity=0, time=6)
Message('note_off', channel=9, note=42, velocity=0, time=0)
Message('note_on', channel=9, note=46, velocity=92, time=42)
Message('note_on', channel=9, note=40, velocity=78, time=0)
Message('note_off', channel=9, note=46, velocity=0, time=6)
Message('note_off', channel=9, note=40, velocity=0, time=0)
Message('note_on', channel=9, note=36, velocity=92, time=18)
Message('note_off', channel=9, note=36, velocity=0, time=6)
Message('note_on', channel=9, note=36, velocity=92, time=18)
Message('note_on', channel=9, note=42, velocity=92, time=0)
Message('note_off', channel=9, note=36, velocity=0, time=6)
Message('note_off', channel=9, note=42, velocity=0, time=0)
Message('note_on', channel=9, note=42, velocity=92, time=18)
Message('note_off', channel=9, note=42, velocity=0, time=6)
Message('note_on', channel=9, note=42, velocity=92, time=42)
Message('note_on', channel=9, note=36, velocity=92, time=0)
Message('note_off', channel=9, note=42, velocity=0, time=6)
Message('note_off', channel=9, note=36, velocity=0, time=0)
Message('note_on', channel=9, note=46, velocity=92, time=18)
Message('note_off', channel=9, note=46, velocity=0, time=6)
Message('note_on', channel=9, note=36, velocity=92, time=18)
Message('note_off', channel=9, note=36, velocity=0, time=6)
Message('note_on', channel=9, note=40, velocity=106, time=18)
Message('note_on', channel=9, note=42, velocity=78, time=0)
Message('note_off', channel=9, note=40, velocity=0, time=6)
Message('note_off', channel=9, note=42, velocity=0, time=0)
Message('note_on', channel=9, note=46, velocity=92, time=18)
Message('note_off', channel=9, note=46, velocity=0, time=6)
Message('note_on', channel=9, note=38, velocity=78, time=18)
Message('note_off', channel=9, note=38, velocity=0, time=6)
Message('note_on', channel=9, note=38, velocity=78, time=18)
Message('note_on', channel=9, note=42, velocity=78, time=0)
Message('note_off', channel=9, note=38, velocity=0, time=6)
Message('note_off', channel=9, note=42, velocity=0, time=0)
Message('note_on', channel=9, note=36, velocity=106, time=18)
Message('note_on', channel=9, note=49, velocity=92, time=0)
Message('note_off', channel=9, note=36, velocity=0, time=6)
Message('note_off', channel=9, note=49, velocity=0, time=0)
Message('note_on', channel=9, note=42, velocity=64, time=18)
Message('note_off', channel=9, note=42, velocity=0, time=6)
Message('note_on', channel=9, note=42, velocity=64, time=18)
Message('note_off', channel=9, note=42, velocity=0, time=6)
Message('note_on', channel=9, note=40, velocity=78, time=42)
Message('note_on', channel=9, note=46, velocity=92, time=0)
Message('note_off', channel=9, note=40, velocity=0, time=6)
Message('note_off', channel=9, note=46, velocity=0, time=0)
Message('note_on', channel=9, note=36, velocity=92, time=18)
Message('note_off', channel=9, note=36, velocity=0, time=6)
Message('note_on', channel=9, note=36, velocity=92, time=18)
Message('note_on', channel=9, note=42, velocity=92, time=0)
Message('note_off', channel=9, note=36, velocity=0, time=6)
Message('note_off', channel=9, note=42, velocity=0, time=0)
Message('note_on', channel=9, note=42, velocity=92, time=18)
Message('note_off', channel=9, note=42, velocity=0, time=6)
Message('note_on', channel=9, note=36, velocity=92, time=42)
Message('note_on', channel=9, note=42, velocity=92, time=0)
Message('note_off', channel=9, note=36, velocity=0, time=6)
Message('note_off', channel=9, note=42, velocity=0, time=0)
Message('note_on', channel=9, note=46, velocity=92, time=18)
Message('note_off', channel=9, note=46, velocity=0, time=6)
Message('note_on', channel=9, note=36, velocity=92, time=18)
Message('note_off', channel=9, note=36, velocity=0, time=6)
Message('note_on', channel=9, note=40, velocity=106, time=18)
Message('note_on', channel=9, note=42, velocity=78, time=0)
Message('note_off', channel=9, note=40, velocity=0, time=6)
Message('note_off', channel=9, note=42, velocity=0, time=0)
Message('note_on', channel=9, note=46, velocity=92, time=18)
Message('note_off', channel=9, note=46, velocity=0, time=6)
Message('note_on', channel=9, note=36, velocity=78, time=42)
Message('note_off', channel=9, note=36, velocity=0, time=6)
Message('note_on', channel=9, note=36, velocity=106, time=18)
Message('note_off', channel=9, note=36, velocity=0, time=6)
Message('note_on', channel=9, note=42, velocity=64, time=18)
Message('note_off', channel=9, note=42, velocity=0, time=6)
Message('note_on', channel=9, note=42, velocity=64, time=18)
Message('note_on', channel=9, note=36, velocity=78, time=0)
Message('note_off', channel=9, note=42, velocity=0, time=6)
Message('note_off', channel=9, note=36, velocity=0, time=0)
Message('note_on', channel=9, note=40, velocity=78, time=42)
Message('note_on', channel=9, note=46, velocity=92, time=0)
Message('note_off', channel=9, note=40, velocity=0, time=6)
Message('note_off', channel=9, note=46, velocity=0, time=0)
Message('note_on', channel=9, note=36, velocity=92, time=18)
Message('note_off', channel=9, note=36, velocity=0, time=6)
Message('note_on', channel=9, note=36, velocity=92, time=18)
Message('note_on', channel=9, note=42, velocity=92, time=0)
Message('note_off', channel=9, note=36, velocity=0, time=6)
Message('note_off', channel=9, note=42, velocity=0, time=0)
Message('note_on', channel=9, note=42, velocity=92, time=18)
Message('note_off', channel=9, note=42, velocity=0, time=6)
Message('note_on', channel=9, note=36, velocity=92, time=42)
Message('note_on', channel=9, note=42, velocity=92, time=0)
Message('note_off', channel=9, note=36, velocity=0, time=6)
Message('note_off', channel=9, note=42, velocity=0, time=0)
Message('note_on', channel=9, note=46, velocity=92, time=18)
Message('note_off', channel=9, note=46, velocity=0, time=6)
Message('note_on', channel=9, note=36, velocity=92, time=18)
Message('note_off', channel=9, note=36, velocity=0, time=6)
Message('note_on', channel=9, note=42, velocity=78, time=18)
Message('note_on', channel=9, note=40, velocity=106, time=0)
Message('note_off', channel=9, note=42, velocity=0, time=6)
Message('note_off', channel=9, note=40, velocity=0, time=0)
Message('note_on', channel=9, note=46, velocity=92, time=18)
Message('note_off', channel=9, note=46, velocity=0, time=6)
Message('note_on', channel=9, note=38, velocity=78, time=18)
Message('note_off', channel=9, note=38, velocity=0, time=6)
Message('note_on', channel=9, note=42, velocity=78, time=18)
Message('note_on', channel=9, note=38, velocity=78, time=0)
Message('note_off', channel=9, note=42, velocity=0, time=6)
Message('note_off', channel=9, note=38, velocity=0, time=0)
Message('note_on', channel=9, note=49, velocity=92, time=18)
Message('note_on', channel=9, note=36, velocity=106, time=0)
Message('note_off', channel=9, note=49, velocity=0, time=6)
Message('note_off', channel=9, note=36, velocity=0, time=0)
Message('note_on', channel=9, note=42, velocity=64, time=18)
Message('note_off', channel=9, note=42, velocity=0, time=6)
Message('note_on', channel=9, note=42, velocity=64, time=18)
Message('note_off', channel=9, note=42, velocity=0, time=6)
Message('note_on', channel=9, note=46, velocity=92, time=42)
Message('note_on', channel=9, note=40, velocity=78, time=0)
Message('note_off', channel=9, note=46, velocity=0, time=6)
Message('note_off', channel=9, note=40, velocity=0, time=0)
Message('note_on', channel=9, note=36, velocity=92, time=18)
Message('note_off', channel=9, note=36, velocity=0, time=6)
Message('note_on', channel=9, note=42, velocity=92, time=18)
Message('note_on', channel=9, note=36, velocity=92, time=0)
Message('note_off', channel=9, note=42, velocity=0, time=6)
Message('note_off', channel=9, note=36, velocity=0, time=0)
Message('note_on', channel=9, note=42, velocity=92, time=18)
Message('note_off', channel=9, note=42, velocity=0, time=6)
Message('note_on', channel=9, note=36, velocity=92, time=42)
Message('note_on', channel=9, note=42, velocity=92, time=0)
Message('note_off', channel=9, note=36, velocity=0, time=6)
Message('note_off', channel=9, note=42, velocity=0, time=0)
Message('note_on', channel=9, note=46, velocity=92, time=18)
Message('note_off', channel=9, note=46, velocity=0, time=6)
Message('note_on', channel=9, note=36, velocity=92, time=18)
Message('note_off', channel=9, note=36, velocity=0, time=6)
Message('note_on', channel=9, note=40, velocity=106, time=18)
Message('note_on', channel=9, note=42, velocity=78, time=0)
Message('note_off', channel=9, note=40, velocity=0, time=6)
Message('note_off', channel=9, note=42, velocity=0, time=0)
Message('note_on', channel=9, note=46, velocity=92, time=18)
Message('note_off', channel=9, note=46, velocity=0, time=6)
Message('note_on', channel=9, note=36, velocity=78, time=42)
Message('note_off', channel=9, note=36, velocity=0, time=6)
Message('note_on', channel=9, note=36, velocity=106, time=18)
Message('note_off', channel=9, note=36, velocity=0, time=6)
Message('note_on', channel=9, note=42, velocity=64, time=18)
Message('note_off', channel=9, note=42, velocity=0, time=6)
Message('note_on', channel=9, note=42, velocity=64, time=18)
Message('note_on', channel=9, note=36, velocity=78, time=0)
Message('note_off', channel=9, note=42, velocity=0, time=6)
Message('note_off', channel=9, note=36, velocity=0, time=0)
Message('note_on', channel=9, note=40, velocity=78, time=42)
Message('note_on', channel=9, note=46, velocity=92, time=0)
Message('note_off', channel=9, note=40, velocity=0, time=6)
Message('note_off', channel=9, note=46, velocity=0, time=0)
Message('note_on', channel=9, note=36, velocity=92, time=18)
Message('note_off', channel=9, note=36, velocity=0, time=6)
Message('note_on', channel=9, note=42, velocity=92, time=18)
Message('note_on', channel=9, note=36, velocity=92, time=0)
Message('note_off', channel=9, note=42, velocity=0, time=6)
Message('note_off', channel=9, note=36, velocity=0, time=0)
Message('note_on', channel=9, note=42, velocity=92, time=18)
Message('note_off', channel=9, note=42, velocity=0, time=6)
Message('note_on', channel=9, note=42, velocity=92, time=42)
Message('note_on', channel=9, note=36, velocity=92, time=0)
Message('note_off', channel=9, note=42, velocity=0, time=6)
Message('note_off', channel=9, note=36, velocity=0, time=0)
Message('note_on', channel=9, note=46, velocity=92, time=18)
Message('note_off', channel=9, note=46, velocity=0, time=6)
Message('note_on', channel=9, note=36, velocity=92, time=18)
Message('note_off', channel=9, note=36, velocity=0, time=6)
Message('note_on', channel=9, note=40, velocity=106, time=18)
Message('note_on', channel=9, note=42, velocity=78, time=0)
Message('note_off', channel=9, note=40, velocity=0, time=6)
Message('note_off', channel=9, note=42, velocity=0, time=0)
Message('note_on', channel=9, note=46, velocity=92, time=18)
Message('note_off', channel=9, note=46, velocity=0, time=6)
Message('note_on', channel=9, note=38, velocity=78, time=18)
Message('note_off', channel=9, note=38, velocity=0, time=6)
Message('note_on', channel=9, note=38, velocity=78, time=18)
Message('note_on', channel=9, note=42, velocity=78, time=0)
Message('note_off', channel=9, note=38, velocity=0, time=6)
Message('note_off', channel=9, note=42, velocity=0, time=0)
Message('note_on', channel=9, note=36, velocity=106, time=18)
Message('note_on', channel=9, note=49, velocity=92, time=0)
Message('note_off', channel=9, note=36, velocity=0, time=6)
Message('note_off', channel=9, note=49, velocity=0, time=0)
Message('note_on', channel=9, note=42, velocity=64, time=18)
Message('note_off', channel=9, note=42, velocity=0, time=6)
Message('note_on', channel=9, note=42, velocity=64, time=18)
Message('note_off', channel=9, note=42, velocity=0, time=6)
Message('note_on', channel=9, note=40, velocity=78, time=42)
Message('note_on', channel=9, note=46, velocity=92, time=0)
Message('note_off', channel=9, note=40, velocity=0, time=6)
Message('note_off', channel=9, note=46, velocity=0, time=0)
Message('note_on', channel=9, note=36, velocity=92, time=18)
Message('note_off', channel=9, note=36, velocity=0, time=6)
Message('note_on', channel=9, note=36, velocity=92, time=18)
Message('note_on', channel=9, note=42, velocity=92, time=0)
Message('note_off', channel=9, note=36, velocity=0, time=6)
Message('note_off', channel=9, note=42, velocity=0, time=0)
Message('note_on', channel=9, note=42, velocity=92, time=18)
Message('note_off', channel=9, note=42, velocity=0, time=6)
Message('note_on', channel=9, note=36, velocity=92, time=42)
Message('note_on', channel=9, note=42, velocity=92, time=0)
Message('note_off', channel=9, note=36, velocity=0, time=6)
Message('note_off', channel=9, note=42, velocity=0, time=0)
Message('note_on', channel=9, note=46, velocity=92, time=18)
Message('note_off', channel=9, note=46, velocity=0, time=6)
Message('note_on', channel=9, note=36, velocity=92, time=18)
Message('note_off', channel=9, note=36, velocity=0, time=6)
Message('note_on', channel=9, note=40, velocity=106, time=18)
Message('note_on', channel=9, note=42, velocity=78, time=0)
Message('note_off', channel=9, note=40, velocity=0, time=6)
Message('note_off', channel=9, note=42, velocity=0, time=0)
Message('note_on', channel=9, note=46, velocity=92, time=18)
Message('note_off', channel=9, note=46, velocity=0, time=6)
Message('note_on', channel=9, note=36, velocity=78, time=42)
Message('note_off', channel=9, note=36, velocity=0, time=6)
Message('note_on', channel=9, note=36, velocity=106, time=18)
Message('note_off', channel=9, note=36, velocity=0, time=6)
Message('note_on', channel=9, note=42, velocity=64, time=18)
Message('note_off', channel=9, note=42, velocity=0, time=6)
Message('note_on', channel=9, note=42, velocity=64, time=18)
Message('note_on', channel=9, note=36, velocity=78, time=0)
Message('note_off', channel=9, note=42, velocity=0, time=6)
Message('note_off', channel=9, note=36, velocity=0, time=0)
Message('note_on', channel=9, note=40, velocity=78, time=42)
Message('note_on', channel=9, note=46, velocity=92, time=0)
Message('note_off', channel=9, note=40, velocity=0, time=6)
Message('note_off', channel=9, note=46, velocity=0, time=0)
Message('note_on', channel=9, note=36, velocity=92, time=18)
Message('note_off', channel=9, note=36, velocity=0, time=6)
Message('note_on', channel=9, note=42, velocity=92, time=18)
Message('note_on', channel=9, note=36, velocity=92, time=0)
Message('note_off', channel=9, note=42, velocity=0, time=6)
Message('note_off', channel=9, note=36, velocity=0, time=0)
Message('note_on', channel=9, note=42, velocity=92, time=18)
Message('note_off', channel=9, note=42, velocity=0, time=6)
Message('note_on', channel=9, note=42, velocity=92, time=42)
Message('note_on', channel=9, note=36, velocity=92, time=0)
Message('note_off', channel=9, note=42, velocity=0, time=6)
Message('note_off', channel=9, note=36, velocity=0, time=0)
Message('note_on', channel=9, note=46, velocity=92, time=18)
Message('note_off', channel=9, note=46, velocity=0, time=6)
Message('note_on', channel=9, note=36, velocity=92, time=18)
Message('note_off', channel=9, note=36, velocity=0, time=6)
Message('note_on', channel=9, note=40, velocity=106, time=18)
Message('note_on', channel=9, note=42, velocity=78, time=0)
Message('note_off', channel=9, note=40, velocity=0, time=6)
Message('note_off', channel=9, note=42, velocity=0, time=0)
Message('note_on', channel=9, note=46, velocity=92, time=18)
Message('note_off', channel=9, note=46, velocity=0, time=6)
Message('note_on', channel=9, note=38, velocity=78, time=18)
Message('note_off', channel=9, note=38, velocity=0, time=6)
Message('note_on', channel=9, note=38, velocity=78, time=18)
Message('note_on', channel=9, note=42, velocity=78, time=0)
Message('note_off', channel=9, note=38, velocity=0, time=6)
Message('note_off', channel=9, note=42, velocity=0, time=0)
Message('note_on', channel=9, note=36, velocity=106, time=18)
Message('note_on', channel=9, note=49, velocity=92, time=0)
Message('note_off', channel=9, note=36, velocity=0, time=6)
Message('note_off', channel=9, note=49, velocity=0, time=0)
Message('note_on', channel=9, note=42, velocity=64, time=18)
Message('note_off', channel=9, note=42, velocity=0, time=6)
Message('note_on', channel=9, note=42, velocity=64, time=18)
Message('note_off', channel=9, note=42, velocity=0, time=6)
Message('note_on', channel=9, note=40, velocity=78, time=42)
Message('note_on', channel=9, note=46, velocity=92, time=0)
Message('note_off', channel=9, note=40, velocity=0, time=6)
Message('note_off', channel=9, note=46, velocity=0, time=0)
Message('note_on', channel=9, note=36, velocity=92, time=18)
Message('note_off', channel=9, note=36, velocity=0, time=6)
Message('note_on', channel=9, note=36, velocity=92, time=18)
Message('note_on', channel=9, note=42, velocity=92, time=0)
Message('note_off', channel=9, note=36, velocity=0, time=6)
Message('note_off', channel=9, note=42, velocity=0, time=0)
Message('note_on', channel=9, note=42, velocity=92, time=18)
Message('note_off', channel=9, note=42, velocity=0, time=6)
Message('note_on', channel=9, note=36, velocity=92, time=42)
Message('note_on', channel=9, note=42, velocity=92, time=0)
Message('note_off', channel=9, note=36, velocity=0, time=6)
Message('note_off', channel=9, note=42, velocity=0, time=0)
Message('note_on', channel=9, note=46, velocity=92, time=18)
Message('note_off', channel=9, note=46, velocity=0, time=6)
Message('note_on', channel=9, note=36, velocity=92, time=18)
Message('note_off', channel=9, note=36, velocity=0, time=6)
Message('note_on', channel=9, note=42, velocity=78, time=18)
Message('note_on', channel=9, note=40, velocity=106, time=0)
Message('note_off', channel=9, note=42, velocity=0, time=6)
Message('note_off', channel=9, note=40, velocity=0, time=0)
Message('note_on', channel=9, note=46, velocity=92, time=18)
Message('note_off', channel=9, note=46, velocity=0, time=6)
Message('note_on', channel=9, note=36, velocity=78, time=42)
Message('note_off', channel=9, note=36, velocity=0, time=6)
Message('note_on', channel=9, note=36, velocity=106, time=18)
Message('note_off', channel=9, note=36, velocity=0, time=6)
Message('note_on', channel=9, note=42, velocity=64, time=18)
Message('note_off', channel=9, note=42, velocity=0, time=6)
Message('note_on', channel=9, note=36, velocity=78, time=18)
Message('note_on', channel=9, note=42, velocity=64, time=0)
Message('note_off', channel=9, note=36, velocity=0, time=6)
Message('note_off', channel=9, note=42, velocity=0, time=0)
Message('note_on', channel=9, note=46, velocity=92, time=42)
Message('note_on', channel=9, note=40, velocity=78, time=0)
Message('note_off', channel=9, note=46, velocity=0, time=6)
Message('note_off', channel=9, note=40, velocity=0, time=0)
Message('note_on', channel=9, note=36, velocity=92, time=18)
Message('note_off', channel=9, note=36, velocity=0, time=6)
Message('note_on', channel=9, note=36, velocity=92, time=18)
Message('note_on', channel=9, note=42, velocity=92, time=0)
Message('note_off', channel=9, note=36, velocity=0, time=6)
Message('note_off', channel=9, note=42, velocity=0, time=0)
Message('note_on', channel=9, note=42, velocity=92, time=18)
Message('note_off', channel=9, note=42, velocity=0, time=6)
Message('note_on', channel=9, note=42, velocity=92, time=42)
Message('note_on', channel=9, note=36, velocity=92, time=0)
Message('note_off', channel=9, note=42, velocity=0, time=6)
Message('note_off', channel=9, note=36, velocity=0, time=0)
Message('note_on', channel=9, note=46, velocity=92, time=18)
Message('note_off', channel=9, note=46, velocity=0, time=6)
Message('note_on', channel=9, note=36, velocity=92, time=18)
Message('note_off', channel=9, note=36, velocity=0, time=6)
Message('note_on', channel=9, note=40, velocity=106, time=18)
Message('note_on', channel=9, note=42, velocity=78, time=0)
Message('note_off', channel=9, note=40, velocity=0, time=6)
Message('note_off', channel=9, note=42, velocity=0, time=0)
Message('note_on', channel=9, note=46, velocity=92, time=18)
Message('note_off', channel=9, note=46, velocity=0, time=6)
Message('note_on', channel=9, note=38, velocity=78, time=18)
Message('note_off', channel=9, note=38, velocity=0, time=6)
Message('note_on', channel=9, note=38, velocity=78, time=18)
Message('note_on', channel=9, note=42, velocity=78, time=0)
Message('note_off', channel=9, note=38, velocity=0, time=6)
Message('note_off', channel=9, note=42, velocity=0, time=0)
Message('note_on', channel=9, note=36, velocity=106, time=18)
Message('note_on', channel=9, note=49, velocity=92, time=0)
Message('note_off', channel=9, note=36, velocity=0, time=6)
Message('note_off', channel=9, note=49, velocity=0, time=0)
Message('note_on', channel=9, note=42, velocity=64, time=18)
Message('note_off', channel=9, note=42, velocity=0, time=6)
Message('note_on', channel=9, note=42, velocity=64, time=18)
Message('note_off', channel=9, note=42, velocity=0, time=6)
Message('note_on', channel=9, note=40, velocity=78, time=42)
Message('note_on', channel=9, note=46, velocity=92, time=0)
Message('note_off', channel=9, note=40, velocity=0, time=6)
Message('note_off', channel=9, note=46, velocity=0, time=0)
Message('note_on', channel=9, note=36, velocity=92, time=18)
Message('note_off', channel=9, note=36, velocity=0, time=6)
Message('note_on', channel=9, note=36, velocity=92, time=18)
Message('note_on', channel=9, note=42, velocity=92, time=0)
Message('note_off', channel=9, note=36, velocity=0, time=6)
Message('note_off', channel=9, note=42, velocity=0, time=0)
Message('note_on', channel=9, note=42, velocity=92, time=18)
Message('note_off', channel=9, note=42, velocity=0, time=6)
Message('note_on', channel=9, note=36, velocity=92, time=42)
Message('note_on', channel=9, note=42, velocity=92, time=0)
Message('note_off', channel=9, note=36, velocity=0, time=6)
Message('note_off', channel=9, note=42, velocity=0, time=0)
Message('note_on', channel=9, note=46, velocity=92, time=18)
Message('note_off', channel=9, note=46, velocity=0, time=6)
Message('note_on', channel=9, note=36, velocity=92, time=18)
Message('note_off', channel=9, note=36, velocity=0, time=6)
Message('note_on', channel=9, note=40, velocity=106, time=18)
Message('note_on', channel=9, note=42, velocity=78, time=0)
Message('note_off', channel=9, note=40, velocity=0, time=6)
Message('note_off', channel=9, note=42, velocity=0, time=0)
Message('note_on', channel=9, note=46, velocity=92, time=18)
Message('note_off', channel=9, note=46, velocity=0, time=6)
Message('note_on', channel=9, note=36, velocity=78, time=42)
Message('note_off', channel=9, note=36, velocity=0, time=6)
Message('note_on', channel=9, note=36, velocity=106, time=18)
Message('note_off', channel=9, note=36, velocity=0, time=6)
Message('note_on', channel=9, note=42, velocity=64, time=18)
Message('note_off', channel=9, note=42, velocity=0, time=6)
Message('note_on', channel=9, note=42, velocity=64, time=18)
Message('note_on', channel=9, note=36, velocity=78, time=0)
Message('note_off', channel=9, note=42, velocity=0, time=6)
Message('note_off', channel=9, note=36, velocity=0, time=0)
Message('note_on', channel=9, note=40, velocity=78, time=42)
Message('note_on', channel=9, note=46, velocity=92, time=0)
Message('note_off', channel=9, note=40, velocity=0, time=6)
Message('note_off', channel=9, note=46, velocity=0, time=0)
Message('note_on', channel=9, note=36, velocity=92, time=18)
Message('note_off', channel=9, note=36, velocity=0, time=6)
Message('note_on', channel=9, note=36, velocity=92, time=18)
Message('note_on', channel=9, note=42, velocity=92, time=0)
Message('note_off', channel=9, note=36, velocity=0, time=6)
Message('note_off', channel=9, note=42, velocity=0, time=0)
Message('note_on', channel=9, note=42, velocity=92, time=18)
Message('note_off', channel=9, note=42, velocity=0, time=6)
Message('note_on', channel=9, note=36, velocity=92, time=42)
Message('note_on', channel=9, note=42, velocity=92, time=0)
Message('note_off', channel=9, note=36, velocity=0, time=6)
Message('note_off', channel=9, note=42, velocity=0, time=0)
Message('note_on', channel=9, note=46, velocity=92, time=18)
Message('note_off', channel=9, note=46, velocity=0, time=6)
Message('note_on', channel=9, note=36, velocity=92, time=18)
Message('note_off', channel=9, note=36, velocity=0, time=6)
Message('note_on', channel=9, note=42, velocity=78, time=18)
Message('note_on', channel=9, note=40, velocity=106, time=0)
Message('note_off', channel=9, note=42, velocity=0, time=6)
Message('note_off', channel=9, note=40, velocity=0, time=0)
Message('note_on', channel=9, note=46, velocity=92, time=18)
Message('note_off', channel=9, note=46, velocity=0, time=6)
Message('note_on', channel=9, note=38, velocity=78, time=18)
Message('note_off', channel=9, note=38, velocity=0, time=6)
Message('note_on', channel=9, note=42, velocity=78, time=18)
Message('note_on', channel=9, note=38, velocity=78, time=0)
Message('note_off', channel=9, note=42, velocity=0, time=6)
Message('note_off', channel=9, note=38, velocity=0, time=0)
Message('note_on', channel=9, note=49, velocity=92, time=18)
Message('note_on', channel=9, note=36, velocity=106, time=0)
Message('note_off', channel=9, note=49, velocity=0, time=6)
Message('note_off', channel=9, note=36, velocity=0, time=0)
Message('note_on', channel=9, note=42, velocity=64, time=18)
Message('note_off', channel=9, note=42, velocity=0, time=6)
Message('note_on', channel=9, note=42, velocity=64, time=18)
Message('note_off', channel=9, note=42, velocity=0, time=6)
Message('note_on', channel=9, note=46, velocity=92, time=42)
Message('note_on', channel=9, note=40, velocity=78, time=0)
Message('note_off', channel=9, note=46, velocity=0, time=6)
Message('note_off', channel=9, note=40, velocity=0, time=0)
Message('note_on', channel=9, note=36, velocity=92, time=18)
Message('note_off', channel=9, note=36, velocity=0, time=6)
Message('note_on', channel=9, note=42, velocity=92, time=18)
Message('note_on', channel=9, note=36, velocity=92, time=0)
Message('note_off', channel=9, note=42, velocity=0, time=6)
Message('note_off', channel=9, note=36, velocity=0, time=0)
Message('note_on', channel=9, note=42, velocity=92, time=18)
Message('note_off', channel=9, note=42, velocity=0, time=6)
Message('note_on', channel=9, note=36, velocity=92, time=42)
Message('note_on', channel=9, note=42, velocity=92, time=0)
Message('note_off', channel=9, note=36, velocity=0, time=6)
Message('note_off', channel=9, note=42, velocity=0, time=0)
Message('note_on', channel=9, note=46, velocity=92, time=18)
Message('note_off', channel=9, note=46, velocity=0, time=6)
Message('note_on', channel=9, note=36, velocity=92, time=18)
Message('note_off', channel=9, note=36, velocity=0, time=6)
Message('note_on', channel=9, note=40, velocity=106, time=18)
Message('note_on', channel=9, note=42, velocity=78, time=0)
Message('note_off', channel=9, note=40, velocity=0, time=6)
Message('note_off', channel=9, note=42, velocity=0, time=0)
Message('note_on', channel=9, note=46, velocity=92, time=18)
Message('note_off', channel=9, note=46, velocity=0, time=6)
Message('note_on', channel=9, note=36, velocity=78, time=42)
Message('note_off', channel=9, note=36, velocity=0, time=6)
Message('note_on', channel=9, note=41, velocity=78, time=18)
Message('note_on', channel=9, note=36, velocity=106, time=0)
Message('note_off', channel=9, note=41, velocity=0, time=6)
Message('note_off', channel=9, note=36, velocity=0, time=0)
Message('note_on', channel=9, note=42, velocity=64, time=18)
Message('note_on', channel=9, note=48, velocity=78, time=0)
Message('note_on', channel=9, note=38, velocity=92, time=0)
Message('note_off', channel=9, note=42, velocity=0, time=6)
Message('note_off', channel=9, note=48, velocity=0, time=0)
Message('note_off', channel=9, note=38, velocity=0, time=0)
Message('note_on', channel=9, note=38, velocity=92, time=18)
Message('note_on', channel=9, note=45, velocity=78, time=0)
Message('note_on', channel=9, note=42, velocity=64, time=0)
Message('note_on', channel=9, note=36, velocity=78, time=0)
Message('note_off', channel=9, note=38, velocity=0, time=6)
Message('note_off', channel=9, note=45, velocity=0, time=0)
Message('note_off', channel=9, note=42, velocity=0, time=0)
Message('note_off', channel=9, note=36, velocity=0, time=0)
Message('note_on', channel=9, note=45, velocity=78, time=18)
Message('note_off', channel=9, note=45, velocity=0, time=6)
Message('note_on', channel=9, note=40, velocity=78, time=18)
Message('note_on', channel=9, note=46, velocity=92, time=0)
Message('note_on', channel=9, note=41, velocity=78, time=0)
Message('note_on', channel=9, note=38, velocity=92, time=0)
Message('note_off', channel=9, note=40, velocity=0, time=6)
Message('note_off', channel=9, note=46, velocity=0, time=0)
Message('note_off', channel=9, note=41, velocity=0, time=0)
Message('note_off', channel=9, note=38, velocity=0, time=0)
Message('note_on', channel=9, note=36, velocity=92, time=18)
Message('note_on', channel=9, note=41, velocity=78, time=0)
Message('note_on', channel=9, note=38, velocity=92, time=0)
Message('note_off', channel=9, note=36, velocity=0, time=6)
Message('note_off', channel=9, note=41, velocity=0, time=0)
Message('note_off', channel=9, note=38, velocity=0, time=0)
Message('note_on', channel=9, note=38, velocity=92, time=18)
Message('note_on', channel=9, note=41, velocity=78, time=0)
Message('note_on', channel=9, note=42, velocity=92, time=0)
Message('note_on', channel=9, note=36, velocity=92, time=0)
Message('note_off', channel=9, note=38, velocity=0, time=6)
Message('note_off', channel=9, note=41, velocity=0, time=0)
Message('note_off', channel=9, note=42, velocity=0, time=0)
Message('note_off', channel=9, note=36, velocity=0, time=0)
Message('note_on', channel=9, note=40, velocity=106, time=18)
Message('note_on', channel=9, note=42, velocity=92, time=0)
Message('note_on', channel=9, note=41, velocity=78, time=0)
Message('note_off', channel=9, note=40, velocity=0, time=6)
Message('note_off', channel=9, note=42, velocity=0, time=0)
Message('note_off', channel=9, note=41, velocity=0, time=0)
Message('note_on', channel=9, note=40, velocity=106, time=18)
Message('note_on', channel=9, note=36, velocity=106, time=0)
Message('note_off', channel=9, note=40, velocity=0, time=6)
Message('note_off', channel=9, note=36, velocity=0, time=0)
Message('note_on', channel=9, note=36, velocity=92, time=18)
Message('note_on', channel=9, note=42, velocity=92, time=0)
Message('note_off', channel=9, note=36, velocity=0, time=6)
Message('note_off', channel=9, note=42, velocity=0, time=0)
Message('note_on', channel=9, note=46, velocity=92, time=18)
Message('note_off', channel=9, note=46, velocity=0, time=6)
Message('note_on', channel=9, note=36, velocity=92, time=18)
Message('note_off', channel=9, note=36, velocity=0, time=6)
Message('note_on', channel=9, note=40, velocity=106, time=18)
Message('note_on', channel=9, note=42, velocity=78, time=0)
Message('note_on', channel=9, note=36, velocity=106, time=0)
Message('note_on', channel=9, note=49, velocity=106, time=0)
Message('note_off', channel=9, note=40, velocity=0, time=6)
Message('note_off', channel=9, note=42, velocity=0, time=0)
Message('note_off', channel=9, note=36, velocity=0, time=0)
Message('note_off', channel=9, note=49, velocity=0, time=0)
Message('note_on', channel=9, note=46, velocity=92, time=18)
Message('note_off', channel=9, note=46, velocity=0, time=6)
Message('note_on', channel=9, note=38, velocity=78, time=18)
Message('note_off', channel=9, note=38, velocity=0, time=6)
Message('note_on', channel=9, note=42, velocity=78, time=18)
Message('note_on', channel=9, note=38, velocity=78, time=0)
Message('note_off', channel=9, note=42, velocity=0, time=6)
Message('note_off', channel=9, note=38, velocity=0, time=0)
Message('note_on', channel=9, note=42, velocity=106, time=18)
Message('note_on', channel=9, note=36, velocity=92, time=0)
Message('note_on', channel=9, note=49, velocity=92, time=0)
Message('note_off', channel=9, note=42, velocity=0, time=6)
Message('note_off', channel=9, note=36, velocity=0, time=0)
Message('note_off', channel=9, note=49, velocity=0, time=0)
Message('note_on', channel=9, note=42, velocity=106, time=42)
Message('note_off', channel=9, note=42, velocity=0, time=6)
Message('note_on', channel=9, note=36, velocity=92, time=18)
Message('note_off', channel=9, note=36, velocity=0, time=6)
Message('note_on', channel=9, note=42, velocity=106, time=18)
Message('note_off', channel=9, note=42, velocity=0, time=6)
Message('note_on', channel=9, note=36, velocity=92, time=18)
Message('note_off', channel=9, note=36, velocity=0, time=6)
Message('note_on', channel=9, note=36, velocity=92, time=18)
Message('note_on', channel=9, note=42, velocity=106, time=0)
Message('note_off', channel=9, note=36, velocity=0, time=6)
Message('note_off', channel=9, note=42, velocity=0, time=0)
Message('note_on', channel=9, note=36, velocity=92, time=18)
Message('note_off', channel=9, note=36, velocity=0, time=6)
Message('note_on', channel=9, note=38, velocity=92, time=18)
Message('note_on', channel=9, note=42, velocity=106, time=0)
Message('note_off', channel=9, note=38, velocity=0, time=6)
Message('note_off', channel=9, note=42, velocity=0, time=0)
Message('note_on', channel=9, note=42, velocity=106, time=42)
Message('note_off', channel=9, note=42, velocity=0, time=6)
Message('note_on', channel=9, note=42, velocity=106, time=42)
Message('note_on', channel=9, note=36, velocity=92, time=0)
Message('note_off', channel=9, note=42, velocity=0, time=6)
Message('note_off', channel=9, note=36, velocity=0, time=0)
Message('note_on', channel=9, note=36, velocity=92, time=42)
Message('note_on', channel=9, note=42, velocity=106, time=0)
Message('note_off', channel=9, note=36, velocity=0, time=6)
Message('note_off', channel=9, note=42, velocity=0, time=0)
Message('note_on', channel=9, note=36, velocity=92, time=42)
Message('note_on', channel=9, note=42, velocity=106, time=0)
Message('note_off', channel=9, note=36, velocity=0, time=6)
Message('note_off', channel=9, note=42, velocity=0, time=0)
Message('note_on', channel=9, note=42, velocity=106, time=42)
Message('note_off', channel=9, note=42, velocity=0, time=6)
Message('note_on', channel=9, note=36, velocity=92, time=18)
Message('note_off', channel=9, note=36, velocity=0, time=6)
Message('note_on', channel=9, note=42, velocity=106, time=18)
Message('note_off', channel=9, note=42, velocity=0, time=6)
Message('note_on', channel=9, note=36, velocity=92, time=18)
Message('note_off', channel=9, note=36, velocity=0, time=6)
Message('note_on', channel=9, note=36, velocity=92, time=18)
Message('note_on', channel=9, note=42, velocity=106, time=0)
Message('note_off', channel=9, note=36, velocity=0, time=6)
Message('note_off', channel=9, note=42, velocity=0, time=0)
Message('note_on', channel=9, note=36, velocity=92, time=18)
Message('note_off', channel=9, note=36, velocity=0, time=6)
Message('note_on', channel=9, note=42, velocity=106, time=18)
Message('note_on', channel=9, note=38, velocity=92, time=0)
Message('note_off', channel=9, note=42, velocity=0, time=6)
Message('note_off', channel=9, note=38, velocity=0, time=0)
Message('note_on', channel=9, note=42, velocity=106, time=42)
Message('note_off', channel=9, note=42, velocity=0, time=6)
Message('note_on', channel=9, note=42, velocity=106, time=42)
Message('note_on', channel=9, note=36, velocity=92, time=0)
Message('note_off', channel=9, note=42, velocity=0, time=6)
Message('note_off', channel=9, note=36, velocity=0, time=0)
Message('note_on', channel=9, note=42, velocity=106, time=42)
Message('note_on', channel=9, note=36, velocity=92, time=0)
Message('note_off', channel=9, note=42, velocity=0, time=6)
Message('note_off', channel=9, note=36, velocity=0, time=0)
Message('note_on', channel=9, note=36, velocity=92, time=42)
Message('note_on', channel=9, note=42, velocity=106, time=0)
Message('note_off', channel=9, note=36, velocity=0, time=6)
Message('note_off', channel=9, note=42, velocity=0, time=0)
Message('note_on', channel=9, note=42, velocity=106, time=42)
Message('note_off', channel=9, note=42, velocity=0, time=6)
Message('note_on', channel=9, note=36, velocity=92, time=18)
Message('note_off', channel=9, note=36, velocity=0, time=6)
Message('note_on', channel=9, note=42, velocity=106, time=18)
Message('note_off', channel=9, note=42, velocity=0, time=6)
Message('note_on', channel=9, note=36, velocity=92, time=18)
Message('note_off', channel=9, note=36, velocity=0, time=6)
Message('note_on', channel=9, note=42, velocity=106, time=18)
Message('note_on', channel=9, note=36, velocity=92, time=0)
Message('note_off', channel=9, note=42, velocity=0, time=6)
Message('note_off', channel=9, note=36, velocity=0, time=0)
Message('note_on', channel=9, note=36, velocity=92, time=18)
Message('note_off', channel=9, note=36, velocity=0, time=6)
Message('note_on', channel=9, note=38, velocity=92, time=18)
Message('note_on', channel=9, note=42, velocity=106, time=0)
Message('note_off', channel=9, note=38, velocity=0, time=6)
Message('note_off', channel=9, note=42, velocity=0, time=0)
Message('note_on', channel=9, note=42, velocity=106, time=42)
Message('note_off', channel=9, note=42, velocity=0, time=6)
Message('note_on', channel=9, note=42, velocity=106, time=42)
Message('note_on', channel=9, note=36, velocity=92, time=0)
Message('note_off', channel=9, note=42, velocity=0, time=6)
Message('note_off', channel=9, note=36, velocity=0, time=0)
Message('note_on', channel=9, note=42, velocity=106, time=42)
Message('note_on', channel=9, note=36, velocity=92, time=0)
Message('note_off', channel=9, note=42, velocity=0, time=6)
Message('note_off', channel=9, note=36, velocity=0, time=0)
Message('note_on', channel=9, note=36, velocity=92, time=42)
Message('note_on', channel=9, note=42, velocity=106, time=0)
Message('note_off', channel=9, note=36, velocity=0, time=6)
Message('note_off', channel=9, note=42, velocity=0, time=0)
Message('note_on', channel=9, note=42, velocity=106, time=42)
Message('note_off', channel=9, note=42, velocity=0, time=6)
Message('note_on', channel=9, note=36, velocity=92, time=18)
Message('note_off', channel=9, note=36, velocity=0, time=6)
Message('note_on', channel=9, note=42, velocity=106, time=18)
Message('note_off', channel=9, note=42, velocity=0, time=6)
Message('note_on', channel=9, note=36, velocity=92, time=18)
Message('note_off', channel=9, note=36, velocity=0, time=6)
Message('note_on', channel=9, note=36, velocity=92, time=18)
Message('note_on', channel=9, note=42, velocity=106, time=0)
Message('note_off', channel=9, note=36, velocity=0, time=6)
Message('note_off', channel=9, note=42, velocity=0, time=0)
Message('note_on', channel=9, note=36, velocity=92, time=18)
Message('note_off', channel=9, note=36, velocity=0, time=6)
Message('note_on', channel=9, note=38, velocity=92, time=18)
Message('note_on', channel=9, note=42, velocity=106, time=0)
Message('note_off', channel=9, note=38, velocity=0, time=6)
Message('note_off', channel=9, note=42, velocity=0, time=0)
Message('note_on', channel=9, note=40, velocity=78, time=42)
Message('note_on', channel=9, note=42, velocity=106, time=0)
Message('note_off', channel=9, note=40, velocity=0, time=6)
Message('note_off', channel=9, note=42, velocity=0, time=0)
Message('note_on', channel=9, note=40, velocity=78, time=18)
Message('note_off', channel=9, note=40, velocity=0, time=6)
Message('note_on', channel=9, note=36, velocity=92, time=18)
Message('note_on', channel=9, note=42, velocity=106, time=0)
Message('note_off', channel=9, note=36, velocity=0, time=6)
Message('note_off', channel=9, note=42, velocity=0, time=0)
Message('note_on', channel=9, note=40, velocity=92, time=18)
Message('note_off', channel=9, note=40, velocity=0, time=6)
Message('note_on', channel=9, note=42, velocity=106, time=18)
Message('note_on', channel=9, note=36, velocity=92, time=0)
Message('note_on', channel=9, note=40, velocity=92, time=0)
Message('note_off', channel=9, note=42, velocity=0, time=6)
Message('note_off', channel=9, note=36, velocity=0, time=0)
Message('note_off', channel=9, note=40, velocity=0, time=0)
Message('note_on', channel=9, note=40, velocity=92, time=18)
Message('note_off', channel=9, note=40, velocity=0, time=6)
Message('note_on', channel=9, note=42, velocity=106, time=18)
Message('note_on', channel=9, note=36, velocity=92, time=0)
Message('note_on', channel=9, note=49, velocity=92, time=0)
Message('note_off', channel=9, note=42, velocity=0, time=6)
Message('note_off', channel=9, note=36, velocity=0, time=0)
Message('note_off', channel=9, note=49, velocity=0, time=0)
Message('note_on', channel=9, note=42, velocity=106, time=42)
Message('note_off', channel=9, note=42, velocity=0, time=6)
Message('note_on', channel=9, note=36, velocity=92, time=18)
Message('note_off', channel=9, note=36, velocity=0, time=6)
Message('note_on', channel=9, note=42, velocity=106, time=18)
Message('note_off', channel=9, note=42, velocity=0, time=6)
Message('note_on', channel=9, note=36, velocity=92, time=18)
Message('note_off', channel=9, note=36, velocity=0, time=6)
Message('note_on', channel=9, note=42, velocity=106, time=18)
Message('note_on', channel=9, note=36, velocity=92, time=0)
Message('note_off', channel=9, note=42, velocity=0, time=6)
Message('note_off', channel=9, note=36, velocity=0, time=0)
Message('note_on', channel=9, note=36, velocity=92, time=18)
Message('note_off', channel=9, note=36, velocity=0, time=6)
Message('note_on', channel=9, note=38, velocity=92, time=18)
Message('note_on', channel=9, note=42, velocity=106, time=0)
Message('note_off', channel=9, note=38, velocity=0, time=6)
Message('note_off', channel=9, note=42, velocity=0, time=0)
Message('note_on', channel=9, note=42, velocity=106, time=42)
Message('note_off', channel=9, note=42, velocity=0, time=6)
Message('note_on', channel=9, note=42, velocity=106, time=42)
Message('note_on', channel=9, note=36, velocity=92, time=0)
Message('note_off', channel=9, note=42, velocity=0, time=6)
Message('note_off', channel=9, note=36, velocity=0, time=0)
Message('note_on', channel=9, note=36, velocity=92, time=42)
Message('note_on', channel=9, note=42, velocity=106, time=0)
Message('note_off', channel=9, note=36, velocity=0, time=6)
Message('note_off', channel=9, note=42, velocity=0, time=0)
Message('note_on', channel=9, note=36, velocity=92, time=42)
Message('note_on', channel=9, note=42, velocity=106, time=0)
Message('note_off', channel=9, note=36, velocity=0, time=6)
Message('note_off', channel=9, note=42, velocity=0, time=0)
Message('note_on', channel=9, note=42, velocity=106, time=42)
Message('note_off', channel=9, note=42, velocity=0, time=6)
Message('note_on', channel=9, note=36, velocity=92, time=18)
Message('note_off', channel=9, note=36, velocity=0, time=6)
Message('note_on', channel=9, note=42, velocity=106, time=18)
Message('note_off', channel=9, note=42, velocity=0, time=6)
Message('note_on', channel=9, note=36, velocity=92, time=18)
Message('note_off', channel=9, note=36, velocity=0, time=6)
Message('note_on', channel=9, note=36, velocity=92, time=18)
Message('note_on', channel=9, note=42, velocity=106, time=0)
Message('note_off', channel=9, note=36, velocity=0, time=6)
Message('note_off', channel=9, note=42, velocity=0, time=0)
Message('note_on', channel=9, note=36, velocity=92, time=18)
Message('note_off', channel=9, note=36, velocity=0, time=6)
Message('note_on', channel=9, note=42, velocity=106, time=18)
Message('note_on', channel=9, note=38, velocity=92, time=0)
Message('note_off', channel=9, note=42, velocity=0, time=6)
Message('note_off', channel=9, note=38, velocity=0, time=0)
Message('note_on', channel=9, note=42, velocity=106, time=42)
Message('note_off', channel=9, note=42, velocity=0, time=6)
Message('note_on', channel=9, note=42, velocity=106, time=42)
Message('note_on', channel=9, note=36, velocity=92, time=0)
Message('note_off', channel=9, note=42, velocity=0, time=6)
Message('note_off', channel=9, note=36, velocity=0, time=0)
Message('note_on', channel=9, note=42, velocity=106, time=42)
Message('note_on', channel=9, note=36, velocity=92, time=0)
Message('note_off', channel=9, note=42, velocity=0, time=6)
Message('note_off', channel=9, note=36, velocity=0, time=0)
Message('note_on', channel=9, note=36, velocity=92, time=42)
Message('note_on', channel=9, note=42, velocity=106, time=0)
Message('note_off', channel=9, note=36, velocity=0, time=6)
Message('note_off', channel=9, note=42, velocity=0, time=0)
Message('note_on', channel=9, note=42, velocity=106, time=42)
Message('note_off', channel=9, note=42, velocity=0, time=6)
Message('note_on', channel=9, note=36, velocity=92, time=18)
Message('note_off', channel=9, note=36, velocity=0, time=6)
Message('note_on', channel=9, note=42, velocity=106, time=18)
Message('note_off', channel=9, note=42, velocity=0, time=6)
Message('note_on', channel=9, note=36, velocity=92, time=18)
Message('note_off', channel=9, note=36, velocity=0, time=6)
Message('note_on', channel=9, note=42, velocity=106, time=18)
Message('note_on', channel=9, note=36, velocity=92, time=0)
Message('note_off', channel=9, note=42, velocity=0, time=6)
Message('note_off', channel=9, note=36, velocity=0, time=0)
Message('note_on', channel=9, note=36, velocity=92, time=18)
Message('note_off', channel=9, note=36, velocity=0, time=6)
Message('note_on', channel=9, note=38, velocity=92, time=18)
Message('note_on', channel=9, note=42, velocity=106, time=0)
Message('note_off', channel=9, note=38, velocity=0, time=6)
Message('note_off', channel=9, note=42, velocity=0, time=0)
Message('note_on', channel=9, note=42, velocity=106, time=42)
Message('note_off', channel=9, note=42, velocity=0, time=6)
Message('note_on', channel=9, note=42, velocity=106, time=42)
Message('note_on', channel=9, note=36, velocity=92, time=0)
Message('note_off', channel=9, note=42, velocity=0, time=6)
Message('note_off', channel=9, note=36, velocity=0, time=0)
Message('note_on', channel=9, note=42, velocity=106, time=42)
Message('note_on', channel=9, note=36, velocity=92, time=0)
Message('note_off', channel=9, note=42, velocity=0, time=6)
Message('note_off', channel=9, note=36, velocity=0, time=0)
Message('note_on', channel=9, note=36, velocity=92, time=42)
Message('note_on', channel=9, note=42, velocity=106, time=0)
Message('note_off', channel=9, note=36, velocity=0, time=6)
Message('note_off', channel=9, note=42, velocity=0, time=0)
Message('note_on', channel=9, note=42, velocity=106, time=42)
Message('note_off', channel=9, note=42, velocity=0, time=6)
Message('note_on', channel=9, note=36, velocity=92, time=18)
Message('note_off', channel=9, note=36, velocity=0, time=6)
Message('note_on', channel=9, note=42, velocity=106, time=18)
Message('note_off', channel=9, note=42, velocity=0, time=6)
Message('note_on', channel=9, note=36, velocity=92, time=18)
Message('note_off', channel=9, note=36, velocity=0, time=6)
Message('note_on', channel=9, note=36, velocity=92, time=18)
Message('note_on', channel=9, note=42, velocity=106, time=0)
Message('note_off', channel=9, note=36, velocity=0, time=6)
Message('note_off', channel=9, note=42, velocity=0, time=0)
Message('note_on', channel=9, note=36, velocity=92, time=18)
Message('note_off', channel=9, note=36, velocity=0, time=6)
Message('note_on', channel=9, note=38, velocity=92, time=18)
Message('note_on', channel=9, note=42, velocity=106, time=0)
Message('note_off', channel=9, note=38, velocity=0, time=6)
Message('note_off', channel=9, note=42, velocity=0, time=0)
Message('note_on', channel=9, note=40, velocity=78, time=42)
Message('note_on', channel=9, note=42, velocity=106, time=0)
Message('note_off', channel=9, note=40, velocity=0, time=6)
Message('note_off', channel=9, note=42, velocity=0, time=0)
Message('note_on', channel=9, note=40, velocity=78, time=18)
Message('note_off', channel=9, note=40, velocity=0, time=6)
Message('note_on', channel=9, note=42, velocity=106, time=18)
Message('note_on', channel=9, note=36, velocity=92, time=0)
Message('note_off', channel=9, note=42, velocity=0, time=6)
Message('note_off', channel=9, note=36, velocity=0, time=0)
Message('note_on', channel=9, note=40, velocity=92, time=18)
Message('note_off', channel=9, note=40, velocity=0, time=6)
Message('note_on', channel=9, note=40, velocity=92, time=18)
Message('note_on', channel=9, note=36, velocity=92, time=0)
Message('note_on', channel=9, note=42, velocity=106, time=0)
Message('note_off', channel=9, note=40, velocity=0, time=6)
Message('note_off', channel=9, note=36, velocity=0, time=0)
Message('note_off', channel=9, note=42, velocity=0, time=0)
Message('note_on', channel=9, note=40, velocity=92, time=18)
Message('note_off', channel=9, note=40, velocity=0, time=6)
Message('note_on', channel=9, note=49, velocity=92, time=18)
Message('note_on', channel=9, note=36, velocity=92, time=0)
Message('note_on', channel=9, note=42, velocity=106, time=0)
Message('note_off', channel=9, note=49, velocity=0, time=6)
Message('note_off', channel=9, note=36, velocity=0, time=0)
Message('note_off', channel=9, note=42, velocity=0, time=0)
Message('note_on', channel=9, note=46, velocity=106, time=42)
Message('note_off', channel=9, note=46, velocity=0, time=6)
Message('note_on', channel=9, note=36, velocity=92, time=18)
Message('note_on', channel=9, note=42, velocity=106, time=0)
Message('note_off', channel=9, note=36, velocity=0, time=6)
Message('note_off', channel=9, note=42, velocity=0, time=0)
Message('note_on', channel=9, note=42, velocity=106, time=18)
Message('note_on', channel=9, note=38, velocity=92, time=0)
Message('note_off', channel=9, note=42, velocity=0, time=6)
Message('note_off', channel=9, note=38, velocity=0, time=0)
Message('note_on', channel=9, note=36, velocity=92, time=18)
Message('note_off', channel=9, note=36, velocity=0, time=6)
Message('note_on', channel=9, note=42, velocity=106, time=18)
Message('note_off', channel=9, note=42, velocity=0, time=6)
Message('note_on', channel=9, note=36, velocity=92, time=18)
Message('note_off', channel=9, note=36, velocity=0, time=6)
Message('note_on', channel=9, note=42, velocity=106, time=18)
Message('note_off', channel=9, note=42, velocity=0, time=6)
Message('note_on', channel=9, note=46, velocity=106, time=42)
Message('note_on', channel=9, note=36, velocity=92, time=0)
Message('note_off', channel=9, note=46, velocity=0, time=6)
Message('note_off', channel=9, note=36, velocity=0, time=0)
Message('note_on', channel=9, note=42, velocity=106, time=18)
Message('note_off', channel=9, note=42, velocity=0, time=6)
Message('note_on', channel=9, note=42, velocity=106, time=18)
Message('note_on', channel=9, note=38, velocity=92, time=0)
Message('note_off', channel=9, note=42, velocity=0, time=6)
Message('note_off', channel=9, note=38, velocity=0, time=0)
Message('note_on', channel=9, note=36, velocity=92, time=42)
Message('note_on', channel=9, note=42, velocity=106, time=0)
Message('note_off', channel=9, note=36, velocity=0, time=6)
Message('note_off', channel=9, note=42, velocity=0, time=0)
Message('note_on', channel=9, note=36, velocity=92, time=42)
Message('note_on', channel=9, note=42, velocity=106, time=0)
Message('note_off', channel=9, note=36, velocity=0, time=6)
Message('note_off', channel=9, note=42, velocity=0, time=0)
Message('note_on', channel=9, note=36, velocity=92, time=42)
Message('note_on', channel=9, note=46, velocity=106, time=0)
Message('note_off', channel=9, note=36, velocity=0, time=6)
Message('note_off', channel=9, note=46, velocity=0, time=0)
Message('note_on', channel=9, note=42, velocity=106, time=18)
Message('note_off', channel=9, note=42, velocity=0, time=6)
Message('note_on', channel=9, note=42, velocity=106, time=18)
Message('note_on', channel=9, note=38, velocity=92, time=0)
Message('note_off', channel=9, note=42, velocity=0, time=6)
Message('note_off', channel=9, note=38, velocity=0, time=0)
Message('note_on', channel=9, note=42, velocity=106, time=42)
Message('note_off', channel=9, note=42, velocity=0, time=6)
Message('note_on', channel=9, note=36, velocity=92, time=18)
Message('note_off', channel=9, note=36, velocity=0, time=6)
Message('note_on', channel=9, note=42, velocity=106, time=18)
Message('note_on', channel=9, note=36, velocity=92, time=0)
Message('note_off', channel=9, note=42, velocity=0, time=6)
Message('note_off', channel=9, note=36, velocity=0, time=0)
Message('note_on', channel=9, note=36, velocity=92, time=18)
Message('note_off', channel=9, note=36, velocity=0, time=6)
Message('note_on', channel=9, note=36, velocity=92, time=18)
Message('note_on', channel=9, note=46, velocity=106, time=0)
Message('note_off', channel=9, note=36, velocity=0, time=6)
Message('note_off', channel=9, note=46, velocity=0, time=0)
Message('note_on', channel=9, note=42, velocity=106, time=18)
Message('note_off', channel=9, note=42, velocity=0, time=6)
Message('note_on', channel=9, note=42, velocity=106, time=18)
Message('note_on', channel=9, note=38, velocity=92, time=0)
Message('note_off', channel=9, note=42, velocity=0, time=6)
Message('note_off', channel=9, note=38, velocity=0, time=0)
Message('note_on', channel=9, note=36, velocity=92, time=18)
Message('note_off', channel=9, note=36, velocity=0, time=6)
Message('note_on', channel=9, note=42, velocity=106, time=18)
Message('note_on', channel=9, note=36, velocity=92, time=0)
Message('note_on', channel=9, note=38, velocity=64, time=0)
Message('note_off', channel=9, note=42, velocity=0, time=6)
Message('note_off', channel=9, note=36, velocity=0, time=0)
Message('note_off', channel=9, note=38, velocity=0, time=0)
Message('note_on', channel=9, note=36, velocity=92, time=18)
Message('note_on', channel=9, note=38, velocity=50, time=0)
Message('note_off', channel=9, note=36, velocity=0, time=6)
Message('note_off', channel=9, note=38, velocity=0, time=0)
Message('note_on', channel=9, note=36, velocity=92, time=18)
Message('note_on', channel=9, note=42, velocity=106, time=0)
Message('note_off', channel=9, note=36, velocity=0, time=6)
Message('note_off', channel=9, note=42, velocity=0, time=0)
Message('note_on', channel=9, note=46, velocity=106, time=42)
Message('note_off', channel=9, note=46, velocity=0, time=6)
Message('note_on', channel=9, note=36, velocity=92, time=18)
Message('note_on', channel=9, note=42, velocity=106, time=0)
Message('note_off', channel=9, note=36, velocity=0, time=6)
Message('note_off', channel=9, note=42, velocity=0, time=0)
Message('note_on', channel=9, note=42, velocity=106, time=18)
Message('note_on', channel=9, note=38, velocity=92, time=0)
Message('note_off', channel=9, note=42, velocity=0, time=6)
Message('note_off', channel=9, note=38, velocity=0, time=0)
Message('note_on', channel=9, note=36, velocity=92, time=18)
Message('note_off', channel=9, note=36, velocity=0, time=6)
Message('note_on', channel=9, note=42, velocity=106, time=18)
Message('note_off', channel=9, note=42, velocity=0, time=6)
Message('note_on', channel=9, note=36, velocity=92, time=18)
Message('note_off', channel=9, note=36, velocity=0, time=6)
Message('note_on', channel=9, note=42, velocity=106, time=18)
Message('note_off', channel=9, note=42, velocity=0, time=6)
Message('note_on', channel=9, note=46, velocity=106, time=42)
Message('note_on', channel=9, note=36, velocity=92, time=0)
Message('note_off', channel=9, note=46, velocity=0, time=6)
Message('note_off', channel=9, note=36, velocity=0, time=0)
Message('note_on', channel=9, note=42, velocity=106, time=18)
Message('note_off', channel=9, note=42, velocity=0, time=6)
Message('note_on', channel=9, note=42, velocity=106, time=18)
Message('note_on', channel=9, note=38, velocity=92, time=0)
Message('note_off', channel=9, note=42, velocity=0, time=6)
Message('note_off', channel=9, note=38, velocity=0, time=0)
Message('note_on', channel=9, note=42, velocity=106, time=42)
Message('note_on', channel=9, note=36, velocity=92, time=0)
Message('note_off', channel=9, note=42, velocity=0, time=6)
Message('note_off', channel=9, note=36, velocity=0, time=0)
Message('note_on', channel=9, note=36, velocity=92, time=42)
Message('note_on', channel=9, note=42, velocity=106, time=0)
Message('note_off', channel=9, note=36, velocity=0, time=6)
Message('note_off', channel=9, note=42, velocity=0, time=0)
Message('note_on', channel=9, note=36, velocity=92, time=42)
Message('note_on', channel=9, note=46, velocity=106, time=0)
Message('note_off', channel=9, note=36, velocity=0, time=6)
Message('note_off', channel=9, note=46, velocity=0, time=0)
Message('note_on', channel=9, note=42, velocity=106, time=18)
Message('note_off', channel=9, note=42, velocity=0, time=6)
Message('note_on', channel=9, note=42, velocity=106, time=18)
Message('note_on', channel=9, note=38, velocity=92, time=0)
Message('note_off', channel=9, note=42, velocity=0, time=6)
Message('note_off', channel=9, note=38, velocity=0, time=0)
Message('note_on', channel=9, note=42, velocity=106, time=42)
Message('note_off', channel=9, note=42, velocity=0, time=6)
Message('note_on', channel=9, note=36, velocity=92, time=18)
Message('note_off', channel=9, note=36, velocity=0, time=6)
Message('note_on', channel=9, note=36, velocity=92, time=18)
Message('note_on', channel=9, note=42, velocity=106, time=0)
Message('note_off', channel=9, note=36, velocity=0, time=6)
Message('note_off', channel=9, note=42, velocity=0, time=0)
Message('note_on', channel=9, note=38, velocity=92, time=18)
Message('note_on', channel=9, note=36, velocity=92, time=0)
Message('note_off', channel=9, note=38, velocity=0, time=6)
Message('note_off', channel=9, note=36, velocity=0, time=0)
Message('note_on', channel=9, note=38, velocity=92, time=18)
Message('note_on', channel=9, note=46, velocity=106, time=0)
Message('note_on', channel=9, note=36, velocity=92, time=0)
Message('note_off', channel=9, note=38, velocity=0, time=6)
Message('note_off', channel=9, note=46, velocity=0, time=0)
Message('note_off', channel=9, note=36, velocity=0, time=0)
Message('note_on', channel=9, note=42, velocity=106, time=18)
Message('note_off', channel=9, note=42, velocity=0, time=6)
Message('note_on', channel=9, note=40, velocity=92, time=18)
Message('note_on', channel=9, note=38, velocity=92, time=0)
Message('note_on', channel=9, note=42, velocity=106, time=0)
Message('note_off', channel=9, note=40, velocity=0, time=6)
Message('note_off', channel=9, note=38, velocity=0, time=0)
Message('note_off', channel=9, note=42, velocity=0, time=0)
Message('note_on', channel=9, note=36, velocity=92, time=18)
Message('note_off', channel=9, note=36, velocity=0, time=6)
Message('note_on', channel=9, note=42, velocity=106, time=18)
Message('note_on', channel=9, note=36, velocity=92, time=0)
Message('note_on', channel=9, note=38, velocity=64, time=0)
Message('note_on', channel=9, note=40, velocity=92, time=0)
Message('note_off', channel=9, note=42, velocity=0, time=6)
Message('note_off', channel=9, note=36, velocity=0, time=0)
Message('note_off', channel=9, note=38, velocity=0, time=0)
Message('note_off', channel=9, note=40, velocity=0, time=0)
Message('note_on', channel=9, note=40, velocity=92, time=18)
Message('note_on', channel=9, note=38, velocity=50, time=0)
Message('note_on', channel=9, note=36, velocity=92, time=0)
Message('note_off', channel=9, note=40, velocity=0, time=6)
Message('note_off', channel=9, note=38, velocity=0, time=0)
Message('note_off', channel=9, note=36, velocity=0, time=0)
Message('note_on', channel=9, note=42, velocity=106, time=18)
Message('note_on', channel=9, note=36, velocity=92, time=0)
Message('note_on', channel=9, note=49, velocity=92, time=0)
Message('note_off', channel=9, note=42, velocity=0, time=6)
Message('note_off', channel=9, note=36, velocity=0, time=0)
Message('note_off', channel=9, note=49, velocity=0, time=0)
Message('note_on', channel=9, note=46, velocity=106, time=42)
Message('note_off', channel=9, note=46, velocity=0, time=6)
Message('note_on', channel=9, note=42, velocity=106, time=18)
Message('note_on', channel=9, note=36, velocity=92, time=0)
Message('note_off', channel=9, note=42, velocity=0, time=6)
Message('note_off', channel=9, note=36, velocity=0, time=0)
Message('note_on', channel=9, note=42, velocity=106, time=18)
Message('note_on', channel=9, note=38, velocity=92, time=0)
Message('note_off', channel=9, note=42, velocity=0, time=6)
Message('note_off', channel=9, note=38, velocity=0, time=0)
Message('note_on', channel=9, note=36, velocity=92, time=18)
Message('note_off', channel=9, note=36, velocity=0, time=6)
Message('note_on', channel=9, note=42, velocity=106, time=18)
Message('note_off', channel=9, note=42, velocity=0, time=6)
Message('note_on', channel=9, note=36, velocity=92, time=18)
Message('note_off', channel=9, note=36, velocity=0, time=6)
Message('note_on', channel=9, note=42, velocity=106, time=18)
Message('note_off', channel=9, note=42, velocity=0, time=6)
Message('note_on', channel=9, note=46, velocity=106, time=42)
Message('note_on', channel=9, note=36, velocity=92, time=0)
Message('note_off', channel=9, note=46, velocity=0, time=6)
Message('note_off', channel=9, note=36, velocity=0, time=0)
Message('note_on', channel=9, note=42, velocity=106, time=18)
Message('note_off', channel=9, note=42, velocity=0, time=6)
Message('note_on', channel=9, note=42, velocity=106, time=18)
Message('note_on', channel=9, note=38, velocity=92, time=0)
Message('note_off', channel=9, note=42, velocity=0, time=6)
Message('note_off', channel=9, note=38, velocity=0, time=0)
Message('note_on', channel=9, note=36, velocity=92, time=42)
Message('note_on', channel=9, note=42, velocity=106, time=0)
Message('note_off', channel=9, note=36, velocity=0, time=6)
Message('note_off', channel=9, note=42, velocity=0, time=0)
Message('note_on', channel=9, note=36, velocity=92, time=42)
Message('note_on', channel=9, note=42, velocity=106, time=0)
Message('note_off', channel=9, note=36, velocity=0, time=6)
Message('note_off', channel=9, note=42, velocity=0, time=0)
Message('note_on', channel=9, note=36, velocity=92, time=42)
Message('note_on', channel=9, note=46, velocity=106, time=0)
Message('note_off', channel=9, note=36, velocity=0, time=6)
Message('note_off', channel=9, note=46, velocity=0, time=0)
Message('note_on', channel=9, note=42, velocity=106, time=18)
Message('note_off', channel=9, note=42, velocity=0, time=6)
Message('note_on', channel=9, note=42, velocity=106, time=18)
Message('note_on', channel=9, note=38, velocity=92, time=0)
Message('note_off', channel=9, note=42, velocity=0, time=6)
Message('note_off', channel=9, note=38, velocity=0, time=0)
Message('note_on', channel=9, note=42, velocity=106, time=42)
Message('note_off', channel=9, note=42, velocity=0, time=6)
Message('note_on', channel=9, note=36, velocity=92, time=18)
Message('note_off', channel=9, note=36, velocity=0, time=6)
Message('note_on', channel=9, note=42, velocity=106, time=18)
Message('note_on', channel=9, note=36, velocity=92, time=0)
Message('note_off', channel=9, note=42, velocity=0, time=6)
Message('note_off', channel=9, note=36, velocity=0, time=0)
Message('note_on', channel=9, note=36, velocity=92, time=18)
Message('note_off', channel=9, note=36, velocity=0, time=6)
Message('note_on', channel=9, note=36, velocity=92, time=18)
Message('note_on', channel=9, note=46, velocity=106, time=0)
Message('note_off', channel=9, note=36, velocity=0, time=6)
Message('note_off', channel=9, note=46, velocity=0, time=0)
Message('note_on', channel=9, note=42, velocity=106, time=18)
Message('note_off', channel=9, note=42, velocity=0, time=6)
Message('note_on', channel=9, note=42, velocity=106, time=18)
Message('note_on', channel=9, note=38, velocity=92, time=0)
Message('note_off', channel=9, note=42, velocity=0, time=6)
Message('note_off', channel=9, note=38, velocity=0, time=0)
Message('note_on', channel=9, note=36, velocity=92, time=18)
Message('note_off', channel=9, note=36, velocity=0, time=6)
Message('note_on', channel=9, note=42, velocity=106, time=18)
Message('note_on', channel=9, note=36, velocity=92, time=0)
Message('note_on', channel=9, note=38, velocity=64, time=0)
Message('note_off', channel=9, note=42, velocity=0, time=6)
Message('note_off', channel=9, note=36, velocity=0, time=0)
Message('note_off', channel=9, note=38, velocity=0, time=0)
Message('note_on', channel=9, note=36, velocity=92, time=18)
Message('note_on', channel=9, note=38, velocity=50, time=0)
Message('note_off', channel=9, note=36, velocity=0, time=6)
Message('note_off', channel=9, note=38, velocity=0, time=0)
Message('note_on', channel=9, note=36, velocity=92, time=18)
Message('note_on', channel=9, note=42, velocity=106, time=0)
Message('note_off', channel=9, note=36, velocity=0, time=6)
Message('note_off', channel=9, note=42, velocity=0, time=0)
Message('note_on', channel=9, note=46, velocity=106, time=42)
Message('note_off', channel=9, note=46, velocity=0, time=6)
Message('note_on', channel=9, note=36, velocity=92, time=18)
Message('note_on', channel=9, note=42, velocity=106, time=0)
Message('note_off', channel=9, note=36, velocity=0, time=6)
Message('note_off', channel=9, note=42, velocity=0, time=0)
Message('note_on', channel=9, note=42, velocity=106, time=18)
Message('note_on', channel=9, note=38, velocity=92, time=0)
Message('note_off', channel=9, note=42, velocity=0, time=6)
Message('note_off', channel=9, note=38, velocity=0, time=0)
Message('note_on', channel=9, note=36, velocity=92, time=18)
Message('note_off', channel=9, note=36, velocity=0, time=6)
Message('note_on', channel=9, note=42, velocity=106, time=18)
Message('note_off', channel=9, note=42, velocity=0, time=6)
Message('note_on', channel=9, note=36, velocity=92, time=18)
Message('note_off', channel=9, note=36, velocity=0, time=6)
Message('note_on', channel=9, note=42, velocity=106, time=18)
Message('note_off', channel=9, note=42, velocity=0, time=6)
Message('note_on', channel=9, note=46, velocity=106, time=42)
Message('note_on', channel=9, note=36, velocity=92, time=0)
Message('note_off', channel=9, note=46, velocity=0, time=6)
Message('note_off', channel=9, note=36, velocity=0, time=0)
Message('note_on', channel=9, note=42, velocity=106, time=18)
Message('note_off', channel=9, note=42, velocity=0, time=6)
Message('note_on', channel=9, note=42, velocity=106, time=18)
Message('note_on', channel=9, note=38, velocity=92, time=0)
Message('note_off', channel=9, note=42, velocity=0, time=6)
Message('note_off', channel=9, note=38, velocity=0, time=0)
Message('note_on', channel=9, note=42, velocity=106, time=42)
Message('note_on', channel=9, note=36, velocity=92, time=0)
Message('note_off', channel=9, note=42, velocity=0, time=6)
Message('note_off', channel=9, note=36, velocity=0, time=0)
Message('note_on', channel=9, note=36, velocity=92, time=42)
Message('note_on', channel=9, note=42, velocity=106, time=0)
Message('note_off', channel=9, note=36, velocity=0, time=6)
Message('note_off', channel=9, note=42, velocity=0, time=0)
Message('note_on', channel=9, note=36, velocity=92, time=42)
Message('note_on', channel=9, note=46, velocity=106, time=0)
Message('note_off', channel=9, note=36, velocity=0, time=6)
Message('note_off', channel=9, note=46, velocity=0, time=0)
Message('note_on', channel=9, note=42, velocity=106, time=18)
Message('note_off', channel=9, note=42, velocity=0, time=6)
Message('note_on', channel=9, note=42, velocity=106, time=18)
Message('note_on', channel=9, note=38, velocity=92, time=0)
Message('note_off', channel=9, note=42, velocity=0, time=6)
Message('note_off', channel=9, note=38, velocity=0, time=0)
Message('note_on', channel=9, note=48, velocity=106, time=18)
Message('note_off', channel=9, note=48, velocity=0, time=6)
Message('note_on', channel=9, note=48, velocity=106, time=18)
Message('note_on', channel=9, note=42, velocity=106, time=0)
Message('note_off', channel=9, note=48, velocity=0, time=6)
Message('note_off', channel=9, note=42, velocity=0, time=0)
Message('note_on', channel=9, note=36, velocity=92, time=18)
Message('note_on', channel=9, note=45, velocity=106, time=0)
Message('note_off', channel=9, note=36, velocity=0, time=6)
Message('note_off', channel=9, note=45, velocity=0, time=0)
Message('note_on', channel=9, note=41, velocity=106, time=18)
Message('note_on', channel=9, note=36, velocity=92, time=0)
Message('note_on', channel=9, note=42, velocity=106, time=0)
Message('note_off', channel=9, note=41, velocity=0, time=6)
Message('note_off', channel=9, note=36, velocity=0, time=0)
Message('note_off', channel=9, note=42, velocity=0, time=0)
Message('note_on', channel=9, note=48, velocity=106, time=18)
Message('note_on', channel=9, note=38, velocity=92, time=0)
Message('note_on', channel=9, note=36, velocity=92, time=0)
Message('note_off', channel=9, note=48, velocity=0, time=6)
Message('note_off', channel=9, note=38, velocity=0, time=0)
Message('note_off', channel=9, note=36, velocity=0, time=0)
Message('note_on', channel=9, note=45, velocity=106, time=18)
Message('note_on', channel=9, note=38, velocity=92, time=0)
Message('note_on', channel=9, note=46, velocity=106, time=0)
Message('note_on', channel=9, note=36, velocity=92, time=0)
Message('note_off', channel=9, note=45, velocity=0, time=6)
Message('note_off', channel=9, note=38, velocity=0, time=0)
Message('note_off', channel=9, note=46, velocity=0, time=0)
Message('note_off', channel=9, note=36, velocity=0, time=0)
Message('note_on', channel=9, note=42, velocity=106, time=18)
Message('note_on', channel=9, note=41, velocity=106, time=0)
Message('note_off', channel=9, note=42, velocity=0, time=6)
Message('note_off', channel=9, note=41, velocity=0, time=0)
Message('note_on', channel=9, note=48, velocity=106, time=18)
Message('note_on', channel=9, note=40, velocity=92, time=0)
Message('note_on', channel=9, note=38, velocity=92, time=0)
Message('note_on', channel=9, note=42, velocity=106, time=0)
Message('note_off', channel=9, note=48, velocity=0, time=6)
Message('note_off', channel=9, note=40, velocity=0, time=0)
Message('note_off', channel=9, note=38, velocity=0, time=0)
Message('note_off', channel=9, note=42, velocity=0, time=0)
Message('note_on', channel=9, note=41, velocity=106, time=18)
Message('note_on', channel=9, note=36, velocity=92, time=0)
Message('note_off', channel=9, note=41, velocity=0, time=6)
Message('note_off', channel=9, note=36, velocity=0, time=0)
Message('note_on', channel=9, note=42, velocity=106, time=18)
Message('note_on', channel=9, note=36, velocity=92, time=0)
Message('note_on', channel=9, note=38, velocity=64, time=0)
Message('note_on', channel=9, note=40, velocity=92, time=0)
Message('note_on', channel=9, note=48, velocity=106, time=0)
Message('note_off', channel=9, note=42, velocity=0, time=6)
Message('note_off', channel=9, note=36, velocity=0, time=0)
Message('note_off', channel=9, note=38, velocity=0, time=0)
Message('note_off', channel=9, note=40, velocity=0, time=0)
Message('note_off', channel=9, note=48, velocity=0, time=0)
Message('note_on', channel=9, note=41, velocity=106, time=18)
Message('note_on', channel=9, note=40, velocity=92, time=0)
Message('note_on', channel=9, note=38, velocity=50, time=0)
Message('note_on', channel=9, note=36, velocity=92, time=0)
Message('note_off', channel=9, note=41, velocity=0, time=6)
Message('note_off', channel=9, note=40, velocity=0, time=0)
Message('note_off', channel=9, note=38, velocity=0, time=0)
Message('note_off', channel=9, note=36, velocity=0, time=0)
Message('note_on', channel=9, note=49, velocity=120, time=18)
Message('note_on', channel=9, note=36, velocity=106, time=0)
Message('note_off', channel=9, note=49, velocity=0, time=6)
Message('note_off', channel=9, note=36, velocity=0, time=0)
Message('note_on', channel=9, note=42, velocity=50, time=18)
Message('note_off', channel=9, note=42, velocity=0, time=6)
Message('note_on', channel=9, note=42, velocity=50, time=18)
Message('note_off', channel=9, note=42, velocity=0, time=6)
Message('note_on', channel=9, note=42, velocity=106, time=42)
Message('note_off', channel=9, note=42, velocity=0, time=6)
Message('note_on', channel=9, note=42, velocity=64, time=18)
Message('note_off', channel=9, note=42, velocity=0, time=6)
Message('note_on', channel=9, note=36, velocity=106, time=66)
Message('note_on', channel=9, note=42, velocity=50, time=0)
Message('note_off', channel=9, note=36, velocity=0, time=6)
Message('note_off', channel=9, note=42, velocity=0, time=0)
Message('note_on', channel=9, note=42, velocity=50, time=42)
Message('note_off', channel=9, note=42, velocity=0, time=6)
Message('note_on', channel=9, note=42, velocity=106, time=42)
Message('note_off', channel=9, note=42, velocity=0, time=6)
Message('note_on', channel=9, note=42, velocity=64, time=18)
Message('note_off', channel=9, note=42, velocity=0, time=6)
Message('note_on', channel=9, note=36, velocity=106, time=66)
Message('note_on', channel=9, note=42, velocity=64, time=0)
Message('note_off', channel=9, note=36, velocity=0, time=6)
Message('note_off', channel=9, note=42, velocity=0, time=0)
Message('note_on', channel=9, note=42, velocity=50, time=18)
Message('note_off', channel=9, note=42, velocity=0, time=6)
Message('note_on', channel=9, note=42, velocity=50, time=18)
Message('note_off', channel=9, note=42, velocity=0, time=6)
Message('note_on', channel=9, note=42, velocity=106, time=42)
Message('note_off', channel=9, note=42, velocity=0, time=6)
Message('note_on', channel=9, note=42, velocity=64, time=18)
Message('note_off', channel=9, note=42, velocity=0, time=6)
Message('note_on', channel=9, note=36, velocity=106, time=66)
Message('note_on', channel=9, note=42, velocity=50, time=0)
Message('note_off', channel=9, note=36, velocity=0, time=6)
Message('note_off', channel=9, note=42, velocity=0, time=0)
Message('note_on', channel=9, note=42, velocity=50, time=42)
Message('note_off', channel=9, note=42, velocity=0, time=6)
Message('note_on', channel=9, note=42, velocity=106, time=42)
Message('note_off', channel=9, note=42, velocity=0, time=6)
Message('note_on', channel=9, note=42, velocity=64, time=18)
Message('note_off', channel=9, note=42, velocity=0, time=6)
Message('note_on', channel=9, note=36, velocity=106, time=66)
Message('note_on', channel=9, note=42, velocity=64, time=0)
Message('note_off', channel=9, note=42, velocity=0, time=6)
Message('note_off', channel=9, note=36, velocity=0, time=0)
Message('note_on', channel=9, note=42, velocity=50, time=18)
Message('note_off', channel=9, note=42, velocity=0, time=6)
Message('note_on', channel=9, note=42, velocity=50, time=18)
Message('note_off', channel=9, note=42, velocity=0, time=6)
Message('note_on', channel=9, note=36, velocity=106, time=42)
Message('note_on', channel=9, note=42, velocity=106, time=0)
Message('note_off', channel=9, note=36, velocity=0, time=6)
Message('note_off', channel=9, note=42, velocity=0, time=0)
Message('note_on', channel=9, note=42, velocity=64, time=18)
Message('note_off', channel=9, note=42, velocity=0, time=6)
Message('note_on', channel=9, note=36, velocity=106, time=66)
Message('note_on', channel=9, note=42, velocity=50, time=0)
Message('note_off', channel=9, note=36, velocity=0, time=6)
Message('note_off', channel=9, note=42, velocity=0, time=0)
Message('note_on', channel=9, note=42, velocity=50, time=42)
Message('note_off', channel=9, note=42, velocity=0, time=6)
Message('note_on', channel=9, note=36, velocity=106, time=42)
Message('note_on', channel=9, note=42, velocity=106, time=0)
Message('note_off', channel=9, note=36, velocity=0, time=6)
Message('note_off', channel=9, note=42, velocity=0, time=0)
Message('note_on', channel=9, note=42, velocity=64, time=18)
Message('note_off', channel=9, note=42, velocity=0, time=6)
Message('note_on', channel=9, note=36, velocity=106, time=66)
Message('note_on', channel=9, note=42, velocity=64, time=0)
Message('note_off', channel=9, note=36, velocity=0, time=6)
Message('note_off', channel=9, note=42, velocity=0, time=0)
Message('note_on', channel=9, note=42, velocity=50, time=18)
Message('note_off', channel=9, note=42, velocity=0, time=6)
Message('note_on', channel=9, note=42, velocity=50, time=18)
Message('note_off', channel=9, note=42, velocity=0, time=6)
Message('note_on', channel=9, note=42, velocity=106, time=42)
Message('note_on', channel=9, note=36, velocity=106, time=0)
Message('note_off', channel=9, note=42, velocity=0, time=6)
Message('note_off', channel=9, note=36, velocity=0, time=0)
Message('note_on', channel=9, note=42, velocity=64, time=18)
Message('note_off', channel=9, note=42, velocity=0, time=6)
Message('note_on', channel=9, note=36, velocity=106, time=66)
Message('note_on', channel=9, note=42, velocity=50, time=0)
Message('note_off', channel=9, note=36, velocity=0, time=6)
Message('note_off', channel=9, note=42, velocity=0, time=0)
Message('note_on', channel=9, note=42, velocity=50, time=42)
Message('note_off', channel=9, note=42, velocity=0, time=6)
Message('note_on', channel=9, note=36, velocity=36, time=18)
Message('note_off', channel=9, note=36, velocity=0, time=6)
Message('note_on', channel=9, note=42, velocity=106, time=18)
Message('note_on', channel=9, note=38, velocity=92, time=0)
Message('note_on', channel=9, note=40, velocity=120, time=0)
Message('note_on', channel=9, note=51, velocity=106, time=0)
Message('note_off', channel=9, note=42, velocity=0, time=6)
Message('note_off', channel=9, note=38, velocity=0, time=0)
Message('note_off', channel=9, note=40, velocity=0, time=0)
Message('note_off', channel=9, note=51, velocity=0, time=0)
Message('note_on', channel=9, note=42, velocity=64, time=18)
Message('note_off', channel=9, note=42, velocity=0, time=6)
Message('note_on', channel=9, note=38, velocity=64, time=18)
Message('note_on', channel=9, note=40, velocity=120, time=0)
Message('note_off', channel=9, note=38, velocity=0, time=6)
Message('note_off', channel=9, note=40, velocity=0, time=0)
Message('note_on', channel=9, note=36, velocity=106, time=42)
Message('note_on', channel=9, note=42, velocity=106, time=0)
Message('note_off', channel=9, note=36, velocity=0, time=6)
Message('note_off', channel=9, note=42, velocity=0, time=0)
Message('note_on', channel=9, note=36, velocity=106, time=42)
Message('note_on', channel=9, note=46, velocity=106, time=0)
Message('note_off', channel=9, note=36, velocity=0, time=6)
Message('note_off', channel=9, note=46, velocity=0, time=0)
Message('note_on', channel=9, note=40, velocity=106, time=42)
Message('note_on', channel=9, note=42, velocity=106, time=0)
Message('note_off', channel=9, note=40, velocity=0, time=6)
Message('note_off', channel=9, note=42, velocity=0, time=0)
Message('note_on', channel=9, note=46, velocity=106, time=42)
Message('note_off', channel=9, note=46, velocity=0, time=6)
Message('note_on', channel=9, note=36, velocity=106, time=42)
Message('note_on', channel=9, note=42, velocity=106, time=0)
Message('note_off', channel=9, note=36, velocity=0, time=6)
Message('note_off', channel=9, note=42, velocity=0, time=0)
Message('note_on', channel=9, note=36, velocity=92, time=18)
Message('note_off', channel=9, note=36, velocity=0, time=6)
Message('note_on', channel=9, note=36, velocity=92, time=18)
Message('note_on', channel=9, note=46, velocity=106, time=0)
Message('note_off', channel=9, note=36, velocity=0, time=6)
Message('note_off', channel=9, note=46, velocity=0, time=0)
Message('note_on', channel=9, note=42, velocity=106, time=18)
Message('note_off', channel=9, note=42, velocity=0, time=6)
Message('note_on', channel=9, note=40, velocity=106, time=18)
Message('note_off', channel=9, note=40, velocity=0, time=6)
Message('note_on', channel=9, note=36, velocity=106, time=42)
Message('note_on', channel=9, note=46, velocity=106, time=0)
Message('note_off', channel=9, note=36, velocity=0, time=6)
Message('note_off', channel=9, note=46, velocity=0, time=0)
Message('note_on', channel=9, note=42, velocity=106, time=18)
Message('note_off', channel=9, note=42, velocity=0, time=6)
Message('note_on', channel=9, note=36, velocity=106, time=18)
Message('note_on', channel=9, note=42, velocity=106, time=0)
Message('note_off', channel=9, note=36, velocity=0, time=6)
Message('note_off', channel=9, note=42, velocity=0, time=0)
Message('note_on', channel=9, note=36, velocity=106, time=42)
Message('note_on', channel=9, note=46, velocity=106, time=0)
Message('note_off', channel=9, note=36, velocity=0, time=6)
Message('note_off', channel=9, note=46, velocity=0, time=0)
Message('note_on', channel=9, note=40, velocity=106, time=42)
Message('note_on', channel=9, note=42, velocity=106, time=0)
Message('note_off', channel=9, note=40, velocity=0, time=6)
Message('note_off', channel=9, note=42, velocity=0, time=0)
Message('note_on', channel=9, note=46, velocity=106, time=42)
Message('note_off', channel=9, note=46, velocity=0, time=6)
Message('note_on', channel=9, note=42, velocity=106, time=42)
Message('note_on', channel=9, note=36, velocity=106, time=0)
Message('note_off', channel=9, note=42, velocity=0, time=6)
Message('note_off', channel=9, note=36, velocity=0, time=0)
Message('note_on', channel=9, note=36, velocity=92, time=18)
Message('note_off', channel=9, note=36, velocity=0, time=6)
Message('note_on', channel=9, note=46, velocity=106, time=18)
Message('note_on', channel=9, note=36, velocity=92, time=0)
Message('note_off', channel=9, note=46, velocity=0, time=6)
Message('note_off', channel=9, note=36, velocity=0, time=0)
Message('note_on', channel=9, note=42, velocity=106, time=18)
Message('note_off', channel=9, note=42, velocity=0, time=6)
Message('note_on', channel=9, note=40, velocity=106, time=18)
Message('note_off', channel=9, note=40, velocity=0, time=6)
Message('note_on', channel=9, note=46, velocity=106, time=42)
Message('note_on', channel=9, note=36, velocity=106, time=0)
Message('note_off', channel=9, note=46, velocity=0, time=6)
Message('note_off', channel=9, note=36, velocity=0, time=0)
Message('note_on', channel=9, note=42, velocity=106, time=18)
Message('note_off', channel=9, note=42, velocity=0, time=6)
Message('note_on', channel=9, note=42, velocity=106, time=18)
Message('note_on', channel=9, note=36, velocity=106, time=0)
Message('note_off', channel=9, note=42, velocity=0, time=6)
Message('note_off', channel=9, note=36, velocity=0, time=0)
Message('note_on', channel=9, note=46, velocity=106, time=42)
Message('note_on', channel=9, note=36, velocity=106, time=0)
Message('note_off', channel=9, note=46, velocity=0, time=6)
Message('note_off', channel=9, note=36, velocity=0, time=0)
Message('note_on', channel=9, note=42, velocity=106, time=42)
Message('note_on', channel=9, note=40, velocity=106, time=0)
Message('note_off', channel=9, note=42, velocity=0, time=6)
Message('note_off', channel=9, note=40, velocity=0, time=0)
Message('note_on', channel=9, note=46, velocity=106, time=42)
Message('note_off', channel=9, note=46, velocity=0, time=6)
Message('note_on', channel=9, note=42, velocity=106, time=42)
Message('note_on', channel=9, note=36, velocity=106, time=0)
Message('note_off', channel=9, note=42, velocity=0, time=6)
Message('note_off', channel=9, note=36, velocity=0, time=0)
Message('note_on', channel=9, note=36, velocity=92, time=18)
Message('note_off', channel=9, note=36, velocity=0, time=6)
Message('note_on', channel=9, note=46, velocity=106, time=18)
Message('note_on', channel=9, note=36, velocity=92, time=0)
Message('note_off', channel=9, note=46, velocity=0, time=6)
Message('note_off', channel=9, note=36, velocity=0, time=0)
Message('note_on', channel=9, note=42, velocity=106, time=18)
Message('note_off', channel=9, note=42, velocity=0, time=6)
Message('note_on', channel=9, note=40, velocity=106, time=18)
Message('note_off', channel=9, note=40, velocity=0, time=6)
Message('note_on', channel=9, note=46, velocity=106, time=42)
Message('note_on', channel=9, note=36, velocity=106, time=0)
Message('note_off', channel=9, note=46, velocity=0, time=6)
Message('note_off', channel=9, note=36, velocity=0, time=0)
Message('note_on', channel=9, note=42, velocity=106, time=18)
Message('note_off', channel=9, note=42, velocity=0, time=6)
Message('note_on', channel=9, note=36, velocity=106, time=18)
Message('note_on', channel=9, note=42, velocity=106, time=0)
Message('note_on', channel=9, note=49, velocity=78, time=0)
Message('note_off', channel=9, note=36, velocity=0, time=6)
Message('note_off', channel=9, note=42, velocity=0, time=0)
Message('note_off', channel=9, note=49, velocity=0, time=0)
Message('note_on', channel=9, note=36, velocity=106, time=42)
Message('note_on', channel=9, note=46, velocity=106, time=0)
Message('note_off', channel=9, note=36, velocity=0, time=6)
Message('note_off', channel=9, note=46, velocity=0, time=0)
Message('note_on', channel=9, note=40, velocity=106, time=42)
Message('note_on', channel=9, note=42, velocity=106, time=0)
Message('note_on', channel=9, note=41, velocity=106, time=0)
Message('note_off', channel=9, note=40, velocity=0, time=6)
Message('note_off', channel=9, note=42, velocity=0, time=0)
Message('note_off', channel=9, note=41, velocity=0, time=0)
Message('note_on', channel=9, note=41, velocity=106, time=6)
Message('note_off', channel=9, note=41, velocity=0, time=6)
Message('note_on', channel=9, note=41, velocity=120, time=6)
Message('note_off', channel=9, note=41, velocity=0, time=6)
Message('note_on', channel=9, note=41, velocity=120, time=6)
Message('note_off', channel=9, note=41, velocity=0, time=6)
Message('note_on', channel=9, note=46, velocity=106, time=6)
Message('note_on', channel=9, note=49, velocity=92, time=0)
Message('note_on', channel=9, note=45, velocity=120, time=0)
Message('note_off', channel=9, note=46, velocity=0, time=6)
Message('note_off', channel=9, note=49, velocity=0, time=0)
Message('note_off', channel=9, note=45, velocity=0, time=0)
Message('note_on', channel=9, note=45, velocity=120, time=6)
Message('note_off', channel=9, note=45, velocity=0, time=6)
Message('note_on', channel=9, note=40, velocity=106, time=6)
Message('note_on', channel=9, note=45, velocity=120, time=0)
Message('note_off', channel=9, note=40, velocity=0, time=6)
Message('note_off', channel=9, note=45, velocity=0, time=0)
Message('note_on', channel=9, note=45, velocity=120, time=6)
Message('note_off', channel=9, note=45, velocity=0, time=6)
Message('note_on', channel=9, note=36, velocity=106, time=6)
Message('note_on', channel=9, note=42, velocity=106, time=0)
Message('note_on', channel=9, note=40, velocity=120, time=0)
Message('note_on', channel=9, note=48, velocity=120, time=0)
Message('note_off', channel=9, note=36, velocity=0, time=6)
Message('note_off', channel=9, note=42, velocity=0, time=0)
Message('note_off', channel=9, note=40, velocity=0, time=0)
Message('note_off', channel=9, note=48, velocity=0, time=0)
Message('note_on', channel=9, note=40, velocity=120, time=6)
Message('note_on', channel=9, note=48, velocity=120, time=0)
Message('note_off', channel=9, note=40, velocity=0, time=6)
Message('note_off', channel=9, note=48, velocity=0, time=0)
Message('note_on', channel=9, note=40, velocity=120, time=6)
Message('note_on', channel=9, note=48, velocity=120, time=0)
Message('note_on', channel=9, note=36, velocity=92, time=0)
Message('note_off', channel=9, note=40, velocity=0, time=6)
Message('note_off', channel=9, note=48, velocity=0, time=0)
Message('note_off', channel=9, note=36, velocity=0, time=0)
Message('note_on', channel=9, note=40, velocity=120, time=6)
Message('note_on', channel=9, note=48, velocity=120, time=0)
Message('note_off', channel=9, note=40, velocity=0, time=6)
Message('note_off', channel=9, note=48, velocity=0, time=0)
Message('note_on', channel=9, note=48, velocity=120, time=6)
Message('note_on', channel=9, note=40, velocity=120, time=0)
Message('note_on', channel=9, note=46, velocity=106, time=0)
Message('note_on', channel=9, note=36, velocity=92, time=0)
Message('note_off', channel=9, note=48, velocity=0, time=6)
Message('note_off', channel=9, note=40, velocity=0, time=0)
Message('note_off', channel=9, note=46, velocity=0, time=0)
Message('note_off', channel=9, note=36, velocity=0, time=0)
Message('note_on', channel=9, note=40, velocity=120, time=6)
Message('note_on', channel=9, note=48, velocity=120, time=0)
Message('note_off', channel=9, note=40, velocity=0, time=6)
Message('note_off', channel=9, note=48, velocity=0, time=0)
Message('note_on', channel=9, note=42, velocity=106, time=6)
Message('note_on', channel=9, note=40, velocity=106, time=0)
Message('note_on', channel=9, note=45, velocity=120, time=0)
Message('note_on', channel=9, note=38, velocity=120, time=0)
Message('note_off', channel=9, note=42, velocity=0, time=6)
Message('note_off', channel=9, note=40, velocity=0, time=0)
Message('note_off', channel=9, note=45, velocity=0, time=0)
Message('note_off', channel=9, note=38, velocity=0, time=0)
Message('note_on', channel=9, note=45, velocity=120, time=6)
Message('note_on', channel=9, note=38, velocity=120, time=0)
Message('note_off', channel=9, note=45, velocity=0, time=6)
Message('note_off', channel=9, note=38, velocity=0, time=0)
Message('note_on', channel=9, note=40, velocity=106, time=6)
Message('note_on', channel=9, note=38, velocity=120, time=0)
Message('note_on', channel=9, note=49, velocity=120, time=0)
Message('note_on', channel=9, note=45, velocity=120, time=0)
Message('note_off', channel=9, note=40, velocity=0, time=6)
Message('note_off', channel=9, note=38, velocity=0, time=0)
Message('note_off', channel=9, note=49, velocity=0, time=0)
Message('note_off', channel=9, note=45, velocity=0, time=0)
Message('note_on', channel=9, note=45, velocity=120, time=6)
Message('note_on', channel=9, note=38, velocity=120, time=0)
Message('note_off', channel=9, note=45, velocity=0, time=6)
Message('note_off', channel=9, note=38, velocity=0, time=0)
Message('note_on', channel=9, note=45, velocity=120, time=6)
Message('note_on', channel=9, note=38, velocity=120, time=0)
Message('note_off', channel=9, note=45, velocity=0, time=6)
Message('note_off', channel=9, note=38, velocity=0, time=0)
Message('note_on', channel=9, note=38, velocity=120, time=6)
Message('note_on', channel=9, note=45, velocity=120, time=0)
Message('note_off', channel=9, note=38, velocity=0, time=6)
Message('note_off', channel=9, note=45, velocity=0, time=0)
Message('note_on', channel=9, note=40, velocity=120, time=6)
Message('note_on', channel=9, note=36, velocity=120, time=0)
Message('note_on', channel=9, note=46, velocity=106, time=0)
Message('note_on', channel=9, note=38, velocity=120, time=0)
Message('note_on', channel=9, note=41, velocity=106, time=0)
Message('note_off', channel=9, note=40, velocity=0, time=6)
Message('note_off', channel=9, note=36, velocity=0, time=0)
Message('note_off', channel=9, note=46, velocity=0, time=0)
Message('note_off', channel=9, note=38, velocity=0, time=0)
Message('note_off', channel=9, note=41, velocity=0, time=0)
Message('note_on', channel=9, note=36, velocity=120, time=6)
Message('note_on', channel=9, note=41, velocity=106, time=0)
Message('note_off', channel=9, note=36, velocity=0, time=6)
Message('note_off', channel=9, note=41, velocity=0, time=0)
Message('note_on', channel=9, note=40, velocity=120, time=6)
Message('note_on', channel=9, note=42, velocity=106, time=0)
Message('note_on', channel=9, note=38, velocity=120, time=0)
Message('note_on', channel=9, note=41, velocity=106, time=0)
Message('note_on', channel=9, note=36, velocity=120, time=0)
Message('note_off', channel=9, note=40, velocity=0, time=6)
Message('note_off', channel=9, note=42, velocity=0, time=0)
Message('note_off', channel=9, note=38, velocity=0, time=0)
Message('note_off', channel=9, note=41, velocity=0, time=0)
Message('note_off', channel=9, note=36, velocity=0, time=0)
Message('note_on', channel=9, note=36, velocity=120, time=6)
Message('note_on', channel=9, note=41, velocity=106, time=0)
Message('note_off', channel=9, note=41, velocity=0, time=6)
Message('note_off', channel=9, note=36, velocity=0, time=0)
Message('note_on', channel=9, note=36, velocity=106, time=6)
Message('note_on', channel=9, note=49, velocity=120, time=0)
Message('note_on', channel=9, note=40, velocity=120, time=0)
Message('note_on', channel=9, note=38, velocity=120, time=0)
Message('note_on', channel=9, note=41, velocity=120, time=0)
Message('note_off', channel=9, note=36, velocity=0, time=6)
Message('note_off', channel=9, note=49, velocity=0, time=0)
Message('note_off', channel=9, note=40, velocity=0, time=0)
Message('note_off', channel=9, note=38, velocity=0, time=0)
Message('note_off', channel=9, note=41, velocity=0, time=0)
Message('note_on', channel=9, note=42, velocity=64, time=18)
Message('note_off', channel=9, note=42, velocity=0, time=6)
Message('note_on', channel=9, note=42, velocity=64, time=18)
Message('note_off', channel=9, note=42, velocity=0, time=6)
Message('note_on', channel=9, note=40, velocity=78, time=42)
Message('note_on', channel=9, note=46, velocity=92, time=0)
Message('note_off', channel=9, note=40, velocity=0, time=6)
Message('note_off', channel=9, note=46, velocity=0, time=0)
Message('note_on', channel=9, note=36, velocity=92, time=18)
Message('note_off', channel=9, note=36, velocity=0, time=6)
Message('note_on', channel=9, note=42, velocity=92, time=18)
Message('note_on', channel=9, note=36, velocity=92, time=0)
Message('note_off', channel=9, note=42, velocity=0, time=6)
Message('note_off', channel=9, note=36, velocity=0, time=0)
Message('note_on', channel=9, note=42, velocity=92, time=18)
Message('note_off', channel=9, note=42, velocity=0, time=6)
Message('note_on', channel=9, note=36, velocity=92, time=42)
Message('note_on', channel=9, note=42, velocity=92, time=0)
Message('note_off', channel=9, note=36, velocity=0, time=6)
Message('note_off', channel=9, note=42, velocity=0, time=0)
Message('note_on', channel=9, note=46, velocity=92, time=18)
Message('note_off', channel=9, note=46, velocity=0, time=6)
Message('note_on', channel=9, note=36, velocity=92, time=18)
Message('note_off', channel=9, note=36, velocity=0, time=6)
Message('note_on', channel=9, note=40, velocity=106, time=18)
Message('note_on', channel=9, note=42, velocity=78, time=0)
Message('note_off', channel=9, note=40, velocity=0, time=6)
Message('note_off', channel=9, note=42, velocity=0, time=0)
Message('note_on', channel=9, note=46, velocity=92, time=18)
Message('note_off', channel=9, note=46, velocity=0, time=6)
Message('note_on', channel=9, note=36, velocity=78, time=42)
Message('note_off', channel=9, note=36, velocity=0, time=6)
Message('note_on', channel=9, note=36, velocity=106, time=18)
Message('note_off', channel=9, note=36, velocity=0, time=6)
Message('note_on', channel=9, note=42, velocity=64, time=18)
Message('note_off', channel=9, note=42, velocity=0, time=6)
Message('note_on', channel=9, note=42, velocity=64, time=18)
Message('note_on', channel=9, note=36, velocity=78, time=0)
Message('note_off', channel=9, note=42, velocity=0, time=6)
Message('note_off', channel=9, note=36, velocity=0, time=0)
Message('note_on', channel=9, note=40, velocity=78, time=42)
Message('note_on', channel=9, note=46, velocity=92, time=0)
Message('note_off', channel=9, note=40, velocity=0, time=6)
Message('note_off', channel=9, note=46, velocity=0, time=0)
Message('note_on', channel=9, note=36, velocity=92, time=18)
Message('note_off', channel=9, note=36, velocity=0, time=6)
Message('note_on', channel=9, note=42, velocity=92, time=18)
Message('note_on', channel=9, note=36, velocity=92, time=0)
Message('note_off', channel=9, note=42, velocity=0, time=6)
Message('note_off', channel=9, note=36, velocity=0, time=0)
Message('note_on', channel=9, note=42, velocity=92, time=18)
Message('note_off', channel=9, note=42, velocity=0, time=6)
Message('note_on', channel=9, note=42, velocity=92, time=42)
Message('note_on', channel=9, note=36, velocity=92, time=0)
Message('note_off', channel=9, note=42, velocity=0, time=6)
Message('note_off', channel=9, note=36, velocity=0, time=0)
Message('note_on', channel=9, note=46, velocity=92, time=18)
Message('note_off', channel=9, note=46, velocity=0, time=6)
Message('note_on', channel=9, note=36, velocity=92, time=18)
Message('note_off', channel=9, note=36, velocity=0, time=6)
Message('note_on', channel=9, note=40, velocity=106, time=18)
Message('note_on', channel=9, note=42, velocity=78, time=0)
Message('note_off', channel=9, note=40, velocity=0, time=6)
Message('note_off', channel=9, note=42, velocity=0, time=0)
Message('note_on', channel=9, note=46, velocity=92, time=18)
Message('note_off', channel=9, note=46, velocity=0, time=6)
Message('note_on', channel=9, note=38, velocity=78, time=18)
Message('note_off', channel=9, note=38, velocity=0, time=6)
Message('note_on', channel=9, note=38, velocity=78, time=18)
Message('note_on', channel=9, note=42, velocity=78, time=0)
Message('note_off', channel=9, note=38, velocity=0, time=6)
Message('note_off', channel=9, note=42, velocity=0, time=0)
Message('note_on', channel=9, note=36, velocity=106, time=18)
Message('note_on', channel=9, note=49, velocity=92, time=0)
Message('note_off', channel=9, note=36, velocity=0, time=6)
Message('note_off', channel=9, note=49, velocity=0, time=0)
Message('note_on', channel=9, note=42, velocity=64, time=18)
Message('note_off', channel=9, note=42, velocity=0, time=6)
Message('note_on', channel=9, note=42, velocity=64, time=18)
Message('note_off', channel=9, note=42, velocity=0, time=6)
Message('note_on', channel=9, note=40, velocity=78, time=42)
Message('note_on', channel=9, note=46, velocity=92, time=0)
Message('note_off', channel=9, note=40, velocity=0, time=6)
Message('note_off', channel=9, note=46, velocity=0, time=0)
Message('note_on', channel=9, note=36, velocity=92, time=18)
Message('note_off', channel=9, note=36, velocity=0, time=6)
Message('note_on', channel=9, note=36, velocity=92, time=18)
Message('note_on', channel=9, note=42, velocity=92, time=0)
Message('note_off', channel=9, note=36, velocity=0, time=6)
Message('note_off', channel=9, note=42, velocity=0, time=0)
Message('note_on', channel=9, note=42, velocity=92, time=18)
Message('note_off', channel=9, note=42, velocity=0, time=6)
Message('note_on', channel=9, note=36, velocity=92, time=42)
Message('note_on', channel=9, note=42, velocity=92, time=0)
Message('note_off', channel=9, note=36, velocity=0, time=6)
Message('note_off', channel=9, note=42, velocity=0, time=0)
Message('note_on', channel=9, note=46, velocity=92, time=18)
Message('note_off', channel=9, note=46, velocity=0, time=6)
Message('note_on', channel=9, note=36, velocity=92, time=18)
Message('note_off', channel=9, note=36, velocity=0, time=6)
Message('note_on', channel=9, note=42, velocity=78, time=18)
Message('note_on', channel=9, note=40, velocity=106, time=0)
Message('note_off', channel=9, note=42, velocity=0, time=6)
Message('note_off', channel=9, note=40, velocity=0, time=0)
Message('note_on', channel=9, note=46, velocity=92, time=18)
Message('note_off', channel=9, note=46, velocity=0, time=6)
Message('note_on', channel=9, note=36, velocity=78, time=42)
Message('note_off', channel=9, note=36, velocity=0, time=6)
Message('note_on', channel=9, note=36, velocity=106, time=18)
Message('note_off', channel=9, note=36, velocity=0, time=6)
Message('note_on', channel=9, note=42, velocity=64, time=18)
Message('note_off', channel=9, note=42, velocity=0, time=6)
Message('note_on', channel=9, note=36, velocity=78, time=18)
Message('note_on', channel=9, note=42, velocity=64, time=0)
Message('note_off', channel=9, note=36, velocity=0, time=6)
Message('note_off', channel=9, note=42, velocity=0, time=0)
Message('note_on', channel=9, note=46, velocity=92, time=42)
Message('note_on', channel=9, note=40, velocity=78, time=0)
Message('note_off', channel=9, note=46, velocity=0, time=6)
Message('note_off', channel=9, note=40, velocity=0, time=0)
Message('note_on', channel=9, note=36, velocity=92, time=18)
Message('note_off', channel=9, note=36, velocity=0, time=6)
Message('note_on', channel=9, note=36, velocity=92, time=18)
Message('note_on', channel=9, note=42, velocity=92, time=0)
Message('note_off', channel=9, note=36, velocity=0, time=6)
Message('note_off', channel=9, note=42, velocity=0, time=0)
Message('note_on', channel=9, note=42, velocity=92, time=18)
Message('note_off', channel=9, note=42, velocity=0, time=6)
Message('note_on', channel=9, note=42, velocity=92, time=42)
Message('note_on', channel=9, note=36, velocity=92, time=0)
Message('note_off', channel=9, note=42, velocity=0, time=6)
Message('note_off', channel=9, note=36, velocity=0, time=0)
Message('note_on', channel=9, note=46, velocity=92, time=18)
Message('note_off', channel=9, note=46, velocity=0, time=6)
Message('note_on', channel=9, note=36, velocity=92, time=18)
Message('note_off', channel=9, note=36, velocity=0, time=6)
Message('note_on', channel=9, note=40, velocity=106, time=18)
Message('note_on', channel=9, note=42, velocity=78, time=0)
Message('note_off', channel=9, note=40, velocity=0, time=6)
Message('note_off', channel=9, note=42, velocity=0, time=0)
Message('note_on', channel=9, note=46, velocity=92, time=18)
Message('note_off', channel=9, note=46, velocity=0, time=6)
Message('note_on', channel=9, note=38, velocity=78, time=18)
Message('note_off', channel=9, note=38, velocity=0, time=6)
Message('note_on', channel=9, note=38, velocity=78, time=18)
Message('note_on', channel=9, note=42, velocity=78, time=0)
Message('note_off', channel=9, note=38, velocity=0, time=6)
Message('note_off', channel=9, note=42, velocity=0, time=0)
Message('note_on', channel=9, note=36, velocity=106, time=18)
Message('note_on', channel=9, note=49, velocity=92, time=0)
Message('note_off', channel=9, note=36, velocity=0, time=6)
Message('note_off', channel=9, note=49, velocity=0, time=0)
Message('note_on', channel=9, note=42, velocity=64, time=18)
Message('note_off', channel=9, note=42, velocity=0, time=6)
Message('note_on', channel=9, note=42, velocity=64, time=18)
Message('note_off', channel=9, note=42, velocity=0, time=6)
Message('note_on', channel=9, note=40, velocity=78, time=42)
Message('note_on', channel=9, note=46, velocity=92, time=0)
Message('note_off', channel=9, note=40, velocity=0, time=6)
Message('note_off', channel=9, note=46, velocity=0, time=0)
Message('note_on', channel=9, note=36, velocity=92, time=18)
Message('note_off', channel=9, note=36, velocity=0, time=6)
Message('note_on', channel=9, note=36, velocity=92, time=18)
Message('note_on', channel=9, note=42, velocity=92, time=0)
Message('note_off', channel=9, note=36, velocity=0, time=6)
Message('note_off', channel=9, note=42, velocity=0, time=0)
Message('note_on', channel=9, note=42, velocity=92, time=18)
Message('note_off', channel=9, note=42, velocity=0, time=6)
Message('note_on', channel=9, note=36, velocity=92, time=42)
Message('note_on', channel=9, note=42, velocity=92, time=0)
Message('note_off', channel=9, note=36, velocity=0, time=6)
Message('note_off', channel=9, note=42, velocity=0, time=0)
Message('note_on', channel=9, note=46, velocity=92, time=18)
Message('note_off', channel=9, note=46, velocity=0, time=6)
Message('note_on', channel=9, note=36, velocity=92, time=18)
Message('note_off', channel=9, note=36, velocity=0, time=6)
Message('note_on', channel=9, note=40, velocity=106, time=18)
Message('note_on', channel=9, note=42, velocity=78, time=0)
Message('note_off', channel=9, note=40, velocity=0, time=6)
Message('note_off', channel=9, note=42, velocity=0, time=0)
Message('note_on', channel=9, note=46, velocity=92, time=18)
Message('note_off', channel=9, note=46, velocity=0, time=6)
Message('note_on', channel=9, note=36, velocity=78, time=42)
Message('note_off', channel=9, note=36, velocity=0, time=6)
Message('note_on', channel=9, note=36, velocity=106, time=18)
Message('note_off', channel=9, note=36, velocity=0, time=6)
Message('note_on', channel=9, note=42, velocity=64, time=18)
Message('note_off', channel=9, note=42, velocity=0, time=6)
Message('note_on', channel=9, note=42, velocity=64, time=18)
Message('note_on', channel=9, note=36, velocity=78, time=0)
Message('note_off', channel=9, note=42, velocity=0, time=6)
Message('note_off', channel=9, note=36, velocity=0, time=0)
Message('note_on', channel=9, note=40, velocity=78, time=42)
Message('note_on', channel=9, note=46, velocity=92, time=0)
Message('note_off', channel=9, note=40, velocity=0, time=6)
Message('note_off', channel=9, note=46, velocity=0, time=0)
Message('note_on', channel=9, note=36, velocity=92, time=18)
Message('note_off', channel=9, note=36, velocity=0, time=6)
Message('note_on', channel=9, note=36, velocity=92, time=18)
Message('note_on', channel=9, note=42, velocity=92, time=0)
Message('note_off', channel=9, note=36, velocity=0, time=6)
Message('note_off', channel=9, note=42, velocity=0, time=0)
Message('note_on', channel=9, note=42, velocity=92, time=18)
Message('note_off', channel=9, note=42, velocity=0, time=6)
Message('note_on', channel=9, note=36, velocity=92, time=42)
Message('note_on', channel=9, note=42, velocity=92, time=0)
Message('note_off', channel=9, note=42, velocity=0, time=6)
Message('note_off', channel=9, note=36, velocity=0, time=0)
Message('note_on', channel=9, note=46, velocity=92, time=18)
Message('note_off', channel=9, note=46, velocity=0, time=6)
Message('note_on', channel=9, note=36, velocity=92, time=18)
Message('note_off', channel=9, note=36, velocity=0, time=6)
Message('note_on', channel=9, note=42, velocity=78, time=18)
Message('note_on', channel=9, note=40, velocity=106, time=0)
Message('note_off', channel=9, note=42, velocity=0, time=6)
Message('note_off', channel=9, note=40, velocity=0, time=0)
Message('note_on', channel=9, note=46, velocity=92, time=18)
Message('note_off', channel=9, note=46, velocity=0, time=6)
Message('note_on', channel=9, note=38, velocity=78, time=18)
Message('note_off', channel=9, note=38, velocity=0, time=6)
Message('note_on', channel=9, note=42, velocity=78, time=18)
Message('note_on', channel=9, note=38, velocity=78, time=0)
Message('note_off', channel=9, note=42, velocity=0, time=6)
Message('note_off', channel=9, note=38, velocity=0, time=0)
Message('note_on', channel=9, note=49, velocity=92, time=18)
Message('note_on', channel=9, note=36, velocity=106, time=0)
Message('note_off', channel=9, note=49, velocity=0, time=6)
Message('note_off', channel=9, note=36, velocity=0, time=0)
Message('note_on', channel=9, note=42, velocity=64, time=18)
Message('note_off', channel=9, note=42, velocity=0, time=6)
Message('note_on', channel=9, note=42, velocity=64, time=18)
Message('note_off', channel=9, note=42, velocity=0, time=6)
Message('note_on', channel=9, note=46, velocity=92, time=42)
Message('note_on', channel=9, note=40, velocity=78, time=0)
Message('note_off', channel=9, note=46, velocity=0, time=6)
Message('note_off', channel=9, note=40, velocity=0, time=0)
Message('note_on', channel=9, note=36, velocity=92, time=18)
Message('note_off', channel=9, note=36, velocity=0, time=6)
Message('note_on', channel=9, note=42, velocity=92, time=18)
Message('note_on', channel=9, note=36, velocity=92, time=0)
Message('note_off', channel=9, note=42, velocity=0, time=6)
Message('note_off', channel=9, note=36, velocity=0, time=0)
Message('note_on', channel=9, note=42, velocity=92, time=18)
Message('note_off', channel=9, note=42, velocity=0, time=6)
Message('note_on', channel=9, note=36, velocity=92, time=42)
Message('note_on', channel=9, note=42, velocity=92, time=0)
Message('note_off', channel=9, note=36, velocity=0, time=6)
Message('note_off', channel=9, note=42, velocity=0, time=0)
Message('note_on', channel=9, note=46, velocity=92, time=18)
Message('note_off', channel=9, note=46, velocity=0, time=6)
Message('note_on', channel=9, note=36, velocity=92, time=18)
Message('note_off', channel=9, note=36, velocity=0, time=6)
Message('note_on', channel=9, note=40, velocity=106, time=18)
Message('note_on', channel=9, note=42, velocity=78, time=0)
Message('note_off', channel=9, note=40, velocity=0, time=6)
Message('note_off', channel=9, note=42, velocity=0, time=0)
Message('note_on', channel=9, note=46, velocity=92, time=18)
Message('note_off', channel=9, note=46, velocity=0, time=6)
Message('note_on', channel=9, note=36, velocity=78, time=42)
Message('note_off', channel=9, note=36, velocity=0, time=6)
Message('note_on', channel=9, note=36, velocity=106, time=18)
Message('note_off', channel=9, note=36, velocity=0, time=6)
Message('note_on', channel=9, note=42, velocity=64, time=18)
Message('note_off', channel=9, note=42, velocity=0, time=6)
Message('note_on', channel=9, note=42, velocity=64, time=18)
Message('note_on', channel=9, note=36, velocity=78, time=0)
Message('note_off', channel=9, note=42, velocity=0, time=6)
Message('note_off', channel=9, note=36, velocity=0, time=0)
Message('note_on', channel=9, note=40, velocity=78, time=42)
Message('note_on', channel=9, note=46, velocity=92, time=0)
Message('note_off', channel=9, note=40, velocity=0, time=6)
Message('note_off', channel=9, note=46, velocity=0, time=0)
Message('note_on', channel=9, note=36, velocity=92, time=18)
Message('note_off', channel=9, note=36, velocity=0, time=6)
Message('note_on', channel=9, note=42, velocity=92, time=18)
Message('note_on', channel=9, note=36, velocity=92, time=0)
Message('note_off', channel=9, note=42, velocity=0, time=6)
Message('note_off', channel=9, note=36, velocity=0, time=0)
Message('note_on', channel=9, note=42, velocity=92, time=18)
Message('note_off', channel=9, note=42, velocity=0, time=6)
Message('note_on', channel=9, note=42, velocity=92, time=42)
Message('note_on', channel=9, note=36, velocity=92, time=0)
Message('note_off', channel=9, note=36, velocity=0, time=6)
Message('note_off', channel=9, note=42, velocity=0, time=0)
Message('note_on', channel=9, note=46, velocity=92, time=18)
Message('note_off', channel=9, note=46, velocity=0, time=6)
Message('note_on', channel=9, note=36, velocity=92, time=18)
Message('note_off', channel=9, note=36, velocity=0, time=6)
Message('note_on', channel=9, note=40, velocity=106, time=18)
Message('note_on', channel=9, note=42, velocity=78, time=0)
Message('note_off', channel=9, note=40, velocity=0, time=6)
Message('note_off', channel=9, note=42, velocity=0, time=0)
Message('note_on', channel=9, note=46, velocity=92, time=18)
Message('note_off', channel=9, note=46, velocity=0, time=6)
Message('note_on', channel=9, note=38, velocity=78, time=18)
Message('note_off', channel=9, note=38, velocity=0, time=6)
Message('note_on', channel=9, note=38, velocity=78, time=18)
Message('note_on', channel=9, note=42, velocity=78, time=0)
Message('note_off', channel=9, note=38, velocity=0, time=6)
Message('note_off', channel=9, note=42, velocity=0, time=0)
Message('note_on', channel=9, note=36, velocity=106, time=18)
Message('note_on', channel=9, note=49, velocity=92, time=0)
Message('note_off', channel=9, note=36, velocity=0, time=6)
Message('note_off', channel=9, note=49, velocity=0, time=0)
Message('note_on', channel=9, note=42, velocity=64, time=18)
Message('note_off', channel=9, note=42, velocity=0, time=6)
Message('note_on', channel=9, note=42, velocity=64, time=18)
Message('note_off', channel=9, note=42, velocity=0, time=6)
Message('note_on', channel=9, note=40, velocity=78, time=42)
Message('note_on', channel=9, note=46, velocity=92, time=0)
Message('note_off', channel=9, note=40, velocity=0, time=6)
Message('note_off', channel=9, note=46, velocity=0, time=0)
Message('note_on', channel=9, note=36, velocity=92, time=18)
Message('note_off', channel=9, note=36, velocity=0, time=6)
Message('note_on', channel=9, note=36, velocity=92, time=18)
Message('note_on', channel=9, note=42, velocity=92, time=0)
Message('note_off', channel=9, note=36, velocity=0, time=6)
Message('note_off', channel=9, note=42, velocity=0, time=0)
Message('note_on', channel=9, note=42, velocity=92, time=18)
Message('note_off', channel=9, note=42, velocity=0, time=6)
Message('note_on', channel=9, note=36, velocity=92, time=42)
Message('note_on', channel=9, note=42, velocity=92, time=0)
Message('note_off', channel=9, note=36, velocity=0, time=6)
Message('note_off', channel=9, note=42, velocity=0, time=0)
Message('note_on', channel=9, note=46, velocity=92, time=18)
Message('note_off', channel=9, note=46, velocity=0, time=6)
Message('note_on', channel=9, note=36, velocity=92, time=18)
Message('note_off', channel=9, note=36, velocity=0, time=6)
Message('note_on', channel=9, note=40, velocity=106, time=18)
Message('note_on', channel=9, note=42, velocity=78, time=0)
Message('note_off', channel=9, note=40, velocity=0, time=6)
Message('note_off', channel=9, note=42, velocity=0, time=0)
Message('note_on', channel=9, note=46, velocity=92, time=18)
Message('note_off', channel=9, note=46, velocity=0, time=6)
Message('note_on', channel=9, note=36, velocity=78, time=42)
Message('note_off', channel=9, note=36, velocity=0, time=6)
Message('note_on', channel=9, note=36, velocity=106, time=18)
Message('note_off', channel=9, note=36, velocity=0, time=6)
Message('note_on', channel=9, note=42, velocity=64, time=18)
Message('note_off', channel=9, note=42, velocity=0, time=6)
Message('note_on', channel=9, note=42, velocity=64, time=18)
Message('note_on', channel=9, note=36, velocity=78, time=0)
Message('note_off', channel=9, note=42, velocity=0, time=6)
Message('note_off', channel=9, note=36, velocity=0, time=0)
Message('note_on', channel=9, note=40, velocity=78, time=42)
Message('note_on', channel=9, note=46, velocity=92, time=0)
Message('note_off', channel=9, note=40, velocity=0, time=6)
Message('note_off', channel=9, note=46, velocity=0, time=0)
Message('note_on', channel=9, note=36, velocity=92, time=18)
Message('note_off', channel=9, note=36, velocity=0, time=6)
Message('note_on', channel=9, note=42, velocity=92, time=18)
Message('note_on', channel=9, note=36, velocity=92, time=0)
Message('note_off', channel=9, note=42, velocity=0, time=6)
Message('note_off', channel=9, note=36, velocity=0, time=0)
Message('note_on', channel=9, note=42, velocity=92, time=18)
Message('note_off', channel=9, note=42, velocity=0, time=6)
Message('note_on', channel=9, note=42, velocity=92, time=42)
Message('note_on', channel=9, note=36, velocity=92, time=0)
Message('note_off', channel=9, note=42, velocity=0, time=6)
Message('note_off', channel=9, note=36, velocity=0, time=0)
Message('note_on', channel=9, note=46, velocity=92, time=18)
Message('note_off', channel=9, note=46, velocity=0, time=6)
Message('note_on', channel=9, note=36, velocity=92, time=18)
Message('note_off', channel=9, note=36, velocity=0, time=6)
Message('note_on', channel=9, note=40, velocity=106, time=18)
Message('note_on', channel=9, note=42, velocity=78, time=0)
Message('note_off', channel=9, note=40, velocity=0, time=6)
Message('note_off', channel=9, note=42, velocity=0, time=0)
Message('note_on', channel=9, note=46, velocity=92, time=18)
Message('note_off', channel=9, note=46, velocity=0, time=6)
Message('note_on', channel=9, note=38, velocity=78, time=18)
Message('note_off', channel=9, note=38, velocity=0, time=6)
Message('note_on', channel=9, note=38, velocity=78, time=18)
Message('note_on', channel=9, note=42, velocity=78, time=0)
Message('note_off', channel=9, note=38, velocity=0, time=6)
Message('note_off', channel=9, note=42, velocity=0, time=0)
Message('note_on', channel=9, note=36, velocity=106, time=18)
Message('note_on', channel=9, note=49, velocity=92, time=0)
Message('note_off', channel=9, note=36, velocity=0, time=6)
Message('note_off', channel=9, note=49, velocity=0, time=0)
Message('note_on', channel=9, note=42, velocity=64, time=18)
Message('note_off', channel=9, note=42, velocity=0, time=6)
Message('note_on', channel=9, note=42, velocity=64, time=18)
Message('note_off', channel=9, note=42, velocity=0, time=6)
Message('note_on', channel=9, note=40, velocity=78, time=42)
Message('note_on', channel=9, note=46, velocity=92, time=0)
Message('note_off', channel=9, note=40, velocity=0, time=6)
Message('note_off', channel=9, note=46, velocity=0, time=0)
Message('note_on', channel=9, note=36, velocity=92, time=18)
Message('note_off', channel=9, note=36, velocity=0, time=6)
Message('note_on', channel=9, note=36, velocity=92, time=18)
Message('note_on', channel=9, note=42, velocity=92, time=0)
Message('note_off', channel=9, note=36, velocity=0, time=6)
Message('note_off', channel=9, note=42, velocity=0, time=0)
Message('note_on', channel=9, note=42, velocity=92, time=18)
Message('note_off', channel=9, note=42, velocity=0, time=6)
Message('note_on', channel=9, note=36, velocity=92, time=42)
Message('note_on', channel=9, note=42, velocity=92, time=0)
Message('note_off', channel=9, note=36, velocity=0, time=6)
Message('note_off', channel=9, note=42, velocity=0, time=0)
Message('note_on', channel=9, note=46, velocity=92, time=18)
Message('note_off', channel=9, note=46, velocity=0, time=6)
Message('note_on', channel=9, note=36, velocity=92, time=18)
Message('note_off', channel=9, note=36, velocity=0, time=6)
Message('note_on', channel=9, note=42, velocity=78, time=18)
Message('note_on', channel=9, note=40, velocity=106, time=0)
Message('note_off', channel=9, note=42, velocity=0, time=6)
Message('note_off', channel=9, note=40, velocity=0, time=0)
Message('note_on', channel=9, note=46, velocity=92, time=18)
Message('note_off', channel=9, note=46, velocity=0, time=6)
Message('note_on', channel=9, note=36, velocity=78, time=42)
Message('note_off', channel=9, note=36, velocity=0, time=6)
Message('note_on', channel=9, note=36, velocity=106, time=18)
Message('note_off', channel=9, note=36, velocity=0, time=6)
Message('note_on', channel=9, note=42, velocity=64, time=18)
Message('note_off', channel=9, note=42, velocity=0, time=6)
Message('note_on', channel=9, note=36, velocity=78, time=18)
Message('note_on', channel=9, note=42, velocity=64, time=0)
Message('note_off', channel=9, note=36, velocity=0, time=6)
Message('note_off', channel=9, note=42, velocity=0, time=0)
Message('note_on', channel=9, note=46, velocity=92, time=42)
Message('note_on', channel=9, note=40, velocity=78, time=0)
Message('note_off', channel=9, note=46, velocity=0, time=6)
Message('note_off', channel=9, note=40, velocity=0, time=0)
Message('note_on', channel=9, note=36, velocity=92, time=18)
Message('note_off', channel=9, note=36, velocity=0, time=6)
Message('note_on', channel=9, note=36, velocity=92, time=18)
Message('note_on', channel=9, note=42, velocity=92, time=0)
Message('note_off', channel=9, note=36, velocity=0, time=6)
Message('note_off', channel=9, note=42, velocity=0, time=0)
Message('note_on', channel=9, note=42, velocity=92, time=18)
Message('note_off', channel=9, note=42, velocity=0, time=6)
Message('note_on', channel=9, note=42, velocity=92, time=42)
Message('note_on', channel=9, note=36, velocity=92, time=0)
Message('note_off', channel=9, note=42, velocity=0, time=6)
Message('note_off', channel=9, note=36, velocity=0, time=0)
Message('note_on', channel=9, note=46, velocity=92, time=18)
Message('note_off', channel=9, note=46, velocity=0, time=6)
Message('note_on', channel=9, note=36, velocity=92, time=18)
Message('note_off', channel=9, note=36, velocity=0, time=6)
Message('note_on', channel=9, note=40, velocity=106, time=18)
Message('note_on', channel=9, note=42, velocity=78, time=0)
Message('note_off', channel=9, note=40, velocity=0, time=6)
Message('note_off', channel=9, note=42, velocity=0, time=0)
Message('note_on', channel=9, note=46, velocity=92, time=18)
Message('note_off', channel=9, note=46, velocity=0, time=6)
Message('note_on', channel=9, note=38, velocity=78, time=18)
Message('note_off', channel=9, note=38, velocity=0, time=6)
Message('note_on', channel=9, note=38, velocity=78, time=18)
Message('note_on', channel=9, note=42, velocity=78, time=0)
Message('note_off', channel=9, note=38, velocity=0, time=6)
Message('note_off', channel=9, note=42, velocity=0, time=0)
Message('note_on', channel=9, note=36, velocity=106, time=18)
Message('note_on', channel=9, note=49, velocity=92, time=0)
Message('note_off', channel=9, note=36, velocity=0, time=6)
Message('note_off', channel=9, note=49, velocity=0, time=0)
Message('note_on', channel=9, note=42, velocity=64, time=18)
Message('note_off', channel=9, note=42, velocity=0, time=6)
Message('note_on', channel=9, note=42, velocity=64, time=18)
Message('note_off', channel=9, note=42, velocity=0, time=6)
Message('note_on', channel=9, note=40, velocity=78, time=42)
Message('note_on', channel=9, note=46, velocity=92, time=0)
Message('note_off', channel=9, note=40, velocity=0, time=6)
Message('note_off', channel=9, note=46, velocity=0, time=0)
Message('note_on', channel=9, note=36, velocity=92, time=18)
Message('note_off', channel=9, note=36, velocity=0, time=6)
Message('note_on', channel=9, note=36, velocity=92, time=18)
Message('note_on', channel=9, note=42, velocity=92, time=0)
Message('note_off', channel=9, note=36, velocity=0, time=6)
Message('note_off', channel=9, note=42, velocity=0, time=0)
Message('note_on', channel=9, note=42, velocity=92, time=18)
Message('note_off', channel=9, note=42, velocity=0, time=6)
Message('note_on', channel=9, note=36, velocity=92, time=42)
Message('note_on', channel=9, note=42, velocity=92, time=0)
Message('note_off', channel=9, note=36, velocity=0, time=6)
Message('note_off', channel=9, note=42, velocity=0, time=0)
Message('note_on', channel=9, note=46, velocity=92, time=18)
Message('note_off', channel=9, note=46, velocity=0, time=6)
Message('note_on', channel=9, note=36, velocity=92, time=18)
Message('note_off', channel=9, note=36, velocity=0, time=6)
Message('note_on', channel=9, note=40, velocity=106, time=18)
Message('note_on', channel=9, note=42, velocity=78, time=0)
Message('note_off', channel=9, note=40, velocity=0, time=6)
Message('note_off', channel=9, note=42, velocity=0, time=0)
Message('note_on', channel=9, note=46, velocity=92, time=18)
Message('note_off', channel=9, note=46, velocity=0, time=6)
Message('note_on', channel=9, note=36, velocity=78, time=42)
Message('note_off', channel=9, note=36, velocity=0, time=6)
Message('note_on', channel=9, note=36, velocity=106, time=18)
Message('note_off', channel=9, note=36, velocity=0, time=6)
Message('note_on', channel=9, note=42, velocity=64, time=18)
Message('note_off', channel=9, note=42, velocity=0, time=6)
Message('note_on', channel=9, note=42, velocity=64, time=18)
Message('note_on', channel=9, note=36, velocity=78, time=0)
Message('note_off', channel=9, note=42, velocity=0, time=6)
Message('note_off', channel=9, note=36, velocity=0, time=0)
Message('note_on', channel=9, note=40, velocity=78, time=42)
Message('note_on', channel=9, note=46, velocity=92, time=0)
Message('note_off', channel=9, note=40, velocity=0, time=6)
Message('note_off', channel=9, note=46, velocity=0, time=0)
Message('note_on', channel=9, note=36, velocity=92, time=18)
Message('note_off', channel=9, note=36, velocity=0, time=6)
Message('note_on', channel=9, note=36, velocity=92, time=18)
Message('note_on', channel=9, note=42, velocity=92, time=0)
Message('note_off', channel=9, note=36, velocity=0, time=6)
Message('note_off', channel=9, note=42, velocity=0, time=0)
Message('note_on', channel=9, note=42, velocity=92, time=18)
Message('note_off', channel=9, note=42, velocity=0, time=6)
Message('note_on', channel=9, note=36, velocity=92, time=42)
Message('note_on', channel=9, note=42, velocity=92, time=0)
Message('note_off', channel=9, note=42, velocity=0, time=6)
Message('note_off', channel=9, note=36, velocity=0, time=0)
Message('note_on', channel=9, note=46, velocity=92, time=18)
Message('note_off', channel=9, note=46, velocity=0, time=6)
Message('note_on', channel=9, note=36, velocity=92, time=18)
Message('note_off', channel=9, note=36, velocity=0, time=6)
Message('note_on', channel=9, note=42, velocity=78, time=18)
Message('note_on', channel=9, note=40, velocity=106, time=0)
Message('note_off', channel=9, note=42, velocity=0, time=6)
Message('note_off', channel=9, note=40, velocity=0, time=0)
Message('note_on', channel=9, note=46, velocity=92, time=18)
Message('note_off', channel=9, note=46, velocity=0, time=6)
Message('note_on', channel=9, note=38, velocity=78, time=18)
Message('note_off', channel=9, note=38, velocity=0, time=6)
Message('note_on', channel=9, note=42, velocity=78, time=18)
Message('note_on', channel=9, note=38, velocity=78, time=0)
Message('note_off', channel=9, note=42, velocity=0, time=6)
Message('note_off', channel=9, note=38, velocity=0, time=0)
Message('note_on', channel=9, note=49, velocity=92, time=18)
Message('note_on', channel=9, note=36, velocity=106, time=0)
Message('note_off', channel=9, note=49, velocity=0, time=6)
Message('note_off', channel=9, note=36, velocity=0, time=0)
Message('note_on', channel=9, note=42, velocity=64, time=18)
Message('note_off', channel=9, note=42, velocity=0, time=6)
Message('note_on', channel=9, note=42, velocity=64, time=18)
Message('note_off', channel=9, note=42, velocity=0, time=6)
Message('note_on', channel=9, note=46, velocity=92, time=42)
Message('note_on', channel=9, note=40, velocity=78, time=0)
Message('note_off', channel=9, note=46, velocity=0, time=6)
Message('note_off', channel=9, note=40, velocity=0, time=0)
Message('note_on', channel=9, note=36, velocity=92, time=18)
Message('note_off', channel=9, note=36, velocity=0, time=6)
Message('note_on', channel=9, note=42, velocity=92, time=18)
Message('note_on', channel=9, note=36, velocity=92, time=0)
Message('note_off', channel=9, note=42, velocity=0, time=6)
Message('note_off', channel=9, note=36, velocity=0, time=0)
Message('note_on', channel=9, note=42, velocity=92, time=18)
Message('note_off', channel=9, note=42, velocity=0, time=6)
Message('note_on', channel=9, note=36, velocity=92, time=42)
Message('note_on', channel=9, note=42, velocity=92, time=0)
Message('note_off', channel=9, note=36, velocity=0, time=6)
Message('note_off', channel=9, note=42, velocity=0, time=0)
Message('note_on', channel=9, note=46, velocity=92, time=18)
Message('note_off', channel=9, note=46, velocity=0, time=6)
Message('note_on', channel=9, note=36, velocity=92, time=18)
Message('note_off', channel=9, note=36, velocity=0, time=6)
Message('note_on', channel=9, note=40, velocity=106, time=18)
Message('note_on', channel=9, note=42, velocity=78, time=0)
Message('note_off', channel=9, note=40, velocity=0, time=6)
Message('note_off', channel=9, note=42, velocity=0, time=0)
Message('note_on', channel=9, note=46, velocity=92, time=18)
Message('note_off', channel=9, note=46, velocity=0, time=6)
Message('note_on', channel=9, note=36, velocity=78, time=42)
Message('note_off', channel=9, note=36, velocity=0, time=6)
Message('note_on', channel=9, note=41, velocity=78, time=18)
Message('note_on', channel=9, note=36, velocity=106, time=0)
Message('note_off', channel=9, note=41, velocity=0, time=6)
Message('note_off', channel=9, note=36, velocity=0, time=0)
Message('note_on', channel=9, note=42, velocity=64, time=18)
Message('note_on', channel=9, note=48, velocity=78, time=0)
Message('note_on', channel=9, note=38, velocity=92, time=0)
Message('note_off', channel=9, note=42, velocity=0, time=6)
Message('note_off', channel=9, note=48, velocity=0, time=0)
Message('note_off', channel=9, note=38, velocity=0, time=0)
Message('note_on', channel=9, note=38, velocity=92, time=18)
Message('note_on', channel=9, note=45, velocity=78, time=0)
Message('note_on', channel=9, note=42, velocity=64, time=0)
Message('note_on', channel=9, note=36, velocity=78, time=0)
Message('note_off', channel=9, note=38, velocity=0, time=6)
Message('note_off', channel=9, note=45, velocity=0, time=0)
Message('note_off', channel=9, note=42, velocity=0, time=0)
Message('note_off', channel=9, note=36, velocity=0, time=0)
Message('note_on', channel=9, note=45, velocity=78, time=18)
Message('note_off', channel=9, note=45, velocity=0, time=6)
Message('note_on', channel=9, note=40, velocity=78, time=18)
Message('note_on', channel=9, note=46, velocity=92, time=0)
Message('note_on', channel=9, note=41, velocity=78, time=0)
Message('note_on', channel=9, note=38, velocity=92, time=0)
Message('note_off', channel=9, note=40, velocity=0, time=6)
Message('note_off', channel=9, note=46, velocity=0, time=0)
Message('note_off', channel=9, note=41, velocity=0, time=0)
Message('note_off', channel=9, note=38, velocity=0, time=0)
Message('note_on', channel=9, note=36, velocity=92, time=18)
Message('note_on', channel=9, note=41, velocity=78, time=0)
Message('note_on', channel=9, note=38, velocity=92, time=0)
Message('note_off', channel=9, note=36, velocity=0, time=6)
Message('note_off', channel=9, note=41, velocity=0, time=0)
Message('note_off', channel=9, note=38, velocity=0, time=0)
Message('note_on', channel=9, note=38, velocity=92, time=18)
Message('note_on', channel=9, note=41, velocity=78, time=0)
Message('note_on', channel=9, note=42, velocity=92, time=0)
Message('note_on', channel=9, note=36, velocity=92, time=0)
Message('note_off', channel=9, note=38, velocity=0, time=6)
Message('note_off', channel=9, note=41, velocity=0, time=0)
Message('note_off', channel=9, note=42, velocity=0, time=0)
Message('note_off', channel=9, note=36, velocity=0, time=0)
Message('note_on', channel=9, note=40, velocity=106, time=18)
Message('note_on', channel=9, note=42, velocity=92, time=0)
Message('note_on', channel=9, note=41, velocity=78, time=0)
Message('note_off', channel=9, note=40, velocity=0, time=6)
Message('note_off', channel=9, note=42, velocity=0, time=0)
Message('note_off', channel=9, note=41, velocity=0, time=0)
Message('note_on', channel=9, note=40, velocity=106, time=18)
Message('note_on', channel=9, note=36, velocity=106, time=0)
Message('note_off', channel=9, note=40, velocity=0, time=6)
Message('note_off', channel=9, note=36, velocity=0, time=0)
Message('note_on', channel=9, note=42, velocity=92, time=18)
Message('note_on', channel=9, note=36, velocity=92, time=0)
Message('note_off', channel=9, note=36, velocity=0, time=6)
Message('note_off', channel=9, note=42, velocity=0, time=0)
Message('note_on', channel=9, note=46, velocity=92, time=18)
Message('note_off', channel=9, note=46, velocity=0, time=6)
Message('note_on', channel=9, note=36, velocity=92, time=18)
Message('note_off', channel=9, note=36, velocity=0, time=6)
Message('note_on', channel=9, note=40, velocity=106, time=18)
Message('note_on', channel=9, note=42, velocity=78, time=0)
Message('note_on', channel=9, note=36, velocity=106, time=0)
Message('note_on', channel=9, note=49, velocity=106, time=0)
Message('note_off', channel=9, note=40, velocity=0, time=6)
Message('note_off', channel=9, note=42, velocity=0, time=0)
Message('note_off', channel=9, note=36, velocity=0, time=0)
Message('note_off', channel=9, note=49, velocity=0, time=0)
Message('note_on', channel=9, note=46, velocity=92, time=18)
Message('note_off', channel=9, note=46, velocity=0, time=6)
Message('note_on', channel=9, note=38, velocity=78, time=18)
Message('note_off', channel=9, note=38, velocity=0, time=6)
Message('note_on', channel=9, note=38, velocity=78, time=18)
Message('note_on', channel=9, note=42, velocity=78, time=0)
Message('note_off', channel=9, note=38, velocity=0, time=6)
Message('note_off', channel=9, note=42, velocity=0, time=0)
Message('note_on', channel=9, note=36, velocity=106, time=18)
Message('note_on', channel=9, note=49, velocity=120, time=0)
Message('note_on', channel=9, note=40, velocity=120, time=0)
Message('note_on', channel=9, note=38, velocity=120, time=0)
Message('note_on', channel=9, note=41, velocity=120, time=0)
Message('note_off', channel=9, note=36, velocity=0, time=6)
Message('note_off', channel=9, note=49, velocity=0, time=0)
Message('note_off', channel=9, note=40, velocity=0, time=0)
Message('note_off', channel=9, note=38, velocity=0, time=0)
Message('note_off', channel=9, note=41, velocity=0, time=0)
Message('note_on', channel=9, note=42, velocity=64, time=18)
Message('note_off', channel=9, note=42, velocity=0, time=6)
Message('note_on', channel=9, note=42, velocity=64, time=18)
Message('note_off', channel=9, note=42, velocity=0, time=6)
Message('note_on', channel=9, note=40, velocity=78, time=42)
Message('note_on', channel=9, note=46, velocity=92, time=0)
Message('note_off', channel=9, note=40, velocity=0, time=6)
Message('note_off', channel=9, note=46, velocity=0, time=0)
Message('note_on', channel=9, note=36, velocity=92, time=18)
Message('note_off', channel=9, note=36, velocity=0, time=6)
Message('note_on', channel=9, note=36, velocity=92, time=18)
Message('note_on', channel=9, note=42, velocity=92, time=0)
Message('note_off', channel=9, note=36, velocity=0, time=6)
Message('note_off', channel=9, note=42, velocity=0, time=0)
Message('note_on', channel=9, note=42, velocity=92, time=18)
Message('note_off', channel=9, note=42, velocity=0, time=6)
Message('note_on', channel=9, note=36, velocity=92, time=42)
Message('note_on', channel=9, note=42, velocity=92, time=0)
Message('note_off', channel=9, note=36, velocity=0, time=6)
Message('note_off', channel=9, note=42, velocity=0, time=0)
Message('note_on', channel=9, note=46, velocity=92, time=18)
Message('note_off', channel=9, note=46, velocity=0, time=6)
Message('note_on', channel=9, note=36, velocity=92, time=18)
Message('note_off', channel=9, note=36, velocity=0, time=6)
Message('note_on', channel=9, note=40, velocity=106, time=18)
Message('note_on', channel=9, note=42, velocity=78, time=0)
Message('note_off', channel=9, note=40, velocity=0, time=6)
Message('note_off', channel=9, note=42, velocity=0, time=0)
Message('note_on', channel=9, note=46, velocity=92, time=18)
Message('note_off', channel=9, note=46, velocity=0, time=6)
Message('note_on', channel=9, note=36, velocity=78, time=42)
Message('note_off', channel=9, note=36, velocity=0, time=6)
Message('note_on', channel=9, note=36, velocity=106, time=18)
Message('note_off', channel=9, note=36, velocity=0, time=6)
Message('note_on', channel=9, note=42, velocity=64, time=18)
Message('note_off', channel=9, note=42, velocity=0, time=6)
Message('note_on', channel=9, note=42, velocity=64, time=18)
Message('note_on', channel=9, note=36, velocity=78, time=0)
Message('note_off', channel=9, note=42, velocity=0, time=6)
Message('note_off', channel=9, note=36, velocity=0, time=0)
Message('note_on', channel=9, note=40, velocity=78, time=42)
Message('note_on', channel=9, note=46, velocity=92, time=0)
Message('note_off', channel=9, note=40, velocity=0, time=6)
Message('note_off', channel=9, note=46, velocity=0, time=0)
Message('note_on', channel=9, note=36, velocity=92, time=18)
Message('note_off', channel=9, note=36, velocity=0, time=6)
Message('note_on', channel=9, note=42, velocity=92, time=18)
Message('note_on', channel=9, note=36, velocity=92, time=0)
Message('note_off', channel=9, note=42, velocity=0, time=6)
Message('note_off', channel=9, note=36, velocity=0, time=0)
Message('note_on', channel=9, note=42, velocity=92, time=18)
Message('note_off', channel=9, note=42, velocity=0, time=6)
Message('note_on', channel=9, note=42, velocity=92, time=42)
Message('note_on', channel=9, note=36, velocity=92, time=0)
Message('note_off', channel=9, note=42, velocity=0, time=6)
Message('note_off', channel=9, note=36, velocity=0, time=0)
Message('note_on', channel=9, note=46, velocity=92, time=18)
Message('note_off', channel=9, note=46, velocity=0, time=6)
Message('note_on', channel=9, note=36, velocity=92, time=18)
Message('note_off', channel=9, note=36, velocity=0, time=6)
Message('note_on', channel=9, note=40, velocity=106, time=18)
Message('note_on', channel=9, note=42, velocity=78, time=0)
Message('note_off', channel=9, note=40, velocity=0, time=6)
Message('note_off', channel=9, note=42, velocity=0, time=0)
Message('note_on', channel=9, note=46, velocity=92, time=18)
Message('note_off', channel=9, note=46, velocity=0, time=6)
Message('note_on', channel=9, note=38, velocity=78, time=18)
Message('note_off', channel=9, note=38, velocity=0, time=6)
Message('note_on', channel=9, note=38, velocity=78, time=18)
Message('note_on', channel=9, note=42, velocity=78, time=0)
Message('note_off', channel=9, note=38, velocity=0, time=6)
Message('note_off', channel=9, note=42, velocity=0, time=0)
Message('note_on', channel=9, note=36, velocity=106, time=18)
Message('note_on', channel=9, note=49, velocity=92, time=0)
Message('note_off', channel=9, note=36, velocity=0, time=6)
Message('note_off', channel=9, note=49, velocity=0, time=0)
Message('note_on', channel=9, note=42, velocity=64, time=18)
Message('note_off', channel=9, note=42, velocity=0, time=6)
Message('note_on', channel=9, note=42, velocity=64, time=18)
Message('note_off', channel=9, note=42, velocity=0, time=6)
Message('note_on', channel=9, note=40, velocity=78, time=42)
Message('note_on', channel=9, note=46, velocity=92, time=0)
Message('note_off', channel=9, note=40, velocity=0, time=6)
Message('note_off', channel=9, note=46, velocity=0, time=0)
Message('note_on', channel=9, note=36, velocity=92, time=18)
Message('note_off', channel=9, note=36, velocity=0, time=6)
Message('note_on', channel=9, note=36, velocity=92, time=18)
Message('note_on', channel=9, note=42, velocity=92, time=0)
Message('note_off', channel=9, note=36, velocity=0, time=6)
Message('note_off', channel=9, note=42, velocity=0, time=0)
Message('note_on', channel=9, note=42, velocity=92, time=18)
Message('note_off', channel=9, note=42, velocity=0, time=6)
Message('note_on', channel=9, note=36, velocity=92, time=42)
Message('note_on', channel=9, note=42, velocity=92, time=0)
Message('note_off', channel=9, note=36, velocity=0, time=6)
Message('note_off', channel=9, note=42, velocity=0, time=0)
Message('note_on', channel=9, note=46, velocity=92, time=18)
Message('note_off', channel=9, note=46, velocity=0, time=6)
Message('note_on', channel=9, note=36, velocity=92, time=18)
Message('note_off', channel=9, note=36, velocity=0, time=6)
Message('note_on', channel=9, note=42, velocity=78, time=18)
Message('note_on', channel=9, note=40, velocity=106, time=0)
Message('note_off', channel=9, note=42, velocity=0, time=6)
Message('note_off', channel=9, note=40, velocity=0, time=0)
Message('note_on', channel=9, note=46, velocity=92, time=18)
Message('note_off', channel=9, note=46, velocity=0, time=6)
Message('note_on', channel=9, note=36, velocity=78, time=42)
Message('note_off', channel=9, note=36, velocity=0, time=6)
Message('note_on', channel=9, note=36, velocity=106, time=18)
Message('note_off', channel=9, note=36, velocity=0, time=6)
Message('note_on', channel=9, note=42, velocity=64, time=18)
Message('note_off', channel=9, note=42, velocity=0, time=6)
Message('note_on', channel=9, note=36, velocity=78, time=18)
Message('note_on', channel=9, note=42, velocity=64, time=0)
Message('note_off', channel=9, note=36, velocity=0, time=6)
Message('note_off', channel=9, note=42, velocity=0, time=0)
Message('note_on', channel=9, note=46, velocity=92, time=42)
Message('note_on', channel=9, note=40, velocity=78, time=0)
Message('note_off', channel=9, note=46, velocity=0, time=6)
Message('note_off', channel=9, note=40, velocity=0, time=0)
Message('note_on', channel=9, note=36, velocity=92, time=18)
Message('note_off', channel=9, note=36, velocity=0, time=6)
Message('note_on', channel=9, note=36, velocity=92, time=18)
Message('note_on', channel=9, note=42, velocity=92, time=0)
Message('note_off', channel=9, note=36, velocity=0, time=6)
Message('note_off', channel=9, note=42, velocity=0, time=0)
Message('note_on', channel=9, note=42, velocity=92, time=18)
Message('note_off', channel=9, note=42, velocity=0, time=6)
Message('note_on', channel=9, note=42, velocity=92, time=42)
Message('note_on', channel=9, note=36, velocity=92, time=0)
Message('note_off', channel=9, note=42, velocity=0, time=6)
Message('note_off', channel=9, note=36, velocity=0, time=0)
Message('note_on', channel=9, note=46, velocity=92, time=18)
Message('note_off', channel=9, note=46, velocity=0, time=6)
Message('note_on', channel=9, note=36, velocity=92, time=18)
Message('note_off', channel=9, note=36, velocity=0, time=6)
Message('note_on', channel=9, note=40, velocity=106, time=18)
Message('note_on', channel=9, note=42, velocity=78, time=0)
Message('note_off', channel=9, note=40, velocity=0, time=6)
Message('note_off', channel=9, note=42, velocity=0, time=0)
Message('note_on', channel=9, note=46, velocity=92, time=18)
Message('note_off', channel=9, note=46, velocity=0, time=6)
Message('note_on', channel=9, note=38, velocity=78, time=18)
Message('note_off', channel=9, note=38, velocity=0, time=6)
Message('note_on', channel=9, note=38, velocity=78, time=18)
Message('note_on', channel=9, note=42, velocity=78, time=0)
Message('note_off', channel=9, note=38, velocity=0, time=6)
Message('note_off', channel=9, note=42, velocity=0, time=0)
Message('note_on', channel=9, note=36, velocity=106, time=18)
Message('note_on', channel=9, note=49, velocity=92, time=0)
Message('note_off', channel=9, note=36, velocity=0, time=6)
Message('note_off', channel=9, note=49, velocity=0, time=0)
Message('note_on', channel=9, note=42, velocity=64, time=18)
Message('note_off', channel=9, note=42, velocity=0, time=6)
Message('note_on', channel=9, note=42, velocity=64, time=18)
Message('note_off', channel=9, note=42, velocity=0, time=6)
Message('note_on', channel=9, note=40, velocity=78, time=42)
Message('note_on', channel=9, note=46, velocity=92, time=0)
Message('note_off', channel=9, note=40, velocity=0, time=6)
Message('note_off', channel=9, note=46, velocity=0, time=0)
Message('note_on', channel=9, note=36, velocity=92, time=18)
Message('note_off', channel=9, note=36, velocity=0, time=6)
Message('note_on', channel=9, note=36, velocity=92, time=18)
Message('note_on', channel=9, note=42, velocity=92, time=0)
Message('note_off', channel=9, note=36, velocity=0, time=6)
Message('note_off', channel=9, note=42, velocity=0, time=0)
Message('note_on', channel=9, note=42, velocity=92, time=18)
Message('note_off', channel=9, note=42, velocity=0, time=6)
Message('note_on', channel=9, note=36, velocity=92, time=42)
Message('note_on', channel=9, note=42, velocity=92, time=0)
Message('note_off', channel=9, note=36, velocity=0, time=6)
Message('note_off', channel=9, note=42, velocity=0, time=0)
Message('note_on', channel=9, note=46, velocity=92, time=18)
Message('note_off', channel=9, note=46, velocity=0, time=6)
Message('note_on', channel=9, note=36, velocity=92, time=18)
Message('note_off', channel=9, note=36, velocity=0, time=6)
Message('note_on', channel=9, note=40, velocity=106, time=18)
Message('note_on', channel=9, note=42, velocity=78, time=0)
Message('note_off', channel=9, note=40, velocity=0, time=6)
Message('note_off', channel=9, note=42, velocity=0, time=0)
Message('note_on', channel=9, note=46, velocity=92, time=18)
Message('note_off', channel=9, note=46, velocity=0, time=6)
Message('note_on', channel=9, note=36, velocity=78, time=42)
Message('note_off', channel=9, note=36, velocity=0, time=6)
Message('note_on', channel=9, note=36, velocity=106, time=18)
Message('note_off', channel=9, note=36, velocity=0, time=6)
Message('note_on', channel=9, note=42, velocity=64, time=18)
Message('note_off', channel=9, note=42, velocity=0, time=6)
Message('note_on', channel=9, note=42, velocity=64, time=18)
Message('note_on', channel=9, note=36, velocity=78, time=0)
Message('note_off', channel=9, note=42, velocity=0, time=6)
Message('note_off', channel=9, note=36, velocity=0, time=0)
Message('note_on', channel=9, note=40, velocity=78, time=42)
Message('note_on', channel=9, note=46, velocity=92, time=0)
Message('note_off', channel=9, note=40, velocity=0, time=6)
Message('note_off', channel=9, note=46, velocity=0, time=0)
Message('note_on', channel=9, note=36, velocity=92, time=18)
Message('note_off', channel=9, note=36, velocity=0, time=6)
Message('note_on', channel=9, note=36, velocity=92, time=18)
Message('note_on', channel=9, note=42, velocity=92, time=0)
Message('note_off', channel=9, note=36, velocity=0, time=6)
Message('note_off', channel=9, note=42, velocity=0, time=0)
Message('note_on', channel=9, note=42, velocity=92, time=18)
Message('note_off', channel=9, note=42, velocity=0, time=6)
Message('note_on', channel=9, note=36, velocity=92, time=42)
Message('note_on', channel=9, note=42, velocity=92, time=0)
Message('note_off', channel=9, note=42, velocity=0, time=6)
Message('note_off', channel=9, note=36, velocity=0, time=0)
Message('note_on', channel=9, note=46, velocity=92, time=18)
Message('note_off', channel=9, note=46, velocity=0, time=6)
Message('note_on', channel=9, note=36, velocity=92, time=18)
Message('note_off', channel=9, note=36, velocity=0, time=6)
Message('note_on', channel=9, note=42, velocity=78, time=18)
Message('note_on', channel=9, note=40, velocity=106, time=0)
Message('note_off', channel=9, note=42, velocity=0, time=6)
Message('note_off', channel=9, note=40, velocity=0, time=0)
Message('note_on', channel=9, note=46, velocity=92, time=18)
Message('note_off', channel=9, note=46, velocity=0, time=6)
Message('note_on', channel=9, note=38, velocity=78, time=18)
Message('note_off', channel=9, note=38, velocity=0, time=6)
Message('note_on', channel=9, note=42, velocity=78, time=18)
Message('note_on', channel=9, note=38, velocity=78, time=0)
Message('note_off', channel=9, note=42, velocity=0, time=6)
Message('note_off', channel=9, note=38, velocity=0, time=0)
Message('note_on', channel=9, note=49, velocity=92, time=18)
Message('note_on', channel=9, note=36, velocity=106, time=0)
Message('note_off', channel=9, note=49, velocity=0, time=6)
Message('note_off', channel=9, note=36, velocity=0, time=0)
Message('note_on', channel=9, note=42, velocity=64, time=18)
Message('note_off', channel=9, note=42, velocity=0, time=6)
Message('note_on', channel=9, note=42, velocity=64, time=18)
Message('note_off', channel=9, note=42, velocity=0, time=6)
Message('note_on', channel=9, note=46, velocity=92, time=42)
Message('note_on', channel=9, note=40, velocity=78, time=0)
Message('note_off', channel=9, note=46, velocity=0, time=6)
Message('note_off', channel=9, note=40, velocity=0, time=0)
Message('note_on', channel=9, note=36, velocity=92, time=18)
Message('note_off', channel=9, note=36, velocity=0, time=6)
Message('note_on', channel=9, note=42, velocity=92, time=18)
Message('note_on', channel=9, note=36, velocity=92, time=0)
Message('note_off', channel=9, note=42, velocity=0, time=6)
Message('note_off', channel=9, note=36, velocity=0, time=0)
Message('note_on', channel=9, note=42, velocity=92, time=18)
Message('note_off', channel=9, note=42, velocity=0, time=6)
Message('note_on', channel=9, note=36, velocity=92, time=42)
Message('note_on', channel=9, note=42, velocity=92, time=0)
Message('note_off', channel=9, note=36, velocity=0, time=6)
Message('note_off', channel=9, note=42, velocity=0, time=0)
Message('note_on', channel=9, note=46, velocity=92, time=18)
Message('note_off', channel=9, note=46, velocity=0, time=6)
Message('note_on', channel=9, note=36, velocity=92, time=18)
Message('note_off', channel=9, note=36, velocity=0, time=6)
Message('note_on', channel=9, note=40, velocity=106, time=18)
Message('note_on', channel=9, note=42, velocity=78, time=0)
Message('note_off', channel=9, note=40, velocity=0, time=6)
Message('note_off', channel=9, note=42, velocity=0, time=0)
Message('note_on', channel=9, note=46, velocity=92, time=18)
Message('note_off', channel=9, note=46, velocity=0, time=6)
Message('note_on', channel=9, note=36, velocity=78, time=42)
Message('note_off', channel=9, note=36, velocity=0, time=6)
Message('note_on', channel=9, note=36, velocity=106, time=18)
Message('note_off', channel=9, note=36, velocity=0, time=6)
Message('note_on', channel=9, note=42, velocity=64, time=18)
Message('note_off', channel=9, note=42, velocity=0, time=6)
Message('note_on', channel=9, note=42, velocity=64, time=18)
Message('note_on', channel=9, note=36, velocity=78, time=0)
Message('note_off', channel=9, note=42, velocity=0, time=6)
Message('note_off', channel=9, note=36, velocity=0, time=0)
Message('note_on', channel=9, note=40, velocity=78, time=42)
Message('note_on', channel=9, note=46, velocity=92, time=0)
Message('note_off', channel=9, note=40, velocity=0, time=6)
Message('note_off', channel=9, note=46, velocity=0, time=0)
Message('note_on', channel=9, note=36, velocity=92, time=18)
Message('note_off', channel=9, note=36, velocity=0, time=6)
Message('note_on', channel=9, note=42, velocity=92, time=18)
Message('note_on', channel=9, note=36, velocity=92, time=0)
Message('note_off', channel=9, note=42, velocity=0, time=6)
Message('note_off', channel=9, note=36, velocity=0, time=0)
Message('note_on', channel=9, note=42, velocity=92, time=18)
Message('note_off', channel=9, note=42, velocity=0, time=6)
Message('note_on', channel=9, note=42, velocity=92, time=42)
Message('note_on', channel=9, note=36, velocity=92, time=0)
Message('note_off', channel=9, note=36, velocity=0, time=6)
Message('note_off', channel=9, note=42, velocity=0, time=0)
Message('note_on', channel=9, note=46, velocity=92, time=18)
Message('note_off', channel=9, note=46, velocity=0, time=6)
Message('note_on', channel=9, note=36, velocity=92, time=18)
Message('note_off', channel=9, note=36, velocity=0, time=6)
Message('note_on', channel=9, note=40, velocity=106, time=18)
Message('note_on', channel=9, note=42, velocity=78, time=0)
Message('note_off', channel=9, note=40, velocity=0, time=6)
Message('note_off', channel=9, note=42, velocity=0, time=0)
Message('note_on', channel=9, note=46, velocity=92, time=18)
Message('note_off', channel=9, note=46, velocity=0, time=6)
Message('note_on', channel=9, note=38, velocity=78, time=18)
Message('note_off', channel=9, note=38, velocity=0, time=6)
Message('note_on', channel=9, note=38, velocity=78, time=18)
Message('note_on', channel=9, note=42, velocity=78, time=0)
Message('note_off', channel=9, note=38, velocity=0, time=6)
Message('note_off', channel=9, note=42, velocity=0, time=0)
Message('note_on', channel=9, note=36, velocity=106, time=18)
Message('note_on', channel=9, note=49, velocity=92, time=0)
Message('note_off', channel=9, note=36, velocity=0, time=6)
Message('note_off', channel=9, note=49, velocity=0, time=0)
Message('note_on', channel=9, note=42, velocity=64, time=18)
Message('note_off', channel=9, note=42, velocity=0, time=6)
Message('note_on', channel=9, note=42, velocity=64, time=18)
Message('note_off', channel=9, note=42, velocity=0, time=6)
Message('note_on', channel=9, note=40, velocity=78, time=42)
Message('note_on', channel=9, note=46, velocity=92, time=0)
Message('note_off', channel=9, note=40, velocity=0, time=6)
Message('note_off', channel=9, note=46, velocity=0, time=0)
Message('note_on', channel=9, note=36, velocity=92, time=18)
Message('note_off', channel=9, note=36, velocity=0, time=6)
Message('note_on', channel=9, note=36, velocity=92, time=18)
Message('note_on', channel=9, note=42, velocity=92, time=0)
Message('note_off', channel=9, note=36, velocity=0, time=6)
Message('note_off', channel=9, note=42, velocity=0, time=0)
Message('note_on', channel=9, note=42, velocity=92, time=18)
Message('note_off', channel=9, note=42, velocity=0, time=6)
Message('note_on', channel=9, note=36, velocity=92, time=42)
Message('note_on', channel=9, note=42, velocity=92, time=0)
Message('note_off', channel=9, note=36, velocity=0, time=6)
Message('note_off', channel=9, note=42, velocity=0, time=0)
Message('note_on', channel=9, note=46, velocity=92, time=18)
Message('note_off', channel=9, note=46, velocity=0, time=6)
Message('note_on', channel=9, note=36, velocity=92, time=18)
Message('note_off', channel=9, note=36, velocity=0, time=6)
Message('note_on', channel=9, note=40, velocity=106, time=18)
Message('note_on', channel=9, note=42, velocity=78, time=0)
Message('note_off', channel=9, note=40, velocity=0, time=6)
Message('note_off', channel=9, note=42, velocity=0, time=0)
Message('note_on', channel=9, note=46, velocity=92, time=18)
Message('note_off', channel=9, note=46, velocity=0, time=6)
Message('note_on', channel=9, note=36, velocity=78, time=42)
Message('note_off', channel=9, note=36, velocity=0, time=6)
Message('note_on', channel=9, note=36, velocity=106, time=18)
Message('note_off', channel=9, note=36, velocity=0, time=6)
Message('note_on', channel=9, note=42, velocity=64, time=18)
Message('note_off', channel=9, note=42, velocity=0, time=6)
Message('note_on', channel=9, note=42, velocity=64, time=18)
Message('note_on', channel=9, note=36, velocity=78, time=0)
Message('note_off', channel=9, note=42, velocity=0, time=6)
Message('note_off', channel=9, note=36, velocity=0, time=0)
Message('note_on', channel=9, note=40, velocity=78, time=42)
Message('note_on', channel=9, note=46, velocity=92, time=0)
Message('note_off', channel=9, note=40, velocity=0, time=6)
Message('note_off', channel=9, note=46, velocity=0, time=0)
Message('note_on', channel=9, note=36, velocity=92, time=18)
Message('note_off', channel=9, note=36, velocity=0, time=6)
Message('note_on', channel=9, note=42, velocity=92, time=18)
Message('note_on', channel=9, note=36, velocity=92, time=0)
Message('note_off', channel=9, note=42, velocity=0, time=6)
Message('note_off', channel=9, note=36, velocity=0, time=0)
Message('note_on', channel=9, note=42, velocity=92, time=18)
Message('note_off', channel=9, note=42, velocity=0, time=6)
Message('note_on', channel=9, note=42, velocity=92, time=42)
Message('note_on', channel=9, note=36, velocity=92, time=0)
Message('note_off', channel=9, note=42, velocity=0, time=6)
Message('note_off', channel=9, note=36, velocity=0, time=0)
Message('note_on', channel=9, note=46, velocity=92, time=18)
Message('note_off', channel=9, note=46, velocity=0, time=6)
Message('note_on', channel=9, note=36, velocity=92, time=18)
Message('note_off', channel=9, note=36, velocity=0, time=6)
Message('note_on', channel=9, note=40, velocity=106, time=18)
Message('note_on', channel=9, note=42, velocity=78, time=0)
Message('note_off', channel=9, note=40, velocity=0, time=6)
Message('note_off', channel=9, note=42, velocity=0, time=0)
Message('note_on', channel=9, note=46, velocity=92, time=18)
Message('note_off', channel=9, note=46, velocity=0, time=6)
Message('note_on', channel=9, note=38, velocity=78, time=18)
Message('note_off', channel=9, note=38, velocity=0, time=6)
Message('note_on', channel=9, note=38, velocity=78, time=18)
Message('note_on', channel=9, note=42, velocity=78, time=0)
Message('note_off', channel=9, note=38, velocity=0, time=6)
Message('note_off', channel=9, note=42, velocity=0, time=0)
Message('note_on', channel=9, note=36, velocity=106, time=18)
Message('note_on', channel=9, note=49, velocity=92, time=0)
Message('note_off', channel=9, note=36, velocity=0, time=6)
Message('note_off', channel=9, note=49, velocity=0, time=0)
Message('note_on', channel=9, note=42, velocity=64, time=18)
Message('note_off', channel=9, note=42, velocity=0, time=6)
Message('note_on', channel=9, note=42, velocity=64, time=18)
Message('note_off', channel=9, note=42, velocity=0, time=6)
Message('note_on', channel=9, note=40, velocity=78, time=42)
Message('note_on', channel=9, note=46, velocity=92, time=0)
Message('note_off', channel=9, note=40, velocity=0, time=6)
Message('note_off', channel=9, note=46, velocity=0, time=0)
Message('note_on', channel=9, note=36, velocity=92, time=18)
Message('note_off', channel=9, note=36, velocity=0, time=6)
Message('note_on', channel=9, note=36, velocity=92, time=18)
Message('note_on', channel=9, note=42, velocity=92, time=0)
Message('note_off', channel=9, note=36, velocity=0, time=6)
Message('note_off', channel=9, note=42, velocity=0, time=0)
Message('note_on', channel=9, note=42, velocity=92, time=18)
Message('note_off', channel=9, note=42, velocity=0, time=6)
Message('note_on', channel=9, note=36, velocity=92, time=42)
Message('note_on', channel=9, note=42, velocity=92, time=0)
Message('note_off', channel=9, note=36, velocity=0, time=6)
Message('note_off', channel=9, note=42, velocity=0, time=0)
Message('note_on', channel=9, note=46, velocity=92, time=18)
Message('note_off', channel=9, note=46, velocity=0, time=6)
Message('note_on', channel=9, note=36, velocity=92, time=18)
Message('note_off', channel=9, note=36, velocity=0, time=6)
Message('note_on', channel=9, note=42, velocity=78, time=18)
Message('note_on', channel=9, note=40, velocity=106, time=0)
Message('note_off', channel=9, note=42, velocity=0, time=6)
Message('note_off', channel=9, note=40, velocity=0, time=0)
Message('note_on', channel=9, note=46, velocity=92, time=18)
Message('note_off', channel=9, note=46, velocity=0, time=6)
Message('note_on', channel=9, note=36, velocity=78, time=42)
Message('note_off', channel=9, note=36, velocity=0, time=6)
Message('note_on', channel=9, note=36, velocity=106, time=18)
Message('note_off', channel=9, note=36, velocity=0, time=6)
Message('note_on', channel=9, note=42, velocity=64, time=18)
Message('note_off', channel=9, note=42, velocity=0, time=6)
Message('note_on', channel=9, note=36, velocity=78, time=18)
Message('note_on', channel=9, note=42, velocity=64, time=0)
Message('note_off', channel=9, note=36, velocity=0, time=6)
Message('note_off', channel=9, note=42, velocity=0, time=0)
Message('note_on', channel=9, note=46, velocity=92, time=42)
Message('note_on', channel=9, note=40, velocity=78, time=0)
Message('note_off', channel=9, note=46, velocity=0, time=6)
Message('note_off', channel=9, note=40, velocity=0, time=0)
Message('note_on', channel=9, note=36, velocity=92, time=18)
Message('note_off', channel=9, note=36, velocity=0, time=6)
Message('note_on', channel=9, note=36, velocity=92, time=18)
Message('note_on', channel=9, note=42, velocity=92, time=0)
Message('note_off', channel=9, note=36, velocity=0, time=6)
Message('note_off', channel=9, note=42, velocity=0, time=0)
Message('note_on', channel=9, note=42, velocity=92, time=18)
Message('note_off', channel=9, note=42, velocity=0, time=6)
Message('note_on', channel=9, note=42, velocity=92, time=42)
Message('note_on', channel=9, note=36, velocity=92, time=0)
Message('note_off', channel=9, note=42, velocity=0, time=6)
Message('note_off', channel=9, note=36, velocity=0, time=0)
Message('note_on', channel=9, note=46, velocity=92, time=18)
Message('note_off', channel=9, note=46, velocity=0, time=6)
Message('note_on', channel=9, note=36, velocity=92, time=18)
Message('note_off', channel=9, note=36, velocity=0, time=6)
Message('note_on', channel=9, note=40, velocity=106, time=18)
Message('note_on', channel=9, note=42, velocity=78, time=0)
Message('note_off', channel=9, note=40, velocity=0, time=6)
Message('note_off', channel=9, note=42, velocity=0, time=0)
Message('note_on', channel=9, note=46, velocity=92, time=18)
Message('note_off', channel=9, note=46, velocity=0, time=6)
Message('note_on', channel=9, note=38, velocity=78, time=18)
Message('note_off', channel=9, note=38, velocity=0, time=6)
Message('note_on', channel=9, note=38, velocity=78, time=18)
Message('note_on', channel=9, note=42, velocity=78, time=0)
Message('note_off', channel=9, note=38, velocity=0, time=6)
Message('note_off', channel=9, note=42, velocity=0, time=0)
Message('note_on', channel=9, note=36, velocity=106, time=18)
Message('note_on', channel=9, note=49, velocity=92, time=0)
Message('note_off', channel=9, note=36, velocity=0, time=6)
Message('note_off', channel=9, note=49, velocity=0, time=0)
Message('note_on', channel=9, note=42, velocity=64, time=18)
Message('note_off', channel=9, note=42, velocity=0, time=6)
Message('note_on', channel=9, note=42, velocity=64, time=18)
Message('note_off', channel=9, note=42, velocity=0, time=6)
Message('note_on', channel=9, note=40, velocity=78, time=42)
Message('note_on', channel=9, note=46, velocity=92, time=0)
Message('note_off', channel=9, note=40, velocity=0, time=6)
Message('note_off', channel=9, note=46, velocity=0, time=0)
Message('note_on', channel=9, note=36, velocity=92, time=18)
Message('note_off', channel=9, note=36, velocity=0, time=6)
Message('note_on', channel=9, note=36, velocity=92, time=18)
Message('note_on', channel=9, note=42, velocity=92, time=0)
Message('note_off', channel=9, note=36, velocity=0, time=6)
Message('note_off', channel=9, note=42, velocity=0, time=0)
Message('note_on', channel=9, note=42, velocity=92, time=18)
Message('note_off', channel=9, note=42, velocity=0, time=6)
Message('note_on', channel=9, note=36, velocity=92, time=42)
Message('note_on', channel=9, note=42, velocity=92, time=0)
Message('note_off', channel=9, note=36, velocity=0, time=6)
Message('note_off', channel=9, note=42, velocity=0, time=0)
Message('note_on', channel=9, note=46, velocity=92, time=18)
Message('note_off', channel=9, note=46, velocity=0, time=6)
Message('note_on', channel=9, note=36, velocity=92, time=18)
Message('note_off', channel=9, note=36, velocity=0, time=6)
Message('note_on', channel=9, note=40, velocity=106, time=18)
Message('note_on', channel=9, note=42, velocity=78, time=0)
Message('note_off', channel=9, note=40, velocity=0, time=6)
Message('note_off', channel=9, note=42, velocity=0, time=0)
Message('note_on', channel=9, note=46, velocity=92, time=18)
Message('note_off', channel=9, note=46, velocity=0, time=6)
Message('note_on', channel=9, note=36, velocity=78, time=42)
Message('note_off', channel=9, note=36, velocity=0, time=6)
Message('note_on', channel=9, note=36, velocity=106, time=18)
Message('note_off', channel=9, note=36, velocity=0, time=6)
Message('note_on', channel=9, note=42, velocity=64, time=18)
Message('note_off', channel=9, note=42, velocity=0, time=6)
Message('note_on', channel=9, note=42, velocity=64, time=18)
Message('note_on', channel=9, note=36, velocity=78, time=0)
Message('note_off', channel=9, note=42, velocity=0, time=6)
Message('note_off', channel=9, note=36, velocity=0, time=0)
Message('note_on', channel=9, note=40, velocity=78, time=42)
Message('note_on', channel=9, note=46, velocity=92, time=0)
Message('note_off', channel=9, note=40, velocity=0, time=6)
Message('note_off', channel=9, note=46, velocity=0, time=0)
Message('note_on', channel=9, note=36, velocity=92, time=18)
Message('note_off', channel=9, note=36, velocity=0, time=6)
Message('note_on', channel=9, note=36, velocity=92, time=18)
Message('note_on', channel=9, note=42, velocity=92, time=0)
Message('note_off', channel=9, note=36, velocity=0, time=6)
Message('note_off', channel=9, note=42, velocity=0, time=0)
Message('note_on', channel=9, note=42, velocity=92, time=18)
Message('note_off', channel=9, note=42, velocity=0, time=6)
Message('note_on', channel=9, note=36, velocity=92, time=42)
Message('note_on', channel=9, note=42, velocity=92, time=0)
Message('note_off', channel=9, note=42, velocity=0, time=6)
Message('note_off', channel=9, note=36, velocity=0, time=0)
Message('note_on', channel=9, note=46, velocity=92, time=18)
Message('note_off', channel=9, note=46, velocity=0, time=6)
Message('note_on', channel=9, note=36, velocity=92, time=18)
Message('note_off', channel=9, note=36, velocity=0, time=6)
Message('note_on', channel=9, note=42, velocity=78, time=18)
Message('note_on', channel=9, note=40, velocity=106, time=0)
Message('note_off', channel=9, note=42, velocity=0, time=6)
Message('note_off', channel=9, note=40, velocity=0, time=0)
Message('note_on', channel=9, note=46, velocity=92, time=18)
Message('note_off', channel=9, note=46, velocity=0, time=6)
Message('note_on', channel=9, note=38, velocity=78, time=18)
Message('note_off', channel=9, note=38, velocity=0, time=6)
Message('note_on', channel=9, note=42, velocity=78, time=18)
Message('note_on', channel=9, note=38, velocity=78, time=0)
Message('note_off', channel=9, note=42, velocity=0, time=6)
Message('note_off', channel=9, note=38, velocity=0, time=0)
Message('note_on', channel=9, note=49, velocity=92, time=18)
Message('note_on', channel=9, note=36, velocity=106, time=0)
Message('note_off', channel=9, note=49, velocity=0, time=6)
Message('note_off', channel=9, note=36, velocity=0, time=0)
Message('note_on', channel=9, note=42, velocity=64, time=18)
Message('note_off', channel=9, note=42, velocity=0, time=6)
Message('note_on', channel=9, note=42, velocity=64, time=18)
Message('note_off', channel=9, note=42, velocity=0, time=6)
Message('note_on', channel=9, note=46, velocity=92, time=42)
Message('note_on', channel=9, note=40, velocity=78, time=0)
Message('note_off', channel=9, note=46, velocity=0, time=6)
Message('note_off', channel=9, note=40, velocity=0, time=0)
Message('note_on', channel=9, note=36, velocity=92, time=18)
Message('note_off', channel=9, note=36, velocity=0, time=6)
Message('note_on', channel=9, note=42, velocity=92, time=18)
Message('note_on', channel=9, note=36, velocity=92, time=0)
Message('note_off', channel=9, note=42, velocity=0, time=6)
Message('note_off', channel=9, note=36, velocity=0, time=0)
Message('note_on', channel=9, note=42, velocity=92, time=18)
Message('note_off', channel=9, note=42, velocity=0, time=6)
Message('note_on', channel=9, note=36, velocity=92, time=42)
Message('note_on', channel=9, note=42, velocity=92, time=0)
Message('note_off', channel=9, note=36, velocity=0, time=6)
Message('note_off', channel=9, note=42, velocity=0, time=0)
Message('note_on', channel=9, note=46, velocity=92, time=18)
Message('note_off', channel=9, note=46, velocity=0, time=6)
Message('note_on', channel=9, note=36, velocity=92, time=18)
Message('note_off', channel=9, note=36, velocity=0, time=6)
Message('note_on', channel=9, note=40, velocity=106, time=18)
Message('note_on', channel=9, note=42, velocity=78, time=0)
Message('note_off', channel=9, note=40, velocity=0, time=6)
Message('note_off', channel=9, note=42, velocity=0, time=0)
Message('note_on', channel=9, note=46, velocity=92, time=18)
Message('note_off', channel=9, note=46, velocity=0, time=6)
Message('note_on', channel=9, note=36, velocity=78, time=42)
Message('note_off', channel=9, note=36, velocity=0, time=6)
Message('note_on', channel=9, note=41, velocity=78, time=18)
Message('note_on', channel=9, note=36, velocity=106, time=0)
Message('note_off', channel=9, note=41, velocity=0, time=6)
Message('note_off', channel=9, note=36, velocity=0, time=0)
Message('note_on', channel=9, note=42, velocity=64, time=18)
Message('note_on', channel=9, note=48, velocity=78, time=0)
Message('note_on', channel=9, note=38, velocity=92, time=0)
Message('note_off', channel=9, note=42, velocity=0, time=6)
Message('note_off', channel=9, note=48, velocity=0, time=0)
Message('note_off', channel=9, note=38, velocity=0, time=0)
Message('note_on', channel=9, note=38, velocity=92, time=18)
Message('note_on', channel=9, note=45, velocity=78, time=0)
Message('note_on', channel=9, note=42, velocity=64, time=0)
Message('note_on', channel=9, note=36, velocity=78, time=0)
Message('note_off', channel=9, note=38, velocity=0, time=6)
Message('note_off', channel=9, note=45, velocity=0, time=0)
Message('note_off', channel=9, note=42, velocity=0, time=0)
Message('note_off', channel=9, note=36, velocity=0, time=0)
Message('note_on', channel=9, note=45, velocity=78, time=18)
Message('note_off', channel=9, note=45, velocity=0, time=6)
Message('note_on', channel=9, note=40, velocity=78, time=18)
Message('note_on', channel=9, note=46, velocity=92, time=0)
Message('note_on', channel=9, note=41, velocity=78, time=0)
Message('note_on', channel=9, note=38, velocity=92, time=0)
Message('note_off', channel=9, note=40, velocity=0, time=6)
Message('note_off', channel=9, note=46, velocity=0, time=0)
Message('note_off', channel=9, note=41, velocity=0, time=0)
Message('note_off', channel=9, note=38, velocity=0, time=0)
Message('note_on', channel=9, note=36, velocity=92, time=18)
Message('note_on', channel=9, note=41, velocity=78, time=0)
Message('note_on', channel=9, note=38, velocity=92, time=0)
Message('note_off', channel=9, note=36, velocity=0, time=6)
Message('note_off', channel=9, note=41, velocity=0, time=0)
Message('note_off', channel=9, note=38, velocity=0, time=0)
Message('note_on', channel=9, note=38, velocity=92, time=18)
Message('note_on', channel=9, note=41, velocity=78, time=0)
Message('note_on', channel=9, note=42, velocity=92, time=0)
Message('note_on', channel=9, note=36, velocity=92, time=0)
Message('note_off', channel=9, note=38, velocity=0, time=6)
Message('note_off', channel=9, note=41, velocity=0, time=0)
Message('note_off', channel=9, note=42, velocity=0, time=0)
Message('note_off', channel=9, note=36, velocity=0, time=0)
Message('note_on', channel=9, note=40, velocity=106, time=18)
Message('note_on', channel=9, note=42, velocity=92, time=0)
Message('note_on', channel=9, note=41, velocity=78, time=0)
Message('note_off', channel=9, note=40, velocity=0, time=6)
Message('note_off', channel=9, note=42, velocity=0, time=0)
Message('note_off', channel=9, note=41, velocity=0, time=0)
Message('note_on', channel=9, note=40, velocity=106, time=18)
Message('note_on', channel=9, note=36, velocity=106, time=0)
Message('note_off', channel=9, note=40, velocity=0, time=6)
Message('note_off', channel=9, note=36, velocity=0, time=0)
Message('note_on', channel=9, note=42, velocity=92, time=18)
Message('note_on', channel=9, note=36, velocity=92, time=0)
Message('note_off', channel=9, note=36, velocity=0, time=6)
Message('note_off', channel=9, note=42, velocity=0, time=0)
Message('note_on', channel=9, note=46, velocity=92, time=18)
Message('note_off', channel=9, note=46, velocity=0, time=6)
Message('note_on', channel=9, note=36, velocity=92, time=18)
Message('note_off', channel=9, note=36, velocity=0, time=6)
Message('note_on', channel=9, note=40, velocity=106, time=18)
Message('note_on', channel=9, note=42, velocity=78, time=0)
Message('note_on', channel=9, note=36, velocity=106, time=0)
Message('note_on', channel=9, note=49, velocity=106, time=0)
Message('note_off', channel=9, note=40, velocity=0, time=6)
Message('note_off', channel=9, note=42, velocity=0, time=0)
Message('note_off', channel=9, note=36, velocity=0, time=0)
Message('note_off', channel=9, note=49, velocity=0, time=0)
Message('note_on', channel=9, note=46, velocity=92, time=18)
Message('note_off', channel=9, note=46, velocity=0, time=6)
Message('note_on', channel=9, note=38, velocity=78, time=18)
Message('note_off', channel=9, note=38, velocity=0, time=6)
Message('note_on', channel=9, note=38, velocity=78, time=18)
Message('note_on', channel=9, note=42, velocity=78, time=0)
Message('note_off', channel=9, note=38, velocity=0, time=6)
Message('note_off', channel=9, note=42, velocity=0, time=0)
Message('control_change', channel=9, control=101, value=0, time=402)
Message('control_change', channel=9, control=100, value=0, time=0)
Message('control_change', channel=9, control=6, value=12, time=0)
Message('control_change', channel=9, control=10, value=64, time=0)
Message('control_change', channel=9, control=7, value=108, time=0)
Message('pitchwheel', channel=9, pitch=0, time=0)
Message('program_change', channel=9, program=8, time=0)
Message('control_change', channel=9, control=91, value=30, time=0)
Message('control_change', channel=9, control=93, value=20, time=0)
Message('control_change', channel=9, control=101, value=0, time=1)
Message('control_change', channel=9, control=100, value=0, time=0)
Message('control_change', channel=9, control=6, value=12, time=0)
Message('control_change', channel=9, control=10, value=64, time=0)
Message('control_change', channel=9, control=7, value=108, time=0)
Message('pitchwheel', channel=9, pitch=0, time=0)
Message('program_change', channel=9, program=8, time=0)
Message('control_change', channel=9, control=91, value=30, time=0)
Message('control_change', channel=9, control=93, value=20, time=0)
Message('control_change', channel=9, control=101, value=0, time=0)
Message('control_change', channel=9, control=100, value=0, time=0)
Message('control_change', channel=9, control=6, value=12, time=0)
Message('control_change', channel=9, control=10, value=64, time=0)
Message('control_change', channel=9, control=7, value=108, time=0)
Message('pitchwheel', channel=9, pitch=0, time=0)
Message('program_change', channel=9, program=8, time=0)
Message('control_change', channel=9, control=91, value=30, time=0)
Message('control_change', channel=9, control=93, value=20, time=0)
MetaMessage('end_of_track', time=0)
=== Track 2
MetaMessage('track_name', name='Channel #1', time=0)
Message('control_change', channel=0, control=10, value=64, time=0)
Message('control_change', channel=0, control=7, value=127, time=0)
Message('pitchwheel', channel=0, pitch=0, time=0)
Message('control_change', channel=0, control=101, value=0, time=0)
Message('control_change', channel=0, control=100, value=0, time=0)
Message('control_change', channel=0, control=6, value=12, time=0)
Message('control_change', channel=0, control=10, value=64, time=0)
Message('control_change', channel=0, control=7, value=127, time=0)
Message('pitchwheel', channel=0, pitch=0, time=0)
Message('program_change', channel=0, program=0, time=0)
Message('control_change', channel=0, control=2, value=0, time=0)
Message('control_change', channel=0, control=91, value=40, time=0)
Message('control_change', channel=0, control=93, value=0, time=0)
Message('control_change', channel=0, control=101, value=0, time=0)
Message('control_change', channel=0, control=100, value=0, time=0)
Message('control_change', channel=0, control=6, value=12, time=0)
Message('control_change', channel=0, control=10, value=64, time=0)
Message('control_change', channel=0, control=7, value=127, time=0)
Message('pitchwheel', channel=0, pitch=0, time=0)
Message('program_change', channel=0, program=0, time=0)
Message('control_change', channel=0, control=2, value=0, time=0)
Message('control_change', channel=0, control=91, value=40, time=0)
Message('control_change', channel=0, control=93, value=0, time=0)
Message('control_change', channel=0, control=10, value=64, time=0)
Message('control_change', channel=0, control=7, value=127, time=0)
Message('pitchwheel', channel=0, pitch=0, time=0)
Message('program_change', channel=0, program=0, time=0)
Message('control_change', channel=0, control=2, value=0, time=0)
Message('control_change', channel=0, control=91, value=40, time=0)
Message('control_change', channel=0, control=93, value=0, time=0)
Message('control_change', channel=0, control=101, value=0, time=0)
Message('control_change', channel=0, control=100, value=0, time=0)
Message('control_change', channel=0, control=6, value=12, time=0)
Message('control_change', channel=0, control=10, value=64, time=0)
Message('control_change', channel=0, control=7, value=127, time=0)
Message('pitchwheel', channel=0, pitch=0, time=0)
Message('program_change', channel=0, program=0, time=0)
Message('control_change', channel=0, control=2, value=0, time=0)
Message('control_change', channel=0, control=91, value=40, time=0)
Message('control_change', channel=0, control=93, value=0, time=0)
Message('control_change', channel=0, control=10, value=64, time=0)
Message('control_change', channel=0, control=7, value=127, time=0)
Message('pitchwheel', channel=0, pitch=0, time=0)
Message('program_change', channel=0, program=0, time=0)
Message('control_change', channel=0, control=2, value=0, time=0)
Message('control_change', channel=0, control=91, value=40, time=0)
Message('control_change', channel=0, control=93, value=0, time=0)
Message('control_change', channel=0, control=4, value=0, time=31288)
Message('control_change', channel=0, control=101, value=0, time=200)
Message('control_change', channel=0, control=100, value=0, time=0)
Message('control_change', channel=0, control=6, value=12, time=0)
Message('control_change', channel=0, control=10, value=64, time=0)
Message('control_change', channel=0, control=7, value=127, time=0)
Message('pitchwheel', channel=0, pitch=0, time=0)
Message('program_change', channel=0, program=0, time=0)
Message('control_change', channel=0, control=2, value=0, time=0)
Message('control_change', channel=0, control=4, value=0, time=0)
Message('control_change', channel=0, control=91, value=40, time=0)
Message('control_change', channel=0, control=93, value=0, time=0)
Message('control_change', channel=0, control=101, value=0, time=1)
Message('control_change', channel=0, control=100, value=0, time=0)
Message('control_change', channel=0, control=6, value=12, time=0)
Message('control_change', channel=0, control=10, value=64, time=0)
Message('control_change', channel=0, control=7, value=127, time=0)
Message('pitchwheel', channel=0, pitch=0, time=0)
Message('program_change', channel=0, program=0, time=0)
Message('control_change', channel=0, control=2, value=0, time=0)
Message('control_change', channel=0, control=4, value=0, time=0)
Message('control_change', channel=0, control=91, value=40, time=0)
Message('control_change', channel=0, control=93, value=0, time=0)
Message('control_change', channel=0, control=101, value=0, time=0)
Message('control_change', channel=0, control=100, value=0, time=0)
Message('control_change', channel=0, control=6, value=12, time=0)
Message('control_change', channel=0, control=10, value=64, time=0)
Message('control_change', channel=0, control=7, value=127, time=0)
Message('pitchwheel', channel=0, pitch=0, time=0)
Message('program_change', channel=0, program=0, time=0)
Message('control_change', channel=0, control=2, value=0, time=0)
Message('control_change', channel=0, control=4, value=0, time=0)
Message('control_change', channel=0, control=91, value=40, time=0)
Message('control_change', channel=0, control=93, value=0, time=0)
MetaMessage('end_of_track', time=0)
=== Track 3
MetaMessage('track_name', name='Channel #2', time=0)
Message('control_change', channel=1, control=10, value=70, time=0)
Message('control_change', channel=1, control=7, value=102, time=0)
Message('pitchwheel', channel=1, pitch=0, time=0)
Message('control_change', channel=1, control=101, value=0, time=0)
Message('control_change', channel=1, control=100, value=0, time=0)
Message('control_change', channel=1, control=6, value=12, time=0)
Message('control_change', channel=1, control=10, value=70, time=0)
Message('control_change', channel=1, control=7, value=102, time=0)
Message('pitchwheel', channel=1, pitch=0, time=0)
Message('program_change', channel=1, program=36, time=0)
Message('control_change', channel=1, control=91, value=0, time=0)
Message('control_change', channel=1, control=93, value=0, time=0)
Message('control_change', channel=1, control=101, value=0, time=0)
Message('control_change', channel=1, control=100, value=0, time=0)
Message('control_change', channel=1, control=6, value=12, time=0)
Message('control_change', channel=1, control=10, value=70, time=0)
Message('control_change', channel=1, control=7, value=102, time=0)
Message('pitchwheel', channel=1, pitch=0, time=0)
Message('program_change', channel=1, program=36, time=0)
Message('control_change', channel=1, control=91, value=0, time=0)
Message('control_change', channel=1, control=93, value=0, time=0)
Message('control_change', channel=1, control=10, value=70, time=0)
Message('control_change', channel=1, control=7, value=102, time=0)
Message('pitchwheel', channel=1, pitch=0, time=0)
Message('program_change', channel=1, program=36, time=0)
Message('control_change', channel=1, control=91, value=0, time=0)
Message('control_change', channel=1, control=93, value=0, time=0)
Message('control_change', channel=1, control=101, value=0, time=0)
Message('control_change', channel=1, control=100, value=0, time=0)
Message('control_change', channel=1, control=6, value=12, time=0)
Message('control_change', channel=1, control=10, value=70, time=0)
Message('control_change', channel=1, control=7, value=102, time=0)
Message('pitchwheel', channel=1, pitch=0, time=0)
Message('program_change', channel=1, program=36, time=0)
Message('control_change', channel=1, control=91, value=0, time=0)
Message('control_change', channel=1, control=93, value=0, time=0)
Message('control_change', channel=1, control=10, value=70, time=0)
Message('control_change', channel=1, control=7, value=102, time=0)
Message('pitchwheel', channel=1, pitch=0, time=0)
Message('program_change', channel=1, program=36, time=0)
Message('control_change', channel=1, control=91, value=0, time=0)
Message('control_change', channel=1, control=93, value=0, time=0)
Message('note_on', channel=1, note=49, velocity=120, time=3360)
Message('note_on', channel=1, note=42, velocity=100, time=0)
Message('note_off', channel=1, note=49, velocity=0, time=92)
Message('note_off', channel=1, note=42, velocity=0, time=0)
Message('note_on', channel=1, note=45, velocity=120, time=4)
Message('note_on', channel=1, note=38, velocity=120, time=0)
Message('note_off', channel=1, note=38, velocity=0, time=92)
Message('note_off', channel=1, note=45, velocity=0, time=0)
Message('note_on', channel=1, note=33, velocity=120, time=4)
Message('note_off', channel=1, note=33, velocity=0, time=22)
Message('note_on', channel=1, note=42, velocity=120, time=2)
Message('note_on', channel=1, note=38, velocity=120, time=0)
Message('pitchwheel', channel=1, pitch=-6, time=18)
Message('note_off', channel=1, note=38, velocity=0, time=4)
Message('note_off', channel=1, note=42, velocity=0, time=0)
Message('note_on', channel=1, note=38, velocity=120, time=2)
Message('note_on', channel=1, note=45, velocity=120, time=0)
Message('pitchwheel', channel=1, pitch=-13, time=2)
Message('pitchwheel', channel=1, pitch=-20, time=6)
Message('pitchwheel', channel=1, pitch=-27, time=2)
Message('pitchwheel', channel=1, pitch=-34, time=4)
Message('pitchwheel', channel=1, pitch=-40, time=4)
Message('pitchwheel', channel=1, pitch=-47, time=2)
Message('pitchwheel', channel=1, pitch=-54, time=2)
Message('pitchwheel', channel=1, pitch=-61, time=2)
Message('pitchwheel', channel=1, pitch=-68, time=2)
Message('pitchwheel', channel=1, pitch=-75, time=2)
Message('pitchwheel', channel=1, pitch=-88, time=2)
Message('pitchwheel', channel=1, pitch=-95, time=2)
Message('pitchwheel', channel=1, pitch=-116, time=2)
Message('pitchwheel', channel=1, pitch=-122, time=2)
Message('pitchwheel', channel=1, pitch=-143, time=2)
Message('pitchwheel', channel=1, pitch=0, time=2)
Message('note_off', channel=1, note=45, velocity=0, time=4)
Message('note_off', channel=1, note=38, velocity=0, time=0)
Message('note_on', channel=1, note=40, velocity=120, time=4)
Message('note_on', channel=1, note=47, velocity=120, time=0)
Message('note_off', channel=1, note=47, velocity=0, time=92)
Message('note_off', channel=1, note=40, velocity=0, time=0)
Message('note_on', channel=1, note=35, velocity=120, time=4)
Message('note_off', channel=1, note=35, velocity=0, time=22)
Message('note_on', channel=1, note=44, velocity=120, time=2)
Message('note_on', channel=1, note=47, velocity=120, time=0)
Message('note_off', channel=1, note=47, velocity=0, time=44)
Message('note_off', channel=1, note=44, velocity=0, time=0)
Message('note_on', channel=1, note=47, velocity=120, time=4)
Message('note_on', channel=1, note=52, velocity=120, time=0)
Message('note_off', channel=1, note=52, velocity=0, time=22)
Message('note_off', channel=1, note=47, velocity=0, time=0)
Message('note_on', channel=1, note=42, velocity=120, time=2)
Message('note_on', channel=1, note=49, velocity=120, time=0)
Message('note_off', channel=1, note=49, velocity=0, time=68)
Message('note_off', channel=1, note=42, velocity=0, time=0)
Message('note_on', channel=1, note=49, velocity=120, time=4)
Message('note_on', channel=1, note=42, velocity=120, time=0)
Message('note_off', channel=1, note=42, velocity=0, time=68)
Message('note_off', channel=1, note=49, velocity=0, time=0)
Message('note_on', channel=1, note=54, velocity=120, time=4)
Message('note_on', channel=1, note=45, velocity=120, time=0)
Message('note_off', channel=1, note=45, velocity=0, time=44)
Message('note_off', channel=1, note=54, velocity=0, time=0)
Message('note_on', channel=1, note=42, velocity=120, time=4)
Message('note_on', channel=1, note=45, velocity=120, time=0)
Message('note_off', channel=1, note=45, velocity=0, time=68)
Message('note_off', channel=1, note=42, velocity=0, time=0)
Message('note_on', channel=1, note=45, velocity=120, time=4)
Message('note_on', channel=1, note=42, velocity=120, time=0)
Message('note_off', channel=1, note=42, velocity=0, time=68)
Message('note_off', channel=1, note=45, velocity=0, time=0)
Message('note_on', channel=1, note=57, velocity=120, time=4)
Message('note_on', channel=1, note=49, velocity=120, time=0)
Message('note_off', channel=1, note=49, velocity=0, time=44)
Message('note_off', channel=1, note=57, velocity=0, time=0)
Message('note_on', channel=1, note=45, velocity=120, time=4)
Message('note_on', channel=1, note=38, velocity=120, time=0)
Message('note_off', channel=1, note=38, velocity=0, time=92)
Message('note_off', channel=1, note=45, velocity=0, time=0)
Message('note_on', channel=1, note=33, velocity=120, time=4)
Message('note_off', channel=1, note=33, velocity=0, time=22)
Message('note_on', channel=1, note=42, velocity=120, time=2)
Message('note_on', channel=1, note=38, velocity=120, time=0)
Message('note_off', channel=1, note=38, velocity=0, time=22)
Message('note_off', channel=1, note=42, velocity=0, time=0)
Message('note_on', channel=1, note=38, velocity=120, time=2)
Message('note_on', channel=1, note=45, velocity=120, time=0)
Message('note_off', channel=1, note=45, velocity=0, time=44)
Message('note_off', channel=1, note=38, velocity=0, time=0)
Message('note_on', channel=1, note=41, velocity=120, time=4)
Message('note_on', channel=1, note=47, velocity=120, time=0)
Message('note_off', channel=1, note=47, velocity=0, time=92)
Message('note_off', channel=1, note=41, velocity=0, time=0)
Message('note_on', channel=1, note=41, velocity=120, time=4)
Message('note_off', channel=1, note=41, velocity=0, time=22)
Message('note_on', channel=1, note=41, velocity=120, time=2)
Message('note_on', channel=1, note=44, velocity=120, time=0)
Message('note_off', channel=1, note=44, velocity=0, time=44)
Message('note_off', channel=1, note=41, velocity=0, time=0)
Message('note_on', channel=1, note=47, velocity=120, time=4)
Message('note_on', channel=1, note=44, velocity=120, time=0)
Message('note_off', channel=1, note=44, velocity=0, time=22)
Message('note_off', channel=1, note=47, velocity=0, time=0)
Message('note_on', channel=1, note=45, velocity=120, time=2)
Message('note_on', channel=1, note=54, velocity=120, time=0)
Message('note_off', channel=1, note=54, velocity=0, time=68)
Message('note_off', channel=1, note=45, velocity=0, time=0)
Message('note_on', channel=1, note=45, velocity=120, time=4)
Message('note_on', channel=1, note=49, velocity=120, time=0)
Message('note_off', channel=1, note=49, velocity=0, time=68)
Message('note_off', channel=1, note=45, velocity=0, time=0)
Message('note_on', channel=1, note=42, velocity=120, time=4)
Message('note_on', channel=1, note=45, velocity=120, time=0)
Message('note_off', channel=1, note=45, velocity=0, time=44)
Message('note_off', channel=1, note=42, velocity=0, time=0)
Message('note_on', channel=1, note=47, velocity=120, time=4)
Message('note_on', channel=1, note=52, velocity=120, time=0)
Message('note_off', channel=1, note=52, velocity=0, time=68)
Message('note_off', channel=1, note=47, velocity=0, time=0)
Message('note_on', channel=1, note=47, velocity=120, time=4)
Message('note_on', channel=1, note=44, velocity=120, time=0)
Message('note_off', channel=1, note=44, velocity=0, time=68)
Message('note_off', channel=1, note=47, velocity=0, time=0)
Message('note_on', channel=1, note=44, velocity=120, time=4)
Message('note_on', channel=1, note=40, velocity=120, time=0)
Message('note_off', channel=1, note=44, velocity=0, time=44)
Message('note_off', channel=1, note=40, velocity=0, time=0)
Message('note_on', channel=1, note=45, velocity=120, time=4)
Message('note_on', channel=1, note=38, velocity=120, time=0)
Message('note_off', channel=1, note=38, velocity=0, time=92)
Message('note_off', channel=1, note=45, velocity=0, time=0)
Message('note_on', channel=1, note=33, velocity=120, time=4)
Message('note_off', channel=1, note=33, velocity=0, time=22)
Message('note_on', channel=1, note=42, velocity=120, time=2)
Message('note_on', channel=1, note=38, velocity=120, time=0)
Message('note_off', channel=1, note=38, velocity=0, time=22)
Message('note_off', channel=1, note=42, velocity=0, time=0)
Message('note_on', channel=1, note=38, velocity=120, time=2)
Message('note_on', channel=1, note=45, velocity=120, time=0)
Message('note_off', channel=1, note=45, velocity=0, time=44)
Message('note_off', channel=1, note=38, velocity=0, time=0)
Message('note_on', channel=1, note=40, velocity=120, time=4)
Message('note_on', channel=1, note=47, velocity=120, time=0)
Message('note_off', channel=1, note=47, velocity=0, time=92)
Message('note_off', channel=1, note=40, velocity=0, time=0)
Message('note_on', channel=1, note=35, velocity=120, time=4)
Message('note_off', channel=1, note=35, velocity=0, time=22)
Message('note_on', channel=1, note=44, velocity=120, time=2)
Message('note_on', channel=1, note=47, velocity=120, time=0)
Message('note_off', channel=1, note=47, velocity=0, time=44)
Message('note_off', channel=1, note=44, velocity=0, time=0)
Message('note_on', channel=1, note=47, velocity=120, time=4)
Message('note_on', channel=1, note=52, velocity=120, time=0)
Message('note_off', channel=1, note=52, velocity=0, time=22)
Message('note_off', channel=1, note=47, velocity=0, time=0)
Message('note_on', channel=1, note=42, velocity=120, time=2)
Message('note_on', channel=1, note=49, velocity=120, time=0)
Message('note_off', channel=1, note=49, velocity=0, time=68)
Message('note_off', channel=1, note=42, velocity=0, time=0)
Message('note_on', channel=1, note=49, velocity=120, time=4)
Message('note_on', channel=1, note=42, velocity=120, time=0)
Message('note_off', channel=1, note=42, velocity=0, time=68)
Message('note_off', channel=1, note=49, velocity=0, time=0)
Message('note_on', channel=1, note=45, velocity=120, time=4)
Message('note_on', channel=1, note=54, velocity=120, time=0)
Message('note_off', channel=1, note=54, velocity=0, time=44)
Message('note_off', channel=1, note=45, velocity=0, time=0)
Message('note_on', channel=1, note=45, velocity=120, time=4)
Message('note_on', channel=1, note=42, velocity=120, time=0)
Message('note_off', channel=1, note=42, velocity=0, time=68)
Message('note_off', channel=1, note=45, velocity=0, time=0)
Message('note_on', channel=1, note=45, velocity=120, time=4)
Message('note_on', channel=1, note=42, velocity=120, time=0)
Message('note_off', channel=1, note=42, velocity=0, time=68)
Message('note_off', channel=1, note=45, velocity=0, time=0)
Message('note_on', channel=1, note=49, velocity=120, time=4)
Message('note_on', channel=1, note=57, velocity=120, time=0)
Message('note_off', channel=1, note=57, velocity=0, time=44)
Message('note_off', channel=1, note=49, velocity=0, time=0)
Message('note_on', channel=1, note=45, velocity=120, time=4)
Message('note_on', channel=1, note=38, velocity=120, time=0)
Message('note_off', channel=1, note=38, velocity=0, time=92)
Message('note_off', channel=1, note=45, velocity=0, time=0)
Message('note_on', channel=1, note=33, velocity=120, time=4)
Message('note_off', channel=1, note=33, velocity=0, time=22)
Message('note_on', channel=1, note=38, velocity=120, time=2)
Message('note_on', channel=1, note=42, velocity=120, time=0)
Message('note_off', channel=1, note=38, velocity=0, time=22)
Message('note_off', channel=1, note=42, velocity=0, time=0)
Message('note_on', channel=1, note=45, velocity=120, time=2)
Message('note_on', channel=1, note=38, velocity=120, time=0)
Message('note_off', channel=1, note=38, velocity=0, time=44)
Message('note_off', channel=1, note=45, velocity=0, time=0)
Message('note_on', channel=1, note=40, velocity=120, time=4)
Message('note_on', channel=1, note=47, velocity=120, time=0)
Message('note_off', channel=1, note=47, velocity=0, time=92)
Message('note_off', channel=1, note=40, velocity=0, time=0)
Message('note_on', channel=1, note=44, velocity=120, time=4)
Message('note_off', channel=1, note=44, velocity=0, time=22)
Message('note_on', channel=1, note=44, velocity=120, time=2)
Message('note_on', channel=1, note=47, velocity=120, time=0)
Message('note_off', channel=1, note=47, velocity=0, time=44)
Message('note_on', channel=1, note=52, velocity=120, time=4)
Message('note_on', channel=1, note=56, velocity=120, time=0)
Message('note_off', channel=1, note=56, velocity=0, time=22)
Message('note_off', channel=1, note=52, velocity=0, time=0)
Message('note_on', channel=1, note=42, velocity=120, time=2)
Message('note_on', channel=1, note=49, velocity=120, time=0)
Message('note_off', channel=1, note=44, velocity=0, time=20)
Message('note_off', channel=1, note=49, velocity=0, time=48)
Message('note_off', channel=1, note=42, velocity=0, time=0)
Message('note_on', channel=1, note=49, velocity=120, time=4)
Message('note_on', channel=1, note=42, velocity=120, time=0)
Message('note_off', channel=1, note=42, velocity=0, time=68)
Message('note_off', channel=1, note=49, velocity=0, time=0)
Message('note_on', channel=1, note=54, velocity=120, time=4)
Message('note_on', channel=1, note=45, velocity=120, time=0)
Message('note_off', channel=1, note=45, velocity=0, time=44)
Message('note_off', channel=1, note=54, velocity=0, time=0)
Message('note_on', channel=1, note=49, velocity=120, time=4)
Message('note_on', channel=1, note=57, velocity=120, time=0)
Message('note_off', channel=1, note=57, velocity=0, time=68)
Message('note_off', channel=1, note=49, velocity=0, time=0)
Message('note_on', channel=1, note=49, velocity=120, time=4)
Message('note_on', channel=1, note=45, velocity=120, time=0)
Message('note_off', channel=1, note=45, velocity=0, time=68)
Message('note_off', channel=1, note=49, velocity=0, time=0)
Message('note_on', channel=1, note=57, velocity=120, time=4)
Message('note_on', channel=1, note=49, velocity=120, time=0)
Message('note_off', channel=1, note=57, velocity=0, time=44)
Message('note_off', channel=1, note=49, velocity=0, time=0)
Message('note_on', channel=1, note=45, velocity=120, time=4)
Message('note_on', channel=1, note=38, velocity=120, time=0)
Message('note_off', channel=1, note=38, velocity=0, time=92)
Message('note_off', channel=1, note=45, velocity=0, time=0)
Message('note_on', channel=1, note=33, velocity=120, time=4)
Message('note_off', channel=1, note=33, velocity=0, time=22)
Message('note_on', channel=1, note=42, velocity=120, time=2)
Message('note_on', channel=1, note=38, velocity=120, time=0)
Message('note_off', channel=1, note=38, velocity=0, time=22)
Message('note_off', channel=1, note=42, velocity=0, time=0)
Message('note_on', channel=1, note=38, velocity=120, time=2)
Message('note_on', channel=1, note=45, velocity=120, time=0)
Message('note_off', channel=1, note=45, velocity=0, time=44)
Message('note_off', channel=1, note=38, velocity=0, time=0)
Message('note_on', channel=1, note=40, velocity=120, time=4)
Message('note_on', channel=1, note=47, velocity=120, time=0)
Message('note_off', channel=1, note=47, velocity=0, time=92)
Message('note_off', channel=1, note=40, velocity=0, time=0)
Message('note_on', channel=1, note=35, velocity=120, time=4)
Message('note_off', channel=1, note=35, velocity=0, time=22)
Message('note_on', channel=1, note=44, velocity=120, time=2)
Message('note_on', channel=1, note=47, velocity=120, time=0)
Message('note_off', channel=1, note=47, velocity=0, time=44)
Message('note_off', channel=1, note=44, velocity=0, time=0)
Message('note_on', channel=1, note=47, velocity=120, time=4)
Message('note_on', channel=1, note=52, velocity=120, time=0)
Message('note_off', channel=1, note=52, velocity=0, time=22)
Message('note_off', channel=1, note=47, velocity=0, time=0)
Message('note_on', channel=1, note=42, velocity=120, time=2)
Message('note_on', channel=1, note=49, velocity=120, time=0)
Message('note_off', channel=1, note=49, velocity=0, time=68)
Message('note_off', channel=1, note=42, velocity=0, time=0)
Message('note_on', channel=1, note=49, velocity=120, time=4)
Message('note_on', channel=1, note=42, velocity=120, time=0)
Message('note_off', channel=1, note=42, velocity=0, time=68)
Message('note_off', channel=1, note=49, velocity=0, time=0)
Message('note_on', channel=1, note=54, velocity=120, time=4)
Message('note_on', channel=1, note=45, velocity=120, time=0)
Message('note_off', channel=1, note=45, velocity=0, time=44)
Message('note_off', channel=1, note=54, velocity=0, time=0)
Message('note_on', channel=1, note=42, velocity=120, time=4)
Message('note_on', channel=1, note=45, velocity=120, time=0)
Message('note_off', channel=1, note=45, velocity=0, time=68)
Message('note_off', channel=1, note=42, velocity=0, time=0)
Message('note_on', channel=1, note=45, velocity=120, time=4)
Message('note_on', channel=1, note=42, velocity=120, time=0)
Message('note_off', channel=1, note=42, velocity=0, time=68)
Message('note_off', channel=1, note=45, velocity=0, time=0)
Message('note_on', channel=1, note=57, velocity=120, time=4)
Message('note_on', channel=1, note=49, velocity=120, time=0)
Message('note_off', channel=1, note=49, velocity=0, time=44)
Message('note_off', channel=1, note=57, velocity=0, time=0)
Message('note_on', channel=1, note=45, velocity=120, time=4)
Message('note_on', channel=1, note=38, velocity=120, time=0)
Message('note_off', channel=1, note=38, velocity=0, time=92)
Message('note_off', channel=1, note=45, velocity=0, time=0)
Message('note_on', channel=1, note=33, velocity=120, time=4)
Message('note_off', channel=1, note=33, velocity=0, time=22)
Message('note_on', channel=1, note=42, velocity=120, time=2)
Message('note_on', channel=1, note=38, velocity=120, time=0)
Message('note_off', channel=1, note=38, velocity=0, time=22)
Message('note_off', channel=1, note=42, velocity=0, time=0)
Message('note_on', channel=1, note=38, velocity=120, time=2)
Message('note_on', channel=1, note=45, velocity=120, time=0)
Message('note_off', channel=1, note=45, velocity=0, time=44)
Message('note_off', channel=1, note=38, velocity=0, time=0)
Message('note_on', channel=1, note=41, velocity=120, time=4)
Message('note_on', channel=1, note=47, velocity=120, time=0)
Message('note_off', channel=1, note=47, velocity=0, time=92)
Message('note_off', channel=1, note=41, velocity=0, time=0)
Message('note_on', channel=1, note=41, velocity=120, time=4)
Message('note_off', channel=1, note=41, velocity=0, time=22)
Message('note_on', channel=1, note=41, velocity=120, time=2)
Message('note_on', channel=1, note=44, velocity=120, time=0)
Message('note_off', channel=1, note=44, velocity=0, time=44)
Message('note_off', channel=1, note=41, velocity=0, time=0)
Message('note_on', channel=1, note=47, velocity=120, time=4)
Message('note_on', channel=1, note=44, velocity=120, time=0)
Message('note_off', channel=1, note=44, velocity=0, time=22)
Message('note_off', channel=1, note=47, velocity=0, time=0)
Message('note_on', channel=1, note=45, velocity=120, time=2)
Message('note_on', channel=1, note=54, velocity=120, time=0)
Message('note_off', channel=1, note=54, velocity=0, time=68)
Message('note_off', channel=1, note=45, velocity=0, time=0)
Message('note_on', channel=1, note=45, velocity=120, time=4)
Message('note_on', channel=1, note=49, velocity=120, time=0)
Message('note_off', channel=1, note=49, velocity=0, time=68)
Message('note_off', channel=1, note=45, velocity=0, time=0)
Message('note_on', channel=1, note=42, velocity=120, time=4)
Message('note_on', channel=1, note=45, velocity=120, time=0)
Message('note_off', channel=1, note=45, velocity=0, time=44)
Message('note_off', channel=1, note=42, velocity=0, time=0)
Message('note_on', channel=1, note=47, velocity=120, time=4)
Message('note_on', channel=1, note=52, velocity=120, time=0)
Message('note_off', channel=1, note=52, velocity=0, time=68)
Message('note_off', channel=1, note=47, velocity=0, time=0)
Message('note_on', channel=1, note=47, velocity=120, time=4)
Message('note_on', channel=1, note=44, velocity=120, time=0)
Message('note_off', channel=1, note=44, velocity=0, time=68)
Message('note_off', channel=1, note=47, velocity=0, time=0)
Message('note_on', channel=1, note=44, velocity=120, time=4)
Message('note_on', channel=1, note=40, velocity=120, time=0)
Message('note_off', channel=1, note=44, velocity=0, time=44)
Message('note_off', channel=1, note=40, velocity=0, time=0)
Message('note_on', channel=1, note=45, velocity=120, time=4)
Message('note_on', channel=1, note=38, velocity=120, time=0)
Message('note_off', channel=1, note=38, velocity=0, time=92)
Message('note_off', channel=1, note=45, velocity=0, time=0)
Message('note_on', channel=1, note=33, velocity=120, time=4)
Message('note_off', channel=1, note=33, velocity=0, time=22)
Message('note_on', channel=1, note=42, velocity=120, time=2)
Message('note_on', channel=1, note=38, velocity=120, time=0)
Message('note_off', channel=1, note=38, velocity=0, time=22)
Message('note_off', channel=1, note=42, velocity=0, time=0)
Message('note_on', channel=1, note=38, velocity=120, time=2)
Message('note_on', channel=1, note=45, velocity=120, time=0)
Message('note_off', channel=1, note=45, velocity=0, time=44)
Message('note_off', channel=1, note=38, velocity=0, time=0)
Message('note_on', channel=1, note=40, velocity=120, time=4)
Message('note_on', channel=1, note=47, velocity=120, time=0)
Message('note_off', channel=1, note=47, velocity=0, time=92)
Message('note_off', channel=1, note=40, velocity=0, time=0)
Message('note_on', channel=1, note=35, velocity=120, time=4)
Message('note_off', channel=1, note=35, velocity=0, time=22)
Message('note_on', channel=1, note=44, velocity=120, time=2)
Message('note_on', channel=1, note=47, velocity=120, time=0)
Message('note_off', channel=1, note=47, velocity=0, time=44)
Message('note_off', channel=1, note=44, velocity=0, time=0)
Message('note_on', channel=1, note=47, velocity=120, time=4)
Message('note_on', channel=1, note=52, velocity=120, time=0)
Message('note_off', channel=1, note=52, velocity=0, time=22)
Message('note_off', channel=1, note=47, velocity=0, time=0)
Message('note_on', channel=1, note=42, velocity=120, time=2)
Message('note_on', channel=1, note=49, velocity=120, time=0)
Message('note_off', channel=1, note=49, velocity=0, time=68)
Message('note_off', channel=1, note=42, velocity=0, time=0)
Message('note_on', channel=1, note=49, velocity=120, time=4)
Message('note_on', channel=1, note=42, velocity=120, time=0)
Message('note_off', channel=1, note=42, velocity=0, time=68)
Message('note_off', channel=1, note=49, velocity=0, time=0)
Message('note_on', channel=1, note=45, velocity=120, time=4)
Message('note_on', channel=1, note=54, velocity=120, time=0)
Message('note_off', channel=1, note=54, velocity=0, time=44)
Message('note_off', channel=1, note=45, velocity=0, time=0)
Message('note_on', channel=1, note=45, velocity=120, time=4)
Message('note_on', channel=1, note=42, velocity=120, time=0)
Message('note_off', channel=1, note=42, velocity=0, time=68)
Message('note_off', channel=1, note=45, velocity=0, time=0)
Message('note_on', channel=1, note=45, velocity=120, time=4)
Message('note_on', channel=1, note=42, velocity=120, time=0)
Message('note_off', channel=1, note=42, velocity=0, time=68)
Message('note_off', channel=1, note=45, velocity=0, time=0)
Message('note_on', channel=1, note=49, velocity=120, time=4)
Message('note_on', channel=1, note=57, velocity=120, time=0)
Message('note_off', channel=1, note=57, velocity=0, time=44)
Message('note_off', channel=1, note=49, velocity=0, time=0)
Message('note_on', channel=1, note=45, velocity=120, time=4)
Message('note_on', channel=1, note=38, velocity=120, time=0)
Message('note_off', channel=1, note=38, velocity=0, time=92)
Message('note_off', channel=1, note=45, velocity=0, time=0)
Message('note_on', channel=1, note=33, velocity=120, time=4)
Message('note_off', channel=1, note=33, velocity=0, time=22)
Message('note_on', channel=1, note=38, velocity=120, time=2)
Message('note_on', channel=1, note=42, velocity=120, time=0)
Message('note_off', channel=1, note=38, velocity=0, time=22)
Message('note_off', channel=1, note=42, velocity=0, time=0)
Message('note_on', channel=1, note=45, velocity=120, time=2)
Message('note_on', channel=1, note=38, velocity=120, time=0)
Message('note_off', channel=1, note=38, velocity=0, time=44)
Message('note_off', channel=1, note=45, velocity=0, time=0)
Message('note_on', channel=1, note=40, velocity=120, time=4)
Message('note_on', channel=1, note=47, velocity=120, time=0)
Message('note_off', channel=1, note=47, velocity=0, time=92)
Message('note_off', channel=1, note=40, velocity=0, time=0)
Message('note_on', channel=1, note=44, velocity=120, time=4)
Message('note_off', channel=1, note=44, velocity=0, time=22)
Message('note_on', channel=1, note=44, velocity=120, time=2)
Message('note_on', channel=1, note=47, velocity=120, time=0)
Message('note_off', channel=1, note=47, velocity=0, time=44)
Message('note_on', channel=1, note=52, velocity=120, time=4)
Message('note_on', channel=1, note=56, velocity=120, time=0)
Message('note_off', channel=1, note=56, velocity=0, time=22)
Message('note_off', channel=1, note=52, velocity=0, time=0)
Message('note_on', channel=1, note=42, velocity=120, time=2)
Message('note_on', channel=1, note=49, velocity=120, time=0)
Message('note_off', channel=1, note=44, velocity=0, time=20)
Message('note_off', channel=1, note=49, velocity=0, time=48)
Message('note_off', channel=1, note=42, velocity=0, time=0)
Message('note_on', channel=1, note=49, velocity=120, time=4)
Message('note_on', channel=1, note=42, velocity=120, time=0)
Message('note_off', channel=1, note=42, velocity=0, time=68)
Message('note_off', channel=1, note=49, velocity=0, time=0)
Message('note_on', channel=1, note=54, velocity=120, time=4)
Message('note_on', channel=1, note=45, velocity=120, time=0)
Message('note_off', channel=1, note=45, velocity=0, time=44)
Message('note_off', channel=1, note=54, velocity=0, time=0)
Message('note_on', channel=1, note=49, velocity=120, time=4)
Message('note_on', channel=1, note=57, velocity=120, time=0)
Message('note_off', channel=1, note=49, velocity=0, time=68)
Message('note_off', channel=1, note=57, velocity=0, time=0)
Message('note_on', channel=1, note=45, velocity=120, time=4)
Message('note_on', channel=1, note=49, velocity=120, time=0)
Message('note_off', channel=1, note=49, velocity=0, time=68)
Message('note_off', channel=1, note=45, velocity=0, time=0)
Message('note_on', channel=1, note=49, velocity=120, time=4)
Message('note_on', channel=1, note=57, velocity=120, time=0)
Message('note_off', channel=1, note=57, velocity=0, time=44)
Message('note_off', channel=1, note=49, velocity=0, time=0)
Message('note_on', channel=1, note=42, velocity=120, time=4)
Message('note_off', channel=1, note=42, velocity=0, time=44)
Message('note_on', channel=1, note=49, velocity=120, time=4)
Message('note_off', channel=1, note=49, velocity=0, time=44)
Message('note_on', channel=1, note=37, velocity=100, time=4)
Message('note_off', channel=1, note=37, velocity=0, time=10)
Message('note_on', channel=1, note=42, velocity=120, time=14)
Message('note_off', channel=1, note=42, velocity=0, time=22)
Message('note_on', channel=1, note=49, velocity=120, time=2)
Message('note_off', channel=1, note=49, velocity=0, time=22)
Message('note_on', channel=1, note=42, velocity=120, time=2)
Message('note_off', channel=1, note=42, velocity=0, time=68)
Message('note_on', channel=1, note=49, velocity=120, time=4)
Message('note_off', channel=1, note=49, velocity=0, time=44)
Message('note_on', channel=1, note=42, velocity=120, time=4)
Message('note_off', channel=1, note=42, velocity=0, time=68)
Message('note_on', channel=1, note=49, velocity=120, time=4)
Message('note_off', channel=1, note=49, velocity=0, time=22)
Message('note_on', channel=1, note=40, velocity=120, time=2)
Message('note_off', channel=1, note=40, velocity=0, time=44)
Message('note_on', channel=1, note=49, velocity=120, time=4)
Message('note_off', channel=1, note=49, velocity=0, time=44)
Message('note_on', channel=1, note=37, velocity=100, time=4)
Message('note_off', channel=1, note=37, velocity=0, time=10)
Message('note_on', channel=1, note=40, velocity=120, time=14)
Message('note_off', channel=1, note=40, velocity=0, time=22)
Message('note_on', channel=1, note=49, velocity=120, time=2)
Message('note_off', channel=1, note=49, velocity=0, time=22)
Message('note_on', channel=1, note=40, velocity=120, time=2)
Message('note_off', channel=1, note=40, velocity=0, time=68)
Message('note_on', channel=1, note=49, velocity=120, time=4)
Message('note_off', channel=1, note=49, velocity=0, time=44)
Message('note_on', channel=1, note=40, velocity=60, time=4)
Message('note_off', channel=1, note=40, velocity=0, time=22)
Message('note_on', channel=1, note=40, velocity=120, time=2)
Message('note_off', channel=1, note=40, velocity=0, time=22)
Message('note_on', channel=1, note=49, velocity=120, time=2)
Message('note_off', channel=1, note=49, velocity=0, time=44)
Message('note_on', channel=1, note=39, velocity=120, time=4)
Message('note_off', channel=1, note=39, velocity=0, time=44)
Message('note_on', channel=1, note=47, velocity=120, time=4)
Message('note_off', channel=1, note=47, velocity=0, time=44)
Message('note_on', channel=1, note=35, velocity=100, time=4)
Message('note_off', channel=1, note=35, velocity=0, time=10)
Message('note_on', channel=1, note=39, velocity=120, time=14)
Message('note_off', channel=1, note=39, velocity=0, time=22)
Message('note_on', channel=1, note=47, velocity=120, time=2)
Message('note_off', channel=1, note=47, velocity=0, time=22)
Message('note_on', channel=1, note=39, velocity=120, time=2)
Message('note_off', channel=1, note=39, velocity=0, time=68)
Message('note_on', channel=1, note=47, velocity=120, time=4)
Message('note_off', channel=1, note=47, velocity=0, time=44)
Message('note_on', channel=1, note=39, velocity=120, time=4)
Message('note_off', channel=1, note=39, velocity=0, time=68)
Message('note_on', channel=1, note=47, velocity=120, time=4)
Message('note_off', channel=1, note=47, velocity=0, time=22)
Message('note_on', channel=1, note=39, velocity=120, time=2)
Message('note_off', channel=1, note=39, velocity=0, time=44)
Message('note_on', channel=1, note=47, velocity=120, time=4)
Message('note_off', channel=1, note=47, velocity=0, time=68)
Message('note_on', channel=1, note=39, velocity=120, time=4)
Message('note_off', channel=1, note=39, velocity=0, time=22)
Message('note_on', channel=1, note=47, velocity=120, time=2)
Message('note_off', channel=1, note=47, velocity=0, time=44)
Message('note_on', channel=1, note=39, velocity=120, time=4)
Message('note_off', channel=1, note=39, velocity=0, time=44)
Message('note_on', channel=1, note=47, velocity=120, time=4)
Message('note_off', channel=1, note=47, velocity=0, time=44)
Message('note_on', channel=1, note=39, velocity=120, time=4)
Message('note_off', channel=1, note=39, velocity=0, time=68)
Message('note_on', channel=1, note=47, velocity=120, time=4)
Message('note_off', channel=1, note=47, velocity=0, time=22)
Message('note_on', channel=1, note=38, velocity=120, time=2)
Message('note_off', channel=1, note=38, velocity=0, time=44)
Message('note_on', channel=1, note=45, velocity=120, time=4)
Message('note_off', channel=1, note=45, velocity=0, time=44)
Message('note_on', channel=1, note=38, velocity=100, time=4)
Message('note_off', channel=1, note=38, velocity=0, time=10)
Message('note_on', channel=1, note=38, velocity=120, time=14)
Message('note_off', channel=1, note=38, velocity=0, time=22)
Message('note_on', channel=1, note=45, velocity=120, time=2)
Message('note_off', channel=1, note=45, velocity=0, time=22)
Message('note_on', channel=1, note=38, velocity=120, time=2)
Message('note_off', channel=1, note=38, velocity=0, time=68)
Message('note_on', channel=1, note=45, velocity=120, time=4)
Message('note_off', channel=1, note=45, velocity=0, time=44)
Message('note_on', channel=1, note=38, velocity=120, time=4)
Message('note_off', channel=1, note=38, velocity=0, time=68)
Message('note_on', channel=1, note=45, velocity=120, time=4)
Message('note_off', channel=1, note=45, velocity=0, time=22)
Message('note_on', channel=1, note=40, velocity=120, time=2)
Message('note_off', channel=1, note=40, velocity=0, time=44)
Message('note_on', channel=1, note=47, velocity=120, time=4)
Message('note_off', channel=1, note=47, velocity=0, time=44)
Message('note_on', channel=1, note=40, velocity=100, time=4)
Message('note_off', channel=1, note=40, velocity=0, time=10)
Message('note_on', channel=1, note=44, velocity=120, time=14)
Message('note_off', channel=1, note=44, velocity=0, time=22)
Message('note_on', channel=1, note=47, velocity=120, time=2)
Message('note_off', channel=1, note=47, velocity=0, time=22)
Message('note_on', channel=1, note=40, velocity=120, time=2)
Message('note_off', channel=1, note=40, velocity=0, time=68)
Message('note_on', channel=1, note=47, velocity=120, time=4)
Message('note_off', channel=1, note=47, velocity=0, time=44)
Message('note_on', channel=1, note=40, velocity=60, time=4)
Message('note_off', channel=1, note=40, velocity=0, time=22)
Message('note_on', channel=1, note=44, velocity=120, time=2)
Message('note_off', channel=1, note=44, velocity=0, time=22)
Message('note_on', channel=1, note=47, velocity=120, time=2)
Message('note_off', channel=1, note=47, velocity=0, time=44)
Message('note_on', channel=1, note=42, velocity=120, time=4)
Message('note_off', channel=1, note=42, velocity=0, time=44)
Message('note_on', channel=1, note=49, velocity=120, time=4)
Message('note_off', channel=1, note=49, velocity=0, time=44)
Message('note_on', channel=1, note=37, velocity=100, time=4)
Message('note_off', channel=1, note=37, velocity=0, time=10)
Message('note_on', channel=1, note=42, velocity=120, time=14)
Message('note_off', channel=1, note=42, velocity=0, time=22)
Message('note_on', channel=1, note=49, velocity=120, time=2)
Message('note_off', channel=1, note=49, velocity=0, time=22)
Message('note_on', channel=1, note=45, velocity=120, time=2)
Message('note_off', channel=1, note=45, velocity=0, time=68)
Message('note_on', channel=1, note=42, velocity=120, time=4)
Message('note_off', channel=1, note=42, velocity=0, time=44)
Message('note_on', channel=1, note=49, velocity=120, time=4)
Message('note_off', channel=1, note=49, velocity=0, time=68)
Message('note_on', channel=1, note=42, velocity=120, time=4)
Message('note_off', channel=1, note=42, velocity=0, time=22)
Message('note_on', channel=1, note=42, velocity=120, time=2)
Message('note_off', channel=1, note=42, velocity=0, time=44)
Message('note_on', channel=1, note=49, velocity=120, time=4)
Message('note_off', channel=1, note=49, velocity=0, time=68)
Message('note_on', channel=1, note=45, velocity=120, time=4)
Message('note_off', channel=1, note=45, velocity=0, time=22)
Message('note_on', channel=1, note=54, velocity=120, time=2)
Message('note_off', channel=1, note=54, velocity=0, time=44)
Message('note_on', channel=1, note=42, velocity=120, time=4)
Message('note_off', channel=1, note=42, velocity=0, time=44)
Message('note_on', channel=1, note=49, velocity=120, time=4)
Message('note_off', channel=1, note=49, velocity=0, time=44)
Message('note_on', channel=1, note=45, velocity=120, time=4)
Message('note_off', channel=1, note=45, velocity=0, time=68)
Message('note_on', channel=1, note=49, velocity=120, time=4)
Message('note_off', channel=1, note=49, velocity=0, time=22)
Message('note_on', channel=1, note=42, velocity=120, time=2)
Message('note_off', channel=1, note=42, velocity=0, time=44)
Message('note_on', channel=1, note=49, velocity=120, time=4)
Message('note_off', channel=1, note=49, velocity=0, time=44)
Message('note_on', channel=1, note=37, velocity=100, time=4)
Message('note_off', channel=1, note=37, velocity=0, time=10)
Message('note_on', channel=1, note=42, velocity=120, time=14)
Message('note_off', channel=1, note=42, velocity=0, time=22)
Message('note_on', channel=1, note=49, velocity=120, time=2)
Message('note_off', channel=1, note=49, velocity=0, time=22)
Message('note_on', channel=1, note=42, velocity=120, time=2)
Message('note_off', channel=1, note=42, velocity=0, time=68)
Message('note_on', channel=1, note=49, velocity=120, time=4)
Message('note_off', channel=1, note=49, velocity=0, time=44)
Message('note_on', channel=1, note=42, velocity=120, time=4)
Message('note_off', channel=1, note=42, velocity=0, time=68)
Message('note_on', channel=1, note=49, velocity=120, time=4)
Message('note_off', channel=1, note=49, velocity=0, time=22)
Message('note_on', channel=1, note=40, velocity=120, time=2)
Message('note_off', channel=1, note=40, velocity=0, time=44)
Message('note_on', channel=1, note=49, velocity=120, time=4)
Message('note_off', channel=1, note=49, velocity=0, time=44)
Message('note_on', channel=1, note=37, velocity=100, time=4)
Message('note_off', channel=1, note=37, velocity=0, time=10)
Message('note_on', channel=1, note=40, velocity=120, time=14)
Message('note_off', channel=1, note=40, velocity=0, time=22)
Message('note_on', channel=1, note=49, velocity=120, time=2)
Message('note_off', channel=1, note=49, velocity=0, time=22)
Message('note_on', channel=1, note=40, velocity=120, time=2)
Message('note_off', channel=1, note=40, velocity=0, time=68)
Message('note_on', channel=1, note=49, velocity=120, time=4)
Message('note_off', channel=1, note=49, velocity=0, time=44)
Message('note_on', channel=1, note=40, velocity=60, time=4)
Message('note_off', channel=1, note=40, velocity=0, time=22)
Message('note_on', channel=1, note=40, velocity=120, time=2)
Message('note_off', channel=1, note=40, velocity=0, time=22)
Message('note_on', channel=1, note=49, velocity=120, time=2)
Message('note_off', channel=1, note=49, velocity=0, time=44)
Message('note_on', channel=1, note=39, velocity=120, time=4)
Message('note_off', channel=1, note=39, velocity=0, time=44)
Message('note_on', channel=1, note=47, velocity=120, time=4)
Message('note_off', channel=1, note=47, velocity=0, time=44)
Message('note_on', channel=1, note=35, velocity=100, time=4)
Message('note_off', channel=1, note=35, velocity=0, time=10)
Message('note_on', channel=1, note=39, velocity=120, time=14)
Message('note_off', channel=1, note=39, velocity=0, time=22)
Message('note_on', channel=1, note=47, velocity=120, time=2)
Message('note_off', channel=1, note=47, velocity=0, time=22)
Message('note_on', channel=1, note=39, velocity=120, time=2)
Message('note_off', channel=1, note=39, velocity=0, time=68)
Message('note_on', channel=1, note=47, velocity=120, time=4)
Message('note_off', channel=1, note=47, velocity=0, time=44)
Message('note_on', channel=1, note=39, velocity=120, time=4)
Message('note_off', channel=1, note=39, velocity=0, time=68)
Message('note_on', channel=1, note=47, velocity=120, time=4)
Message('note_off', channel=1, note=47, velocity=0, time=22)
Message('note_on', channel=1, note=39, velocity=120, time=2)
Message('note_off', channel=1, note=39, velocity=0, time=44)
Message('note_on', channel=1, note=47, velocity=120, time=4)
Message('note_off', channel=1, note=47, velocity=0, time=68)
Message('note_on', channel=1, note=39, velocity=120, time=4)
Message('note_off', channel=1, note=39, velocity=0, time=22)
Message('note_on', channel=1, note=47, velocity=120, time=2)
Message('note_off', channel=1, note=47, velocity=0, time=44)
Message('note_on', channel=1, note=39, velocity=120, time=4)
Message('note_off', channel=1, note=39, velocity=0, time=44)
Message('note_on', channel=1, note=47, velocity=120, time=4)
Message('note_off', channel=1, note=47, velocity=0, time=44)
Message('note_on', channel=1, note=39, velocity=120, time=4)
Message('note_off', channel=1, note=39, velocity=0, time=68)
Message('note_on', channel=1, note=47, velocity=120, time=4)
Message('note_off', channel=1, note=47, velocity=0, time=22)
Message('note_on', channel=1, note=38, velocity=120, time=2)
Message('note_off', channel=1, note=38, velocity=0, time=44)
Message('note_on', channel=1, note=45, velocity=120, time=4)
Message('note_off', channel=1, note=45, velocity=0, time=44)
Message('note_on', channel=1, note=38, velocity=100, time=4)
Message('note_off', channel=1, note=38, velocity=0, time=10)
Message('note_on', channel=1, note=38, velocity=120, time=14)
Message('note_off', channel=1, note=38, velocity=0, time=22)
Message('note_on', channel=1, note=45, velocity=120, time=2)
Message('note_off', channel=1, note=45, velocity=0, time=22)
Message('note_on', channel=1, note=38, velocity=120, time=2)
Message('note_off', channel=1, note=38, velocity=0, time=68)
Message('note_on', channel=1, note=45, velocity=120, time=4)
Message('note_off', channel=1, note=45, velocity=0, time=44)
Message('note_on', channel=1, note=38, velocity=120, time=4)
Message('note_off', channel=1, note=38, velocity=0, time=68)
Message('note_on', channel=1, note=45, velocity=120, time=4)
Message('note_off', channel=1, note=45, velocity=0, time=22)
Message('note_on', channel=1, note=40, velocity=120, time=2)
Message('note_off', channel=1, note=40, velocity=0, time=44)
Message('note_on', channel=1, note=47, velocity=120, time=4)
Message('note_off', channel=1, note=47, velocity=0, time=44)
Message('note_on', channel=1, note=40, velocity=100, time=4)
Message('note_off', channel=1, note=40, velocity=0, time=10)
Message('note_on', channel=1, note=44, velocity=120, time=14)
Message('note_off', channel=1, note=44, velocity=0, time=22)
Message('note_on', channel=1, note=47, velocity=120, time=2)
Message('note_off', channel=1, note=47, velocity=0, time=22)
Message('note_on', channel=1, note=40, velocity=120, time=2)
Message('note_off', channel=1, note=40, velocity=0, time=68)
Message('note_on', channel=1, note=47, velocity=120, time=4)
Message('note_off', channel=1, note=47, velocity=0, time=44)
Message('note_on', channel=1, note=40, velocity=60, time=4)
Message('note_off', channel=1, note=40, velocity=0, time=22)
Message('note_on', channel=1, note=44, velocity=120, time=2)
Message('note_off', channel=1, note=44, velocity=0, time=22)
Message('note_on', channel=1, note=47, velocity=120, time=2)
Message('note_off', channel=1, note=47, velocity=0, time=44)
Message('note_on', channel=1, note=42, velocity=120, time=4)
Message('note_off', channel=1, note=42, velocity=0, time=44)
Message('note_on', channel=1, note=49, velocity=120, time=4)
Message('note_off', channel=1, note=49, velocity=0, time=44)
Message('note_on', channel=1, note=37, velocity=100, time=4)
Message('note_off', channel=1, note=37, velocity=0, time=10)
Message('note_on', channel=1, note=42, velocity=120, time=14)
Message('note_off', channel=1, note=42, velocity=0, time=22)
Message('note_on', channel=1, note=49, velocity=120, time=2)
Message('note_off', channel=1, note=49, velocity=0, time=22)
Message('note_on', channel=1, note=45, velocity=120, time=2)
Message('note_off', channel=1, note=45, velocity=0, time=68)
Message('note_on', channel=1, note=42, velocity=120, time=4)
Message('note_off', channel=1, note=42, velocity=0, time=44)
Message('note_on', channel=1, note=49, velocity=120, time=4)
Message('note_off', channel=1, note=49, velocity=0, time=68)
Message('note_on', channel=1, note=42, velocity=120, time=4)
Message('note_off', channel=1, note=42, velocity=0, time=22)
Message('note_on', channel=1, note=42, velocity=120, time=2)
Message('note_off', channel=1, note=42, velocity=0, time=44)
Message('note_on', channel=1, note=49, velocity=120, time=4)
Message('note_off', channel=1, note=49, velocity=0, time=68)
Message('note_on', channel=1, note=45, velocity=120, time=4)
Message('note_off', channel=1, note=45, velocity=0, time=22)
Message('note_on', channel=1, note=54, velocity=120, time=2)
Message('note_off', channel=1, note=54, velocity=0, time=44)
Message('note_on', channel=1, note=42, velocity=120, time=4)
Message('note_off', channel=1, note=42, velocity=0, time=44)
Message('note_on', channel=1, note=49, velocity=120, time=4)
Message('note_off', channel=1, note=49, velocity=0, time=44)
Message('note_on', channel=1, note=45, velocity=120, time=4)
Message('note_off', channel=1, note=45, velocity=0, time=68)
Message('note_on', channel=1, note=49, velocity=120, time=4)
Message('note_off', channel=1, note=49, velocity=0, time=22)
Message('note_on', channel=1, note=45, velocity=120, time=2)
Message('note_on', channel=1, note=38, velocity=120, time=0)
Message('note_off', channel=1, note=38, velocity=0, time=92)
Message('note_off', channel=1, note=45, velocity=0, time=0)
Message('note_on', channel=1, note=33, velocity=120, time=4)
Message('note_off', channel=1, note=33, velocity=0, time=22)
Message('note_on', channel=1, note=38, velocity=120, time=2)
Message('note_on', channel=1, note=42, velocity=120, time=0)
Message('note_off', channel=1, note=42, velocity=0, time=22)
Message('note_off', channel=1, note=38, velocity=0, time=0)
Message('note_on', channel=1, note=45, velocity=120, time=2)
Message('note_on', channel=1, note=38, velocity=120, time=0)
Message('note_off', channel=1, note=38, velocity=0, time=44)
Message('note_off', channel=1, note=45, velocity=0, time=0)
Message('note_on', channel=1, note=40, velocity=120, time=4)
Message('note_on', channel=1, note=47, velocity=120, time=0)
Message('note_off', channel=1, note=47, velocity=0, time=92)
Message('note_off', channel=1, note=40, velocity=0, time=0)
Message('note_on', channel=1, note=35, velocity=120, time=4)
Message('note_off', channel=1, note=35, velocity=0, time=22)
Message('note_on', channel=1, note=44, velocity=120, time=2)
Message('note_on', channel=1, note=47, velocity=120, time=0)
Message('note_off', channel=1, note=47, velocity=0, time=44)
Message('note_off', channel=1, note=44, velocity=0, time=0)
Message('note_on', channel=1, note=47, velocity=120, time=4)
Message('note_on', channel=1, note=52, velocity=120, time=0)
Message('note_off', channel=1, note=52, velocity=0, time=22)
Message('note_off', channel=1, note=47, velocity=0, time=0)
Message('note_on', channel=1, note=42, velocity=120, time=2)
Message('note_on', channel=1, note=49, velocity=120, time=0)
Message('note_off', channel=1, note=49, velocity=0, time=68)
Message('note_off', channel=1, note=42, velocity=0, time=0)
Message('note_on', channel=1, note=49, velocity=120, time=4)
Message('note_on', channel=1, note=42, velocity=120, time=0)
Message('note_off', channel=1, note=42, velocity=0, time=68)
Message('note_off', channel=1, note=49, velocity=0, time=0)
Message('note_on', channel=1, note=54, velocity=120, time=4)
Message('note_on', channel=1, note=45, velocity=120, time=0)
Message('note_off', channel=1, note=45, velocity=0, time=44)
Message('note_off', channel=1, note=54, velocity=0, time=0)
Message('note_on', channel=1, note=45, velocity=120, time=4)
Message('note_on', channel=1, note=42, velocity=120, time=0)
Message('note_off', channel=1, note=42, velocity=0, time=68)
Message('note_off', channel=1, note=45, velocity=0, time=0)
Message('note_on', channel=1, note=45, velocity=120, time=4)
Message('note_on', channel=1, note=42, velocity=120, time=0)
Message('note_off', channel=1, note=42, velocity=0, time=68)
Message('note_off', channel=1, note=45, velocity=0, time=0)
Message('note_on', channel=1, note=57, velocity=120, time=4)
Message('note_on', channel=1, note=49, velocity=120, time=0)
Message('note_off', channel=1, note=49, velocity=0, time=44)
Message('note_off', channel=1, note=57, velocity=0, time=0)
Message('note_on', channel=1, note=38, velocity=120, time=4)
Message('note_on', channel=1, note=45, velocity=120, time=0)
Message('note_off', channel=1, note=45, velocity=0, time=92)
Message('note_off', channel=1, note=38, velocity=0, time=0)
Message('note_on', channel=1, note=33, velocity=120, time=4)
Message('note_off', channel=1, note=33, velocity=0, time=22)
Message('note_on', channel=1, note=42, velocity=120, time=2)
Message('note_on', channel=1, note=38, velocity=120, time=0)
Message('note_off', channel=1, note=38, velocity=0, time=22)
Message('note_off', channel=1, note=42, velocity=0, time=0)
Message('note_on', channel=1, note=38, velocity=120, time=2)
Message('note_on', channel=1, note=45, velocity=120, time=0)
Message('note_off', channel=1, note=38, velocity=0, time=44)
Message('note_off', channel=1, note=45, velocity=0, time=0)
Message('note_on', channel=1, note=41, velocity=120, time=4)
Message('note_on', channel=1, note=47, velocity=120, time=0)
Message('note_off', channel=1, note=47, velocity=0, time=92)
Message('note_off', channel=1, note=41, velocity=0, time=0)
Message('note_on', channel=1, note=41, velocity=120, time=4)
Message('note_off', channel=1, note=41, velocity=0, time=22)
Message('note_on', channel=1, note=44, velocity=120, time=2)
Message('note_on', channel=1, note=41, velocity=120, time=0)
Message('note_off', channel=1, note=41, velocity=0, time=44)
Message('note_off', channel=1, note=44, velocity=0, time=0)
Message('note_on', channel=1, note=44, velocity=120, time=4)
Message('note_on', channel=1, note=47, velocity=120, time=0)
Message('note_off', channel=1, note=47, velocity=0, time=22)
Message('note_off', channel=1, note=44, velocity=0, time=0)
Message('note_on', channel=1, note=54, velocity=120, time=2)
Message('note_on', channel=1, note=45, velocity=120, time=0)
Message('note_off', channel=1, note=45, velocity=0, time=68)
Message('note_off', channel=1, note=54, velocity=0, time=0)
Message('note_on', channel=1, note=49, velocity=120, time=4)
Message('note_on', channel=1, note=45, velocity=120, time=0)
Message('note_off', channel=1, note=45, velocity=0, time=68)
Message('note_off', channel=1, note=49, velocity=0, time=0)
Message('note_on', channel=1, note=42, velocity=120, time=4)
Message('note_on', channel=1, note=45, velocity=120, time=0)
Message('note_off', channel=1, note=45, velocity=0, time=44)
Message('note_off', channel=1, note=42, velocity=0, time=0)
Message('note_on', channel=1, note=52, velocity=120, time=4)
Message('note_on', channel=1, note=47, velocity=120, time=0)
Message('note_off', channel=1, note=47, velocity=0, time=68)
Message('note_off', channel=1, note=52, velocity=0, time=0)
Message('note_on', channel=1, note=44, velocity=120, time=4)
Message('note_on', channel=1, note=47, velocity=120, time=0)
Message('note_off', channel=1, note=47, velocity=0, time=68)
Message('note_off', channel=1, note=44, velocity=0, time=0)
Message('note_on', channel=1, note=40, velocity=120, time=4)
Message('note_on', channel=1, note=44, velocity=120, time=0)
Message('note_off', channel=1, note=44, velocity=0, time=44)
Message('note_off', channel=1, note=40, velocity=0, time=0)
Message('note_on', channel=1, note=45, velocity=120, time=4)
Message('note_on', channel=1, note=38, velocity=120, time=0)
Message('note_off', channel=1, note=38, velocity=0, time=92)
Message('note_off', channel=1, note=45, velocity=0, time=0)
Message('note_on', channel=1, note=33, velocity=120, time=4)
Message('note_off', channel=1, note=33, velocity=0, time=22)
Message('note_on', channel=1, note=42, velocity=120, time=2)
Message('note_on', channel=1, note=38, velocity=120, time=0)
Message('note_off', channel=1, note=38, velocity=0, time=22)
Message('note_off', channel=1, note=42, velocity=0, time=0)
Message('note_on', channel=1, note=38, velocity=120, time=2)
Message('note_on', channel=1, note=45, velocity=120, time=0)
Message('note_off', channel=1, note=38, velocity=0, time=44)
Message('note_off', channel=1, note=45, velocity=0, time=0)
Message('note_on', channel=1, note=40, velocity=120, time=4)
Message('note_on', channel=1, note=47, velocity=120, time=0)
Message('note_off', channel=1, note=47, velocity=0, time=92)
Message('note_off', channel=1, note=40, velocity=0, time=0)
Message('note_on', channel=1, note=35, velocity=120, time=4)
Message('note_off', channel=1, note=35, velocity=0, time=22)
Message('note_on', channel=1, note=44, velocity=120, time=2)
Message('note_on', channel=1, note=47, velocity=120, time=0)
Message('note_off', channel=1, note=47, velocity=0, time=44)
Message('note_off', channel=1, note=44, velocity=0, time=0)
Message('note_on', channel=1, note=52, velocity=120, time=4)
Message('note_on', channel=1, note=47, velocity=120, time=0)
Message('note_off', channel=1, note=47, velocity=0, time=22)
Message('note_off', channel=1, note=52, velocity=0, time=0)
Message('note_on', channel=1, note=49, velocity=120, time=2)
Message('note_on', channel=1, note=42, velocity=120, time=0)
Message('note_off', channel=1, note=42, velocity=0, time=68)
Message('note_off', channel=1, note=49, velocity=0, time=0)
Message('note_on', channel=1, note=42, velocity=120, time=4)
Message('note_on', channel=1, note=49, velocity=120, time=0)
Message('note_off', channel=1, note=49, velocity=0, time=68)
Message('note_off', channel=1, note=42, velocity=0, time=0)
Message('note_on', channel=1, note=54, velocity=120, time=4)
Message('note_on', channel=1, note=45, velocity=120, time=0)
Message('note_off', channel=1, note=45, velocity=0, time=44)
Message('note_off', channel=1, note=54, velocity=0, time=0)
Message('note_on', channel=1, note=42, velocity=120, time=4)
Message('note_on', channel=1, note=45, velocity=120, time=0)
Message('note_off', channel=1, note=45, velocity=0, time=68)
Message('note_off', channel=1, note=42, velocity=0, time=0)
Message('note_on', channel=1, note=42, velocity=120, time=4)
Message('note_on', channel=1, note=45, velocity=120, time=0)
Message('note_off', channel=1, note=45, velocity=0, time=68)
Message('note_off', channel=1, note=42, velocity=0, time=0)
Message('note_on', channel=1, note=57, velocity=120, time=4)
Message('note_on', channel=1, note=49, velocity=120, time=0)
Message('note_off', channel=1, note=57, velocity=0, time=44)
Message('note_off', channel=1, note=49, velocity=0, time=0)
Message('note_on', channel=1, note=38, velocity=120, time=4)
Message('note_on', channel=1, note=45, velocity=120, time=0)
Message('note_off', channel=1, note=45, velocity=0, time=92)
Message('note_off', channel=1, note=38, velocity=0, time=0)
Message('note_on', channel=1, note=33, velocity=120, time=4)
Message('note_off', channel=1, note=33, velocity=0, time=22)
Message('note_on', channel=1, note=42, velocity=120, time=2)
Message('note_on', channel=1, note=38, velocity=120, time=0)
Message('note_off', channel=1, note=38, velocity=0, time=22)
Message('note_off', channel=1, note=42, velocity=0, time=0)
Message('note_on', channel=1, note=38, velocity=120, time=2)
Message('note_on', channel=1, note=45, velocity=120, time=0)
Message('note_off', channel=1, note=45, velocity=0, time=44)
Message('note_off', channel=1, note=38, velocity=0, time=0)
Message('note_on', channel=1, note=47, velocity=120, time=4)
Message('note_on', channel=1, note=40, velocity=120, time=0)
Message('note_off', channel=1, note=40, velocity=0, time=92)
Message('note_off', channel=1, note=47, velocity=0, time=0)
Message('note_on', channel=1, note=44, velocity=120, time=4)
Message('note_off', channel=1, note=44, velocity=0, time=22)
Message('note_on', channel=1, note=44, velocity=120, time=2)
Message('note_on', channel=1, note=47, velocity=120, time=0)
Message('note_off', channel=1, note=47, velocity=0, time=44)
Message('note_on', channel=1, note=52, velocity=120, time=4)
Message('note_on', channel=1, note=56, velocity=120, time=0)
Message('note_off', channel=1, note=56, velocity=0, time=22)
Message('note_off', channel=1, note=52, velocity=0, time=0)
Message('note_on', channel=1, note=42, velocity=120, time=2)
Message('note_on', channel=1, note=49, velocity=120, time=0)
Message('note_off', channel=1, note=44, velocity=0, time=20)
Message('note_off', channel=1, note=49, velocity=0, time=48)
Message('note_off', channel=1, note=42, velocity=0, time=0)
Message('note_on', channel=1, note=49, velocity=120, time=4)
Message('note_on', channel=1, note=42, velocity=120, time=0)
Message('note_off', channel=1, note=42, velocity=0, time=68)
Message('note_off', channel=1, note=49, velocity=0, time=0)
Message('note_on', channel=1, note=54, velocity=120, time=4)
Message('note_on', channel=1, note=45, velocity=120, time=0)
Message('note_off', channel=1, note=54, velocity=0, time=44)
Message('note_off', channel=1, note=45, velocity=0, time=0)
Message('note_on', channel=1, note=49, velocity=120, time=4)
Message('note_on', channel=1, note=57, velocity=120, time=0)
Message('note_off', channel=1, note=57, velocity=0, time=68)
Message('note_off', channel=1, note=49, velocity=0, time=0)
Message('note_on', channel=1, note=49, velocity=120, time=4)
Message('note_on', channel=1, note=45, velocity=120, time=0)
Message('note_off', channel=1, note=45, velocity=0, time=68)
Message('note_off', channel=1, note=49, velocity=0, time=0)
Message('note_on', channel=1, note=49, velocity=120, time=4)
Message('note_on', channel=1, note=57, velocity=120, time=0)
Message('note_off', channel=1, note=57, velocity=0, time=44)
Message('note_off', channel=1, note=49, velocity=0, time=0)
Message('note_on', channel=1, note=38, velocity=120, time=4)
Message('note_on', channel=1, note=45, velocity=120, time=0)
Message('note_off', channel=1, note=45, velocity=0, time=92)
Message('note_off', channel=1, note=38, velocity=0, time=0)
Message('note_on', channel=1, note=33, velocity=120, time=4)
Message('note_off', channel=1, note=33, velocity=0, time=22)
Message('note_on', channel=1, note=42, velocity=120, time=2)
Message('note_on', channel=1, note=38, velocity=120, time=0)
Message('note_off', channel=1, note=38, velocity=0, time=22)
Message('note_off', channel=1, note=42, velocity=0, time=0)
Message('note_on', channel=1, note=38, velocity=120, time=2)
Message('note_on', channel=1, note=45, velocity=120, time=0)
Message('note_off', channel=1, note=45, velocity=0, time=44)
Message('note_off', channel=1, note=38, velocity=0, time=0)
Message('note_on', channel=1, note=40, velocity=120, time=4)
Message('note_on', channel=1, note=47, velocity=120, time=0)
Message('note_off', channel=1, note=47, velocity=0, time=92)
Message('note_off', channel=1, note=40, velocity=0, time=0)
Message('note_on', channel=1, note=35, velocity=120, time=4)
Message('note_off', channel=1, note=35, velocity=0, time=22)
Message('note_on', channel=1, note=44, velocity=120, time=2)
Message('note_on', channel=1, note=47, velocity=120, time=0)
Message('note_off', channel=1, note=47, velocity=0, time=44)
Message('note_off', channel=1, note=44, velocity=0, time=0)
Message('note_on', channel=1, note=47, velocity=120, time=4)
Message('note_on', channel=1, note=52, velocity=120, time=0)
Message('note_off', channel=1, note=52, velocity=0, time=22)
Message('note_off', channel=1, note=47, velocity=0, time=0)
Message('note_on', channel=1, note=42, velocity=120, time=2)
Message('note_on', channel=1, note=49, velocity=120, time=0)
Message('note_off', channel=1, note=49, velocity=0, time=68)
Message('note_off', channel=1, note=42, velocity=0, time=0)
Message('note_on', channel=1, note=49, velocity=120, time=4)
Message('note_on', channel=1, note=42, velocity=120, time=0)
Message('note_off', channel=1, note=42, velocity=0, time=68)
Message('note_off', channel=1, note=49, velocity=0, time=0)
Message('note_on', channel=1, note=54, velocity=120, time=4)
Message('note_on', channel=1, note=45, velocity=120, time=0)
Message('note_off', channel=1, note=45, velocity=0, time=44)
Message('note_off', channel=1, note=54, velocity=0, time=0)
Message('note_on', channel=1, note=42, velocity=120, time=4)
Message('note_on', channel=1, note=45, velocity=120, time=0)
Message('note_off', channel=1, note=45, velocity=0, time=68)
Message('note_off', channel=1, note=42, velocity=0, time=0)
Message('note_on', channel=1, note=45, velocity=120, time=4)
Message('note_on', channel=1, note=42, velocity=120, time=0)
Message('note_off', channel=1, note=42, velocity=0, time=68)
Message('note_off', channel=1, note=45, velocity=0, time=0)
Message('note_on', channel=1, note=57, velocity=120, time=4)
Message('note_on', channel=1, note=49, velocity=120, time=0)
Message('note_off', channel=1, note=49, velocity=0, time=44)
Message('note_off', channel=1, note=57, velocity=0, time=0)
Message('note_on', channel=1, note=45, velocity=120, time=4)
Message('note_on', channel=1, note=38, velocity=120, time=0)
Message('note_off', channel=1, note=38, velocity=0, time=92)
Message('note_off', channel=1, note=45, velocity=0, time=0)
Message('note_on', channel=1, note=33, velocity=120, time=4)
Message('note_off', channel=1, note=33, velocity=0, time=22)
Message('note_on', channel=1, note=42, velocity=120, time=2)
Message('note_on', channel=1, note=38, velocity=120, time=0)
Message('note_off', channel=1, note=38, velocity=0, time=22)
Message('note_off', channel=1, note=42, velocity=0, time=0)
Message('note_on', channel=1, note=38, velocity=120, time=2)
Message('note_on', channel=1, note=45, velocity=120, time=0)
Message('note_off', channel=1, note=45, velocity=0, time=44)
Message('note_off', channel=1, note=38, velocity=0, time=0)
Message('note_on', channel=1, note=41, velocity=120, time=4)
Message('note_on', channel=1, note=47, velocity=120, time=0)
Message('note_off', channel=1, note=47, velocity=0, time=92)
Message('note_off', channel=1, note=41, velocity=0, time=0)
Message('note_on', channel=1, note=41, velocity=120, time=4)
Message('note_off', channel=1, note=41, velocity=0, time=22)
Message('note_on', channel=1, note=41, velocity=120, time=2)
Message('note_on', channel=1, note=44, velocity=120, time=0)
Message('note_off', channel=1, note=44, velocity=0, time=44)
Message('note_off', channel=1, note=41, velocity=0, time=0)
Message('note_on', channel=1, note=47, velocity=120, time=4)
Message('note_on', channel=1, note=44, velocity=120, time=0)
Message('note_off', channel=1, note=44, velocity=0, time=22)
Message('note_off', channel=1, note=47, velocity=0, time=0)
Message('note_on', channel=1, note=45, velocity=120, time=2)
Message('note_on', channel=1, note=54, velocity=120, time=0)
Message('note_off', channel=1, note=54, velocity=0, time=68)
Message('note_off', channel=1, note=45, velocity=0, time=0)
Message('note_on', channel=1, note=45, velocity=120, time=4)
Message('note_on', channel=1, note=49, velocity=120, time=0)
Message('note_off', channel=1, note=49, velocity=0, time=68)
Message('note_off', channel=1, note=45, velocity=0, time=0)
Message('note_on', channel=1, note=42, velocity=120, time=4)
Message('note_on', channel=1, note=45, velocity=120, time=0)
Message('note_off', channel=1, note=45, velocity=0, time=44)
Message('note_off', channel=1, note=42, velocity=0, time=0)
Message('note_on', channel=1, note=47, velocity=120, time=4)
Message('note_on', channel=1, note=52, velocity=120, time=0)
Message('note_off', channel=1, note=52, velocity=0, time=68)
Message('note_off', channel=1, note=47, velocity=0, time=0)
Message('note_on', channel=1, note=47, velocity=120, time=4)
Message('note_on', channel=1, note=44, velocity=120, time=0)
Message('note_off', channel=1, note=44, velocity=0, time=68)
Message('note_off', channel=1, note=47, velocity=0, time=0)
Message('note_on', channel=1, note=44, velocity=120, time=4)
Message('note_on', channel=1, note=40, velocity=120, time=0)
Message('note_off', channel=1, note=44, velocity=0, time=44)
Message('note_off', channel=1, note=40, velocity=0, time=0)
Message('note_on', channel=1, note=45, velocity=120, time=4)
Message('note_on', channel=1, note=38, velocity=120, time=0)
Message('note_off', channel=1, note=38, velocity=0, time=92)
Message('note_off', channel=1, note=45, velocity=0, time=0)
Message('note_on', channel=1, note=33, velocity=120, time=4)
Message('note_off', channel=1, note=33, velocity=0, time=22)
Message('note_on', channel=1, note=42, velocity=120, time=2)
Message('note_on', channel=1, note=38, velocity=120, time=0)
Message('note_off', channel=1, note=38, velocity=0, time=22)
Message('note_off', channel=1, note=42, velocity=0, time=0)
Message('note_on', channel=1, note=38, velocity=120, time=2)
Message('note_on', channel=1, note=45, velocity=120, time=0)
Message('note_off', channel=1, note=45, velocity=0, time=44)
Message('note_off', channel=1, note=38, velocity=0, time=0)
Message('note_on', channel=1, note=40, velocity=120, time=4)
Message('note_on', channel=1, note=47, velocity=120, time=0)
Message('note_off', channel=1, note=47, velocity=0, time=92)
Message('note_off', channel=1, note=40, velocity=0, time=0)
Message('note_on', channel=1, note=35, velocity=120, time=4)
Message('note_off', channel=1, note=35, velocity=0, time=22)
Message('note_on', channel=1, note=44, velocity=120, time=2)
Message('note_on', channel=1, note=47, velocity=120, time=0)
Message('note_off', channel=1, note=47, velocity=0, time=44)
Message('note_off', channel=1, note=44, velocity=0, time=0)
Message('note_on', channel=1, note=47, velocity=120, time=4)
Message('note_on', channel=1, note=52, velocity=120, time=0)
Message('note_off', channel=1, note=52, velocity=0, time=22)
Message('note_off', channel=1, note=47, velocity=0, time=0)
Message('note_on', channel=1, note=42, velocity=120, time=2)
Message('note_on', channel=1, note=49, velocity=120, time=0)
Message('note_off', channel=1, note=49, velocity=0, time=68)
Message('note_off', channel=1, note=42, velocity=0, time=0)
Message('note_on', channel=1, note=49, velocity=120, time=4)
Message('note_on', channel=1, note=42, velocity=120, time=0)
Message('note_off', channel=1, note=42, velocity=0, time=68)
Message('note_off', channel=1, note=49, velocity=0, time=0)
Message('note_on', channel=1, note=45, velocity=120, time=4)
Message('note_on', channel=1, note=54, velocity=120, time=0)
Message('note_off', channel=1, note=54, velocity=0, time=44)
Message('note_off', channel=1, note=45, velocity=0, time=0)
Message('note_on', channel=1, note=45, velocity=120, time=4)
Message('note_on', channel=1, note=42, velocity=120, time=0)
Message('note_off', channel=1, note=45, velocity=0, time=68)
Message('note_off', channel=1, note=42, velocity=0, time=0)
Message('note_on', channel=1, note=45, velocity=120, time=4)
Message('note_on', channel=1, note=42, velocity=120, time=0)
Message('note_off', channel=1, note=42, velocity=0, time=68)
Message('note_off', channel=1, note=45, velocity=0, time=0)
Message('note_on', channel=1, note=49, velocity=120, time=4)
Message('note_on', channel=1, note=57, velocity=120, time=0)
Message('note_off', channel=1, note=57, velocity=0, time=44)
Message('note_off', channel=1, note=49, velocity=0, time=0)
Message('note_on', channel=1, note=45, velocity=120, time=4)
Message('note_on', channel=1, note=38, velocity=120, time=0)
Message('note_off', channel=1, note=38, velocity=0, time=92)
Message('note_off', channel=1, note=45, velocity=0, time=0)
Message('note_on', channel=1, note=33, velocity=120, time=4)
Message('note_off', channel=1, note=33, velocity=0, time=22)
Message('note_on', channel=1, note=38, velocity=120, time=2)
Message('note_on', channel=1, note=42, velocity=120, time=0)
Message('note_off', channel=1, note=38, velocity=0, time=22)
Message('note_off', channel=1, note=42, velocity=0, time=0)
Message('note_on', channel=1, note=45, velocity=120, time=2)
Message('note_on', channel=1, note=38, velocity=120, time=0)
Message('note_off', channel=1, note=38, velocity=0, time=44)
Message('note_off', channel=1, note=45, velocity=0, time=0)
Message('note_on', channel=1, note=40, velocity=120, time=4)
Message('note_on', channel=1, note=47, velocity=120, time=0)
Message('note_off', channel=1, note=47, velocity=0, time=92)
Message('note_off', channel=1, note=40, velocity=0, time=0)
Message('note_on', channel=1, note=44, velocity=120, time=4)
Message('note_off', channel=1, note=44, velocity=0, time=22)
Message('note_on', channel=1, note=44, velocity=120, time=2)
Message('note_on', channel=1, note=47, velocity=120, time=0)
Message('note_off', channel=1, note=47, velocity=0, time=44)
Message('note_on', channel=1, note=52, velocity=120, time=4)
Message('note_on', channel=1, note=56, velocity=120, time=0)
Message('note_off', channel=1, note=56, velocity=0, time=22)
Message('note_off', channel=1, note=52, velocity=0, time=0)
Message('note_on', channel=1, note=42, velocity=120, time=2)
Message('note_on', channel=1, note=49, velocity=120, time=0)
Message('note_off', channel=1, note=44, velocity=0, time=20)
Message('note_off', channel=1, note=49, velocity=0, time=48)
Message('note_off', channel=1, note=42, velocity=0, time=0)
Message('note_on', channel=1, note=49, velocity=120, time=4)
Message('note_on', channel=1, note=42, velocity=120, time=0)
Message('note_off', channel=1, note=42, velocity=0, time=68)
Message('note_off', channel=1, note=49, velocity=0, time=0)
Message('note_on', channel=1, note=54, velocity=120, time=4)
Message('note_on', channel=1, note=45, velocity=120, time=0)
Message('note_off', channel=1, note=45, velocity=0, time=44)
Message('note_off', channel=1, note=54, velocity=0, time=0)
Message('note_on', channel=1, note=49, velocity=120, time=4)
Message('note_on', channel=1, note=57, velocity=120, time=0)
Message('note_off', channel=1, note=49, velocity=0, time=68)
Message('note_off', channel=1, note=57, velocity=0, time=0)
Message('note_on', channel=1, note=49, velocity=120, time=4)
Message('note_on', channel=1, note=45, velocity=120, time=0)
Message('note_off', channel=1, note=45, velocity=0, time=68)
Message('note_off', channel=1, note=49, velocity=0, time=0)
Message('note_on', channel=1, note=57, velocity=120, time=4)
Message('note_on', channel=1, note=49, velocity=120, time=0)
Message('note_off', channel=1, note=57, velocity=0, time=44)
Message('note_off', channel=1, note=49, velocity=0, time=0)
Message('note_on', channel=1, note=45, velocity=120, time=4)
Message('note_on', channel=1, note=38, velocity=120, time=0)
Message('note_off', channel=1, note=38, velocity=0, time=92)
Message('note_off', channel=1, note=45, velocity=0, time=0)
Message('note_on', channel=1, note=33, velocity=120, time=4)
Message('note_off', channel=1, note=33, velocity=0, time=22)
Message('note_on', channel=1, note=42, velocity=120, time=2)
Message('note_on', channel=1, note=38, velocity=120, time=0)
Message('note_off', channel=1, note=38, velocity=0, time=22)
Message('note_off', channel=1, note=42, velocity=0, time=0)
Message('note_on', channel=1, note=38, velocity=120, time=2)
Message('note_on', channel=1, note=45, velocity=120, time=0)
Message('note_off', channel=1, note=45, velocity=0, time=44)
Message('note_off', channel=1, note=38, velocity=0, time=0)
Message('note_on', channel=1, note=40, velocity=120, time=4)
Message('note_on', channel=1, note=47, velocity=120, time=0)
Message('note_off', channel=1, note=47, velocity=0, time=92)
Message('note_off', channel=1, note=40, velocity=0, time=0)
Message('note_on', channel=1, note=35, velocity=120, time=4)
Message('note_off', channel=1, note=35, velocity=0, time=22)
Message('note_on', channel=1, note=44, velocity=120, time=2)
Message('note_on', channel=1, note=47, velocity=120, time=0)
Message('note_off', channel=1, note=47, velocity=0, time=44)
Message('note_off', channel=1, note=44, velocity=0, time=0)
Message('note_on', channel=1, note=47, velocity=120, time=4)
Message('note_on', channel=1, note=52, velocity=120, time=0)
Message('note_off', channel=1, note=52, velocity=0, time=22)
Message('note_off', channel=1, note=47, velocity=0, time=0)
Message('note_on', channel=1, note=42, velocity=120, time=2)
Message('note_on', channel=1, note=49, velocity=120, time=0)
Message('note_off', channel=1, note=49, velocity=0, time=68)
Message('note_off', channel=1, note=42, velocity=0, time=0)
Message('note_on', channel=1, note=49, velocity=120, time=4)
Message('note_on', channel=1, note=42, velocity=120, time=0)
Message('note_off', channel=1, note=42, velocity=0, time=68)
Message('note_off', channel=1, note=49, velocity=0, time=0)
Message('note_on', channel=1, note=54, velocity=120, time=4)
Message('note_on', channel=1, note=45, velocity=120, time=0)
Message('note_off', channel=1, note=45, velocity=0, time=44)
Message('note_off', channel=1, note=54, velocity=0, time=0)
Message('note_on', channel=1, note=42, velocity=120, time=4)
Message('note_on', channel=1, note=45, velocity=120, time=0)
Message('note_off', channel=1, note=45, velocity=0, time=68)
Message('note_off', channel=1, note=42, velocity=0, time=0)
Message('note_on', channel=1, note=45, velocity=120, time=4)
Message('note_on', channel=1, note=42, velocity=120, time=0)
Message('note_off', channel=1, note=42, velocity=0, time=68)
Message('note_off', channel=1, note=45, velocity=0, time=0)
Message('note_on', channel=1, note=57, velocity=120, time=4)
Message('note_on', channel=1, note=49, velocity=120, time=0)
Message('note_off', channel=1, note=49, velocity=0, time=44)
Message('note_off', channel=1, note=57, velocity=0, time=0)
Message('note_on', channel=1, note=45, velocity=120, time=4)
Message('note_on', channel=1, note=38, velocity=120, time=0)
Message('note_off', channel=1, note=38, velocity=0, time=92)
Message('note_off', channel=1, note=45, velocity=0, time=0)
Message('note_on', channel=1, note=33, velocity=120, time=4)
Message('note_off', channel=1, note=33, velocity=0, time=22)
Message('note_on', channel=1, note=42, velocity=120, time=2)
Message('note_on', channel=1, note=38, velocity=120, time=0)
Message('note_off', channel=1, note=38, velocity=0, time=22)
Message('note_off', channel=1, note=42, velocity=0, time=0)
Message('note_on', channel=1, note=38, velocity=120, time=2)
Message('note_on', channel=1, note=45, velocity=120, time=0)
Message('note_off', channel=1, note=45, velocity=0, time=44)
Message('note_off', channel=1, note=38, velocity=0, time=0)
Message('note_on', channel=1, note=41, velocity=120, time=4)
Message('note_on', channel=1, note=47, velocity=120, time=0)
Message('note_off', channel=1, note=47, velocity=0, time=92)
Message('note_off', channel=1, note=41, velocity=0, time=0)
Message('note_on', channel=1, note=41, velocity=120, time=4)
Message('note_off', channel=1, note=41, velocity=0, time=22)
Message('note_on', channel=1, note=41, velocity=120, time=2)
Message('note_on', channel=1, note=44, velocity=120, time=0)
Message('note_off', channel=1, note=44, velocity=0, time=44)
Message('note_off', channel=1, note=41, velocity=0, time=0)
Message('note_on', channel=1, note=47, velocity=120, time=4)
Message('note_on', channel=1, note=44, velocity=120, time=0)
Message('note_off', channel=1, note=44, velocity=0, time=22)
Message('note_off', channel=1, note=47, velocity=0, time=0)
Message('note_on', channel=1, note=45, velocity=120, time=2)
Message('note_on', channel=1, note=54, velocity=120, time=0)
Message('note_off', channel=1, note=54, velocity=0, time=68)
Message('note_off', channel=1, note=45, velocity=0, time=0)
Message('note_on', channel=1, note=45, velocity=120, time=4)
Message('note_on', channel=1, note=49, velocity=120, time=0)
Message('note_off', channel=1, note=49, velocity=0, time=68)
Message('note_off', channel=1, note=45, velocity=0, time=0)
Message('note_on', channel=1, note=42, velocity=120, time=4)
Message('note_on', channel=1, note=45, velocity=120, time=0)
Message('note_off', channel=1, note=45, velocity=0, time=44)
Message('note_off', channel=1, note=42, velocity=0, time=0)
Message('note_on', channel=1, note=47, velocity=120, time=4)
Message('note_on', channel=1, note=52, velocity=120, time=0)
Message('note_off', channel=1, note=52, velocity=0, time=68)
Message('note_off', channel=1, note=47, velocity=0, time=0)
Message('note_on', channel=1, note=47, velocity=120, time=4)
Message('note_on', channel=1, note=44, velocity=120, time=0)
Message('note_off', channel=1, note=44, velocity=0, time=68)
Message('note_off', channel=1, note=47, velocity=0, time=0)
Message('note_on', channel=1, note=44, velocity=120, time=4)
Message('note_on', channel=1, note=40, velocity=120, time=0)
Message('note_off', channel=1, note=44, velocity=0, time=44)
Message('note_off', channel=1, note=40, velocity=0, time=0)
Message('note_on', channel=1, note=45, velocity=120, time=4)
Message('note_on', channel=1, note=38, velocity=120, time=0)
Message('note_off', channel=1, note=38, velocity=0, time=92)
Message('note_off', channel=1, note=45, velocity=0, time=0)
Message('note_on', channel=1, note=33, velocity=120, time=4)
Message('note_off', channel=1, note=33, velocity=0, time=22)
Message('note_on', channel=1, note=42, velocity=120, time=2)
Message('note_on', channel=1, note=38, velocity=120, time=0)
Message('note_off', channel=1, note=38, velocity=0, time=22)
Message('note_off', channel=1, note=42, velocity=0, time=0)
Message('note_on', channel=1, note=38, velocity=120, time=2)
Message('note_on', channel=1, note=45, velocity=120, time=0)
Message('note_off', channel=1, note=45, velocity=0, time=44)
Message('note_off', channel=1, note=38, velocity=0, time=0)
Message('note_on', channel=1, note=40, velocity=120, time=4)
Message('note_on', channel=1, note=47, velocity=120, time=0)
Message('note_off', channel=1, note=47, velocity=0, time=92)
Message('note_off', channel=1, note=40, velocity=0, time=0)
Message('note_on', channel=1, note=35, velocity=120, time=4)
Message('note_off', channel=1, note=35, velocity=0, time=22)
Message('note_on', channel=1, note=44, velocity=120, time=2)
Message('note_on', channel=1, note=47, velocity=120, time=0)
Message('note_off', channel=1, note=47, velocity=0, time=44)
Message('note_off', channel=1, note=44, velocity=0, time=0)
Message('note_on', channel=1, note=47, velocity=120, time=4)
Message('note_on', channel=1, note=52, velocity=120, time=0)
Message('note_off', channel=1, note=52, velocity=0, time=22)
Message('note_off', channel=1, note=47, velocity=0, time=0)
Message('note_on', channel=1, note=42, velocity=120, time=2)
Message('note_on', channel=1, note=49, velocity=120, time=0)
Message('note_off', channel=1, note=49, velocity=0, time=68)
Message('note_off', channel=1, note=42, velocity=0, time=0)
Message('note_on', channel=1, note=49, velocity=120, time=4)
Message('note_on', channel=1, note=42, velocity=120, time=0)
Message('note_off', channel=1, note=42, velocity=0, time=68)
Message('note_off', channel=1, note=49, velocity=0, time=0)
Message('note_on', channel=1, note=45, velocity=120, time=4)
Message('note_on', channel=1, note=54, velocity=120, time=0)
Message('note_off', channel=1, note=54, velocity=0, time=44)
Message('note_off', channel=1, note=45, velocity=0, time=0)
Message('note_on', channel=1, note=45, velocity=120, time=4)
Message('note_on', channel=1, note=42, velocity=120, time=0)
Message('note_off', channel=1, note=45, velocity=0, time=68)
Message('note_off', channel=1, note=42, velocity=0, time=0)
Message('note_on', channel=1, note=45, velocity=120, time=4)
Message('note_on', channel=1, note=42, velocity=120, time=0)
Message('note_off', channel=1, note=42, velocity=0, time=68)
Message('note_off', channel=1, note=45, velocity=0, time=0)
Message('note_on', channel=1, note=49, velocity=120, time=4)
Message('note_on', channel=1, note=57, velocity=120, time=0)
Message('note_off', channel=1, note=57, velocity=0, time=44)
Message('note_off', channel=1, note=49, velocity=0, time=0)
Message('note_on', channel=1, note=45, velocity=120, time=4)
Message('note_on', channel=1, note=38, velocity=120, time=0)
Message('note_off', channel=1, note=38, velocity=0, time=92)
Message('note_off', channel=1, note=45, velocity=0, time=0)
Message('note_on', channel=1, note=33, velocity=120, time=4)
Message('note_off', channel=1, note=33, velocity=0, time=22)
Message('note_on', channel=1, note=38, velocity=120, time=2)
Message('note_on', channel=1, note=42, velocity=120, time=0)
Message('note_off', channel=1, note=38, velocity=0, time=22)
Message('note_off', channel=1, note=42, velocity=0, time=0)
Message('note_on', channel=1, note=45, velocity=120, time=2)
Message('note_on', channel=1, note=38, velocity=120, time=0)
Message('note_off', channel=1, note=38, velocity=0, time=44)
Message('note_off', channel=1, note=45, velocity=0, time=0)
Message('note_on', channel=1, note=40, velocity=120, time=4)
Message('note_on', channel=1, note=47, velocity=120, time=0)
Message('note_off', channel=1, note=47, velocity=0, time=92)
Message('note_off', channel=1, note=40, velocity=0, time=0)
Message('note_on', channel=1, note=44, velocity=120, time=4)
Message('note_off', channel=1, note=44, velocity=0, time=22)
Message('note_on', channel=1, note=44, velocity=120, time=2)
Message('note_on', channel=1, note=47, velocity=120, time=0)
Message('note_off', channel=1, note=47, velocity=0, time=44)
Message('note_on', channel=1, note=52, velocity=120, time=4)
Message('note_on', channel=1, note=56, velocity=120, time=0)
Message('note_off', channel=1, note=56, velocity=0, time=22)
Message('note_off', channel=1, note=52, velocity=0, time=0)
Message('note_on', channel=1, note=42, velocity=120, time=2)
Message('note_on', channel=1, note=49, velocity=120, time=0)
Message('note_off', channel=1, note=44, velocity=0, time=20)
Message('note_off', channel=1, note=49, velocity=0, time=48)
Message('note_off', channel=1, note=42, velocity=0, time=0)
Message('note_on', channel=1, note=49, velocity=120, time=4)
Message('note_on', channel=1, note=42, velocity=120, time=0)
Message('note_off', channel=1, note=42, velocity=0, time=68)
Message('note_off', channel=1, note=49, velocity=0, time=0)
Message('note_on', channel=1, note=54, velocity=120, time=4)
Message('note_on', channel=1, note=45, velocity=120, time=0)
Message('note_off', channel=1, note=45, velocity=0, time=44)
Message('note_off', channel=1, note=54, velocity=0, time=0)
Message('note_on', channel=1, note=49, velocity=120, time=4)
Message('note_on', channel=1, note=57, velocity=120, time=0)
Message('note_off', channel=1, note=49, velocity=0, time=68)
Message('note_off', channel=1, note=57, velocity=0, time=0)
Message('note_on', channel=1, note=49, velocity=120, time=4)
Message('note_on', channel=1, note=45, velocity=120, time=0)
Message('note_off', channel=1, note=45, velocity=0, time=68)
Message('note_off', channel=1, note=49, velocity=0, time=0)
Message('note_on', channel=1, note=57, velocity=120, time=4)
Message('note_on', channel=1, note=49, velocity=120, time=0)
Message('note_off', channel=1, note=57, velocity=0, time=44)
Message('note_off', channel=1, note=49, velocity=0, time=0)
Message('note_on', channel=1, note=45, velocity=120, time=4)
Message('note_on', channel=1, note=38, velocity=120, time=0)
Message('note_off', channel=1, note=38, velocity=0, time=92)
Message('note_off', channel=1, note=45, velocity=0, time=0)
Message('note_on', channel=1, note=33, velocity=120, time=4)
Message('note_off', channel=1, note=33, velocity=0, time=22)
Message('note_on', channel=1, note=42, velocity=120, time=2)
Message('note_on', channel=1, note=38, velocity=120, time=0)
Message('note_off', channel=1, note=38, velocity=0, time=22)
Message('note_off', channel=1, note=42, velocity=0, time=0)
Message('note_on', channel=1, note=38, velocity=120, time=2)
Message('note_on', channel=1, note=45, velocity=120, time=0)
Message('note_off', channel=1, note=45, velocity=0, time=44)
Message('note_off', channel=1, note=38, velocity=0, time=0)
Message('note_on', channel=1, note=40, velocity=120, time=4)
Message('note_on', channel=1, note=47, velocity=120, time=0)
Message('note_off', channel=1, note=47, velocity=0, time=92)
Message('note_off', channel=1, note=40, velocity=0, time=0)
Message('note_on', channel=1, note=35, velocity=120, time=4)
Message('note_off', channel=1, note=35, velocity=0, time=22)
Message('note_on', channel=1, note=44, velocity=120, time=2)
Message('note_on', channel=1, note=47, velocity=120, time=0)
Message('note_off', channel=1, note=47, velocity=0, time=44)
Message('note_off', channel=1, note=44, velocity=0, time=0)
Message('note_on', channel=1, note=47, velocity=120, time=4)
Message('note_on', channel=1, note=52, velocity=120, time=0)
Message('note_off', channel=1, note=52, velocity=0, time=22)
Message('note_off', channel=1, note=47, velocity=0, time=0)
Message('note_on', channel=1, note=42, velocity=120, time=2)
Message('note_on', channel=1, note=49, velocity=120, time=0)
Message('note_off', channel=1, note=49, velocity=0, time=68)
Message('note_off', channel=1, note=42, velocity=0, time=0)
Message('note_on', channel=1, note=49, velocity=120, time=4)
Message('note_on', channel=1, note=42, velocity=120, time=0)
Message('note_off', channel=1, note=42, velocity=0, time=68)
Message('note_off', channel=1, note=49, velocity=0, time=0)
Message('note_on', channel=1, note=54, velocity=120, time=4)
Message('note_on', channel=1, note=45, velocity=120, time=0)
Message('note_off', channel=1, note=45, velocity=0, time=44)
Message('note_off', channel=1, note=54, velocity=0, time=0)
Message('note_on', channel=1, note=42, velocity=120, time=4)
Message('note_on', channel=1, note=45, velocity=120, time=0)
Message('note_off', channel=1, note=45, velocity=0, time=68)
Message('note_off', channel=1, note=42, velocity=0, time=0)
Message('note_on', channel=1, note=45, velocity=120, time=4)
Message('note_on', channel=1, note=42, velocity=120, time=0)
Message('note_off', channel=1, note=42, velocity=0, time=68)
Message('note_off', channel=1, note=45, velocity=0, time=0)
Message('note_on', channel=1, note=57, velocity=120, time=4)
Message('note_on', channel=1, note=49, velocity=120, time=0)
Message('note_off', channel=1, note=49, velocity=0, time=44)
Message('note_off', channel=1, note=57, velocity=0, time=0)
Message('note_on', channel=1, note=45, velocity=120, time=4)
Message('note_on', channel=1, note=38, velocity=120, time=0)
Message('note_off', channel=1, note=38, velocity=0, time=92)
Message('note_off', channel=1, note=45, velocity=0, time=0)
Message('note_on', channel=1, note=33, velocity=120, time=4)
Message('note_off', channel=1, note=33, velocity=0, time=22)
Message('note_on', channel=1, note=42, velocity=120, time=2)
Message('note_on', channel=1, note=38, velocity=120, time=0)
Message('note_off', channel=1, note=38, velocity=0, time=22)
Message('note_off', channel=1, note=42, velocity=0, time=0)
Message('note_on', channel=1, note=38, velocity=120, time=2)
Message('note_on', channel=1, note=45, velocity=120, time=0)
Message('note_off', channel=1, note=45, velocity=0, time=44)
Message('note_off', channel=1, note=38, velocity=0, time=0)
Message('note_on', channel=1, note=41, velocity=120, time=4)
Message('note_on', channel=1, note=47, velocity=120, time=0)
Message('note_off', channel=1, note=47, velocity=0, time=92)
Message('note_off', channel=1, note=41, velocity=0, time=0)
Message('note_on', channel=1, note=41, velocity=120, time=4)
Message('note_off', channel=1, note=41, velocity=0, time=22)
Message('note_on', channel=1, note=41, velocity=120, time=2)
Message('note_on', channel=1, note=44, velocity=120, time=0)
Message('note_off', channel=1, note=44, velocity=0, time=44)
Message('note_off', channel=1, note=41, velocity=0, time=0)
Message('note_on', channel=1, note=47, velocity=120, time=4)
Message('note_on', channel=1, note=44, velocity=120, time=0)
Message('note_off', channel=1, note=44, velocity=0, time=22)
Message('note_off', channel=1, note=47, velocity=0, time=0)
Message('note_on', channel=1, note=45, velocity=120, time=2)
Message('note_on', channel=1, note=54, velocity=120, time=0)
Message('note_off', channel=1, note=54, velocity=0, time=68)
Message('note_off', channel=1, note=45, velocity=0, time=0)
Message('note_on', channel=1, note=45, velocity=120, time=4)
Message('note_on', channel=1, note=49, velocity=120, time=0)
Message('note_off', channel=1, note=49, velocity=0, time=68)
Message('note_off', channel=1, note=45, velocity=0, time=0)
Message('note_on', channel=1, note=42, velocity=120, time=4)
Message('note_on', channel=1, note=45, velocity=120, time=0)
Message('note_off', channel=1, note=45, velocity=0, time=44)
Message('note_off', channel=1, note=42, velocity=0, time=0)
Message('note_on', channel=1, note=47, velocity=120, time=4)
Message('note_on', channel=1, note=52, velocity=120, time=0)
Message('note_off', channel=1, note=52, velocity=0, time=68)
Message('note_off', channel=1, note=47, velocity=0, time=0)
Message('note_on', channel=1, note=47, velocity=120, time=4)
Message('note_on', channel=1, note=44, velocity=120, time=0)
Message('note_off', channel=1, note=44, velocity=0, time=68)
Message('note_off', channel=1, note=47, velocity=0, time=0)
Message('note_on', channel=1, note=44, velocity=120, time=4)
Message('note_on', channel=1, note=40, velocity=120, time=0)
Message('note_off', channel=1, note=44, velocity=0, time=44)
Message('note_off', channel=1, note=40, velocity=0, time=0)
Message('note_on', channel=1, note=45, velocity=120, time=4)
Message('note_on', channel=1, note=38, velocity=120, time=0)
Message('note_off', channel=1, note=38, velocity=0, time=92)
Message('note_off', channel=1, note=45, velocity=0, time=0)
Message('note_on', channel=1, note=33, velocity=120, time=4)
Message('note_off', channel=1, note=33, velocity=0, time=22)
Message('note_on', channel=1, note=42, velocity=120, time=2)
Message('note_on', channel=1, note=38, velocity=120, time=0)
Message('note_off', channel=1, note=38, velocity=0, time=22)
Message('note_off', channel=1, note=42, velocity=0, time=0)
Message('note_on', channel=1, note=38, velocity=120, time=2)
Message('note_on', channel=1, note=45, velocity=120, time=0)
Message('note_off', channel=1, note=45, velocity=0, time=44)
Message('note_off', channel=1, note=38, velocity=0, time=0)
Message('note_on', channel=1, note=40, velocity=120, time=4)
Message('note_on', channel=1, note=47, velocity=120, time=0)
Message('note_off', channel=1, note=47, velocity=0, time=92)
Message('note_off', channel=1, note=40, velocity=0, time=0)
Message('note_on', channel=1, note=35, velocity=120, time=4)
Message('note_off', channel=1, note=35, velocity=0, time=22)
Message('note_on', channel=1, note=44, velocity=120, time=2)
Message('note_on', channel=1, note=47, velocity=120, time=0)
Message('note_off', channel=1, note=47, velocity=0, time=44)
Message('note_off', channel=1, note=44, velocity=0, time=0)
Message('note_on', channel=1, note=47, velocity=120, time=4)
Message('note_on', channel=1, note=52, velocity=120, time=0)
Message('note_off', channel=1, note=52, velocity=0, time=22)
Message('note_off', channel=1, note=47, velocity=0, time=0)
Message('note_on', channel=1, note=42, velocity=120, time=2)
Message('note_on', channel=1, note=49, velocity=120, time=0)
Message('note_off', channel=1, note=49, velocity=0, time=68)
Message('note_off', channel=1, note=42, velocity=0, time=0)
Message('note_on', channel=1, note=49, velocity=120, time=4)
Message('note_on', channel=1, note=42, velocity=120, time=0)
Message('note_off', channel=1, note=42, velocity=0, time=68)
Message('note_off', channel=1, note=49, velocity=0, time=0)
Message('note_on', channel=1, note=45, velocity=120, time=4)
Message('note_on', channel=1, note=54, velocity=120, time=0)
Message('note_off', channel=1, note=54, velocity=0, time=44)
Message('note_off', channel=1, note=45, velocity=0, time=0)
Message('note_on', channel=1, note=45, velocity=120, time=4)
Message('note_on', channel=1, note=42, velocity=120, time=0)
Message('note_off', channel=1, note=45, velocity=0, time=68)
Message('note_off', channel=1, note=42, velocity=0, time=0)
Message('note_on', channel=1, note=45, velocity=120, time=4)
Message('note_on', channel=1, note=42, velocity=120, time=0)
Message('note_off', channel=1, note=42, velocity=0, time=68)
Message('note_off', channel=1, note=45, velocity=0, time=0)
Message('note_on', channel=1, note=49, velocity=120, time=4)
Message('note_on', channel=1, note=57, velocity=120, time=0)
Message('note_off', channel=1, note=57, velocity=0, time=44)
Message('note_off', channel=1, note=49, velocity=0, time=0)
Message('note_on', channel=1, note=45, velocity=120, time=4)
Message('note_on', channel=1, note=38, velocity=120, time=0)
Message('note_off', channel=1, note=38, velocity=0, time=92)
Message('note_off', channel=1, note=45, velocity=0, time=0)
Message('note_on', channel=1, note=33, velocity=120, time=4)
Message('note_off', channel=1, note=33, velocity=0, time=22)
Message('note_on', channel=1, note=38, velocity=120, time=2)
Message('note_on', channel=1, note=42, velocity=120, time=0)
Message('note_off', channel=1, note=38, velocity=0, time=22)
Message('note_off', channel=1, note=42, velocity=0, time=0)
Message('note_on', channel=1, note=45, velocity=120, time=2)
Message('note_on', channel=1, note=38, velocity=120, time=0)
Message('note_off', channel=1, note=38, velocity=0, time=44)
Message('note_off', channel=1, note=45, velocity=0, time=0)
Message('note_on', channel=1, note=40, velocity=120, time=4)
Message('note_on', channel=1, note=47, velocity=120, time=0)
Message('note_off', channel=1, note=47, velocity=0, time=92)
Message('note_off', channel=1, note=40, velocity=0, time=0)
Message('note_on', channel=1, note=44, velocity=120, time=4)
Message('note_off', channel=1, note=44, velocity=0, time=22)
Message('note_on', channel=1, note=44, velocity=120, time=2)
Message('note_on', channel=1, note=47, velocity=120, time=0)
Message('note_off', channel=1, note=47, velocity=0, time=44)
Message('note_on', channel=1, note=52, velocity=120, time=4)
Message('note_on', channel=1, note=56, velocity=120, time=0)
Message('note_off', channel=1, note=56, velocity=0, time=22)
Message('note_off', channel=1, note=52, velocity=0, time=0)
Message('note_on', channel=1, note=42, velocity=120, time=2)
Message('note_on', channel=1, note=49, velocity=120, time=0)
Message('note_off', channel=1, note=44, velocity=0, time=20)
Message('note_off', channel=1, note=49, velocity=0, time=48)
Message('note_off', channel=1, note=42, velocity=0, time=0)
Message('note_on', channel=1, note=49, velocity=120, time=4)
Message('note_on', channel=1, note=42, velocity=120, time=0)
Message('note_off', channel=1, note=42, velocity=0, time=68)
Message('note_off', channel=1, note=49, velocity=0, time=0)
Message('note_on', channel=1, note=54, velocity=120, time=4)
Message('note_on', channel=1, note=45, velocity=120, time=0)
Message('note_off', channel=1, note=45, velocity=0, time=44)
Message('note_off', channel=1, note=54, velocity=0, time=0)
Message('note_on', channel=1, note=49, velocity=120, time=4)
Message('note_on', channel=1, note=57, velocity=120, time=0)
Message('note_off', channel=1, note=49, velocity=0, time=68)
Message('note_off', channel=1, note=57, velocity=0, time=0)
Message('note_on', channel=1, note=49, velocity=120, time=4)
Message('note_on', channel=1, note=45, velocity=120, time=0)
Message('note_off', channel=1, note=45, velocity=0, time=68)
Message('note_off', channel=1, note=49, velocity=0, time=0)
Message('note_on', channel=1, note=57, velocity=120, time=4)
Message('note_on', channel=1, note=49, velocity=120, time=0)
Message('note_off', channel=1, note=57, velocity=0, time=44)
Message('note_off', channel=1, note=49, velocity=0, time=0)
Message('note_on', channel=1, note=45, velocity=120, time=4)
Message('note_on', channel=1, note=38, velocity=120, time=0)
Message('note_off', channel=1, note=38, velocity=0, time=92)
Message('note_off', channel=1, note=45, velocity=0, time=0)
Message('note_on', channel=1, note=33, velocity=120, time=4)
Message('note_off', channel=1, note=33, velocity=0, time=22)
Message('note_on', channel=1, note=42, velocity=120, time=2)
Message('note_on', channel=1, note=38, velocity=120, time=0)
Message('note_off', channel=1, note=38, velocity=0, time=22)
Message('note_off', channel=1, note=42, velocity=0, time=0)
Message('note_on', channel=1, note=38, velocity=120, time=2)
Message('note_on', channel=1, note=45, velocity=120, time=0)
Message('note_off', channel=1, note=45, velocity=0, time=44)
Message('note_off', channel=1, note=38, velocity=0, time=0)
Message('note_on', channel=1, note=40, velocity=120, time=4)
Message('note_on', channel=1, note=47, velocity=120, time=0)
Message('note_off', channel=1, note=47, velocity=0, time=92)
Message('note_off', channel=1, note=40, velocity=0, time=0)
Message('note_on', channel=1, note=35, velocity=120, time=4)
Message('note_off', channel=1, note=35, velocity=0, time=22)
Message('note_on', channel=1, note=44, velocity=120, time=2)
Message('note_on', channel=1, note=47, velocity=120, time=0)
Message('note_off', channel=1, note=47, velocity=0, time=44)
Message('note_off', channel=1, note=44, velocity=0, time=0)
Message('note_on', channel=1, note=47, velocity=120, time=4)
Message('note_on', channel=1, note=52, velocity=120, time=0)
Message('note_off', channel=1, note=52, velocity=0, time=22)
Message('note_off', channel=1, note=47, velocity=0, time=0)
Message('note_on', channel=1, note=42, velocity=120, time=2)
Message('note_on', channel=1, note=49, velocity=120, time=0)
Message('note_off', channel=1, note=49, velocity=0, time=68)
Message('note_off', channel=1, note=42, velocity=0, time=0)
Message('note_on', channel=1, note=49, velocity=120, time=4)
Message('note_on', channel=1, note=42, velocity=120, time=0)
Message('note_off', channel=1, note=42, velocity=0, time=68)
Message('note_off', channel=1, note=49, velocity=0, time=0)
Message('note_on', channel=1, note=54, velocity=120, time=4)
Message('note_on', channel=1, note=45, velocity=120, time=0)
Message('note_off', channel=1, note=45, velocity=0, time=44)
Message('note_off', channel=1, note=54, velocity=0, time=0)
Message('note_on', channel=1, note=42, velocity=120, time=4)
Message('note_on', channel=1, note=45, velocity=120, time=0)
Message('note_off', channel=1, note=45, velocity=0, time=68)
Message('note_off', channel=1, note=42, velocity=0, time=0)
Message('note_on', channel=1, note=45, velocity=120, time=4)
Message('note_on', channel=1, note=42, velocity=120, time=0)
Message('note_off', channel=1, note=42, velocity=0, time=68)
Message('note_off', channel=1, note=45, velocity=0, time=0)
Message('note_on', channel=1, note=57, velocity=120, time=4)
Message('note_on', channel=1, note=49, velocity=120, time=0)
Message('note_off', channel=1, note=49, velocity=0, time=44)
Message('note_off', channel=1, note=57, velocity=0, time=0)
Message('note_on', channel=1, note=45, velocity=120, time=4)
Message('note_on', channel=1, note=38, velocity=120, time=0)
Message('note_off', channel=1, note=38, velocity=0, time=92)
Message('note_off', channel=1, note=45, velocity=0, time=0)
Message('note_on', channel=1, note=33, velocity=120, time=4)
Message('note_off', channel=1, note=33, velocity=0, time=22)
Message('note_on', channel=1, note=42, velocity=120, time=2)
Message('note_on', channel=1, note=38, velocity=120, time=0)
Message('note_off', channel=1, note=38, velocity=0, time=22)
Message('note_off', channel=1, note=42, velocity=0, time=0)
Message('note_on', channel=1, note=38, velocity=120, time=2)
Message('note_on', channel=1, note=45, velocity=120, time=0)
Message('note_off', channel=1, note=45, velocity=0, time=44)
Message('note_off', channel=1, note=38, velocity=0, time=0)
Message('note_on', channel=1, note=41, velocity=120, time=4)
Message('note_on', channel=1, note=47, velocity=120, time=0)
Message('note_off', channel=1, note=47, velocity=0, time=92)
Message('note_off', channel=1, note=41, velocity=0, time=0)
Message('note_on', channel=1, note=41, velocity=120, time=4)
Message('note_off', channel=1, note=41, velocity=0, time=22)
Message('note_on', channel=1, note=41, velocity=120, time=2)
Message('note_on', channel=1, note=44, velocity=120, time=0)
Message('note_off', channel=1, note=44, velocity=0, time=44)
Message('note_off', channel=1, note=41, velocity=0, time=0)
Message('note_on', channel=1, note=47, velocity=120, time=4)
Message('note_on', channel=1, note=44, velocity=120, time=0)
Message('note_off', channel=1, note=44, velocity=0, time=22)
Message('note_off', channel=1, note=47, velocity=0, time=0)
Message('note_on', channel=1, note=45, velocity=120, time=2)
Message('note_on', channel=1, note=54, velocity=120, time=0)
Message('note_off', channel=1, note=54, velocity=0, time=68)
Message('note_off', channel=1, note=45, velocity=0, time=0)
Message('note_on', channel=1, note=45, velocity=120, time=4)
Message('note_on', channel=1, note=49, velocity=120, time=0)
Message('note_off', channel=1, note=49, velocity=0, time=68)
Message('note_off', channel=1, note=45, velocity=0, time=0)
Message('note_on', channel=1, note=42, velocity=120, time=4)
Message('note_on', channel=1, note=45, velocity=120, time=0)
Message('note_off', channel=1, note=45, velocity=0, time=44)
Message('note_off', channel=1, note=42, velocity=0, time=0)
Message('note_on', channel=1, note=47, velocity=120, time=4)
Message('note_on', channel=1, note=52, velocity=120, time=0)
Message('note_off', channel=1, note=52, velocity=0, time=68)
Message('note_off', channel=1, note=47, velocity=0, time=0)
Message('note_on', channel=1, note=47, velocity=120, time=4)
Message('note_on', channel=1, note=44, velocity=120, time=0)
Message('note_off', channel=1, note=44, velocity=0, time=68)
Message('note_off', channel=1, note=47, velocity=0, time=0)
Message('note_on', channel=1, note=44, velocity=120, time=4)
Message('note_on', channel=1, note=40, velocity=120, time=0)
Message('note_off', channel=1, note=44, velocity=0, time=44)
Message('note_off', channel=1, note=40, velocity=0, time=0)
Message('note_on', channel=1, note=45, velocity=120, time=4)
Message('note_on', channel=1, note=38, velocity=120, time=0)
Message('note_off', channel=1, note=38, velocity=0, time=92)
Message('note_off', channel=1, note=45, velocity=0, time=0)
Message('note_on', channel=1, note=33, velocity=120, time=4)
Message('note_off', channel=1, note=33, velocity=0, time=22)
Message('note_on', channel=1, note=42, velocity=120, time=2)
Message('note_on', channel=1, note=38, velocity=120, time=0)
Message('note_off', channel=1, note=38, velocity=0, time=22)
Message('note_off', channel=1, note=42, velocity=0, time=0)
Message('note_on', channel=1, note=38, velocity=120, time=2)
Message('note_on', channel=1, note=45, velocity=120, time=0)
Message('note_off', channel=1, note=45, velocity=0, time=44)
Message('note_off', channel=1, note=38, velocity=0, time=0)
Message('note_on', channel=1, note=40, velocity=120, time=4)
Message('note_on', channel=1, note=47, velocity=120, time=0)
Message('note_off', channel=1, note=47, velocity=0, time=92)
Message('note_off', channel=1, note=40, velocity=0, time=0)
Message('note_on', channel=1, note=35, velocity=120, time=4)
Message('note_off', channel=1, note=35, velocity=0, time=22)
Message('note_on', channel=1, note=44, velocity=120, time=2)
Message('note_on', channel=1, note=47, velocity=120, time=0)
Message('note_off', channel=1, note=47, velocity=0, time=44)
Message('note_off', channel=1, note=44, velocity=0, time=0)
Message('note_on', channel=1, note=47, velocity=120, time=4)
Message('note_on', channel=1, note=52, velocity=120, time=0)
Message('note_off', channel=1, note=52, velocity=0, time=22)
Message('note_off', channel=1, note=47, velocity=0, time=0)
Message('note_on', channel=1, note=42, velocity=120, time=2)
Message('note_on', channel=1, note=49, velocity=120, time=0)
Message('note_off', channel=1, note=49, velocity=0, time=68)
Message('note_off', channel=1, note=42, velocity=0, time=0)
Message('note_on', channel=1, note=49, velocity=120, time=4)
Message('note_on', channel=1, note=42, velocity=120, time=0)
Message('note_off', channel=1, note=42, velocity=0, time=68)
Message('note_off', channel=1, note=49, velocity=0, time=0)
Message('note_on', channel=1, note=45, velocity=120, time=4)
Message('note_on', channel=1, note=54, velocity=120, time=0)
Message('note_off', channel=1, note=54, velocity=0, time=44)
Message('note_off', channel=1, note=45, velocity=0, time=0)
Message('note_on', channel=1, note=45, velocity=120, time=4)
Message('note_on', channel=1, note=42, velocity=120, time=0)
Message('note_off', channel=1, note=45, velocity=0, time=68)
Message('note_off', channel=1, note=42, velocity=0, time=0)
Message('note_on', channel=1, note=45, velocity=120, time=4)
Message('note_on', channel=1, note=42, velocity=120, time=0)
Message('note_off', channel=1, note=42, velocity=0, time=68)
Message('note_off', channel=1, note=45, velocity=0, time=0)
Message('note_on', channel=1, note=49, velocity=120, time=4)
Message('note_on', channel=1, note=57, velocity=120, time=0)
Message('note_off', channel=1, note=57, velocity=0, time=44)
Message('note_off', channel=1, note=49, velocity=0, time=0)
Message('note_on', channel=1, note=45, velocity=120, time=4)
Message('note_on', channel=1, note=38, velocity=120, time=0)
Message('note_off', channel=1, note=38, velocity=0, time=92)
Message('note_off', channel=1, note=45, velocity=0, time=0)
Message('note_on', channel=1, note=33, velocity=120, time=4)
Message('note_off', channel=1, note=33, velocity=0, time=22)
Message('note_on', channel=1, note=38, velocity=120, time=2)
Message('note_on', channel=1, note=42, velocity=120, time=0)
Message('note_off', channel=1, note=38, velocity=0, time=22)
Message('note_off', channel=1, note=42, velocity=0, time=0)
Message('note_on', channel=1, note=45, velocity=120, time=2)
Message('note_on', channel=1, note=38, velocity=120, time=0)
Message('note_off', channel=1, note=38, velocity=0, time=44)
Message('note_off', channel=1, note=45, velocity=0, time=0)
Message('note_on', channel=1, note=40, velocity=120, time=4)
Message('note_on', channel=1, note=47, velocity=120, time=0)
Message('note_off', channel=1, note=47, velocity=0, time=92)
Message('note_off', channel=1, note=40, velocity=0, time=0)
Message('note_on', channel=1, note=44, velocity=120, time=4)
Message('note_off', channel=1, note=44, velocity=0, time=22)
Message('note_on', channel=1, note=44, velocity=120, time=2)
Message('note_on', channel=1, note=47, velocity=120, time=0)
Message('note_off', channel=1, note=47, velocity=0, time=44)
Message('note_on', channel=1, note=52, velocity=120, time=4)
Message('note_on', channel=1, note=56, velocity=120, time=0)
Message('note_off', channel=1, note=56, velocity=0, time=22)
Message('note_off', channel=1, note=52, velocity=0, time=0)
Message('note_on', channel=1, note=42, velocity=120, time=2)
Message('note_on', channel=1, note=49, velocity=120, time=0)
Message('note_off', channel=1, note=44, velocity=0, time=20)
Message('note_off', channel=1, note=49, velocity=0, time=48)
Message('note_off', channel=1, note=42, velocity=0, time=0)
Message('note_on', channel=1, note=49, velocity=120, time=4)
Message('note_on', channel=1, note=42, velocity=120, time=0)
Message('note_off', channel=1, note=42, velocity=0, time=68)
Message('note_off', channel=1, note=49, velocity=0, time=0)
Message('note_on', channel=1, note=54, velocity=120, time=4)
Message('note_on', channel=1, note=45, velocity=120, time=0)
Message('note_off', channel=1, note=45, velocity=0, time=44)
Message('note_off', channel=1, note=54, velocity=0, time=0)
Message('note_on', channel=1, note=49, velocity=120, time=4)
Message('note_on', channel=1, note=57, velocity=120, time=0)
Message('note_off', channel=1, note=57, velocity=0, time=68)
Message('note_off', channel=1, note=49, velocity=0, time=0)
Message('note_on', channel=1, note=45, velocity=120, time=4)
Message('note_on', channel=1, note=49, velocity=120, time=0)
Message('note_off', channel=1, note=49, velocity=0, time=68)
Message('note_off', channel=1, note=45, velocity=0, time=0)
Message('note_on', channel=1, note=49, velocity=120, time=4)
Message('note_on', channel=1, note=57, velocity=120, time=0)
Message('note_off', channel=1, note=57, velocity=0, time=44)
Message('note_off', channel=1, note=49, velocity=0, time=0)
Message('control_change', channel=1, control=101, value=0, time=388)
Message('control_change', channel=1, control=100, value=0, time=0)
Message('control_change', channel=1, control=6, value=12, time=0)
Message('control_change', channel=1, control=10, value=70, time=0)
Message('control_change', channel=1, control=7, value=102, time=0)
Message('pitchwheel', channel=1, pitch=0, time=0)
Message('program_change', channel=1, program=36, time=0)
Message('control_change', channel=1, control=91, value=0, time=0)
Message('control_change', channel=1, control=93, value=0, time=0)
Message('control_change', channel=1, control=101, value=0, time=1)
Message('control_change', channel=1, control=100, value=0, time=0)
Message('control_change', channel=1, control=6, value=12, time=0)
Message('control_change', channel=1, control=10, value=70, time=0)
Message('control_change', channel=1, control=7, value=102, time=0)
Message('pitchwheel', channel=1, pitch=0, time=0)
Message('program_change', channel=1, program=36, time=0)
Message('control_change', channel=1, control=91, value=0, time=0)
Message('control_change', channel=1, control=93, value=0, time=0)
Message('control_change', channel=1, control=101, value=0, time=0)
Message('control_change', channel=1, control=100, value=0, time=0)
Message('control_change', channel=1, control=6, value=12, time=0)
Message('control_change', channel=1, control=10, value=70, time=0)
Message('control_change', channel=1, control=7, value=102, time=0)
Message('pitchwheel', channel=1, pitch=0, time=0)
Message('program_change', channel=1, program=36, time=0)
Message('control_change', channel=1, control=91, value=0, time=0)
Message('control_change', channel=1, control=93, value=0, time=0)
MetaMessage('end_of_track', time=0)
=== Track 4
MetaMessage('track_name', name='Channel #3', time=0)
Message('control_change', channel=2, control=10, value=72, time=0)
Message('control_change', channel=2, control=7, value=92, time=0)
Message('pitchwheel', channel=2, pitch=0, time=0)
Message('control_change', channel=2, control=101, value=0, time=0)
Message('control_change', channel=2, control=100, value=0, time=0)
Message('control_change', channel=2, control=6, value=12, time=0)
Message('control_change', channel=2, control=10, value=72, time=0)
Message('control_change', channel=2, control=7, value=92, time=0)
Message('pitchwheel', channel=2, pitch=0, time=0)
Message('program_change', channel=2, program=110, time=0)
Message('control_change', channel=2, control=91, value=60, time=0)
Message('control_change', channel=2, control=93, value=30, time=0)
Message('control_change', channel=2, control=101, value=0, time=0)
Message('control_change', channel=2, control=100, value=0, time=0)
Message('control_change', channel=2, control=6, value=12, time=0)
Message('control_change', channel=2, control=10, value=72, time=0)
Message('control_change', channel=2, control=7, value=92, time=0)
Message('pitchwheel', channel=2, pitch=0, time=0)
Message('program_change', channel=2, program=110, time=0)
Message('control_change', channel=2, control=91, value=60, time=0)
Message('control_change', channel=2, control=93, value=30, time=0)
Message('control_change', channel=2, control=10, value=72, time=0)
Message('control_change', channel=2, control=7, value=92, time=0)
Message('pitchwheel', channel=2, pitch=0, time=0)
Message('program_change', channel=2, program=110, time=0)
Message('control_change', channel=2, control=91, value=60, time=0)
Message('control_change', channel=2, control=93, value=30, time=0)
Message('control_change', channel=2, control=101, value=0, time=0)
Message('control_change', channel=2, control=100, value=0, time=0)
Message('control_change', channel=2, control=6, value=12, time=0)
Message('control_change', channel=2, control=10, value=72, time=0)
Message('control_change', channel=2, control=7, value=92, time=0)
Message('pitchwheel', channel=2, pitch=0, time=0)
Message('program_change', channel=2, program=110, time=0)
Message('control_change', channel=2, control=91, value=60, time=0)
Message('control_change', channel=2, control=93, value=30, time=0)
Message('control_change', channel=2, control=10, value=72, time=0)
Message('control_change', channel=2, control=7, value=92, time=0)
Message('pitchwheel', channel=2, pitch=0, time=0)
Message('program_change', channel=2, program=110, time=0)
Message('control_change', channel=2, control=91, value=60, time=0)
Message('control_change', channel=2, control=93, value=30, time=0)
Message('control_change', channel=2, control=7, value=91, time=346)
Message('note_on', channel=2, note=66, velocity=100, time=38)
Message('control_change', channel=2, control=7, value=92, time=28)
Message('note_off', channel=2, note=66, velocity=0, time=106)
Message('note_on', channel=2, note=78, velocity=100, time=10)
Message('note_off', channel=2, note=78, velocity=0, time=44)
Message('note_on', channel=2, note=76, velocity=100, time=4)
Message('note_off', channel=2, note=76, velocity=0, time=68)
Message('note_on', channel=2, note=81, velocity=80, time=4)
Message('note_off', channel=2, note=81, velocity=0, time=68)
Message('note_on', channel=2, note=80, velocity=100, time=4)
Message('note_off', channel=2, note=80, velocity=0, time=44)
Message('note_on', channel=2, note=76, velocity=100, time=4)
Message('note_off', channel=2, note=76, velocity=0, time=34)
Message('note_on', channel=2, note=73, velocity=80, time=14)
Message('note_off', channel=2, note=73, velocity=0, time=34)
Message('note_on', channel=2, note=76, velocity=100, time=14)
Message('note_off', channel=2, note=76, velocity=0, time=44)
Message('note_on', channel=2, note=76, velocity=90, time=4)
Message('note_off', channel=2, note=76, velocity=0, time=22)
Message('note_on', channel=2, note=78, velocity=110, time=2)
Message('note_off', channel=2, note=78, velocity=0, time=206)
Message('note_on', channel=2, note=66, velocity=100, time=10)
Message('note_off', channel=2, note=66, velocity=0, time=134)
Message('note_on', channel=2, note=78, velocity=80, time=10)
Message('note_off', channel=2, note=78, velocity=0, time=44)
Message('note_on', channel=2, note=77, velocity=100, time=4)
Message('note_off', channel=2, note=77, velocity=0, time=68)
Message('note_on', channel=2, note=78, velocity=80, time=4)
Message('note_off', channel=2, note=78, velocity=0, time=68)
Message('note_on', channel=2, note=80, velocity=90, time=4)
Message('note_on', channel=2, note=73, velocity=100, time=48)
Message('note_off', channel=2, note=80, velocity=0, time=10)
Message('note_off', channel=2, note=73, velocity=0, time=368)
Message('note_on', channel=2, note=66, velocity=100, time=6)
Message('note_off', channel=2, note=66, velocity=0, time=134)
Message('note_on', channel=2, note=78, velocity=100, time=10)
Message('note_off', channel=2, note=78, velocity=0, time=44)
Message('note_on', channel=2, note=76, velocity=100, time=4)
Message('note_off', channel=2, note=76, velocity=0, time=68)
Message('note_on', channel=2, note=78, velocity=80, time=4)
Message('note_off', channel=2, note=78, velocity=0, time=68)
Message('note_on', channel=2, note=80, velocity=100, time=4)
Message('note_off', channel=2, note=80, velocity=0, time=44)
Message('note_on', channel=2, note=81, velocity=100, time=4)
Message('note_off', channel=2, note=81, velocity=0, time=34)
Message('note_on', channel=2, note=73, velocity=80, time=14)
Message('note_off', channel=2, note=73, velocity=0, time=34)
Message('note_on', channel=2, note=80, velocity=100, time=14)
Message('note_off', channel=2, note=80, velocity=0, time=44)
Message('note_on', channel=2, note=80, velocity=90, time=4)
Message('note_off', channel=2, note=80, velocity=0, time=22)
Message('note_on', channel=2, note=81, velocity=90, time=2)
Message('note_off', channel=2, note=81, velocity=0, time=116)
Message('note_on', channel=2, note=83, velocity=90, time=4)
Message('note_off', channel=2, note=83, velocity=0, time=92)
Message('note_on', channel=2, note=85, velocity=100, time=4)
Message('note_off', channel=2, note=85, velocity=0, time=44)
Message('note_on', channel=2, note=78, velocity=90, time=4)
Message('note_off', channel=2, note=78, velocity=0, time=34)
Message('note_on', channel=2, note=80, velocity=100, time=62)
Message('note_off', channel=2, note=80, velocity=0, time=22)
Message('note_on', channel=2, note=81, velocity=90, time=2)
Message('note_off', channel=2, note=81, velocity=0, time=22)
Message('note_on', channel=2, note=80, velocity=100, time=2)
Message('note_off', channel=2, note=80, velocity=0, time=68)
Message('note_on', channel=2, note=76, velocity=80, time=4)
Message('note_off', channel=2, note=76, velocity=0, time=68)
Message('note_on', channel=2, note=73, velocity=90, time=4)
Message('note_off', channel=2, note=73, velocity=0, time=44)
Message('note_on', channel=2, note=76, velocity=100, time=4)
Message('note_off', channel=2, note=76, velocity=0, time=34)
Message('note_on', channel=2, note=73, velocity=80, time=14)
Message('note_off', channel=2, note=73, velocity=0, time=34)
Message('note_on', channel=2, note=76, velocity=100, time=14)
Message('note_off', channel=2, note=76, velocity=0, time=44)
Message('note_on', channel=2, note=76, velocity=90, time=4)
Message('note_off', channel=2, note=76, velocity=0, time=22)
Message('note_on', channel=2, note=78, velocity=110, time=2)
Message('note_off', channel=2, note=78, velocity=0, time=206)
Message('note_on', channel=2, note=66, velocity=120, time=10)
Message('note_off', channel=2, note=66, velocity=0, time=134)
Message('note_on', channel=2, note=78, velocity=120, time=10)
Message('note_off', channel=2, note=78, velocity=0, time=44)
Message('note_on', channel=2, note=76, velocity=120, time=4)
Message('note_off', channel=2, note=76, velocity=0, time=68)
Message('note_on', channel=2, note=81, velocity=100, time=4)
Message('note_off', channel=2, note=81, velocity=0, time=68)
Message('note_on', channel=2, note=80, velocity=120, time=4)
Message('note_off', channel=2, note=80, velocity=0, time=44)
Message('note_on', channel=2, note=76, velocity=120, time=4)
Message('note_off', channel=2, note=76, velocity=0, time=34)
Message('note_on', channel=2, note=73, velocity=100, time=14)
Message('note_off', channel=2, note=73, velocity=0, time=34)
Message('note_on', channel=2, note=76, velocity=120, time=14)
Message('note_off', channel=2, note=76, velocity=0, time=44)
Message('note_on', channel=2, note=76, velocity=110, time=4)
Message('note_off', channel=2, note=76, velocity=0, time=22)
Message('note_on', channel=2, note=78, velocity=127, time=2)
Message('note_off', channel=2, note=78, velocity=0, time=206)
Message('note_on', channel=2, note=66, velocity=120, time=10)
Message('note_off', channel=2, note=66, velocity=0, time=134)
Message('note_on', channel=2, note=78, velocity=100, time=10)
Message('note_off', channel=2, note=78, velocity=0, time=44)
Message('note_on', channel=2, note=77, velocity=120, time=4)
Message('note_off', channel=2, note=77, velocity=0, time=68)
Message('note_on', channel=2, note=78, velocity=100, time=4)
Message('note_off', channel=2, note=78, velocity=0, time=68)
Message('note_on', channel=2, note=80, velocity=110, time=4)
Message('note_on', channel=2, note=73, velocity=120, time=48)
Message('note_off', channel=2, note=80, velocity=0, time=10)
Message('note_off', channel=2, note=73, velocity=0, time=368)
Message('note_on', channel=2, note=66, velocity=120, time=6)
Message('note_off', channel=2, note=66, velocity=0, time=134)
Message('note_on', channel=2, note=78, velocity=120, time=10)
Message('note_off', channel=2, note=78, velocity=0, time=44)
Message('note_on', channel=2, note=76, velocity=120, time=4)
Message('note_off', channel=2, note=76, velocity=0, time=68)
Message('note_on', channel=2, note=78, velocity=100, time=4)
Message('note_off', channel=2, note=78, velocity=0, time=68)
Message('note_on', channel=2, note=80, velocity=120, time=4)
Message('note_off', channel=2, note=80, velocity=0, time=44)
Message('note_on', channel=2, note=81, velocity=120, time=4)
Message('note_off', channel=2, note=81, velocity=0, time=34)
Message('note_on', channel=2, note=73, velocity=100, time=14)
Message('note_off', channel=2, note=73, velocity=0, time=34)
Message('note_on', channel=2, note=80, velocity=120, time=14)
Message('note_off', channel=2, note=80, velocity=0, time=44)
Message('note_on', channel=2, note=80, velocity=110, time=4)
Message('note_off', channel=2, note=80, velocity=0, time=22)
Message('note_on', channel=2, note=81, velocity=110, time=2)
Message('note_off', channel=2, note=81, velocity=0, time=116)
Message('note_on', channel=2, note=83, velocity=110, time=4)
Message('note_off', channel=2, note=83, velocity=0, time=92)
Message('note_on', channel=2, note=85, velocity=120, time=4)
Message('note_off', channel=2, note=85, velocity=0, time=44)
Message('note_on', channel=2, note=78, velocity=110, time=4)
Message('note_off', channel=2, note=78, velocity=0, time=34)
Message('note_on', channel=2, note=80, velocity=120, time=62)
Message('note_off', channel=2, note=80, velocity=0, time=22)
Message('note_on', channel=2, note=81, velocity=110, time=2)
Message('note_off', channel=2, note=81, velocity=0, time=22)
Message('note_on', channel=2, note=80, velocity=120, time=2)
Message('note_off', channel=2, note=80, velocity=0, time=68)
Message('note_on', channel=2, note=76, velocity=100, time=4)
Message('note_off', channel=2, note=76, velocity=0, time=68)
Message('note_on', channel=2, note=73, velocity=110, time=4)
Message('note_off', channel=2, note=73, velocity=0, time=44)
Message('note_on', channel=2, note=76, velocity=120, time=4)
Message('note_off', channel=2, note=76, velocity=0, time=34)
Message('note_on', channel=2, note=73, velocity=100, time=14)
Message('note_off', channel=2, note=73, velocity=0, time=34)
Message('note_on', channel=2, note=76, velocity=120, time=14)
Message('note_off', channel=2, note=76, velocity=0, time=44)
Message('note_on', channel=2, note=76, velocity=110, time=4)
Message('note_off', channel=2, note=76, velocity=0, time=22)
Message('note_on', channel=2, note=78, velocity=127, time=2)
Message('note_off', channel=2, note=78, velocity=0, time=206)
Message('note_on', channel=2, note=66, velocity=120, time=10)
Message('note_off', channel=2, note=66, velocity=0, time=134)
Message('note_on', channel=2, note=78, velocity=120, time=10)
Message('note_off', channel=2, note=78, velocity=0, time=44)
Message('note_on', channel=2, note=76, velocity=120, time=4)
Message('note_off', channel=2, note=76, velocity=0, time=68)
Message('note_on', channel=2, note=81, velocity=100, time=4)
Message('note_off', channel=2, note=81, velocity=0, time=68)
Message('note_on', channel=2, note=80, velocity=120, time=4)
Message('note_off', channel=2, note=80, velocity=0, time=44)
Message('note_on', channel=2, note=76, velocity=120, time=4)
Message('note_off', channel=2, note=76, velocity=0, time=34)
Message('note_on', channel=2, note=73, velocity=100, time=14)
Message('note_off', channel=2, note=73, velocity=0, time=34)
Message('note_on', channel=2, note=76, velocity=120, time=14)
Message('note_off', channel=2, note=76, velocity=0, time=44)
Message('note_on', channel=2, note=76, velocity=110, time=4)
Message('note_off', channel=2, note=76, velocity=0, time=22)
Message('note_on', channel=2, note=78, velocity=127, time=2)
Message('note_off', channel=2, note=78, velocity=0, time=206)
Message('note_on', channel=2, note=66, velocity=120, time=10)
Message('note_off', channel=2, note=66, velocity=0, time=134)
Message('note_on', channel=2, note=78, velocity=100, time=10)
Message('note_off', channel=2, note=78, velocity=0, time=44)
Message('note_on', channel=2, note=77, velocity=120, time=4)
Message('note_off', channel=2, note=77, velocity=0, time=68)
Message('note_on', channel=2, note=78, velocity=100, time=4)
Message('note_off', channel=2, note=78, velocity=0, time=68)
Message('note_on', channel=2, note=80, velocity=110, time=4)
Message('note_on', channel=2, note=73, velocity=120, time=48)
Message('note_off', channel=2, note=80, velocity=0, time=10)
Message('note_off', channel=2, note=73, velocity=0, time=368)
Message('note_on', channel=2, note=66, velocity=120, time=6)
Message('note_off', channel=2, note=66, velocity=0, time=134)
Message('note_on', channel=2, note=78, velocity=120, time=10)
Message('note_off', channel=2, note=78, velocity=0, time=44)
Message('note_on', channel=2, note=76, velocity=120, time=4)
Message('note_off', channel=2, note=76, velocity=0, time=68)
Message('note_on', channel=2, note=78, velocity=100, time=4)
Message('note_off', channel=2, note=78, velocity=0, time=68)
Message('note_on', channel=2, note=80, velocity=120, time=4)
Message('note_off', channel=2, note=80, velocity=0, time=44)
Message('note_on', channel=2, note=81, velocity=120, time=4)
Message('note_off', channel=2, note=81, velocity=0, time=34)
Message('note_on', channel=2, note=73, velocity=100, time=14)
Message('note_off', channel=2, note=73, velocity=0, time=34)
Message('note_on', channel=2, note=80, velocity=120, time=14)
Message('note_off', channel=2, note=80, velocity=0, time=44)
Message('note_on', channel=2, note=80, velocity=110, time=4)
Message('note_off', channel=2, note=80, velocity=0, time=22)
Message('note_on', channel=2, note=81, velocity=110, time=2)
Message('note_off', channel=2, note=81, velocity=0, time=116)
Message('note_on', channel=2, note=83, velocity=110, time=4)
Message('note_off', channel=2, note=83, velocity=0, time=92)
Message('note_on', channel=2, note=85, velocity=120, time=4)
Message('note_off', channel=2, note=85, velocity=0, time=44)
Message('note_on', channel=2, note=78, velocity=110, time=4)
Message('note_off', channel=2, note=78, velocity=0, time=34)
Message('note_on', channel=2, note=80, velocity=120, time=62)
Message('note_off', channel=2, note=80, velocity=0, time=22)
Message('note_on', channel=2, note=81, velocity=110, time=2)
Message('note_off', channel=2, note=81, velocity=0, time=22)
Message('note_on', channel=2, note=80, velocity=120, time=2)
Message('note_off', channel=2, note=80, velocity=0, time=68)
Message('note_on', channel=2, note=76, velocity=100, time=4)
Message('note_off', channel=2, note=76, velocity=0, time=68)
Message('note_on', channel=2, note=73, velocity=110, time=4)
Message('note_off', channel=2, note=73, velocity=0, time=44)
Message('note_on', channel=2, note=76, velocity=120, time=4)
Message('note_off', channel=2, note=76, velocity=0, time=34)
Message('note_on', channel=2, note=73, velocity=100, time=14)
Message('note_off', channel=2, note=73, velocity=0, time=34)
Message('note_on', channel=2, note=76, velocity=120, time=14)
Message('note_off', channel=2, note=76, velocity=0, time=44)
Message('note_on', channel=2, note=76, velocity=110, time=4)
Message('note_off', channel=2, note=76, velocity=0, time=22)
Message('note_on', channel=2, note=78, velocity=127, time=2)
Message('note_off', channel=2, note=78, velocity=0, time=206)
Message('note_on', channel=2, note=54, velocity=120, time=6154)
Message('note_off', channel=2, note=54, velocity=0, time=134)
Message('note_on', channel=2, note=66, velocity=120, time=10)
Message('note_off', channel=2, note=66, velocity=0, time=44)
Message('note_on', channel=2, note=64, velocity=120, time=4)
Message('note_off', channel=2, note=64, velocity=0, time=68)
Message('note_on', channel=2, note=69, velocity=100, time=4)
Message('note_off', channel=2, note=69, velocity=0, time=68)
Message('note_on', channel=2, note=68, velocity=120, time=4)
Message('note_off', channel=2, note=68, velocity=0, time=44)
Message('note_on', channel=2, note=64, velocity=120, time=4)
Message('note_off', channel=2, note=64, velocity=0, time=34)
Message('note_on', channel=2, note=61, velocity=100, time=14)
Message('note_off', channel=2, note=61, velocity=0, time=34)
Message('note_on', channel=2, note=64, velocity=120, time=14)
Message('note_off', channel=2, note=64, velocity=0, time=44)
Message('note_on', channel=2, note=64, velocity=110, time=4)
Message('note_off', channel=2, note=64, velocity=0, time=22)
Message('note_on', channel=2, note=66, velocity=127, time=2)
Message('note_off', channel=2, note=66, velocity=0, time=206)
Message('note_on', channel=2, note=54, velocity=120, time=10)
Message('note_off', channel=2, note=54, velocity=0, time=134)
Message('note_on', channel=2, note=66, velocity=100, time=10)
Message('note_off', channel=2, note=66, velocity=0, time=44)
Message('note_on', channel=2, note=65, velocity=120, time=4)
Message('note_off', channel=2, note=65, velocity=0, time=68)
Message('note_on', channel=2, note=66, velocity=100, time=4)
Message('note_off', channel=2, note=66, velocity=0, time=68)
Message('note_on', channel=2, note=68, velocity=110, time=4)
Message('note_on', channel=2, note=61, velocity=120, time=48)
Message('note_off', channel=2, note=68, velocity=0, time=10)
Message('note_off', channel=2, note=61, velocity=0, time=368)
Message('note_on', channel=2, note=54, velocity=120, time=6)
Message('note_off', channel=2, note=54, velocity=0, time=134)
Message('note_on', channel=2, note=66, velocity=120, time=10)
Message('note_off', channel=2, note=66, velocity=0, time=44)
Message('note_on', channel=2, note=64, velocity=120, time=4)
Message('note_off', channel=2, note=64, velocity=0, time=68)
Message('note_on', channel=2, note=66, velocity=100, time=4)
Message('note_off', channel=2, note=66, velocity=0, time=68)
Message('note_on', channel=2, note=68, velocity=120, time=4)
Message('note_off', channel=2, note=68, velocity=0, time=44)
Message('note_on', channel=2, note=69, velocity=120, time=4)
Message('note_off', channel=2, note=69, velocity=0, time=34)
Message('note_on', channel=2, note=61, velocity=100, time=14)
Message('note_off', channel=2, note=61, velocity=0, time=34)
Message('note_on', channel=2, note=68, velocity=120, time=14)
Message('note_off', channel=2, note=68, velocity=0, time=44)
Message('note_on', channel=2, note=68, velocity=110, time=4)
Message('note_off', channel=2, note=68, velocity=0, time=22)
Message('note_on', channel=2, note=69, velocity=110, time=2)
Message('note_off', channel=2, note=69, velocity=0, time=116)
Message('note_on', channel=2, note=71, velocity=110, time=4)
Message('note_off', channel=2, note=71, velocity=0, time=92)
Message('note_on', channel=2, note=73, velocity=120, time=4)
Message('note_off', channel=2, note=73, velocity=0, time=44)
Message('note_on', channel=2, note=66, velocity=110, time=4)
Message('note_off', channel=2, note=66, velocity=0, time=34)
Message('note_on', channel=2, note=68, velocity=120, time=62)
Message('note_off', channel=2, note=68, velocity=0, time=22)
Message('note_on', channel=2, note=69, velocity=110, time=2)
Message('note_off', channel=2, note=69, velocity=0, time=22)
Message('note_on', channel=2, note=68, velocity=120, time=2)
Message('note_off', channel=2, note=68, velocity=0, time=68)
Message('note_on', channel=2, note=64, velocity=100, time=4)
Message('note_off', channel=2, note=64, velocity=0, time=68)
Message('note_on', channel=2, note=61, velocity=110, time=4)
Message('note_off', channel=2, note=61, velocity=0, time=44)
Message('note_on', channel=2, note=64, velocity=120, time=4)
Message('note_off', channel=2, note=64, velocity=0, time=34)
Message('note_on', channel=2, note=61, velocity=100, time=14)
Message('note_off', channel=2, note=61, velocity=0, time=34)
Message('note_on', channel=2, note=64, velocity=120, time=14)
Message('note_off', channel=2, note=64, velocity=0, time=44)
Message('note_on', channel=2, note=64, velocity=110, time=4)
Message('note_off', channel=2, note=64, velocity=0, time=22)
Message('note_on', channel=2, note=66, velocity=127, time=2)
Message('note_off', channel=2, note=66, velocity=0, time=206)
Message('note_on', channel=2, note=66, velocity=120, time=10)
Message('note_off', channel=2, note=66, velocity=0, time=134)
Message('note_on', channel=2, note=78, velocity=120, time=10)
Message('note_off', channel=2, note=78, velocity=0, time=44)
Message('note_on', channel=2, note=76, velocity=120, time=4)
Message('note_off', channel=2, note=76, velocity=0, time=68)
Message('note_on', channel=2, note=81, velocity=100, time=4)
Message('note_off', channel=2, note=81, velocity=0, time=68)
Message('note_on', channel=2, note=80, velocity=120, time=4)
Message('note_off', channel=2, note=80, velocity=0, time=44)
Message('note_on', channel=2, note=76, velocity=120, time=4)
Message('note_off', channel=2, note=76, velocity=0, time=34)
Message('note_on', channel=2, note=73, velocity=100, time=14)
Message('note_off', channel=2, note=73, velocity=0, time=34)
Message('note_on', channel=2, note=76, velocity=120, time=14)
Message('note_off', channel=2, note=76, velocity=0, time=44)
Message('note_on', channel=2, note=76, velocity=110, time=4)
Message('note_off', channel=2, note=76, velocity=0, time=22)
Message('note_on', channel=2, note=78, velocity=127, time=2)
Message('note_off', channel=2, note=78, velocity=0, time=206)
Message('note_on', channel=2, note=66, velocity=120, time=10)
Message('note_off', channel=2, note=66, velocity=0, time=134)
Message('note_on', channel=2, note=78, velocity=100, time=10)
Message('note_off', channel=2, note=78, velocity=0, time=44)
Message('note_on', channel=2, note=77, velocity=120, time=4)
Message('note_off', channel=2, note=77, velocity=0, time=68)
Message('note_on', channel=2, note=78, velocity=100, time=4)
Message('note_off', channel=2, note=78, velocity=0, time=68)
Message('note_on', channel=2, note=80, velocity=110, time=4)
Message('note_on', channel=2, note=73, velocity=120, time=48)
Message('note_off', channel=2, note=80, velocity=0, time=10)
Message('note_off', channel=2, note=73, velocity=0, time=368)
Message('note_on', channel=2, note=66, velocity=120, time=6)
Message('note_off', channel=2, note=66, velocity=0, time=134)
Message('note_on', channel=2, note=78, velocity=120, time=10)
Message('note_off', channel=2, note=78, velocity=0, time=44)
Message('note_on', channel=2, note=76, velocity=120, time=4)
Message('note_off', channel=2, note=76, velocity=0, time=68)
Message('note_on', channel=2, note=78, velocity=100, time=4)
Message('note_off', channel=2, note=78, velocity=0, time=68)
Message('note_on', channel=2, note=80, velocity=120, time=4)
Message('note_off', channel=2, note=80, velocity=0, time=44)
Message('note_on', channel=2, note=81, velocity=120, time=4)
Message('note_off', channel=2, note=81, velocity=0, time=34)
Message('note_on', channel=2, note=73, velocity=100, time=14)
Message('note_off', channel=2, note=73, velocity=0, time=34)
Message('note_on', channel=2, note=80, velocity=120, time=14)
Message('note_off', channel=2, note=80, velocity=0, time=44)
Message('note_on', channel=2, note=80, velocity=110, time=4)
Message('note_off', channel=2, note=80, velocity=0, time=22)
Message('note_on', channel=2, note=81, velocity=110, time=2)
Message('note_off', channel=2, note=81, velocity=0, time=116)
Message('note_on', channel=2, note=83, velocity=110, time=4)
Message('note_off', channel=2, note=83, velocity=0, time=92)
Message('note_on', channel=2, note=85, velocity=120, time=4)
Message('note_off', channel=2, note=85, velocity=0, time=44)
Message('note_on', channel=2, note=78, velocity=110, time=4)
Message('note_off', channel=2, note=78, velocity=0, time=34)
Message('note_on', channel=2, note=80, velocity=120, time=62)
Message('note_off', channel=2, note=80, velocity=0, time=22)
Message('note_on', channel=2, note=81, velocity=110, time=2)
Message('note_off', channel=2, note=81, velocity=0, time=22)
Message('note_on', channel=2, note=80, velocity=120, time=2)
Message('note_off', channel=2, note=80, velocity=0, time=68)
Message('note_on', channel=2, note=76, velocity=100, time=4)
Message('note_off', channel=2, note=76, velocity=0, time=68)
Message('note_on', channel=2, note=73, velocity=110, time=4)
Message('note_off', channel=2, note=73, velocity=0, time=44)
Message('note_on', channel=2, note=76, velocity=120, time=4)
Message('note_off', channel=2, note=76, velocity=0, time=34)
Message('note_on', channel=2, note=73, velocity=100, time=14)
Message('note_off', channel=2, note=73, velocity=0, time=34)
Message('note_on', channel=2, note=76, velocity=120, time=14)
Message('note_off', channel=2, note=76, velocity=0, time=44)
Message('note_on', channel=2, note=76, velocity=110, time=4)
Message('note_off', channel=2, note=76, velocity=0, time=22)
Message('note_on', channel=2, note=78, velocity=127, time=2)
Message('note_off', channel=2, note=78, velocity=0, time=206)
Message('note_on', channel=2, note=66, velocity=120, time=10)
Message('note_off', channel=2, note=66, velocity=0, time=134)
Message('note_on', channel=2, note=78, velocity=120, time=10)
Message('note_off', channel=2, note=78, velocity=0, time=44)
Message('note_on', channel=2, note=76, velocity=120, time=4)
Message('note_off', channel=2, note=76, velocity=0, time=68)
Message('note_on', channel=2, note=81, velocity=100, time=4)
Message('note_off', channel=2, note=81, velocity=0, time=68)
Message('note_on', channel=2, note=80, velocity=120, time=4)
Message('note_off', channel=2, note=80, velocity=0, time=44)
Message('note_on', channel=2, note=76, velocity=120, time=4)
Message('note_off', channel=2, note=76, velocity=0, time=34)
Message('note_on', channel=2, note=73, velocity=100, time=14)
Message('note_off', channel=2, note=73, velocity=0, time=34)
Message('note_on', channel=2, note=76, velocity=120, time=14)
Message('note_off', channel=2, note=76, velocity=0, time=44)
Message('note_on', channel=2, note=76, velocity=110, time=4)
Message('note_off', channel=2, note=76, velocity=0, time=22)
Message('note_on', channel=2, note=78, velocity=127, time=2)
Message('note_off', channel=2, note=78, velocity=0, time=206)
Message('note_on', channel=2, note=66, velocity=120, time=10)
Message('note_off', channel=2, note=66, velocity=0, time=134)
Message('note_on', channel=2, note=78, velocity=100, time=10)
Message('note_off', channel=2, note=78, velocity=0, time=44)
Message('note_on', channel=2, note=77, velocity=120, time=4)
Message('note_off', channel=2, note=77, velocity=0, time=68)
Message('note_on', channel=2, note=78, velocity=100, time=4)
Message('note_off', channel=2, note=78, velocity=0, time=68)
Message('note_on', channel=2, note=80, velocity=110, time=4)
Message('note_on', channel=2, note=73, velocity=120, time=48)
Message('note_off', channel=2, note=80, velocity=0, time=10)
Message('note_off', channel=2, note=73, velocity=0, time=368)
Message('note_on', channel=2, note=66, velocity=120, time=6)
Message('note_off', channel=2, note=66, velocity=0, time=134)
Message('note_on', channel=2, note=78, velocity=120, time=10)
Message('note_off', channel=2, note=78, velocity=0, time=44)
Message('note_on', channel=2, note=76, velocity=120, time=4)
Message('note_off', channel=2, note=76, velocity=0, time=68)
Message('note_on', channel=2, note=78, velocity=100, time=4)
Message('note_off', channel=2, note=78, velocity=0, time=68)
Message('note_on', channel=2, note=80, velocity=120, time=4)
Message('note_off', channel=2, note=80, velocity=0, time=44)
Message('note_on', channel=2, note=81, velocity=120, time=4)
Message('note_off', channel=2, note=81, velocity=0, time=34)
Message('note_on', channel=2, note=73, velocity=100, time=14)
Message('note_off', channel=2, note=73, velocity=0, time=34)
Message('note_on', channel=2, note=80, velocity=120, time=14)
Message('note_off', channel=2, note=80, velocity=0, time=44)
Message('note_on', channel=2, note=80, velocity=110, time=4)
Message('note_off', channel=2, note=80, velocity=0, time=22)
Message('note_on', channel=2, note=81, velocity=110, time=2)
Message('note_off', channel=2, note=81, velocity=0, time=116)
Message('note_on', channel=2, note=83, velocity=110, time=4)
Message('note_off', channel=2, note=83, velocity=0, time=92)
Message('note_on', channel=2, note=85, velocity=120, time=4)
Message('note_off', channel=2, note=85, velocity=0, time=44)
Message('note_on', channel=2, note=78, velocity=110, time=4)
Message('note_off', channel=2, note=78, velocity=0, time=34)
Message('note_on', channel=2, note=80, velocity=120, time=62)
Message('note_off', channel=2, note=80, velocity=0, time=22)
Message('note_on', channel=2, note=81, velocity=110, time=2)
Message('note_off', channel=2, note=81, velocity=0, time=22)
Message('note_on', channel=2, note=80, velocity=120, time=2)
Message('note_off', channel=2, note=80, velocity=0, time=68)
Message('note_on', channel=2, note=76, velocity=100, time=4)
Message('note_off', channel=2, note=76, velocity=0, time=68)
Message('note_on', channel=2, note=73, velocity=110, time=4)
Message('note_off', channel=2, note=73, velocity=0, time=44)
Message('note_on', channel=2, note=76, velocity=120, time=4)
Message('note_off', channel=2, note=76, velocity=0, time=34)
Message('note_on', channel=2, note=73, velocity=100, time=14)
Message('note_off', channel=2, note=73, velocity=0, time=34)
Message('note_on', channel=2, note=76, velocity=120, time=14)
Message('note_off', channel=2, note=76, velocity=0, time=44)
Message('note_on', channel=2, note=76, velocity=110, time=4)
Message('note_off', channel=2, note=76, velocity=0, time=22)
Message('note_on', channel=2, note=78, velocity=127, time=2)
Message('note_off', channel=2, note=78, velocity=0, time=206)
Message('note_on', channel=2, note=66, velocity=120, time=10)
Message('note_off', channel=2, note=66, velocity=0, time=134)
Message('note_on', channel=2, note=78, velocity=120, time=10)
Message('note_off', channel=2, note=78, velocity=0, time=44)
Message('note_on', channel=2, note=76, velocity=120, time=4)
Message('note_off', channel=2, note=76, velocity=0, time=68)
Message('note_on', channel=2, note=81, velocity=100, time=4)
Message('note_off', channel=2, note=81, velocity=0, time=68)
Message('note_on', channel=2, note=80, velocity=120, time=4)
Message('note_off', channel=2, note=80, velocity=0, time=44)
Message('note_on', channel=2, note=76, velocity=120, time=4)
Message('note_off', channel=2, note=76, velocity=0, time=34)
Message('note_on', channel=2, note=73, velocity=100, time=14)
Message('note_off', channel=2, note=73, velocity=0, time=34)
Message('note_on', channel=2, note=76, velocity=120, time=14)
Message('note_off', channel=2, note=76, velocity=0, time=44)
Message('note_on', channel=2, note=76, velocity=110, time=4)
Message('note_off', channel=2, note=76, velocity=0, time=22)
Message('note_on', channel=2, note=78, velocity=127, time=2)
Message('note_off', channel=2, note=78, velocity=0, time=206)
Message('note_on', channel=2, note=66, velocity=120, time=10)
Message('note_off', channel=2, note=66, velocity=0, time=134)
Message('note_on', channel=2, note=78, velocity=100, time=10)
Message('note_off', channel=2, note=78, velocity=0, time=44)
Message('note_on', channel=2, note=77, velocity=120, time=4)
Message('note_off', channel=2, note=77, velocity=0, time=68)
Message('note_on', channel=2, note=78, velocity=100, time=4)
Message('note_off', channel=2, note=78, velocity=0, time=68)
Message('note_on', channel=2, note=80, velocity=110, time=4)
Message('note_on', channel=2, note=73, velocity=120, time=48)
Message('note_off', channel=2, note=80, velocity=0, time=10)
Message('note_off', channel=2, note=73, velocity=0, time=368)
Message('note_on', channel=2, note=66, velocity=120, time=6)
Message('note_off', channel=2, note=66, velocity=0, time=134)
Message('note_on', channel=2, note=78, velocity=120, time=10)
Message('note_off', channel=2, note=78, velocity=0, time=44)
Message('note_on', channel=2, note=76, velocity=120, time=4)
Message('note_off', channel=2, note=76, velocity=0, time=68)
Message('note_on', channel=2, note=78, velocity=100, time=4)
Message('note_off', channel=2, note=78, velocity=0, time=68)
Message('note_on', channel=2, note=80, velocity=120, time=4)
Message('note_off', channel=2, note=80, velocity=0, time=44)
Message('note_on', channel=2, note=81, velocity=120, time=4)
Message('note_off', channel=2, note=81, velocity=0, time=34)
Message('note_on', channel=2, note=73, velocity=100, time=14)
Message('note_off', channel=2, note=73, velocity=0, time=34)
Message('note_on', channel=2, note=80, velocity=120, time=14)
Message('note_off', channel=2, note=80, velocity=0, time=44)
Message('note_on', channel=2, note=80, velocity=110, time=4)
Message('note_off', channel=2, note=80, velocity=0, time=22)
Message('note_on', channel=2, note=81, velocity=110, time=2)
Message('note_off', channel=2, note=81, velocity=0, time=116)
Message('note_on', channel=2, note=83, velocity=110, time=4)
Message('note_off', channel=2, note=83, velocity=0, time=92)
Message('note_on', channel=2, note=85, velocity=120, time=4)
Message('note_off', channel=2, note=85, velocity=0, time=44)
Message('note_on', channel=2, note=78, velocity=110, time=4)
Message('note_off', channel=2, note=78, velocity=0, time=34)
Message('note_on', channel=2, note=80, velocity=120, time=62)
Message('note_off', channel=2, note=80, velocity=0, time=22)
Message('note_on', channel=2, note=81, velocity=110, time=2)
Message('note_off', channel=2, note=81, velocity=0, time=22)
Message('note_on', channel=2, note=80, velocity=120, time=2)
Message('note_off', channel=2, note=80, velocity=0, time=68)
Message('note_on', channel=2, note=76, velocity=100, time=4)
Message('note_off', channel=2, note=76, velocity=0, time=68)
Message('note_on', channel=2, note=73, velocity=110, time=4)
Message('note_off', channel=2, note=73, velocity=0, time=44)
Message('note_on', channel=2, note=76, velocity=120, time=4)
Message('note_off', channel=2, note=76, velocity=0, time=34)
Message('note_on', channel=2, note=73, velocity=100, time=14)
Message('note_off', channel=2, note=73, velocity=0, time=34)
Message('note_on', channel=2, note=76, velocity=120, time=14)
Message('note_off', channel=2, note=76, velocity=0, time=44)
Message('note_on', channel=2, note=76, velocity=110, time=4)
Message('note_off', channel=2, note=76, velocity=0, time=22)
Message('note_on', channel=2, note=78, velocity=127, time=2)
Message('note_off', channel=2, note=78, velocity=0, time=206)
Message('note_on', channel=2, note=66, velocity=120, time=10)
Message('note_off', channel=2, note=66, velocity=0, time=134)
Message('note_on', channel=2, note=78, velocity=120, time=10)
Message('note_off', channel=2, note=78, velocity=0, time=44)
Message('note_on', channel=2, note=76, velocity=120, time=4)
Message('note_off', channel=2, note=76, velocity=0, time=68)
Message('note_on', channel=2, note=81, velocity=100, time=4)
Message('note_off', channel=2, note=81, velocity=0, time=68)
Message('note_on', channel=2, note=80, velocity=120, time=4)
Message('note_off', channel=2, note=80, velocity=0, time=44)
Message('note_on', channel=2, note=76, velocity=120, time=4)
Message('note_off', channel=2, note=76, velocity=0, time=34)
Message('note_on', channel=2, note=73, velocity=100, time=14)
Message('note_off', channel=2, note=73, velocity=0, time=34)
Message('note_on', channel=2, note=76, velocity=120, time=14)
Message('note_off', channel=2, note=76, velocity=0, time=44)
Message('note_on', channel=2, note=76, velocity=110, time=4)
Message('note_off', channel=2, note=76, velocity=0, time=22)
Message('note_on', channel=2, note=78, velocity=127, time=2)
Message('note_off', channel=2, note=78, velocity=0, time=206)
Message('note_on', channel=2, note=66, velocity=120, time=10)
Message('note_off', channel=2, note=66, velocity=0, time=134)
Message('note_on', channel=2, note=78, velocity=100, time=10)
Message('note_off', channel=2, note=78, velocity=0, time=44)
Message('note_on', channel=2, note=77, velocity=120, time=4)
Message('note_off', channel=2, note=77, velocity=0, time=68)
Message('note_on', channel=2, note=78, velocity=100, time=4)
Message('note_off', channel=2, note=78, velocity=0, time=68)
Message('note_on', channel=2, note=80, velocity=110, time=4)
Message('note_on', channel=2, note=73, velocity=120, time=48)
Message('note_off', channel=2, note=80, velocity=0, time=10)
Message('note_off', channel=2, note=73, velocity=0, time=368)
Message('note_on', channel=2, note=66, velocity=120, time=6)
Message('note_off', channel=2, note=66, velocity=0, time=134)
Message('note_on', channel=2, note=78, velocity=120, time=10)
Message('note_off', channel=2, note=78, velocity=0, time=44)
Message('note_on', channel=2, note=76, velocity=120, time=4)
Message('note_off', channel=2, note=76, velocity=0, time=68)
Message('note_on', channel=2, note=78, velocity=100, time=4)
Message('note_off', channel=2, note=78, velocity=0, time=68)
Message('note_on', channel=2, note=80, velocity=120, time=4)
Message('note_off', channel=2, note=80, velocity=0, time=44)
Message('note_on', channel=2, note=81, velocity=120, time=4)
Message('note_off', channel=2, note=81, velocity=0, time=34)
Message('note_on', channel=2, note=73, velocity=100, time=14)
Message('note_off', channel=2, note=73, velocity=0, time=34)
Message('note_on', channel=2, note=80, velocity=120, time=14)
Message('note_off', channel=2, note=80, velocity=0, time=44)
Message('note_on', channel=2, note=80, velocity=110, time=4)
Message('note_off', channel=2, note=80, velocity=0, time=22)
Message('note_on', channel=2, note=81, velocity=110, time=2)
Message('note_off', channel=2, note=81, velocity=0, time=116)
Message('note_on', channel=2, note=83, velocity=110, time=4)
Message('note_off', channel=2, note=83, velocity=0, time=92)
Message('note_on', channel=2, note=85, velocity=120, time=4)
Message('note_off', channel=2, note=85, velocity=0, time=44)
Message('note_on', channel=2, note=78, velocity=110, time=4)
Message('note_off', channel=2, note=78, velocity=0, time=34)
Message('note_on', channel=2, note=80, velocity=120, time=62)
Message('note_off', channel=2, note=80, velocity=0, time=22)
Message('note_on', channel=2, note=81, velocity=110, time=2)
Message('note_off', channel=2, note=81, velocity=0, time=22)
Message('note_on', channel=2, note=80, velocity=120, time=2)
Message('note_off', channel=2, note=80, velocity=0, time=68)
Message('note_on', channel=2, note=76, velocity=100, time=4)
Message('note_off', channel=2, note=76, velocity=0, time=68)
Message('note_on', channel=2, note=73, velocity=110, time=4)
Message('note_off', channel=2, note=73, velocity=0, time=44)
Message('note_on', channel=2, note=76, velocity=120, time=4)
Message('note_off', channel=2, note=76, velocity=0, time=34)
Message('note_on', channel=2, note=73, velocity=100, time=14)
Message('note_off', channel=2, note=73, velocity=0, time=34)
Message('note_on', channel=2, note=76, velocity=120, time=14)
Message('note_off', channel=2, note=76, velocity=0, time=44)
Message('note_on', channel=2, note=76, velocity=110, time=4)
Message('note_off', channel=2, note=76, velocity=0, time=22)
Message('note_on', channel=2, note=78, velocity=127, time=2)
Message('note_off', channel=2, note=78, velocity=0, time=206)
Message('control_change', channel=2, control=101, value=0, time=394)
Message('control_change', channel=2, control=100, value=0, time=0)
Message('control_change', channel=2, control=6, value=12, time=0)
Message('control_change', channel=2, control=10, value=72, time=0)
Message('control_change', channel=2, control=7, value=92, time=0)
Message('pitchwheel', channel=2, pitch=0, time=0)
Message('program_change', channel=2, program=110, time=0)
Message('control_change', channel=2, control=91, value=60, time=0)
Message('control_change', channel=2, control=93, value=30, time=0)
Message('control_change', channel=2, control=101, value=0, time=1)
Message('control_change', channel=2, control=100, value=0, time=0)
Message('control_change', channel=2, control=6, value=12, time=0)
Message('control_change', channel=2, control=10, value=72, time=0)
Message('control_change', channel=2, control=7, value=92, time=0)
Message('pitchwheel', channel=2, pitch=0, time=0)
Message('program_change', channel=2, program=110, time=0)
Message('control_change', channel=2, control=91, value=60, time=0)
Message('control_change', channel=2, control=93, value=30, time=0)
Message('control_change', channel=2, control=101, value=0, time=0)
Message('control_change', channel=2, control=100, value=0, time=0)
Message('control_change', channel=2, control=6, value=12, time=0)
Message('control_change', channel=2, control=10, value=72, time=0)
Message('control_change', channel=2, control=7, value=92, time=0)
Message('pitchwheel', channel=2, pitch=0, time=0)
Message('program_change', channel=2, program=110, time=0)
Message('control_change', channel=2, control=91, value=60, time=0)
Message('control_change', channel=2, control=93, value=30, time=0)
MetaMessage('end_of_track', time=0)
=== Track 5
MetaMessage('track_name', name='Channel #4', time=0)
Message('control_change', channel=3, control=10, value=52, time=0)
Message('control_change', channel=3, control=7, value=91, time=0)
Message('pitchwheel', channel=3, pitch=0, time=0)
Message('control_change', channel=3, control=101, value=0, time=0)
Message('control_change', channel=3, control=100, value=0, time=0)
Message('control_change', channel=3, control=6, value=12, time=0)
Message('control_change', channel=3, control=10, value=52, time=0)
Message('control_change', channel=3, control=7, value=91, time=0)
Message('pitchwheel', channel=3, pitch=0, time=0)
Message('program_change', channel=3, program=110, time=0)
Message('control_change', channel=3, control=91, value=60, time=0)
Message('control_change', channel=3, control=93, value=30, time=0)
Message('control_change', channel=3, control=101, value=0, time=0)
Message('control_change', channel=3, control=100, value=0, time=0)
Message('control_change', channel=3, control=6, value=12, time=0)
Message('control_change', channel=3, control=10, value=52, time=0)
Message('control_change', channel=3, control=7, value=91, time=0)
Message('pitchwheel', channel=3, pitch=0, time=0)
Message('program_change', channel=3, program=110, time=0)
Message('control_change', channel=3, control=91, value=60, time=0)
Message('control_change', channel=3, control=93, value=30, time=0)
Message('control_change', channel=3, control=10, value=52, time=0)
Message('control_change', channel=3, control=7, value=91, time=0)
Message('pitchwheel', channel=3, pitch=0, time=0)
Message('program_change', channel=3, program=110, time=0)
Message('control_change', channel=3, control=91, value=60, time=0)
Message('control_change', channel=3, control=93, value=30, time=0)
Message('control_change', channel=3, control=101, value=0, time=0)
Message('control_change', channel=3, control=100, value=0, time=0)
Message('control_change', channel=3, control=6, value=12, time=0)
Message('control_change', channel=3, control=10, value=52, time=0)
Message('control_change', channel=3, control=7, value=91, time=0)
Message('pitchwheel', channel=3, pitch=0, time=0)
Message('program_change', channel=3, program=110, time=0)
Message('control_change', channel=3, control=91, value=60, time=0)
Message('control_change', channel=3, control=93, value=30, time=0)
Message('control_change', channel=3, control=10, value=52, time=0)
Message('control_change', channel=3, control=7, value=91, time=0)
Message('pitchwheel', channel=3, pitch=0, time=0)
Message('program_change', channel=3, program=110, time=0)
Message('control_change', channel=3, control=91, value=60, time=0)
Message('control_change', channel=3, control=93, value=30, time=0)
Message('note_on', channel=3, note=62, velocity=100, time=384)
Message('note_off', channel=3, note=62, velocity=0, time=134)
Message('note_on', channel=3, note=69, velocity=100, time=10)
Message('note_off', channel=3, note=69, velocity=0, time=44)
Message('note_on', channel=3, note=56, velocity=100, time=4)
Message('note_on', channel=3, note=56, velocity=100, time=0)
Message('note_off', channel=3, note=56, velocity=0, time=68)
Message('note_off', channel=3, note=56, velocity=0, time=0)
Message('note_on', channel=3, note=64, velocity=80, time=4)
Message('note_off', channel=3, note=64, velocity=0, time=68)
Message('note_on', channel=3, note=59, velocity=100, time=4)
Message('note_off', channel=3, note=59, velocity=0, time=44)
Message('note_on', channel=3, note=61, velocity=100, time=4)
Message('note_off', channel=3, note=61, velocity=0, time=34)
Message('note_on', channel=3, note=54, velocity=80, time=14)
Message('note_off', channel=3, note=54, velocity=0, time=34)
Message('note_on', channel=3, note=57, velocity=100, time=14)
Message('note_off', channel=3, note=57, velocity=0, time=44)
Message('note_on', channel=3, note=56, velocity=90, time=4)
Message('note_off', channel=3, note=56, velocity=0, time=22)
Message('note_on', channel=3, note=57, velocity=110, time=2)
Message('note_off', channel=3, note=57, velocity=0, time=206)
Message('note_on', channel=3, note=57, velocity=100, time=10)
Message('note_off', channel=3, note=57, velocity=0, time=134)
Message('note_on', channel=3, note=69, velocity=80, time=10)
Message('note_off', channel=3, note=69, velocity=0, time=44)
Message('note_on', channel=3, note=65, velocity=100, time=4)
Message('note_off', channel=3, note=65, velocity=0, time=68)
Message('note_on', channel=3, note=66, velocity=80, time=4)
Message('note_off', channel=3, note=66, velocity=0, time=68)
Message('note_on', channel=3, note=68, velocity=90, time=4)
Message('note_on', channel=3, note=69, velocity=100, time=48)
Message('note_off', channel=3, note=68, velocity=0, time=10)
Message('note_off', channel=3, note=69, velocity=0, time=368)
Message('note_on', channel=3, note=57, velocity=100, time=6)
Message('note_off', channel=3, note=57, velocity=0, time=134)
Message('note_on', channel=3, note=69, velocity=100, time=10)
Message('note_off', channel=3, note=69, velocity=0, time=44)
Message('note_on', channel=3, note=68, velocity=100, time=4)
Message('note_off', channel=3, note=68, velocity=0, time=68)
Message('note_on', channel=3, note=69, velocity=80, time=4)
Message('note_off', channel=3, note=69, velocity=0, time=68)
Message('note_on', channel=3, note=71, velocity=100, time=4)
Message('note_off', channel=3, note=71, velocity=0, time=44)
Message('note_on', channel=3, note=73, velocity=100, time=4)
Message('note_off', channel=3, note=73, velocity=0, time=34)
Message('note_on', channel=3, note=66, velocity=80, time=14)
Message('note_off', channel=3, note=66, velocity=0, time=34)
Message('note_on', channel=3, note=64, velocity=100, time=14)
Message('note_off', channel=3, note=64, velocity=0, time=44)
Message('note_on', channel=3, note=64, velocity=90, time=4)
Message('note_off', channel=3, note=64, velocity=0, time=22)
Message('note_on', channel=3, note=66, velocity=90, time=2)
Message('note_off', channel=3, note=66, velocity=0, time=118)
Message('note_on', channel=3, note=68, velocity=90, time=2)
Message('note_off', channel=3, note=68, velocity=0, time=92)
Message('note_on', channel=3, note=69, velocity=100, time=4)
Message('note_off', channel=3, note=69, velocity=0, time=44)
Message('note_on', channel=3, note=62, velocity=90, time=4)
Message('note_off', channel=3, note=62, velocity=0, time=34)
Message('note_on', channel=3, note=64, velocity=100, time=62)
Message('note_off', channel=3, note=64, velocity=0, time=22)
Message('note_on', channel=3, note=66, velocity=90, time=2)
Message('note_off', channel=3, note=66, velocity=0, time=22)
Message('note_on', channel=3, note=64, velocity=100, time=2)
Message('note_off', channel=3, note=64, velocity=0, time=68)
Message('note_on', channel=3, note=68, velocity=80, time=4)
Message('note_off', channel=3, note=68, velocity=0, time=68)
Message('note_on', channel=3, note=69, velocity=90, time=4)
Message('note_off', channel=3, note=69, velocity=0, time=44)
Message('note_on', channel=3, note=71, velocity=100, time=4)
Message('note_off', channel=3, note=71, velocity=0, time=34)
Message('note_on', channel=3, note=64, velocity=80, time=14)
Message('note_off', channel=3, note=64, velocity=0, time=34)
Message('note_on', channel=3, note=68, velocity=100, time=14)
Message('note_off', channel=3, note=68, velocity=0, time=44)
Message('note_on', channel=3, note=68, velocity=90, time=4)
Message('note_off', channel=3, note=68, velocity=0, time=22)
Message('note_on', channel=3, note=69, velocity=110, time=2)
Message('note_off', channel=3, note=69, velocity=0, time=214)
Message('note_on', channel=3, note=62, velocity=120, time=2)
Message('note_off', channel=3, note=62, velocity=0, time=134)
Message('note_on', channel=3, note=69, velocity=120, time=10)
Message('note_off', channel=3, note=69, velocity=0, time=44)
Message('note_on', channel=3, note=56, velocity=120, time=4)
Message('note_off', channel=3, note=56, velocity=0, time=68)
Message('note_on', channel=3, note=64, velocity=100, time=4)
Message('note_off', channel=3, note=64, velocity=0, time=68)
Message('note_on', channel=3, note=59, velocity=120, time=4)
Message('note_off', channel=3, note=59, velocity=0, time=44)
Message('note_on', channel=3, note=61, velocity=120, time=4)
Message('note_off', channel=3, note=61, velocity=0, time=34)
Message('note_on', channel=3, note=54, velocity=100, time=14)
Message('note_off', channel=3, note=54, velocity=0, time=34)
Message('note_on', channel=3, note=57, velocity=120, time=14)
Message('note_off', channel=3, note=57, velocity=0, time=44)
Message('note_on', channel=3, note=56, velocity=110, time=4)
Message('note_off', channel=3, note=56, velocity=0, time=22)
Message('note_on', channel=3, note=57, velocity=127, time=2)
Message('note_off', channel=3, note=57, velocity=0, time=206)
Message('note_on', channel=3, note=57, velocity=120, time=10)
Message('note_off', channel=3, note=57, velocity=0, time=134)
Message('note_on', channel=3, note=69, velocity=100, time=10)
Message('note_off', channel=3, note=69, velocity=0, time=44)
Message('note_on', channel=3, note=65, velocity=120, time=4)
Message('note_off', channel=3, note=65, velocity=0, time=68)
Message('note_on', channel=3, note=66, velocity=100, time=4)
Message('note_off', channel=3, note=66, velocity=0, time=68)
Message('note_on', channel=3, note=68, velocity=110, time=4)
Message('note_on', channel=3, note=69, velocity=120, time=48)
Message('note_off', channel=3, note=68, velocity=0, time=10)
Message('note_off', channel=3, note=69, velocity=0, time=368)
Message('note_on', channel=3, note=57, velocity=120, time=6)
Message('note_off', channel=3, note=57, velocity=0, time=134)
Message('note_on', channel=3, note=69, velocity=120, time=10)
Message('note_off', channel=3, note=69, velocity=0, time=44)
Message('note_on', channel=3, note=68, velocity=120, time=4)
Message('note_off', channel=3, note=68, velocity=0, time=68)
Message('note_on', channel=3, note=69, velocity=100, time=4)
Message('note_off', channel=3, note=69, velocity=0, time=68)
Message('note_on', channel=3, note=71, velocity=120, time=4)
Message('note_off', channel=3, note=71, velocity=0, time=44)
Message('note_on', channel=3, note=73, velocity=120, time=4)
Message('note_off', channel=3, note=73, velocity=0, time=34)
Message('note_on', channel=3, note=66, velocity=100, time=14)
Message('note_off', channel=3, note=66, velocity=0, time=34)
Message('note_on', channel=3, note=64, velocity=120, time=14)
Message('note_off', channel=3, note=64, velocity=0, time=44)
Message('note_on', channel=3, note=64, velocity=110, time=4)
Message('note_off', channel=3, note=64, velocity=0, time=22)
Message('note_on', channel=3, note=66, velocity=110, time=2)
Message('note_off', channel=3, note=66, velocity=0, time=118)
Message('note_on', channel=3, note=68, velocity=110, time=2)
Message('note_off', channel=3, note=68, velocity=0, time=92)
Message('note_on', channel=3, note=69, velocity=120, time=4)
Message('note_off', channel=3, note=69, velocity=0, time=44)
Message('note_on', channel=3, note=62, velocity=110, time=4)
Message('note_off', channel=3, note=62, velocity=0, time=34)
Message('note_on', channel=3, note=64, velocity=120, time=62)
Message('note_off', channel=3, note=64, velocity=0, time=22)
Message('note_on', channel=3, note=66, velocity=110, time=2)
Message('note_off', channel=3, note=66, velocity=0, time=22)
Message('note_on', channel=3, note=64, velocity=120, time=2)
Message('note_off', channel=3, note=64, velocity=0, time=68)
Message('note_on', channel=3, note=68, velocity=100, time=4)
Message('note_off', channel=3, note=68, velocity=0, time=68)
Message('note_on', channel=3, note=69, velocity=110, time=4)
Message('note_off', channel=3, note=69, velocity=0, time=44)
Message('note_on', channel=3, note=71, velocity=120, time=4)
Message('note_off', channel=3, note=71, velocity=0, time=34)
Message('note_on', channel=3, note=64, velocity=100, time=14)
Message('note_off', channel=3, note=64, velocity=0, time=34)
Message('note_on', channel=3, note=68, velocity=120, time=14)
Message('note_off', channel=3, note=68, velocity=0, time=44)
Message('note_on', channel=3, note=68, velocity=110, time=4)
Message('note_off', channel=3, note=68, velocity=0, time=22)
Message('note_on', channel=3, note=69, velocity=127, time=2)
Message('note_off', channel=3, note=69, velocity=0, time=214)
Message('note_on', channel=3, note=62, velocity=120, time=2)
Message('note_off', channel=3, note=62, velocity=0, time=134)
Message('note_on', channel=3, note=69, velocity=120, time=10)
Message('note_off', channel=3, note=69, velocity=0, time=44)
Message('note_on', channel=3, note=56, velocity=120, time=4)
Message('note_off', channel=3, note=56, velocity=0, time=68)
Message('note_on', channel=3, note=64, velocity=100, time=4)
Message('note_off', channel=3, note=64, velocity=0, time=68)
Message('note_on', channel=3, note=59, velocity=120, time=4)
Message('note_off', channel=3, note=59, velocity=0, time=44)
Message('note_on', channel=3, note=61, velocity=120, time=4)
Message('note_off', channel=3, note=61, velocity=0, time=34)
Message('note_on', channel=3, note=54, velocity=100, time=14)
Message('note_off', channel=3, note=54, velocity=0, time=34)
Message('note_on', channel=3, note=57, velocity=120, time=14)
Message('note_off', channel=3, note=57, velocity=0, time=44)
Message('note_on', channel=3, note=56, velocity=110, time=4)
Message('note_off', channel=3, note=56, velocity=0, time=22)
Message('note_on', channel=3, note=57, velocity=127, time=2)
Message('note_off', channel=3, note=57, velocity=0, time=206)
Message('note_on', channel=3, note=57, velocity=120, time=10)
Message('note_off', channel=3, note=57, velocity=0, time=134)
Message('note_on', channel=3, note=69, velocity=100, time=10)
Message('note_off', channel=3, note=69, velocity=0, time=44)
Message('note_on', channel=3, note=65, velocity=120, time=4)
Message('note_off', channel=3, note=65, velocity=0, time=68)
Message('note_on', channel=3, note=66, velocity=100, time=4)
Message('note_off', channel=3, note=66, velocity=0, time=68)
Message('note_on', channel=3, note=68, velocity=110, time=4)
Message('note_on', channel=3, note=69, velocity=120, time=48)
Message('note_off', channel=3, note=68, velocity=0, time=10)
Message('note_off', channel=3, note=69, velocity=0, time=368)
Message('note_on', channel=3, note=57, velocity=120, time=6)
Message('note_off', channel=3, note=57, velocity=0, time=134)
Message('note_on', channel=3, note=69, velocity=120, time=10)
Message('note_off', channel=3, note=69, velocity=0, time=44)
Message('note_on', channel=3, note=68, velocity=120, time=4)
Message('note_off', channel=3, note=68, velocity=0, time=68)
Message('note_on', channel=3, note=69, velocity=100, time=4)
Message('note_off', channel=3, note=69, velocity=0, time=68)
Message('note_on', channel=3, note=71, velocity=120, time=4)
Message('note_off', channel=3, note=71, velocity=0, time=44)
Message('note_on', channel=3, note=73, velocity=120, time=4)
Message('note_off', channel=3, note=73, velocity=0, time=34)
Message('note_on', channel=3, note=66, velocity=100, time=14)
Message('note_off', channel=3, note=66, velocity=0, time=34)
Message('note_on', channel=3, note=64, velocity=120, time=14)
Message('note_off', channel=3, note=64, velocity=0, time=44)
Message('note_on', channel=3, note=64, velocity=110, time=4)
Message('note_off', channel=3, note=64, velocity=0, time=22)
Message('note_on', channel=3, note=66, velocity=110, time=2)
Message('note_off', channel=3, note=66, velocity=0, time=118)
Message('note_on', channel=3, note=68, velocity=110, time=2)
Message('note_off', channel=3, note=68, velocity=0, time=92)
Message('note_on', channel=3, note=69, velocity=120, time=4)
Message('note_off', channel=3, note=69, velocity=0, time=44)
Message('note_on', channel=3, note=62, velocity=110, time=4)
Message('note_off', channel=3, note=62, velocity=0, time=34)
Message('note_on', channel=3, note=64, velocity=120, time=62)
Message('note_off', channel=3, note=64, velocity=0, time=22)
Message('note_on', channel=3, note=66, velocity=110, time=2)
Message('note_off', channel=3, note=66, velocity=0, time=22)
Message('note_on', channel=3, note=64, velocity=120, time=2)
Message('note_off', channel=3, note=64, velocity=0, time=68)
Message('note_on', channel=3, note=68, velocity=100, time=4)
Message('note_off', channel=3, note=68, velocity=0, time=68)
Message('note_on', channel=3, note=69, velocity=110, time=4)
Message('note_off', channel=3, note=69, velocity=0, time=44)
Message('note_on', channel=3, note=71, velocity=120, time=4)
Message('note_off', channel=3, note=71, velocity=0, time=34)
Message('note_on', channel=3, note=64, velocity=100, time=14)
Message('note_off', channel=3, note=64, velocity=0, time=34)
Message('note_on', channel=3, note=68, velocity=120, time=14)
Message('note_off', channel=3, note=68, velocity=0, time=44)
Message('note_on', channel=3, note=68, velocity=110, time=4)
Message('note_off', channel=3, note=68, velocity=0, time=22)
Message('note_on', channel=3, note=69, velocity=127, time=2)
Message('note_off', channel=3, note=69, velocity=0, time=214)
Message('note_on', channel=3, note=74, velocity=120, time=9218)
Message('note_off', channel=3, note=74, velocity=0, time=134)
Message('note_on', channel=3, note=81, velocity=120, time=10)
Message('note_off', channel=3, note=81, velocity=0, time=44)
Message('note_on', channel=3, note=68, velocity=120, time=4)
Message('note_off', channel=3, note=68, velocity=0, time=68)
Message('note_on', channel=3, note=76, velocity=100, time=4)
Message('note_off', channel=3, note=76, velocity=0, time=68)
Message('note_on', channel=3, note=71, velocity=120, time=4)
Message('note_off', channel=3, note=71, velocity=0, time=44)
Message('note_on', channel=3, note=73, velocity=120, time=4)
Message('note_off', channel=3, note=73, velocity=0, time=34)
Message('note_on', channel=3, note=66, velocity=100, time=14)
Message('note_off', channel=3, note=66, velocity=0, time=34)
Message('note_on', channel=3, note=69, velocity=120, time=14)
Message('note_off', channel=3, note=69, velocity=0, time=44)
Message('note_on', channel=3, note=68, velocity=110, time=4)
Message('note_off', channel=3, note=68, velocity=0, time=22)
Message('note_on', channel=3, note=69, velocity=127, time=2)
Message('note_off', channel=3, note=69, velocity=0, time=206)
Message('note_on', channel=3, note=69, velocity=120, time=10)
Message('note_off', channel=3, note=69, velocity=0, time=134)
Message('note_on', channel=3, note=81, velocity=100, time=10)
Message('note_off', channel=3, note=81, velocity=0, time=44)
Message('note_on', channel=3, note=71, velocity=120, time=4)
Message('note_off', channel=3, note=71, velocity=0, time=68)
Message('note_on', channel=3, note=73, velocity=100, time=4)
Message('note_off', channel=3, note=73, velocity=0, time=68)
Message('note_on', channel=3, note=77, velocity=110, time=4)
Message('note_on', channel=3, note=81, velocity=120, time=48)
Message('note_off', channel=3, note=77, velocity=0, time=10)
Message('note_off', channel=3, note=81, velocity=0, time=368)
Message('note_on', channel=3, note=69, velocity=120, time=6)
Message('note_off', channel=3, note=69, velocity=0, time=134)
Message('note_on', channel=3, note=81, velocity=120, time=10)
Message('note_off', channel=3, note=81, velocity=0, time=44)
Message('note_on', channel=3, note=80, velocity=120, time=4)
Message('note_off', channel=3, note=80, velocity=0, time=68)
Message('note_on', channel=3, note=81, velocity=100, time=4)
Message('note_off', channel=3, note=81, velocity=0, time=68)
Message('note_on', channel=3, note=78, velocity=100, time=100)
Message('note_off', channel=3, note=78, velocity=0, time=34)
Message('note_on', channel=3, note=76, velocity=120, time=14)
Message('note_on', channel=3, note=83, velocity=120, time=40)
Message('note_off', channel=3, note=76, velocity=0, time=4)
Message('note_on', channel=3, note=76, velocity=110, time=4)
Message('note_off', channel=3, note=76, velocity=0, time=22)
Message('note_on', channel=3, note=78, velocity=110, time=2)
Message('note_off', channel=3, note=83, velocity=0, time=12)
Message('note_on', channel=3, note=85, velocity=120, time=4)
Message('note_off', channel=3, note=85, velocity=0, time=34)
Message('note_off', channel=3, note=78, velocity=0, time=68)
Message('note_on', channel=3, note=80, velocity=110, time=2)
Message('note_off', channel=3, note=80, velocity=0, time=92)
Message('note_on', channel=3, note=81, velocity=120, time=4)
Message('note_off', channel=3, note=81, velocity=0, time=44)
Message('note_on', channel=3, note=74, velocity=110, time=4)
Message('note_off', channel=3, note=74, velocity=0, time=34)
Message('note_on', channel=3, note=76, velocity=120, time=62)
Message('note_off', channel=3, note=76, velocity=0, time=22)
Message('note_on', channel=3, note=78, velocity=110, time=2)
Message('note_off', channel=3, note=78, velocity=0, time=22)
Message('note_on', channel=3, note=76, velocity=120, time=2)
Message('note_off', channel=3, note=76, velocity=0, time=68)
Message('note_on', channel=3, note=80, velocity=100, time=4)
Message('note_off', channel=3, note=80, velocity=0, time=68)
Message('note_on', channel=3, note=81, velocity=110, time=4)
Message('note_off', channel=3, note=81, velocity=0, time=44)
Message('note_on', channel=3, note=76, velocity=100, time=52)
Message('note_off', channel=3, note=76, velocity=0, time=34)
Message('note_on', channel=3, note=80, velocity=120, time=14)
Message('note_off', channel=3, note=80, velocity=0, time=44)
Message('note_on', channel=3, note=80, velocity=110, time=4)
Message('note_off', channel=3, note=80, velocity=0, time=22)
Message('note_on', channel=3, note=81, velocity=127, time=2)
Message('note_on', channel=3, note=83, velocity=120, time=16)
Message('note_off', channel=3, note=83, velocity=0, time=34)
Message('note_off', channel=3, note=81, velocity=0, time=164)
Message('note_on', channel=3, note=74, velocity=120, time=2)
Message('note_off', channel=3, note=74, velocity=0, time=134)
Message('note_on', channel=3, note=81, velocity=120, time=10)
Message('note_off', channel=3, note=81, velocity=0, time=44)
Message('note_on', channel=3, note=68, velocity=120, time=4)
Message('note_off', channel=3, note=68, velocity=0, time=68)
Message('note_on', channel=3, note=76, velocity=100, time=4)
Message('note_off', channel=3, note=76, velocity=0, time=68)
Message('note_on', channel=3, note=71, velocity=120, time=4)
Message('note_off', channel=3, note=71, velocity=0, time=44)
Message('note_on', channel=3, note=73, velocity=120, time=4)
Message('note_off', channel=3, note=73, velocity=0, time=34)
Message('note_on', channel=3, note=66, velocity=100, time=14)
Message('note_off', channel=3, note=66, velocity=0, time=34)
Message('note_on', channel=3, note=69, velocity=120, time=14)
Message('note_off', channel=3, note=69, velocity=0, time=44)
Message('note_on', channel=3, note=68, velocity=110, time=4)
Message('note_off', channel=3, note=68, velocity=0, time=22)
Message('note_on', channel=3, note=69, velocity=127, time=2)
Message('note_off', channel=3, note=69, velocity=0, time=206)
Message('note_on', channel=3, note=69, velocity=120, time=10)
Message('note_off', channel=3, note=69, velocity=0, time=134)
Message('note_on', channel=3, note=81, velocity=100, time=10)
Message('note_off', channel=3, note=81, velocity=0, time=44)
Message('note_on', channel=3, note=71, velocity=120, time=4)
Message('note_off', channel=3, note=71, velocity=0, time=68)
Message('note_on', channel=3, note=73, velocity=100, time=4)
Message('note_off', channel=3, note=73, velocity=0, time=68)
Message('note_on', channel=3, note=77, velocity=110, time=4)
Message('note_on', channel=3, note=81, velocity=120, time=48)
Message('note_off', channel=3, note=77, velocity=0, time=10)
Message('note_off', channel=3, note=81, velocity=0, time=368)
Message('note_on', channel=3, note=69, velocity=120, time=6)
Message('note_off', channel=3, note=69, velocity=0, time=134)
Message('note_on', channel=3, note=81, velocity=120, time=10)
Message('note_off', channel=3, note=81, velocity=0, time=44)
Message('note_on', channel=3, note=80, velocity=120, time=4)
Message('note_off', channel=3, note=80, velocity=0, time=68)
Message('note_on', channel=3, note=81, velocity=100, time=4)
Message('note_off', channel=3, note=81, velocity=0, time=68)
Message('note_on', channel=3, note=78, velocity=100, time=100)
Message('note_off', channel=3, note=78, velocity=0, time=34)
Message('note_on', channel=3, note=76, velocity=120, time=14)
Message('note_on', channel=3, note=83, velocity=120, time=40)
Message('note_off', channel=3, note=76, velocity=0, time=4)
Message('note_on', channel=3, note=76, velocity=110, time=4)
Message('note_off', channel=3, note=76, velocity=0, time=22)
Message('note_on', channel=3, note=78, velocity=110, time=2)
Message('note_off', channel=3, note=83, velocity=0, time=12)
Message('note_on', channel=3, note=85, velocity=120, time=4)
Message('note_off', channel=3, note=85, velocity=0, time=34)
Message('note_off', channel=3, note=78, velocity=0, time=68)
Message('note_on', channel=3, note=80, velocity=110, time=2)
Message('note_off', channel=3, note=80, velocity=0, time=92)
Message('note_on', channel=3, note=81, velocity=120, time=4)
Message('note_off', channel=3, note=81, velocity=0, time=44)
Message('note_on', channel=3, note=74, velocity=110, time=4)
Message('note_off', channel=3, note=74, velocity=0, time=34)
Message('note_on', channel=3, note=76, velocity=120, time=62)
Message('note_off', channel=3, note=76, velocity=0, time=22)
Message('note_on', channel=3, note=78, velocity=110, time=2)
Message('note_off', channel=3, note=78, velocity=0, time=22)
Message('note_on', channel=3, note=76, velocity=120, time=2)
Message('note_off', channel=3, note=76, velocity=0, time=68)
Message('note_on', channel=3, note=80, velocity=100, time=4)
Message('note_off', channel=3, note=80, velocity=0, time=68)
Message('note_on', channel=3, note=81, velocity=110, time=4)
Message('note_off', channel=3, note=81, velocity=0, time=44)
Message('note_on', channel=3, note=76, velocity=100, time=52)
Message('note_off', channel=3, note=76, velocity=0, time=34)
Message('note_on', channel=3, note=80, velocity=120, time=14)
Message('note_off', channel=3, note=80, velocity=0, time=44)
Message('note_on', channel=3, note=80, velocity=110, time=4)
Message('note_off', channel=3, note=80, velocity=0, time=22)
Message('note_on', channel=3, note=81, velocity=127, time=2)
Message('note_on', channel=3, note=83, velocity=120, time=16)
Message('note_off', channel=3, note=83, velocity=0, time=34)
Message('note_off', channel=3, note=81, velocity=0, time=164)
Message('note_on', channel=3, note=74, velocity=120, time=2)
Message('note_off', channel=3, note=74, velocity=0, time=134)
Message('note_on', channel=3, note=81, velocity=120, time=10)
Message('note_off', channel=3, note=81, velocity=0, time=44)
Message('note_on', channel=3, note=68, velocity=120, time=4)
Message('note_off', channel=3, note=68, velocity=0, time=68)
Message('note_on', channel=3, note=76, velocity=100, time=4)
Message('note_off', channel=3, note=76, velocity=0, time=68)
Message('note_on', channel=3, note=71, velocity=120, time=4)
Message('note_off', channel=3, note=71, velocity=0, time=44)
Message('note_on', channel=3, note=73, velocity=120, time=4)
Message('note_off', channel=3, note=73, velocity=0, time=34)
Message('note_on', channel=3, note=66, velocity=100, time=14)
Message('note_off', channel=3, note=66, velocity=0, time=34)
Message('note_on', channel=3, note=69, velocity=120, time=14)
Message('note_off', channel=3, note=69, velocity=0, time=44)
Message('note_on', channel=3, note=68, velocity=110, time=4)
Message('note_off', channel=3, note=68, velocity=0, time=22)
Message('note_on', channel=3, note=69, velocity=127, time=2)
Message('note_off', channel=3, note=69, velocity=0, time=206)
Message('note_on', channel=3, note=69, velocity=120, time=10)
Message('note_off', channel=3, note=69, velocity=0, time=134)
Message('note_on', channel=3, note=81, velocity=100, time=10)
Message('note_off', channel=3, note=81, velocity=0, time=44)
Message('note_on', channel=3, note=71, velocity=120, time=4)
Message('note_off', channel=3, note=71, velocity=0, time=68)
Message('note_on', channel=3, note=73, velocity=100, time=4)
Message('note_off', channel=3, note=73, velocity=0, time=68)
Message('note_on', channel=3, note=77, velocity=110, time=4)
Message('note_on', channel=3, note=81, velocity=120, time=48)
Message('note_off', channel=3, note=77, velocity=0, time=10)
Message('note_off', channel=3, note=81, velocity=0, time=368)
Message('note_on', channel=3, note=69, velocity=120, time=6)
Message('note_off', channel=3, note=69, velocity=0, time=134)
Message('note_on', channel=3, note=81, velocity=120, time=10)
Message('note_off', channel=3, note=81, velocity=0, time=44)
Message('note_on', channel=3, note=80, velocity=120, time=4)
Message('note_off', channel=3, note=80, velocity=0, time=68)
Message('note_on', channel=3, note=81, velocity=100, time=4)
Message('note_off', channel=3, note=81, velocity=0, time=68)
Message('note_on', channel=3, note=78, velocity=100, time=100)
Message('note_off', channel=3, note=78, velocity=0, time=34)
Message('note_on', channel=3, note=76, velocity=120, time=14)
Message('note_on', channel=3, note=83, velocity=120, time=40)
Message('note_off', channel=3, note=76, velocity=0, time=4)
Message('note_on', channel=3, note=76, velocity=110, time=4)
Message('note_off', channel=3, note=76, velocity=0, time=22)
Message('note_on', channel=3, note=78, velocity=110, time=2)
Message('note_off', channel=3, note=83, velocity=0, time=12)
Message('note_on', channel=3, note=85, velocity=120, time=4)
Message('note_off', channel=3, note=85, velocity=0, time=34)
Message('note_off', channel=3, note=78, velocity=0, time=68)
Message('note_on', channel=3, note=80, velocity=110, time=2)
Message('note_off', channel=3, note=80, velocity=0, time=92)
Message('note_on', channel=3, note=81, velocity=120, time=4)
Message('note_off', channel=3, note=81, velocity=0, time=44)
Message('note_on', channel=3, note=74, velocity=110, time=4)
Message('note_off', channel=3, note=74, velocity=0, time=34)
Message('note_on', channel=3, note=76, velocity=120, time=62)
Message('note_off', channel=3, note=76, velocity=0, time=22)
Message('note_on', channel=3, note=78, velocity=110, time=2)
Message('note_off', channel=3, note=78, velocity=0, time=22)
Message('note_on', channel=3, note=76, velocity=120, time=2)
Message('note_off', channel=3, note=76, velocity=0, time=68)
Message('note_on', channel=3, note=80, velocity=100, time=4)
Message('note_off', channel=3, note=80, velocity=0, time=68)
Message('note_on', channel=3, note=81, velocity=110, time=4)
Message('note_off', channel=3, note=81, velocity=0, time=44)
Message('note_on', channel=3, note=76, velocity=100, time=52)
Message('note_off', channel=3, note=76, velocity=0, time=34)
Message('note_on', channel=3, note=80, velocity=120, time=14)
Message('note_off', channel=3, note=80, velocity=0, time=44)
Message('note_on', channel=3, note=80, velocity=110, time=4)
Message('note_off', channel=3, note=80, velocity=0, time=22)
Message('note_on', channel=3, note=81, velocity=127, time=2)
Message('note_on', channel=3, note=83, velocity=120, time=16)
Message('note_off', channel=3, note=83, velocity=0, time=34)
Message('note_off', channel=3, note=81, velocity=0, time=164)
Message('note_on', channel=3, note=74, velocity=120, time=2)
Message('note_off', channel=3, note=74, velocity=0, time=134)
Message('note_on', channel=3, note=81, velocity=120, time=10)
Message('note_off', channel=3, note=81, velocity=0, time=44)
Message('note_on', channel=3, note=68, velocity=120, time=4)
Message('note_off', channel=3, note=68, velocity=0, time=68)
Message('note_on', channel=3, note=76, velocity=100, time=4)
Message('note_off', channel=3, note=76, velocity=0, time=68)
Message('note_on', channel=3, note=71, velocity=120, time=4)
Message('note_off', channel=3, note=71, velocity=0, time=44)
Message('note_on', channel=3, note=73, velocity=120, time=4)
Message('note_off', channel=3, note=73, velocity=0, time=34)
Message('note_on', channel=3, note=66, velocity=100, time=14)
Message('note_off', channel=3, note=66, velocity=0, time=34)
Message('note_on', channel=3, note=69, velocity=120, time=14)
Message('note_off', channel=3, note=69, velocity=0, time=44)
Message('note_on', channel=3, note=68, velocity=110, time=4)
Message('note_off', channel=3, note=68, velocity=0, time=22)
Message('note_on', channel=3, note=69, velocity=127, time=2)
Message('note_off', channel=3, note=69, velocity=0, time=206)
Message('note_on', channel=3, note=69, velocity=120, time=10)
Message('note_off', channel=3, note=69, velocity=0, time=134)
Message('note_on', channel=3, note=81, velocity=100, time=10)
Message('note_off', channel=3, note=81, velocity=0, time=44)
Message('note_on', channel=3, note=71, velocity=120, time=4)
Message('note_off', channel=3, note=71, velocity=0, time=68)
Message('note_on', channel=3, note=73, velocity=100, time=4)
Message('note_off', channel=3, note=73, velocity=0, time=68)
Message('note_on', channel=3, note=77, velocity=110, time=4)
Message('note_on', channel=3, note=81, velocity=120, time=48)
Message('note_off', channel=3, note=77, velocity=0, time=10)
Message('note_off', channel=3, note=81, velocity=0, time=368)
Message('note_on', channel=3, note=69, velocity=120, time=6)
Message('note_off', channel=3, note=69, velocity=0, time=134)
Message('note_on', channel=3, note=81, velocity=120, time=10)
Message('note_off', channel=3, note=81, velocity=0, time=44)
Message('note_on', channel=3, note=80, velocity=120, time=4)
Message('note_off', channel=3, note=80, velocity=0, time=68)
Message('note_on', channel=3, note=81, velocity=100, time=4)
Message('note_off', channel=3, note=81, velocity=0, time=68)
Message('note_on', channel=3, note=78, velocity=100, time=100)
Message('note_off', channel=3, note=78, velocity=0, time=34)
Message('note_on', channel=3, note=76, velocity=120, time=14)
Message('note_on', channel=3, note=83, velocity=120, time=40)
Message('note_off', channel=3, note=76, velocity=0, time=4)
Message('note_on', channel=3, note=76, velocity=110, time=4)
Message('note_off', channel=3, note=76, velocity=0, time=22)
Message('note_on', channel=3, note=78, velocity=110, time=2)
Message('note_off', channel=3, note=83, velocity=0, time=12)
Message('note_on', channel=3, note=85, velocity=120, time=4)
Message('note_off', channel=3, note=85, velocity=0, time=34)
Message('note_off', channel=3, note=78, velocity=0, time=68)
Message('note_on', channel=3, note=80, velocity=110, time=2)
Message('note_off', channel=3, note=80, velocity=0, time=92)
Message('note_on', channel=3, note=81, velocity=120, time=4)
Message('note_off', channel=3, note=81, velocity=0, time=44)
Message('note_on', channel=3, note=74, velocity=110, time=4)
Message('note_off', channel=3, note=74, velocity=0, time=34)
Message('note_on', channel=3, note=76, velocity=120, time=62)
Message('note_off', channel=3, note=76, velocity=0, time=22)
Message('note_on', channel=3, note=78, velocity=110, time=2)
Message('note_off', channel=3, note=78, velocity=0, time=22)
Message('note_on', channel=3, note=76, velocity=120, time=2)
Message('note_off', channel=3, note=76, velocity=0, time=68)
Message('note_on', channel=3, note=80, velocity=100, time=4)
Message('note_off', channel=3, note=80, velocity=0, time=68)
Message('note_on', channel=3, note=81, velocity=110, time=4)
Message('note_off', channel=3, note=81, velocity=0, time=44)
Message('note_on', channel=3, note=76, velocity=100, time=52)
Message('note_off', channel=3, note=76, velocity=0, time=34)
Message('note_on', channel=3, note=80, velocity=120, time=14)
Message('note_off', channel=3, note=80, velocity=0, time=44)
Message('note_on', channel=3, note=80, velocity=110, time=4)
Message('note_off', channel=3, note=80, velocity=0, time=22)
Message('note_on', channel=3, note=81, velocity=127, time=2)
Message('note_on', channel=3, note=83, velocity=120, time=16)
Message('note_off', channel=3, note=83, velocity=0, time=34)
Message('note_off', channel=3, note=81, velocity=0, time=164)
Message('control_change', channel=3, control=101, value=0, time=386)
Message('control_change', channel=3, control=100, value=0, time=0)
Message('control_change', channel=3, control=6, value=12, time=0)
Message('control_change', channel=3, control=10, value=52, time=0)
Message('control_change', channel=3, control=7, value=91, time=0)
Message('pitchwheel', channel=3, pitch=0, time=0)
Message('program_change', channel=3, program=110, time=0)
Message('control_change', channel=3, control=91, value=60, time=0)
Message('control_change', channel=3, control=93, value=30, time=0)
Message('control_change', channel=3, control=101, value=0, time=1)
Message('control_change', channel=3, control=100, value=0, time=0)
Message('control_change', channel=3, control=6, value=12, time=0)
Message('control_change', channel=3, control=10, value=52, time=0)
Message('control_change', channel=3, control=7, value=91, time=0)
Message('pitchwheel', channel=3, pitch=0, time=0)
Message('program_change', channel=3, program=110, time=0)
Message('control_change', channel=3, control=91, value=60, time=0)
Message('control_change', channel=3, control=93, value=30, time=0)
Message('control_change', channel=3, control=101, value=0, time=0)
Message('control_change', channel=3, control=100, value=0, time=0)
Message('control_change', channel=3, control=6, value=12, time=0)
Message('control_change', channel=3, control=10, value=52, time=0)
Message('control_change', channel=3, control=7, value=91, time=0)
Message('pitchwheel', channel=3, pitch=0, time=0)
Message('program_change', channel=3, program=110, time=0)
Message('control_change', channel=3, control=91, value=60, time=0)
Message('control_change', channel=3, control=93, value=30, time=0)
MetaMessage('end_of_track', time=0)
=== Track 6
MetaMessage('track_name', name='Channel #5', time=0)
Message('control_change', channel=4, control=10, value=30, time=0)
Message('control_change', channel=4, control=7, value=103, time=0)
Message('pitchwheel', channel=4, pitch=0, time=0)
Message('control_change', channel=4, control=101, value=0, time=0)
Message('control_change', channel=4, control=100, value=0, time=0)
Message('control_change', channel=4, control=6, value=12, time=0)
Message('control_change', channel=4, control=10, value=30, time=0)
Message('control_change', channel=4, control=7, value=103, time=0)
Message('pitchwheel', channel=4, pitch=0, time=0)
Message('program_change', channel=4, program=1, time=0)
Message('control_change', channel=4, control=91, value=90, time=0)
Message('control_change', channel=4, control=93, value=20, time=0)
Message('control_change', channel=4, control=101, value=0, time=0)
Message('control_change', channel=4, control=100, value=0, time=0)
Message('control_change', channel=4, control=6, value=12, time=0)
Message('control_change', channel=4, control=10, value=30, time=0)
Message('control_change', channel=4, control=7, value=103, time=0)
Message('pitchwheel', channel=4, pitch=0, time=0)
Message('program_change', channel=4, program=1, time=0)
Message('control_change', channel=4, control=91, value=90, time=0)
Message('control_change', channel=4, control=93, value=20, time=0)
Message('control_change', channel=4, control=10, value=30, time=0)
Message('control_change', channel=4, control=7, value=103, time=0)
Message('pitchwheel', channel=4, pitch=0, time=0)
Message('program_change', channel=4, program=1, time=0)
Message('control_change', channel=4, control=91, value=90, time=0)
Message('control_change', channel=4, control=93, value=20, time=0)
Message('control_change', channel=4, control=101, value=0, time=0)
Message('control_change', channel=4, control=100, value=0, time=0)
Message('control_change', channel=4, control=6, value=12, time=0)
Message('control_change', channel=4, control=10, value=30, time=0)
Message('control_change', channel=4, control=7, value=103, time=0)
Message('pitchwheel', channel=4, pitch=0, time=0)
Message('program_change', channel=4, program=1, time=0)
Message('control_change', channel=4, control=91, value=90, time=0)
Message('control_change', channel=4, control=93, value=20, time=0)
Message('control_change', channel=4, control=10, value=30, time=0)
Message('control_change', channel=4, control=7, value=103, time=0)
Message('pitchwheel', channel=4, pitch=0, time=0)
Message('program_change', channel=4, program=1, time=0)
Message('control_change', channel=4, control=91, value=90, time=0)
Message('control_change', channel=4, control=93, value=20, time=0)
Message('control_change', channel=4, control=7, value=105, time=346)
Message('control_change', channel=4, control=7, value=103, time=27)
Message('note_on', channel=4, note=50, velocity=60, time=11)
Message('note_off', channel=4, note=50, velocity=0, time=68)
Message('note_on', channel=4, note=57, velocity=60, time=4)
Message('note_off', channel=4, note=57, velocity=0, time=116)
Message('note_on', channel=4, note=56, velocity=60, time=4)
Message('note_off', channel=4, note=56, velocity=0, time=68)
Message('note_on', channel=4, note=59, velocity=60, time=4)
Message('note_off', channel=4, note=59, velocity=0, time=68)
Message('note_on', channel=4, note=64, velocity=60, time=4)
Message('note_off', channel=4, note=64, velocity=0, time=44)
Message('note_on', channel=4, note=66, velocity=60, time=4)
Message('note_off', channel=4, note=66, velocity=0, time=30)
Message('note_on', channel=4, note=71, velocity=60, time=6)
Message('note_off', channel=4, note=71, velocity=0, time=30)
Message('note_on', channel=4, note=57, velocity=60, time=6)
Message('note_off', channel=4, note=57, velocity=0, time=22)
Message('note_on', channel=4, note=64, velocity=60, time=2)
Message('note_off', channel=4, note=64, velocity=0, time=30)
Message('note_on', channel=4, note=59, velocity=60, time=6)
Message('note_off', channel=4, note=59, velocity=0, time=30)
Message('note_on', channel=4, note=56, velocity=60, time=6)
Message('note_off', channel=4, note=56, velocity=0, time=22)
Message('note_on', channel=4, note=57, velocity=60, time=2)
Message('note_off', channel=4, note=57, velocity=0, time=182)
Message('note_on', channel=4, note=54, velocity=60, time=10)
Message('note_off', channel=4, note=54, velocity=0, time=68)
Message('note_on', channel=4, note=62, velocity=60, time=4)
Message('note_off', channel=4, note=62, velocity=0, time=70)
Message('note_on', channel=4, note=57, velocity=60, time=2)
Message('note_off', channel=4, note=57, velocity=0, time=44)
Message('note_on', channel=4, note=65, velocity=60, time=4)
Message('note_off', channel=4, note=65, velocity=0, time=68)
Message('note_on', channel=4, note=59, velocity=60, time=4)
Message('note_off', channel=4, note=59, velocity=0, time=68)
Message('note_on', channel=4, note=68, velocity=60, time=4)
Message('note_off', channel=4, note=68, velocity=0, time=44)
Message('note_on', channel=4, note=57, velocity=60, time=4)
Message('note_off', channel=4, note=57, velocity=0, time=182)
Message('note_on', channel=4, note=61, velocity=60, time=10)
Message('note_off', channel=4, note=61, velocity=0, time=30)
Message('note_on', channel=4, note=69, velocity=60, time=6)
Message('note_off', channel=4, note=69, velocity=0, time=30)
Message('note_on', channel=4, note=68, velocity=60, time=6)
Message('note_off', channel=4, note=68, velocity=0, time=22)
Message('note_on', channel=4, note=59, velocity=60, time=2)
Message('note_off', channel=4, note=59, velocity=0, time=30)
Message('note_on', channel=4, note=68, velocity=60, time=6)
Message('note_off', channel=4, note=68, velocity=0, time=30)
Message('note_on', channel=4, note=66, velocity=60, time=6)
Message('note_off', channel=4, note=66, velocity=0, time=22)
Message('note_on', channel=4, note=66, velocity=60, time=2)
Message('note_off', channel=4, note=66, velocity=0, time=22)
Message('note_on', channel=4, note=62, velocity=60, time=2)
Message('note_off', channel=4, note=62, velocity=0, time=22)
Message('note_on', channel=4, note=57, velocity=60, time=2)
Message('note_off', channel=4, note=57, velocity=0, time=22)
Message('note_on', channel=4, note=62, velocity=60, time=2)
Message('note_off', channel=4, note=62, velocity=0, time=22)
Message('note_on', channel=4, note=69, velocity=60, time=2)
Message('note_off', channel=4, note=69, velocity=0, time=22)
Message('note_on', channel=4, note=66, velocity=60, time=2)
Message('note_off', channel=4, note=66, velocity=0, time=22)
Message('note_on', channel=4, note=62, velocity=60, time=2)
Message('note_off', channel=4, note=62, velocity=0, time=22)
Message('note_on', channel=4, note=57, velocity=60, time=2)
Message('note_off', channel=4, note=57, velocity=0, time=22)
Message('note_on', channel=4, note=59, velocity=60, time=2)
Message('note_off', channel=4, note=59, velocity=0, time=22)
Message('note_on', channel=4, note=64, velocity=60, time=2)
Message('note_off', channel=4, note=64, velocity=0, time=22)
Message('note_on', channel=4, note=68, velocity=60, time=2)
Message('note_off', channel=4, note=68, velocity=0, time=22)
Message('note_on', channel=4, note=71, velocity=60, time=2)
Message('note_off', channel=4, note=71, velocity=0, time=22)
Message('note_on', channel=4, note=68, velocity=60, time=2)
Message('note_off', channel=4, note=68, velocity=0, time=22)
Message('note_on', channel=4, note=71, velocity=60, time=2)
Message('note_off', channel=4, note=71, velocity=0, time=22)
Message('note_on', channel=4, note=76, velocity=60, time=2)
Message('note_off', channel=4, note=76, velocity=0, time=22)
Message('note_on', channel=4, note=71, velocity=60, time=2)
Message('note_off', channel=4, note=71, velocity=0, time=22)
Message('note_on', channel=4, note=73, velocity=60, time=2)
Message('note_off', channel=4, note=73, velocity=0, time=22)
Message('note_on', channel=4, note=69, velocity=60, time=2)
Message('note_off', channel=4, note=69, velocity=0, time=22)
Message('note_on', channel=4, note=66, velocity=60, time=2)
Message('note_off', channel=4, note=66, velocity=0, time=22)
Message('note_on', channel=4, note=71, velocity=60, time=2)
Message('note_off', channel=4, note=71, velocity=0, time=22)
Message('note_on', channel=4, note=68, velocity=60, time=2)
Message('note_off', channel=4, note=68, velocity=0, time=22)
Message('note_on', channel=4, note=64, velocity=60, time=2)
Message('note_off', channel=4, note=64, velocity=0, time=22)
Message('note_on', channel=4, note=69, velocity=60, time=2)
Message('note_off', channel=4, note=69, velocity=0, time=22)
Message('note_on', channel=4, note=66, velocity=60, time=2)
Message('note_off', channel=4, note=66, velocity=0, time=22)
Message('note_on', channel=4, note=61, velocity=60, time=2)
Message('note_off', channel=4, note=61, velocity=0, time=22)
Message('note_on', channel=4, note=68, velocity=60, time=2)
Message('note_off', channel=4, note=68, velocity=0, time=22)
Message('note_on', channel=4, note=64, velocity=60, time=2)
Message('note_off', channel=4, note=64, velocity=0, time=22)
Message('note_on', channel=4, note=59, velocity=60, time=2)
Message('note_off', channel=4, note=59, velocity=0, time=22)
Message('note_on', channel=4, note=66, velocity=60, time=2)
Message('note_off', channel=4, note=66, velocity=0, time=22)
Message('note_on', channel=4, note=57, velocity=60, time=2)
Message('note_off', channel=4, note=57, velocity=0, time=22)
Message('note_on', channel=4, note=69, velocity=60, time=2)
Message('note_off', channel=4, note=69, velocity=0, time=22)
Message('note_on', channel=4, note=64, velocity=60, time=2)
Message('note_off', channel=4, note=64, velocity=0, time=22)
Message('note_on', channel=4, note=69, velocity=60, time=2)
Message('note_off', channel=4, note=69, velocity=0, time=22)
Message('note_on', channel=4, note=66, velocity=60, time=2)
Message('note_off', channel=4, note=66, velocity=0, time=22)
Message('note_on', channel=4, note=62, velocity=60, time=2)
Message('note_off', channel=4, note=62, velocity=0, time=22)
Message('note_on', channel=4, note=69, velocity=60, time=2)
Message('note_off', channel=4, note=69, velocity=0, time=22)
Message('note_on', channel=4, note=66, velocity=60, time=2)
Message('note_off', channel=4, note=66, velocity=0, time=22)
Message('note_on', channel=4, note=62, velocity=60, time=2)
Message('note_off', channel=4, note=62, velocity=0, time=22)
Message('note_on', channel=4, note=74, velocity=60, time=2)
Message('note_off', channel=4, note=74, velocity=0, time=22)
Message('note_on', channel=4, note=69, velocity=60, time=2)
Message('note_off', channel=4, note=69, velocity=0, time=22)
Message('note_on', channel=4, note=68, velocity=60, time=2)
Message('note_off', channel=4, note=68, velocity=0, time=22)
Message('note_on', channel=4, note=64, velocity=60, time=2)
Message('note_off', channel=4, note=64, velocity=0, time=22)
Message('note_on', channel=4, note=59, velocity=60, time=2)
Message('note_off', channel=4, note=59, velocity=0, time=22)
Message('note_on', channel=4, note=68, velocity=60, time=2)
Message('note_off', channel=4, note=68, velocity=0, time=22)
Message('note_on', channel=4, note=64, velocity=60, time=2)
Message('note_off', channel=4, note=64, velocity=0, time=22)
Message('note_on', channel=4, note=59, velocity=60, time=2)
Message('note_off', channel=4, note=59, velocity=0, time=22)
Message('note_on', channel=4, note=71, velocity=60, time=2)
Message('note_off', channel=4, note=71, velocity=0, time=22)
Message('note_on', channel=4, note=68, velocity=60, time=2)
Message('note_off', channel=4, note=68, velocity=0, time=22)
Message('note_on', channel=4, note=69, velocity=60, time=2)
Message('note_off', channel=4, note=69, velocity=0, time=22)
Message('note_on', channel=4, note=73, velocity=60, time=2)
Message('note_off', channel=4, note=73, velocity=0, time=22)
Message('note_on', channel=4, note=78, velocity=60, time=2)
Message('note_off', channel=4, note=78, velocity=0, time=22)
Message('note_on', channel=4, note=71, velocity=60, time=2)
Message('note_off', channel=4, note=71, velocity=0, time=22)
Message('note_on', channel=4, note=76, velocity=60, time=2)
Message('note_off', channel=4, note=76, velocity=0, time=22)
Message('note_on', channel=4, note=80, velocity=60, time=2)
Message('note_off', channel=4, note=80, velocity=0, time=22)
Message('note_on', channel=4, note=73, velocity=60, time=2)
Message('note_off', channel=4, note=73, velocity=0, time=22)
Message('note_on', channel=4, note=78, velocity=60, time=2)
Message('note_off', channel=4, note=78, velocity=0, time=22)
Message('note_on', channel=4, note=81, velocity=60, time=2)
Message('note_off', channel=4, note=81, velocity=0, time=22)
Message('note_on', channel=4, note=80, velocity=60, time=2)
Message('note_off', channel=4, note=80, velocity=0, time=22)
Message('note_on', channel=4, note=76, velocity=60, time=2)
Message('note_off', channel=4, note=76, velocity=0, time=22)
Message('note_on', channel=4, note=71, velocity=60, time=2)
Message('note_off', channel=4, note=71, velocity=0, time=22)
Message('note_on', channel=4, note=78, velocity=60, time=2)
Message('note_off', channel=4, note=78, velocity=0, time=22)
Message('note_on', channel=4, note=73, velocity=60, time=2)
Message('note_off', channel=4, note=73, velocity=0, time=22)
Message('note_on', channel=4, note=69, velocity=60, time=2)
Message('note_off', channel=4, note=69, velocity=0, time=22)
Message('note_on', channel=4, note=68, velocity=60, time=2)
Message('note_off', channel=4, note=68, velocity=0, time=22)
Message('note_on', channel=4, note=66, velocity=100, time=2)
Message('note_off', channel=4, note=66, velocity=0, time=22)
Message('note_on', channel=4, note=62, velocity=100, time=2)
Message('note_off', channel=4, note=62, velocity=0, time=22)
Message('note_on', channel=4, note=57, velocity=100, time=2)
Message('note_off', channel=4, note=57, velocity=0, time=22)
Message('note_on', channel=4, note=62, velocity=100, time=2)
Message('note_off', channel=4, note=62, velocity=0, time=22)
Message('note_on', channel=4, note=69, velocity=100, time=2)
Message('note_off', channel=4, note=69, velocity=0, time=22)
Message('note_on', channel=4, note=66, velocity=100, time=2)
Message('note_off', channel=4, note=66, velocity=0, time=22)
Message('note_on', channel=4, note=62, velocity=100, time=2)
Message('note_off', channel=4, note=62, velocity=0, time=22)
Message('note_on', channel=4, note=57, velocity=100, time=2)
Message('note_off', channel=4, note=57, velocity=0, time=22)
Message('note_on', channel=4, note=59, velocity=100, time=2)
Message('note_off', channel=4, note=59, velocity=0, time=22)
Message('note_on', channel=4, note=64, velocity=100, time=2)
Message('note_off', channel=4, note=64, velocity=0, time=22)
Message('note_on', channel=4, note=68, velocity=100, time=2)
Message('note_off', channel=4, note=68, velocity=0, time=22)
Message('note_on', channel=4, note=71, velocity=100, time=2)
Message('note_off', channel=4, note=71, velocity=0, time=22)
Message('note_on', channel=4, note=68, velocity=100, time=2)
Message('note_off', channel=4, note=68, velocity=0, time=22)
Message('note_on', channel=4, note=71, velocity=100, time=2)
Message('note_off', channel=4, note=71, velocity=0, time=22)
Message('note_on', channel=4, note=76, velocity=100, time=2)
Message('note_off', channel=4, note=76, velocity=0, time=22)
Message('note_on', channel=4, note=71, velocity=100, time=2)
Message('note_off', channel=4, note=71, velocity=0, time=22)
Message('note_on', channel=4, note=73, velocity=100, time=2)
Message('note_off', channel=4, note=73, velocity=0, time=22)
Message('note_on', channel=4, note=69, velocity=100, time=2)
Message('note_off', channel=4, note=69, velocity=0, time=22)
Message('note_on', channel=4, note=66, velocity=100, time=2)
Message('note_off', channel=4, note=66, velocity=0, time=22)
Message('note_on', channel=4, note=71, velocity=100, time=2)
Message('note_off', channel=4, note=71, velocity=0, time=22)
Message('note_on', channel=4, note=68, velocity=100, time=2)
Message('note_off', channel=4, note=68, velocity=0, time=22)
Message('note_on', channel=4, note=64, velocity=100, time=2)
Message('note_off', channel=4, note=64, velocity=0, time=22)
Message('note_on', channel=4, note=69, velocity=100, time=2)
Message('note_off', channel=4, note=69, velocity=0, time=22)
Message('note_on', channel=4, note=66, velocity=100, time=2)
Message('note_off', channel=4, note=66, velocity=0, time=22)
Message('note_on', channel=4, note=61, velocity=100, time=2)
Message('note_off', channel=4, note=61, velocity=0, time=22)
Message('note_on', channel=4, note=68, velocity=100, time=2)
Message('note_off', channel=4, note=68, velocity=0, time=22)
Message('note_on', channel=4, note=64, velocity=100, time=2)
Message('note_off', channel=4, note=64, velocity=0, time=22)
Message('note_on', channel=4, note=59, velocity=100, time=2)
Message('note_off', channel=4, note=59, velocity=0, time=22)
Message('note_on', channel=4, note=66, velocity=100, time=2)
Message('note_off', channel=4, note=66, velocity=0, time=22)
Message('note_on', channel=4, note=57, velocity=100, time=2)
Message('note_off', channel=4, note=57, velocity=0, time=22)
Message('note_on', channel=4, note=69, velocity=100, time=2)
Message('note_off', channel=4, note=69, velocity=0, time=22)
Message('note_on', channel=4, note=64, velocity=100, time=2)
Message('note_off', channel=4, note=64, velocity=0, time=22)
Message('note_on', channel=4, note=69, velocity=100, time=2)
Message('note_off', channel=4, note=69, velocity=0, time=22)
Message('note_on', channel=4, note=66, velocity=100, time=2)
Message('note_off', channel=4, note=66, velocity=0, time=22)
Message('note_on', channel=4, note=62, velocity=100, time=2)
Message('note_off', channel=4, note=62, velocity=0, time=22)
Message('note_on', channel=4, note=69, velocity=100, time=2)
Message('note_off', channel=4, note=69, velocity=0, time=22)
Message('note_on', channel=4, note=66, velocity=100, time=2)
Message('note_off', channel=4, note=66, velocity=0, time=22)
Message('note_on', channel=4, note=62, velocity=100, time=2)
Message('note_off', channel=4, note=62, velocity=0, time=22)
Message('note_on', channel=4, note=74, velocity=100, time=2)
Message('note_off', channel=4, note=74, velocity=0, time=22)
Message('note_on', channel=4, note=69, velocity=100, time=2)
Message('note_off', channel=4, note=69, velocity=0, time=22)
Message('note_on', channel=4, note=68, velocity=100, time=2)
Message('note_off', channel=4, note=68, velocity=0, time=22)
Message('note_on', channel=4, note=64, velocity=100, time=2)
Message('note_off', channel=4, note=64, velocity=0, time=22)
Message('note_on', channel=4, note=59, velocity=100, time=2)
Message('note_off', channel=4, note=59, velocity=0, time=22)
Message('note_on', channel=4, note=68, velocity=100, time=2)
Message('note_off', channel=4, note=68, velocity=0, time=22)
Message('note_on', channel=4, note=64, velocity=100, time=2)
Message('note_off', channel=4, note=64, velocity=0, time=22)
Message('note_on', channel=4, note=59, velocity=100, time=2)
Message('note_off', channel=4, note=59, velocity=0, time=22)
Message('note_on', channel=4, note=71, velocity=100, time=2)
Message('note_off', channel=4, note=71, velocity=0, time=22)
Message('note_on', channel=4, note=68, velocity=100, time=2)
Message('note_off', channel=4, note=68, velocity=0, time=22)
Message('note_on', channel=4, note=69, velocity=100, time=2)
Message('note_off', channel=4, note=69, velocity=0, time=22)
Message('note_on', channel=4, note=73, velocity=100, time=2)
Message('note_off', channel=4, note=73, velocity=0, time=22)
Message('note_on', channel=4, note=78, velocity=100, time=2)
Message('note_off', channel=4, note=78, velocity=0, time=22)
Message('note_on', channel=4, note=71, velocity=100, time=2)
Message('note_off', channel=4, note=71, velocity=0, time=22)
Message('note_on', channel=4, note=76, velocity=100, time=2)
Message('note_off', channel=4, note=76, velocity=0, time=22)
Message('note_on', channel=4, note=80, velocity=100, time=2)
Message('note_off', channel=4, note=80, velocity=0, time=22)
Message('note_on', channel=4, note=73, velocity=100, time=2)
Message('note_off', channel=4, note=73, velocity=0, time=22)
Message('note_on', channel=4, note=78, velocity=100, time=2)
Message('note_off', channel=4, note=78, velocity=0, time=22)
Message('note_on', channel=4, note=81, velocity=100, time=2)
Message('note_off', channel=4, note=81, velocity=0, time=22)
Message('note_on', channel=4, note=80, velocity=100, time=2)
Message('note_off', channel=4, note=80, velocity=0, time=22)
Message('note_on', channel=4, note=76, velocity=100, time=2)
Message('note_off', channel=4, note=76, velocity=0, time=22)
Message('note_on', channel=4, note=71, velocity=100, time=2)
Message('note_off', channel=4, note=71, velocity=0, time=22)
Message('note_on', channel=4, note=78, velocity=100, time=2)
Message('note_off', channel=4, note=78, velocity=0, time=22)
Message('note_on', channel=4, note=73, velocity=100, time=2)
Message('note_off', channel=4, note=73, velocity=0, time=22)
Message('note_on', channel=4, note=69, velocity=100, time=2)
Message('note_off', channel=4, note=69, velocity=0, time=22)
Message('note_on', channel=4, note=68, velocity=100, time=2)
Message('note_off', channel=4, note=68, velocity=0, time=22)
Message('note_on', channel=4, note=66, velocity=100, time=2)
Message('note_off', channel=4, note=66, velocity=0, time=22)
Message('note_on', channel=4, note=62, velocity=100, time=2)
Message('note_off', channel=4, note=62, velocity=0, time=22)
Message('note_on', channel=4, note=57, velocity=100, time=2)
Message('note_off', channel=4, note=57, velocity=0, time=22)
Message('note_on', channel=4, note=62, velocity=100, time=2)
Message('note_off', channel=4, note=62, velocity=0, time=22)
Message('note_on', channel=4, note=69, velocity=100, time=2)
Message('note_off', channel=4, note=69, velocity=0, time=22)
Message('note_on', channel=4, note=66, velocity=100, time=2)
Message('note_off', channel=4, note=66, velocity=0, time=22)
Message('note_on', channel=4, note=62, velocity=100, time=2)
Message('note_off', channel=4, note=62, velocity=0, time=22)
Message('note_on', channel=4, note=57, velocity=100, time=2)
Message('note_off', channel=4, note=57, velocity=0, time=22)
Message('note_on', channel=4, note=59, velocity=100, time=2)
Message('note_off', channel=4, note=59, velocity=0, time=22)
Message('note_on', channel=4, note=64, velocity=100, time=2)
Message('note_off', channel=4, note=64, velocity=0, time=22)
Message('note_on', channel=4, note=68, velocity=100, time=2)
Message('note_off', channel=4, note=68, velocity=0, time=22)
Message('note_on', channel=4, note=71, velocity=100, time=2)
Message('note_off', channel=4, note=71, velocity=0, time=22)
Message('note_on', channel=4, note=68, velocity=100, time=2)
Message('note_off', channel=4, note=68, velocity=0, time=22)
Message('note_on', channel=4, note=71, velocity=100, time=2)
Message('note_off', channel=4, note=71, velocity=0, time=22)
Message('note_on', channel=4, note=76, velocity=100, time=2)
Message('note_off', channel=4, note=76, velocity=0, time=22)
Message('note_on', channel=4, note=71, velocity=100, time=2)
Message('note_off', channel=4, note=71, velocity=0, time=22)
Message('note_on', channel=4, note=73, velocity=100, time=2)
Message('note_off', channel=4, note=73, velocity=0, time=22)
Message('note_on', channel=4, note=69, velocity=100, time=2)
Message('note_off', channel=4, note=69, velocity=0, time=22)
Message('note_on', channel=4, note=66, velocity=100, time=2)
Message('note_off', channel=4, note=66, velocity=0, time=22)
Message('note_on', channel=4, note=71, velocity=100, time=2)
Message('note_off', channel=4, note=71, velocity=0, time=22)
Message('note_on', channel=4, note=68, velocity=100, time=2)
Message('note_off', channel=4, note=68, velocity=0, time=22)
Message('note_on', channel=4, note=64, velocity=100, time=2)
Message('note_off', channel=4, note=64, velocity=0, time=22)
Message('note_on', channel=4, note=69, velocity=100, time=2)
Message('note_off', channel=4, note=69, velocity=0, time=22)
Message('note_on', channel=4, note=66, velocity=100, time=2)
Message('note_off', channel=4, note=66, velocity=0, time=22)
Message('note_on', channel=4, note=61, velocity=100, time=2)
Message('note_off', channel=4, note=61, velocity=0, time=22)
Message('note_on', channel=4, note=68, velocity=100, time=2)
Message('note_off', channel=4, note=68, velocity=0, time=22)
Message('note_on', channel=4, note=64, velocity=100, time=2)
Message('note_off', channel=4, note=64, velocity=0, time=22)
Message('note_on', channel=4, note=59, velocity=100, time=2)
Message('note_off', channel=4, note=59, velocity=0, time=22)
Message('note_on', channel=4, note=66, velocity=100, time=2)
Message('note_off', channel=4, note=66, velocity=0, time=22)
Message('note_on', channel=4, note=57, velocity=100, time=2)
Message('note_off', channel=4, note=57, velocity=0, time=22)
Message('note_on', channel=4, note=69, velocity=100, time=2)
Message('note_off', channel=4, note=69, velocity=0, time=22)
Message('note_on', channel=4, note=64, velocity=100, time=2)
Message('note_off', channel=4, note=64, velocity=0, time=22)
Message('note_on', channel=4, note=69, velocity=100, time=2)
Message('note_off', channel=4, note=69, velocity=0, time=22)
Message('note_on', channel=4, note=66, velocity=100, time=2)
Message('note_off', channel=4, note=66, velocity=0, time=22)
Message('note_on', channel=4, note=62, velocity=100, time=2)
Message('note_off', channel=4, note=62, velocity=0, time=22)
Message('note_on', channel=4, note=69, velocity=100, time=2)
Message('note_off', channel=4, note=69, velocity=0, time=22)
Message('note_on', channel=4, note=66, velocity=100, time=2)
Message('note_off', channel=4, note=66, velocity=0, time=22)
Message('note_on', channel=4, note=62, velocity=100, time=2)
Message('note_off', channel=4, note=62, velocity=0, time=22)
Message('note_on', channel=4, note=74, velocity=100, time=2)
Message('note_off', channel=4, note=74, velocity=0, time=22)
Message('note_on', channel=4, note=69, velocity=100, time=2)
Message('note_off', channel=4, note=69, velocity=0, time=22)
Message('note_on', channel=4, note=68, velocity=100, time=2)
Message('note_off', channel=4, note=68, velocity=0, time=22)
Message('note_on', channel=4, note=64, velocity=100, time=2)
Message('note_off', channel=4, note=64, velocity=0, time=22)
Message('note_on', channel=4, note=59, velocity=100, time=2)
Message('note_off', channel=4, note=59, velocity=0, time=22)
Message('note_on', channel=4, note=68, velocity=100, time=2)
Message('note_off', channel=4, note=68, velocity=0, time=22)
Message('note_on', channel=4, note=64, velocity=100, time=2)
Message('note_off', channel=4, note=64, velocity=0, time=22)
Message('note_on', channel=4, note=59, velocity=100, time=2)
Message('note_off', channel=4, note=59, velocity=0, time=22)
Message('note_on', channel=4, note=71, velocity=100, time=2)
Message('note_off', channel=4, note=71, velocity=0, time=22)
Message('note_on', channel=4, note=68, velocity=100, time=2)
Message('note_off', channel=4, note=68, velocity=0, time=22)
Message('note_on', channel=4, note=69, velocity=100, time=2)
Message('note_off', channel=4, note=69, velocity=0, time=22)
Message('note_on', channel=4, note=73, velocity=100, time=2)
Message('note_off', channel=4, note=73, velocity=0, time=22)
Message('note_on', channel=4, note=78, velocity=100, time=2)
Message('note_off', channel=4, note=78, velocity=0, time=22)
Message('note_on', channel=4, note=71, velocity=100, time=2)
Message('note_off', channel=4, note=71, velocity=0, time=22)
Message('note_on', channel=4, note=76, velocity=100, time=2)
Message('note_off', channel=4, note=76, velocity=0, time=22)
Message('note_on', channel=4, note=80, velocity=100, time=2)
Message('note_off', channel=4, note=80, velocity=0, time=22)
Message('note_on', channel=4, note=73, velocity=100, time=2)
Message('note_off', channel=4, note=73, velocity=0, time=22)
Message('note_on', channel=4, note=78, velocity=100, time=2)
Message('note_off', channel=4, note=78, velocity=0, time=22)
Message('note_on', channel=4, note=81, velocity=100, time=2)
Message('note_off', channel=4, note=81, velocity=0, time=22)
Message('note_on', channel=4, note=80, velocity=100, time=2)
Message('note_off', channel=4, note=80, velocity=0, time=22)
Message('note_on', channel=4, note=76, velocity=100, time=2)
Message('note_off', channel=4, note=76, velocity=0, time=22)
Message('note_on', channel=4, note=71, velocity=100, time=2)
Message('note_off', channel=4, note=71, velocity=0, time=22)
Message('note_on', channel=4, note=78, velocity=100, time=2)
Message('note_off', channel=4, note=78, velocity=0, time=22)
Message('note_on', channel=4, note=73, velocity=100, time=2)
Message('note_off', channel=4, note=73, velocity=0, time=22)
Message('note_on', channel=4, note=69, velocity=100, time=2)
Message('note_off', channel=4, note=69, velocity=0, time=22)
Message('note_on', channel=4, note=68, velocity=100, time=2)
Message('note_off', channel=4, note=68, velocity=0, time=22)
Message('note_on', channel=4, note=66, velocity=100, time=2)
Message('note_off', channel=4, note=66, velocity=0, time=22)
Message('note_on', channel=4, note=62, velocity=100, time=2)
Message('note_off', channel=4, note=62, velocity=0, time=22)
Message('note_on', channel=4, note=57, velocity=100, time=2)
Message('note_off', channel=4, note=57, velocity=0, time=22)
Message('note_on', channel=4, note=62, velocity=100, time=2)
Message('note_off', channel=4, note=62, velocity=0, time=22)
Message('note_on', channel=4, note=69, velocity=100, time=2)
Message('note_off', channel=4, note=69, velocity=0, time=22)
Message('note_on', channel=4, note=66, velocity=100, time=2)
Message('note_off', channel=4, note=66, velocity=0, time=22)
Message('note_on', channel=4, note=62, velocity=100, time=2)
Message('note_off', channel=4, note=62, velocity=0, time=22)
Message('note_on', channel=4, note=57, velocity=100, time=2)
Message('note_off', channel=4, note=57, velocity=0, time=22)
Message('note_on', channel=4, note=59, velocity=100, time=2)
Message('note_off', channel=4, note=59, velocity=0, time=22)
Message('note_on', channel=4, note=64, velocity=100, time=2)
Message('note_off', channel=4, note=64, velocity=0, time=22)
Message('note_on', channel=4, note=68, velocity=100, time=2)
Message('note_off', channel=4, note=68, velocity=0, time=22)
Message('note_on', channel=4, note=71, velocity=100, time=2)
Message('note_off', channel=4, note=71, velocity=0, time=22)
Message('note_on', channel=4, note=68, velocity=100, time=2)
Message('note_off', channel=4, note=68, velocity=0, time=22)
Message('note_on', channel=4, note=71, velocity=100, time=2)
Message('note_off', channel=4, note=71, velocity=0, time=22)
Message('note_on', channel=4, note=76, velocity=100, time=2)
Message('note_off', channel=4, note=76, velocity=0, time=22)
Message('note_on', channel=4, note=71, velocity=100, time=2)
Message('note_off', channel=4, note=71, velocity=0, time=22)
Message('note_on', channel=4, note=73, velocity=100, time=2)
Message('note_off', channel=4, note=73, velocity=0, time=22)
Message('note_on', channel=4, note=69, velocity=100, time=2)
Message('note_off', channel=4, note=69, velocity=0, time=22)
Message('note_on', channel=4, note=66, velocity=100, time=2)
Message('note_off', channel=4, note=66, velocity=0, time=22)
Message('note_on', channel=4, note=71, velocity=100, time=2)
Message('note_off', channel=4, note=71, velocity=0, time=22)
Message('note_on', channel=4, note=68, velocity=100, time=2)
Message('note_off', channel=4, note=68, velocity=0, time=22)
Message('note_on', channel=4, note=64, velocity=100, time=2)
Message('note_off', channel=4, note=64, velocity=0, time=22)
Message('note_on', channel=4, note=69, velocity=100, time=2)
Message('note_off', channel=4, note=69, velocity=0, time=22)
Message('note_on', channel=4, note=66, velocity=100, time=2)
Message('note_off', channel=4, note=66, velocity=0, time=22)
Message('note_on', channel=4, note=61, velocity=100, time=2)
Message('note_off', channel=4, note=61, velocity=0, time=22)
Message('note_on', channel=4, note=68, velocity=100, time=2)
Message('note_off', channel=4, note=68, velocity=0, time=22)
Message('note_on', channel=4, note=64, velocity=100, time=2)
Message('note_off', channel=4, note=64, velocity=0, time=22)
Message('note_on', channel=4, note=59, velocity=100, time=2)
Message('note_off', channel=4, note=59, velocity=0, time=22)
Message('note_on', channel=4, note=66, velocity=100, time=2)
Message('note_off', channel=4, note=66, velocity=0, time=22)
Message('note_on', channel=4, note=57, velocity=100, time=2)
Message('note_off', channel=4, note=57, velocity=0, time=22)
Message('note_on', channel=4, note=69, velocity=100, time=2)
Message('note_off', channel=4, note=69, velocity=0, time=22)
Message('note_on', channel=4, note=64, velocity=100, time=2)
Message('note_off', channel=4, note=64, velocity=0, time=22)
Message('note_on', channel=4, note=69, velocity=100, time=2)
Message('note_off', channel=4, note=69, velocity=0, time=22)
Message('note_on', channel=4, note=66, velocity=100, time=2)
Message('note_off', channel=4, note=66, velocity=0, time=22)
Message('note_on', channel=4, note=62, velocity=100, time=2)
Message('note_off', channel=4, note=62, velocity=0, time=22)
Message('note_on', channel=4, note=69, velocity=100, time=2)
Message('note_off', channel=4, note=69, velocity=0, time=22)
Message('note_on', channel=4, note=66, velocity=100, time=2)
Message('note_off', channel=4, note=66, velocity=0, time=22)
Message('note_on', channel=4, note=62, velocity=100, time=2)
Message('note_off', channel=4, note=62, velocity=0, time=22)
Message('note_on', channel=4, note=74, velocity=100, time=2)
Message('note_off', channel=4, note=74, velocity=0, time=22)
Message('note_on', channel=4, note=69, velocity=100, time=2)
Message('note_off', channel=4, note=69, velocity=0, time=22)
Message('note_on', channel=4, note=68, velocity=100, time=2)
Message('note_off', channel=4, note=68, velocity=0, time=22)
Message('note_on', channel=4, note=64, velocity=100, time=2)
Message('note_off', channel=4, note=64, velocity=0, time=22)
Message('note_on', channel=4, note=59, velocity=100, time=2)
Message('note_off', channel=4, note=59, velocity=0, time=22)
Message('note_on', channel=4, note=68, velocity=100, time=2)
Message('note_off', channel=4, note=68, velocity=0, time=22)
Message('note_on', channel=4, note=64, velocity=100, time=2)
Message('note_off', channel=4, note=64, velocity=0, time=22)
Message('note_on', channel=4, note=59, velocity=100, time=2)
Message('note_off', channel=4, note=59, velocity=0, time=22)
Message('note_on', channel=4, note=71, velocity=100, time=2)
Message('note_off', channel=4, note=71, velocity=0, time=22)
Message('note_on', channel=4, note=68, velocity=100, time=2)
Message('note_off', channel=4, note=68, velocity=0, time=22)
Message('note_on', channel=4, note=69, velocity=100, time=2)
Message('note_off', channel=4, note=69, velocity=0, time=22)
Message('note_on', channel=4, note=73, velocity=100, time=2)
Message('note_off', channel=4, note=73, velocity=0, time=22)
Message('note_on', channel=4, note=78, velocity=100, time=2)
Message('note_off', channel=4, note=78, velocity=0, time=22)
Message('note_on', channel=4, note=71, velocity=100, time=2)
Message('note_off', channel=4, note=71, velocity=0, time=22)
Message('note_on', channel=4, note=76, velocity=100, time=2)
Message('note_off', channel=4, note=76, velocity=0, time=22)
Message('note_on', channel=4, note=80, velocity=100, time=2)
Message('note_off', channel=4, note=80, velocity=0, time=22)
Message('note_on', channel=4, note=73, velocity=100, time=2)
Message('note_off', channel=4, note=73, velocity=0, time=22)
Message('note_on', channel=4, note=78, velocity=100, time=2)
Message('note_off', channel=4, note=78, velocity=0, time=22)
Message('note_on', channel=4, note=81, velocity=100, time=2)
Message('note_off', channel=4, note=81, velocity=0, time=22)
Message('note_on', channel=4, note=80, velocity=100, time=2)
Message('note_off', channel=4, note=80, velocity=0, time=22)
Message('note_on', channel=4, note=76, velocity=100, time=2)
Message('note_off', channel=4, note=76, velocity=0, time=22)
Message('note_on', channel=4, note=71, velocity=100, time=2)
Message('note_off', channel=4, note=71, velocity=0, time=22)
Message('note_on', channel=4, note=78, velocity=100, time=2)
Message('note_off', channel=4, note=78, velocity=0, time=22)
Message('note_on', channel=4, note=73, velocity=100, time=2)
Message('note_off', channel=4, note=73, velocity=0, time=22)
Message('note_on', channel=4, note=69, velocity=100, time=2)
Message('note_off', channel=4, note=69, velocity=0, time=22)
Message('note_on', channel=4, note=68, velocity=100, time=2)
Message('note_off', channel=4, note=68, velocity=0, time=22)
Message('note_on', channel=4, note=66, velocity=100, time=2)
Message('note_off', channel=4, note=66, velocity=0, time=22)
Message('note_on', channel=4, note=62, velocity=100, time=2)
Message('note_off', channel=4, note=62, velocity=0, time=22)
Message('note_on', channel=4, note=57, velocity=100, time=2)
Message('note_off', channel=4, note=57, velocity=0, time=22)
Message('note_on', channel=4, note=62, velocity=100, time=2)
Message('note_off', channel=4, note=62, velocity=0, time=22)
Message('note_on', channel=4, note=69, velocity=100, time=2)
Message('note_off', channel=4, note=69, velocity=0, time=22)
Message('note_on', channel=4, note=66, velocity=100, time=2)
Message('note_off', channel=4, note=66, velocity=0, time=22)
Message('note_on', channel=4, note=62, velocity=100, time=2)
Message('note_off', channel=4, note=62, velocity=0, time=22)
Message('note_on', channel=4, note=57, velocity=100, time=2)
Message('note_off', channel=4, note=57, velocity=0, time=22)
Message('note_on', channel=4, note=59, velocity=100, time=2)
Message('note_off', channel=4, note=59, velocity=0, time=22)
Message('note_on', channel=4, note=64, velocity=100, time=2)
Message('note_off', channel=4, note=64, velocity=0, time=22)
Message('note_on', channel=4, note=68, velocity=100, time=2)
Message('note_off', channel=4, note=68, velocity=0, time=22)
Message('note_on', channel=4, note=71, velocity=100, time=2)
Message('note_off', channel=4, note=71, velocity=0, time=22)
Message('note_on', channel=4, note=68, velocity=100, time=2)
Message('note_off', channel=4, note=68, velocity=0, time=22)
Message('note_on', channel=4, note=71, velocity=100, time=2)
Message('note_off', channel=4, note=71, velocity=0, time=22)
Message('note_on', channel=4, note=76, velocity=100, time=2)
Message('note_off', channel=4, note=76, velocity=0, time=22)
Message('note_on', channel=4, note=71, velocity=100, time=2)
Message('note_off', channel=4, note=71, velocity=0, time=22)
Message('note_on', channel=4, note=73, velocity=100, time=2)
Message('note_off', channel=4, note=73, velocity=0, time=22)
Message('note_on', channel=4, note=69, velocity=100, time=2)
Message('note_off', channel=4, note=69, velocity=0, time=22)
Message('note_on', channel=4, note=66, velocity=100, time=2)
Message('note_off', channel=4, note=66, velocity=0, time=22)
Message('note_on', channel=4, note=71, velocity=100, time=2)
Message('note_off', channel=4, note=71, velocity=0, time=22)
Message('note_on', channel=4, note=68, velocity=100, time=2)
Message('note_off', channel=4, note=68, velocity=0, time=22)
Message('note_on', channel=4, note=64, velocity=100, time=2)
Message('note_off', channel=4, note=64, velocity=0, time=22)
Message('note_on', channel=4, note=69, velocity=100, time=2)
Message('note_off', channel=4, note=69, velocity=0, time=22)
Message('note_on', channel=4, note=66, velocity=100, time=2)
Message('note_off', channel=4, note=66, velocity=0, time=22)
Message('note_on', channel=4, note=61, velocity=100, time=2)
Message('note_off', channel=4, note=61, velocity=0, time=22)
Message('note_on', channel=4, note=68, velocity=100, time=2)
Message('note_off', channel=4, note=68, velocity=0, time=22)
Message('note_on', channel=4, note=64, velocity=100, time=2)
Message('note_off', channel=4, note=64, velocity=0, time=22)
Message('note_on', channel=4, note=59, velocity=100, time=2)
Message('note_off', channel=4, note=59, velocity=0, time=22)
Message('note_on', channel=4, note=66, velocity=100, time=2)
Message('note_off', channel=4, note=66, velocity=0, time=22)
Message('note_on', channel=4, note=57, velocity=100, time=2)
Message('note_off', channel=4, note=57, velocity=0, time=22)
Message('note_on', channel=4, note=69, velocity=100, time=2)
Message('note_off', channel=4, note=69, velocity=0, time=22)
Message('note_on', channel=4, note=64, velocity=100, time=2)
Message('note_off', channel=4, note=64, velocity=0, time=22)
Message('note_on', channel=4, note=69, velocity=100, time=2)
Message('note_off', channel=4, note=69, velocity=0, time=22)
Message('note_on', channel=4, note=66, velocity=100, time=2)
Message('note_off', channel=4, note=66, velocity=0, time=22)
Message('note_on', channel=4, note=62, velocity=100, time=2)
Message('note_off', channel=4, note=62, velocity=0, time=22)
Message('note_on', channel=4, note=69, velocity=100, time=2)
Message('note_off', channel=4, note=69, velocity=0, time=22)
Message('note_on', channel=4, note=66, velocity=100, time=2)
Message('note_off', channel=4, note=66, velocity=0, time=22)
Message('note_on', channel=4, note=62, velocity=100, time=2)
Message('note_off', channel=4, note=62, velocity=0, time=22)
Message('note_on', channel=4, note=74, velocity=100, time=2)
Message('note_off', channel=4, note=74, velocity=0, time=22)
Message('note_on', channel=4, note=69, velocity=100, time=2)
Message('note_off', channel=4, note=69, velocity=0, time=22)
Message('note_on', channel=4, note=68, velocity=100, time=2)
Message('note_off', channel=4, note=68, velocity=0, time=22)
Message('note_on', channel=4, note=64, velocity=100, time=2)
Message('note_off', channel=4, note=64, velocity=0, time=22)
Message('note_on', channel=4, note=59, velocity=100, time=2)
Message('note_off', channel=4, note=59, velocity=0, time=22)
Message('note_on', channel=4, note=68, velocity=100, time=2)
Message('note_off', channel=4, note=68, velocity=0, time=22)
Message('note_on', channel=4, note=64, velocity=100, time=2)
Message('note_off', channel=4, note=64, velocity=0, time=22)
Message('note_on', channel=4, note=59, velocity=100, time=2)
Message('note_off', channel=4, note=59, velocity=0, time=22)
Message('note_on', channel=4, note=71, velocity=100, time=2)
Message('note_off', channel=4, note=71, velocity=0, time=22)
Message('note_on', channel=4, note=68, velocity=100, time=2)
Message('note_off', channel=4, note=68, velocity=0, time=22)
Message('note_on', channel=4, note=69, velocity=100, time=2)
Message('note_off', channel=4, note=69, velocity=0, time=22)
Message('note_on', channel=4, note=73, velocity=100, time=2)
Message('note_off', channel=4, note=73, velocity=0, time=22)
Message('note_on', channel=4, note=78, velocity=100, time=2)
Message('note_off', channel=4, note=78, velocity=0, time=22)
Message('note_on', channel=4, note=71, velocity=100, time=2)
Message('note_off', channel=4, note=71, velocity=0, time=22)
Message('note_on', channel=4, note=76, velocity=100, time=2)
Message('note_off', channel=4, note=76, velocity=0, time=22)
Message('note_on', channel=4, note=80, velocity=100, time=2)
Message('note_off', channel=4, note=80, velocity=0, time=22)
Message('note_on', channel=4, note=73, velocity=100, time=2)
Message('note_off', channel=4, note=73, velocity=0, time=22)
Message('note_on', channel=4, note=78, velocity=100, time=2)
Message('note_off', channel=4, note=78, velocity=0, time=22)
Message('note_on', channel=4, note=69, velocity=120, time=2)
Message('note_on', channel=4, note=78, velocity=120, time=0)
Message('note_off', channel=4, note=69, velocity=0, time=92)
Message('note_off', channel=4, note=78, velocity=0, time=0)
Message('note_on', channel=4, note=71, velocity=120, time=4)
Message('note_on', channel=4, note=80, velocity=120, time=0)
Message('control_change', channel=4, control=10, value=70, time=88)
Message('note_off', channel=4, note=80, velocity=0, time=4)
Message('note_off', channel=4, note=71, velocity=0, time=0)
Message('note_on', channel=4, note=81, velocity=120, time=4)
Message('note_on', channel=4, note=73, velocity=120, time=0)
Message('note_off', channel=4, note=81, velocity=0, time=282)
Message('note_off', channel=4, note=73, velocity=0, time=0)
Message('note_on', channel=4, note=81, velocity=120, time=6)
Message('note_off', channel=4, note=81, velocity=0, time=92)
Message('note_on', channel=4, note=80, velocity=120, time=4)
Message('note_on', channel=4, note=73, velocity=120, time=0)
Message('note_on', channel=4, note=85, velocity=120, time=88)
Message('note_off', channel=4, note=85, velocity=0, time=92)
Message('note_off', channel=4, note=73, velocity=0, time=2)
Message('note_off', channel=4, note=80, velocity=0, time=0)
Message('note_on', channel=4, note=80, velocity=120, time=10)
Message('note_off', channel=4, note=80, velocity=0, time=182)
Message('note_on', channel=4, note=85, velocity=120, time=2)
Message('note_on', channel=4, note=78, velocity=120, time=8)
Message('note_on', channel=4, note=75, velocity=120, time=0)
Message('note_off', channel=4, note=85, velocity=0, time=174)
Message('note_off', channel=4, note=75, velocity=0, time=468)
Message('note_on', channel=4, note=75, velocity=120, time=18)
Message('note_off', channel=4, note=78, velocity=0, time=6)
Message('note_on', channel=4, note=78, velocity=120, time=6)
Message('note_off', channel=4, note=75, velocity=0, time=32)
Message('note_off', channel=4, note=78, velocity=0, time=12)
Message('note_on', channel=4, note=80, velocity=120, time=4)
Message('note_on', channel=4, note=75, velocity=120, time=0)
Message('note_off', channel=4, note=80, velocity=0, time=44)
Message('note_off', channel=4, note=75, velocity=0, time=0)
Message('note_on', channel=4, note=81, velocity=120, time=4)
Message('note_on', channel=4, note=73, velocity=120, time=0)
Message('note_off', channel=4, note=73, velocity=0, time=134)
Message('note_off', channel=4, note=81, velocity=0, time=0)
Message('note_on', channel=4, note=73, velocity=120, time=10)
Message('note_on', channel=4, note=69, velocity=120, time=0)
Message('note_off', channel=4, note=69, velocity=0, time=92)
Message('note_off', channel=4, note=73, velocity=0, time=0)
Message('note_on', channel=4, note=80, velocity=120, time=4)
Message('note_on', channel=4, note=71, velocity=120, time=0)
Message('note_off', channel=4, note=71, velocity=0, time=44)
Message('note_off', channel=4, note=80, velocity=0, time=0)
Message('note_on', channel=4, note=73, velocity=120, time=4)
Message('note_on', channel=4, note=81, velocity=120, time=0)
Message('note_off', channel=4, note=81, velocity=0, time=44)
Message('note_off', channel=4, note=73, velocity=0, time=0)
Message('note_on', channel=4, note=80, velocity=120, time=4)
Message('note_on', channel=4, note=71, velocity=120, time=0)
Message('note_off', channel=4, note=71, velocity=0, time=182)
Message('note_off', channel=4, note=80, velocity=0, time=0)
Message('note_on', channel=4, note=80, velocity=120, time=10)
Message('note_off', channel=4, note=80, velocity=0, time=134)
Message('note_on', channel=4, note=81, velocity=120, time=10)
Message('note_on', channel=4, note=83, velocity=120, time=40)
Message('note_off', channel=4, note=81, velocity=0, time=52)
Message('note_on', channel=4, note=81, velocity=120, time=4)
Message('note_on', channel=4, note=73, velocity=120, time=0)
Message('note_off', channel=4, note=83, velocity=0, time=78)
Message('note_on', channel=4, note=85, velocity=120, time=10)
Message('note_off', channel=4, note=85, velocity=0, time=92)
Message('note_off', channel=4, note=73, velocity=0, time=386)
Message('note_off', channel=4, note=81, velocity=0, time=0)
Message('note_on', channel=4, note=78, velocity=120, time=10)
Message('note_on', channel=4, note=69, velocity=120, time=0)
Message('note_off', channel=4, note=69, velocity=0, time=92)
Message('note_off', channel=4, note=78, velocity=0, time=0)
Message('note_on', channel=4, note=80, velocity=120, time=4)
Message('note_on', channel=4, note=71, velocity=120, time=0)
Message('note_off', channel=4, note=71, velocity=0, time=92)
Message('note_off', channel=4, note=80, velocity=0, time=0)
Message('note_on', channel=4, note=81, velocity=120, time=4)
Message('note_on', channel=4, note=73, velocity=120, time=0)
Message('note_off', channel=4, note=73, velocity=0, time=282)
Message('note_off', channel=4, note=81, velocity=0, time=0)
Message('note_on', channel=4, note=81, velocity=120, time=6)
Message('note_off', channel=4, note=81, velocity=0, time=92)
Message('note_on', channel=4, note=80, velocity=120, time=4)
Message('note_on', channel=4, note=73, velocity=120, time=0)
Message('note_on', channel=4, note=85, velocity=120, time=88)
Message('note_off', channel=4, note=85, velocity=0, time=92)
Message('note_off', channel=4, note=73, velocity=0, time=2)
Message('note_off', channel=4, note=80, velocity=0, time=0)
Message('note_on', channel=4, note=80, velocity=120, time=10)
Message('note_off', channel=4, note=80, velocity=0, time=182)
Message('note_on', channel=4, note=85, velocity=120, time=2)
Message('note_on', channel=4, note=78, velocity=120, time=8)
Message('note_on', channel=4, note=75, velocity=120, time=0)
Message('note_off', channel=4, note=85, velocity=0, time=174)
Message('note_off', channel=4, note=75, velocity=0, time=468)
Message('note_on', channel=4, note=75, velocity=120, time=18)
Message('note_off', channel=4, note=78, velocity=0, time=6)
Message('note_on', channel=4, note=78, velocity=120, time=6)
Message('note_off', channel=4, note=75, velocity=0, time=32)
Message('note_off', channel=4, note=78, velocity=0, time=12)
Message('note_on', channel=4, note=80, velocity=120, time=4)
Message('note_on', channel=4, note=75, velocity=120, time=0)
Message('note_off', channel=4, note=80, velocity=0, time=44)
Message('note_off', channel=4, note=75, velocity=0, time=0)
Message('note_on', channel=4, note=81, velocity=120, time=4)
Message('note_on', channel=4, note=73, velocity=120, time=0)
Message('note_off', channel=4, note=73, velocity=0, time=134)
Message('note_off', channel=4, note=81, velocity=0, time=0)
Message('note_on', channel=4, note=69, velocity=120, time=10)
Message('note_on', channel=4, note=73, velocity=120, time=0)
Message('note_off', channel=4, note=73, velocity=0, time=92)
Message('note_off', channel=4, note=69, velocity=0, time=0)
Message('note_on', channel=4, note=71, velocity=120, time=4)
Message('note_on', channel=4, note=80, velocity=120, time=0)
Message('note_off', channel=4, note=80, velocity=0, time=44)
Message('note_off', channel=4, note=71, velocity=0, time=0)
Message('note_on', channel=4, note=73, velocity=120, time=4)
Message('note_on', channel=4, note=81, velocity=120, time=0)
Message('note_off', channel=4, note=81, velocity=0, time=44)
Message('note_off', channel=4, note=73, velocity=0, time=0)
Message('note_on', channel=4, note=80, velocity=120, time=4)
Message('note_on', channel=4, note=71, velocity=120, time=0)
Message('note_off', channel=4, note=71, velocity=0, time=116)
Message('note_off', channel=4, note=80, velocity=0, time=0)
Message('note_on', channel=4, note=68, velocity=120, time=4)
Message('note_on', channel=4, note=71, velocity=120, time=0)
Message('note_off', channel=4, note=71, velocity=0, time=68)
Message('note_off', channel=4, note=68, velocity=0, time=0)
Message('note_on', channel=4, note=80, velocity=120, time=4)
Message('note_on', channel=4, note=81, velocity=120, time=48)
Message('note_off', channel=4, note=80, velocity=0, time=44)
Message('note_off', channel=4, note=81, velocity=0, time=48)
Message('note_on', channel=4, note=80, velocity=120, time=28)
Message('note_off', channel=4, note=80, velocity=0, time=22)
Message('note_on', channel=4, note=81, velocity=120, time=2)
Message('note_on', channel=4, note=78, velocity=120, time=24)
Message('note_on', channel=4, note=83, velocity=120, time=64)
Message('note_off', channel=4, note=83, velocity=0, time=22)
Message('note_on', channel=4, note=88, velocity=120, time=2)
Message('note_off', channel=4, note=88, velocity=0, time=22)
Message('note_on', channel=4, note=83, velocity=120, time=2)
Message('note_off', channel=4, note=83, velocity=0, time=22)
Message('note_off', channel=4, note=78, velocity=0, time=268)
Message('note_off', channel=4, note=81, velocity=0, time=0)
Message('note_on', channel=4, note=81, velocity=120, time=6)
Message('note_on', channel=4, note=90, velocity=120, time=184)
Message('note_off', channel=4, note=81, velocity=0, time=194)
Message('note_off', channel=4, note=90, velocity=0, time=184)
Message('note_on', channel=4, note=66, velocity=100, time=2894)
Message('note_off', channel=4, note=66, velocity=0, time=22)
Message('note_on', channel=4, note=62, velocity=100, time=2)
Message('note_off', channel=4, note=62, velocity=0, time=22)
Message('note_on', channel=4, note=57, velocity=100, time=2)
Message('note_off', channel=4, note=57, velocity=0, time=22)
Message('note_on', channel=4, note=62, velocity=100, time=2)
Message('note_off', channel=4, note=62, velocity=0, time=22)
Message('note_on', channel=4, note=69, velocity=100, time=2)
Message('note_off', channel=4, note=69, velocity=0, time=22)
Message('note_on', channel=4, note=66, velocity=100, time=2)
Message('note_off', channel=4, note=66, velocity=0, time=22)
Message('note_on', channel=4, note=62, velocity=100, time=2)
Message('note_off', channel=4, note=62, velocity=0, time=22)
Message('note_on', channel=4, note=57, velocity=100, time=2)
Message('control_change', channel=4, control=10, value=30, time=16)
Message('note_off', channel=4, note=57, velocity=0, time=6)
Message('note_on', channel=4, note=59, velocity=100, time=2)
Message('note_off', channel=4, note=59, velocity=0, time=22)
Message('note_on', channel=4, note=64, velocity=100, time=2)
Message('note_off', channel=4, note=64, velocity=0, time=22)
Message('note_on', channel=4, note=68, velocity=100, time=2)
Message('note_off', channel=4, note=68, velocity=0, time=22)
Message('note_on', channel=4, note=71, velocity=100, time=2)
Message('note_off', channel=4, note=71, velocity=0, time=22)
Message('note_on', channel=4, note=68, velocity=100, time=2)
Message('note_off', channel=4, note=68, velocity=0, time=22)
Message('note_on', channel=4, note=71, velocity=100, time=2)
Message('note_off', channel=4, note=71, velocity=0, time=22)
Message('note_on', channel=4, note=76, velocity=100, time=2)
Message('note_off', channel=4, note=76, velocity=0, time=22)
Message('note_on', channel=4, note=71, velocity=100, time=2)
Message('note_off', channel=4, note=71, velocity=0, time=22)
Message('note_on', channel=4, note=73, velocity=100, time=2)
Message('note_off', channel=4, note=73, velocity=0, time=22)
Message('note_on', channel=4, note=69, velocity=100, time=2)
Message('note_off', channel=4, note=69, velocity=0, time=22)
Message('note_on', channel=4, note=66, velocity=100, time=2)
Message('note_off', channel=4, note=66, velocity=0, time=22)
Message('note_on', channel=4, note=71, velocity=100, time=2)
Message('note_off', channel=4, note=71, velocity=0, time=22)
Message('note_on', channel=4, note=68, velocity=100, time=2)
Message('note_off', channel=4, note=68, velocity=0, time=22)
Message('note_on', channel=4, note=64, velocity=100, time=2)
Message('note_off', channel=4, note=64, velocity=0, time=22)
Message('note_on', channel=4, note=69, velocity=100, time=2)
Message('note_off', channel=4, note=69, velocity=0, time=22)
Message('note_on', channel=4, note=66, velocity=100, time=2)
Message('note_off', channel=4, note=66, velocity=0, time=22)
Message('note_on', channel=4, note=61, velocity=100, time=2)
Message('note_off', channel=4, note=61, velocity=0, time=22)
Message('note_on', channel=4, note=68, velocity=100, time=2)
Message('note_off', channel=4, note=68, velocity=0, time=22)
Message('note_on', channel=4, note=64, velocity=100, time=2)
Message('note_off', channel=4, note=64, velocity=0, time=22)
Message('note_on', channel=4, note=59, velocity=100, time=2)
Message('note_off', channel=4, note=59, velocity=0, time=22)
Message('note_on', channel=4, note=66, velocity=100, time=2)
Message('note_off', channel=4, note=66, velocity=0, time=22)
Message('note_on', channel=4, note=57, velocity=100, time=2)
Message('note_off', channel=4, note=57, velocity=0, time=22)
Message('note_on', channel=4, note=69, velocity=100, time=2)
Message('note_off', channel=4, note=69, velocity=0, time=22)
Message('note_on', channel=4, note=64, velocity=100, time=2)
Message('note_off', channel=4, note=64, velocity=0, time=22)
Message('note_on', channel=4, note=69, velocity=100, time=2)
Message('note_off', channel=4, note=69, velocity=0, time=22)
Message('note_on', channel=4, note=66, velocity=100, time=2)
Message('note_off', channel=4, note=66, velocity=0, time=22)
Message('note_on', channel=4, note=62, velocity=100, time=2)
Message('note_off', channel=4, note=62, velocity=0, time=22)
Message('note_on', channel=4, note=69, velocity=100, time=2)
Message('note_off', channel=4, note=69, velocity=0, time=22)
Message('note_on', channel=4, note=66, velocity=100, time=2)
Message('note_off', channel=4, note=66, velocity=0, time=22)
Message('note_on', channel=4, note=62, velocity=100, time=2)
Message('note_off', channel=4, note=62, velocity=0, time=22)
Message('note_on', channel=4, note=74, velocity=100, time=2)
Message('note_off', channel=4, note=74, velocity=0, time=22)
Message('note_on', channel=4, note=69, velocity=100, time=2)
Message('note_off', channel=4, note=69, velocity=0, time=22)
Message('note_on', channel=4, note=68, velocity=100, time=2)
Message('note_off', channel=4, note=68, velocity=0, time=22)
Message('note_on', channel=4, note=64, velocity=100, time=2)
Message('note_off', channel=4, note=64, velocity=0, time=22)
Message('note_on', channel=4, note=59, velocity=100, time=2)
Message('note_off', channel=4, note=59, velocity=0, time=22)
Message('note_on', channel=4, note=68, velocity=100, time=2)
Message('note_off', channel=4, note=68, velocity=0, time=22)
Message('note_on', channel=4, note=64, velocity=100, time=2)
Message('note_off', channel=4, note=64, velocity=0, time=22)
Message('note_on', channel=4, note=59, velocity=100, time=2)
Message('note_off', channel=4, note=59, velocity=0, time=22)
Message('note_on', channel=4, note=71, velocity=100, time=2)
Message('note_off', channel=4, note=71, velocity=0, time=22)
Message('note_on', channel=4, note=68, velocity=100, time=2)
Message('note_off', channel=4, note=68, velocity=0, time=22)
Message('note_on', channel=4, note=69, velocity=100, time=2)
Message('note_off', channel=4, note=69, velocity=0, time=22)
Message('note_on', channel=4, note=73, velocity=100, time=2)
Message('note_off', channel=4, note=73, velocity=0, time=22)
Message('note_on', channel=4, note=78, velocity=100, time=2)
Message('note_off', channel=4, note=78, velocity=0, time=22)
Message('note_on', channel=4, note=71, velocity=100, time=2)
Message('note_off', channel=4, note=71, velocity=0, time=22)
Message('note_on', channel=4, note=76, velocity=100, time=2)
Message('note_off', channel=4, note=76, velocity=0, time=22)
Message('note_on', channel=4, note=80, velocity=100, time=2)
Message('note_off', channel=4, note=80, velocity=0, time=22)
Message('note_on', channel=4, note=73, velocity=100, time=2)
Message('note_off', channel=4, note=73, velocity=0, time=22)
Message('note_on', channel=4, note=78, velocity=100, time=2)
Message('note_off', channel=4, note=78, velocity=0, time=22)
Message('note_on', channel=4, note=81, velocity=100, time=2)
Message('note_off', channel=4, note=81, velocity=0, time=22)
Message('note_on', channel=4, note=80, velocity=100, time=2)
Message('note_off', channel=4, note=80, velocity=0, time=22)
Message('note_on', channel=4, note=76, velocity=100, time=2)
Message('note_off', channel=4, note=76, velocity=0, time=22)
Message('note_on', channel=4, note=71, velocity=100, time=2)
Message('note_off', channel=4, note=71, velocity=0, time=22)
Message('note_on', channel=4, note=78, velocity=100, time=2)
Message('note_off', channel=4, note=78, velocity=0, time=22)
Message('note_on', channel=4, note=73, velocity=100, time=2)
Message('note_off', channel=4, note=73, velocity=0, time=22)
Message('note_on', channel=4, note=69, velocity=100, time=2)
Message('note_off', channel=4, note=69, velocity=0, time=22)
Message('note_on', channel=4, note=68, velocity=100, time=2)
Message('note_off', channel=4, note=68, velocity=0, time=22)
Message('note_on', channel=4, note=66, velocity=100, time=2)
Message('note_off', channel=4, note=66, velocity=0, time=22)
Message('note_on', channel=4, note=62, velocity=100, time=2)
Message('note_off', channel=4, note=62, velocity=0, time=22)
Message('note_on', channel=4, note=57, velocity=100, time=2)
Message('note_off', channel=4, note=57, velocity=0, time=22)
Message('note_on', channel=4, note=62, velocity=100, time=2)
Message('note_off', channel=4, note=62, velocity=0, time=22)
Message('note_on', channel=4, note=69, velocity=100, time=2)
Message('note_off', channel=4, note=69, velocity=0, time=22)
Message('note_on', channel=4, note=66, velocity=100, time=2)
Message('note_off', channel=4, note=66, velocity=0, time=22)
Message('note_on', channel=4, note=62, velocity=100, time=2)
Message('note_off', channel=4, note=62, velocity=0, time=22)
Message('note_on', channel=4, note=57, velocity=100, time=2)
Message('note_off', channel=4, note=57, velocity=0, time=22)
Message('note_on', channel=4, note=59, velocity=100, time=2)
Message('note_off', channel=4, note=59, velocity=0, time=22)
Message('note_on', channel=4, note=64, velocity=100, time=2)
Message('note_off', channel=4, note=64, velocity=0, time=22)
Message('note_on', channel=4, note=68, velocity=100, time=2)
Message('note_off', channel=4, note=68, velocity=0, time=22)
Message('note_on', channel=4, note=71, velocity=100, time=2)
Message('note_off', channel=4, note=71, velocity=0, time=22)
Message('note_on', channel=4, note=68, velocity=100, time=2)
Message('note_off', channel=4, note=68, velocity=0, time=22)
Message('note_on', channel=4, note=71, velocity=100, time=2)
Message('note_off', channel=4, note=71, velocity=0, time=22)
Message('note_on', channel=4, note=76, velocity=100, time=2)
Message('note_off', channel=4, note=76, velocity=0, time=22)
Message('note_on', channel=4, note=71, velocity=100, time=2)
Message('note_off', channel=4, note=71, velocity=0, time=22)
Message('note_on', channel=4, note=73, velocity=100, time=2)
Message('note_off', channel=4, note=73, velocity=0, time=22)
Message('note_on', channel=4, note=69, velocity=100, time=2)
Message('note_off', channel=4, note=69, velocity=0, time=22)
Message('note_on', channel=4, note=66, velocity=100, time=2)
Message('note_off', channel=4, note=66, velocity=0, time=22)
Message('note_on', channel=4, note=71, velocity=100, time=2)
Message('note_off', channel=4, note=71, velocity=0, time=22)
Message('note_on', channel=4, note=68, velocity=100, time=2)
Message('note_off', channel=4, note=68, velocity=0, time=22)
Message('note_on', channel=4, note=64, velocity=100, time=2)
Message('note_off', channel=4, note=64, velocity=0, time=22)
Message('note_on', channel=4, note=69, velocity=100, time=2)
Message('note_off', channel=4, note=69, velocity=0, time=22)
Message('note_on', channel=4, note=66, velocity=100, time=2)
Message('note_off', channel=4, note=66, velocity=0, time=22)
Message('note_on', channel=4, note=61, velocity=100, time=2)
Message('note_off', channel=4, note=61, velocity=0, time=22)
Message('note_on', channel=4, note=68, velocity=100, time=2)
Message('note_off', channel=4, note=68, velocity=0, time=22)
Message('note_on', channel=4, note=64, velocity=100, time=2)
Message('note_off', channel=4, note=64, velocity=0, time=22)
Message('note_on', channel=4, note=59, velocity=100, time=2)
Message('note_off', channel=4, note=59, velocity=0, time=22)
Message('note_on', channel=4, note=66, velocity=100, time=2)
Message('note_off', channel=4, note=66, velocity=0, time=22)
Message('note_on', channel=4, note=57, velocity=100, time=2)
Message('note_off', channel=4, note=57, velocity=0, time=22)
Message('note_on', channel=4, note=69, velocity=100, time=2)
Message('note_off', channel=4, note=69, velocity=0, time=22)
Message('note_on', channel=4, note=64, velocity=100, time=2)
Message('note_off', channel=4, note=64, velocity=0, time=22)
Message('note_on', channel=4, note=69, velocity=100, time=2)
Message('note_off', channel=4, note=69, velocity=0, time=22)
Message('note_on', channel=4, note=66, velocity=100, time=2)
Message('note_off', channel=4, note=66, velocity=0, time=22)
Message('note_on', channel=4, note=62, velocity=100, time=2)
Message('note_off', channel=4, note=62, velocity=0, time=22)
Message('note_on', channel=4, note=69, velocity=100, time=2)
Message('note_off', channel=4, note=69, velocity=0, time=22)
Message('note_on', channel=4, note=66, velocity=100, time=2)
Message('note_off', channel=4, note=66, velocity=0, time=22)
Message('note_on', channel=4, note=62, velocity=100, time=2)
Message('note_off', channel=4, note=62, velocity=0, time=22)
Message('note_on', channel=4, note=74, velocity=100, time=2)
Message('note_off', channel=4, note=74, velocity=0, time=22)
Message('note_on', channel=4, note=69, velocity=100, time=2)
Message('note_off', channel=4, note=69, velocity=0, time=22)
Message('note_on', channel=4, note=68, velocity=100, time=2)
Message('note_off', channel=4, note=68, velocity=0, time=22)
Message('note_on', channel=4, note=64, velocity=100, time=2)
Message('note_off', channel=4, note=64, velocity=0, time=22)
Message('note_on', channel=4, note=59, velocity=100, time=2)
Message('note_off', channel=4, note=59, velocity=0, time=22)
Message('note_on', channel=4, note=68, velocity=100, time=2)
Message('note_off', channel=4, note=68, velocity=0, time=22)
Message('note_on', channel=4, note=64, velocity=100, time=2)
Message('note_off', channel=4, note=64, velocity=0, time=22)
Message('note_on', channel=4, note=59, velocity=100, time=2)
Message('note_off', channel=4, note=59, velocity=0, time=22)
Message('note_on', channel=4, note=71, velocity=100, time=2)
Message('note_off', channel=4, note=71, velocity=0, time=22)
Message('note_on', channel=4, note=68, velocity=100, time=2)
Message('note_off', channel=4, note=68, velocity=0, time=22)
Message('note_on', channel=4, note=69, velocity=100, time=2)
Message('note_off', channel=4, note=69, velocity=0, time=22)
Message('note_on', channel=4, note=73, velocity=100, time=2)
Message('note_off', channel=4, note=73, velocity=0, time=22)
Message('note_on', channel=4, note=78, velocity=100, time=2)
Message('note_off', channel=4, note=78, velocity=0, time=22)
Message('note_on', channel=4, note=71, velocity=100, time=2)
Message('note_off', channel=4, note=71, velocity=0, time=22)
Message('note_on', channel=4, note=76, velocity=100, time=2)
Message('note_off', channel=4, note=76, velocity=0, time=22)
Message('note_on', channel=4, note=80, velocity=100, time=2)
Message('note_off', channel=4, note=80, velocity=0, time=22)
Message('note_on', channel=4, note=73, velocity=100, time=2)
Message('note_off', channel=4, note=73, velocity=0, time=22)
Message('note_on', channel=4, note=78, velocity=100, time=2)
Message('note_off', channel=4, note=78, velocity=0, time=22)
Message('note_on', channel=4, note=81, velocity=100, time=2)
Message('note_off', channel=4, note=81, velocity=0, time=22)
Message('note_on', channel=4, note=80, velocity=100, time=2)
Message('note_off', channel=4, note=80, velocity=0, time=22)
Message('note_on', channel=4, note=76, velocity=100, time=2)
Message('note_off', channel=4, note=76, velocity=0, time=22)
Message('note_on', channel=4, note=71, velocity=100, time=2)
Message('note_off', channel=4, note=71, velocity=0, time=22)
Message('note_on', channel=4, note=78, velocity=100, time=2)
Message('note_off', channel=4, note=78, velocity=0, time=22)
Message('note_on', channel=4, note=73, velocity=100, time=2)
Message('note_off', channel=4, note=73, velocity=0, time=22)
Message('note_on', channel=4, note=69, velocity=100, time=2)
Message('note_off', channel=4, note=69, velocity=0, time=22)
Message('note_on', channel=4, note=68, velocity=100, time=2)
Message('note_off', channel=4, note=68, velocity=0, time=22)
Message('note_on', channel=4, note=66, velocity=100, time=2)
Message('note_off', channel=4, note=66, velocity=0, time=22)
Message('note_on', channel=4, note=62, velocity=100, time=2)
Message('note_off', channel=4, note=62, velocity=0, time=22)
Message('note_on', channel=4, note=57, velocity=100, time=2)
Message('note_off', channel=4, note=57, velocity=0, time=22)
Message('note_on', channel=4, note=62, velocity=100, time=2)
Message('note_off', channel=4, note=62, velocity=0, time=22)
Message('note_on', channel=4, note=69, velocity=100, time=2)
Message('note_off', channel=4, note=69, velocity=0, time=22)
Message('note_on', channel=4, note=66, velocity=100, time=2)
Message('note_off', channel=4, note=66, velocity=0, time=22)
Message('note_on', channel=4, note=62, velocity=100, time=2)
Message('note_off', channel=4, note=62, velocity=0, time=22)
Message('note_on', channel=4, note=57, velocity=100, time=2)
Message('note_off', channel=4, note=57, velocity=0, time=22)
Message('note_on', channel=4, note=59, velocity=100, time=2)
Message('note_off', channel=4, note=59, velocity=0, time=22)
Message('note_on', channel=4, note=64, velocity=100, time=2)
Message('note_off', channel=4, note=64, velocity=0, time=22)
Message('note_on', channel=4, note=68, velocity=100, time=2)
Message('note_off', channel=4, note=68, velocity=0, time=22)
Message('note_on', channel=4, note=71, velocity=100, time=2)
Message('note_off', channel=4, note=71, velocity=0, time=22)
Message('note_on', channel=4, note=68, velocity=100, time=2)
Message('note_off', channel=4, note=68, velocity=0, time=22)
Message('note_on', channel=4, note=71, velocity=100, time=2)
Message('note_off', channel=4, note=71, velocity=0, time=22)
Message('note_on', channel=4, note=76, velocity=100, time=2)
Message('note_off', channel=4, note=76, velocity=0, time=22)
Message('note_on', channel=4, note=71, velocity=100, time=2)
Message('note_off', channel=4, note=71, velocity=0, time=22)
Message('note_on', channel=4, note=73, velocity=100, time=2)
Message('note_off', channel=4, note=73, velocity=0, time=22)
Message('note_on', channel=4, note=69, velocity=100, time=2)
Message('note_off', channel=4, note=69, velocity=0, time=22)
Message('note_on', channel=4, note=66, velocity=100, time=2)
Message('note_off', channel=4, note=66, velocity=0, time=22)
Message('note_on', channel=4, note=71, velocity=100, time=2)
Message('note_off', channel=4, note=71, velocity=0, time=22)
Message('note_on', channel=4, note=68, velocity=100, time=2)
Message('note_off', channel=4, note=68, velocity=0, time=22)
Message('note_on', channel=4, note=64, velocity=100, time=2)
Message('note_off', channel=4, note=64, velocity=0, time=22)
Message('note_on', channel=4, note=69, velocity=100, time=2)
Message('note_off', channel=4, note=69, velocity=0, time=22)
Message('note_on', channel=4, note=66, velocity=100, time=2)
Message('note_off', channel=4, note=66, velocity=0, time=22)
Message('note_on', channel=4, note=61, velocity=100, time=2)
Message('note_off', channel=4, note=61, velocity=0, time=22)
Message('note_on', channel=4, note=68, velocity=100, time=2)
Message('note_off', channel=4, note=68, velocity=0, time=22)
Message('note_on', channel=4, note=64, velocity=100, time=2)
Message('note_off', channel=4, note=64, velocity=0, time=22)
Message('note_on', channel=4, note=59, velocity=100, time=2)
Message('note_off', channel=4, note=59, velocity=0, time=22)
Message('note_on', channel=4, note=66, velocity=100, time=2)
Message('note_off', channel=4, note=66, velocity=0, time=22)
Message('note_on', channel=4, note=57, velocity=100, time=2)
Message('note_off', channel=4, note=57, velocity=0, time=22)
Message('note_on', channel=4, note=69, velocity=100, time=2)
Message('note_off', channel=4, note=69, velocity=0, time=22)
Message('note_on', channel=4, note=64, velocity=100, time=2)
Message('note_off', channel=4, note=64, velocity=0, time=22)
Message('note_on', channel=4, note=69, velocity=100, time=2)
Message('note_off', channel=4, note=69, velocity=0, time=22)
Message('note_on', channel=4, note=66, velocity=100, time=2)
Message('note_off', channel=4, note=66, velocity=0, time=22)
Message('note_on', channel=4, note=62, velocity=100, time=2)
Message('note_off', channel=4, note=62, velocity=0, time=22)
Message('note_on', channel=4, note=69, velocity=100, time=2)
Message('note_off', channel=4, note=69, velocity=0, time=22)
Message('note_on', channel=4, note=66, velocity=100, time=2)
Message('note_off', channel=4, note=66, velocity=0, time=22)
Message('note_on', channel=4, note=62, velocity=100, time=2)
Message('note_off', channel=4, note=62, velocity=0, time=22)
Message('note_on', channel=4, note=74, velocity=100, time=2)
Message('note_off', channel=4, note=74, velocity=0, time=22)
Message('note_on', channel=4, note=69, velocity=100, time=2)
Message('note_off', channel=4, note=69, velocity=0, time=22)
Message('note_on', channel=4, note=68, velocity=100, time=2)
Message('note_off', channel=4, note=68, velocity=0, time=22)
Message('note_on', channel=4, note=64, velocity=100, time=2)
Message('note_off', channel=4, note=64, velocity=0, time=22)
Message('note_on', channel=4, note=59, velocity=100, time=2)
Message('note_off', channel=4, note=59, velocity=0, time=22)
Message('note_on', channel=4, note=68, velocity=100, time=2)
Message('note_off', channel=4, note=68, velocity=0, time=22)
Message('note_on', channel=4, note=64, velocity=100, time=2)
Message('note_off', channel=4, note=64, velocity=0, time=22)
Message('note_on', channel=4, note=59, velocity=100, time=2)
Message('note_off', channel=4, note=59, velocity=0, time=22)
Message('note_on', channel=4, note=71, velocity=100, time=2)
Message('note_off', channel=4, note=71, velocity=0, time=22)
Message('note_on', channel=4, note=68, velocity=100, time=2)
Message('note_off', channel=4, note=68, velocity=0, time=22)
Message('note_on', channel=4, note=69, velocity=100, time=2)
Message('note_off', channel=4, note=69, velocity=0, time=22)
Message('note_on', channel=4, note=73, velocity=100, time=2)
Message('note_off', channel=4, note=73, velocity=0, time=22)
Message('note_on', channel=4, note=78, velocity=100, time=2)
Message('note_off', channel=4, note=78, velocity=0, time=22)
Message('note_on', channel=4, note=71, velocity=100, time=2)
Message('note_off', channel=4, note=71, velocity=0, time=22)
Message('note_on', channel=4, note=76, velocity=100, time=2)
Message('note_off', channel=4, note=76, velocity=0, time=22)
Message('note_on', channel=4, note=80, velocity=100, time=2)
Message('note_off', channel=4, note=80, velocity=0, time=22)
Message('note_on', channel=4, note=73, velocity=100, time=2)
Message('note_off', channel=4, note=73, velocity=0, time=22)
Message('note_on', channel=4, note=78, velocity=100, time=2)
Message('note_off', channel=4, note=78, velocity=0, time=22)
Message('note_on', channel=4, note=81, velocity=100, time=2)
Message('note_off', channel=4, note=81, velocity=0, time=22)
Message('note_on', channel=4, note=80, velocity=100, time=2)
Message('note_off', channel=4, note=80, velocity=0, time=22)
Message('note_on', channel=4, note=76, velocity=100, time=2)
Message('note_off', channel=4, note=76, velocity=0, time=22)
Message('note_on', channel=4, note=71, velocity=100, time=2)
Message('note_off', channel=4, note=71, velocity=0, time=22)
Message('note_on', channel=4, note=78, velocity=100, time=2)
Message('note_off', channel=4, note=78, velocity=0, time=22)
Message('note_on', channel=4, note=73, velocity=100, time=2)
Message('note_off', channel=4, note=73, velocity=0, time=22)
Message('note_on', channel=4, note=69, velocity=100, time=2)
Message('note_off', channel=4, note=69, velocity=0, time=22)
Message('note_on', channel=4, note=68, velocity=100, time=2)
Message('note_off', channel=4, note=68, velocity=0, time=22)
Message('note_on', channel=4, note=66, velocity=100, time=2)
Message('note_off', channel=4, note=66, velocity=0, time=22)
Message('note_on', channel=4, note=62, velocity=100, time=2)
Message('note_off', channel=4, note=62, velocity=0, time=22)
Message('note_on', channel=4, note=57, velocity=100, time=2)
Message('note_off', channel=4, note=57, velocity=0, time=22)
Message('note_on', channel=4, note=62, velocity=100, time=2)
Message('note_off', channel=4, note=62, velocity=0, time=22)
Message('note_on', channel=4, note=69, velocity=100, time=2)
Message('note_off', channel=4, note=69, velocity=0, time=22)
Message('note_on', channel=4, note=66, velocity=100, time=2)
Message('note_off', channel=4, note=66, velocity=0, time=22)
Message('note_on', channel=4, note=62, velocity=100, time=2)
Message('note_off', channel=4, note=62, velocity=0, time=22)
Message('note_on', channel=4, note=57, velocity=100, time=2)
Message('note_off', channel=4, note=57, velocity=0, time=22)
Message('note_on', channel=4, note=59, velocity=100, time=2)
Message('note_off', channel=4, note=59, velocity=0, time=22)
Message('note_on', channel=4, note=64, velocity=100, time=2)
Message('note_off', channel=4, note=64, velocity=0, time=22)
Message('note_on', channel=4, note=68, velocity=100, time=2)
Message('note_off', channel=4, note=68, velocity=0, time=22)
Message('note_on', channel=4, note=71, velocity=100, time=2)
Message('note_off', channel=4, note=71, velocity=0, time=22)
Message('note_on', channel=4, note=68, velocity=100, time=2)
Message('note_off', channel=4, note=68, velocity=0, time=22)
Message('note_on', channel=4, note=71, velocity=100, time=2)
Message('note_off', channel=4, note=71, velocity=0, time=22)
Message('note_on', channel=4, note=76, velocity=100, time=2)
Message('note_off', channel=4, note=76, velocity=0, time=22)
Message('note_on', channel=4, note=71, velocity=100, time=2)
Message('note_off', channel=4, note=71, velocity=0, time=22)
Message('note_on', channel=4, note=73, velocity=100, time=2)
Message('note_off', channel=4, note=73, velocity=0, time=22)
Message('note_on', channel=4, note=69, velocity=100, time=2)
Message('note_off', channel=4, note=69, velocity=0, time=22)
Message('note_on', channel=4, note=66, velocity=100, time=2)
Message('note_off', channel=4, note=66, velocity=0, time=22)
Message('note_on', channel=4, note=71, velocity=100, time=2)
Message('note_off', channel=4, note=71, velocity=0, time=22)
Message('note_on', channel=4, note=68, velocity=100, time=2)
Message('note_off', channel=4, note=68, velocity=0, time=22)
Message('note_on', channel=4, note=64, velocity=100, time=2)
Message('note_off', channel=4, note=64, velocity=0, time=22)
Message('note_on', channel=4, note=69, velocity=100, time=2)
Message('note_off', channel=4, note=69, velocity=0, time=22)
Message('note_on', channel=4, note=66, velocity=100, time=2)
Message('note_off', channel=4, note=66, velocity=0, time=22)
Message('note_on', channel=4, note=61, velocity=100, time=2)
Message('note_off', channel=4, note=61, velocity=0, time=22)
Message('note_on', channel=4, note=68, velocity=100, time=2)
Message('note_off', channel=4, note=68, velocity=0, time=22)
Message('note_on', channel=4, note=64, velocity=100, time=2)
Message('note_off', channel=4, note=64, velocity=0, time=22)
Message('note_on', channel=4, note=59, velocity=100, time=2)
Message('note_off', channel=4, note=59, velocity=0, time=22)
Message('note_on', channel=4, note=66, velocity=100, time=2)
Message('note_off', channel=4, note=66, velocity=0, time=22)
Message('note_on', channel=4, note=57, velocity=100, time=2)
Message('note_off', channel=4, note=57, velocity=0, time=22)
Message('note_on', channel=4, note=69, velocity=100, time=2)
Message('note_off', channel=4, note=69, velocity=0, time=22)
Message('note_on', channel=4, note=64, velocity=100, time=2)
Message('note_off', channel=4, note=64, velocity=0, time=22)
Message('note_on', channel=4, note=69, velocity=100, time=2)
Message('note_off', channel=4, note=69, velocity=0, time=22)
Message('note_on', channel=4, note=66, velocity=100, time=2)
Message('note_off', channel=4, note=66, velocity=0, time=22)
Message('note_on', channel=4, note=62, velocity=100, time=2)
Message('note_off', channel=4, note=62, velocity=0, time=22)
Message('note_on', channel=4, note=69, velocity=100, time=2)
Message('note_off', channel=4, note=69, velocity=0, time=22)
Message('note_on', channel=4, note=66, velocity=100, time=2)
Message('note_off', channel=4, note=66, velocity=0, time=22)
Message('note_on', channel=4, note=62, velocity=100, time=2)
Message('note_off', channel=4, note=62, velocity=0, time=22)
Message('note_on', channel=4, note=74, velocity=100, time=2)
Message('note_off', channel=4, note=74, velocity=0, time=22)
Message('note_on', channel=4, note=69, velocity=100, time=2)
Message('note_off', channel=4, note=69, velocity=0, time=22)
Message('note_on', channel=4, note=68, velocity=100, time=2)
Message('note_off', channel=4, note=68, velocity=0, time=22)
Message('note_on', channel=4, note=64, velocity=100, time=2)
Message('note_off', channel=4, note=64, velocity=0, time=22)
Message('note_on', channel=4, note=59, velocity=100, time=2)
Message('note_off', channel=4, note=59, velocity=0, time=22)
Message('note_on', channel=4, note=68, velocity=100, time=2)
Message('note_off', channel=4, note=68, velocity=0, time=22)
Message('note_on', channel=4, note=64, velocity=100, time=2)
Message('note_off', channel=4, note=64, velocity=0, time=22)
Message('note_on', channel=4, note=59, velocity=100, time=2)
Message('note_off', channel=4, note=59, velocity=0, time=22)
Message('note_on', channel=4, note=71, velocity=100, time=2)
Message('note_off', channel=4, note=71, velocity=0, time=22)
Message('note_on', channel=4, note=68, velocity=100, time=2)
Message('note_off', channel=4, note=68, velocity=0, time=22)
Message('note_on', channel=4, note=69, velocity=100, time=2)
Message('note_off', channel=4, note=69, velocity=0, time=22)
Message('note_on', channel=4, note=73, velocity=100, time=2)
Message('note_off', channel=4, note=73, velocity=0, time=22)
Message('note_on', channel=4, note=78, velocity=100, time=2)
Message('note_off', channel=4, note=78, velocity=0, time=22)
Message('note_on', channel=4, note=71, velocity=100, time=2)
Message('note_off', channel=4, note=71, velocity=0, time=22)
Message('note_on', channel=4, note=76, velocity=100, time=2)
Message('note_off', channel=4, note=76, velocity=0, time=22)
Message('note_on', channel=4, note=80, velocity=100, time=2)
Message('note_off', channel=4, note=80, velocity=0, time=22)
Message('note_on', channel=4, note=73, velocity=100, time=2)
Message('note_off', channel=4, note=73, velocity=0, time=22)
Message('note_on', channel=4, note=78, velocity=100, time=2)
Message('note_off', channel=4, note=78, velocity=0, time=22)
Message('note_on', channel=4, note=69, velocity=100, time=2)
Message('note_off', channel=4, note=69, velocity=0, time=22)
Message('note_on', channel=4, note=73, velocity=100, time=2)
Message('note_off', channel=4, note=73, velocity=0, time=22)
Message('note_on', channel=4, note=78, velocity=100, time=2)
Message('note_off', channel=4, note=78, velocity=0, time=22)
Message('note_on', channel=4, note=71, velocity=100, time=2)
Message('note_off', channel=4, note=71, velocity=0, time=22)
Message('note_on', channel=4, note=76, velocity=100, time=2)
Message('note_off', channel=4, note=76, velocity=0, time=22)
Message('note_on', channel=4, note=80, velocity=100, time=2)
Message('note_off', channel=4, note=80, velocity=0, time=22)
Message('note_on', channel=4, note=73, velocity=100, time=2)
Message('note_off', channel=4, note=73, velocity=0, time=22)
Message('note_on', channel=4, note=78, velocity=100, time=2)
Message('note_off', channel=4, note=78, velocity=0, time=22)
Message('note_on', channel=4, note=66, velocity=100, time=2)
Message('note_off', channel=4, note=66, velocity=0, time=22)
Message('note_on', channel=4, note=62, velocity=100, time=2)
Message('note_off', channel=4, note=62, velocity=0, time=22)
Message('note_on', channel=4, note=57, velocity=100, time=2)
Message('note_off', channel=4, note=57, velocity=0, time=22)
Message('note_on', channel=4, note=62, velocity=100, time=2)
Message('note_off', channel=4, note=62, velocity=0, time=22)
Message('note_on', channel=4, note=69, velocity=100, time=2)
Message('note_off', channel=4, note=69, velocity=0, time=22)
Message('note_on', channel=4, note=66, velocity=100, time=2)
Message('note_off', channel=4, note=66, velocity=0, time=22)
Message('note_on', channel=4, note=62, velocity=100, time=2)
Message('note_off', channel=4, note=62, velocity=0, time=22)
Message('note_on', channel=4, note=57, velocity=100, time=2)
Message('note_off', channel=4, note=57, velocity=0, time=22)
Message('note_on', channel=4, note=59, velocity=100, time=2)
Message('note_off', channel=4, note=59, velocity=0, time=22)
Message('note_on', channel=4, note=64, velocity=100, time=2)
Message('note_off', channel=4, note=64, velocity=0, time=22)
Message('note_on', channel=4, note=68, velocity=100, time=2)
Message('note_off', channel=4, note=68, velocity=0, time=22)
Message('note_on', channel=4, note=71, velocity=100, time=2)
Message('note_off', channel=4, note=71, velocity=0, time=22)
Message('note_on', channel=4, note=68, velocity=100, time=2)
Message('note_off', channel=4, note=68, velocity=0, time=22)
Message('note_on', channel=4, note=71, velocity=100, time=2)
Message('note_off', channel=4, note=71, velocity=0, time=22)
Message('note_on', channel=4, note=76, velocity=100, time=2)
Message('note_off', channel=4, note=76, velocity=0, time=22)
Message('note_on', channel=4, note=71, velocity=100, time=2)
Message('note_off', channel=4, note=71, velocity=0, time=22)
Message('note_on', channel=4, note=73, velocity=100, time=2)
Message('note_off', channel=4, note=73, velocity=0, time=22)
Message('note_on', channel=4, note=69, velocity=100, time=2)
Message('note_off', channel=4, note=69, velocity=0, time=22)
Message('note_on', channel=4, note=66, velocity=100, time=2)
Message('note_off', channel=4, note=66, velocity=0, time=22)
Message('note_on', channel=4, note=71, velocity=100, time=2)
Message('note_off', channel=4, note=71, velocity=0, time=22)
Message('note_on', channel=4, note=68, velocity=100, time=2)
Message('note_off', channel=4, note=68, velocity=0, time=22)
Message('note_on', channel=4, note=64, velocity=100, time=2)
Message('note_off', channel=4, note=64, velocity=0, time=22)
Message('note_on', channel=4, note=69, velocity=100, time=2)
Message('note_off', channel=4, note=69, velocity=0, time=22)
Message('note_on', channel=4, note=66, velocity=100, time=2)
Message('note_off', channel=4, note=66, velocity=0, time=22)
Message('note_on', channel=4, note=61, velocity=100, time=2)
Message('note_off', channel=4, note=61, velocity=0, time=22)
Message('note_on', channel=4, note=68, velocity=100, time=2)
Message('note_off', channel=4, note=68, velocity=0, time=22)
Message('note_on', channel=4, note=64, velocity=100, time=2)
Message('note_off', channel=4, note=64, velocity=0, time=22)
Message('note_on', channel=4, note=59, velocity=100, time=2)
Message('note_off', channel=4, note=59, velocity=0, time=22)
Message('note_on', channel=4, note=66, velocity=100, time=2)
Message('note_off', channel=4, note=66, velocity=0, time=22)
Message('note_on', channel=4, note=57, velocity=100, time=2)
Message('note_off', channel=4, note=57, velocity=0, time=22)
Message('note_on', channel=4, note=69, velocity=100, time=2)
Message('note_off', channel=4, note=69, velocity=0, time=22)
Message('note_on', channel=4, note=64, velocity=100, time=2)
Message('note_off', channel=4, note=64, velocity=0, time=22)
Message('note_on', channel=4, note=69, velocity=100, time=2)
Message('note_off', channel=4, note=69, velocity=0, time=22)
Message('note_on', channel=4, note=66, velocity=100, time=2)
Message('note_off', channel=4, note=66, velocity=0, time=22)
Message('note_on', channel=4, note=62, velocity=100, time=2)
Message('note_off', channel=4, note=62, velocity=0, time=22)
Message('note_on', channel=4, note=69, velocity=100, time=2)
Message('note_off', channel=4, note=69, velocity=0, time=22)
Message('note_on', channel=4, note=66, velocity=100, time=2)
Message('note_off', channel=4, note=66, velocity=0, time=22)
Message('note_on', channel=4, note=62, velocity=100, time=2)
Message('note_off', channel=4, note=62, velocity=0, time=22)
Message('note_on', channel=4, note=74, velocity=100, time=2)
Message('note_off', channel=4, note=74, velocity=0, time=22)
Message('note_on', channel=4, note=69, velocity=100, time=2)
Message('note_off', channel=4, note=69, velocity=0, time=22)
Message('note_on', channel=4, note=68, velocity=100, time=2)
Message('note_off', channel=4, note=68, velocity=0, time=22)
Message('note_on', channel=4, note=64, velocity=100, time=2)
Message('note_off', channel=4, note=64, velocity=0, time=22)
Message('note_on', channel=4, note=59, velocity=100, time=2)
Message('note_off', channel=4, note=59, velocity=0, time=22)
Message('note_on', channel=4, note=68, velocity=100, time=2)
Message('note_off', channel=4, note=68, velocity=0, time=22)
Message('note_on', channel=4, note=64, velocity=100, time=2)
Message('note_off', channel=4, note=64, velocity=0, time=22)
Message('note_on', channel=4, note=59, velocity=100, time=2)
Message('note_off', channel=4, note=59, velocity=0, time=22)
Message('note_on', channel=4, note=71, velocity=100, time=2)
Message('note_off', channel=4, note=71, velocity=0, time=22)
Message('note_on', channel=4, note=68, velocity=100, time=2)
Message('note_off', channel=4, note=68, velocity=0, time=22)
Message('note_on', channel=4, note=69, velocity=100, time=2)
Message('note_off', channel=4, note=69, velocity=0, time=22)
Message('note_on', channel=4, note=73, velocity=100, time=2)
Message('note_off', channel=4, note=73, velocity=0, time=22)
Message('note_on', channel=4, note=78, velocity=100, time=2)
Message('note_off', channel=4, note=78, velocity=0, time=22)
Message('note_on', channel=4, note=71, velocity=100, time=2)
Message('note_off', channel=4, note=71, velocity=0, time=22)
Message('note_on', channel=4, note=76, velocity=100, time=2)
Message('note_off', channel=4, note=76, velocity=0, time=22)
Message('note_on', channel=4, note=80, velocity=100, time=2)
Message('note_off', channel=4, note=80, velocity=0, time=22)
Message('note_on', channel=4, note=73, velocity=100, time=2)
Message('note_off', channel=4, note=73, velocity=0, time=22)
Message('note_on', channel=4, note=78, velocity=100, time=2)
Message('note_off', channel=4, note=78, velocity=0, time=22)
Message('note_on', channel=4, note=81, velocity=100, time=2)
Message('note_off', channel=4, note=81, velocity=0, time=22)
Message('note_on', channel=4, note=80, velocity=100, time=2)
Message('note_off', channel=4, note=80, velocity=0, time=22)
Message('note_on', channel=4, note=76, velocity=100, time=2)
Message('note_off', channel=4, note=76, velocity=0, time=22)
Message('note_on', channel=4, note=71, velocity=100, time=2)
Message('note_off', channel=4, note=71, velocity=0, time=22)
Message('note_on', channel=4, note=78, velocity=100, time=2)
Message('note_off', channel=4, note=78, velocity=0, time=22)
Message('note_on', channel=4, note=73, velocity=100, time=2)
Message('note_off', channel=4, note=73, velocity=0, time=22)
Message('note_on', channel=4, note=69, velocity=100, time=2)
Message('note_off', channel=4, note=69, velocity=0, time=22)
Message('note_on', channel=4, note=68, velocity=100, time=2)
Message('note_off', channel=4, note=68, velocity=0, time=22)
Message('note_on', channel=4, note=66, velocity=100, time=2)
Message('note_off', channel=4, note=66, velocity=0, time=22)
Message('note_on', channel=4, note=62, velocity=100, time=2)
Message('note_off', channel=4, note=62, velocity=0, time=22)
Message('note_on', channel=4, note=57, velocity=100, time=2)
Message('note_off', channel=4, note=57, velocity=0, time=22)
Message('note_on', channel=4, note=62, velocity=100, time=2)
Message('note_off', channel=4, note=62, velocity=0, time=22)
Message('note_on', channel=4, note=69, velocity=100, time=2)
Message('note_off', channel=4, note=69, velocity=0, time=22)
Message('note_on', channel=4, note=66, velocity=100, time=2)
Message('note_off', channel=4, note=66, velocity=0, time=22)
Message('note_on', channel=4, note=62, velocity=100, time=2)
Message('note_off', channel=4, note=62, velocity=0, time=22)
Message('note_on', channel=4, note=57, velocity=100, time=2)
Message('note_off', channel=4, note=57, velocity=0, time=22)
Message('note_on', channel=4, note=59, velocity=100, time=2)
Message('note_off', channel=4, note=59, velocity=0, time=22)
Message('note_on', channel=4, note=64, velocity=100, time=2)
Message('note_off', channel=4, note=64, velocity=0, time=22)
Message('note_on', channel=4, note=68, velocity=100, time=2)
Message('note_off', channel=4, note=68, velocity=0, time=22)
Message('note_on', channel=4, note=71, velocity=100, time=2)
Message('note_off', channel=4, note=71, velocity=0, time=22)
Message('note_on', channel=4, note=68, velocity=100, time=2)
Message('note_off', channel=4, note=68, velocity=0, time=22)
Message('note_on', channel=4, note=71, velocity=100, time=2)
Message('note_off', channel=4, note=71, velocity=0, time=22)
Message('note_on', channel=4, note=76, velocity=100, time=2)
Message('note_off', channel=4, note=76, velocity=0, time=22)
Message('note_on', channel=4, note=71, velocity=100, time=2)
Message('note_off', channel=4, note=71, velocity=0, time=22)
Message('note_on', channel=4, note=73, velocity=100, time=2)
Message('note_off', channel=4, note=73, velocity=0, time=22)
Message('note_on', channel=4, note=69, velocity=100, time=2)
Message('note_off', channel=4, note=69, velocity=0, time=22)
Message('note_on', channel=4, note=66, velocity=100, time=2)
Message('note_off', channel=4, note=66, velocity=0, time=22)
Message('note_on', channel=4, note=71, velocity=100, time=2)
Message('note_off', channel=4, note=71, velocity=0, time=22)
Message('note_on', channel=4, note=68, velocity=100, time=2)
Message('note_off', channel=4, note=68, velocity=0, time=22)
Message('note_on', channel=4, note=64, velocity=100, time=2)
Message('note_off', channel=4, note=64, velocity=0, time=22)
Message('note_on', channel=4, note=69, velocity=100, time=2)
Message('note_off', channel=4, note=69, velocity=0, time=22)
Message('note_on', channel=4, note=66, velocity=100, time=2)
Message('note_off', channel=4, note=66, velocity=0, time=22)
Message('note_on', channel=4, note=61, velocity=100, time=2)
Message('note_off', channel=4, note=61, velocity=0, time=22)
Message('note_on', channel=4, note=68, velocity=100, time=2)
Message('note_off', channel=4, note=68, velocity=0, time=22)
Message('note_on', channel=4, note=64, velocity=100, time=2)
Message('note_off', channel=4, note=64, velocity=0, time=22)
Message('note_on', channel=4, note=59, velocity=100, time=2)
Message('note_off', channel=4, note=59, velocity=0, time=22)
Message('note_on', channel=4, note=66, velocity=100, time=2)
Message('note_off', channel=4, note=66, velocity=0, time=22)
Message('note_on', channel=4, note=57, velocity=100, time=2)
Message('note_off', channel=4, note=57, velocity=0, time=22)
Message('note_on', channel=4, note=69, velocity=100, time=2)
Message('note_off', channel=4, note=69, velocity=0, time=22)
Message('note_on', channel=4, note=64, velocity=100, time=2)
Message('note_off', channel=4, note=64, velocity=0, time=22)
Message('note_on', channel=4, note=69, velocity=100, time=2)
Message('note_off', channel=4, note=69, velocity=0, time=22)
Message('note_on', channel=4, note=66, velocity=100, time=2)
Message('note_off', channel=4, note=66, velocity=0, time=22)
Message('note_on', channel=4, note=62, velocity=100, time=2)
Message('note_off', channel=4, note=62, velocity=0, time=22)
Message('note_on', channel=4, note=69, velocity=100, time=2)
Message('note_off', channel=4, note=69, velocity=0, time=22)
Message('note_on', channel=4, note=66, velocity=100, time=2)
Message('note_off', channel=4, note=66, velocity=0, time=22)
Message('note_on', channel=4, note=62, velocity=100, time=2)
Message('note_off', channel=4, note=62, velocity=0, time=22)
Message('note_on', channel=4, note=74, velocity=100, time=2)
Message('note_off', channel=4, note=74, velocity=0, time=22)
Message('note_on', channel=4, note=69, velocity=100, time=2)
Message('note_off', channel=4, note=69, velocity=0, time=22)
Message('note_on', channel=4, note=68, velocity=100, time=2)
Message('note_off', channel=4, note=68, velocity=0, time=22)
Message('note_on', channel=4, note=64, velocity=100, time=2)
Message('note_off', channel=4, note=64, velocity=0, time=22)
Message('note_on', channel=4, note=59, velocity=100, time=2)
Message('note_off', channel=4, note=59, velocity=0, time=22)
Message('note_on', channel=4, note=68, velocity=100, time=2)
Message('note_off', channel=4, note=68, velocity=0, time=22)
Message('note_on', channel=4, note=64, velocity=100, time=2)
Message('note_off', channel=4, note=64, velocity=0, time=22)
Message('note_on', channel=4, note=59, velocity=100, time=2)
Message('note_off', channel=4, note=59, velocity=0, time=22)
Message('note_on', channel=4, note=71, velocity=100, time=2)
Message('note_off', channel=4, note=71, velocity=0, time=22)
Message('note_on', channel=4, note=68, velocity=100, time=2)
Message('note_off', channel=4, note=68, velocity=0, time=22)
Message('note_on', channel=4, note=69, velocity=100, time=2)
Message('note_off', channel=4, note=69, velocity=0, time=22)
Message('note_on', channel=4, note=73, velocity=100, time=2)
Message('note_off', channel=4, note=73, velocity=0, time=22)
Message('note_on', channel=4, note=78, velocity=100, time=2)
Message('note_off', channel=4, note=78, velocity=0, time=22)
Message('note_on', channel=4, note=71, velocity=100, time=2)
Message('note_off', channel=4, note=71, velocity=0, time=22)
Message('note_on', channel=4, note=76, velocity=100, time=2)
Message('note_off', channel=4, note=76, velocity=0, time=22)
Message('note_on', channel=4, note=80, velocity=100, time=2)
Message('note_off', channel=4, note=80, velocity=0, time=22)
Message('note_on', channel=4, note=73, velocity=100, time=2)
Message('note_off', channel=4, note=73, velocity=0, time=22)
Message('note_on', channel=4, note=78, velocity=100, time=2)
Message('note_off', channel=4, note=78, velocity=0, time=22)
Message('note_on', channel=4, note=81, velocity=100, time=2)
Message('note_off', channel=4, note=81, velocity=0, time=22)
Message('note_on', channel=4, note=80, velocity=100, time=2)
Message('note_off', channel=4, note=80, velocity=0, time=22)
Message('note_on', channel=4, note=76, velocity=100, time=2)
Message('note_off', channel=4, note=76, velocity=0, time=22)
Message('note_on', channel=4, note=71, velocity=100, time=2)
Message('note_off', channel=4, note=71, velocity=0, time=22)
Message('note_on', channel=4, note=78, velocity=100, time=2)
Message('note_off', channel=4, note=78, velocity=0, time=22)
Message('note_on', channel=4, note=73, velocity=100, time=2)
Message('note_off', channel=4, note=73, velocity=0, time=22)
Message('note_on', channel=4, note=69, velocity=100, time=2)
Message('note_off', channel=4, note=69, velocity=0, time=22)
Message('note_on', channel=4, note=68, velocity=100, time=2)
Message('note_off', channel=4, note=68, velocity=0, time=22)
Message('note_on', channel=4, note=66, velocity=100, time=2)
Message('note_off', channel=4, note=66, velocity=0, time=22)
Message('note_on', channel=4, note=62, velocity=100, time=2)
Message('note_off', channel=4, note=62, velocity=0, time=22)
Message('note_on', channel=4, note=57, velocity=100, time=2)
Message('note_off', channel=4, note=57, velocity=0, time=22)
Message('note_on', channel=4, note=62, velocity=100, time=2)
Message('note_off', channel=4, note=62, velocity=0, time=22)
Message('note_on', channel=4, note=69, velocity=100, time=2)
Message('note_off', channel=4, note=69, velocity=0, time=22)
Message('note_on', channel=4, note=66, velocity=100, time=2)
Message('note_off', channel=4, note=66, velocity=0, time=22)
Message('note_on', channel=4, note=62, velocity=100, time=2)
Message('note_off', channel=4, note=62, velocity=0, time=22)
Message('note_on', channel=4, note=57, velocity=100, time=2)
Message('note_off', channel=4, note=57, velocity=0, time=22)
Message('note_on', channel=4, note=59, velocity=100, time=2)
Message('note_off', channel=4, note=59, velocity=0, time=22)
Message('note_on', channel=4, note=64, velocity=100, time=2)
Message('note_off', channel=4, note=64, velocity=0, time=22)
Message('note_on', channel=4, note=68, velocity=100, time=2)
Message('note_off', channel=4, note=68, velocity=0, time=22)
Message('note_on', channel=4, note=71, velocity=100, time=2)
Message('note_off', channel=4, note=71, velocity=0, time=22)
Message('note_on', channel=4, note=68, velocity=100, time=2)
Message('note_off', channel=4, note=68, velocity=0, time=22)
Message('note_on', channel=4, note=71, velocity=100, time=2)
Message('note_off', channel=4, note=71, velocity=0, time=22)
Message('note_on', channel=4, note=76, velocity=100, time=2)
Message('note_off', channel=4, note=76, velocity=0, time=22)
Message('note_on', channel=4, note=71, velocity=100, time=2)
Message('note_off', channel=4, note=71, velocity=0, time=22)
Message('note_on', channel=4, note=73, velocity=100, time=2)
Message('note_off', channel=4, note=73, velocity=0, time=22)
Message('note_on', channel=4, note=69, velocity=100, time=2)
Message('note_off', channel=4, note=69, velocity=0, time=22)
Message('note_on', channel=4, note=66, velocity=100, time=2)
Message('note_off', channel=4, note=66, velocity=0, time=22)
Message('note_on', channel=4, note=71, velocity=100, time=2)
Message('note_off', channel=4, note=71, velocity=0, time=22)
Message('note_on', channel=4, note=68, velocity=100, time=2)
Message('note_off', channel=4, note=68, velocity=0, time=22)
Message('note_on', channel=4, note=64, velocity=100, time=2)
Message('note_off', channel=4, note=64, velocity=0, time=22)
Message('note_on', channel=4, note=69, velocity=100, time=2)
Message('note_off', channel=4, note=69, velocity=0, time=22)
Message('note_on', channel=4, note=66, velocity=100, time=2)
Message('note_off', channel=4, note=66, velocity=0, time=22)
Message('note_on', channel=4, note=61, velocity=100, time=2)
Message('note_off', channel=4, note=61, velocity=0, time=22)
Message('note_on', channel=4, note=68, velocity=100, time=2)
Message('note_off', channel=4, note=68, velocity=0, time=22)
Message('note_on', channel=4, note=64, velocity=100, time=2)
Message('note_off', channel=4, note=64, velocity=0, time=22)
Message('note_on', channel=4, note=59, velocity=100, time=2)
Message('note_off', channel=4, note=59, velocity=0, time=22)
Message('note_on', channel=4, note=66, velocity=100, time=2)
Message('note_off', channel=4, note=66, velocity=0, time=22)
Message('note_on', channel=4, note=57, velocity=100, time=2)
Message('note_off', channel=4, note=57, velocity=0, time=22)
Message('note_on', channel=4, note=69, velocity=100, time=2)
Message('note_off', channel=4, note=69, velocity=0, time=22)
Message('note_on', channel=4, note=64, velocity=100, time=2)
Message('note_off', channel=4, note=64, velocity=0, time=22)
Message('note_on', channel=4, note=69, velocity=100, time=2)
Message('note_off', channel=4, note=69, velocity=0, time=22)
Message('note_on', channel=4, note=66, velocity=100, time=2)
Message('note_off', channel=4, note=66, velocity=0, time=22)
Message('note_on', channel=4, note=62, velocity=100, time=2)
Message('note_off', channel=4, note=62, velocity=0, time=22)
Message('note_on', channel=4, note=69, velocity=100, time=2)
Message('note_off', channel=4, note=69, velocity=0, time=22)
Message('note_on', channel=4, note=66, velocity=100, time=2)
Message('note_off', channel=4, note=66, velocity=0, time=22)
Message('note_on', channel=4, note=62, velocity=100, time=2)
Message('note_off', channel=4, note=62, velocity=0, time=22)
Message('note_on', channel=4, note=74, velocity=100, time=2)
Message('note_off', channel=4, note=74, velocity=0, time=22)
Message('note_on', channel=4, note=69, velocity=100, time=2)
Message('note_off', channel=4, note=69, velocity=0, time=22)
Message('note_on', channel=4, note=68, velocity=100, time=2)
Message('note_off', channel=4, note=68, velocity=0, time=22)
Message('note_on', channel=4, note=64, velocity=100, time=2)
Message('note_off', channel=4, note=64, velocity=0, time=22)
Message('note_on', channel=4, note=59, velocity=100, time=2)
Message('note_off', channel=4, note=59, velocity=0, time=22)
Message('note_on', channel=4, note=68, velocity=100, time=2)
Message('note_off', channel=4, note=68, velocity=0, time=22)
Message('note_on', channel=4, note=64, velocity=100, time=2)
Message('note_off', channel=4, note=64, velocity=0, time=22)
Message('note_on', channel=4, note=59, velocity=100, time=2)
Message('note_off', channel=4, note=59, velocity=0, time=22)
Message('note_on', channel=4, note=71, velocity=100, time=2)
Message('note_off', channel=4, note=71, velocity=0, time=22)
Message('note_on', channel=4, note=68, velocity=100, time=2)
Message('note_off', channel=4, note=68, velocity=0, time=22)
Message('note_on', channel=4, note=69, velocity=100, time=2)
Message('note_off', channel=4, note=69, velocity=0, time=22)
Message('note_on', channel=4, note=73, velocity=100, time=2)
Message('note_off', channel=4, note=73, velocity=0, time=22)
Message('note_on', channel=4, note=78, velocity=100, time=2)
Message('note_off', channel=4, note=78, velocity=0, time=22)
Message('note_on', channel=4, note=71, velocity=100, time=2)
Message('note_off', channel=4, note=71, velocity=0, time=22)
Message('note_on', channel=4, note=76, velocity=100, time=2)
Message('note_off', channel=4, note=76, velocity=0, time=22)
Message('note_on', channel=4, note=80, velocity=100, time=2)
Message('note_off', channel=4, note=80, velocity=0, time=22)
Message('note_on', channel=4, note=73, velocity=100, time=2)
Message('note_off', channel=4, note=73, velocity=0, time=22)
Message('note_on', channel=4, note=78, velocity=100, time=2)
Message('note_off', channel=4, note=78, velocity=0, time=22)
Message('note_on', channel=4, note=81, velocity=100, time=2)
Message('note_off', channel=4, note=81, velocity=0, time=22)
Message('note_on', channel=4, note=80, velocity=100, time=2)
Message('note_off', channel=4, note=80, velocity=0, time=22)
Message('note_on', channel=4, note=76, velocity=100, time=2)
Message('note_off', channel=4, note=76, velocity=0, time=22)
Message('note_on', channel=4, note=71, velocity=100, time=2)
Message('note_off', channel=4, note=71, velocity=0, time=22)
Message('note_on', channel=4, note=78, velocity=100, time=2)
Message('note_off', channel=4, note=78, velocity=0, time=22)
Message('note_on', channel=4, note=73, velocity=100, time=2)
Message('note_off', channel=4, note=73, velocity=0, time=22)
Message('note_on', channel=4, note=69, velocity=100, time=2)
Message('note_off', channel=4, note=69, velocity=0, time=22)
Message('note_on', channel=4, note=68, velocity=100, time=2)
Message('note_off', channel=4, note=68, velocity=0, time=22)
Message('note_on', channel=4, note=66, velocity=100, time=2)
Message('note_off', channel=4, note=66, velocity=0, time=22)
Message('note_on', channel=4, note=62, velocity=100, time=2)
Message('note_off', channel=4, note=62, velocity=0, time=22)
Message('note_on', channel=4, note=57, velocity=100, time=2)
Message('note_off', channel=4, note=57, velocity=0, time=22)
Message('note_on', channel=4, note=62, velocity=100, time=2)
Message('note_off', channel=4, note=62, velocity=0, time=22)
Message('note_on', channel=4, note=69, velocity=100, time=2)
Message('note_off', channel=4, note=69, velocity=0, time=22)
Message('note_on', channel=4, note=66, velocity=100, time=2)
Message('note_off', channel=4, note=66, velocity=0, time=22)
Message('note_on', channel=4, note=62, velocity=100, time=2)
Message('note_off', channel=4, note=62, velocity=0, time=22)
Message('note_on', channel=4, note=57, velocity=100, time=2)
Message('note_off', channel=4, note=57, velocity=0, time=22)
Message('note_on', channel=4, note=59, velocity=100, time=2)
Message('note_off', channel=4, note=59, velocity=0, time=22)
Message('note_on', channel=4, note=64, velocity=100, time=2)
Message('note_off', channel=4, note=64, velocity=0, time=22)
Message('note_on', channel=4, note=68, velocity=100, time=2)
Message('note_off', channel=4, note=68, velocity=0, time=22)
Message('note_on', channel=4, note=71, velocity=100, time=2)
Message('note_off', channel=4, note=71, velocity=0, time=22)
Message('note_on', channel=4, note=68, velocity=100, time=2)
Message('note_off', channel=4, note=68, velocity=0, time=22)
Message('note_on', channel=4, note=71, velocity=100, time=2)
Message('note_off', channel=4, note=71, velocity=0, time=22)
Message('note_on', channel=4, note=76, velocity=100, time=2)
Message('note_off', channel=4, note=76, velocity=0, time=22)
Message('note_on', channel=4, note=71, velocity=100, time=2)
Message('note_off', channel=4, note=71, velocity=0, time=22)
Message('note_on', channel=4, note=73, velocity=100, time=2)
Message('note_off', channel=4, note=73, velocity=0, time=22)
Message('note_on', channel=4, note=69, velocity=100, time=2)
Message('note_off', channel=4, note=69, velocity=0, time=22)
Message('note_on', channel=4, note=66, velocity=100, time=2)
Message('note_off', channel=4, note=66, velocity=0, time=22)
Message('note_on', channel=4, note=71, velocity=100, time=2)
Message('note_off', channel=4, note=71, velocity=0, time=22)
Message('note_on', channel=4, note=68, velocity=100, time=2)
Message('note_off', channel=4, note=68, velocity=0, time=22)
Message('note_on', channel=4, note=64, velocity=100, time=2)
Message('note_off', channel=4, note=64, velocity=0, time=22)
Message('note_on', channel=4, note=69, velocity=100, time=2)
Message('note_off', channel=4, note=69, velocity=0, time=22)
Message('note_on', channel=4, note=66, velocity=100, time=2)
Message('note_off', channel=4, note=66, velocity=0, time=22)
Message('note_on', channel=4, note=61, velocity=100, time=2)
Message('note_off', channel=4, note=61, velocity=0, time=22)
Message('note_on', channel=4, note=68, velocity=100, time=2)
Message('note_off', channel=4, note=68, velocity=0, time=22)
Message('note_on', channel=4, note=64, velocity=100, time=2)
Message('note_off', channel=4, note=64, velocity=0, time=22)
Message('note_on', channel=4, note=59, velocity=100, time=2)
Message('note_off', channel=4, note=59, velocity=0, time=22)
Message('note_on', channel=4, note=66, velocity=100, time=2)
Message('note_off', channel=4, note=66, velocity=0, time=22)
Message('note_on', channel=4, note=57, velocity=100, time=2)
Message('note_off', channel=4, note=57, velocity=0, time=22)
Message('note_on', channel=4, note=69, velocity=100, time=2)
Message('note_off', channel=4, note=69, velocity=0, time=22)
Message('note_on', channel=4, note=64, velocity=100, time=2)
Message('note_off', channel=4, note=64, velocity=0, time=22)
Message('note_on', channel=4, note=69, velocity=100, time=2)
Message('note_off', channel=4, note=69, velocity=0, time=22)
Message('note_on', channel=4, note=66, velocity=100, time=2)
Message('note_off', channel=4, note=66, velocity=0, time=22)
Message('note_on', channel=4, note=62, velocity=100, time=2)
Message('note_off', channel=4, note=62, velocity=0, time=22)
Message('note_on', channel=4, note=69, velocity=100, time=2)
Message('note_off', channel=4, note=69, velocity=0, time=22)
Message('note_on', channel=4, note=66, velocity=100, time=2)
Message('note_off', channel=4, note=66, velocity=0, time=22)
Message('note_on', channel=4, note=62, velocity=100, time=2)
Message('note_off', channel=4, note=62, velocity=0, time=22)
Message('note_on', channel=4, note=74, velocity=100, time=2)
Message('note_off', channel=4, note=74, velocity=0, time=22)
Message('note_on', channel=4, note=69, velocity=100, time=2)
Message('note_off', channel=4, note=69, velocity=0, time=22)
Message('note_on', channel=4, note=68, velocity=100, time=2)
Message('note_off', channel=4, note=68, velocity=0, time=22)
Message('note_on', channel=4, note=64, velocity=100, time=2)
Message('note_off', channel=4, note=64, velocity=0, time=22)
Message('note_on', channel=4, note=59, velocity=100, time=2)
Message('note_off', channel=4, note=59, velocity=0, time=22)
Message('note_on', channel=4, note=68, velocity=100, time=2)
Message('note_off', channel=4, note=68, velocity=0, time=22)
Message('note_on', channel=4, note=64, velocity=100, time=2)
Message('note_off', channel=4, note=64, velocity=0, time=22)
Message('note_on', channel=4, note=59, velocity=100, time=2)
Message('note_off', channel=4, note=59, velocity=0, time=22)
Message('note_on', channel=4, note=71, velocity=100, time=2)
Message('note_off', channel=4, note=71, velocity=0, time=22)
Message('note_on', channel=4, note=68, velocity=100, time=2)
Message('note_off', channel=4, note=68, velocity=0, time=22)
Message('note_on', channel=4, note=69, velocity=100, time=2)
Message('note_off', channel=4, note=69, velocity=0, time=22)
Message('note_on', channel=4, note=73, velocity=100, time=2)
Message('note_off', channel=4, note=73, velocity=0, time=22)
Message('note_on', channel=4, note=78, velocity=100, time=2)
Message('note_off', channel=4, note=78, velocity=0, time=22)
Message('note_on', channel=4, note=71, velocity=100, time=2)
Message('note_off', channel=4, note=71, velocity=0, time=22)
Message('note_on', channel=4, note=76, velocity=100, time=2)
Message('note_off', channel=4, note=76, velocity=0, time=22)
Message('note_on', channel=4, note=80, velocity=100, time=2)
Message('note_off', channel=4, note=80, velocity=0, time=22)
Message('note_on', channel=4, note=73, velocity=100, time=2)
Message('note_off', channel=4, note=73, velocity=0, time=22)
Message('note_on', channel=4, note=78, velocity=100, time=2)
Message('note_off', channel=4, note=78, velocity=0, time=22)
Message('note_on', channel=4, note=69, velocity=120, time=2)
Message('note_on', channel=4, note=78, velocity=120, time=0)
Message('note_off', channel=4, note=78, velocity=0, time=92)
Message('note_off', channel=4, note=69, velocity=0, time=0)
Message('note_on', channel=4, note=71, velocity=120, time=4)
Message('note_on', channel=4, note=80, velocity=120, time=0)
Message('control_change', channel=4, control=10, value=70, time=88)
Message('note_off', channel=4, note=80, velocity=0, time=4)
Message('note_off', channel=4, note=71, velocity=0, time=0)
Message('control_change', channel=4, control=101, value=0, time=388)
Message('control_change', channel=4, control=100, value=0, time=0)
Message('control_change', channel=4, control=6, value=12, time=0)
Message('control_change', channel=4, control=10, value=70, time=0)
Message('control_change', channel=4, control=7, value=103, time=0)
Message('pitchwheel', channel=4, pitch=0, time=0)
Message('program_change', channel=4, program=1, time=0)
Message('control_change', channel=4, control=91, value=90, time=0)
Message('control_change', channel=4, control=93, value=20, time=0)
Message('control_change', channel=4, control=101, value=0, time=1)
Message('control_change', channel=4, control=100, value=0, time=0)
Message('control_change', channel=4, control=6, value=12, time=0)
Message('control_change', channel=4, control=10, value=70, time=0)
Message('control_change', channel=4, control=7, value=103, time=0)
Message('pitchwheel', channel=4, pitch=0, time=0)
Message('program_change', channel=4, program=1, time=0)
Message('control_change', channel=4, control=91, value=90, time=0)
Message('control_change', channel=4, control=93, value=20, time=0)
Message('control_change', channel=4, control=101, value=0, time=0)
Message('control_change', channel=4, control=100, value=0, time=0)
Message('control_change', channel=4, control=6, value=12, time=0)
Message('control_change', channel=4, control=10, value=70, time=0)
Message('control_change', channel=4, control=7, value=103, time=0)
Message('pitchwheel', channel=4, pitch=0, time=0)
Message('program_change', channel=4, program=1, time=0)
Message('control_change', channel=4, control=91, value=90, time=0)
Message('control_change', channel=4, control=93, value=20, time=0)
MetaMessage('end_of_track', time=0)
=== Track 7
MetaMessage('track_name', name='Channel #6', time=0)
Message('control_change', channel=5, control=10, value=64, time=0)
Message('control_change', channel=5, control=7, value=95, time=0)
Message('pitchwheel', channel=5, pitch=0, time=0)
Message('control_change', channel=5, control=101, value=0, time=0)
Message('control_change', channel=5, control=100, value=0, time=0)
Message('control_change', channel=5, control=6, value=12, time=0)
Message('control_change', channel=5, control=10, value=64, time=0)
Message('control_change', channel=5, control=7, value=95, time=0)
Message('pitchwheel', channel=5, pitch=0, time=0)
Message('program_change', channel=5, program=75, time=0)
Message('control_change', channel=5, control=91, value=40, time=0)
Message('control_change', channel=5, control=93, value=20, time=0)
Message('control_change', channel=5, control=101, value=0, time=0)
Message('control_change', channel=5, control=100, value=0, time=0)
Message('control_change', channel=5, control=6, value=12, time=0)
Message('control_change', channel=5, control=10, value=64, time=0)
Message('control_change', channel=5, control=7, value=95, time=0)
Message('pitchwheel', channel=5, pitch=0, time=0)
Message('program_change', channel=5, program=75, time=0)
Message('control_change', channel=5, control=91, value=40, time=0)
Message('control_change', channel=5, control=93, value=20, time=0)
Message('control_change', channel=5, control=10, value=64, time=0)
Message('control_change', channel=5, control=7, value=95, time=0)
Message('pitchwheel', channel=5, pitch=0, time=0)
Message('program_change', channel=5, program=75, time=0)
Message('control_change', channel=5, control=91, value=40, time=0)
Message('control_change', channel=5, control=93, value=20, time=0)
Message('control_change', channel=5, control=101, value=0, time=0)
Message('control_change', channel=5, control=100, value=0, time=0)
Message('control_change', channel=5, control=6, value=12, time=0)
Message('control_change', channel=5, control=10, value=64, time=0)
Message('control_change', channel=5, control=7, value=95, time=0)
Message('pitchwheel', channel=5, pitch=0, time=0)
Message('program_change', channel=5, program=75, time=0)
Message('control_change', channel=5, control=91, value=40, time=0)
Message('control_change', channel=5, control=93, value=20, time=0)
Message('control_change', channel=5, control=10, value=64, time=0)
Message('control_change', channel=5, control=7, value=95, time=0)
Message('pitchwheel', channel=5, pitch=0, time=0)
Message('program_change', channel=5, program=75, time=0)
Message('control_change', channel=5, control=91, value=40, time=0)
Message('control_change', channel=5, control=93, value=20, time=0)
Message('note_on', channel=5, note=92, velocity=120, time=15648)
Message('note_off', channel=5, note=92, velocity=0, time=92)
Message('note_on', channel=5, note=93, velocity=120, time=4)
Message('note_off', channel=5, note=93, velocity=0, time=92)
Message('note_on', channel=5, note=85, velocity=120, time=4)
Message('note_off', channel=5, note=85, velocity=0, time=46)
Message('note_on', channel=5, note=93, velocity=120, time=2)
Message('note_off', channel=5, note=93, velocity=0, time=46)
Message('note_on', channel=5, note=92, velocity=120, time=2)
Message('note_off', channel=5, note=92, velocity=0, time=46)
Message('note_on', channel=5, note=90, velocity=120, time=2)
Message('note_off', channel=5, note=90, velocity=0, time=46)
Message('note_on', channel=5, note=88, velocity=120, time=2)
Message('note_off', channel=5, note=88, velocity=0, time=46)
Message('note_on', channel=5, note=86, velocity=120, time=2)
Message('note_off', channel=5, note=86, velocity=0, time=46)
Message('note_on', channel=5, note=85, velocity=120, time=2)
Message('note_off', channel=5, note=85, velocity=0, time=34)
Message('note_on', channel=5, note=88, velocity=120, time=14)
Message('note_off', channel=5, note=88, velocity=0, time=34)
Message('note_on', channel=5, note=83, velocity=120, time=14)
Message('note_off', channel=5, note=83, velocity=0, time=34)
Message('note_on', channel=5, note=85, velocity=120, time=14)
Message('note_off', channel=5, note=85, velocity=0, time=34)
Message('note_on', channel=5, note=81, velocity=120, time=14)
Message('note_off', channel=5, note=81, velocity=0, time=134)
Message('note_on', channel=5, note=81, velocity=120, time=10)
Message('note_on', channel=5, note=74, velocity=100, time=44)
Message('note_off', channel=5, note=81, velocity=0, time=0)
Message('note_on', channel=5, note=83, velocity=120, time=4)
Message('note_off', channel=5, note=74, velocity=64, time=2)
Message('note_off', channel=5, note=83, velocity=0, time=42)
Message('note_on', channel=5, note=85, velocity=120, time=4)
Message('note_off', channel=5, note=85, velocity=0, time=44)
Message('note_on', channel=5, note=88, velocity=120, time=4)
Message('note_off', channel=5, note=88, velocity=0, time=44)
Message('note_on', channel=5, note=85, velocity=120, time=4)
Message('note_off', channel=5, note=85, velocity=0, time=44)
Message('note_on', channel=5, note=83, velocity=120, time=4)
Message('note_off', channel=5, note=83, velocity=0, time=44)
Message('note_on', channel=5, note=85, velocity=120, time=4)
Message('note_off', channel=5, note=85, velocity=0, time=30)
Message('note_on', channel=5, note=81, velocity=120, time=6)
Message('note_off', channel=5, note=81, velocity=0, time=8)
Message('note_on', channel=5, note=83, velocity=120, time=4)
Message('note_off', channel=5, note=83, velocity=0, time=44)
Message('note_on', channel=5, note=81, velocity=120, time=4)
Message('note_off', channel=5, note=81, velocity=0, time=44)
Message('note_on', channel=5, note=78, velocity=120, time=4)
Message('note_off', channel=5, note=78, velocity=0, time=44)
Message('note_on', channel=5, note=81, velocity=120, time=4)
Message('note_off', channel=5, note=81, velocity=0, time=44)
Message('note_on', channel=5, note=78, velocity=60, time=4)
Message('note_off', channel=5, note=78, velocity=0, time=8)
Message('note_on', channel=5, note=76, velocity=60, time=4)
Message('note_off', channel=5, note=76, velocity=0, time=8)
Message('note_on', channel=5, note=78, velocity=70, time=4)
Message('note_off', channel=5, note=78, velocity=0, time=8)
Message('note_on', channel=5, note=76, velocity=80, time=4)
Message('note_off', channel=5, note=76, velocity=0, time=8)
Message('note_on', channel=5, note=78, velocity=90, time=4)
Message('note_off', channel=5, note=78, velocity=0, time=8)
Message('note_on', channel=5, note=76, velocity=100, time=4)
Message('note_off', channel=5, note=76, velocity=0, time=8)
Message('note_on', channel=5, note=78, velocity=110, time=4)
Message('note_off', channel=5, note=78, velocity=0, time=8)
Message('note_on', channel=5, note=76, velocity=120, time=4)
Message('note_off', channel=5, note=76, velocity=0, time=8)
Message('note_on', channel=5, note=78, velocity=120, time=4)
Message('note_off', channel=5, note=78, velocity=0, time=134)
Message('note_on', channel=5, note=93, velocity=120, time=10)
Message('note_off', channel=5, note=93, velocity=0, time=140)
Message('note_on', channel=5, note=85, velocity=120, time=4)
Message('note_off', channel=5, note=85, velocity=0, time=46)
Message('note_on', channel=5, note=93, velocity=120, time=2)
Message('note_off', channel=5, note=93, velocity=0, time=46)
Message('note_on', channel=5, note=92, velocity=120, time=2)
Message('note_off', channel=5, note=92, velocity=0, time=46)
Message('note_on', channel=5, note=90, velocity=120, time=2)
Message('note_off', channel=5, note=90, velocity=0, time=46)
Message('note_on', channel=5, note=88, velocity=120, time=2)
Message('note_off', channel=5, note=88, velocity=0, time=46)
Message('note_on', channel=5, note=86, velocity=120, time=2)
Message('note_off', channel=5, note=86, velocity=0, time=46)
Message('note_on', channel=5, note=85, velocity=120, time=2)
Message('note_off', channel=5, note=85, velocity=0, time=34)
Message('note_on', channel=5, note=88, velocity=120, time=14)
Message('note_off', channel=5, note=88, velocity=0, time=34)
Message('note_on', channel=5, note=83, velocity=120, time=14)
Message('note_off', channel=5, note=83, velocity=0, time=34)
Message('note_on', channel=5, note=85, velocity=120, time=14)
Message('note_off', channel=5, note=85, velocity=0, time=34)
Message('note_on', channel=5, note=81, velocity=120, time=14)
Message('note_off', channel=5, note=81, velocity=0, time=134)
Message('note_on', channel=5, note=81, velocity=120, time=10)
Message('note_off', channel=5, note=81, velocity=0, time=44)
Message('note_on', channel=5, note=83, velocity=120, time=4)
Message('note_off', channel=5, note=83, velocity=0, time=44)
Message('note_on', channel=5, note=85, velocity=120, time=4)
Message('note_off', channel=5, note=85, velocity=0, time=44)
Message('note_on', channel=5, note=88, velocity=120, time=4)
Message('note_off', channel=5, note=88, velocity=0, time=44)
Message('note_on', channel=5, note=85, velocity=120, time=4)
Message('note_off', channel=5, note=85, velocity=0, time=44)
Message('note_on', channel=5, note=83, velocity=120, time=4)
Message('note_off', channel=5, note=83, velocity=0, time=44)
Message('note_on', channel=5, note=85, velocity=120, time=4)
Message('note_off', channel=5, note=85, velocity=0, time=30)
Message('note_on', channel=5, note=85, velocity=120, time=6)
Message('note_off', channel=5, note=85, velocity=0, time=8)
Message('note_on', channel=5, note=88, velocity=120, time=4)
Message('note_off', channel=5, note=88, velocity=0, time=44)
Message('note_on', channel=5, note=90, velocity=120, time=4)
Message('note_off', channel=5, note=90, velocity=0, time=44)
Message('note_on', channel=5, note=93, velocity=120, time=4)
Message('note_off', channel=5, note=93, velocity=0, time=44)
Message('note_on', channel=5, note=90, velocity=120, time=4)
Message('note_off', channel=5, note=90, velocity=0, time=44)
Message('note_on', channel=5, note=88, velocity=60, time=4)
Message('note_off', channel=5, note=88, velocity=0, time=8)
Message('note_on', channel=5, note=90, velocity=60, time=4)
Message('note_off', channel=5, note=90, velocity=0, time=8)
Message('note_on', channel=5, note=88, velocity=70, time=4)
Message('note_off', channel=5, note=88, velocity=0, time=8)
Message('note_on', channel=5, note=90, velocity=80, time=4)
Message('note_off', channel=5, note=90, velocity=0, time=8)
Message('note_on', channel=5, note=88, velocity=90, time=4)
Message('note_off', channel=5, note=88, velocity=0, time=8)
Message('note_on', channel=5, note=90, velocity=100, time=4)
Message('note_off', channel=5, note=90, velocity=0, time=8)
Message('note_on', channel=5, note=88, velocity=110, time=4)
Message('note_off', channel=5, note=88, velocity=0, time=8)
Message('note_on', channel=5, note=90, velocity=120, time=4)
Message('note_off', channel=5, note=90, velocity=0, time=8)
Message('note_on', channel=5, note=90, velocity=120, time=4)
Message('note_off', channel=5, note=90, velocity=0, time=182)
Message('control_change', channel=5, control=101, value=0, time=12682)
Message('control_change', channel=5, control=100, value=0, time=0)
Message('control_change', channel=5, control=6, value=12, time=0)
Message('control_change', channel=5, control=10, value=64, time=0)
Message('control_change', channel=5, control=7, value=95, time=0)
Message('pitchwheel', channel=5, pitch=0, time=0)
Message('program_change', channel=5, program=75, time=0)
Message('control_change', channel=5, control=91, value=40, time=0)
Message('control_change', channel=5, control=93, value=20, time=0)
Message('control_change', channel=5, control=101, value=0, time=1)
Message('control_change', channel=5, control=100, value=0, time=0)
Message('control_change', channel=5, control=6, value=12, time=0)
Message('control_change', channel=5, control=10, value=64, time=0)
Message('control_change', channel=5, control=7, value=95, time=0)
Message('pitchwheel', channel=5, pitch=0, time=0)
Message('program_change', channel=5, program=75, time=0)
Message('control_change', channel=5, control=91, value=40, time=0)
Message('control_change', channel=5, control=93, value=20, time=0)
Message('control_change', channel=5, control=101, value=0, time=0)
Message('control_change', channel=5, control=100, value=0, time=0)
Message('control_change', channel=5, control=6, value=12, time=0)
Message('control_change', channel=5, control=10, value=64, time=0)
Message('control_change', channel=5, control=7, value=95, time=0)
Message('pitchwheel', channel=5, pitch=0, time=0)
Message('program_change', channel=5, program=75, time=0)
Message('control_change', channel=5, control=91, value=40, time=0)
Message('control_change', channel=5, control=93, value=20, time=0)
MetaMessage('end_of_track', time=0)
=== Track 8
MetaMessage('track_name', name='Channel #7', time=0)
Message('control_change', channel=6, control=10, value=90, time=0)
Message('control_change', channel=6, control=7, value=96, time=0)
Message('pitchwheel', channel=6, pitch=0, time=0)
Message('control_change', channel=6, control=101, value=0, time=0)
Message('control_change', channel=6, control=100, value=0, time=0)
Message('control_change', channel=6, control=6, value=12, time=0)
Message('control_change', channel=6, control=10, value=90, time=0)
Message('control_change', channel=6, control=7, value=96, time=0)
Message('pitchwheel', channel=6, pitch=0, time=0)
Message('program_change', channel=6, program=48, time=0)
Message('control_change', channel=6, control=91, value=60, time=0)
Message('control_change', channel=6, control=93, value=30, time=0)
Message('control_change', channel=6, control=101, value=0, time=0)
Message('control_change', channel=6, control=100, value=0, time=0)
Message('control_change', channel=6, control=6, value=12, time=0)
Message('control_change', channel=6, control=10, value=90, time=0)
Message('control_change', channel=6, control=7, value=96, time=0)
Message('pitchwheel', channel=6, pitch=0, time=0)
Message('program_change', channel=6, program=48, time=0)
Message('control_change', channel=6, control=91, value=60, time=0)
Message('control_change', channel=6, control=93, value=30, time=0)
Message('control_change', channel=6, control=10, value=90, time=0)
Message('control_change', channel=6, control=7, value=96, time=0)
Message('pitchwheel', channel=6, pitch=0, time=0)
Message('program_change', channel=6, program=48, time=0)
Message('control_change', channel=6, control=91, value=60, time=0)
Message('control_change', channel=6, control=93, value=30, time=0)
Message('control_change', channel=6, control=101, value=0, time=0)
Message('control_change', channel=6, control=100, value=0, time=0)
Message('control_change', channel=6, control=6, value=12, time=0)
Message('control_change', channel=6, control=10, value=90, time=0)
Message('control_change', channel=6, control=7, value=96, time=0)
Message('pitchwheel', channel=6, pitch=0, time=0)
Message('program_change', channel=6, program=48, time=0)
Message('control_change', channel=6, control=91, value=60, time=0)
Message('control_change', channel=6, control=93, value=30, time=0)
Message('control_change', channel=6, control=10, value=90, time=0)
Message('control_change', channel=6, control=7, value=96, time=0)
Message('pitchwheel', channel=6, pitch=0, time=0)
Message('program_change', channel=6, program=48, time=0)
Message('control_change', channel=6, control=91, value=60, time=0)
Message('control_change', channel=6, control=93, value=30, time=0)
Message('note_on', channel=6, note=54, velocity=70, time=384)
Message('note_off', channel=6, note=54, velocity=0, time=762)
Message('note_on', channel=6, note=50, velocity=70, time=6)
Message('note_off', channel=6, note=50, velocity=0, time=182)
Message('note_on', channel=6, note=53, velocity=70, time=10)
Message('note_off', channel=6, note=53, velocity=0, time=182)
Message('note_on', channel=6, note=49, velocity=70, time=10)
Message('note_off', channel=6, note=49, velocity=0, time=378)
Message('note_on', channel=6, note=50, velocity=70, time=6)
Message('note_off', channel=6, note=50, velocity=0, time=182)
Message('note_on', channel=6, note=56, velocity=70, time=10)
Message('note_off', channel=6, note=56, velocity=0, time=182)
Message('note_on', channel=6, note=57, velocity=70, time=10)
Message('note_off', channel=6, note=57, velocity=0, time=182)
Message('note_on', channel=6, note=61, velocity=70, time=10)
Message('note_off', channel=6, note=61, velocity=0, time=182)
Message('note_on', channel=6, note=66, velocity=70, time=10)
Message('note_on', channel=6, note=57, velocity=70, time=0)
Message('note_off', channel=6, note=57, velocity=0, time=182)
Message('note_off', channel=6, note=66, velocity=0, time=0)
Message('note_on', channel=6, note=68, velocity=70, time=10)
Message('note_on', channel=6, note=59, velocity=70, time=0)
Message('note_off', channel=6, note=59, velocity=0, time=182)
Message('note_off', channel=6, note=68, velocity=0, time=0)
Message('note_on', channel=6, note=69, velocity=70, time=10)
Message('note_on', channel=6, note=61, velocity=70, time=0)
Message('pitchwheel', channel=6, pitch=-6, time=368)
Message('note_off', channel=6, note=61, velocity=0, time=10)
Message('note_off', channel=6, note=69, velocity=0, time=0)
Message('note_on', channel=6, note=57, velocity=110, time=6)
Message('note_on', channel=6, note=50, velocity=110, time=0)
Message('pitchwheel', channel=6, pitch=-13, time=22)
Message('pitchwheel', channel=6, pitch=-20, time=22)
Message('pitchwheel', channel=6, pitch=-27, time=8)
Message('pitchwheel', channel=6, pitch=-34, time=16)
Message('pitchwheel', channel=6, pitch=-40, time=12)
Message('pitchwheel', channel=6, pitch=-47, time=12)
Message('pitchwheel', channel=6, pitch=-54, time=8)
Message('pitchwheel', channel=6, pitch=-61, time=8)
Message('pitchwheel', channel=6, pitch=-68, time=8)
Message('pitchwheel', channel=6, pitch=-75, time=6)
Message('pitchwheel', channel=6, pitch=-81, time=6)
Message('pitchwheel', channel=6, pitch=-88, time=6)
Message('pitchwheel', channel=6, pitch=-95, time=6)
Message('pitchwheel', channel=6, pitch=-102, time=4)
Message('pitchwheel', channel=6, pitch=-109, time=4)
Message('pitchwheel', channel=6, pitch=-116, time=2)
Message('pitchwheel', channel=6, pitch=-122, time=4)
Message('pitchwheel', channel=6, pitch=-129, time=4)
Message('pitchwheel', channel=6, pitch=-136, time=4)
Message('pitchwheel', channel=6, pitch=-143, time=4)
Message('pitchwheel', channel=6, pitch=-150, time=2)
Message('pitchwheel', channel=6, pitch=-157, time=4)
Message('pitchwheel', channel=6, pitch=-163, time=2)
Message('pitchwheel', channel=6, pitch=-170, time=2)
Message('pitchwheel', channel=6, pitch=-177, time=4)
Message('note_off', channel=6, note=50, velocity=0, time=2)
Message('note_off', channel=6, note=57, velocity=0, time=0)
Message('pitchwheel', channel=6, pitch=0, time=2)
Message('note_on', channel=6, note=59, velocity=110, time=8)
Message('note_on', channel=6, note=52, velocity=110, time=0)
Message('note_off', channel=6, note=52, velocity=0, time=182)
Message('note_off', channel=6, note=59, velocity=0, time=0)
Message('note_on', channel=6, note=61, velocity=110, time=10)
Message('note_on', channel=6, note=54, velocity=110, time=0)
Message('note_off', channel=6, note=54, velocity=0, time=378)
Message('note_off', channel=6, note=61, velocity=0, time=0)
Message('note_on', channel=6, note=57, velocity=110, time=6)
Message('note_on', channel=6, note=50, velocity=110, time=0)
Message('note_off', channel=6, note=50, velocity=0, time=182)
Message('note_off', channel=6, note=57, velocity=0, time=0)
Message('note_on', channel=6, note=59, velocity=110, time=10)
Message('note_on', channel=6, note=53, velocity=110, time=0)
Message('note_off', channel=6, note=53, velocity=0, time=182)
Message('note_off', channel=6, note=59, velocity=0, time=0)
Message('note_on', channel=6, note=57, velocity=110, time=10)
Message('note_on', channel=6, note=54, velocity=110, time=0)
Message('note_off', channel=6, note=54, velocity=0, time=378)
Message('note_off', channel=6, note=57, velocity=0, time=0)
Message('note_on', channel=6, note=57, velocity=110, time=6)
Message('note_on', channel=6, note=50, velocity=110, time=0)
Message('note_off', channel=6, note=50, velocity=0, time=182)
Message('note_off', channel=6, note=57, velocity=0, time=0)
Message('note_on', channel=6, note=59, velocity=110, time=10)
Message('note_on', channel=6, note=52, velocity=110, time=0)
Message('note_off', channel=6, note=52, velocity=0, time=182)
Message('note_off', channel=6, note=59, velocity=0, time=0)
Message('note_on', channel=6, note=61, velocity=110, time=10)
Message('note_on', channel=6, note=54, velocity=110, time=0)
Message('note_off', channel=6, note=54, velocity=0, time=378)
Message('note_off', channel=6, note=61, velocity=0, time=0)
Message('note_on', channel=6, note=57, velocity=110, time=6)
Message('note_on', channel=6, note=50, velocity=110, time=0)
Message('note_off', channel=6, note=50, velocity=0, time=182)
Message('note_off', channel=6, note=57, velocity=0, time=0)
Message('note_on', channel=6, note=59, velocity=110, time=10)
Message('note_on', channel=6, note=52, velocity=110, time=0)
Message('note_off', channel=6, note=52, velocity=0, time=182)
Message('note_off', channel=6, note=59, velocity=0, time=0)
Message('note_on', channel=6, note=66, velocity=110, time=10)
Message('note_on', channel=6, note=57, velocity=110, time=0)
Message('note_off', channel=6, note=57, velocity=0, time=378)
Message('note_off', channel=6, note=66, velocity=0, time=0)
Message('note_on', channel=6, note=57, velocity=110, time=6)
Message('note_on', channel=6, note=50, velocity=110, time=0)
Message('note_off', channel=6, note=50, velocity=0, time=182)
Message('note_off', channel=6, note=57, velocity=0, time=0)
Message('note_on', channel=6, note=59, velocity=110, time=10)
Message('note_on', channel=6, note=52, velocity=110, time=0)
Message('note_off', channel=6, note=52, velocity=0, time=182)
Message('note_off', channel=6, note=59, velocity=0, time=0)
Message('note_on', channel=6, note=61, velocity=110, time=10)
Message('note_on', channel=6, note=54, velocity=110, time=0)
Message('note_off', channel=6, note=54, velocity=0, time=378)
Message('note_off', channel=6, note=61, velocity=0, time=0)
Message('note_on', channel=6, note=57, velocity=110, time=6)
Message('note_on', channel=6, note=50, velocity=110, time=0)
Message('note_off', channel=6, note=50, velocity=0, time=182)
Message('note_off', channel=6, note=57, velocity=0, time=0)
Message('note_on', channel=6, note=59, velocity=110, time=10)
Message('note_on', channel=6, note=53, velocity=110, time=0)
Message('note_off', channel=6, note=53, velocity=0, time=182)
Message('note_off', channel=6, note=59, velocity=0, time=0)
Message('note_on', channel=6, note=57, velocity=110, time=10)
Message('note_on', channel=6, note=54, velocity=110, time=0)
Message('note_off', channel=6, note=54, velocity=0, time=378)
Message('note_off', channel=6, note=57, velocity=0, time=0)
Message('note_on', channel=6, note=57, velocity=110, time=6)
Message('note_on', channel=6, note=50, velocity=110, time=0)
Message('note_off', channel=6, note=50, velocity=0, time=182)
Message('note_off', channel=6, note=57, velocity=0, time=0)
Message('note_on', channel=6, note=59, velocity=110, time=10)
Message('note_on', channel=6, note=52, velocity=110, time=0)
Message('note_off', channel=6, note=52, velocity=0, time=182)
Message('note_off', channel=6, note=59, velocity=0, time=0)
Message('note_on', channel=6, note=61, velocity=110, time=10)
Message('note_on', channel=6, note=54, velocity=110, time=0)
Message('note_off', channel=6, note=54, velocity=0, time=378)
Message('note_off', channel=6, note=61, velocity=0, time=0)
Message('note_on', channel=6, note=57, velocity=110, time=6)
Message('note_on', channel=6, note=50, velocity=110, time=0)
Message('note_off', channel=6, note=50, velocity=0, time=182)
Message('note_off', channel=6, note=57, velocity=0, time=0)
Message('note_on', channel=6, note=59, velocity=110, time=10)
Message('note_on', channel=6, note=52, velocity=110, time=0)
Message('note_off', channel=6, note=52, velocity=0, time=182)
Message('note_off', channel=6, note=59, velocity=0, time=0)
Message('note_on', channel=6, note=66, velocity=110, time=10)
Message('note_on', channel=6, note=57, velocity=110, time=0)
Message('note_off', channel=6, note=57, velocity=0, time=378)
Message('note_off', channel=6, note=66, velocity=0, time=0)
Message('note_on', channel=6, note=54, velocity=80, time=6)
Message('note_off', channel=6, note=54, velocity=0, time=382)
Message('note_on', channel=6, note=52, velocity=80, time=2)
Message('note_off', channel=6, note=52, velocity=0, time=382)
Message('note_on', channel=6, note=51, velocity=80, time=2)
Message('note_off', channel=6, note=51, velocity=0, time=766)
Message('note_on', channel=6, note=50, velocity=80, time=2)
Message('note_off', channel=6, note=50, velocity=0, time=382)
Message('note_on', channel=6, note=52, velocity=80, time=2)
Message('note_off', channel=6, note=52, velocity=0, time=382)
Message('note_on', channel=6, note=49, velocity=80, time=2)
Message('note_off', channel=6, note=49, velocity=0, time=766)
Message('note_on', channel=6, note=54, velocity=80, time=2)
Message('note_off', channel=6, note=54, velocity=0, time=382)
Message('note_on', channel=6, note=52, velocity=80, time=2)
Message('note_off', channel=6, note=52, velocity=0, time=382)
Message('note_on', channel=6, note=51, velocity=80, time=2)
Message('note_off', channel=6, note=51, velocity=0, time=766)
Message('note_on', channel=6, note=50, velocity=80, time=2)
Message('note_off', channel=6, note=50, velocity=0, time=382)
Message('note_on', channel=6, note=52, velocity=80, time=2)
Message('note_off', channel=6, note=52, velocity=0, time=382)
Message('note_on', channel=6, note=54, velocity=80, time=2)
Message('note_off', channel=6, note=54, velocity=0, time=382)
Message('note_on', channel=6, note=66, velocity=80, time=2)
Message('note_off', channel=6, note=66, velocity=0, time=282)
Message('note_on', channel=6, note=92, velocity=120, time=6)
Message('note_off', channel=6, note=92, velocity=0, time=92)
Message('note_on', channel=6, note=93, velocity=120, time=4)
Message('note_off', channel=6, note=93, velocity=0, time=92)
Message('note_on', channel=6, note=85, velocity=120, time=4)
Message('note_off', channel=6, note=85, velocity=0, time=46)
Message('note_on', channel=6, note=93, velocity=120, time=2)
Message('note_off', channel=6, note=93, velocity=0, time=46)
Message('note_on', channel=6, note=92, velocity=120, time=2)
Message('note_off', channel=6, note=92, velocity=0, time=46)
Message('note_on', channel=6, note=90, velocity=120, time=2)
Message('note_off', channel=6, note=90, velocity=0, time=46)
Message('note_on', channel=6, note=88, velocity=120, time=2)
Message('note_off', channel=6, note=88, velocity=0, time=46)
Message('note_on', channel=6, note=86, velocity=120, time=2)
Message('note_off', channel=6, note=86, velocity=0, time=46)
Message('note_on', channel=6, note=85, velocity=120, time=2)
Message('note_off', channel=6, note=85, velocity=0, time=34)
Message('note_on', channel=6, note=88, velocity=120, time=14)
Message('note_off', channel=6, note=88, velocity=0, time=34)
Message('note_on', channel=6, note=83, velocity=120, time=14)
Message('note_off', channel=6, note=83, velocity=0, time=34)
Message('note_on', channel=6, note=85, velocity=120, time=14)
Message('note_off', channel=6, note=85, velocity=0, time=34)
Message('note_on', channel=6, note=81, velocity=120, time=14)
Message('note_off', channel=6, note=81, velocity=0, time=134)
Message('note_on', channel=6, note=81, velocity=120, time=10)
Message('note_off', channel=6, note=81, velocity=0, time=44)
Message('note_on', channel=6, note=83, velocity=120, time=4)
Message('note_off', channel=6, note=83, velocity=0, time=44)
Message('note_on', channel=6, note=85, velocity=120, time=4)
Message('note_off', channel=6, note=85, velocity=0, time=44)
Message('note_on', channel=6, note=88, velocity=120, time=4)
Message('note_off', channel=6, note=88, velocity=0, time=44)
Message('note_on', channel=6, note=85, velocity=120, time=4)
Message('note_off', channel=6, note=85, velocity=0, time=44)
Message('note_on', channel=6, note=83, velocity=120, time=4)
Message('note_off', channel=6, note=83, velocity=0, time=44)
Message('note_on', channel=6, note=85, velocity=120, time=4)
Message('note_off', channel=6, note=85, velocity=0, time=30)
Message('note_on', channel=6, note=81, velocity=120, time=6)
Message('note_off', channel=6, note=81, velocity=0, time=8)
Message('note_on', channel=6, note=83, velocity=120, time=4)
Message('note_off', channel=6, note=83, velocity=0, time=44)
Message('note_on', channel=6, note=81, velocity=120, time=4)
Message('note_off', channel=6, note=81, velocity=0, time=44)
Message('note_on', channel=6, note=78, velocity=120, time=4)
Message('note_off', channel=6, note=78, velocity=0, time=44)
Message('note_on', channel=6, note=81, velocity=120, time=4)
Message('note_off', channel=6, note=81, velocity=0, time=44)
Message('note_on', channel=6, note=78, velocity=60, time=4)
Message('note_off', channel=6, note=78, velocity=0, time=8)
Message('note_on', channel=6, note=76, velocity=60, time=4)
Message('note_off', channel=6, note=76, velocity=0, time=8)
Message('note_on', channel=6, note=78, velocity=70, time=4)
Message('note_off', channel=6, note=78, velocity=0, time=8)
Message('note_on', channel=6, note=76, velocity=80, time=4)
Message('note_off', channel=6, note=76, velocity=0, time=8)
Message('note_on', channel=6, note=78, velocity=90, time=4)
Message('note_off', channel=6, note=78, velocity=0, time=8)
Message('note_on', channel=6, note=76, velocity=100, time=4)
Message('note_off', channel=6, note=76, velocity=0, time=8)
Message('note_on', channel=6, note=78, velocity=110, time=4)
Message('note_off', channel=6, note=78, velocity=0, time=8)
Message('note_on', channel=6, note=76, velocity=120, time=4)
Message('note_off', channel=6, note=76, velocity=0, time=8)
Message('note_on', channel=6, note=78, velocity=120, time=4)
Message('note_off', channel=6, note=78, velocity=0, time=134)
Message('note_on', channel=6, note=93, velocity=120, time=10)
Message('note_off', channel=6, note=93, velocity=0, time=140)
Message('note_on', channel=6, note=85, velocity=120, time=4)
Message('note_off', channel=6, note=85, velocity=0, time=46)
Message('note_on', channel=6, note=93, velocity=120, time=2)
Message('note_off', channel=6, note=93, velocity=0, time=46)
Message('note_on', channel=6, note=92, velocity=120, time=2)
Message('note_off', channel=6, note=92, velocity=0, time=46)
Message('note_on', channel=6, note=90, velocity=120, time=2)
Message('note_off', channel=6, note=90, velocity=0, time=46)
Message('note_on', channel=6, note=88, velocity=120, time=2)
Message('note_off', channel=6, note=88, velocity=0, time=46)
Message('note_on', channel=6, note=86, velocity=120, time=2)
Message('note_off', channel=6, note=86, velocity=0, time=46)
Message('note_on', channel=6, note=85, velocity=120, time=2)
Message('note_off', channel=6, note=85, velocity=0, time=34)
Message('note_on', channel=6, note=88, velocity=120, time=14)
Message('note_off', channel=6, note=88, velocity=0, time=34)
Message('note_on', channel=6, note=83, velocity=120, time=14)
Message('note_off', channel=6, note=83, velocity=0, time=34)
Message('note_on', channel=6, note=85, velocity=120, time=14)
Message('note_off', channel=6, note=85, velocity=0, time=34)
Message('note_on', channel=6, note=81, velocity=120, time=14)
Message('note_off', channel=6, note=81, velocity=0, time=134)
Message('note_on', channel=6, note=81, velocity=120, time=10)
Message('note_off', channel=6, note=81, velocity=0, time=44)
Message('note_on', channel=6, note=83, velocity=120, time=4)
Message('note_off', channel=6, note=83, velocity=0, time=44)
Message('note_on', channel=6, note=85, velocity=120, time=4)
Message('note_off', channel=6, note=85, velocity=0, time=44)
Message('note_on', channel=6, note=88, velocity=120, time=4)
Message('note_off', channel=6, note=88, velocity=0, time=44)
Message('note_on', channel=6, note=85, velocity=120, time=4)
Message('note_off', channel=6, note=85, velocity=0, time=44)
Message('note_on', channel=6, note=83, velocity=120, time=4)
Message('note_off', channel=6, note=83, velocity=0, time=44)
Message('note_on', channel=6, note=85, velocity=120, time=4)
Message('note_off', channel=6, note=85, velocity=0, time=30)
Message('note_on', channel=6, note=85, velocity=120, time=6)
Message('note_off', channel=6, note=85, velocity=0, time=8)
Message('note_on', channel=6, note=88, velocity=120, time=4)
Message('note_off', channel=6, note=88, velocity=0, time=44)
Message('note_on', channel=6, note=90, velocity=120, time=4)
Message('note_off', channel=6, note=90, velocity=0, time=44)
Message('note_on', channel=6, note=93, velocity=120, time=4)
Message('note_off', channel=6, note=93, velocity=0, time=44)
Message('note_on', channel=6, note=90, velocity=120, time=4)
Message('note_off', channel=6, note=90, velocity=0, time=44)
Message('note_on', channel=6, note=88, velocity=60, time=4)
Message('note_off', channel=6, note=88, velocity=0, time=8)
Message('note_on', channel=6, note=90, velocity=60, time=4)
Message('note_off', channel=6, note=90, velocity=0, time=8)
Message('note_on', channel=6, note=88, velocity=70, time=4)
Message('note_off', channel=6, note=88, velocity=0, time=8)
Message('note_on', channel=6, note=90, velocity=80, time=4)
Message('note_off', channel=6, note=90, velocity=0, time=8)
Message('note_on', channel=6, note=88, velocity=90, time=4)
Message('note_off', channel=6, note=88, velocity=0, time=8)
Message('note_on', channel=6, note=90, velocity=100, time=4)
Message('note_off', channel=6, note=90, velocity=0, time=8)
Message('note_on', channel=6, note=88, velocity=110, time=4)
Message('note_off', channel=6, note=88, velocity=0, time=8)
Message('note_on', channel=6, note=90, velocity=120, time=4)
Message('note_off', channel=6, note=90, velocity=0, time=8)
Message('note_on', channel=6, note=90, velocity=120, time=4)
Message('note_off', channel=6, note=90, velocity=0, time=182)
Message('note_on', channel=6, note=50, velocity=110, time=10)
Message('note_on', channel=6, note=57, velocity=110, time=0)
Message('note_off', channel=6, note=57, velocity=0, time=182)
Message('note_off', channel=6, note=50, velocity=0, time=0)
Message('note_on', channel=6, note=59, velocity=110, time=10)
Message('note_on', channel=6, note=52, velocity=110, time=0)
Message('note_off', channel=6, note=52, velocity=0, time=182)
Message('note_off', channel=6, note=59, velocity=0, time=0)
Message('note_on', channel=6, note=61, velocity=110, time=10)
Message('note_on', channel=6, note=54, velocity=110, time=0)
Message('note_off', channel=6, note=54, velocity=0, time=378)
Message('note_off', channel=6, note=61, velocity=0, time=0)
Message('note_on', channel=6, note=57, velocity=110, time=6)
Message('note_on', channel=6, note=50, velocity=110, time=0)
Message('note_off', channel=6, note=50, velocity=0, time=182)
Message('note_off', channel=6, note=57, velocity=0, time=0)
Message('note_on', channel=6, note=59, velocity=110, time=10)
Message('note_on', channel=6, note=53, velocity=110, time=0)
Message('note_off', channel=6, note=53, velocity=0, time=182)
Message('note_off', channel=6, note=59, velocity=0, time=0)
Message('note_on', channel=6, note=57, velocity=110, time=10)
Message('note_on', channel=6, note=54, velocity=110, time=0)
Message('note_off', channel=6, note=54, velocity=0, time=378)
Message('note_off', channel=6, note=57, velocity=0, time=0)
Message('note_on', channel=6, note=57, velocity=110, time=6)
Message('note_on', channel=6, note=50, velocity=110, time=0)
Message('note_off', channel=6, note=50, velocity=0, time=182)
Message('note_off', channel=6, note=57, velocity=0, time=0)
Message('note_on', channel=6, note=59, velocity=110, time=10)
Message('note_on', channel=6, note=52, velocity=110, time=0)
Message('note_off', channel=6, note=52, velocity=0, time=182)
Message('note_off', channel=6, note=59, velocity=0, time=0)
Message('note_on', channel=6, note=61, velocity=110, time=10)
Message('note_on', channel=6, note=54, velocity=110, time=0)
Message('note_off', channel=6, note=54, velocity=0, time=378)
Message('note_off', channel=6, note=61, velocity=0, time=0)
Message('note_on', channel=6, note=57, velocity=110, time=6)
Message('note_on', channel=6, note=50, velocity=110, time=0)
Message('note_off', channel=6, note=50, velocity=0, time=182)
Message('note_off', channel=6, note=57, velocity=0, time=0)
Message('note_on', channel=6, note=59, velocity=110, time=10)
Message('note_on', channel=6, note=52, velocity=110, time=0)
Message('note_off', channel=6, note=52, velocity=0, time=182)
Message('note_off', channel=6, note=59, velocity=0, time=0)
Message('note_on', channel=6, note=66, velocity=110, time=10)
Message('note_on', channel=6, note=57, velocity=110, time=0)
Message('note_off', channel=6, note=57, velocity=0, time=378)
Message('note_off', channel=6, note=66, velocity=0, time=0)
Message('note_on', channel=6, note=57, velocity=110, time=6)
Message('note_on', channel=6, note=50, velocity=110, time=0)
Message('note_off', channel=6, note=50, velocity=0, time=182)
Message('note_off', channel=6, note=57, velocity=0, time=0)
Message('note_on', channel=6, note=59, velocity=110, time=10)
Message('note_on', channel=6, note=52, velocity=110, time=0)
Message('note_off', channel=6, note=52, velocity=0, time=182)
Message('note_off', channel=6, note=59, velocity=0, time=0)
Message('note_on', channel=6, note=61, velocity=110, time=10)
Message('note_on', channel=6, note=54, velocity=110, time=0)
Message('note_off', channel=6, note=54, velocity=0, time=378)
Message('note_off', channel=6, note=61, velocity=0, time=0)
Message('note_on', channel=6, note=57, velocity=110, time=6)
Message('note_on', channel=6, note=50, velocity=110, time=0)
Message('note_off', channel=6, note=50, velocity=0, time=182)
Message('note_off', channel=6, note=57, velocity=0, time=0)
Message('note_on', channel=6, note=59, velocity=110, time=10)
Message('note_on', channel=6, note=53, velocity=110, time=0)
Message('note_off', channel=6, note=53, velocity=0, time=182)
Message('note_off', channel=6, note=59, velocity=0, time=0)
Message('note_on', channel=6, note=57, velocity=110, time=10)
Message('note_on', channel=6, note=54, velocity=110, time=0)
Message('note_off', channel=6, note=54, velocity=0, time=378)
Message('note_off', channel=6, note=57, velocity=0, time=0)
Message('note_on', channel=6, note=57, velocity=110, time=6)
Message('note_on', channel=6, note=50, velocity=110, time=0)
Message('note_off', channel=6, note=50, velocity=0, time=182)
Message('note_off', channel=6, note=57, velocity=0, time=0)
Message('note_on', channel=6, note=59, velocity=110, time=10)
Message('note_on', channel=6, note=52, velocity=110, time=0)
Message('note_off', channel=6, note=52, velocity=0, time=182)
Message('note_off', channel=6, note=59, velocity=0, time=0)
Message('note_on', channel=6, note=61, velocity=110, time=10)
Message('note_on', channel=6, note=54, velocity=110, time=0)
Message('note_off', channel=6, note=54, velocity=0, time=378)
Message('note_off', channel=6, note=61, velocity=0, time=0)
Message('note_on', channel=6, note=57, velocity=110, time=6)
Message('note_on', channel=6, note=50, velocity=110, time=0)
Message('note_off', channel=6, note=50, velocity=0, time=182)
Message('note_off', channel=6, note=57, velocity=0, time=0)
Message('note_on', channel=6, note=59, velocity=110, time=10)
Message('note_on', channel=6, note=52, velocity=110, time=0)
Message('note_off', channel=6, note=52, velocity=0, time=182)
Message('note_off', channel=6, note=59, velocity=0, time=0)
Message('note_on', channel=6, note=66, velocity=110, time=10)
Message('note_on', channel=6, note=57, velocity=110, time=0)
Message('note_off', channel=6, note=57, velocity=0, time=378)
Message('note_off', channel=6, note=66, velocity=0, time=0)
Message('note_on', channel=6, note=57, velocity=110, time=6)
Message('note_on', channel=6, note=50, velocity=110, time=0)
Message('note_off', channel=6, note=50, velocity=0, time=182)
Message('note_off', channel=6, note=57, velocity=0, time=0)
Message('note_on', channel=6, note=59, velocity=110, time=10)
Message('note_on', channel=6, note=52, velocity=110, time=0)
Message('note_off', channel=6, note=52, velocity=0, time=182)
Message('note_off', channel=6, note=59, velocity=0, time=0)
Message('note_on', channel=6, note=61, velocity=110, time=10)
Message('note_on', channel=6, note=54, velocity=110, time=0)
Message('note_off', channel=6, note=54, velocity=0, time=378)
Message('note_off', channel=6, note=61, velocity=0, time=0)
Message('note_on', channel=6, note=57, velocity=110, time=6)
Message('note_on', channel=6, note=50, velocity=110, time=0)
Message('note_off', channel=6, note=50, velocity=0, time=182)
Message('note_off', channel=6, note=57, velocity=0, time=0)
Message('note_on', channel=6, note=59, velocity=110, time=10)
Message('note_on', channel=6, note=53, velocity=110, time=0)
Message('note_off', channel=6, note=53, velocity=0, time=182)
Message('note_off', channel=6, note=59, velocity=0, time=0)
Message('note_on', channel=6, note=57, velocity=110, time=10)
Message('note_on', channel=6, note=54, velocity=110, time=0)
Message('note_off', channel=6, note=54, velocity=0, time=378)
Message('note_off', channel=6, note=57, velocity=0, time=0)
Message('note_on', channel=6, note=57, velocity=110, time=6)
Message('note_on', channel=6, note=50, velocity=110, time=0)
Message('note_off', channel=6, note=50, velocity=0, time=182)
Message('note_off', channel=6, note=57, velocity=0, time=0)
Message('note_on', channel=6, note=59, velocity=110, time=10)
Message('note_on', channel=6, note=52, velocity=110, time=0)
Message('note_off', channel=6, note=52, velocity=0, time=182)
Message('note_off', channel=6, note=59, velocity=0, time=0)
Message('note_on', channel=6, note=61, velocity=110, time=10)
Message('note_on', channel=6, note=54, velocity=110, time=0)
Message('note_off', channel=6, note=54, velocity=0, time=378)
Message('note_off', channel=6, note=61, velocity=0, time=0)
Message('note_on', channel=6, note=57, velocity=110, time=6)
Message('note_on', channel=6, note=50, velocity=110, time=0)
Message('note_off', channel=6, note=50, velocity=0, time=182)
Message('note_off', channel=6, note=57, velocity=0, time=0)
Message('note_on', channel=6, note=59, velocity=110, time=10)
Message('note_on', channel=6, note=52, velocity=110, time=0)
Message('note_off', channel=6, note=52, velocity=0, time=182)
Message('note_off', channel=6, note=59, velocity=0, time=0)
Message('note_on', channel=6, note=66, velocity=110, time=10)
Message('note_on', channel=6, note=57, velocity=110, time=0)
Message('note_off', channel=6, note=57, velocity=0, time=378)
Message('note_off', channel=6, note=66, velocity=0, time=0)
Message('note_on', channel=6, note=57, velocity=110, time=6)
Message('note_on', channel=6, note=50, velocity=110, time=0)
Message('note_off', channel=6, note=50, velocity=0, time=182)
Message('note_off', channel=6, note=57, velocity=0, time=0)
Message('note_on', channel=6, note=59, velocity=110, time=10)
Message('note_on', channel=6, note=52, velocity=110, time=0)
Message('note_off', channel=6, note=52, velocity=0, time=182)
Message('note_off', channel=6, note=59, velocity=0, time=0)
Message('note_on', channel=6, note=61, velocity=110, time=10)
Message('note_on', channel=6, note=54, velocity=110, time=0)
Message('note_off', channel=6, note=54, velocity=0, time=378)
Message('note_off', channel=6, note=61, velocity=0, time=0)
Message('note_on', channel=6, note=57, velocity=110, time=6)
Message('note_on', channel=6, note=50, velocity=110, time=0)
Message('note_off', channel=6, note=50, velocity=0, time=182)
Message('note_off', channel=6, note=57, velocity=0, time=0)
Message('note_on', channel=6, note=59, velocity=110, time=10)
Message('note_on', channel=6, note=53, velocity=110, time=0)
Message('note_off', channel=6, note=53, velocity=0, time=182)
Message('note_off', channel=6, note=59, velocity=0, time=0)
Message('note_on', channel=6, note=57, velocity=110, time=10)
Message('note_on', channel=6, note=54, velocity=110, time=0)
Message('note_off', channel=6, note=54, velocity=0, time=378)
Message('note_off', channel=6, note=57, velocity=0, time=0)
Message('note_on', channel=6, note=57, velocity=110, time=6)
Message('note_on', channel=6, note=50, velocity=110, time=0)
Message('note_off', channel=6, note=50, velocity=0, time=182)
Message('note_off', channel=6, note=57, velocity=0, time=0)
Message('note_on', channel=6, note=59, velocity=110, time=10)
Message('note_on', channel=6, note=52, velocity=110, time=0)
Message('note_off', channel=6, note=52, velocity=0, time=182)
Message('note_off', channel=6, note=59, velocity=0, time=0)
Message('note_on', channel=6, note=61, velocity=110, time=10)
Message('note_on', channel=6, note=54, velocity=110, time=0)
Message('note_off', channel=6, note=54, velocity=0, time=378)
Message('note_off', channel=6, note=61, velocity=0, time=0)
Message('note_on', channel=6, note=57, velocity=110, time=6)
Message('note_on', channel=6, note=50, velocity=110, time=0)
Message('note_off', channel=6, note=50, velocity=0, time=182)
Message('note_off', channel=6, note=57, velocity=0, time=0)
Message('note_on', channel=6, note=59, velocity=110, time=10)
Message('note_on', channel=6, note=52, velocity=110, time=0)
Message('note_off', channel=6, note=52, velocity=0, time=182)
Message('note_off', channel=6, note=59, velocity=0, time=0)
Message('note_on', channel=6, note=66, velocity=110, time=10)
Message('note_on', channel=6, note=57, velocity=110, time=0)
Message('note_off', channel=6, note=57, velocity=0, time=378)
Message('note_off', channel=6, note=66, velocity=0, time=0)
Message('control_change', channel=6, control=101, value=0, time=390)
Message('control_change', channel=6, control=100, value=0, time=0)
Message('control_change', channel=6, control=6, value=12, time=0)
Message('control_change', channel=6, control=10, value=90, time=0)
Message('control_change', channel=6, control=7, value=96, time=0)
Message('pitchwheel', channel=6, pitch=0, time=0)
Message('program_change', channel=6, program=48, time=0)
Message('control_change', channel=6, control=91, value=60, time=0)
Message('control_change', channel=6, control=93, value=30, time=0)
Message('control_change', channel=6, control=101, value=0, time=1)
Message('control_change', channel=6, control=100, value=0, time=0)
Message('control_change', channel=6, control=6, value=12, time=0)
Message('control_change', channel=6, control=10, value=90, time=0)
Message('control_change', channel=6, control=7, value=96, time=0)
Message('pitchwheel', channel=6, pitch=0, time=0)
Message('program_change', channel=6, program=48, time=0)
Message('control_change', channel=6, control=91, value=60, time=0)
Message('control_change', channel=6, control=93, value=30, time=0)
Message('control_change', channel=6, control=101, value=0, time=0)
Message('control_change', channel=6, control=100, value=0, time=0)
Message('control_change', channel=6, control=6, value=12, time=0)
Message('control_change', channel=6, control=10, value=90, time=0)
Message('control_change', channel=6, control=7, value=96, time=0)
Message('pitchwheel', channel=6, pitch=0, time=0)
Message('program_change', channel=6, program=48, time=0)
Message('control_change', channel=6, control=91, value=60, time=0)
Message('control_change', channel=6, control=93, value=30, time=0)
MetaMessage('end_of_track', time=0)
=== Track 9
MetaMessage('track_name', name='Channel #8', time=0)
Message('control_change', channel=7, control=10, value=58, time=0)
Message('control_change', channel=7, control=7, value=105, time=0)
Message('pitchwheel', channel=7, pitch=0, time=0)
Message('control_change', channel=7, control=101, value=0, time=0)
Message('control_change', channel=7, control=100, value=0, time=0)
Message('control_change', channel=7, control=6, value=12, time=0)
Message('control_change', channel=7, control=10, value=58, time=0)
Message('control_change', channel=7, control=7, value=105, time=0)
Message('pitchwheel', channel=7, pitch=0, time=0)
Message('program_change', channel=7, program=61, time=0)
Message('control_change', channel=7, control=91, value=20, time=0)
Message('control_change', channel=7, control=93, value=0, time=0)
Message('control_change', channel=7, control=101, value=0, time=0)
Message('control_change', channel=7, control=100, value=0, time=0)
Message('control_change', channel=7, control=6, value=12, time=0)
Message('control_change', channel=7, control=10, value=58, time=0)
Message('control_change', channel=7, control=7, value=105, time=0)
Message('pitchwheel', channel=7, pitch=0, time=0)
Message('program_change', channel=7, program=61, time=0)
Message('control_change', channel=7, control=91, value=20, time=0)
Message('control_change', channel=7, control=93, value=0, time=0)
Message('control_change', channel=7, control=10, value=58, time=0)
Message('control_change', channel=7, control=7, value=105, time=0)
Message('pitchwheel', channel=7, pitch=0, time=0)
Message('program_change', channel=7, program=61, time=0)
Message('control_change', channel=7, control=91, value=20, time=0)
Message('control_change', channel=7, control=93, value=0, time=0)
Message('control_change', channel=7, control=101, value=0, time=0)
Message('control_change', channel=7, control=100, value=0, time=0)
Message('control_change', channel=7, control=6, value=12, time=0)
Message('control_change', channel=7, control=10, value=58, time=0)
Message('control_change', channel=7, control=7, value=105, time=0)
Message('pitchwheel', channel=7, pitch=0, time=0)
Message('program_change', channel=7, program=61, time=0)
Message('control_change', channel=7, control=91, value=20, time=0)
Message('control_change', channel=7, control=93, value=0, time=0)
Message('control_change', channel=7, control=10, value=58, time=0)
Message('control_change', channel=7, control=7, value=105, time=0)
Message('pitchwheel', channel=7, pitch=0, time=0)
Message('program_change', channel=7, program=61, time=0)
Message('control_change', channel=7, control=91, value=20, time=0)
Message('control_change', channel=7, control=93, value=0, time=0)
Message('note_on', channel=7, note=66, velocity=120, time=3456)
Message('note_off', channel=7, note=66, velocity=0, time=134)
Message('note_on', channel=7, note=78, velocity=120, time=10)
Message('note_off', channel=7, note=78, velocity=0, time=44)
Message('note_on', channel=7, note=76, velocity=120, time=4)
Message('note_off', channel=7, note=76, velocity=0, time=68)
Message('note_on', channel=7, note=81, velocity=100, time=4)
Message('note_off', channel=7, note=81, velocity=0, time=68)
Message('note_on', channel=7, note=80, velocity=120, time=4)
Message('note_off', channel=7, note=80, velocity=0, time=44)
Message('note_on', channel=7, note=76, velocity=120, time=4)
Message('note_off', channel=7, note=76, velocity=0, time=34)
Message('note_on', channel=7, note=73, velocity=100, time=14)
Message('note_off', channel=7, note=73, velocity=0, time=34)
Message('note_on', channel=7, note=76, velocity=120, time=14)
Message('note_off', channel=7, note=76, velocity=0, time=44)
Message('note_on', channel=7, note=76, velocity=110, time=4)
Message('note_off', channel=7, note=76, velocity=0, time=22)
Message('note_on', channel=7, note=78, velocity=127, time=2)
Message('note_off', channel=7, note=78, velocity=0, time=206)
Message('note_on', channel=7, note=66, velocity=120, time=10)
Message('note_off', channel=7, note=66, velocity=0, time=134)
Message('note_on', channel=7, note=78, velocity=100, time=10)
Message('note_off', channel=7, note=78, velocity=0, time=44)
Message('note_on', channel=7, note=77, velocity=120, time=4)
Message('note_off', channel=7, note=77, velocity=0, time=68)
Message('note_on', channel=7, note=78, velocity=100, time=4)
Message('note_off', channel=7, note=78, velocity=0, time=68)
Message('note_on', channel=7, note=80, velocity=110, time=4)
Message('note_on', channel=7, note=73, velocity=120, time=48)
Message('note_off', channel=7, note=80, velocity=0, time=10)
Message('note_off', channel=7, note=73, velocity=0, time=368)
Message('note_on', channel=7, note=66, velocity=120, time=6)
Message('note_off', channel=7, note=66, velocity=0, time=134)
Message('note_on', channel=7, note=78, velocity=120, time=10)
Message('note_off', channel=7, note=78, velocity=0, time=44)
Message('note_on', channel=7, note=76, velocity=120, time=4)
Message('note_off', channel=7, note=76, velocity=0, time=68)
Message('note_on', channel=7, note=78, velocity=100, time=4)
Message('note_off', channel=7, note=78, velocity=0, time=68)
Message('note_on', channel=7, note=80, velocity=120, time=4)
Message('note_off', channel=7, note=80, velocity=0, time=44)
Message('note_on', channel=7, note=81, velocity=120, time=4)
Message('note_off', channel=7, note=81, velocity=0, time=34)
Message('note_on', channel=7, note=73, velocity=100, time=14)
Message('note_off', channel=7, note=73, velocity=0, time=34)
Message('note_on', channel=7, note=80, velocity=120, time=14)
Message('note_off', channel=7, note=80, velocity=0, time=44)
Message('note_on', channel=7, note=80, velocity=110, time=4)
Message('note_off', channel=7, note=80, velocity=0, time=22)
Message('note_on', channel=7, note=81, velocity=110, time=2)
Message('note_off', channel=7, note=81, velocity=0, time=116)
Message('note_on', channel=7, note=83, velocity=110, time=4)
Message('note_off', channel=7, note=83, velocity=0, time=92)
Message('note_on', channel=7, note=85, velocity=120, time=4)
Message('note_off', channel=7, note=85, velocity=0, time=44)
Message('note_on', channel=7, note=78, velocity=110, time=4)
Message('note_off', channel=7, note=78, velocity=0, time=34)
Message('note_on', channel=7, note=80, velocity=120, time=62)
Message('note_off', channel=7, note=80, velocity=0, time=22)
Message('note_on', channel=7, note=81, velocity=110, time=2)
Message('note_off', channel=7, note=81, velocity=0, time=22)
Message('note_on', channel=7, note=80, velocity=120, time=2)
Message('note_off', channel=7, note=80, velocity=0, time=68)
Message('note_on', channel=7, note=76, velocity=100, time=4)
Message('note_off', channel=7, note=76, velocity=0, time=68)
Message('note_on', channel=7, note=73, velocity=110, time=4)
Message('note_off', channel=7, note=73, velocity=0, time=44)
Message('note_on', channel=7, note=76, velocity=120, time=4)
Message('note_off', channel=7, note=76, velocity=0, time=34)
Message('note_on', channel=7, note=73, velocity=100, time=14)
Message('note_off', channel=7, note=73, velocity=0, time=34)
Message('note_on', channel=7, note=76, velocity=120, time=14)
Message('note_off', channel=7, note=76, velocity=0, time=44)
Message('note_on', channel=7, note=76, velocity=110, time=4)
Message('note_off', channel=7, note=76, velocity=0, time=22)
Message('note_on', channel=7, note=78, velocity=127, time=2)
Message('note_off', channel=7, note=78, velocity=0, time=206)
Message('note_on', channel=7, note=66, velocity=120, time=10)
Message('note_off', channel=7, note=66, velocity=0, time=134)
Message('note_on', channel=7, note=78, velocity=120, time=10)
Message('note_off', channel=7, note=78, velocity=0, time=44)
Message('note_on', channel=7, note=76, velocity=120, time=4)
Message('note_off', channel=7, note=76, velocity=0, time=68)
Message('note_on', channel=7, note=81, velocity=100, time=4)
Message('note_off', channel=7, note=81, velocity=0, time=68)
Message('note_on', channel=7, note=80, velocity=120, time=4)
Message('note_off', channel=7, note=80, velocity=0, time=44)
Message('note_on', channel=7, note=76, velocity=120, time=4)
Message('note_off', channel=7, note=76, velocity=0, time=34)
Message('note_on', channel=7, note=73, velocity=100, time=14)
Message('note_off', channel=7, note=73, velocity=0, time=34)
Message('note_on', channel=7, note=76, velocity=120, time=14)
Message('note_off', channel=7, note=76, velocity=0, time=44)
Message('note_on', channel=7, note=76, velocity=110, time=4)
Message('note_off', channel=7, note=76, velocity=0, time=22)
Message('note_on', channel=7, note=78, velocity=127, time=2)
Message('note_off', channel=7, note=78, velocity=0, time=206)
Message('note_on', channel=7, note=66, velocity=120, time=10)
Message('note_off', channel=7, note=66, velocity=0, time=134)
Message('note_on', channel=7, note=78, velocity=100, time=10)
Message('note_off', channel=7, note=78, velocity=0, time=44)
Message('note_on', channel=7, note=77, velocity=120, time=4)
Message('note_off', channel=7, note=77, velocity=0, time=68)
Message('note_on', channel=7, note=78, velocity=100, time=4)
Message('note_off', channel=7, note=78, velocity=0, time=68)
Message('note_on', channel=7, note=80, velocity=110, time=4)
Message('note_on', channel=7, note=73, velocity=120, time=48)
Message('note_off', channel=7, note=80, velocity=0, time=10)
Message('note_off', channel=7, note=73, velocity=0, time=368)
Message('note_on', channel=7, note=66, velocity=120, time=6)
Message('note_off', channel=7, note=66, velocity=0, time=134)
Message('note_on', channel=7, note=78, velocity=120, time=10)
Message('note_off', channel=7, note=78, velocity=0, time=44)
Message('note_on', channel=7, note=76, velocity=120, time=4)
Message('note_off', channel=7, note=76, velocity=0, time=68)
Message('note_on', channel=7, note=78, velocity=100, time=4)
Message('note_off', channel=7, note=78, velocity=0, time=68)
Message('note_on', channel=7, note=80, velocity=120, time=4)
Message('note_off', channel=7, note=80, velocity=0, time=44)
Message('note_on', channel=7, note=81, velocity=120, time=4)
Message('note_off', channel=7, note=81, velocity=0, time=34)
Message('note_on', channel=7, note=73, velocity=100, time=14)
Message('note_off', channel=7, note=73, velocity=0, time=34)
Message('note_on', channel=7, note=80, velocity=120, time=14)
Message('note_off', channel=7, note=80, velocity=0, time=44)
Message('note_on', channel=7, note=80, velocity=110, time=4)
Message('note_off', channel=7, note=80, velocity=0, time=22)
Message('note_on', channel=7, note=81, velocity=110, time=2)
Message('note_off', channel=7, note=81, velocity=0, time=116)
Message('note_on', channel=7, note=83, velocity=110, time=4)
Message('note_off', channel=7, note=83, velocity=0, time=92)
Message('note_on', channel=7, note=85, velocity=120, time=4)
Message('note_off', channel=7, note=85, velocity=0, time=44)
Message('note_on', channel=7, note=78, velocity=110, time=4)
Message('note_off', channel=7, note=78, velocity=0, time=34)
Message('note_on', channel=7, note=80, velocity=120, time=62)
Message('note_off', channel=7, note=80, velocity=0, time=22)
Message('note_on', channel=7, note=81, velocity=110, time=2)
Message('note_off', channel=7, note=81, velocity=0, time=22)
Message('note_on', channel=7, note=80, velocity=120, time=2)
Message('note_off', channel=7, note=80, velocity=0, time=68)
Message('note_on', channel=7, note=76, velocity=100, time=4)
Message('note_off', channel=7, note=76, velocity=0, time=68)
Message('note_on', channel=7, note=73, velocity=110, time=4)
Message('note_off', channel=7, note=73, velocity=0, time=44)
Message('note_on', channel=7, note=76, velocity=120, time=4)
Message('note_off', channel=7, note=76, velocity=0, time=34)
Message('note_on', channel=7, note=73, velocity=100, time=14)
Message('note_off', channel=7, note=73, velocity=0, time=34)
Message('note_on', channel=7, note=76, velocity=120, time=14)
Message('note_off', channel=7, note=76, velocity=0, time=44)
Message('note_on', channel=7, note=76, velocity=110, time=4)
Message('note_off', channel=7, note=76, velocity=0, time=22)
Message('note_on', channel=7, note=78, velocity=127, time=2)
Message('note_off', channel=7, note=78, velocity=0, time=206)
Message('note_on', channel=7, note=64, velocity=120, time=5770)
Message('note_off', channel=7, note=64, velocity=0, time=34)
Message('note_on', channel=7, note=61, velocity=100, time=14)
Message('note_off', channel=7, note=61, velocity=0, time=34)
Message('note_on', channel=7, note=64, velocity=120, time=14)
Message('note_off', channel=7, note=64, velocity=0, time=44)
Message('note_on', channel=7, note=64, velocity=110, time=4)
Message('note_off', channel=7, note=64, velocity=0, time=22)
Message('note_on', channel=7, note=66, velocity=127, time=2)
Message('note_off', channel=7, note=66, velocity=0, time=206)
Message('note_on', channel=7, note=54, velocity=120, time=10)
Message('note_off', channel=7, note=54, velocity=0, time=134)
Message('note_on', channel=7, note=66, velocity=120, time=10)
Message('note_off', channel=7, note=66, velocity=0, time=44)
Message('note_on', channel=7, note=64, velocity=120, time=4)
Message('note_off', channel=7, note=64, velocity=0, time=68)
Message('note_on', channel=7, note=69, velocity=100, time=4)
Message('note_off', channel=7, note=69, velocity=0, time=68)
Message('note_on', channel=7, note=68, velocity=120, time=4)
Message('note_off', channel=7, note=68, velocity=0, time=44)
Message('note_on', channel=7, note=64, velocity=120, time=4)
Message('note_off', channel=7, note=64, velocity=0, time=34)
Message('note_on', channel=7, note=61, velocity=100, time=14)
Message('note_off', channel=7, note=61, velocity=0, time=34)
Message('note_on', channel=7, note=64, velocity=120, time=14)
Message('note_off', channel=7, note=64, velocity=0, time=44)
Message('note_on', channel=7, note=64, velocity=110, time=4)
Message('note_off', channel=7, note=64, velocity=0, time=22)
Message('note_on', channel=7, note=66, velocity=127, time=2)
Message('note_off', channel=7, note=66, velocity=0, time=206)
Message('note_on', channel=7, note=54, velocity=120, time=10)
Message('note_off', channel=7, note=54, velocity=0, time=134)
Message('note_on', channel=7, note=66, velocity=100, time=10)
Message('note_off', channel=7, note=66, velocity=0, time=44)
Message('note_on', channel=7, note=65, velocity=120, time=4)
Message('note_off', channel=7, note=65, velocity=0, time=68)
Message('note_on', channel=7, note=66, velocity=100, time=4)
Message('note_off', channel=7, note=66, velocity=0, time=68)
Message('note_on', channel=7, note=68, velocity=110, time=4)
Message('note_on', channel=7, note=61, velocity=120, time=48)
Message('note_off', channel=7, note=68, velocity=0, time=10)
Message('note_off', channel=7, note=61, velocity=0, time=368)
Message('note_on', channel=7, note=54, velocity=120, time=6)
Message('note_off', channel=7, note=54, velocity=0, time=134)
Message('note_on', channel=7, note=66, velocity=120, time=10)
Message('note_off', channel=7, note=66, velocity=0, time=44)
Message('note_on', channel=7, note=64, velocity=120, time=4)
Message('note_off', channel=7, note=64, velocity=0, time=68)
Message('note_on', channel=7, note=66, velocity=100, time=4)
Message('note_off', channel=7, note=66, velocity=0, time=68)
Message('note_on', channel=7, note=68, velocity=120, time=4)
Message('note_off', channel=7, note=68, velocity=0, time=44)
Message('note_on', channel=7, note=69, velocity=120, time=4)
Message('note_off', channel=7, note=69, velocity=0, time=34)
Message('note_on', channel=7, note=61, velocity=100, time=14)
Message('note_off', channel=7, note=61, velocity=0, time=34)
Message('note_on', channel=7, note=68, velocity=120, time=14)
Message('note_off', channel=7, note=68, velocity=0, time=44)
Message('note_on', channel=7, note=68, velocity=110, time=4)
Message('note_off', channel=7, note=68, velocity=0, time=22)
Message('note_on', channel=7, note=69, velocity=110, time=2)
Message('note_off', channel=7, note=69, velocity=0, time=116)
Message('note_on', channel=7, note=71, velocity=110, time=4)
Message('note_off', channel=7, note=71, velocity=0, time=92)
Message('note_on', channel=7, note=73, velocity=120, time=4)
Message('note_off', channel=7, note=73, velocity=0, time=44)
Message('note_on', channel=7, note=66, velocity=110, time=4)
Message('note_off', channel=7, note=66, velocity=0, time=34)
Message('note_on', channel=7, note=68, velocity=120, time=62)
Message('note_off', channel=7, note=68, velocity=0, time=22)
Message('note_on', channel=7, note=69, velocity=110, time=2)
Message('note_off', channel=7, note=69, velocity=0, time=22)
Message('note_on', channel=7, note=68, velocity=120, time=2)
Message('note_off', channel=7, note=68, velocity=0, time=68)
Message('note_on', channel=7, note=64, velocity=100, time=4)
Message('note_off', channel=7, note=64, velocity=0, time=68)
Message('note_on', channel=7, note=61, velocity=110, time=4)
Message('note_off', channel=7, note=61, velocity=0, time=44)
Message('note_on', channel=7, note=64, velocity=120, time=4)
Message('note_off', channel=7, note=64, velocity=0, time=34)
Message('note_on', channel=7, note=61, velocity=100, time=14)
Message('note_off', channel=7, note=61, velocity=0, time=34)
Message('note_on', channel=7, note=64, velocity=120, time=14)
Message('note_off', channel=7, note=64, velocity=0, time=44)
Message('note_on', channel=7, note=64, velocity=110, time=4)
Message('note_off', channel=7, note=64, velocity=0, time=22)
Message('note_on', channel=7, note=66, velocity=127, time=2)
Message('note_off', channel=7, note=66, velocity=0, time=206)
Message('note_on', channel=7, note=66, velocity=120, time=10)
Message('note_off', channel=7, note=66, velocity=0, time=134)
Message('note_on', channel=7, note=78, velocity=120, time=10)
Message('note_off', channel=7, note=78, velocity=0, time=44)
Message('note_on', channel=7, note=76, velocity=120, time=4)
Message('note_off', channel=7, note=76, velocity=0, time=68)
Message('note_on', channel=7, note=81, velocity=100, time=4)
Message('note_off', channel=7, note=81, velocity=0, time=68)
Message('note_on', channel=7, note=80, velocity=120, time=4)
Message('note_off', channel=7, note=80, velocity=0, time=44)
Message('note_on', channel=7, note=76, velocity=120, time=4)
Message('note_off', channel=7, note=76, velocity=0, time=34)
Message('note_on', channel=7, note=73, velocity=100, time=14)
Message('note_off', channel=7, note=73, velocity=0, time=34)
Message('note_on', channel=7, note=76, velocity=120, time=14)
Message('note_off', channel=7, note=76, velocity=0, time=44)
Message('note_on', channel=7, note=76, velocity=110, time=4)
Message('note_off', channel=7, note=76, velocity=0, time=22)
Message('note_on', channel=7, note=78, velocity=127, time=2)
Message('note_off', channel=7, note=78, velocity=0, time=206)
Message('note_on', channel=7, note=66, velocity=120, time=10)
Message('note_off', channel=7, note=66, velocity=0, time=134)
Message('note_on', channel=7, note=78, velocity=100, time=10)
Message('note_off', channel=7, note=78, velocity=0, time=44)
Message('note_on', channel=7, note=77, velocity=120, time=4)
Message('note_off', channel=7, note=77, velocity=0, time=68)
Message('note_on', channel=7, note=78, velocity=100, time=4)
Message('note_off', channel=7, note=78, velocity=0, time=68)
Message('note_on', channel=7, note=80, velocity=110, time=4)
Message('note_on', channel=7, note=73, velocity=120, time=48)
Message('note_off', channel=7, note=80, velocity=0, time=10)
Message('note_off', channel=7, note=73, velocity=0, time=368)
Message('note_on', channel=7, note=66, velocity=120, time=6)
Message('note_off', channel=7, note=66, velocity=0, time=134)
Message('note_on', channel=7, note=78, velocity=120, time=10)
Message('note_off', channel=7, note=78, velocity=0, time=44)
Message('note_on', channel=7, note=76, velocity=120, time=4)
Message('note_off', channel=7, note=76, velocity=0, time=68)
Message('note_on', channel=7, note=78, velocity=100, time=4)
Message('note_off', channel=7, note=78, velocity=0, time=68)
Message('note_on', channel=7, note=80, velocity=120, time=4)
Message('note_off', channel=7, note=80, velocity=0, time=44)
Message('note_on', channel=7, note=81, velocity=120, time=4)
Message('note_off', channel=7, note=81, velocity=0, time=34)
Message('note_on', channel=7, note=73, velocity=100, time=14)
Message('note_off', channel=7, note=73, velocity=0, time=34)
Message('note_on', channel=7, note=80, velocity=120, time=14)
Message('note_off', channel=7, note=80, velocity=0, time=44)
Message('note_on', channel=7, note=80, velocity=110, time=4)
Message('note_off', channel=7, note=80, velocity=0, time=22)
Message('note_on', channel=7, note=81, velocity=110, time=2)
Message('note_off', channel=7, note=81, velocity=0, time=116)
Message('note_on', channel=7, note=83, velocity=110, time=4)
Message('note_off', channel=7, note=83, velocity=0, time=92)
Message('note_on', channel=7, note=85, velocity=120, time=4)
Message('note_off', channel=7, note=85, velocity=0, time=44)
Message('note_on', channel=7, note=78, velocity=110, time=4)
Message('note_off', channel=7, note=78, velocity=0, time=34)
Message('note_on', channel=7, note=80, velocity=120, time=62)
Message('note_off', channel=7, note=80, velocity=0, time=22)
Message('note_on', channel=7, note=81, velocity=110, time=2)
Message('note_off', channel=7, note=81, velocity=0, time=22)
Message('note_on', channel=7, note=80, velocity=120, time=2)
Message('note_off', channel=7, note=80, velocity=0, time=68)
Message('note_on', channel=7, note=76, velocity=100, time=4)
Message('note_off', channel=7, note=76, velocity=0, time=68)
Message('note_on', channel=7, note=73, velocity=110, time=4)
Message('note_off', channel=7, note=73, velocity=0, time=44)
Message('note_on', channel=7, note=76, velocity=120, time=4)
Message('note_off', channel=7, note=76, velocity=0, time=34)
Message('note_on', channel=7, note=73, velocity=100, time=14)
Message('note_off', channel=7, note=73, velocity=0, time=34)
Message('note_on', channel=7, note=76, velocity=120, time=14)
Message('note_off', channel=7, note=76, velocity=0, time=44)
Message('note_on', channel=7, note=76, velocity=110, time=4)
Message('note_off', channel=7, note=76, velocity=0, time=22)
Message('note_on', channel=7, note=78, velocity=127, time=2)
Message('note_off', channel=7, note=78, velocity=0, time=206)
Message('note_on', channel=7, note=66, velocity=120, time=10)
Message('note_off', channel=7, note=66, velocity=0, time=134)
Message('note_on', channel=7, note=78, velocity=120, time=10)
Message('note_off', channel=7, note=78, velocity=0, time=44)
Message('note_on', channel=7, note=76, velocity=120, time=4)
Message('note_off', channel=7, note=76, velocity=0, time=68)
Message('note_on', channel=7, note=81, velocity=100, time=4)
Message('note_off', channel=7, note=81, velocity=0, time=68)
Message('note_on', channel=7, note=80, velocity=120, time=4)
Message('note_off', channel=7, note=80, velocity=0, time=44)
Message('note_on', channel=7, note=76, velocity=120, time=4)
Message('note_off', channel=7, note=76, velocity=0, time=34)
Message('note_on', channel=7, note=73, velocity=100, time=14)
Message('note_off', channel=7, note=73, velocity=0, time=34)
Message('note_on', channel=7, note=76, velocity=120, time=14)
Message('note_off', channel=7, note=76, velocity=0, time=44)
Message('note_on', channel=7, note=76, velocity=110, time=4)
Message('note_off', channel=7, note=76, velocity=0, time=22)
Message('note_on', channel=7, note=78, velocity=127, time=2)
Message('note_off', channel=7, note=78, velocity=0, time=206)
Message('note_on', channel=7, note=66, velocity=120, time=10)
Message('note_off', channel=7, note=66, velocity=0, time=134)
Message('note_on', channel=7, note=78, velocity=100, time=10)
Message('note_off', channel=7, note=78, velocity=0, time=44)
Message('note_on', channel=7, note=77, velocity=120, time=4)
Message('note_off', channel=7, note=77, velocity=0, time=68)
Message('note_on', channel=7, note=78, velocity=100, time=4)
Message('note_off', channel=7, note=78, velocity=0, time=68)
Message('note_on', channel=7, note=80, velocity=110, time=4)
Message('note_on', channel=7, note=73, velocity=120, time=48)
Message('note_off', channel=7, note=80, velocity=0, time=10)
Message('note_off', channel=7, note=73, velocity=0, time=368)
Message('note_on', channel=7, note=66, velocity=120, time=6)
Message('note_off', channel=7, note=66, velocity=0, time=134)
Message('note_on', channel=7, note=78, velocity=120, time=10)
Message('note_off', channel=7, note=78, velocity=0, time=44)
Message('note_on', channel=7, note=76, velocity=120, time=4)
Message('note_off', channel=7, note=76, velocity=0, time=68)
Message('note_on', channel=7, note=78, velocity=100, time=4)
Message('note_off', channel=7, note=78, velocity=0, time=68)
Message('note_on', channel=7, note=80, velocity=120, time=4)
Message('note_off', channel=7, note=80, velocity=0, time=44)
Message('note_on', channel=7, note=81, velocity=120, time=4)
Message('note_off', channel=7, note=81, velocity=0, time=34)
Message('note_on', channel=7, note=73, velocity=100, time=14)
Message('note_off', channel=7, note=73, velocity=0, time=34)
Message('note_on', channel=7, note=80, velocity=120, time=14)
Message('note_off', channel=7, note=80, velocity=0, time=44)
Message('note_on', channel=7, note=80, velocity=110, time=4)
Message('note_off', channel=7, note=80, velocity=0, time=22)
Message('note_on', channel=7, note=81, velocity=110, time=2)
Message('note_off', channel=7, note=81, velocity=0, time=116)
Message('note_on', channel=7, note=83, velocity=110, time=4)
Message('note_off', channel=7, note=83, velocity=0, time=92)
Message('note_on', channel=7, note=85, velocity=120, time=4)
Message('note_off', channel=7, note=85, velocity=0, time=44)
Message('note_on', channel=7, note=78, velocity=110, time=4)
Message('note_off', channel=7, note=78, velocity=0, time=34)
Message('note_on', channel=7, note=80, velocity=120, time=62)
Message('note_off', channel=7, note=80, velocity=0, time=22)
Message('note_on', channel=7, note=81, velocity=110, time=2)
Message('note_off', channel=7, note=81, velocity=0, time=22)
Message('note_on', channel=7, note=80, velocity=120, time=2)
Message('note_off', channel=7, note=80, velocity=0, time=68)
Message('note_on', channel=7, note=76, velocity=100, time=4)
Message('note_off', channel=7, note=76, velocity=0, time=68)
Message('note_on', channel=7, note=73, velocity=110, time=4)
Message('note_off', channel=7, note=73, velocity=0, time=44)
Message('note_on', channel=7, note=76, velocity=120, time=4)
Message('note_off', channel=7, note=76, velocity=0, time=34)
Message('note_on', channel=7, note=73, velocity=100, time=14)
Message('note_off', channel=7, note=73, velocity=0, time=34)
Message('note_on', channel=7, note=76, velocity=120, time=14)
Message('note_off', channel=7, note=76, velocity=0, time=44)
Message('note_on', channel=7, note=76, velocity=110, time=4)
Message('note_off', channel=7, note=76, velocity=0, time=22)
Message('note_on', channel=7, note=78, velocity=127, time=2)
Message('note_off', channel=7, note=78, velocity=0, time=206)
Message('note_on', channel=7, note=66, velocity=120, time=10)
Message('note_off', channel=7, note=66, velocity=0, time=134)
Message('note_on', channel=7, note=78, velocity=120, time=10)
Message('note_off', channel=7, note=78, velocity=0, time=44)
Message('note_on', channel=7, note=76, velocity=120, time=4)
Message('note_off', channel=7, note=76, velocity=0, time=68)
Message('note_on', channel=7, note=81, velocity=100, time=4)
Message('note_off', channel=7, note=81, velocity=0, time=68)
Message('note_on', channel=7, note=80, velocity=120, time=4)
Message('note_off', channel=7, note=80, velocity=0, time=44)
Message('note_on', channel=7, note=76, velocity=120, time=4)
Message('note_off', channel=7, note=76, velocity=0, time=34)
Message('note_on', channel=7, note=73, velocity=100, time=14)
Message('note_off', channel=7, note=73, velocity=0, time=34)
Message('note_on', channel=7, note=76, velocity=120, time=14)
Message('note_off', channel=7, note=76, velocity=0, time=44)
Message('note_on', channel=7, note=76, velocity=110, time=4)
Message('note_off', channel=7, note=76, velocity=0, time=22)
Message('note_on', channel=7, note=78, velocity=127, time=2)
Message('note_off', channel=7, note=78, velocity=0, time=206)
Message('note_on', channel=7, note=66, velocity=120, time=10)
Message('note_off', channel=7, note=66, velocity=0, time=134)
Message('note_on', channel=7, note=78, velocity=100, time=10)
Message('note_off', channel=7, note=78, velocity=0, time=44)
Message('note_on', channel=7, note=77, velocity=120, time=4)
Message('note_off', channel=7, note=77, velocity=0, time=68)
Message('note_on', channel=7, note=78, velocity=100, time=4)
Message('note_off', channel=7, note=78, velocity=0, time=68)
Message('note_on', channel=7, note=80, velocity=110, time=4)
Message('note_on', channel=7, note=73, velocity=120, time=48)
Message('note_off', channel=7, note=80, velocity=0, time=10)
Message('note_off', channel=7, note=73, velocity=0, time=368)
Message('note_on', channel=7, note=66, velocity=120, time=6)
Message('note_off', channel=7, note=66, velocity=0, time=134)
Message('note_on', channel=7, note=78, velocity=120, time=10)
Message('note_off', channel=7, note=78, velocity=0, time=44)
Message('note_on', channel=7, note=76, velocity=120, time=4)
Message('note_off', channel=7, note=76, velocity=0, time=68)
Message('note_on', channel=7, note=78, velocity=100, time=4)
Message('note_off', channel=7, note=78, velocity=0, time=68)
Message('note_on', channel=7, note=80, velocity=120, time=4)
Message('note_off', channel=7, note=80, velocity=0, time=44)
Message('note_on', channel=7, note=81, velocity=120, time=4)
Message('note_off', channel=7, note=81, velocity=0, time=34)
Message('note_on', channel=7, note=73, velocity=100, time=14)
Message('note_off', channel=7, note=73, velocity=0, time=34)
Message('note_on', channel=7, note=80, velocity=120, time=14)
Message('note_off', channel=7, note=80, velocity=0, time=44)
Message('note_on', channel=7, note=80, velocity=110, time=4)
Message('note_off', channel=7, note=80, velocity=0, time=22)
Message('note_on', channel=7, note=81, velocity=110, time=2)
Message('note_off', channel=7, note=81, velocity=0, time=116)
Message('note_on', channel=7, note=83, velocity=110, time=4)
Message('note_off', channel=7, note=83, velocity=0, time=92)
Message('note_on', channel=7, note=85, velocity=120, time=4)
Message('note_off', channel=7, note=85, velocity=0, time=44)
Message('note_on', channel=7, note=78, velocity=110, time=4)
Message('note_off', channel=7, note=78, velocity=0, time=34)
Message('note_on', channel=7, note=80, velocity=120, time=62)
Message('note_off', channel=7, note=80, velocity=0, time=22)
Message('note_on', channel=7, note=81, velocity=110, time=2)
Message('note_off', channel=7, note=81, velocity=0, time=22)
Message('note_on', channel=7, note=80, velocity=120, time=2)
Message('note_off', channel=7, note=80, velocity=0, time=68)
Message('note_on', channel=7, note=76, velocity=100, time=4)
Message('note_off', channel=7, note=76, velocity=0, time=68)
Message('note_on', channel=7, note=73, velocity=110, time=4)
Message('note_off', channel=7, note=73, velocity=0, time=44)
Message('note_on', channel=7, note=76, velocity=120, time=4)
Message('note_off', channel=7, note=76, velocity=0, time=34)
Message('note_on', channel=7, note=73, velocity=100, time=14)
Message('note_off', channel=7, note=73, velocity=0, time=34)
Message('note_on', channel=7, note=76, velocity=120, time=14)
Message('note_off', channel=7, note=76, velocity=0, time=44)
Message('note_on', channel=7, note=76, velocity=110, time=4)
Message('note_off', channel=7, note=76, velocity=0, time=22)
Message('note_on', channel=7, note=78, velocity=127, time=2)
Message('note_off', channel=7, note=78, velocity=0, time=206)
Message('note_on', channel=7, note=66, velocity=120, time=10)
Message('note_off', channel=7, note=66, velocity=0, time=134)
Message('note_on', channel=7, note=78, velocity=120, time=10)
Message('note_off', channel=7, note=78, velocity=0, time=44)
Message('note_on', channel=7, note=76, velocity=120, time=4)
Message('note_off', channel=7, note=76, velocity=0, time=68)
Message('note_on', channel=7, note=81, velocity=100, time=4)
Message('note_off', channel=7, note=81, velocity=0, time=68)
Message('note_on', channel=7, note=80, velocity=120, time=4)
Message('note_off', channel=7, note=80, velocity=0, time=44)
Message('note_on', channel=7, note=76, velocity=120, time=4)
Message('note_off', channel=7, note=76, velocity=0, time=34)
Message('note_on', channel=7, note=73, velocity=100, time=14)
Message('note_off', channel=7, note=73, velocity=0, time=34)
Message('note_on', channel=7, note=76, velocity=120, time=14)
Message('note_off', channel=7, note=76, velocity=0, time=44)
Message('note_on', channel=7, note=76, velocity=110, time=4)
Message('note_off', channel=7, note=76, velocity=0, time=22)
Message('note_on', channel=7, note=78, velocity=127, time=2)
Message('note_off', channel=7, note=78, velocity=0, time=206)
Message('note_on', channel=7, note=66, velocity=120, time=10)
Message('note_off', channel=7, note=66, velocity=0, time=134)
Message('note_on', channel=7, note=78, velocity=100, time=10)
Message('note_off', channel=7, note=78, velocity=0, time=44)
Message('note_on', channel=7, note=77, velocity=120, time=4)
Message('note_off', channel=7, note=77, velocity=0, time=68)
Message('note_on', channel=7, note=78, velocity=100, time=4)
Message('note_off', channel=7, note=78, velocity=0, time=68)
Message('note_on', channel=7, note=80, velocity=110, time=4)
Message('note_on', channel=7, note=73, velocity=120, time=48)
Message('note_off', channel=7, note=80, velocity=0, time=10)
Message('note_off', channel=7, note=73, velocity=0, time=368)
Message('note_on', channel=7, note=66, velocity=120, time=6)
Message('note_off', channel=7, note=66, velocity=0, time=134)
Message('note_on', channel=7, note=78, velocity=120, time=10)
Message('note_off', channel=7, note=78, velocity=0, time=44)
Message('note_on', channel=7, note=76, velocity=120, time=4)
Message('note_off', channel=7, note=76, velocity=0, time=68)
Message('note_on', channel=7, note=78, velocity=100, time=4)
Message('note_off', channel=7, note=78, velocity=0, time=68)
Message('note_on', channel=7, note=80, velocity=120, time=4)
Message('note_off', channel=7, note=80, velocity=0, time=44)
Message('note_on', channel=7, note=81, velocity=120, time=4)
Message('note_off', channel=7, note=81, velocity=0, time=34)
Message('note_on', channel=7, note=73, velocity=100, time=14)
Message('note_off', channel=7, note=73, velocity=0, time=34)
Message('note_on', channel=7, note=80, velocity=120, time=14)
Message('note_off', channel=7, note=80, velocity=0, time=44)
Message('note_on', channel=7, note=80, velocity=110, time=4)
Message('note_off', channel=7, note=80, velocity=0, time=22)
Message('note_on', channel=7, note=81, velocity=110, time=2)
Message('note_off', channel=7, note=81, velocity=0, time=116)
Message('note_on', channel=7, note=83, velocity=110, time=4)
Message('note_off', channel=7, note=83, velocity=0, time=92)
Message('note_on', channel=7, note=85, velocity=120, time=4)
Message('note_off', channel=7, note=85, velocity=0, time=44)
Message('note_on', channel=7, note=78, velocity=110, time=4)
Message('note_off', channel=7, note=78, velocity=0, time=34)
Message('note_on', channel=7, note=80, velocity=120, time=62)
Message('note_off', channel=7, note=80, velocity=0, time=22)
Message('note_on', channel=7, note=81, velocity=110, time=2)
Message('note_off', channel=7, note=81, velocity=0, time=22)
Message('note_on', channel=7, note=80, velocity=120, time=2)
Message('note_off', channel=7, note=80, velocity=0, time=68)
Message('note_on', channel=7, note=76, velocity=100, time=4)
Message('note_off', channel=7, note=76, velocity=0, time=68)
Message('note_on', channel=7, note=73, velocity=110, time=4)
Message('note_off', channel=7, note=73, velocity=0, time=44)
Message('note_on', channel=7, note=76, velocity=120, time=4)
Message('note_off', channel=7, note=76, velocity=0, time=34)
Message('note_on', channel=7, note=73, velocity=100, time=14)
Message('note_off', channel=7, note=73, velocity=0, time=34)
Message('note_on', channel=7, note=76, velocity=120, time=14)
Message('note_off', channel=7, note=76, velocity=0, time=44)
Message('note_on', channel=7, note=76, velocity=110, time=4)
Message('note_off', channel=7, note=76, velocity=0, time=22)
Message('note_on', channel=7, note=78, velocity=127, time=2)
Message('note_off', channel=7, note=78, velocity=0, time=206)
Message('control_change', channel=7, control=101, value=0, time=394)
Message('control_change', channel=7, control=100, value=0, time=0)
Message('control_change', channel=7, control=6, value=12, time=0)
Message('control_change', channel=7, control=10, value=58, time=0)
Message('control_change', channel=7, control=7, value=105, time=0)
Message('pitchwheel', channel=7, pitch=0, time=0)
Message('program_change', channel=7, program=61, time=0)
Message('control_change', channel=7, control=91, value=20, time=0)
Message('control_change', channel=7, control=93, value=0, time=0)
Message('control_change', channel=7, control=101, value=0, time=1)
Message('control_change', channel=7, control=100, value=0, time=0)
Message('control_change', channel=7, control=6, value=12, time=0)
Message('control_change', channel=7, control=10, value=58, time=0)
Message('control_change', channel=7, control=7, value=105, time=0)
Message('pitchwheel', channel=7, pitch=0, time=0)
Message('program_change', channel=7, program=61, time=0)
Message('control_change', channel=7, control=91, value=20, time=0)
Message('control_change', channel=7, control=93, value=0, time=0)
Message('control_change', channel=7, control=101, value=0, time=0)
Message('control_change', channel=7, control=100, value=0, time=0)
Message('control_change', channel=7, control=6, value=12, time=0)
Message('control_change', channel=7, control=10, value=58, time=0)
Message('control_change', channel=7, control=7, value=105, time=0)
Message('pitchwheel', channel=7, pitch=0, time=0)
Message('program_change', channel=7, program=61, time=0)
Message('control_change', channel=7, control=91, value=20, time=0)
Message('control_change', channel=7, control=93, value=0, time=0)
MetaMessage('end_of_track', time=0)
=== Track 10
MetaMessage('track_name', name='Channel #9', time=0)
Message('control_change', channel=8, control=10, value=75, time=0)
Message('control_change', channel=8, control=7, value=80, time=0)
Message('pitchwheel', channel=8, pitch=0, time=0)
Message('control_change', channel=8, control=101, value=0, time=0)
Message('control_change', channel=8, control=100, value=0, time=0)
Message('control_change', channel=8, control=6, value=12, time=0)
Message('control_change', channel=8, control=10, value=75, time=0)
Message('control_change', channel=8, control=7, value=80, time=0)
Message('pitchwheel', channel=8, pitch=0, time=0)
Message('program_change', channel=8, program=61, time=0)
Message('control_change', channel=8, control=91, value=20, time=0)
Message('control_change', channel=8, control=93, value=0, time=0)
Message('control_change', channel=8, control=101, value=0, time=0)
Message('control_change', channel=8, control=100, value=0, time=0)
Message('control_change', channel=8, control=6, value=12, time=0)
Message('control_change', channel=8, control=10, value=75, time=0)
Message('control_change', channel=8, control=7, value=80, time=0)
Message('pitchwheel', channel=8, pitch=0, time=0)
Message('program_change', channel=8, program=61, time=0)
Message('control_change', channel=8, control=91, value=20, time=0)
Message('control_change', channel=8, control=93, value=0, time=0)
Message('control_change', channel=8, control=10, value=75, time=0)
Message('control_change', channel=8, control=7, value=80, time=0)
Message('pitchwheel', channel=8, pitch=0, time=0)
Message('program_change', channel=8, program=61, time=0)
Message('control_change', channel=8, control=91, value=20, time=0)
Message('control_change', channel=8, control=93, value=0, time=0)
Message('control_change', channel=8, control=101, value=0, time=0)
Message('control_change', channel=8, control=100, value=0, time=0)
Message('control_change', channel=8, control=6, value=12, time=0)
Message('control_change', channel=8, control=10, value=75, time=0)
Message('control_change', channel=8, control=7, value=80, time=0)
Message('pitchwheel', channel=8, pitch=0, time=0)
Message('program_change', channel=8, program=61, time=0)
Message('control_change', channel=8, control=91, value=20, time=0)
Message('control_change', channel=8, control=93, value=0, time=0)
Message('control_change', channel=8, control=10, value=75, time=0)
Message('control_change', channel=8, control=7, value=80, time=0)
Message('pitchwheel', channel=8, pitch=0, time=0)
Message('program_change', channel=8, program=61, time=0)
Message('control_change', channel=8, control=91, value=20, time=0)
Message('control_change', channel=8, control=93, value=0, time=0)
Message('note_on', channel=8, note=62, velocity=120, time=3456)
Message('note_off', channel=8, note=62, velocity=0, time=134)
Message('note_on', channel=8, note=69, velocity=120, time=10)
Message('note_off', channel=8, note=69, velocity=0, time=44)
Message('note_on', channel=8, note=56, velocity=120, time=4)
Message('note_off', channel=8, note=56, velocity=0, time=68)
Message('note_on', channel=8, note=64, velocity=100, time=4)
Message('note_off', channel=8, note=64, velocity=0, time=68)
Message('note_on', channel=8, note=59, velocity=120, time=4)
Message('note_off', channel=8, note=59, velocity=0, time=44)
Message('note_on', channel=8, note=61, velocity=120, time=4)
Message('note_off', channel=8, note=61, velocity=0, time=34)
Message('note_on', channel=8, note=54, velocity=100, time=14)
Message('note_off', channel=8, note=54, velocity=0, time=34)
Message('note_on', channel=8, note=57, velocity=120, time=14)
Message('note_off', channel=8, note=57, velocity=0, time=44)
Message('note_on', channel=8, note=56, velocity=110, time=4)
Message('note_off', channel=8, note=56, velocity=0, time=22)
Message('note_on', channel=8, note=57, velocity=127, time=2)
Message('note_off', channel=8, note=57, velocity=0, time=206)
Message('note_on', channel=8, note=57, velocity=120, time=10)
Message('note_off', channel=8, note=57, velocity=0, time=134)
Message('note_on', channel=8, note=69, velocity=100, time=10)
Message('note_off', channel=8, note=69, velocity=0, time=44)
Message('note_on', channel=8, note=65, velocity=120, time=4)
Message('note_off', channel=8, note=65, velocity=0, time=68)
Message('note_on', channel=8, note=66, velocity=100, time=4)
Message('note_off', channel=8, note=66, velocity=0, time=68)
Message('note_on', channel=8, note=68, velocity=110, time=4)
Message('note_on', channel=8, note=69, velocity=120, time=48)
Message('note_off', channel=8, note=68, velocity=0, time=10)
Message('note_off', channel=8, note=69, velocity=0, time=368)
Message('note_on', channel=8, note=57, velocity=120, time=6)
Message('note_off', channel=8, note=57, velocity=0, time=134)
Message('note_on', channel=8, note=69, velocity=120, time=10)
Message('note_off', channel=8, note=69, velocity=0, time=44)
Message('note_on', channel=8, note=68, velocity=120, time=4)
Message('note_off', channel=8, note=68, velocity=0, time=68)
Message('note_on', channel=8, note=69, velocity=100, time=4)
Message('note_off', channel=8, note=69, velocity=0, time=68)
Message('note_on', channel=8, note=71, velocity=120, time=4)
Message('note_off', channel=8, note=71, velocity=0, time=44)
Message('note_on', channel=8, note=73, velocity=120, time=4)
Message('note_off', channel=8, note=73, velocity=0, time=34)
Message('note_on', channel=8, note=66, velocity=100, time=14)
Message('note_off', channel=8, note=66, velocity=0, time=34)
Message('note_on', channel=8, note=64, velocity=120, time=14)
Message('note_off', channel=8, note=64, velocity=0, time=44)
Message('note_on', channel=8, note=64, velocity=110, time=4)
Message('note_off', channel=8, note=64, velocity=0, time=22)
Message('note_on', channel=8, note=66, velocity=110, time=2)
Message('note_off', channel=8, note=66, velocity=0, time=118)
Message('note_on', channel=8, note=68, velocity=110, time=2)
Message('note_off', channel=8, note=68, velocity=0, time=92)
Message('note_on', channel=8, note=69, velocity=120, time=4)
Message('note_off', channel=8, note=69, velocity=0, time=44)
Message('note_on', channel=8, note=62, velocity=110, time=4)
Message('note_off', channel=8, note=62, velocity=0, time=34)
Message('note_on', channel=8, note=64, velocity=120, time=62)
Message('note_off', channel=8, note=64, velocity=0, time=22)
Message('note_on', channel=8, note=66, velocity=110, time=2)
Message('note_off', channel=8, note=66, velocity=0, time=22)
Message('note_on', channel=8, note=64, velocity=120, time=2)
Message('note_off', channel=8, note=64, velocity=0, time=68)
Message('note_on', channel=8, note=68, velocity=100, time=4)
Message('note_off', channel=8, note=68, velocity=0, time=68)
Message('note_on', channel=8, note=69, velocity=110, time=4)
Message('note_off', channel=8, note=69, velocity=0, time=44)
Message('note_on', channel=8, note=71, velocity=120, time=4)
Message('note_off', channel=8, note=71, velocity=0, time=34)
Message('note_on', channel=8, note=64, velocity=100, time=14)
Message('note_off', channel=8, note=64, velocity=0, time=34)
Message('note_on', channel=8, note=68, velocity=120, time=14)
Message('note_off', channel=8, note=68, velocity=0, time=44)
Message('note_on', channel=8, note=68, velocity=110, time=4)
Message('note_off', channel=8, note=68, velocity=0, time=22)
Message('note_on', channel=8, note=69, velocity=127, time=2)
Message('note_off', channel=8, note=69, velocity=0, time=214)
Message('note_on', channel=8, note=62, velocity=120, time=2)
Message('note_off', channel=8, note=62, velocity=0, time=134)
Message('note_on', channel=8, note=69, velocity=120, time=10)
Message('note_off', channel=8, note=69, velocity=0, time=44)
Message('note_on', channel=8, note=56, velocity=120, time=4)
Message('note_off', channel=8, note=56, velocity=0, time=68)
Message('note_on', channel=8, note=64, velocity=100, time=4)
Message('note_off', channel=8, note=64, velocity=0, time=68)
Message('note_on', channel=8, note=59, velocity=120, time=4)
Message('note_off', channel=8, note=59, velocity=0, time=44)
Message('note_on', channel=8, note=61, velocity=120, time=4)
Message('note_off', channel=8, note=61, velocity=0, time=34)
Message('note_on', channel=8, note=54, velocity=100, time=14)
Message('note_off', channel=8, note=54, velocity=0, time=34)
Message('note_on', channel=8, note=57, velocity=120, time=14)
Message('note_off', channel=8, note=57, velocity=0, time=44)
Message('note_on', channel=8, note=56, velocity=110, time=4)
Message('note_off', channel=8, note=56, velocity=0, time=22)
Message('note_on', channel=8, note=57, velocity=127, time=2)
Message('note_off', channel=8, note=57, velocity=0, time=206)
Message('note_on', channel=8, note=57, velocity=120, time=10)
Message('note_off', channel=8, note=57, velocity=0, time=134)
Message('note_on', channel=8, note=69, velocity=100, time=10)
Message('note_off', channel=8, note=69, velocity=0, time=44)
Message('note_on', channel=8, note=65, velocity=120, time=4)
Message('note_off', channel=8, note=65, velocity=0, time=68)
Message('note_on', channel=8, note=66, velocity=100, time=4)
Message('note_off', channel=8, note=66, velocity=0, time=68)
Message('note_on', channel=8, note=68, velocity=110, time=4)
Message('note_on', channel=8, note=69, velocity=120, time=48)
Message('note_off', channel=8, note=68, velocity=0, time=10)
Message('note_off', channel=8, note=69, velocity=0, time=368)
Message('note_on', channel=8, note=57, velocity=120, time=6)
Message('note_off', channel=8, note=57, velocity=0, time=134)
Message('note_on', channel=8, note=69, velocity=120, time=10)
Message('note_off', channel=8, note=69, velocity=0, time=44)
Message('note_on', channel=8, note=68, velocity=120, time=4)
Message('note_off', channel=8, note=68, velocity=0, time=68)
Message('note_on', channel=8, note=69, velocity=100, time=4)
Message('note_off', channel=8, note=69, velocity=0, time=68)
Message('note_on', channel=8, note=71, velocity=120, time=4)
Message('note_off', channel=8, note=71, velocity=0, time=44)
Message('note_on', channel=8, note=73, velocity=120, time=4)
Message('note_off', channel=8, note=73, velocity=0, time=34)
Message('note_on', channel=8, note=66, velocity=100, time=14)
Message('note_off', channel=8, note=66, velocity=0, time=34)
Message('note_on', channel=8, note=64, velocity=120, time=14)
Message('note_off', channel=8, note=64, velocity=0, time=44)
Message('note_on', channel=8, note=64, velocity=110, time=4)
Message('note_off', channel=8, note=64, velocity=0, time=22)
Message('note_on', channel=8, note=66, velocity=110, time=2)
Message('note_off', channel=8, note=66, velocity=0, time=118)
Message('note_on', channel=8, note=68, velocity=110, time=2)
Message('note_off', channel=8, note=68, velocity=0, time=92)
Message('note_on', channel=8, note=69, velocity=120, time=4)
Message('note_off', channel=8, note=69, velocity=0, time=44)
Message('note_on', channel=8, note=62, velocity=110, time=4)
Message('note_off', channel=8, note=62, velocity=0, time=34)
Message('note_on', channel=8, note=64, velocity=120, time=62)
Message('note_off', channel=8, note=64, velocity=0, time=22)
Message('note_on', channel=8, note=66, velocity=110, time=2)
Message('note_off', channel=8, note=66, velocity=0, time=22)
Message('note_on', channel=8, note=64, velocity=120, time=2)
Message('note_off', channel=8, note=64, velocity=0, time=68)
Message('note_on', channel=8, note=68, velocity=100, time=4)
Message('note_off', channel=8, note=68, velocity=0, time=68)
Message('note_on', channel=8, note=69, velocity=110, time=4)
Message('note_off', channel=8, note=69, velocity=0, time=44)
Message('note_on', channel=8, note=71, velocity=120, time=4)
Message('note_off', channel=8, note=71, velocity=0, time=34)
Message('note_on', channel=8, note=64, velocity=100, time=14)
Message('note_off', channel=8, note=64, velocity=0, time=34)
Message('note_on', channel=8, note=68, velocity=120, time=14)
Message('note_off', channel=8, note=68, velocity=0, time=44)
Message('note_on', channel=8, note=68, velocity=110, time=4)
Message('note_off', channel=8, note=68, velocity=0, time=22)
Message('note_on', channel=8, note=69, velocity=127, time=2)
Message('note_off', channel=8, note=69, velocity=0, time=214)
Message('note_on', channel=8, note=74, velocity=120, time=9218)
Message('note_off', channel=8, note=74, velocity=0, time=134)
Message('note_on', channel=8, note=81, velocity=120, time=10)
Message('note_off', channel=8, note=81, velocity=0, time=44)
Message('note_on', channel=8, note=68, velocity=120, time=4)
Message('note_off', channel=8, note=68, velocity=0, time=68)
Message('note_on', channel=8, note=76, velocity=100, time=4)
Message('note_off', channel=8, note=76, velocity=0, time=68)
Message('note_on', channel=8, note=71, velocity=120, time=4)
Message('note_off', channel=8, note=71, velocity=0, time=44)
Message('note_on', channel=8, note=73, velocity=120, time=4)
Message('note_off', channel=8, note=73, velocity=0, time=34)
Message('note_on', channel=8, note=66, velocity=100, time=14)
Message('note_off', channel=8, note=66, velocity=0, time=34)
Message('note_on', channel=8, note=69, velocity=120, time=14)
Message('note_off', channel=8, note=69, velocity=0, time=44)
Message('note_on', channel=8, note=68, velocity=110, time=4)
Message('note_off', channel=8, note=68, velocity=0, time=22)
Message('note_on', channel=8, note=69, velocity=127, time=2)
Message('note_off', channel=8, note=69, velocity=0, time=206)
Message('note_on', channel=8, note=69, velocity=120, time=10)
Message('note_off', channel=8, note=69, velocity=0, time=134)
Message('note_on', channel=8, note=81, velocity=100, time=10)
Message('note_off', channel=8, note=81, velocity=0, time=44)
Message('note_on', channel=8, note=71, velocity=120, time=4)
Message('note_off', channel=8, note=71, velocity=0, time=68)
Message('note_on', channel=8, note=73, velocity=100, time=4)
Message('note_off', channel=8, note=73, velocity=0, time=68)
Message('note_on', channel=8, note=77, velocity=110, time=4)
Message('note_on', channel=8, note=81, velocity=120, time=48)
Message('note_off', channel=8, note=77, velocity=0, time=10)
Message('note_off', channel=8, note=81, velocity=0, time=368)
Message('note_on', channel=8, note=69, velocity=120, time=6)
Message('note_off', channel=8, note=69, velocity=0, time=134)
Message('note_on', channel=8, note=81, velocity=120, time=10)
Message('note_off', channel=8, note=81, velocity=0, time=44)
Message('note_on', channel=8, note=80, velocity=120, time=4)
Message('note_off', channel=8, note=80, velocity=0, time=68)
Message('note_on', channel=8, note=81, velocity=100, time=4)
Message('note_off', channel=8, note=81, velocity=0, time=68)
Message('note_on', channel=8, note=83, velocity=120, time=4)
Message('note_off', channel=8, note=83, velocity=0, time=44)
Message('note_on', channel=8, note=85, velocity=120, time=4)
Message('note_off', channel=8, note=85, velocity=0, time=34)
Message('note_on', channel=8, note=78, velocity=100, time=14)
Message('note_off', channel=8, note=78, velocity=0, time=34)
Message('note_on', channel=8, note=76, velocity=120, time=14)
Message('note_off', channel=8, note=76, velocity=0, time=44)
Message('note_on', channel=8, note=76, velocity=110, time=4)
Message('note_off', channel=8, note=76, velocity=0, time=22)
Message('note_on', channel=8, note=78, velocity=110, time=2)
Message('note_off', channel=8, note=78, velocity=0, time=118)
Message('note_on', channel=8, note=80, velocity=110, time=2)
Message('note_off', channel=8, note=80, velocity=0, time=92)
Message('note_on', channel=8, note=81, velocity=120, time=4)
Message('note_off', channel=8, note=81, velocity=0, time=44)
Message('note_on', channel=8, note=74, velocity=110, time=4)
Message('note_off', channel=8, note=74, velocity=0, time=34)
Message('note_on', channel=8, note=76, velocity=120, time=62)
Message('note_off', channel=8, note=76, velocity=0, time=22)
Message('note_on', channel=8, note=78, velocity=110, time=2)
Message('note_off', channel=8, note=78, velocity=0, time=22)
Message('note_on', channel=8, note=76, velocity=120, time=2)
Message('note_off', channel=8, note=76, velocity=0, time=68)
Message('note_on', channel=8, note=80, velocity=100, time=4)
Message('note_off', channel=8, note=80, velocity=0, time=68)
Message('note_on', channel=8, note=81, velocity=110, time=4)
Message('note_off', channel=8, note=81, velocity=0, time=44)
Message('note_on', channel=8, note=83, velocity=120, time=4)
Message('note_off', channel=8, note=83, velocity=0, time=34)
Message('note_on', channel=8, note=76, velocity=100, time=14)
Message('note_off', channel=8, note=76, velocity=0, time=34)
Message('note_on', channel=8, note=80, velocity=120, time=14)
Message('note_off', channel=8, note=80, velocity=0, time=44)
Message('note_on', channel=8, note=80, velocity=110, time=4)
Message('note_off', channel=8, note=80, velocity=0, time=22)
Message('note_on', channel=8, note=81, velocity=127, time=2)
Message('note_off', channel=8, note=81, velocity=0, time=214)
Message('note_on', channel=8, note=74, velocity=120, time=2)
Message('note_off', channel=8, note=74, velocity=0, time=134)
Message('note_on', channel=8, note=81, velocity=120, time=10)
Message('note_off', channel=8, note=81, velocity=0, time=44)
Message('note_on', channel=8, note=68, velocity=120, time=4)
Message('note_off', channel=8, note=68, velocity=0, time=68)
Message('note_on', channel=8, note=76, velocity=100, time=4)
Message('note_off', channel=8, note=76, velocity=0, time=68)
Message('note_on', channel=8, note=71, velocity=120, time=4)
Message('note_off', channel=8, note=71, velocity=0, time=44)
Message('note_on', channel=8, note=73, velocity=120, time=4)
Message('note_off', channel=8, note=73, velocity=0, time=34)
Message('note_on', channel=8, note=66, velocity=100, time=14)
Message('note_off', channel=8, note=66, velocity=0, time=34)
Message('note_on', channel=8, note=69, velocity=120, time=14)
Message('note_off', channel=8, note=69, velocity=0, time=44)
Message('note_on', channel=8, note=68, velocity=110, time=4)
Message('note_off', channel=8, note=68, velocity=0, time=22)
Message('note_on', channel=8, note=69, velocity=127, time=2)
Message('note_off', channel=8, note=69, velocity=0, time=206)
Message('note_on', channel=8, note=69, velocity=120, time=10)
Message('note_off', channel=8, note=69, velocity=0, time=134)
Message('note_on', channel=8, note=81, velocity=100, time=10)
Message('note_off', channel=8, note=81, velocity=0, time=44)
Message('note_on', channel=8, note=71, velocity=120, time=4)
Message('note_off', channel=8, note=71, velocity=0, time=68)
Message('note_on', channel=8, note=73, velocity=100, time=4)
Message('note_off', channel=8, note=73, velocity=0, time=68)
Message('note_on', channel=8, note=77, velocity=110, time=4)
Message('note_on', channel=8, note=81, velocity=120, time=48)
Message('note_off', channel=8, note=77, velocity=0, time=10)
Message('note_off', channel=8, note=81, velocity=0, time=368)
Message('note_on', channel=8, note=69, velocity=120, time=6)
Message('note_off', channel=8, note=69, velocity=0, time=134)
Message('note_on', channel=8, note=81, velocity=120, time=10)
Message('note_off', channel=8, note=81, velocity=0, time=44)
Message('note_on', channel=8, note=80, velocity=120, time=4)
Message('note_off', channel=8, note=80, velocity=0, time=68)
Message('note_on', channel=8, note=81, velocity=100, time=4)
Message('note_off', channel=8, note=81, velocity=0, time=68)
Message('note_on', channel=8, note=83, velocity=120, time=4)
Message('note_off', channel=8, note=83, velocity=0, time=44)
Message('note_on', channel=8, note=85, velocity=120, time=4)
Message('note_off', channel=8, note=85, velocity=0, time=34)
Message('note_on', channel=8, note=78, velocity=100, time=14)
Message('note_off', channel=8, note=78, velocity=0, time=34)
Message('note_on', channel=8, note=76, velocity=120, time=14)
Message('note_off', channel=8, note=76, velocity=0, time=44)
Message('note_on', channel=8, note=76, velocity=110, time=4)
Message('note_off', channel=8, note=76, velocity=0, time=22)
Message('note_on', channel=8, note=78, velocity=110, time=2)
Message('note_off', channel=8, note=78, velocity=0, time=118)
Message('note_on', channel=8, note=80, velocity=110, time=2)
Message('note_off', channel=8, note=80, velocity=0, time=92)
Message('note_on', channel=8, note=81, velocity=120, time=4)
Message('note_off', channel=8, note=81, velocity=0, time=44)
Message('note_on', channel=8, note=74, velocity=110, time=4)
Message('note_off', channel=8, note=74, velocity=0, time=34)
Message('note_on', channel=8, note=76, velocity=120, time=62)
Message('note_off', channel=8, note=76, velocity=0, time=22)
Message('note_on', channel=8, note=78, velocity=110, time=2)
Message('note_off', channel=8, note=78, velocity=0, time=22)
Message('note_on', channel=8, note=76, velocity=120, time=2)
Message('note_off', channel=8, note=76, velocity=0, time=68)
Message('note_on', channel=8, note=80, velocity=100, time=4)
Message('note_off', channel=8, note=80, velocity=0, time=68)
Message('note_on', channel=8, note=81, velocity=110, time=4)
Message('note_off', channel=8, note=81, velocity=0, time=44)
Message('note_on', channel=8, note=83, velocity=120, time=4)
Message('note_off', channel=8, note=83, velocity=0, time=34)
Message('note_on', channel=8, note=76, velocity=100, time=14)
Message('note_off', channel=8, note=76, velocity=0, time=34)
Message('note_on', channel=8, note=80, velocity=120, time=14)
Message('note_off', channel=8, note=80, velocity=0, time=44)
Message('note_on', channel=8, note=80, velocity=110, time=4)
Message('note_off', channel=8, note=80, velocity=0, time=22)
Message('note_on', channel=8, note=81, velocity=127, time=2)
Message('note_off', channel=8, note=81, velocity=0, time=214)
Message('note_on', channel=8, note=74, velocity=120, time=2)
Message('note_off', channel=8, note=74, velocity=0, time=134)
Message('note_on', channel=8, note=81, velocity=120, time=10)
Message('note_off', channel=8, note=81, velocity=0, time=44)
Message('note_on', channel=8, note=68, velocity=120, time=4)
Message('note_off', channel=8, note=68, velocity=0, time=68)
Message('note_on', channel=8, note=76, velocity=100, time=4)
Message('note_off', channel=8, note=76, velocity=0, time=68)
Message('note_on', channel=8, note=71, velocity=120, time=4)
Message('note_off', channel=8, note=71, velocity=0, time=44)
Message('note_on', channel=8, note=73, velocity=120, time=4)
Message('note_off', channel=8, note=73, velocity=0, time=34)
Message('note_on', channel=8, note=66, velocity=100, time=14)
Message('note_off', channel=8, note=66, velocity=0, time=34)
Message('note_on', channel=8, note=69, velocity=120, time=14)
Message('note_off', channel=8, note=69, velocity=0, time=44)
Message('note_on', channel=8, note=68, velocity=110, time=4)
Message('note_off', channel=8, note=68, velocity=0, time=22)
Message('note_on', channel=8, note=69, velocity=127, time=2)
Message('note_off', channel=8, note=69, velocity=0, time=206)
Message('note_on', channel=8, note=69, velocity=120, time=10)
Message('note_off', channel=8, note=69, velocity=0, time=134)
Message('note_on', channel=8, note=81, velocity=100, time=10)
Message('note_off', channel=8, note=81, velocity=0, time=44)
Message('note_on', channel=8, note=71, velocity=120, time=4)
Message('note_off', channel=8, note=71, velocity=0, time=68)
Message('note_on', channel=8, note=73, velocity=100, time=4)
Message('note_off', channel=8, note=73, velocity=0, time=68)
Message('note_on', channel=8, note=77, velocity=110, time=4)
Message('note_on', channel=8, note=81, velocity=120, time=48)
Message('note_off', channel=8, note=77, velocity=0, time=10)
Message('note_off', channel=8, note=81, velocity=0, time=368)
Message('note_on', channel=8, note=69, velocity=120, time=6)
Message('note_off', channel=8, note=69, velocity=0, time=134)
Message('note_on', channel=8, note=81, velocity=120, time=10)
Message('note_off', channel=8, note=81, velocity=0, time=44)
Message('note_on', channel=8, note=80, velocity=120, time=4)
Message('note_off', channel=8, note=80, velocity=0, time=68)
Message('note_on', channel=8, note=81, velocity=100, time=4)
Message('note_off', channel=8, note=81, velocity=0, time=68)
Message('note_on', channel=8, note=83, velocity=120, time=4)
Message('note_off', channel=8, note=83, velocity=0, time=44)
Message('note_on', channel=8, note=85, velocity=120, time=4)
Message('note_off', channel=8, note=85, velocity=0, time=34)
Message('note_on', channel=8, note=78, velocity=100, time=14)
Message('note_off', channel=8, note=78, velocity=0, time=34)
Message('note_on', channel=8, note=76, velocity=120, time=14)
Message('note_off', channel=8, note=76, velocity=0, time=44)
Message('note_on', channel=8, note=76, velocity=110, time=4)
Message('note_off', channel=8, note=76, velocity=0, time=22)
Message('note_on', channel=8, note=78, velocity=110, time=2)
Message('note_off', channel=8, note=78, velocity=0, time=118)
Message('note_on', channel=8, note=80, velocity=110, time=2)
Message('note_off', channel=8, note=80, velocity=0, time=92)
Message('note_on', channel=8, note=81, velocity=120, time=4)
Message('note_off', channel=8, note=81, velocity=0, time=44)
Message('note_on', channel=8, note=74, velocity=110, time=4)
Message('note_off', channel=8, note=74, velocity=0, time=34)
Message('note_on', channel=8, note=76, velocity=120, time=62)
Message('note_off', channel=8, note=76, velocity=0, time=22)
Message('note_on', channel=8, note=78, velocity=110, time=2)
Message('note_off', channel=8, note=78, velocity=0, time=22)
Message('note_on', channel=8, note=76, velocity=120, time=2)
Message('note_off', channel=8, note=76, velocity=0, time=68)
Message('note_on', channel=8, note=80, velocity=100, time=4)
Message('note_off', channel=8, note=80, velocity=0, time=68)
Message('note_on', channel=8, note=81, velocity=110, time=4)
Message('note_off', channel=8, note=81, velocity=0, time=44)
Message('note_on', channel=8, note=83, velocity=120, time=4)
Message('note_off', channel=8, note=83, velocity=0, time=34)
Message('note_on', channel=8, note=76, velocity=100, time=14)
Message('note_off', channel=8, note=76, velocity=0, time=34)
Message('note_on', channel=8, note=80, velocity=120, time=14)
Message('note_off', channel=8, note=80, velocity=0, time=44)
Message('note_on', channel=8, note=80, velocity=110, time=4)
Message('note_off', channel=8, note=80, velocity=0, time=22)
Message('note_on', channel=8, note=81, velocity=127, time=2)
Message('note_off', channel=8, note=81, velocity=0, time=214)
Message('note_on', channel=8, note=74, velocity=120, time=2)
Message('note_off', channel=8, note=74, velocity=0, time=134)
Message('note_on', channel=8, note=81, velocity=120, time=10)
Message('note_off', channel=8, note=81, velocity=0, time=44)
Message('note_on', channel=8, note=68, velocity=120, time=4)
Message('note_off', channel=8, note=68, velocity=0, time=68)
Message('note_on', channel=8, note=76, velocity=100, time=4)
Message('note_off', channel=8, note=76, velocity=0, time=68)
Message('note_on', channel=8, note=71, velocity=120, time=4)
Message('note_off', channel=8, note=71, velocity=0, time=44)
Message('note_on', channel=8, note=73, velocity=120, time=4)
Message('note_off', channel=8, note=73, velocity=0, time=34)
Message('note_on', channel=8, note=66, velocity=100, time=14)
Message('note_off', channel=8, note=66, velocity=0, time=34)
Message('note_on', channel=8, note=69, velocity=120, time=14)
Message('note_off', channel=8, note=69, velocity=0, time=44)
Message('note_on', channel=8, note=68, velocity=110, time=4)
Message('note_off', channel=8, note=68, velocity=0, time=22)
Message('note_on', channel=8, note=69, velocity=127, time=2)
Message('note_off', channel=8, note=69, velocity=0, time=206)
Message('note_on', channel=8, note=69, velocity=120, time=10)
Message('note_off', channel=8, note=69, velocity=0, time=134)
Message('note_on', channel=8, note=81, velocity=100, time=10)
Message('note_off', channel=8, note=81, velocity=0, time=44)
Message('note_on', channel=8, note=71, velocity=120, time=4)
Message('note_off', channel=8, note=71, velocity=0, time=68)
Message('note_on', channel=8, note=73, velocity=100, time=4)
Message('note_off', channel=8, note=73, velocity=0, time=68)
Message('note_on', channel=8, note=77, velocity=110, time=4)
Message('note_on', channel=8, note=81, velocity=120, time=48)
Message('note_off', channel=8, note=77, velocity=0, time=10)
Message('note_off', channel=8, note=81, velocity=0, time=368)
Message('note_on', channel=8, note=69, velocity=120, time=6)
Message('note_off', channel=8, note=69, velocity=0, time=134)
Message('note_on', channel=8, note=81, velocity=120, time=10)
Message('note_off', channel=8, note=81, velocity=0, time=44)
Message('note_on', channel=8, note=80, velocity=120, time=4)
Message('note_off', channel=8, note=80, velocity=0, time=68)
Message('note_on', channel=8, note=81, velocity=100, time=4)
Message('note_off', channel=8, note=81, velocity=0, time=68)
Message('note_on', channel=8, note=83, velocity=120, time=4)
Message('note_off', channel=8, note=83, velocity=0, time=44)
Message('note_on', channel=8, note=85, velocity=120, time=4)
Message('note_off', channel=8, note=85, velocity=0, time=34)
Message('note_on', channel=8, note=78, velocity=100, time=14)
Message('note_off', channel=8, note=78, velocity=0, time=34)
Message('note_on', channel=8, note=76, velocity=120, time=14)
Message('note_off', channel=8, note=76, velocity=0, time=44)
Message('note_on', channel=8, note=76, velocity=110, time=4)
Message('note_off', channel=8, note=76, velocity=0, time=22)
Message('note_on', channel=8, note=78, velocity=110, time=2)
Message('note_off', channel=8, note=78, velocity=0, time=118)
Message('note_on', channel=8, note=80, velocity=110, time=2)
Message('note_off', channel=8, note=80, velocity=0, time=92)
Message('note_on', channel=8, note=81, velocity=120, time=4)
Message('note_off', channel=8, note=81, velocity=0, time=44)
Message('note_on', channel=8, note=74, velocity=110, time=4)
Message('note_off', channel=8, note=74, velocity=0, time=34)
Message('note_on', channel=8, note=76, velocity=120, time=62)
Message('note_off', channel=8, note=76, velocity=0, time=22)
Message('note_on', channel=8, note=78, velocity=110, time=2)
Message('note_off', channel=8, note=78, velocity=0, time=22)
Message('note_on', channel=8, note=76, velocity=120, time=2)
Message('note_off', channel=8, note=76, velocity=0, time=68)
Message('note_on', channel=8, note=80, velocity=100, time=4)
Message('note_off', channel=8, note=80, velocity=0, time=68)
Message('note_on', channel=8, note=81, velocity=110, time=4)
Message('note_off', channel=8, note=81, velocity=0, time=44)
Message('note_on', channel=8, note=83, velocity=120, time=4)
Message('note_off', channel=8, note=83, velocity=0, time=34)
Message('note_on', channel=8, note=76, velocity=100, time=14)
Message('note_off', channel=8, note=76, velocity=0, time=34)
Message('note_on', channel=8, note=80, velocity=120, time=14)
Message('note_off', channel=8, note=80, velocity=0, time=44)
Message('note_on', channel=8, note=80, velocity=110, time=4)
Message('note_off', channel=8, note=80, velocity=0, time=22)
Message('note_on', channel=8, note=81, velocity=127, time=2)
Message('note_off', channel=8, note=81, velocity=0, time=214)
Message('control_change', channel=8, control=101, value=0, time=386)
Message('control_change', channel=8, control=100, value=0, time=0)
Message('control_change', channel=8, control=6, value=12, time=0)
Message('control_change', channel=8, control=10, value=75, time=0)
Message('control_change', channel=8, control=7, value=80, time=0)
Message('pitchwheel', channel=8, pitch=0, time=0)
Message('program_change', channel=8, program=61, time=0)
Message('control_change', channel=8, control=91, value=20, time=0)
Message('control_change', channel=8, control=93, value=0, time=0)
Message('control_change', channel=8, control=101, value=0, time=1)
Message('control_change', channel=8, control=100, value=0, time=0)
Message('control_change', channel=8, control=6, value=12, time=0)
Message('control_change', channel=8, control=10, value=75, time=0)
Message('control_change', channel=8, control=7, value=80, time=0)
Message('pitchwheel', channel=8, pitch=0, time=0)
Message('program_change', channel=8, program=61, time=0)
Message('control_change', channel=8, control=91, value=20, time=0)
Message('control_change', channel=8, control=93, value=0, time=0)
Message('control_change', channel=8, control=101, value=0, time=0)
Message('control_change', channel=8, control=100, value=0, time=0)
Message('control_change', channel=8, control=6, value=12, time=0)
Message('control_change', channel=8, control=10, value=75, time=0)
Message('control_change', channel=8, control=7, value=80, time=0)
Message('pitchwheel', channel=8, pitch=0, time=0)
Message('program_change', channel=8, program=61, time=0)
Message('control_change', channel=8, control=91, value=20, time=0)
Message('control_change', channel=8, control=93, value=0, time=0)
MetaMessage('end_of_track', time=0)
=== Track 11
MetaMessage('track_name', name='Channel #11', time=0)
Message('control_change', channel=10, control=10, value=57, time=0)
Message('control_change', channel=10, control=7, value=110, time=0)
Message('pitchwheel', channel=10, pitch=0, time=0)
Message('control_change', channel=10, control=101, value=0, time=0)
Message('control_change', channel=10, control=100, value=0, time=0)
Message('control_change', channel=10, control=6, value=12, time=0)
Message('control_change', channel=10, control=10, value=57, time=0)
Message('control_change', channel=10, control=7, value=110, time=0)
Message('pitchwheel', channel=10, pitch=0, time=0)
Message('program_change', channel=10, program=48, time=0)
Message('control_change', channel=10, control=91, value=0, time=0)
Message('control_change', channel=10, control=93, value=20, time=0)
Message('control_change', channel=10, control=101, value=0, time=0)
Message('control_change', channel=10, control=100, value=0, time=0)
Message('control_change', channel=10, control=6, value=12, time=0)
Message('control_change', channel=10, control=10, value=57, time=0)
Message('control_change', channel=10, control=7, value=110, time=0)
Message('pitchwheel', channel=10, pitch=0, time=0)
Message('program_change', channel=10, program=48, time=0)
Message('control_change', channel=10, control=91, value=0, time=0)
Message('control_change', channel=10, control=93, value=20, time=0)
Message('control_change', channel=10, control=10, value=57, time=0)
Message('control_change', channel=10, control=7, value=110, time=0)
Message('pitchwheel', channel=10, pitch=0, time=0)
Message('program_change', channel=10, program=48, time=0)
Message('control_change', channel=10, control=91, value=0, time=0)
Message('control_change', channel=10, control=93, value=20, time=0)
Message('control_change', channel=10, control=101, value=0, time=0)
Message('control_change', channel=10, control=100, value=0, time=0)
Message('control_change', channel=10, control=6, value=12, time=0)
Message('control_change', channel=10, control=10, value=57, time=0)
Message('control_change', channel=10, control=7, value=110, time=0)
Message('pitchwheel', channel=10, pitch=0, time=0)
Message('program_change', channel=10, program=48, time=0)
Message('control_change', channel=10, control=91, value=0, time=0)
Message('control_change', channel=10, control=93, value=20, time=0)
Message('control_change', channel=10, control=10, value=57, time=0)
Message('control_change', channel=10, control=7, value=110, time=0)
Message('pitchwheel', channel=10, pitch=0, time=0)
Message('program_change', channel=10, program=48, time=0)
Message('control_change', channel=10, control=91, value=0, time=0)
Message('control_change', channel=10, control=93, value=20, time=0)
Message('control_change', channel=10, control=101, value=0, time=31488)
Message('control_change', channel=10, control=100, value=0, time=0)
Message('control_change', channel=10, control=6, value=12, time=0)
Message('control_change', channel=10, control=10, value=57, time=0)
Message('control_change', channel=10, control=7, value=110, time=0)
Message('pitchwheel', channel=10, pitch=0, time=0)
Message('program_change', channel=10, program=48, time=0)
Message('control_change', channel=10, control=91, value=0, time=0)
Message('control_change', channel=10, control=93, value=20, time=0)
Message('control_change', channel=10, control=101, value=0, time=1)
Message('control_change', channel=10, control=100, value=0, time=0)
Message('control_change', channel=10, control=6, value=12, time=0)
Message('control_change', channel=10, control=10, value=57, time=0)
Message('control_change', channel=10, control=7, value=110, time=0)
Message('pitchwheel', channel=10, pitch=0, time=0)
Message('program_change', channel=10, program=48, time=0)
Message('control_change', channel=10, control=91, value=0, time=0)
Message('control_change', channel=10, control=93, value=20, time=0)
Message('control_change', channel=10, control=101, value=0, time=0)
Message('control_change', channel=10, control=100, value=0, time=0)
Message('control_change', channel=10, control=6, value=12, time=0)
Message('control_change', channel=10, control=10, value=57, time=0)
Message('control_change', channel=10, control=7, value=110, time=0)
Message('pitchwheel', channel=10, pitch=0, time=0)
Message('program_change', channel=10, program=48, time=0)
Message('control_change', channel=10, control=91, value=0, time=0)
Message('control_change', channel=10, control=93, value=20, time=0)
MetaMessage('end_of_track', time=0)
=== Track 12
MetaMessage('track_name', name='Channel #12', time=0)
Message('control_change', channel=11, control=10, value=80, time=0)
Message('control_change', channel=11, control=7, value=80, time=0)
Message('pitchwheel', channel=11, pitch=0, time=0)
Message('control_change', channel=11, control=101, value=0, time=0)
Message('control_change', channel=11, control=100, value=0, time=0)
Message('control_change', channel=11, control=6, value=12, time=0)
Message('control_change', channel=11, control=10, value=80, time=0)
Message('control_change', channel=11, control=7, value=80, time=0)
Message('pitchwheel', channel=11, pitch=0, time=0)
Message('program_change', channel=11, program=1, time=0)
Message('control_change', channel=11, control=91, value=50, time=0)
Message('control_change', channel=11, control=93, value=0, time=0)
Message('control_change', channel=11, control=101, value=0, time=0)
Message('control_change', channel=11, control=100, value=0, time=0)
Message('control_change', channel=11, control=6, value=12, time=0)
Message('control_change', channel=11, control=10, value=80, time=0)
Message('control_change', channel=11, control=7, value=80, time=0)
Message('pitchwheel', channel=11, pitch=0, time=0)
Message('program_change', channel=11, program=1, time=0)
Message('control_change', channel=11, control=91, value=50, time=0)
Message('control_change', channel=11, control=93, value=0, time=0)
Message('control_change', channel=11, control=10, value=80, time=0)
Message('control_change', channel=11, control=7, value=80, time=0)
Message('pitchwheel', channel=11, pitch=0, time=0)
Message('program_change', channel=11, program=1, time=0)
Message('control_change', channel=11, control=91, value=50, time=0)
Message('control_change', channel=11, control=93, value=0, time=0)
Message('control_change', channel=11, control=101, value=0, time=0)
Message('control_change', channel=11, control=100, value=0, time=0)
Message('control_change', channel=11, control=6, value=12, time=0)
Message('control_change', channel=11, control=10, value=80, time=0)
Message('control_change', channel=11, control=7, value=80, time=0)
Message('pitchwheel', channel=11, pitch=0, time=0)
Message('program_change', channel=11, program=1, time=0)
Message('control_change', channel=11, control=91, value=50, time=0)
Message('control_change', channel=11, control=93, value=0, time=0)
Message('control_change', channel=11, control=10, value=80, time=0)
Message('control_change', channel=11, control=7, value=80, time=0)
Message('pitchwheel', channel=11, pitch=0, time=0)
Message('program_change', channel=11, program=1, time=0)
Message('control_change', channel=11, control=91, value=50, time=0)
Message('control_change', channel=11, control=93, value=0, time=0)
Message('note_on', channel=11, note=62, velocity=60, time=384)
Message('note_off', channel=11, note=62, velocity=0, time=68)
Message('note_on', channel=11, note=69, velocity=60, time=4)
Message('note_off', channel=11, note=69, velocity=0, time=116)
Message('note_on', channel=11, note=68, velocity=60, time=4)
Message('note_off', channel=11, note=68, velocity=0, time=68)
Message('note_on', channel=11, note=71, velocity=60, time=4)
Message('note_off', channel=11, note=71, velocity=0, time=68)
Message('note_on', channel=11, note=76, velocity=60, time=4)
Message('note_off', channel=11, note=76, velocity=0, time=44)
Message('note_on', channel=11, note=78, velocity=60, time=4)
Message('note_off', channel=11, note=78, velocity=0, time=30)
Message('note_on', channel=11, note=83, velocity=60, time=6)
Message('note_off', channel=11, note=83, velocity=0, time=30)
Message('note_on', channel=11, note=69, velocity=60, time=6)
Message('note_off', channel=11, note=69, velocity=0, time=22)
Message('note_on', channel=11, note=76, velocity=60, time=2)
Message('note_off', channel=11, note=76, velocity=0, time=30)
Message('note_on', channel=11, note=71, velocity=60, time=6)
Message('note_off', channel=11, note=71, velocity=0, time=30)
Message('note_on', channel=11, note=68, velocity=60, time=6)
Message('note_off', channel=11, note=68, velocity=0, time=22)
Message('note_on', channel=11, note=69, velocity=60, time=2)
Message('note_off', channel=11, note=69, velocity=0, time=182)
Message('note_on', channel=11, note=66, velocity=60, time=10)
Message('note_off', channel=11, note=66, velocity=0, time=68)
Message('note_on', channel=11, note=74, velocity=60, time=4)
Message('note_off', channel=11, note=74, velocity=0, time=70)
Message('note_on', channel=11, note=69, velocity=60, time=2)
Message('note_off', channel=11, note=69, velocity=0, time=44)
Message('note_on', channel=11, note=77, velocity=60, time=4)
Message('note_off', channel=11, note=77, velocity=0, time=68)
Message('note_on', channel=11, note=71, velocity=60, time=4)
Message('note_off', channel=11, note=71, velocity=0, time=68)
Message('note_on', channel=11, note=80, velocity=60, time=4)
Message('note_off', channel=11, note=80, velocity=0, time=44)
Message('note_on', channel=11, note=69, velocity=60, time=4)
Message('note_off', channel=11, note=69, velocity=0, time=182)
Message('note_on', channel=11, note=73, velocity=60, time=10)
Message('note_off', channel=11, note=73, velocity=0, time=30)
Message('note_on', channel=11, note=81, velocity=60, time=6)
Message('note_off', channel=11, note=81, velocity=0, time=30)
Message('note_on', channel=11, note=80, velocity=60, time=6)
Message('note_off', channel=11, note=80, velocity=0, time=22)
Message('note_on', channel=11, note=71, velocity=60, time=2)
Message('note_off', channel=11, note=71, velocity=0, time=30)
Message('note_on', channel=11, note=80, velocity=60, time=6)
Message('note_off', channel=11, note=80, velocity=0, time=30)
Message('note_on', channel=11, note=78, velocity=60, time=6)
Message('note_off', channel=11, note=78, velocity=0, time=22)
Message('note_on', channel=11, note=78, velocity=60, time=2)
Message('note_off', channel=11, note=78, velocity=0, time=22)
Message('note_on', channel=11, note=74, velocity=60, time=2)
Message('note_off', channel=11, note=74, velocity=0, time=22)
Message('note_on', channel=11, note=69, velocity=60, time=2)
Message('note_off', channel=11, note=69, velocity=0, time=22)
Message('note_on', channel=11, note=74, velocity=60, time=2)
Message('note_off', channel=11, note=74, velocity=0, time=22)
Message('note_on', channel=11, note=81, velocity=60, time=2)
Message('note_off', channel=11, note=81, velocity=0, time=22)
Message('note_on', channel=11, note=78, velocity=60, time=2)
Message('note_off', channel=11, note=78, velocity=0, time=22)
Message('note_on', channel=11, note=74, velocity=60, time=2)
Message('note_off', channel=11, note=74, velocity=0, time=22)
Message('note_on', channel=11, note=69, velocity=60, time=2)
Message('note_off', channel=11, note=69, velocity=0, time=22)
Message('note_on', channel=11, note=71, velocity=60, time=2)
Message('note_off', channel=11, note=71, velocity=0, time=22)
Message('note_on', channel=11, note=76, velocity=60, time=2)
Message('note_off', channel=11, note=76, velocity=0, time=22)
Message('note_on', channel=11, note=80, velocity=60, time=2)
Message('note_off', channel=11, note=80, velocity=0, time=22)
Message('note_on', channel=11, note=83, velocity=60, time=2)
Message('note_off', channel=11, note=83, velocity=0, time=22)
Message('note_on', channel=11, note=80, velocity=60, time=2)
Message('note_off', channel=11, note=80, velocity=0, time=22)
Message('note_on', channel=11, note=83, velocity=60, time=2)
Message('note_off', channel=11, note=83, velocity=0, time=22)
Message('note_on', channel=11, note=88, velocity=60, time=2)
Message('note_off', channel=11, note=88, velocity=0, time=22)
Message('note_on', channel=11, note=83, velocity=60, time=2)
Message('note_off', channel=11, note=83, velocity=0, time=22)
Message('note_on', channel=11, note=85, velocity=60, time=2)
Message('note_off', channel=11, note=85, velocity=0, time=22)
Message('note_on', channel=11, note=81, velocity=60, time=2)
Message('note_off', channel=11, note=81, velocity=0, time=22)
Message('note_on', channel=11, note=78, velocity=60, time=2)
Message('note_off', channel=11, note=78, velocity=0, time=22)
Message('note_on', channel=11, note=83, velocity=60, time=2)
Message('note_off', channel=11, note=83, velocity=0, time=22)
Message('note_on', channel=11, note=80, velocity=60, time=2)
Message('note_off', channel=11, note=80, velocity=0, time=22)
Message('note_on', channel=11, note=76, velocity=60, time=2)
Message('note_off', channel=11, note=76, velocity=0, time=22)
Message('note_on', channel=11, note=81, velocity=60, time=2)
Message('note_off', channel=11, note=81, velocity=0, time=22)
Message('note_on', channel=11, note=78, velocity=60, time=2)
Message('note_off', channel=11, note=78, velocity=0, time=22)
Message('note_on', channel=11, note=73, velocity=60, time=2)
Message('note_off', channel=11, note=73, velocity=0, time=22)
Message('note_on', channel=11, note=80, velocity=60, time=2)
Message('note_off', channel=11, note=80, velocity=0, time=22)
Message('note_on', channel=11, note=76, velocity=60, time=2)
Message('note_off', channel=11, note=76, velocity=0, time=22)
Message('note_on', channel=11, note=71, velocity=60, time=2)
Message('note_off', channel=11, note=71, velocity=0, time=22)
Message('note_on', channel=11, note=78, velocity=60, time=2)
Message('note_off', channel=11, note=78, velocity=0, time=22)
Message('note_on', channel=11, note=69, velocity=60, time=2)
Message('note_off', channel=11, note=69, velocity=0, time=22)
Message('note_on', channel=11, note=81, velocity=60, time=2)
Message('note_off', channel=11, note=81, velocity=0, time=22)
Message('note_on', channel=11, note=76, velocity=60, time=2)
Message('note_off', channel=11, note=76, velocity=0, time=22)
Message('note_on', channel=11, note=81, velocity=60, time=2)
Message('note_off', channel=11, note=81, velocity=0, time=22)
Message('note_on', channel=11, note=78, velocity=60, time=2)
Message('note_off', channel=11, note=78, velocity=0, time=22)
Message('note_on', channel=11, note=74, velocity=60, time=2)
Message('note_off', channel=11, note=74, velocity=0, time=22)
Message('note_on', channel=11, note=81, velocity=60, time=2)
Message('note_off', channel=11, note=81, velocity=0, time=22)
Message('note_on', channel=11, note=78, velocity=60, time=2)
Message('note_off', channel=11, note=78, velocity=0, time=22)
Message('note_on', channel=11, note=74, velocity=60, time=2)
Message('note_off', channel=11, note=74, velocity=0, time=22)
Message('note_on', channel=11, note=86, velocity=60, time=2)
Message('note_off', channel=11, note=86, velocity=0, time=22)
Message('note_on', channel=11, note=81, velocity=60, time=2)
Message('note_off', channel=11, note=81, velocity=0, time=22)
Message('note_on', channel=11, note=80, velocity=60, time=2)
Message('note_off', channel=11, note=80, velocity=0, time=22)
Message('note_on', channel=11, note=76, velocity=60, time=2)
Message('note_off', channel=11, note=76, velocity=0, time=22)
Message('note_on', channel=11, note=71, velocity=60, time=2)
Message('note_off', channel=11, note=71, velocity=0, time=22)
Message('note_on', channel=11, note=80, velocity=60, time=2)
Message('note_off', channel=11, note=80, velocity=0, time=22)
Message('note_on', channel=11, note=76, velocity=60, time=2)
Message('note_off', channel=11, note=76, velocity=0, time=22)
Message('note_on', channel=11, note=71, velocity=60, time=2)
Message('note_off', channel=11, note=71, velocity=0, time=22)
Message('note_on', channel=11, note=83, velocity=60, time=2)
Message('note_off', channel=11, note=83, velocity=0, time=22)
Message('note_on', channel=11, note=80, velocity=60, time=2)
Message('note_off', channel=11, note=80, velocity=0, time=22)
Message('note_on', channel=11, note=81, velocity=60, time=2)
Message('note_off', channel=11, note=81, velocity=0, time=22)
Message('note_on', channel=11, note=85, velocity=60, time=2)
Message('note_off', channel=11, note=85, velocity=0, time=22)
Message('note_on', channel=11, note=90, velocity=60, time=2)
Message('note_off', channel=11, note=90, velocity=0, time=22)
Message('note_on', channel=11, note=83, velocity=60, time=2)
Message('note_off', channel=11, note=83, velocity=0, time=22)
Message('note_on', channel=11, note=88, velocity=60, time=2)
Message('note_off', channel=11, note=88, velocity=0, time=22)
Message('note_on', channel=11, note=92, velocity=60, time=2)
Message('note_off', channel=11, note=92, velocity=0, time=22)
Message('note_on', channel=11, note=85, velocity=60, time=2)
Message('note_off', channel=11, note=85, velocity=0, time=22)
Message('note_on', channel=11, note=90, velocity=60, time=2)
Message('note_off', channel=11, note=90, velocity=0, time=22)
Message('note_on', channel=11, note=93, velocity=60, time=2)
Message('note_off', channel=11, note=93, velocity=0, time=22)
Message('note_on', channel=11, note=92, velocity=60, time=2)
Message('note_off', channel=11, note=92, velocity=0, time=22)
Message('note_on', channel=11, note=88, velocity=60, time=2)
Message('note_off', channel=11, note=88, velocity=0, time=22)
Message('note_on', channel=11, note=83, velocity=60, time=2)
Message('note_off', channel=11, note=83, velocity=0, time=22)
Message('note_on', channel=11, note=90, velocity=60, time=2)
Message('note_off', channel=11, note=90, velocity=0, time=22)
Message('note_on', channel=11, note=85, velocity=60, time=2)
Message('note_off', channel=11, note=85, velocity=0, time=22)
Message('note_on', channel=11, note=81, velocity=60, time=2)
Message('note_off', channel=11, note=81, velocity=0, time=22)
Message('note_on', channel=11, note=80, velocity=60, time=2)
Message('note_off', channel=11, note=80, velocity=0, time=22)
Message('note_on', channel=11, note=78, velocity=100, time=2)
Message('note_off', channel=11, note=78, velocity=0, time=22)
Message('note_on', channel=11, note=74, velocity=100, time=2)
Message('note_off', channel=11, note=74, velocity=0, time=22)
Message('note_on', channel=11, note=69, velocity=100, time=2)
Message('note_off', channel=11, note=69, velocity=0, time=22)
Message('note_on', channel=11, note=74, velocity=100, time=2)
Message('note_off', channel=11, note=74, velocity=0, time=22)
Message('note_on', channel=11, note=81, velocity=100, time=2)
Message('note_off', channel=11, note=81, velocity=0, time=22)
Message('note_on', channel=11, note=78, velocity=100, time=2)
Message('note_off', channel=11, note=78, velocity=0, time=22)
Message('note_on', channel=11, note=74, velocity=100, time=2)
Message('note_off', channel=11, note=74, velocity=0, time=22)
Message('note_on', channel=11, note=69, velocity=100, time=2)
Message('note_off', channel=11, note=69, velocity=0, time=22)
Message('note_on', channel=11, note=71, velocity=100, time=2)
Message('note_off', channel=11, note=71, velocity=0, time=22)
Message('note_on', channel=11, note=76, velocity=100, time=2)
Message('note_off', channel=11, note=76, velocity=0, time=22)
Message('note_on', channel=11, note=80, velocity=100, time=2)
Message('note_off', channel=11, note=80, velocity=0, time=22)
Message('note_on', channel=11, note=83, velocity=100, time=2)
Message('note_off', channel=11, note=83, velocity=0, time=22)
Message('note_on', channel=11, note=80, velocity=100, time=2)
Message('note_off', channel=11, note=80, velocity=0, time=22)
Message('note_on', channel=11, note=83, velocity=100, time=2)
Message('note_off', channel=11, note=83, velocity=0, time=22)
Message('note_on', channel=11, note=88, velocity=100, time=2)
Message('note_off', channel=11, note=88, velocity=0, time=22)
Message('note_on', channel=11, note=83, velocity=100, time=2)
Message('note_off', channel=11, note=83, velocity=0, time=22)
Message('note_on', channel=11, note=85, velocity=100, time=2)
Message('note_off', channel=11, note=85, velocity=0, time=22)
Message('note_on', channel=11, note=81, velocity=100, time=2)
Message('note_off', channel=11, note=81, velocity=0, time=22)
Message('note_on', channel=11, note=78, velocity=100, time=2)
Message('note_off', channel=11, note=78, velocity=0, time=22)
Message('note_on', channel=11, note=83, velocity=100, time=2)
Message('note_off', channel=11, note=83, velocity=0, time=22)
Message('note_on', channel=11, note=80, velocity=100, time=2)
Message('note_off', channel=11, note=80, velocity=0, time=22)
Message('note_on', channel=11, note=76, velocity=100, time=2)
Message('note_off', channel=11, note=76, velocity=0, time=22)
Message('note_on', channel=11, note=81, velocity=100, time=2)
Message('note_off', channel=11, note=81, velocity=0, time=22)
Message('note_on', channel=11, note=78, velocity=100, time=2)
Message('note_off', channel=11, note=78, velocity=0, time=22)
Message('note_on', channel=11, note=73, velocity=100, time=2)
Message('note_off', channel=11, note=73, velocity=0, time=22)
Message('note_on', channel=11, note=80, velocity=100, time=2)
Message('note_off', channel=11, note=80, velocity=0, time=22)
Message('note_on', channel=11, note=76, velocity=100, time=2)
Message('note_off', channel=11, note=76, velocity=0, time=22)
Message('note_on', channel=11, note=71, velocity=100, time=2)
Message('note_off', channel=11, note=71, velocity=0, time=22)
Message('note_on', channel=11, note=78, velocity=100, time=2)
Message('note_off', channel=11, note=78, velocity=0, time=22)
Message('note_on', channel=11, note=69, velocity=100, time=2)
Message('note_off', channel=11, note=69, velocity=0, time=22)
Message('note_on', channel=11, note=81, velocity=100, time=2)
Message('note_off', channel=11, note=81, velocity=0, time=22)
Message('note_on', channel=11, note=76, velocity=100, time=2)
Message('note_off', channel=11, note=76, velocity=0, time=22)
Message('note_on', channel=11, note=81, velocity=100, time=2)
Message('note_off', channel=11, note=81, velocity=0, time=22)
Message('note_on', channel=11, note=78, velocity=100, time=2)
Message('note_off', channel=11, note=78, velocity=0, time=22)
Message('note_on', channel=11, note=74, velocity=100, time=2)
Message('note_off', channel=11, note=74, velocity=0, time=22)
Message('note_on', channel=11, note=81, velocity=100, time=2)
Message('note_off', channel=11, note=81, velocity=0, time=22)
Message('note_on', channel=11, note=78, velocity=100, time=2)
Message('note_off', channel=11, note=78, velocity=0, time=22)
Message('note_on', channel=11, note=74, velocity=100, time=2)
Message('note_off', channel=11, note=74, velocity=0, time=22)
Message('note_on', channel=11, note=86, velocity=100, time=2)
Message('note_off', channel=11, note=86, velocity=0, time=22)
Message('note_on', channel=11, note=81, velocity=100, time=2)
Message('note_off', channel=11, note=81, velocity=0, time=22)
Message('note_on', channel=11, note=80, velocity=100, time=2)
Message('note_off', channel=11, note=80, velocity=0, time=22)
Message('note_on', channel=11, note=76, velocity=100, time=2)
Message('note_off', channel=11, note=76, velocity=0, time=22)
Message('note_on', channel=11, note=71, velocity=100, time=2)
Message('note_off', channel=11, note=71, velocity=0, time=22)
Message('note_on', channel=11, note=80, velocity=100, time=2)
Message('note_off', channel=11, note=80, velocity=0, time=22)
Message('note_on', channel=11, note=76, velocity=100, time=2)
Message('note_off', channel=11, note=76, velocity=0, time=22)
Message('note_on', channel=11, note=71, velocity=100, time=2)
Message('note_off', channel=11, note=71, velocity=0, time=22)
Message('note_on', channel=11, note=83, velocity=100, time=2)
Message('note_off', channel=11, note=83, velocity=0, time=22)
Message('note_on', channel=11, note=80, velocity=100, time=2)
Message('note_off', channel=11, note=80, velocity=0, time=22)
Message('note_on', channel=11, note=81, velocity=100, time=2)
Message('note_off', channel=11, note=81, velocity=0, time=22)
Message('note_on', channel=11, note=85, velocity=100, time=2)
Message('note_off', channel=11, note=85, velocity=0, time=22)
Message('note_on', channel=11, note=90, velocity=100, time=2)
Message('note_off', channel=11, note=90, velocity=0, time=22)
Message('note_on', channel=11, note=83, velocity=100, time=2)
Message('note_off', channel=11, note=83, velocity=0, time=22)
Message('note_on', channel=11, note=88, velocity=100, time=2)
Message('note_off', channel=11, note=88, velocity=0, time=22)
Message('note_on', channel=11, note=92, velocity=100, time=2)
Message('note_off', channel=11, note=92, velocity=0, time=22)
Message('note_on', channel=11, note=85, velocity=100, time=2)
Message('note_off', channel=11, note=85, velocity=0, time=22)
Message('note_on', channel=11, note=90, velocity=100, time=2)
Message('note_off', channel=11, note=90, velocity=0, time=22)
Message('note_on', channel=11, note=93, velocity=100, time=2)
Message('note_off', channel=11, note=93, velocity=0, time=22)
Message('note_on', channel=11, note=92, velocity=100, time=2)
Message('note_off', channel=11, note=92, velocity=0, time=22)
Message('note_on', channel=11, note=88, velocity=100, time=2)
Message('note_off', channel=11, note=88, velocity=0, time=22)
Message('note_on', channel=11, note=83, velocity=100, time=2)
Message('note_off', channel=11, note=83, velocity=0, time=22)
Message('note_on', channel=11, note=90, velocity=100, time=2)
Message('note_off', channel=11, note=90, velocity=0, time=22)
Message('note_on', channel=11, note=85, velocity=100, time=2)
Message('note_off', channel=11, note=85, velocity=0, time=22)
Message('note_on', channel=11, note=81, velocity=100, time=2)
Message('note_off', channel=11, note=81, velocity=0, time=22)
Message('note_on', channel=11, note=80, velocity=100, time=2)
Message('note_off', channel=11, note=80, velocity=0, time=22)
Message('note_on', channel=11, note=78, velocity=100, time=2)
Message('note_off', channel=11, note=78, velocity=0, time=22)
Message('note_on', channel=11, note=74, velocity=100, time=2)
Message('note_off', channel=11, note=74, velocity=0, time=22)
Message('note_on', channel=11, note=69, velocity=100, time=2)
Message('note_off', channel=11, note=69, velocity=0, time=22)
Message('note_on', channel=11, note=74, velocity=100, time=2)
Message('note_off', channel=11, note=74, velocity=0, time=22)
Message('note_on', channel=11, note=81, velocity=100, time=2)
Message('note_off', channel=11, note=81, velocity=0, time=22)
Message('note_on', channel=11, note=78, velocity=100, time=2)
Message('note_off', channel=11, note=78, velocity=0, time=22)
Message('note_on', channel=11, note=74, velocity=100, time=2)
Message('note_off', channel=11, note=74, velocity=0, time=22)
Message('note_on', channel=11, note=69, velocity=100, time=2)
Message('note_off', channel=11, note=69, velocity=0, time=22)
Message('note_on', channel=11, note=71, velocity=100, time=2)
Message('note_off', channel=11, note=71, velocity=0, time=22)
Message('note_on', channel=11, note=76, velocity=100, time=2)
Message('note_off', channel=11, note=76, velocity=0, time=22)
Message('note_on', channel=11, note=80, velocity=100, time=2)
Message('note_off', channel=11, note=80, velocity=0, time=22)
Message('note_on', channel=11, note=83, velocity=100, time=2)
Message('note_off', channel=11, note=83, velocity=0, time=22)
Message('note_on', channel=11, note=80, velocity=100, time=2)
Message('note_off', channel=11, note=80, velocity=0, time=22)
Message('note_on', channel=11, note=83, velocity=100, time=2)
Message('note_off', channel=11, note=83, velocity=0, time=22)
Message('note_on', channel=11, note=88, velocity=100, time=2)
Message('note_off', channel=11, note=88, velocity=0, time=22)
Message('note_on', channel=11, note=83, velocity=100, time=2)
Message('note_off', channel=11, note=83, velocity=0, time=22)
Message('note_on', channel=11, note=85, velocity=100, time=2)
Message('note_off', channel=11, note=85, velocity=0, time=22)
Message('note_on', channel=11, note=81, velocity=100, time=2)
Message('note_off', channel=11, note=81, velocity=0, time=22)
Message('note_on', channel=11, note=78, velocity=100, time=2)
Message('note_off', channel=11, note=78, velocity=0, time=22)
Message('note_on', channel=11, note=83, velocity=100, time=2)
Message('note_off', channel=11, note=83, velocity=0, time=22)
Message('note_on', channel=11, note=80, velocity=100, time=2)
Message('note_off', channel=11, note=80, velocity=0, time=22)
Message('note_on', channel=11, note=76, velocity=100, time=2)
Message('note_off', channel=11, note=76, velocity=0, time=22)
Message('note_on', channel=11, note=81, velocity=100, time=2)
Message('note_off', channel=11, note=81, velocity=0, time=22)
Message('note_on', channel=11, note=78, velocity=100, time=2)
Message('note_off', channel=11, note=78, velocity=0, time=22)
Message('note_on', channel=11, note=73, velocity=100, time=2)
Message('note_off', channel=11, note=73, velocity=0, time=22)
Message('note_on', channel=11, note=80, velocity=100, time=2)
Message('note_off', channel=11, note=80, velocity=0, time=22)
Message('note_on', channel=11, note=76, velocity=100, time=2)
Message('note_off', channel=11, note=76, velocity=0, time=22)
Message('note_on', channel=11, note=71, velocity=100, time=2)
Message('note_off', channel=11, note=71, velocity=0, time=22)
Message('note_on', channel=11, note=78, velocity=100, time=2)
Message('note_off', channel=11, note=78, velocity=0, time=22)
Message('note_on', channel=11, note=69, velocity=100, time=2)
Message('note_off', channel=11, note=69, velocity=0, time=22)
Message('note_on', channel=11, note=81, velocity=100, time=2)
Message('note_off', channel=11, note=81, velocity=0, time=22)
Message('note_on', channel=11, note=76, velocity=100, time=2)
Message('note_off', channel=11, note=76, velocity=0, time=22)
Message('note_on', channel=11, note=81, velocity=100, time=2)
Message('note_off', channel=11, note=81, velocity=0, time=22)
Message('note_on', channel=11, note=78, velocity=100, time=2)
Message('note_off', channel=11, note=78, velocity=0, time=22)
Message('note_on', channel=11, note=74, velocity=100, time=2)
Message('note_off', channel=11, note=74, velocity=0, time=22)
Message('note_on', channel=11, note=81, velocity=100, time=2)
Message('note_off', channel=11, note=81, velocity=0, time=22)
Message('note_on', channel=11, note=78, velocity=100, time=2)
Message('note_off', channel=11, note=78, velocity=0, time=22)
Message('note_on', channel=11, note=74, velocity=100, time=2)
Message('note_off', channel=11, note=74, velocity=0, time=22)
Message('note_on', channel=11, note=86, velocity=100, time=2)
Message('note_off', channel=11, note=86, velocity=0, time=22)
Message('note_on', channel=11, note=81, velocity=100, time=2)
Message('note_off', channel=11, note=81, velocity=0, time=22)
Message('note_on', channel=11, note=80, velocity=100, time=2)
Message('note_off', channel=11, note=80, velocity=0, time=22)
Message('note_on', channel=11, note=76, velocity=100, time=2)
Message('note_off', channel=11, note=76, velocity=0, time=22)
Message('note_on', channel=11, note=71, velocity=100, time=2)
Message('note_off', channel=11, note=71, velocity=0, time=22)
Message('note_on', channel=11, note=80, velocity=100, time=2)
Message('note_off', channel=11, note=80, velocity=0, time=22)
Message('note_on', channel=11, note=76, velocity=100, time=2)
Message('note_off', channel=11, note=76, velocity=0, time=22)
Message('note_on', channel=11, note=71, velocity=100, time=2)
Message('note_off', channel=11, note=71, velocity=0, time=22)
Message('note_on', channel=11, note=83, velocity=100, time=2)
Message('note_off', channel=11, note=83, velocity=0, time=22)
Message('note_on', channel=11, note=80, velocity=100, time=2)
Message('note_off', channel=11, note=80, velocity=0, time=22)
Message('note_on', channel=11, note=81, velocity=100, time=2)
Message('note_off', channel=11, note=81, velocity=0, time=22)
Message('note_on', channel=11, note=85, velocity=100, time=2)
Message('note_off', channel=11, note=85, velocity=0, time=22)
Message('note_on', channel=11, note=90, velocity=100, time=2)
Message('note_off', channel=11, note=90, velocity=0, time=22)
Message('note_on', channel=11, note=83, velocity=100, time=2)
Message('note_off', channel=11, note=83, velocity=0, time=22)
Message('note_on', channel=11, note=88, velocity=100, time=2)
Message('note_off', channel=11, note=88, velocity=0, time=22)
Message('note_on', channel=11, note=92, velocity=100, time=2)
Message('note_off', channel=11, note=92, velocity=0, time=22)
Message('note_on', channel=11, note=85, velocity=100, time=2)
Message('note_off', channel=11, note=85, velocity=0, time=22)
Message('note_on', channel=11, note=90, velocity=100, time=2)
Message('note_off', channel=11, note=90, velocity=0, time=22)
Message('note_on', channel=11, note=93, velocity=100, time=2)
Message('note_off', channel=11, note=93, velocity=0, time=22)
Message('note_on', channel=11, note=92, velocity=100, time=2)
Message('note_off', channel=11, note=92, velocity=0, time=22)
Message('note_on', channel=11, note=88, velocity=100, time=2)
Message('note_off', channel=11, note=88, velocity=0, time=22)
Message('note_on', channel=11, note=83, velocity=100, time=2)
Message('note_off', channel=11, note=83, velocity=0, time=22)
Message('note_on', channel=11, note=90, velocity=100, time=2)
Message('note_off', channel=11, note=90, velocity=0, time=22)
Message('note_on', channel=11, note=85, velocity=100, time=2)
Message('note_off', channel=11, note=85, velocity=0, time=22)
Message('note_on', channel=11, note=81, velocity=100, time=2)
Message('note_off', channel=11, note=81, velocity=0, time=22)
Message('note_on', channel=11, note=80, velocity=100, time=2)
Message('note_off', channel=11, note=80, velocity=0, time=22)
Message('note_on', channel=11, note=78, velocity=100, time=2)
Message('note_off', channel=11, note=78, velocity=0, time=22)
Message('note_on', channel=11, note=74, velocity=100, time=2)
Message('note_off', channel=11, note=74, velocity=0, time=22)
Message('note_on', channel=11, note=69, velocity=100, time=2)
Message('note_off', channel=11, note=69, velocity=0, time=22)
Message('note_on', channel=11, note=74, velocity=100, time=2)
Message('note_off', channel=11, note=74, velocity=0, time=22)
Message('note_on', channel=11, note=81, velocity=100, time=2)
Message('note_off', channel=11, note=81, velocity=0, time=22)
Message('note_on', channel=11, note=78, velocity=100, time=2)
Message('note_off', channel=11, note=78, velocity=0, time=22)
Message('note_on', channel=11, note=74, velocity=100, time=2)
Message('note_off', channel=11, note=74, velocity=0, time=22)
Message('note_on', channel=11, note=69, velocity=100, time=2)
Message('note_off', channel=11, note=69, velocity=0, time=22)
Message('note_on', channel=11, note=71, velocity=100, time=2)
Message('note_off', channel=11, note=71, velocity=0, time=22)
Message('note_on', channel=11, note=76, velocity=100, time=2)
Message('note_off', channel=11, note=76, velocity=0, time=22)
Message('note_on', channel=11, note=80, velocity=100, time=2)
Message('note_off', channel=11, note=80, velocity=0, time=22)
Message('note_on', channel=11, note=83, velocity=100, time=2)
Message('note_off', channel=11, note=83, velocity=0, time=22)
Message('note_on', channel=11, note=80, velocity=100, time=2)
Message('note_off', channel=11, note=80, velocity=0, time=22)
Message('note_on', channel=11, note=83, velocity=100, time=2)
Message('note_off', channel=11, note=83, velocity=0, time=22)
Message('note_on', channel=11, note=88, velocity=100, time=2)
Message('note_off', channel=11, note=88, velocity=0, time=22)
Message('note_on', channel=11, note=83, velocity=100, time=2)
Message('note_off', channel=11, note=83, velocity=0, time=22)
Message('note_on', channel=11, note=85, velocity=100, time=2)
Message('note_off', channel=11, note=85, velocity=0, time=22)
Message('note_on', channel=11, note=81, velocity=100, time=2)
Message('note_off', channel=11, note=81, velocity=0, time=22)
Message('note_on', channel=11, note=78, velocity=100, time=2)
Message('note_off', channel=11, note=78, velocity=0, time=22)
Message('note_on', channel=11, note=83, velocity=100, time=2)
Message('note_off', channel=11, note=83, velocity=0, time=22)
Message('note_on', channel=11, note=80, velocity=100, time=2)
Message('note_off', channel=11, note=80, velocity=0, time=22)
Message('note_on', channel=11, note=76, velocity=100, time=2)
Message('note_off', channel=11, note=76, velocity=0, time=22)
Message('note_on', channel=11, note=81, velocity=100, time=2)
Message('note_off', channel=11, note=81, velocity=0, time=22)
Message('note_on', channel=11, note=78, velocity=100, time=2)
Message('note_off', channel=11, note=78, velocity=0, time=22)
Message('note_on', channel=11, note=73, velocity=100, time=2)
Message('note_off', channel=11, note=73, velocity=0, time=22)
Message('note_on', channel=11, note=80, velocity=100, time=2)
Message('note_off', channel=11, note=80, velocity=0, time=22)
Message('note_on', channel=11, note=76, velocity=100, time=2)
Message('note_off', channel=11, note=76, velocity=0, time=22)
Message('note_on', channel=11, note=71, velocity=100, time=2)
Message('note_off', channel=11, note=71, velocity=0, time=22)
Message('note_on', channel=11, note=78, velocity=100, time=2)
Message('note_off', channel=11, note=78, velocity=0, time=22)
Message('note_on', channel=11, note=69, velocity=100, time=2)
Message('note_off', channel=11, note=69, velocity=0, time=22)
Message('note_on', channel=11, note=81, velocity=100, time=2)
Message('note_off', channel=11, note=81, velocity=0, time=22)
Message('note_on', channel=11, note=76, velocity=100, time=2)
Message('note_off', channel=11, note=76, velocity=0, time=22)
Message('note_on', channel=11, note=81, velocity=100, time=2)
Message('note_off', channel=11, note=81, velocity=0, time=22)
Message('note_on', channel=11, note=78, velocity=100, time=2)
Message('note_off', channel=11, note=78, velocity=0, time=22)
Message('note_on', channel=11, note=74, velocity=100, time=2)
Message('note_off', channel=11, note=74, velocity=0, time=22)
Message('note_on', channel=11, note=81, velocity=100, time=2)
Message('note_off', channel=11, note=81, velocity=0, time=22)
Message('note_on', channel=11, note=78, velocity=100, time=2)
Message('note_off', channel=11, note=78, velocity=0, time=22)
Message('note_on', channel=11, note=74, velocity=100, time=2)
Message('note_off', channel=11, note=74, velocity=0, time=22)
Message('note_on', channel=11, note=86, velocity=100, time=2)
Message('note_off', channel=11, note=86, velocity=0, time=22)
Message('note_on', channel=11, note=81, velocity=100, time=2)
Message('note_off', channel=11, note=81, velocity=0, time=22)
Message('note_on', channel=11, note=80, velocity=100, time=2)
Message('note_off', channel=11, note=80, velocity=0, time=22)
Message('note_on', channel=11, note=76, velocity=100, time=2)
Message('note_off', channel=11, note=76, velocity=0, time=22)
Message('note_on', channel=11, note=71, velocity=100, time=2)
Message('note_off', channel=11, note=71, velocity=0, time=22)
Message('note_on', channel=11, note=80, velocity=100, time=2)
Message('note_off', channel=11, note=80, velocity=0, time=22)
Message('note_on', channel=11, note=76, velocity=100, time=2)
Message('note_off', channel=11, note=76, velocity=0, time=22)
Message('note_on', channel=11, note=71, velocity=100, time=2)
Message('note_off', channel=11, note=71, velocity=0, time=22)
Message('note_on', channel=11, note=83, velocity=100, time=2)
Message('note_off', channel=11, note=83, velocity=0, time=22)
Message('note_on', channel=11, note=80, velocity=100, time=2)
Message('note_off', channel=11, note=80, velocity=0, time=22)
Message('note_on', channel=11, note=81, velocity=100, time=2)
Message('note_off', channel=11, note=81, velocity=0, time=22)
Message('note_on', channel=11, note=85, velocity=100, time=2)
Message('note_off', channel=11, note=85, velocity=0, time=22)
Message('note_on', channel=11, note=90, velocity=100, time=2)
Message('note_off', channel=11, note=90, velocity=0, time=22)
Message('note_on', channel=11, note=83, velocity=100, time=2)
Message('note_off', channel=11, note=83, velocity=0, time=22)
Message('note_on', channel=11, note=88, velocity=100, time=2)
Message('note_off', channel=11, note=88, velocity=0, time=22)
Message('note_on', channel=11, note=92, velocity=100, time=2)
Message('note_off', channel=11, note=92, velocity=0, time=22)
Message('note_on', channel=11, note=85, velocity=100, time=2)
Message('note_off', channel=11, note=85, velocity=0, time=22)
Message('note_on', channel=11, note=90, velocity=100, time=2)
Message('note_off', channel=11, note=90, velocity=0, time=22)
Message('note_on', channel=11, note=93, velocity=100, time=2)
Message('note_off', channel=11, note=93, velocity=0, time=22)
Message('note_on', channel=11, note=92, velocity=100, time=2)
Message('note_off', channel=11, note=92, velocity=0, time=22)
Message('note_on', channel=11, note=88, velocity=100, time=2)
Message('note_off', channel=11, note=88, velocity=0, time=22)
Message('note_on', channel=11, note=83, velocity=100, time=2)
Message('note_off', channel=11, note=83, velocity=0, time=22)
Message('note_on', channel=11, note=90, velocity=100, time=2)
Message('note_off', channel=11, note=90, velocity=0, time=22)
Message('note_on', channel=11, note=85, velocity=100, time=2)
Message('note_off', channel=11, note=85, velocity=0, time=22)
Message('note_on', channel=11, note=81, velocity=100, time=2)
Message('note_off', channel=11, note=81, velocity=0, time=22)
Message('note_on', channel=11, note=80, velocity=100, time=2)
Message('note_off', channel=11, note=80, velocity=0, time=22)
Message('note_on', channel=11, note=78, velocity=100, time=2)
Message('note_off', channel=11, note=78, velocity=0, time=22)
Message('note_on', channel=11, note=74, velocity=100, time=2)
Message('note_off', channel=11, note=74, velocity=0, time=22)
Message('note_on', channel=11, note=69, velocity=100, time=2)
Message('note_off', channel=11, note=69, velocity=0, time=22)
Message('note_on', channel=11, note=74, velocity=100, time=2)
Message('note_off', channel=11, note=74, velocity=0, time=22)
Message('note_on', channel=11, note=81, velocity=100, time=2)
Message('note_off', channel=11, note=81, velocity=0, time=22)
Message('note_on', channel=11, note=78, velocity=100, time=2)
Message('note_off', channel=11, note=78, velocity=0, time=22)
Message('note_on', channel=11, note=74, velocity=100, time=2)
Message('note_off', channel=11, note=74, velocity=0, time=22)
Message('note_on', channel=11, note=69, velocity=100, time=2)
Message('note_off', channel=11, note=69, velocity=0, time=22)
Message('note_on', channel=11, note=71, velocity=100, time=2)
Message('note_off', channel=11, note=71, velocity=0, time=22)
Message('note_on', channel=11, note=76, velocity=100, time=2)
Message('note_off', channel=11, note=76, velocity=0, time=22)
Message('note_on', channel=11, note=80, velocity=100, time=2)
Message('note_off', channel=11, note=80, velocity=0, time=22)
Message('note_on', channel=11, note=83, velocity=100, time=2)
Message('note_off', channel=11, note=83, velocity=0, time=22)
Message('note_on', channel=11, note=80, velocity=100, time=2)
Message('note_off', channel=11, note=80, velocity=0, time=22)
Message('note_on', channel=11, note=83, velocity=100, time=2)
Message('note_off', channel=11, note=83, velocity=0, time=22)
Message('note_on', channel=11, note=88, velocity=100, time=2)
Message('note_off', channel=11, note=88, velocity=0, time=22)
Message('note_on', channel=11, note=83, velocity=100, time=2)
Message('note_off', channel=11, note=83, velocity=0, time=22)
Message('note_on', channel=11, note=85, velocity=100, time=2)
Message('note_off', channel=11, note=85, velocity=0, time=22)
Message('note_on', channel=11, note=81, velocity=100, time=2)
Message('note_off', channel=11, note=81, velocity=0, time=22)
Message('note_on', channel=11, note=78, velocity=100, time=2)
Message('note_off', channel=11, note=78, velocity=0, time=22)
Message('note_on', channel=11, note=83, velocity=100, time=2)
Message('note_off', channel=11, note=83, velocity=0, time=22)
Message('note_on', channel=11, note=80, velocity=100, time=2)
Message('note_off', channel=11, note=80, velocity=0, time=22)
Message('note_on', channel=11, note=76, velocity=100, time=2)
Message('note_off', channel=11, note=76, velocity=0, time=22)
Message('note_on', channel=11, note=81, velocity=100, time=2)
Message('note_off', channel=11, note=81, velocity=0, time=22)
Message('note_on', channel=11, note=78, velocity=100, time=2)
Message('note_off', channel=11, note=78, velocity=0, time=22)
Message('note_on', channel=11, note=73, velocity=100, time=2)
Message('note_off', channel=11, note=73, velocity=0, time=22)
Message('note_on', channel=11, note=80, velocity=100, time=2)
Message('note_off', channel=11, note=80, velocity=0, time=22)
Message('note_on', channel=11, note=76, velocity=100, time=2)
Message('note_off', channel=11, note=76, velocity=0, time=22)
Message('note_on', channel=11, note=71, velocity=100, time=2)
Message('note_off', channel=11, note=71, velocity=0, time=22)
Message('note_on', channel=11, note=78, velocity=100, time=2)
Message('note_off', channel=11, note=78, velocity=0, time=22)
Message('note_on', channel=11, note=69, velocity=100, time=2)
Message('note_off', channel=11, note=69, velocity=0, time=22)
Message('note_on', channel=11, note=81, velocity=100, time=2)
Message('note_off', channel=11, note=81, velocity=0, time=22)
Message('note_on', channel=11, note=76, velocity=100, time=2)
Message('note_off', channel=11, note=76, velocity=0, time=22)
Message('note_on', channel=11, note=81, velocity=100, time=2)
Message('note_off', channel=11, note=81, velocity=0, time=22)
Message('note_on', channel=11, note=78, velocity=100, time=2)
Message('note_off', channel=11, note=78, velocity=0, time=22)
Message('note_on', channel=11, note=74, velocity=100, time=2)
Message('note_off', channel=11, note=74, velocity=0, time=22)
Message('note_on', channel=11, note=81, velocity=100, time=2)
Message('note_off', channel=11, note=81, velocity=0, time=22)
Message('note_on', channel=11, note=78, velocity=100, time=2)
Message('note_off', channel=11, note=78, velocity=0, time=22)
Message('note_on', channel=11, note=74, velocity=100, time=2)
Message('note_off', channel=11, note=74, velocity=0, time=22)
Message('note_on', channel=11, note=86, velocity=100, time=2)
Message('note_off', channel=11, note=86, velocity=0, time=22)
Message('note_on', channel=11, note=81, velocity=100, time=2)
Message('note_off', channel=11, note=81, velocity=0, time=22)
Message('note_on', channel=11, note=80, velocity=100, time=2)
Message('note_off', channel=11, note=80, velocity=0, time=22)
Message('note_on', channel=11, note=76, velocity=100, time=2)
Message('note_off', channel=11, note=76, velocity=0, time=22)
Message('note_on', channel=11, note=71, velocity=100, time=2)
Message('note_off', channel=11, note=71, velocity=0, time=22)
Message('note_on', channel=11, note=80, velocity=100, time=2)
Message('note_off', channel=11, note=80, velocity=0, time=22)
Message('note_on', channel=11, note=76, velocity=100, time=2)
Message('note_off', channel=11, note=76, velocity=0, time=22)
Message('note_on', channel=11, note=71, velocity=100, time=2)
Message('note_off', channel=11, note=71, velocity=0, time=22)
Message('note_on', channel=11, note=83, velocity=100, time=2)
Message('note_off', channel=11, note=83, velocity=0, time=22)
Message('note_on', channel=11, note=80, velocity=100, time=2)
Message('note_off', channel=11, note=80, velocity=0, time=22)
Message('note_on', channel=11, note=81, velocity=100, time=2)
Message('note_off', channel=11, note=81, velocity=0, time=22)
Message('note_on', channel=11, note=85, velocity=100, time=2)
Message('note_off', channel=11, note=85, velocity=0, time=22)
Message('note_on', channel=11, note=90, velocity=100, time=2)
Message('note_off', channel=11, note=90, velocity=0, time=22)
Message('note_on', channel=11, note=83, velocity=100, time=2)
Message('note_off', channel=11, note=83, velocity=0, time=22)
Message('note_on', channel=11, note=88, velocity=100, time=2)
Message('note_off', channel=11, note=88, velocity=0, time=22)
Message('note_on', channel=11, note=92, velocity=100, time=2)
Message('note_off', channel=11, note=92, velocity=0, time=22)
Message('note_on', channel=11, note=85, velocity=100, time=2)
Message('note_off', channel=11, note=85, velocity=0, time=22)
Message('note_on', channel=11, note=90, velocity=100, time=2)
Message('note_off', channel=11, note=90, velocity=0, time=22)
Message('note_on', channel=11, note=90, velocity=120, time=2)
Message('note_on', channel=11, note=81, velocity=120, time=0)
Message('note_off', channel=11, note=90, velocity=0, time=92)
Message('note_off', channel=11, note=81, velocity=0, time=0)
Message('note_on', channel=11, note=92, velocity=120, time=4)
Message('note_on', channel=11, note=83, velocity=120, time=0)
Message('control_change', channel=11, control=10, value=70, time=88)
Message('note_off', channel=11, note=92, velocity=0, time=4)
Message('note_off', channel=11, note=83, velocity=0, time=0)
Message('note_on', channel=11, note=85, velocity=120, time=4)
Message('note_on', channel=11, note=93, velocity=120, time=0)
Message('note_off', channel=11, note=85, velocity=0, time=282)
Message('note_off', channel=11, note=93, velocity=0, time=0)
Message('note_on', channel=11, note=97, velocity=120, time=6)
Message('note_on', channel=11, note=93, velocity=120, time=0)
Message('note_off', channel=11, note=93, velocity=0, time=92)
Message('note_off', channel=11, note=97, velocity=0, time=0)
Message('note_on', channel=11, note=85, velocity=120, time=4)
Message('note_on', channel=11, note=92, velocity=120, time=0)
Message('note_off', channel=11, note=85, velocity=0, time=182)
Message('note_off', channel=11, note=92, velocity=0, time=0)
Message('note_on', channel=11, note=92, velocity=120, time=10)
Message('note_on', channel=11, note=97, velocity=120, time=0)
Message('note_off', channel=11, note=97, velocity=0, time=182)
Message('note_off', channel=11, note=92, velocity=0, time=0)
Message('note_on', channel=11, note=87, velocity=120, time=10)
Message('note_on', channel=11, note=90, velocity=120, time=0)
Message('note_off', channel=11, note=87, velocity=0, time=642)
Message('note_on', channel=11, note=87, velocity=120, time=18)
Message('note_off', channel=11, note=90, velocity=0, time=6)
Message('note_on', channel=11, note=90, velocity=120, time=6)
Message('note_off', channel=11, note=87, velocity=0, time=32)
Message('note_off', channel=11, note=90, velocity=0, time=12)
Message('note_on', channel=11, note=87, velocity=120, time=4)
Message('note_on', channel=11, note=92, velocity=120, time=0)
Message('note_off', channel=11, note=92, velocity=0, time=44)
Message('note_off', channel=11, note=87, velocity=0, time=0)
Message('note_on', channel=11, note=85, velocity=120, time=4)
Message('note_on', channel=11, note=93, velocity=120, time=0)
Message('note_off', channel=11, note=85, velocity=0, time=134)
Message('note_off', channel=11, note=93, velocity=0, time=0)
Message('note_on', channel=11, note=81, velocity=120, time=10)
Message('note_on', channel=11, note=85, velocity=120, time=0)
Message('note_off', channel=11, note=81, velocity=0, time=92)
Message('note_off', channel=11, note=85, velocity=0, time=0)
Message('note_on', channel=11, note=83, velocity=120, time=4)
Message('note_on', channel=11, note=92, velocity=120, time=0)
Message('note_off', channel=11, note=83, velocity=0, time=44)
Message('note_off', channel=11, note=92, velocity=0, time=0)
Message('note_on', channel=11, note=93, velocity=120, time=4)
Message('note_on', channel=11, note=85, velocity=120, time=0)
Message('note_off', channel=11, note=93, velocity=0, time=44)
Message('note_off', channel=11, note=85, velocity=0, time=0)
Message('note_on', channel=11, note=83, velocity=120, time=4)
Message('note_on', channel=11, note=92, velocity=120, time=0)
Message('note_off', channel=11, note=92, velocity=0, time=182)
Message('note_off', channel=11, note=83, velocity=0, time=0)
Message('note_on', channel=11, note=95, velocity=120, time=10)
Message('note_on', channel=11, note=92, velocity=120, time=0)
Message('note_off', channel=11, note=92, velocity=0, time=134)
Message('note_off', channel=11, note=95, velocity=0, time=0)
Message('note_on', channel=11, note=97, velocity=120, time=10)
Message('note_on', channel=11, note=93, velocity=120, time=0)
Message('note_off', channel=11, note=93, velocity=0, time=92)
Message('note_off', channel=11, note=97, velocity=0, time=0)
Message('note_on', channel=11, note=85, velocity=120, time=4)
Message('note_on', channel=11, note=93, velocity=120, time=0)
Message('note_off', channel=11, note=85, velocity=0, time=566)
Message('note_off', channel=11, note=93, velocity=0, time=0)
Message('note_on', channel=11, note=81, velocity=120, time=10)
Message('note_on', channel=11, note=90, velocity=120, time=0)
Message('note_off', channel=11, note=81, velocity=0, time=92)
Message('note_off', channel=11, note=90, velocity=0, time=0)
Message('note_on', channel=11, note=83, velocity=120, time=4)
Message('note_on', channel=11, note=92, velocity=120, time=0)
Message('note_off', channel=11, note=83, velocity=0, time=92)
Message('note_off', channel=11, note=92, velocity=0, time=0)
Message('note_on', channel=11, note=85, velocity=120, time=4)
Message('note_on', channel=11, note=93, velocity=120, time=0)
Message('note_off', channel=11, note=85, velocity=0, time=282)
Message('note_off', channel=11, note=93, velocity=0, time=0)
Message('note_on', channel=11, note=97, velocity=120, time=6)
Message('note_on', channel=11, note=93, velocity=120, time=0)
Message('note_off', channel=11, note=93, velocity=0, time=92)
Message('note_off', channel=11, note=97, velocity=0, time=0)
Message('note_on', channel=11, note=85, velocity=120, time=4)
Message('note_on', channel=11, note=92, velocity=120, time=0)
Message('note_off', channel=11, note=85, velocity=0, time=182)
Message('note_off', channel=11, note=92, velocity=0, time=0)
Message('note_on', channel=11, note=97, velocity=120, time=10)
Message('note_on', channel=11, note=92, velocity=120, time=0)
Message('note_off', channel=11, note=92, velocity=0, time=182)
Message('note_off', channel=11, note=97, velocity=0, time=0)
Message('note_on', channel=11, note=87, velocity=120, time=10)
Message('note_on', channel=11, note=90, velocity=120, time=0)
Message('note_off', channel=11, note=87, velocity=0, time=642)
Message('note_on', channel=11, note=87, velocity=120, time=18)
Message('note_off', channel=11, note=90, velocity=0, time=6)
Message('note_on', channel=11, note=90, velocity=120, time=6)
Message('note_off', channel=11, note=87, velocity=0, time=32)
Message('note_off', channel=11, note=90, velocity=0, time=12)
Message('note_on', channel=11, note=87, velocity=120, time=4)
Message('note_on', channel=11, note=92, velocity=120, time=0)
Message('note_off', channel=11, note=92, velocity=0, time=44)
Message('note_off', channel=11, note=87, velocity=0, time=0)
Message('note_on', channel=11, note=85, velocity=120, time=4)
Message('note_on', channel=11, note=93, velocity=120, time=0)
Message('note_off', channel=11, note=85, velocity=0, time=134)
Message('note_off', channel=11, note=93, velocity=0, time=0)
Message('note_on', channel=11, note=85, velocity=120, time=10)
Message('note_on', channel=11, note=81, velocity=120, time=0)
Message('note_off', channel=11, note=85, velocity=0, time=92)
Message('note_off', channel=11, note=81, velocity=0, time=0)
Message('note_on', channel=11, note=92, velocity=120, time=4)
Message('note_on', channel=11, note=83, velocity=120, time=0)
Message('note_off', channel=11, note=92, velocity=0, time=44)
Message('note_off', channel=11, note=83, velocity=0, time=0)
Message('note_on', channel=11, note=93, velocity=120, time=4)
Message('note_on', channel=11, note=85, velocity=120, time=0)
Message('note_off', channel=11, note=93, velocity=0, time=44)
Message('note_off', channel=11, note=85, velocity=0, time=0)
Message('note_on', channel=11, note=83, velocity=120, time=4)
Message('note_on', channel=11, note=92, velocity=120, time=0)
Message('note_off', channel=11, note=92, velocity=0, time=116)
Message('note_off', channel=11, note=83, velocity=0, time=0)
Message('note_on', channel=11, note=83, velocity=120, time=4)
Message('note_on', channel=11, note=80, velocity=120, time=0)
Message('note_off', channel=11, note=80, velocity=0, time=68)
Message('note_off', channel=11, note=83, velocity=0, time=0)
Message('note_on', channel=11, note=92, velocity=120, time=4)
Message('note_on', channel=11, note=93, velocity=120, time=48)
Message('note_off', channel=11, note=92, velocity=0, time=44)
Message('note_on', channel=11, note=95, velocity=120, time=4)
Message('note_off', channel=11, note=95, velocity=0, time=22)
Message('note_on', channel=11, note=100, velocity=120, time=2)
Message('note_off', channel=11, note=93, velocity=0, time=20)
Message('note_off', channel=11, note=100, velocity=0, time=2)
Message('note_on', channel=11, note=95, velocity=120, time=2)
Message('note_off', channel=11, note=95, velocity=0, time=22)
Message('note_on', channel=11, note=92, velocity=120, time=2)
Message('note_off', channel=11, note=92, velocity=0, time=22)
Message('note_on', channel=11, note=93, velocity=120, time=2)
Message('note_on', channel=11, note=90, velocity=120, time=24)
Message('note_off', channel=11, note=90, velocity=0, time=402)
Message('note_off', channel=11, note=93, velocity=0, time=0)
Message('note_on', channel=11, note=93, velocity=120, time=6)
Message('note_on', channel=11, note=102, velocity=120, time=184)
Message('note_off', channel=11, note=93, velocity=0, time=194)
Message('note_off', channel=11, note=102, velocity=0, time=184)
Message('note_on', channel=11, note=78, velocity=100, time=2894)
Message('note_off', channel=11, note=78, velocity=0, time=22)
Message('note_on', channel=11, note=74, velocity=100, time=2)
Message('note_off', channel=11, note=74, velocity=0, time=22)
Message('note_on', channel=11, note=69, velocity=100, time=2)
Message('note_off', channel=11, note=69, velocity=0, time=22)
Message('note_on', channel=11, note=74, velocity=100, time=2)
Message('note_off', channel=11, note=74, velocity=0, time=22)
Message('note_on', channel=11, note=81, velocity=100, time=2)
Message('note_off', channel=11, note=81, velocity=0, time=22)
Message('note_on', channel=11, note=78, velocity=100, time=2)
Message('note_off', channel=11, note=78, velocity=0, time=22)
Message('note_on', channel=11, note=74, velocity=100, time=2)
Message('note_off', channel=11, note=74, velocity=0, time=22)
Message('note_on', channel=11, note=69, velocity=100, time=2)
Message('control_change', channel=11, control=10, value=80, time=16)
Message('note_off', channel=11, note=69, velocity=0, time=6)
Message('note_on', channel=11, note=71, velocity=100, time=2)
Message('note_off', channel=11, note=71, velocity=0, time=22)
Message('note_on', channel=11, note=76, velocity=100, time=2)
Message('note_off', channel=11, note=76, velocity=0, time=22)
Message('note_on', channel=11, note=80, velocity=100, time=2)
Message('note_off', channel=11, note=80, velocity=0, time=22)
Message('note_on', channel=11, note=83, velocity=100, time=2)
Message('note_off', channel=11, note=83, velocity=0, time=22)
Message('note_on', channel=11, note=80, velocity=100, time=2)
Message('note_off', channel=11, note=80, velocity=0, time=22)
Message('note_on', channel=11, note=83, velocity=100, time=2)
Message('note_off', channel=11, note=83, velocity=0, time=22)
Message('note_on', channel=11, note=88, velocity=100, time=2)
Message('note_off', channel=11, note=88, velocity=0, time=22)
Message('note_on', channel=11, note=83, velocity=100, time=2)
Message('note_off', channel=11, note=83, velocity=0, time=22)
Message('note_on', channel=11, note=85, velocity=100, time=2)
Message('note_off', channel=11, note=85, velocity=0, time=22)
Message('note_on', channel=11, note=81, velocity=100, time=2)
Message('note_off', channel=11, note=81, velocity=0, time=22)
Message('note_on', channel=11, note=78, velocity=100, time=2)
Message('note_off', channel=11, note=78, velocity=0, time=22)
Message('note_on', channel=11, note=83, velocity=100, time=2)
Message('note_off', channel=11, note=83, velocity=0, time=22)
Message('note_on', channel=11, note=80, velocity=100, time=2)
Message('note_off', channel=11, note=80, velocity=0, time=22)
Message('note_on', channel=11, note=76, velocity=100, time=2)
Message('note_off', channel=11, note=76, velocity=0, time=22)
Message('note_on', channel=11, note=81, velocity=100, time=2)
Message('note_off', channel=11, note=81, velocity=0, time=22)
Message('note_on', channel=11, note=78, velocity=100, time=2)
Message('note_off', channel=11, note=78, velocity=0, time=22)
Message('note_on', channel=11, note=73, velocity=100, time=2)
Message('note_off', channel=11, note=73, velocity=0, time=22)
Message('note_on', channel=11, note=80, velocity=100, time=2)
Message('note_off', channel=11, note=80, velocity=0, time=22)
Message('note_on', channel=11, note=76, velocity=100, time=2)
Message('note_off', channel=11, note=76, velocity=0, time=22)
Message('note_on', channel=11, note=71, velocity=100, time=2)
Message('note_off', channel=11, note=71, velocity=0, time=22)
Message('note_on', channel=11, note=78, velocity=100, time=2)
Message('note_off', channel=11, note=78, velocity=0, time=22)
Message('note_on', channel=11, note=69, velocity=100, time=2)
Message('note_off', channel=11, note=69, velocity=0, time=22)
Message('note_on', channel=11, note=81, velocity=100, time=2)
Message('note_off', channel=11, note=81, velocity=0, time=22)
Message('note_on', channel=11, note=76, velocity=100, time=2)
Message('note_off', channel=11, note=76, velocity=0, time=22)
Message('note_on', channel=11, note=81, velocity=100, time=2)
Message('note_off', channel=11, note=81, velocity=0, time=22)
Message('note_on', channel=11, note=78, velocity=100, time=2)
Message('note_off', channel=11, note=78, velocity=0, time=22)
Message('note_on', channel=11, note=74, velocity=100, time=2)
Message('note_off', channel=11, note=74, velocity=0, time=22)
Message('note_on', channel=11, note=81, velocity=100, time=2)
Message('note_off', channel=11, note=81, velocity=0, time=22)
Message('note_on', channel=11, note=78, velocity=100, time=2)
Message('note_off', channel=11, note=78, velocity=0, time=22)
Message('note_on', channel=11, note=74, velocity=100, time=2)
Message('note_off', channel=11, note=74, velocity=0, time=22)
Message('note_on', channel=11, note=86, velocity=100, time=2)
Message('note_off', channel=11, note=86, velocity=0, time=22)
Message('note_on', channel=11, note=81, velocity=100, time=2)
Message('note_off', channel=11, note=81, velocity=0, time=22)
Message('note_on', channel=11, note=80, velocity=100, time=2)
Message('note_off', channel=11, note=80, velocity=0, time=22)
Message('note_on', channel=11, note=76, velocity=100, time=2)
Message('note_off', channel=11, note=76, velocity=0, time=22)
Message('note_on', channel=11, note=71, velocity=100, time=2)
Message('note_off', channel=11, note=71, velocity=0, time=22)
Message('note_on', channel=11, note=80, velocity=100, time=2)
Message('note_off', channel=11, note=80, velocity=0, time=22)
Message('note_on', channel=11, note=76, velocity=100, time=2)
Message('note_off', channel=11, note=76, velocity=0, time=22)
Message('note_on', channel=11, note=71, velocity=100, time=2)
Message('note_off', channel=11, note=71, velocity=0, time=22)
Message('note_on', channel=11, note=83, velocity=100, time=2)
Message('note_off', channel=11, note=83, velocity=0, time=22)
Message('note_on', channel=11, note=80, velocity=100, time=2)
Message('note_off', channel=11, note=80, velocity=0, time=22)
Message('note_on', channel=11, note=81, velocity=100, time=2)
Message('note_off', channel=11, note=81, velocity=0, time=22)
Message('note_on', channel=11, note=85, velocity=100, time=2)
Message('note_off', channel=11, note=85, velocity=0, time=22)
Message('note_on', channel=11, note=90, velocity=100, time=2)
Message('note_off', channel=11, note=90, velocity=0, time=22)
Message('note_on', channel=11, note=83, velocity=100, time=2)
Message('note_off', channel=11, note=83, velocity=0, time=22)
Message('note_on', channel=11, note=88, velocity=100, time=2)
Message('note_off', channel=11, note=88, velocity=0, time=22)
Message('note_on', channel=11, note=92, velocity=100, time=2)
Message('note_off', channel=11, note=92, velocity=0, time=22)
Message('note_on', channel=11, note=85, velocity=100, time=2)
Message('note_off', channel=11, note=85, velocity=0, time=22)
Message('note_on', channel=11, note=90, velocity=100, time=2)
Message('note_off', channel=11, note=90, velocity=0, time=22)
Message('note_on', channel=11, note=93, velocity=100, time=2)
Message('note_off', channel=11, note=93, velocity=0, time=22)
Message('note_on', channel=11, note=92, velocity=100, time=2)
Message('note_off', channel=11, note=92, velocity=0, time=22)
Message('note_on', channel=11, note=88, velocity=100, time=2)
Message('note_off', channel=11, note=88, velocity=0, time=22)
Message('note_on', channel=11, note=83, velocity=100, time=2)
Message('note_off', channel=11, note=83, velocity=0, time=22)
Message('note_on', channel=11, note=90, velocity=100, time=2)
Message('note_off', channel=11, note=90, velocity=0, time=22)
Message('note_on', channel=11, note=85, velocity=100, time=2)
Message('note_off', channel=11, note=85, velocity=0, time=22)
Message('note_on', channel=11, note=81, velocity=100, time=2)
Message('note_off', channel=11, note=81, velocity=0, time=22)
Message('note_on', channel=11, note=80, velocity=100, time=2)
Message('note_off', channel=11, note=80, velocity=0, time=22)
Message('note_on', channel=11, note=78, velocity=100, time=2)
Message('note_off', channel=11, note=78, velocity=0, time=22)
Message('note_on', channel=11, note=74, velocity=100, time=2)
Message('note_off', channel=11, note=74, velocity=0, time=22)
Message('note_on', channel=11, note=69, velocity=100, time=2)
Message('note_off', channel=11, note=69, velocity=0, time=22)
Message('note_on', channel=11, note=74, velocity=100, time=2)
Message('note_off', channel=11, note=74, velocity=0, time=22)
Message('note_on', channel=11, note=81, velocity=100, time=2)
Message('note_off', channel=11, note=81, velocity=0, time=22)
Message('note_on', channel=11, note=78, velocity=100, time=2)
Message('note_off', channel=11, note=78, velocity=0, time=22)
Message('note_on', channel=11, note=74, velocity=100, time=2)
Message('note_off', channel=11, note=74, velocity=0, time=22)
Message('note_on', channel=11, note=69, velocity=100, time=2)
Message('note_off', channel=11, note=69, velocity=0, time=22)
Message('note_on', channel=11, note=71, velocity=100, time=2)
Message('note_off', channel=11, note=71, velocity=0, time=22)
Message('note_on', channel=11, note=76, velocity=100, time=2)
Message('note_off', channel=11, note=76, velocity=0, time=22)
Message('note_on', channel=11, note=80, velocity=100, time=2)
Message('note_off', channel=11, note=80, velocity=0, time=22)
Message('note_on', channel=11, note=83, velocity=100, time=2)
Message('note_off', channel=11, note=83, velocity=0, time=22)
Message('note_on', channel=11, note=80, velocity=100, time=2)
Message('note_off', channel=11, note=80, velocity=0, time=22)
Message('note_on', channel=11, note=83, velocity=100, time=2)
Message('note_off', channel=11, note=83, velocity=0, time=22)
Message('note_on', channel=11, note=88, velocity=100, time=2)
Message('note_off', channel=11, note=88, velocity=0, time=22)
Message('note_on', channel=11, note=83, velocity=100, time=2)
Message('note_off', channel=11, note=83, velocity=0, time=22)
Message('note_on', channel=11, note=85, velocity=100, time=2)
Message('note_off', channel=11, note=85, velocity=0, time=22)
Message('note_on', channel=11, note=81, velocity=100, time=2)
Message('note_off', channel=11, note=81, velocity=0, time=22)
Message('note_on', channel=11, note=78, velocity=100, time=2)
Message('note_off', channel=11, note=78, velocity=0, time=22)
Message('note_on', channel=11, note=83, velocity=100, time=2)
Message('note_off', channel=11, note=83, velocity=0, time=22)
Message('note_on', channel=11, note=80, velocity=100, time=2)
Message('note_off', channel=11, note=80, velocity=0, time=22)
Message('note_on', channel=11, note=76, velocity=100, time=2)
Message('note_off', channel=11, note=76, velocity=0, time=22)
Message('note_on', channel=11, note=81, velocity=100, time=2)
Message('note_off', channel=11, note=81, velocity=0, time=22)
Message('note_on', channel=11, note=78, velocity=100, time=2)
Message('note_off', channel=11, note=78, velocity=0, time=22)
Message('note_on', channel=11, note=73, velocity=100, time=2)
Message('note_off', channel=11, note=73, velocity=0, time=22)
Message('note_on', channel=11, note=80, velocity=100, time=2)
Message('note_off', channel=11, note=80, velocity=0, time=22)
Message('note_on', channel=11, note=76, velocity=100, time=2)
Message('note_off', channel=11, note=76, velocity=0, time=22)
Message('note_on', channel=11, note=71, velocity=100, time=2)
Message('note_off', channel=11, note=71, velocity=0, time=22)
Message('note_on', channel=11, note=78, velocity=100, time=2)
Message('note_off', channel=11, note=78, velocity=0, time=22)
Message('note_on', channel=11, note=69, velocity=100, time=2)
Message('note_off', channel=11, note=69, velocity=0, time=22)
Message('note_on', channel=11, note=81, velocity=100, time=2)
Message('note_off', channel=11, note=81, velocity=0, time=22)
Message('note_on', channel=11, note=76, velocity=100, time=2)
Message('note_off', channel=11, note=76, velocity=0, time=22)
Message('note_on', channel=11, note=81, velocity=100, time=2)
Message('note_off', channel=11, note=81, velocity=0, time=22)
Message('note_on', channel=11, note=78, velocity=100, time=2)
Message('note_off', channel=11, note=78, velocity=0, time=22)
Message('note_on', channel=11, note=74, velocity=100, time=2)
Message('note_off', channel=11, note=74, velocity=0, time=22)
Message('note_on', channel=11, note=81, velocity=100, time=2)
Message('note_off', channel=11, note=81, velocity=0, time=22)
Message('note_on', channel=11, note=78, velocity=100, time=2)
Message('note_off', channel=11, note=78, velocity=0, time=22)
Message('note_on', channel=11, note=74, velocity=100, time=2)
Message('note_off', channel=11, note=74, velocity=0, time=22)
Message('note_on', channel=11, note=86, velocity=100, time=2)
Message('note_off', channel=11, note=86, velocity=0, time=22)
Message('note_on', channel=11, note=81, velocity=100, time=2)
Message('note_off', channel=11, note=81, velocity=0, time=22)
Message('note_on', channel=11, note=80, velocity=100, time=2)
Message('note_off', channel=11, note=80, velocity=0, time=22)
Message('note_on', channel=11, note=76, velocity=100, time=2)
Message('note_off', channel=11, note=76, velocity=0, time=22)
Message('note_on', channel=11, note=71, velocity=100, time=2)
Message('note_off', channel=11, note=71, velocity=0, time=22)
Message('note_on', channel=11, note=80, velocity=100, time=2)
Message('note_off', channel=11, note=80, velocity=0, time=22)
Message('note_on', channel=11, note=76, velocity=100, time=2)
Message('note_off', channel=11, note=76, velocity=0, time=22)
Message('note_on', channel=11, note=71, velocity=100, time=2)
Message('note_off', channel=11, note=71, velocity=0, time=22)
Message('note_on', channel=11, note=83, velocity=100, time=2)
Message('note_off', channel=11, note=83, velocity=0, time=22)
Message('note_on', channel=11, note=80, velocity=100, time=2)
Message('note_off', channel=11, note=80, velocity=0, time=22)
Message('note_on', channel=11, note=81, velocity=100, time=2)
Message('note_off', channel=11, note=81, velocity=0, time=22)
Message('note_on', channel=11, note=85, velocity=100, time=2)
Message('note_off', channel=11, note=85, velocity=0, time=22)
Message('note_on', channel=11, note=90, velocity=100, time=2)
Message('note_off', channel=11, note=90, velocity=0, time=22)
Message('note_on', channel=11, note=83, velocity=100, time=2)
Message('note_off', channel=11, note=83, velocity=0, time=22)
Message('note_on', channel=11, note=88, velocity=100, time=2)
Message('note_off', channel=11, note=88, velocity=0, time=22)
Message('note_on', channel=11, note=92, velocity=100, time=2)
Message('note_off', channel=11, note=92, velocity=0, time=22)
Message('note_on', channel=11, note=85, velocity=100, time=2)
Message('note_off', channel=11, note=85, velocity=0, time=22)
Message('note_on', channel=11, note=90, velocity=100, time=2)
Message('note_off', channel=11, note=90, velocity=0, time=22)
Message('note_on', channel=11, note=93, velocity=100, time=2)
Message('note_off', channel=11, note=93, velocity=0, time=22)
Message('note_on', channel=11, note=92, velocity=100, time=2)
Message('note_off', channel=11, note=92, velocity=0, time=22)
Message('note_on', channel=11, note=88, velocity=100, time=2)
Message('note_off', channel=11, note=88, velocity=0, time=22)
Message('note_on', channel=11, note=83, velocity=100, time=2)
Message('note_off', channel=11, note=83, velocity=0, time=22)
Message('note_on', channel=11, note=90, velocity=100, time=2)
Message('note_off', channel=11, note=90, velocity=0, time=22)
Message('note_on', channel=11, note=85, velocity=100, time=2)
Message('note_off', channel=11, note=85, velocity=0, time=22)
Message('note_on', channel=11, note=81, velocity=100, time=2)
Message('note_off', channel=11, note=81, velocity=0, time=22)
Message('note_on', channel=11, note=80, velocity=100, time=2)
Message('note_off', channel=11, note=80, velocity=0, time=22)
Message('note_on', channel=11, note=78, velocity=100, time=2)
Message('note_off', channel=11, note=78, velocity=0, time=22)
Message('note_on', channel=11, note=74, velocity=100, time=2)
Message('note_off', channel=11, note=74, velocity=0, time=22)
Message('note_on', channel=11, note=69, velocity=100, time=2)
Message('note_off', channel=11, note=69, velocity=0, time=22)
Message('note_on', channel=11, note=74, velocity=100, time=2)
Message('note_off', channel=11, note=74, velocity=0, time=22)
Message('note_on', channel=11, note=81, velocity=100, time=2)
Message('note_off', channel=11, note=81, velocity=0, time=22)
Message('note_on', channel=11, note=78, velocity=100, time=2)
Message('note_off', channel=11, note=78, velocity=0, time=22)
Message('note_on', channel=11, note=74, velocity=100, time=2)
Message('note_off', channel=11, note=74, velocity=0, time=22)
Message('note_on', channel=11, note=69, velocity=100, time=2)
Message('note_off', channel=11, note=69, velocity=0, time=22)
Message('note_on', channel=11, note=71, velocity=100, time=2)
Message('note_off', channel=11, note=71, velocity=0, time=22)
Message('note_on', channel=11, note=76, velocity=100, time=2)
Message('note_off', channel=11, note=76, velocity=0, time=22)
Message('note_on', channel=11, note=80, velocity=100, time=2)
Message('note_off', channel=11, note=80, velocity=0, time=22)
Message('note_on', channel=11, note=83, velocity=100, time=2)
Message('note_off', channel=11, note=83, velocity=0, time=22)
Message('note_on', channel=11, note=80, velocity=100, time=2)
Message('note_off', channel=11, note=80, velocity=0, time=22)
Message('note_on', channel=11, note=83, velocity=100, time=2)
Message('note_off', channel=11, note=83, velocity=0, time=22)
Message('note_on', channel=11, note=88, velocity=100, time=2)
Message('note_off', channel=11, note=88, velocity=0, time=22)
Message('note_on', channel=11, note=83, velocity=100, time=2)
Message('note_off', channel=11, note=83, velocity=0, time=22)
Message('note_on', channel=11, note=85, velocity=100, time=2)
Message('note_off', channel=11, note=85, velocity=0, time=22)
Message('note_on', channel=11, note=81, velocity=100, time=2)
Message('note_off', channel=11, note=81, velocity=0, time=22)
Message('note_on', channel=11, note=78, velocity=100, time=2)
Message('note_off', channel=11, note=78, velocity=0, time=22)
Message('note_on', channel=11, note=83, velocity=100, time=2)
Message('note_off', channel=11, note=83, velocity=0, time=22)
Message('note_on', channel=11, note=80, velocity=100, time=2)
Message('note_off', channel=11, note=80, velocity=0, time=22)
Message('note_on', channel=11, note=76, velocity=100, time=2)
Message('note_off', channel=11, note=76, velocity=0, time=22)
Message('note_on', channel=11, note=81, velocity=100, time=2)
Message('note_off', channel=11, note=81, velocity=0, time=22)
Message('note_on', channel=11, note=78, velocity=100, time=2)
Message('note_off', channel=11, note=78, velocity=0, time=22)
Message('note_on', channel=11, note=73, velocity=100, time=2)
Message('note_off', channel=11, note=73, velocity=0, time=22)
Message('note_on', channel=11, note=80, velocity=100, time=2)
Message('note_off', channel=11, note=80, velocity=0, time=22)
Message('note_on', channel=11, note=76, velocity=100, time=2)
Message('note_off', channel=11, note=76, velocity=0, time=22)
Message('note_on', channel=11, note=71, velocity=100, time=2)
Message('note_off', channel=11, note=71, velocity=0, time=22)
Message('note_on', channel=11, note=78, velocity=100, time=2)
Message('note_off', channel=11, note=78, velocity=0, time=22)
Message('note_on', channel=11, note=69, velocity=100, time=2)
Message('note_off', channel=11, note=69, velocity=0, time=22)
Message('note_on', channel=11, note=81, velocity=100, time=2)
Message('note_off', channel=11, note=81, velocity=0, time=22)
Message('note_on', channel=11, note=76, velocity=100, time=2)
Message('note_off', channel=11, note=76, velocity=0, time=22)
Message('note_on', channel=11, note=81, velocity=100, time=2)
Message('note_off', channel=11, note=81, velocity=0, time=22)
Message('note_on', channel=11, note=78, velocity=100, time=2)
Message('note_off', channel=11, note=78, velocity=0, time=22)
Message('note_on', channel=11, note=74, velocity=100, time=2)
Message('note_off', channel=11, note=74, velocity=0, time=22)
Message('note_on', channel=11, note=81, velocity=100, time=2)
Message('note_off', channel=11, note=81, velocity=0, time=22)
Message('note_on', channel=11, note=78, velocity=100, time=2)
Message('note_off', channel=11, note=78, velocity=0, time=22)
Message('note_on', channel=11, note=74, velocity=100, time=2)
Message('note_off', channel=11, note=74, velocity=0, time=22)
Message('note_on', channel=11, note=86, velocity=100, time=2)
Message('note_off', channel=11, note=86, velocity=0, time=22)
Message('note_on', channel=11, note=81, velocity=100, time=2)
Message('note_off', channel=11, note=81, velocity=0, time=22)
Message('note_on', channel=11, note=80, velocity=100, time=2)
Message('note_off', channel=11, note=80, velocity=0, time=22)
Message('note_on', channel=11, note=76, velocity=100, time=2)
Message('note_off', channel=11, note=76, velocity=0, time=22)
Message('note_on', channel=11, note=71, velocity=100, time=2)
Message('note_off', channel=11, note=71, velocity=0, time=22)
Message('note_on', channel=11, note=80, velocity=100, time=2)
Message('note_off', channel=11, note=80, velocity=0, time=22)
Message('note_on', channel=11, note=76, velocity=100, time=2)
Message('note_off', channel=11, note=76, velocity=0, time=22)
Message('note_on', channel=11, note=71, velocity=100, time=2)
Message('note_off', channel=11, note=71, velocity=0, time=22)
Message('note_on', channel=11, note=83, velocity=100, time=2)
Message('note_off', channel=11, note=83, velocity=0, time=22)
Message('note_on', channel=11, note=80, velocity=100, time=2)
Message('note_off', channel=11, note=80, velocity=0, time=22)
Message('note_on', channel=11, note=81, velocity=100, time=2)
Message('note_off', channel=11, note=81, velocity=0, time=22)
Message('note_on', channel=11, note=85, velocity=100, time=2)
Message('note_off', channel=11, note=85, velocity=0, time=22)
Message('note_on', channel=11, note=90, velocity=100, time=2)
Message('note_off', channel=11, note=90, velocity=0, time=22)
Message('note_on', channel=11, note=83, velocity=100, time=2)
Message('note_off', channel=11, note=83, velocity=0, time=22)
Message('note_on', channel=11, note=88, velocity=100, time=2)
Message('note_off', channel=11, note=88, velocity=0, time=22)
Message('note_on', channel=11, note=92, velocity=100, time=2)
Message('note_off', channel=11, note=92, velocity=0, time=22)
Message('note_on', channel=11, note=85, velocity=100, time=2)
Message('note_off', channel=11, note=85, velocity=0, time=22)
Message('note_on', channel=11, note=90, velocity=100, time=2)
Message('note_off', channel=11, note=90, velocity=0, time=22)
Message('note_on', channel=11, note=93, velocity=100, time=2)
Message('note_off', channel=11, note=93, velocity=0, time=22)
Message('note_on', channel=11, note=92, velocity=100, time=2)
Message('note_off', channel=11, note=92, velocity=0, time=22)
Message('note_on', channel=11, note=88, velocity=100, time=2)
Message('note_off', channel=11, note=88, velocity=0, time=22)
Message('note_on', channel=11, note=83, velocity=100, time=2)
Message('note_off', channel=11, note=83, velocity=0, time=22)
Message('note_on', channel=11, note=90, velocity=100, time=2)
Message('note_off', channel=11, note=90, velocity=0, time=22)
Message('note_on', channel=11, note=85, velocity=100, time=2)
Message('note_off', channel=11, note=85, velocity=0, time=22)
Message('note_on', channel=11, note=81, velocity=100, time=2)
Message('note_off', channel=11, note=81, velocity=0, time=22)
Message('note_on', channel=11, note=80, velocity=100, time=2)
Message('note_off', channel=11, note=80, velocity=0, time=22)
Message('note_on', channel=11, note=78, velocity=100, time=2)
Message('note_off', channel=11, note=78, velocity=0, time=22)
Message('note_on', channel=11, note=74, velocity=100, time=2)
Message('note_off', channel=11, note=74, velocity=0, time=22)
Message('note_on', channel=11, note=69, velocity=100, time=2)
Message('note_off', channel=11, note=69, velocity=0, time=22)
Message('note_on', channel=11, note=74, velocity=100, time=2)
Message('note_off', channel=11, note=74, velocity=0, time=22)
Message('note_on', channel=11, note=81, velocity=100, time=2)
Message('note_off', channel=11, note=81, velocity=0, time=22)
Message('note_on', channel=11, note=78, velocity=100, time=2)
Message('note_off', channel=11, note=78, velocity=0, time=22)
Message('note_on', channel=11, note=74, velocity=100, time=2)
Message('note_off', channel=11, note=74, velocity=0, time=22)
Message('note_on', channel=11, note=69, velocity=100, time=2)
Message('note_off', channel=11, note=69, velocity=0, time=22)
Message('note_on', channel=11, note=71, velocity=100, time=2)
Message('note_off', channel=11, note=71, velocity=0, time=22)
Message('note_on', channel=11, note=76, velocity=100, time=2)
Message('note_off', channel=11, note=76, velocity=0, time=22)
Message('note_on', channel=11, note=80, velocity=100, time=2)
Message('note_off', channel=11, note=80, velocity=0, time=22)
Message('note_on', channel=11, note=83, velocity=100, time=2)
Message('note_off', channel=11, note=83, velocity=0, time=22)
Message('note_on', channel=11, note=80, velocity=100, time=2)
Message('note_off', channel=11, note=80, velocity=0, time=22)
Message('note_on', channel=11, note=83, velocity=100, time=2)
Message('note_off', channel=11, note=83, velocity=0, time=22)
Message('note_on', channel=11, note=88, velocity=100, time=2)
Message('note_off', channel=11, note=88, velocity=0, time=22)
Message('note_on', channel=11, note=83, velocity=100, time=2)
Message('note_off', channel=11, note=83, velocity=0, time=22)
Message('note_on', channel=11, note=85, velocity=100, time=2)
Message('note_off', channel=11, note=85, velocity=0, time=22)
Message('note_on', channel=11, note=81, velocity=100, time=2)
Message('note_off', channel=11, note=81, velocity=0, time=22)
Message('note_on', channel=11, note=78, velocity=100, time=2)
Message('note_off', channel=11, note=78, velocity=0, time=22)
Message('note_on', channel=11, note=83, velocity=100, time=2)
Message('note_off', channel=11, note=83, velocity=0, time=22)
Message('note_on', channel=11, note=80, velocity=100, time=2)
Message('note_off', channel=11, note=80, velocity=0, time=22)
Message('note_on', channel=11, note=76, velocity=100, time=2)
Message('note_off', channel=11, note=76, velocity=0, time=22)
Message('note_on', channel=11, note=81, velocity=100, time=2)
Message('note_off', channel=11, note=81, velocity=0, time=22)
Message('note_on', channel=11, note=78, velocity=100, time=2)
Message('note_off', channel=11, note=78, velocity=0, time=22)
Message('note_on', channel=11, note=73, velocity=100, time=2)
Message('note_off', channel=11, note=73, velocity=0, time=22)
Message('note_on', channel=11, note=80, velocity=100, time=2)
Message('note_off', channel=11, note=80, velocity=0, time=22)
Message('note_on', channel=11, note=76, velocity=100, time=2)
Message('note_off', channel=11, note=76, velocity=0, time=22)
Message('note_on', channel=11, note=71, velocity=100, time=2)
Message('note_off', channel=11, note=71, velocity=0, time=22)
Message('note_on', channel=11, note=78, velocity=100, time=2)
Message('note_off', channel=11, note=78, velocity=0, time=22)
Message('note_on', channel=11, note=69, velocity=100, time=2)
Message('note_off', channel=11, note=69, velocity=0, time=22)
Message('note_on', channel=11, note=81, velocity=100, time=2)
Message('note_off', channel=11, note=81, velocity=0, time=22)
Message('note_on', channel=11, note=76, velocity=100, time=2)
Message('note_off', channel=11, note=76, velocity=0, time=22)
Message('note_on', channel=11, note=81, velocity=100, time=2)
Message('note_off', channel=11, note=81, velocity=0, time=22)
Message('note_on', channel=11, note=78, velocity=100, time=2)
Message('note_off', channel=11, note=78, velocity=0, time=22)
Message('note_on', channel=11, note=74, velocity=100, time=2)
Message('note_off', channel=11, note=74, velocity=0, time=22)
Message('note_on', channel=11, note=81, velocity=100, time=2)
Message('note_off', channel=11, note=81, velocity=0, time=22)
Message('note_on', channel=11, note=78, velocity=100, time=2)
Message('note_off', channel=11, note=78, velocity=0, time=22)
Message('note_on', channel=11, note=74, velocity=100, time=2)
Message('note_off', channel=11, note=74, velocity=0, time=22)
Message('note_on', channel=11, note=86, velocity=100, time=2)
Message('note_off', channel=11, note=86, velocity=0, time=22)
Message('note_on', channel=11, note=81, velocity=100, time=2)
Message('note_off', channel=11, note=81, velocity=0, time=22)
Message('note_on', channel=11, note=80, velocity=100, time=2)
Message('note_off', channel=11, note=80, velocity=0, time=22)
Message('note_on', channel=11, note=76, velocity=100, time=2)
Message('note_off', channel=11, note=76, velocity=0, time=22)
Message('note_on', channel=11, note=71, velocity=100, time=2)
Message('note_off', channel=11, note=71, velocity=0, time=22)
Message('note_on', channel=11, note=80, velocity=100, time=2)
Message('note_off', channel=11, note=80, velocity=0, time=22)
Message('note_on', channel=11, note=76, velocity=100, time=2)
Message('note_off', channel=11, note=76, velocity=0, time=22)
Message('note_on', channel=11, note=71, velocity=100, time=2)
Message('note_off', channel=11, note=71, velocity=0, time=22)
Message('note_on', channel=11, note=83, velocity=100, time=2)
Message('note_off', channel=11, note=83, velocity=0, time=22)
Message('note_on', channel=11, note=80, velocity=100, time=2)
Message('note_off', channel=11, note=80, velocity=0, time=22)
Message('note_on', channel=11, note=81, velocity=100, time=2)
Message('note_off', channel=11, note=81, velocity=0, time=22)
Message('note_on', channel=11, note=85, velocity=100, time=2)
Message('note_off', channel=11, note=85, velocity=0, time=22)
Message('note_on', channel=11, note=90, velocity=100, time=2)
Message('note_off', channel=11, note=90, velocity=0, time=22)
Message('note_on', channel=11, note=83, velocity=100, time=2)
Message('note_off', channel=11, note=83, velocity=0, time=22)
Message('note_on', channel=11, note=88, velocity=100, time=2)
Message('note_off', channel=11, note=88, velocity=0, time=22)
Message('note_on', channel=11, note=92, velocity=100, time=2)
Message('note_off', channel=11, note=92, velocity=0, time=22)
Message('note_on', channel=11, note=85, velocity=100, time=2)
Message('note_off', channel=11, note=85, velocity=0, time=22)
Message('note_on', channel=11, note=90, velocity=100, time=2)
Message('note_off', channel=11, note=90, velocity=0, time=22)
Message('note_on', channel=11, note=81, velocity=100, time=2)
Message('note_off', channel=11, note=81, velocity=0, time=22)
Message('note_on', channel=11, note=85, velocity=100, time=2)
Message('note_off', channel=11, note=85, velocity=0, time=22)
Message('note_on', channel=11, note=90, velocity=100, time=2)
Message('note_off', channel=11, note=90, velocity=0, time=22)
Message('note_on', channel=11, note=83, velocity=100, time=2)
Message('note_off', channel=11, note=83, velocity=0, time=22)
Message('note_on', channel=11, note=88, velocity=100, time=2)
Message('note_off', channel=11, note=88, velocity=0, time=22)
Message('note_on', channel=11, note=92, velocity=100, time=2)
Message('note_off', channel=11, note=92, velocity=0, time=22)
Message('note_on', channel=11, note=85, velocity=100, time=2)
Message('note_off', channel=11, note=85, velocity=0, time=22)
Message('note_on', channel=11, note=90, velocity=100, time=2)
Message('note_off', channel=11, note=90, velocity=0, time=22)
Message('note_on', channel=11, note=78, velocity=100, time=2)
Message('note_off', channel=11, note=78, velocity=0, time=22)
Message('note_on', channel=11, note=74, velocity=100, time=2)
Message('note_off', channel=11, note=74, velocity=0, time=22)
Message('note_on', channel=11, note=69, velocity=100, time=2)
Message('note_off', channel=11, note=69, velocity=0, time=22)
Message('note_on', channel=11, note=74, velocity=100, time=2)
Message('note_off', channel=11, note=74, velocity=0, time=22)
Message('note_on', channel=11, note=81, velocity=100, time=2)
Message('note_off', channel=11, note=81, velocity=0, time=22)
Message('note_on', channel=11, note=78, velocity=100, time=2)
Message('note_off', channel=11, note=78, velocity=0, time=22)
Message('note_on', channel=11, note=74, velocity=100, time=2)
Message('note_off', channel=11, note=74, velocity=0, time=22)
Message('note_on', channel=11, note=69, velocity=100, time=2)
Message('note_off', channel=11, note=69, velocity=0, time=22)
Message('note_on', channel=11, note=71, velocity=100, time=2)
Message('note_off', channel=11, note=71, velocity=0, time=22)
Message('note_on', channel=11, note=76, velocity=100, time=2)
Message('note_off', channel=11, note=76, velocity=0, time=22)
Message('note_on', channel=11, note=80, velocity=100, time=2)
Message('note_off', channel=11, note=80, velocity=0, time=22)
Message('note_on', channel=11, note=83, velocity=100, time=2)
Message('note_off', channel=11, note=83, velocity=0, time=22)
Message('note_on', channel=11, note=80, velocity=100, time=2)
Message('note_off', channel=11, note=80, velocity=0, time=22)
Message('note_on', channel=11, note=83, velocity=100, time=2)
Message('note_off', channel=11, note=83, velocity=0, time=22)
Message('note_on', channel=11, note=88, velocity=100, time=2)
Message('note_off', channel=11, note=88, velocity=0, time=22)
Message('note_on', channel=11, note=83, velocity=100, time=2)
Message('note_off', channel=11, note=83, velocity=0, time=22)
Message('note_on', channel=11, note=85, velocity=100, time=2)
Message('note_off', channel=11, note=85, velocity=0, time=22)
Message('note_on', channel=11, note=81, velocity=100, time=2)
Message('note_off', channel=11, note=81, velocity=0, time=22)
Message('note_on', channel=11, note=78, velocity=100, time=2)
Message('note_off', channel=11, note=78, velocity=0, time=22)
Message('note_on', channel=11, note=83, velocity=100, time=2)
Message('note_off', channel=11, note=83, velocity=0, time=22)
Message('note_on', channel=11, note=80, velocity=100, time=2)
Message('note_off', channel=11, note=80, velocity=0, time=22)
Message('note_on', channel=11, note=76, velocity=100, time=2)
Message('note_off', channel=11, note=76, velocity=0, time=22)
Message('note_on', channel=11, note=81, velocity=100, time=2)
Message('note_off', channel=11, note=81, velocity=0, time=22)
Message('note_on', channel=11, note=78, velocity=100, time=2)
Message('note_off', channel=11, note=78, velocity=0, time=22)
Message('note_on', channel=11, note=73, velocity=100, time=2)
Message('note_off', channel=11, note=73, velocity=0, time=22)
Message('note_on', channel=11, note=80, velocity=100, time=2)
Message('note_off', channel=11, note=80, velocity=0, time=22)
Message('note_on', channel=11, note=76, velocity=100, time=2)
Message('note_off', channel=11, note=76, velocity=0, time=22)
Message('note_on', channel=11, note=71, velocity=100, time=2)
Message('note_off', channel=11, note=71, velocity=0, time=22)
Message('note_on', channel=11, note=78, velocity=100, time=2)
Message('note_off', channel=11, note=78, velocity=0, time=22)
Message('note_on', channel=11, note=69, velocity=100, time=2)
Message('note_off', channel=11, note=69, velocity=0, time=22)
Message('note_on', channel=11, note=81, velocity=100, time=2)
Message('note_off', channel=11, note=81, velocity=0, time=22)
Message('note_on', channel=11, note=76, velocity=100, time=2)
Message('note_off', channel=11, note=76, velocity=0, time=22)
Message('note_on', channel=11, note=81, velocity=100, time=2)
Message('note_off', channel=11, note=81, velocity=0, time=22)
Message('note_on', channel=11, note=78, velocity=100, time=2)
Message('note_off', channel=11, note=78, velocity=0, time=22)
Message('note_on', channel=11, note=74, velocity=100, time=2)
Message('note_off', channel=11, note=74, velocity=0, time=22)
Message('note_on', channel=11, note=81, velocity=100, time=2)
Message('note_off', channel=11, note=81, velocity=0, time=22)
Message('note_on', channel=11, note=78, velocity=100, time=2)
Message('note_off', channel=11, note=78, velocity=0, time=22)
Message('note_on', channel=11, note=74, velocity=100, time=2)
Message('note_off', channel=11, note=74, velocity=0, time=22)
Message('note_on', channel=11, note=86, velocity=100, time=2)
Message('note_off', channel=11, note=86, velocity=0, time=22)
Message('note_on', channel=11, note=81, velocity=100, time=2)
Message('note_off', channel=11, note=81, velocity=0, time=22)
Message('note_on', channel=11, note=80, velocity=100, time=2)
Message('note_off', channel=11, note=80, velocity=0, time=22)
Message('note_on', channel=11, note=76, velocity=100, time=2)
Message('note_off', channel=11, note=76, velocity=0, time=22)
Message('note_on', channel=11, note=71, velocity=100, time=2)
Message('note_off', channel=11, note=71, velocity=0, time=22)
Message('note_on', channel=11, note=80, velocity=100, time=2)
Message('note_off', channel=11, note=80, velocity=0, time=22)
Message('note_on', channel=11, note=76, velocity=100, time=2)
Message('note_off', channel=11, note=76, velocity=0, time=22)
Message('note_on', channel=11, note=71, velocity=100, time=2)
Message('note_off', channel=11, note=71, velocity=0, time=22)
Message('note_on', channel=11, note=83, velocity=100, time=2)
Message('note_off', channel=11, note=83, velocity=0, time=22)
Message('note_on', channel=11, note=80, velocity=100, time=2)
Message('note_off', channel=11, note=80, velocity=0, time=22)
Message('note_on', channel=11, note=81, velocity=100, time=2)
Message('note_off', channel=11, note=81, velocity=0, time=22)
Message('note_on', channel=11, note=85, velocity=100, time=2)
Message('note_off', channel=11, note=85, velocity=0, time=22)
Message('note_on', channel=11, note=90, velocity=100, time=2)
Message('note_off', channel=11, note=90, velocity=0, time=22)
Message('note_on', channel=11, note=83, velocity=100, time=2)
Message('note_off', channel=11, note=83, velocity=0, time=22)
Message('note_on', channel=11, note=88, velocity=100, time=2)
Message('note_off', channel=11, note=88, velocity=0, time=22)
Message('note_on', channel=11, note=92, velocity=100, time=2)
Message('note_off', channel=11, note=92, velocity=0, time=22)
Message('note_on', channel=11, note=85, velocity=100, time=2)
Message('note_off', channel=11, note=85, velocity=0, time=22)
Message('note_on', channel=11, note=90, velocity=100, time=2)
Message('note_off', channel=11, note=90, velocity=0, time=22)
Message('note_on', channel=11, note=93, velocity=100, time=2)
Message('note_off', channel=11, note=93, velocity=0, time=22)
Message('note_on', channel=11, note=92, velocity=100, time=2)
Message('note_off', channel=11, note=92, velocity=0, time=22)
Message('note_on', channel=11, note=88, velocity=100, time=2)
Message('note_off', channel=11, note=88, velocity=0, time=22)
Message('note_on', channel=11, note=83, velocity=100, time=2)
Message('note_off', channel=11, note=83, velocity=0, time=22)
Message('note_on', channel=11, note=90, velocity=100, time=2)
Message('note_off', channel=11, note=90, velocity=0, time=22)
Message('note_on', channel=11, note=85, velocity=100, time=2)
Message('note_off', channel=11, note=85, velocity=0, time=22)
Message('note_on', channel=11, note=81, velocity=100, time=2)
Message('note_off', channel=11, note=81, velocity=0, time=22)
Message('note_on', channel=11, note=80, velocity=100, time=2)
Message('note_off', channel=11, note=80, velocity=0, time=22)
Message('note_on', channel=11, note=78, velocity=100, time=2)
Message('note_off', channel=11, note=78, velocity=0, time=22)
Message('note_on', channel=11, note=74, velocity=100, time=2)
Message('note_off', channel=11, note=74, velocity=0, time=22)
Message('note_on', channel=11, note=69, velocity=100, time=2)
Message('note_off', channel=11, note=69, velocity=0, time=22)
Message('note_on', channel=11, note=74, velocity=100, time=2)
Message('note_off', channel=11, note=74, velocity=0, time=22)
Message('note_on', channel=11, note=81, velocity=100, time=2)
Message('note_off', channel=11, note=81, velocity=0, time=22)
Message('note_on', channel=11, note=78, velocity=100, time=2)
Message('note_off', channel=11, note=78, velocity=0, time=22)
Message('note_on', channel=11, note=74, velocity=100, time=2)
Message('note_off', channel=11, note=74, velocity=0, time=22)
Message('note_on', channel=11, note=69, velocity=100, time=2)
Message('note_off', channel=11, note=69, velocity=0, time=22)
Message('note_on', channel=11, note=71, velocity=100, time=2)
Message('note_off', channel=11, note=71, velocity=0, time=22)
Message('note_on', channel=11, note=76, velocity=100, time=2)
Message('note_off', channel=11, note=76, velocity=0, time=22)
Message('note_on', channel=11, note=80, velocity=100, time=2)
Message('note_off', channel=11, note=80, velocity=0, time=22)
Message('note_on', channel=11, note=83, velocity=100, time=2)
Message('note_off', channel=11, note=83, velocity=0, time=22)
Message('note_on', channel=11, note=80, velocity=100, time=2)
Message('note_off', channel=11, note=80, velocity=0, time=22)
Message('note_on', channel=11, note=83, velocity=100, time=2)
Message('note_off', channel=11, note=83, velocity=0, time=22)
Message('note_on', channel=11, note=88, velocity=100, time=2)
Message('note_off', channel=11, note=88, velocity=0, time=22)
Message('note_on', channel=11, note=83, velocity=100, time=2)
Message('note_off', channel=11, note=83, velocity=0, time=22)
Message('note_on', channel=11, note=85, velocity=100, time=2)
Message('note_off', channel=11, note=85, velocity=0, time=22)
Message('note_on', channel=11, note=81, velocity=100, time=2)
Message('note_off', channel=11, note=81, velocity=0, time=22)
Message('note_on', channel=11, note=78, velocity=100, time=2)
Message('note_off', channel=11, note=78, velocity=0, time=22)
Message('note_on', channel=11, note=83, velocity=100, time=2)
Message('note_off', channel=11, note=83, velocity=0, time=22)
Message('note_on', channel=11, note=80, velocity=100, time=2)
Message('note_off', channel=11, note=80, velocity=0, time=22)
Message('note_on', channel=11, note=76, velocity=100, time=2)
Message('note_off', channel=11, note=76, velocity=0, time=22)
Message('note_on', channel=11, note=81, velocity=100, time=2)
Message('note_off', channel=11, note=81, velocity=0, time=22)
Message('note_on', channel=11, note=78, velocity=100, time=2)
Message('note_off', channel=11, note=78, velocity=0, time=22)
Message('note_on', channel=11, note=73, velocity=100, time=2)
Message('note_off', channel=11, note=73, velocity=0, time=22)
Message('note_on', channel=11, note=80, velocity=100, time=2)
Message('note_off', channel=11, note=80, velocity=0, time=22)
Message('note_on', channel=11, note=76, velocity=100, time=2)
Message('note_off', channel=11, note=76, velocity=0, time=22)
Message('note_on', channel=11, note=71, velocity=100, time=2)
Message('note_off', channel=11, note=71, velocity=0, time=22)
Message('note_on', channel=11, note=78, velocity=100, time=2)
Message('note_off', channel=11, note=78, velocity=0, time=22)
Message('note_on', channel=11, note=69, velocity=100, time=2)
Message('note_off', channel=11, note=69, velocity=0, time=22)
Message('note_on', channel=11, note=81, velocity=100, time=2)
Message('note_off', channel=11, note=81, velocity=0, time=22)
Message('note_on', channel=11, note=76, velocity=100, time=2)
Message('note_off', channel=11, note=76, velocity=0, time=22)
Message('note_on', channel=11, note=81, velocity=100, time=2)
Message('note_off', channel=11, note=81, velocity=0, time=22)
Message('note_on', channel=11, note=78, velocity=100, time=2)
Message('note_off', channel=11, note=78, velocity=0, time=22)
Message('note_on', channel=11, note=74, velocity=100, time=2)
Message('note_off', channel=11, note=74, velocity=0, time=22)
Message('note_on', channel=11, note=81, velocity=100, time=2)
Message('note_off', channel=11, note=81, velocity=0, time=22)
Message('note_on', channel=11, note=78, velocity=100, time=2)
Message('note_off', channel=11, note=78, velocity=0, time=22)
Message('note_on', channel=11, note=74, velocity=100, time=2)
Message('note_off', channel=11, note=74, velocity=0, time=22)
Message('note_on', channel=11, note=86, velocity=100, time=2)
Message('note_off', channel=11, note=86, velocity=0, time=22)
Message('note_on', channel=11, note=81, velocity=100, time=2)
Message('note_off', channel=11, note=81, velocity=0, time=22)
Message('note_on', channel=11, note=80, velocity=100, time=2)
Message('note_off', channel=11, note=80, velocity=0, time=22)
Message('note_on', channel=11, note=76, velocity=100, time=2)
Message('note_off', channel=11, note=76, velocity=0, time=22)
Message('note_on', channel=11, note=71, velocity=100, time=2)
Message('note_off', channel=11, note=71, velocity=0, time=22)
Message('note_on', channel=11, note=80, velocity=100, time=2)
Message('note_off', channel=11, note=80, velocity=0, time=22)
Message('note_on', channel=11, note=76, velocity=100, time=2)
Message('note_off', channel=11, note=76, velocity=0, time=22)
Message('note_on', channel=11, note=71, velocity=100, time=2)
Message('note_off', channel=11, note=71, velocity=0, time=22)
Message('note_on', channel=11, note=83, velocity=100, time=2)
Message('note_off', channel=11, note=83, velocity=0, time=22)
Message('note_on', channel=11, note=80, velocity=100, time=2)
Message('note_off', channel=11, note=80, velocity=0, time=22)
Message('note_on', channel=11, note=81, velocity=100, time=2)
Message('note_off', channel=11, note=81, velocity=0, time=22)
Message('note_on', channel=11, note=85, velocity=100, time=2)
Message('note_off', channel=11, note=85, velocity=0, time=22)
Message('note_on', channel=11, note=90, velocity=100, time=2)
Message('note_off', channel=11, note=90, velocity=0, time=22)
Message('note_on', channel=11, note=83, velocity=100, time=2)
Message('note_off', channel=11, note=83, velocity=0, time=22)
Message('note_on', channel=11, note=88, velocity=100, time=2)
Message('note_off', channel=11, note=88, velocity=0, time=22)
Message('note_on', channel=11, note=92, velocity=100, time=2)
Message('note_off', channel=11, note=92, velocity=0, time=22)
Message('note_on', channel=11, note=85, velocity=100, time=2)
Message('note_off', channel=11, note=85, velocity=0, time=22)
Message('note_on', channel=11, note=90, velocity=100, time=2)
Message('note_off', channel=11, note=90, velocity=0, time=22)
Message('note_on', channel=11, note=93, velocity=100, time=2)
Message('note_off', channel=11, note=93, velocity=0, time=22)
Message('note_on', channel=11, note=92, velocity=100, time=2)
Message('note_off', channel=11, note=92, velocity=0, time=22)
Message('note_on', channel=11, note=88, velocity=100, time=2)
Message('note_off', channel=11, note=88, velocity=0, time=22)
Message('note_on', channel=11, note=83, velocity=100, time=2)
Message('note_off', channel=11, note=83, velocity=0, time=22)
Message('note_on', channel=11, note=90, velocity=100, time=2)
Message('note_off', channel=11, note=90, velocity=0, time=22)
Message('note_on', channel=11, note=85, velocity=100, time=2)
Message('note_off', channel=11, note=85, velocity=0, time=22)
Message('note_on', channel=11, note=81, velocity=100, time=2)
Message('note_off', channel=11, note=81, velocity=0, time=22)
Message('note_on', channel=11, note=80, velocity=100, time=2)
Message('note_off', channel=11, note=80, velocity=0, time=22)
Message('note_on', channel=11, note=78, velocity=100, time=2)
Message('note_off', channel=11, note=78, velocity=0, time=22)
Message('note_on', channel=11, note=74, velocity=100, time=2)
Message('note_off', channel=11, note=74, velocity=0, time=22)
Message('note_on', channel=11, note=69, velocity=100, time=2)
Message('note_off', channel=11, note=69, velocity=0, time=22)
Message('note_on', channel=11, note=74, velocity=100, time=2)
Message('note_off', channel=11, note=74, velocity=0, time=22)
Message('note_on', channel=11, note=81, velocity=100, time=2)
Message('note_off', channel=11, note=81, velocity=0, time=22)
Message('note_on', channel=11, note=78, velocity=100, time=2)
Message('note_off', channel=11, note=78, velocity=0, time=22)
Message('note_on', channel=11, note=74, velocity=100, time=2)
Message('note_off', channel=11, note=74, velocity=0, time=22)
Message('note_on', channel=11, note=69, velocity=100, time=2)
Message('note_off', channel=11, note=69, velocity=0, time=22)
Message('note_on', channel=11, note=71, velocity=100, time=2)
Message('note_off', channel=11, note=71, velocity=0, time=22)
Message('note_on', channel=11, note=76, velocity=100, time=2)
Message('note_off', channel=11, note=76, velocity=0, time=22)
Message('note_on', channel=11, note=80, velocity=100, time=2)
Message('note_off', channel=11, note=80, velocity=0, time=22)
Message('note_on', channel=11, note=83, velocity=100, time=2)
Message('note_off', channel=11, note=83, velocity=0, time=22)
Message('note_on', channel=11, note=80, velocity=100, time=2)
Message('note_off', channel=11, note=80, velocity=0, time=22)
Message('note_on', channel=11, note=83, velocity=100, time=2)
Message('note_off', channel=11, note=83, velocity=0, time=22)
Message('note_on', channel=11, note=88, velocity=100, time=2)
Message('note_off', channel=11, note=88, velocity=0, time=22)
Message('note_on', channel=11, note=83, velocity=100, time=2)
Message('note_off', channel=11, note=83, velocity=0, time=22)
Message('note_on', channel=11, note=85, velocity=100, time=2)
Message('note_off', channel=11, note=85, velocity=0, time=22)
Message('note_on', channel=11, note=81, velocity=100, time=2)
Message('note_off', channel=11, note=81, velocity=0, time=22)
Message('note_on', channel=11, note=78, velocity=100, time=2)
Message('note_off', channel=11, note=78, velocity=0, time=22)
Message('note_on', channel=11, note=83, velocity=100, time=2)
Message('note_off', channel=11, note=83, velocity=0, time=22)
Message('note_on', channel=11, note=80, velocity=100, time=2)
Message('note_off', channel=11, note=80, velocity=0, time=22)
Message('note_on', channel=11, note=76, velocity=100, time=2)
Message('note_off', channel=11, note=76, velocity=0, time=22)
Message('note_on', channel=11, note=81, velocity=100, time=2)
Message('note_off', channel=11, note=81, velocity=0, time=22)
Message('note_on', channel=11, note=78, velocity=100, time=2)
Message('note_off', channel=11, note=78, velocity=0, time=22)
Message('note_on', channel=11, note=73, velocity=100, time=2)
Message('note_off', channel=11, note=73, velocity=0, time=22)
Message('note_on', channel=11, note=80, velocity=100, time=2)
Message('note_off', channel=11, note=80, velocity=0, time=22)
Message('note_on', channel=11, note=76, velocity=100, time=2)
Message('note_off', channel=11, note=76, velocity=0, time=22)
Message('note_on', channel=11, note=71, velocity=100, time=2)
Message('note_off', channel=11, note=71, velocity=0, time=22)
Message('note_on', channel=11, note=78, velocity=100, time=2)
Message('note_off', channel=11, note=78, velocity=0, time=22)
Message('note_on', channel=11, note=69, velocity=100, time=2)
Message('note_off', channel=11, note=69, velocity=0, time=22)
Message('note_on', channel=11, note=81, velocity=100, time=2)
Message('note_off', channel=11, note=81, velocity=0, time=22)
Message('note_on', channel=11, note=76, velocity=100, time=2)
Message('note_off', channel=11, note=76, velocity=0, time=22)
Message('note_on', channel=11, note=81, velocity=100, time=2)
Message('note_off', channel=11, note=81, velocity=0, time=22)
Message('note_on', channel=11, note=78, velocity=100, time=2)
Message('note_off', channel=11, note=78, velocity=0, time=22)
Message('note_on', channel=11, note=74, velocity=100, time=2)
Message('note_off', channel=11, note=74, velocity=0, time=22)
Message('note_on', channel=11, note=81, velocity=100, time=2)
Message('note_off', channel=11, note=81, velocity=0, time=22)
Message('note_on', channel=11, note=78, velocity=100, time=2)
Message('note_off', channel=11, note=78, velocity=0, time=22)
Message('note_on', channel=11, note=74, velocity=100, time=2)
Message('note_off', channel=11, note=74, velocity=0, time=22)
Message('note_on', channel=11, note=86, velocity=100, time=2)
Message('note_off', channel=11, note=86, velocity=0, time=22)
Message('note_on', channel=11, note=81, velocity=100, time=2)
Message('note_off', channel=11, note=81, velocity=0, time=22)
Message('note_on', channel=11, note=80, velocity=100, time=2)
Message('note_off', channel=11, note=80, velocity=0, time=22)
Message('note_on', channel=11, note=76, velocity=100, time=2)
Message('note_off', channel=11, note=76, velocity=0, time=22)
Message('note_on', channel=11, note=71, velocity=100, time=2)
Message('note_off', channel=11, note=71, velocity=0, time=22)
Message('note_on', channel=11, note=80, velocity=100, time=2)
Message('note_off', channel=11, note=80, velocity=0, time=22)
Message('note_on', channel=11, note=76, velocity=100, time=2)
Message('note_off', channel=11, note=76, velocity=0, time=22)
Message('note_on', channel=11, note=71, velocity=100, time=2)
Message('note_off', channel=11, note=71, velocity=0, time=22)
Message('note_on', channel=11, note=83, velocity=100, time=2)
Message('note_off', channel=11, note=83, velocity=0, time=22)
Message('note_on', channel=11, note=80, velocity=100, time=2)
Message('note_off', channel=11, note=80, velocity=0, time=22)
Message('note_on', channel=11, note=81, velocity=100, time=2)
Message('note_off', channel=11, note=81, velocity=0, time=22)
Message('note_on', channel=11, note=85, velocity=100, time=2)
Message('note_off', channel=11, note=85, velocity=0, time=22)
Message('note_on', channel=11, note=90, velocity=100, time=2)
Message('note_off', channel=11, note=90, velocity=0, time=22)
Message('note_on', channel=11, note=83, velocity=100, time=2)
Message('note_off', channel=11, note=83, velocity=0, time=22)
Message('note_on', channel=11, note=88, velocity=100, time=2)
Message('note_off', channel=11, note=88, velocity=0, time=22)
Message('note_on', channel=11, note=92, velocity=100, time=2)
Message('note_off', channel=11, note=92, velocity=0, time=22)
Message('note_on', channel=11, note=85, velocity=100, time=2)
Message('note_off', channel=11, note=85, velocity=0, time=22)
Message('note_on', channel=11, note=90, velocity=100, time=2)
Message('note_off', channel=11, note=90, velocity=0, time=22)
Message('note_on', channel=11, note=93, velocity=100, time=2)
Message('note_off', channel=11, note=93, velocity=0, time=22)
Message('note_on', channel=11, note=92, velocity=100, time=2)
Message('note_off', channel=11, note=92, velocity=0, time=22)
Message('note_on', channel=11, note=88, velocity=100, time=2)
Message('note_off', channel=11, note=88, velocity=0, time=22)
Message('note_on', channel=11, note=83, velocity=100, time=2)
Message('note_off', channel=11, note=83, velocity=0, time=22)
Message('note_on', channel=11, note=90, velocity=100, time=2)
Message('note_off', channel=11, note=90, velocity=0, time=22)
Message('note_on', channel=11, note=85, velocity=100, time=2)
Message('note_off', channel=11, note=85, velocity=0, time=22)
Message('note_on', channel=11, note=81, velocity=100, time=2)
Message('note_off', channel=11, note=81, velocity=0, time=22)
Message('note_on', channel=11, note=80, velocity=100, time=2)
Message('note_off', channel=11, note=80, velocity=0, time=22)
Message('note_on', channel=11, note=78, velocity=100, time=2)
Message('note_off', channel=11, note=78, velocity=0, time=22)
Message('note_on', channel=11, note=74, velocity=100, time=2)
Message('note_off', channel=11, note=74, velocity=0, time=22)
Message('note_on', channel=11, note=69, velocity=100, time=2)
Message('note_off', channel=11, note=69, velocity=0, time=22)
Message('note_on', channel=11, note=74, velocity=100, time=2)
Message('note_off', channel=11, note=74, velocity=0, time=22)
Message('note_on', channel=11, note=81, velocity=100, time=2)
Message('note_off', channel=11, note=81, velocity=0, time=22)
Message('note_on', channel=11, note=78, velocity=100, time=2)
Message('note_off', channel=11, note=78, velocity=0, time=22)
Message('note_on', channel=11, note=74, velocity=100, time=2)
Message('note_off', channel=11, note=74, velocity=0, time=22)
Message('note_on', channel=11, note=69, velocity=100, time=2)
Message('note_off', channel=11, note=69, velocity=0, time=22)
Message('note_on', channel=11, note=71, velocity=100, time=2)
Message('note_off', channel=11, note=71, velocity=0, time=22)
Message('note_on', channel=11, note=76, velocity=100, time=2)
Message('note_off', channel=11, note=76, velocity=0, time=22)
Message('note_on', channel=11, note=80, velocity=100, time=2)
Message('note_off', channel=11, note=80, velocity=0, time=22)
Message('note_on', channel=11, note=83, velocity=100, time=2)
Message('note_off', channel=11, note=83, velocity=0, time=22)
Message('note_on', channel=11, note=80, velocity=100, time=2)
Message('note_off', channel=11, note=80, velocity=0, time=22)
Message('note_on', channel=11, note=83, velocity=100, time=2)
Message('note_off', channel=11, note=83, velocity=0, time=22)
Message('note_on', channel=11, note=88, velocity=100, time=2)
Message('note_off', channel=11, note=88, velocity=0, time=22)
Message('note_on', channel=11, note=83, velocity=100, time=2)
Message('note_off', channel=11, note=83, velocity=0, time=22)
Message('note_on', channel=11, note=85, velocity=100, time=2)
Message('note_off', channel=11, note=85, velocity=0, time=22)
Message('note_on', channel=11, note=81, velocity=100, time=2)
Message('note_off', channel=11, note=81, velocity=0, time=22)
Message('note_on', channel=11, note=78, velocity=100, time=2)
Message('note_off', channel=11, note=78, velocity=0, time=22)
Message('note_on', channel=11, note=83, velocity=100, time=2)
Message('note_off', channel=11, note=83, velocity=0, time=22)
Message('note_on', channel=11, note=80, velocity=100, time=2)
Message('note_off', channel=11, note=80, velocity=0, time=22)
Message('note_on', channel=11, note=76, velocity=100, time=2)
Message('note_off', channel=11, note=76, velocity=0, time=22)
Message('note_on', channel=11, note=81, velocity=100, time=2)
Message('note_off', channel=11, note=81, velocity=0, time=22)
Message('note_on', channel=11, note=78, velocity=100, time=2)
Message('note_off', channel=11, note=78, velocity=0, time=22)
Message('note_on', channel=11, note=73, velocity=100, time=2)
Message('note_off', channel=11, note=73, velocity=0, time=22)
Message('note_on', channel=11, note=80, velocity=100, time=2)
Message('note_off', channel=11, note=80, velocity=0, time=22)
Message('note_on', channel=11, note=76, velocity=100, time=2)
Message('note_off', channel=11, note=76, velocity=0, time=22)
Message('note_on', channel=11, note=71, velocity=100, time=2)
Message('note_off', channel=11, note=71, velocity=0, time=22)
Message('note_on', channel=11, note=78, velocity=100, time=2)
Message('note_off', channel=11, note=78, velocity=0, time=22)
Message('note_on', channel=11, note=69, velocity=100, time=2)
Message('note_off', channel=11, note=69, velocity=0, time=22)
Message('note_on', channel=11, note=81, velocity=100, time=2)
Message('note_off', channel=11, note=81, velocity=0, time=22)
Message('note_on', channel=11, note=76, velocity=100, time=2)
Message('note_off', channel=11, note=76, velocity=0, time=22)
Message('note_on', channel=11, note=81, velocity=100, time=2)
Message('note_off', channel=11, note=81, velocity=0, time=22)
Message('note_on', channel=11, note=78, velocity=100, time=2)
Message('note_off', channel=11, note=78, velocity=0, time=22)
Message('note_on', channel=11, note=74, velocity=100, time=2)
Message('note_off', channel=11, note=74, velocity=0, time=22)
Message('note_on', channel=11, note=81, velocity=100, time=2)
Message('note_off', channel=11, note=81, velocity=0, time=22)
Message('note_on', channel=11, note=78, velocity=100, time=2)
Message('note_off', channel=11, note=78, velocity=0, time=22)
Message('note_on', channel=11, note=74, velocity=100, time=2)
Message('note_off', channel=11, note=74, velocity=0, time=22)
Message('note_on', channel=11, note=86, velocity=100, time=2)
Message('note_off', channel=11, note=86, velocity=0, time=22)
Message('note_on', channel=11, note=81, velocity=100, time=2)
Message('note_off', channel=11, note=81, velocity=0, time=22)
Message('note_on', channel=11, note=80, velocity=100, time=2)
Message('note_off', channel=11, note=80, velocity=0, time=22)
Message('note_on', channel=11, note=76, velocity=100, time=2)
Message('note_off', channel=11, note=76, velocity=0, time=22)
Message('note_on', channel=11, note=71, velocity=100, time=2)
Message('note_off', channel=11, note=71, velocity=0, time=22)
Message('note_on', channel=11, note=80, velocity=100, time=2)
Message('note_off', channel=11, note=80, velocity=0, time=22)
Message('note_on', channel=11, note=76, velocity=100, time=2)
Message('note_off', channel=11, note=76, velocity=0, time=22)
Message('note_on', channel=11, note=71, velocity=100, time=2)
Message('note_off', channel=11, note=71, velocity=0, time=22)
Message('note_on', channel=11, note=83, velocity=100, time=2)
Message('note_off', channel=11, note=83, velocity=0, time=22)
Message('note_on', channel=11, note=80, velocity=100, time=2)
Message('note_off', channel=11, note=80, velocity=0, time=22)
Message('note_on', channel=11, note=81, velocity=100, time=2)
Message('note_off', channel=11, note=81, velocity=0, time=22)
Message('note_on', channel=11, note=85, velocity=100, time=2)
Message('note_off', channel=11, note=85, velocity=0, time=22)
Message('note_on', channel=11, note=90, velocity=100, time=2)
Message('note_off', channel=11, note=90, velocity=0, time=22)
Message('note_on', channel=11, note=83, velocity=100, time=2)
Message('note_off', channel=11, note=83, velocity=0, time=22)
Message('note_on', channel=11, note=88, velocity=100, time=2)
Message('note_off', channel=11, note=88, velocity=0, time=22)
Message('note_on', channel=11, note=92, velocity=100, time=2)
Message('note_off', channel=11, note=92, velocity=0, time=22)
Message('note_on', channel=11, note=85, velocity=100, time=2)
Message('note_off', channel=11, note=85, velocity=0, time=22)
Message('note_on', channel=11, note=90, velocity=100, time=2)
Message('note_off', channel=11, note=90, velocity=0, time=22)
Message('note_on', channel=11, note=90, velocity=120, time=2)
Message('note_on', channel=11, note=81, velocity=120, time=0)
Message('note_off', channel=11, note=90, velocity=0, time=92)
Message('note_off', channel=11, note=81, velocity=0, time=0)
Message('note_on', channel=11, note=83, velocity=120, time=4)
Message('note_on', channel=11, note=92, velocity=120, time=0)
Message('control_change', channel=11, control=10, value=70, time=88)
Message('note_off', channel=11, note=83, velocity=0, time=4)
Message('note_off', channel=11, note=92, velocity=0, time=0)
Message('control_change', channel=11, control=101, value=0, time=388)
Message('control_change', channel=11, control=100, value=0, time=0)
Message('control_change', channel=11, control=6, value=12, time=0)
Message('control_change', channel=11, control=10, value=70, time=0)
Message('control_change', channel=11, control=7, value=80, time=0)
Message('pitchwheel', channel=11, pitch=0, time=0)
Message('program_change', channel=11, program=1, time=0)
Message('control_change', channel=11, control=91, value=50, time=0)
Message('control_change', channel=11, control=93, value=0, time=0)
Message('control_change', channel=11, control=101, value=0, time=1)
Message('control_change', channel=11, control=100, value=0, time=0)
Message('control_change', channel=11, control=6, value=12, time=0)
Message('control_change', channel=11, control=10, value=70, time=0)
Message('control_change', channel=11, control=7, value=80, time=0)
Message('pitchwheel', channel=11, pitch=0, time=0)
Message('program_change', channel=11, program=1, time=0)
Message('control_change', channel=11, control=91, value=50, time=0)
Message('control_change', channel=11, control=93, value=0, time=0)
Message('control_change', channel=11, control=101, value=0, time=0)
Message('control_change', channel=11, control=100, value=0, time=0)
Message('control_change', channel=11, control=6, value=12, time=0)
Message('control_change', channel=11, control=10, value=70, time=0)
Message('control_change', channel=11, control=7, value=80, time=0)
Message('pitchwheel', channel=11, pitch=0, time=0)
Message('program_change', channel=11, program=1, time=0)
Message('control_change', channel=11, control=91, value=50, time=0)
Message('control_change', channel=11, control=93, value=0, time=0)
MetaMessage('end_of_track', time=0)
=== Track 13
MetaMessage('track_name', name='Channel #13', time=0)
Message('control_change', channel=12, control=10, value=60, time=0)
Message('control_change', channel=12, control=7, value=80, time=0)
Message('pitchwheel', channel=12, pitch=0, time=0)
Message('control_change', channel=12, control=101, value=0, time=0)
Message('control_change', channel=12, control=100, value=0, time=0)
Message('control_change', channel=12, control=6, value=12, time=0)
Message('control_change', channel=12, control=10, value=60, time=0)
Message('control_change', channel=12, control=7, value=80, time=0)
Message('pitchwheel', channel=12, pitch=0, time=0)
Message('program_change', channel=12, program=4, time=0)
Message('control_change', channel=12, control=91, value=20, time=0)
Message('control_change', channel=12, control=93, value=0, time=0)
Message('control_change', channel=12, control=101, value=0, time=0)
Message('control_change', channel=12, control=100, value=0, time=0)
Message('control_change', channel=12, control=6, value=12, time=0)
Message('control_change', channel=12, control=10, value=60, time=0)
Message('control_change', channel=12, control=7, value=80, time=0)
Message('pitchwheel', channel=12, pitch=0, time=0)
Message('program_change', channel=12, program=4, time=0)
Message('control_change', channel=12, control=91, value=20, time=0)
Message('control_change', channel=12, control=93, value=0, time=0)
Message('control_change', channel=12, control=10, value=60, time=0)
Message('control_change', channel=12, control=7, value=80, time=0)
Message('pitchwheel', channel=12, pitch=0, time=0)
Message('program_change', channel=12, program=4, time=0)
Message('control_change', channel=12, control=91, value=20, time=0)
Message('control_change', channel=12, control=93, value=0, time=0)
Message('control_change', channel=12, control=101, value=0, time=0)
Message('control_change', channel=12, control=100, value=0, time=0)
Message('control_change', channel=12, control=6, value=12, time=0)
Message('control_change', channel=12, control=10, value=60, time=0)
Message('control_change', channel=12, control=7, value=80, time=0)
Message('pitchwheel', channel=12, pitch=0, time=0)
Message('program_change', channel=12, program=4, time=0)
Message('control_change', channel=12, control=91, value=20, time=0)
Message('control_change', channel=12, control=93, value=0, time=0)
Message('control_change', channel=12, control=10, value=60, time=0)
Message('control_change', channel=12, control=7, value=80, time=0)
Message('pitchwheel', channel=12, pitch=0, time=0)
Message('program_change', channel=12, program=4, time=0)
Message('control_change', channel=12, control=91, value=20, time=0)
Message('control_change', channel=12, control=93, value=0, time=0)
Message('note_on', channel=12, note=38, velocity=60, time=384)
Message('control_change', channel=12, control=10, value=50, time=30)
Message('note_off', channel=12, note=38, velocity=0, time=38)
Message('note_on', channel=12, note=45, velocity=60, time=4)
Message('note_off', channel=12, note=45, velocity=0, time=116)
Message('note_on', channel=12, note=44, velocity=60, time=4)
Message('note_off', channel=12, note=44, velocity=0, time=68)
Message('note_on', channel=12, note=47, velocity=60, time=4)
Message('note_off', channel=12, note=47, velocity=0, time=68)
Message('note_on', channel=12, note=52, velocity=60, time=4)
Message('note_off', channel=12, note=52, velocity=0, time=44)
Message('note_on', channel=12, note=54, velocity=60, time=4)
Message('note_off', channel=12, note=54, velocity=0, time=30)
Message('note_on', channel=12, note=59, velocity=60, time=6)
Message('note_off', channel=12, note=59, velocity=0, time=30)
Message('note_on', channel=12, note=45, velocity=60, time=6)
Message('note_off', channel=12, note=45, velocity=0, time=22)
Message('note_on', channel=12, note=52, velocity=60, time=2)
Message('note_off', channel=12, note=52, velocity=0, time=30)
Message('note_on', channel=12, note=47, velocity=60, time=6)
Message('note_off', channel=12, note=47, velocity=0, time=30)
Message('note_on', channel=12, note=44, velocity=60, time=6)
Message('note_off', channel=12, note=44, velocity=0, time=22)
Message('note_on', channel=12, note=45, velocity=60, time=2)
Message('note_off', channel=12, note=45, velocity=0, time=182)
Message('note_on', channel=12, note=42, velocity=60, time=10)
Message('note_off', channel=12, note=42, velocity=0, time=68)
Message('note_on', channel=12, note=50, velocity=60, time=4)
Message('note_off', channel=12, note=50, velocity=0, time=70)
Message('note_on', channel=12, note=45, velocity=60, time=2)
Message('note_off', channel=12, note=45, velocity=0, time=44)
Message('note_on', channel=12, note=53, velocity=60, time=4)
Message('note_off', channel=12, note=53, velocity=0, time=68)
Message('note_on', channel=12, note=47, velocity=60, time=4)
Message('note_off', channel=12, note=47, velocity=0, time=68)
Message('note_on', channel=12, note=56, velocity=60, time=4)
Message('note_off', channel=12, note=56, velocity=0, time=44)
Message('note_on', channel=12, note=45, velocity=60, time=4)
Message('note_off', channel=12, note=45, velocity=0, time=182)
Message('note_on', channel=12, note=49, velocity=60, time=10)
Message('note_off', channel=12, note=49, velocity=0, time=30)
Message('note_on', channel=12, note=57, velocity=60, time=6)
Message('note_off', channel=12, note=57, velocity=0, time=30)
Message('note_on', channel=12, note=56, velocity=60, time=6)
Message('note_off', channel=12, note=56, velocity=0, time=22)
Message('note_on', channel=12, note=47, velocity=60, time=2)
Message('note_off', channel=12, note=47, velocity=0, time=30)
Message('note_on', channel=12, note=56, velocity=60, time=6)
Message('note_off', channel=12, note=56, velocity=0, time=30)
Message('note_on', channel=12, note=54, velocity=60, time=6)
Message('note_off', channel=12, note=54, velocity=0, time=22)
Message('note_on', channel=12, note=54, velocity=60, time=2)
Message('note_off', channel=12, note=54, velocity=0, time=22)
Message('note_on', channel=12, note=50, velocity=60, time=2)
Message('note_off', channel=12, note=50, velocity=0, time=22)
Message('note_on', channel=12, note=45, velocity=60, time=2)
Message('note_off', channel=12, note=45, velocity=0, time=22)
Message('note_on', channel=12, note=50, velocity=60, time=2)
Message('note_off', channel=12, note=50, velocity=0, time=22)
Message('note_on', channel=12, note=57, velocity=60, time=2)
Message('note_off', channel=12, note=57, velocity=0, time=22)
Message('note_on', channel=12, note=54, velocity=60, time=2)
Message('note_off', channel=12, note=54, velocity=0, time=22)
Message('note_on', channel=12, note=50, velocity=60, time=2)
Message('note_off', channel=12, note=50, velocity=0, time=22)
Message('note_on', channel=12, note=45, velocity=60, time=2)
Message('note_off', channel=12, note=45, velocity=0, time=22)
Message('note_on', channel=12, note=47, velocity=60, time=2)
Message('note_off', channel=12, note=47, velocity=0, time=22)
Message('note_on', channel=12, note=52, velocity=60, time=2)
Message('note_off', channel=12, note=52, velocity=0, time=22)
Message('note_on', channel=12, note=56, velocity=60, time=2)
Message('note_off', channel=12, note=56, velocity=0, time=22)
Message('note_on', channel=12, note=59, velocity=60, time=2)
Message('note_off', channel=12, note=59, velocity=0, time=22)
Message('note_on', channel=12, note=56, velocity=60, time=2)
Message('note_off', channel=12, note=56, velocity=0, time=22)
Message('note_on', channel=12, note=59, velocity=60, time=2)
Message('note_off', channel=12, note=59, velocity=0, time=22)
Message('note_on', channel=12, note=64, velocity=60, time=2)
Message('note_off', channel=12, note=64, velocity=0, time=22)
Message('note_on', channel=12, note=59, velocity=60, time=2)
Message('note_off', channel=12, note=59, velocity=0, time=22)
Message('note_on', channel=12, note=61, velocity=60, time=2)
Message('note_off', channel=12, note=61, velocity=0, time=22)
Message('note_on', channel=12, note=57, velocity=60, time=2)
Message('note_off', channel=12, note=57, velocity=0, time=22)
Message('note_on', channel=12, note=54, velocity=60, time=2)
Message('note_off', channel=12, note=54, velocity=0, time=22)
Message('note_on', channel=12, note=59, velocity=60, time=2)
Message('note_off', channel=12, note=59, velocity=0, time=22)
Message('note_on', channel=12, note=56, velocity=60, time=2)
Message('note_off', channel=12, note=56, velocity=0, time=22)
Message('note_on', channel=12, note=52, velocity=60, time=2)
Message('note_off', channel=12, note=52, velocity=0, time=22)
Message('note_on', channel=12, note=57, velocity=60, time=2)
Message('note_off', channel=12, note=57, velocity=0, time=22)
Message('note_on', channel=12, note=54, velocity=60, time=2)
Message('note_off', channel=12, note=54, velocity=0, time=22)
Message('note_on', channel=12, note=49, velocity=60, time=2)
Message('note_off', channel=12, note=49, velocity=0, time=22)
Message('note_on', channel=12, note=56, velocity=60, time=2)
Message('note_off', channel=12, note=56, velocity=0, time=22)
Message('note_on', channel=12, note=52, velocity=60, time=2)
Message('note_off', channel=12, note=52, velocity=0, time=22)
Message('note_on', channel=12, note=47, velocity=60, time=2)
Message('note_off', channel=12, note=47, velocity=0, time=22)
Message('note_on', channel=12, note=54, velocity=60, time=2)
Message('note_off', channel=12, note=54, velocity=0, time=22)
Message('note_on', channel=12, note=45, velocity=60, time=2)
Message('note_off', channel=12, note=45, velocity=0, time=22)
Message('note_on', channel=12, note=57, velocity=60, time=2)
Message('note_off', channel=12, note=57, velocity=0, time=22)
Message('note_on', channel=12, note=52, velocity=60, time=2)
Message('note_off', channel=12, note=52, velocity=0, time=22)
Message('note_on', channel=12, note=57, velocity=60, time=2)
Message('note_off', channel=12, note=57, velocity=0, time=22)
Message('note_on', channel=12, note=54, velocity=60, time=2)
Message('note_off', channel=12, note=54, velocity=0, time=22)
Message('note_on', channel=12, note=50, velocity=60, time=2)
Message('note_off', channel=12, note=50, velocity=0, time=22)
Message('note_on', channel=12, note=57, velocity=60, time=2)
Message('note_off', channel=12, note=57, velocity=0, time=22)
Message('note_on', channel=12, note=54, velocity=60, time=2)
Message('note_off', channel=12, note=54, velocity=0, time=22)
Message('note_on', channel=12, note=50, velocity=60, time=2)
Message('note_off', channel=12, note=50, velocity=0, time=22)
Message('note_on', channel=12, note=62, velocity=60, time=2)
Message('note_off', channel=12, note=62, velocity=0, time=22)
Message('note_on', channel=12, note=57, velocity=60, time=2)
Message('note_off', channel=12, note=57, velocity=0, time=22)
Message('note_on', channel=12, note=56, velocity=60, time=2)
Message('note_off', channel=12, note=56, velocity=0, time=22)
Message('note_on', channel=12, note=52, velocity=60, time=2)
Message('note_off', channel=12, note=52, velocity=0, time=22)
Message('note_on', channel=12, note=47, velocity=60, time=2)
Message('note_off', channel=12, note=47, velocity=0, time=22)
Message('note_on', channel=12, note=56, velocity=60, time=2)
Message('note_off', channel=12, note=56, velocity=0, time=22)
Message('note_on', channel=12, note=52, velocity=60, time=2)
Message('note_off', channel=12, note=52, velocity=0, time=22)
Message('note_on', channel=12, note=47, velocity=60, time=2)
Message('note_off', channel=12, note=47, velocity=0, time=22)
Message('note_on', channel=12, note=59, velocity=60, time=2)
Message('note_off', channel=12, note=59, velocity=0, time=22)
Message('note_on', channel=12, note=56, velocity=60, time=2)
Message('note_off', channel=12, note=56, velocity=0, time=22)
Message('note_on', channel=12, note=57, velocity=60, time=2)
Message('note_off', channel=12, note=57, velocity=0, time=22)
Message('note_on', channel=12, note=61, velocity=60, time=2)
Message('note_off', channel=12, note=61, velocity=0, time=22)
Message('note_on', channel=12, note=66, velocity=60, time=2)
Message('note_off', channel=12, note=66, velocity=0, time=22)
Message('note_on', channel=12, note=59, velocity=60, time=2)
Message('note_off', channel=12, note=59, velocity=0, time=22)
Message('note_on', channel=12, note=64, velocity=60, time=2)
Message('note_off', channel=12, note=64, velocity=0, time=22)
Message('note_on', channel=12, note=68, velocity=60, time=2)
Message('note_off', channel=12, note=68, velocity=0, time=22)
Message('note_on', channel=12, note=61, velocity=60, time=2)
Message('note_off', channel=12, note=61, velocity=0, time=22)
Message('note_on', channel=12, note=66, velocity=60, time=2)
Message('note_off', channel=12, note=66, velocity=0, time=22)
Message('note_on', channel=12, note=69, velocity=60, time=2)
Message('note_off', channel=12, note=69, velocity=0, time=22)
Message('note_on', channel=12, note=68, velocity=60, time=2)
Message('note_off', channel=12, note=68, velocity=0, time=22)
Message('note_on', channel=12, note=64, velocity=60, time=2)
Message('note_off', channel=12, note=64, velocity=0, time=22)
Message('note_on', channel=12, note=59, velocity=60, time=2)
Message('note_off', channel=12, note=59, velocity=0, time=22)
Message('note_on', channel=12, note=66, velocity=60, time=2)
Message('note_off', channel=12, note=66, velocity=0, time=22)
Message('note_on', channel=12, note=61, velocity=60, time=2)
Message('note_off', channel=12, note=61, velocity=0, time=22)
Message('note_on', channel=12, note=57, velocity=60, time=2)
Message('note_off', channel=12, note=57, velocity=0, time=22)
Message('note_on', channel=12, note=56, velocity=60, time=2)
Message('note_off', channel=12, note=56, velocity=0, time=22)
Message('note_on', channel=12, note=54, velocity=100, time=2)
Message('note_off', channel=12, note=54, velocity=0, time=22)
Message('note_on', channel=12, note=50, velocity=100, time=2)
Message('note_off', channel=12, note=50, velocity=0, time=22)
Message('note_on', channel=12, note=45, velocity=100, time=2)
Message('note_off', channel=12, note=45, velocity=0, time=22)
Message('note_on', channel=12, note=50, velocity=100, time=2)
Message('note_off', channel=12, note=50, velocity=0, time=22)
Message('note_on', channel=12, note=57, velocity=100, time=2)
Message('note_off', channel=12, note=57, velocity=0, time=22)
Message('note_on', channel=12, note=54, velocity=100, time=2)
Message('note_off', channel=12, note=54, velocity=0, time=22)
Message('note_on', channel=12, note=50, velocity=100, time=2)
Message('note_off', channel=12, note=50, velocity=0, time=22)
Message('note_on', channel=12, note=45, velocity=100, time=2)
Message('control_change', channel=12, control=10, value=60, time=16)
Message('note_off', channel=12, note=45, velocity=0, time=6)
Message('note_on', channel=12, note=47, velocity=100, time=2)
Message('note_off', channel=12, note=47, velocity=0, time=22)
Message('note_on', channel=12, note=52, velocity=100, time=2)
Message('note_off', channel=12, note=52, velocity=0, time=22)
Message('note_on', channel=12, note=56, velocity=100, time=2)
Message('note_off', channel=12, note=56, velocity=0, time=22)
Message('note_on', channel=12, note=59, velocity=100, time=2)
Message('note_off', channel=12, note=59, velocity=0, time=22)
Message('note_on', channel=12, note=56, velocity=100, time=2)
Message('note_off', channel=12, note=56, velocity=0, time=22)
Message('note_on', channel=12, note=59, velocity=100, time=2)
Message('note_off', channel=12, note=59, velocity=0, time=22)
Message('note_on', channel=12, note=64, velocity=100, time=2)
Message('note_off', channel=12, note=64, velocity=0, time=22)
Message('note_on', channel=12, note=59, velocity=100, time=2)
Message('note_off', channel=12, note=59, velocity=0, time=22)
Message('note_on', channel=12, note=61, velocity=100, time=2)
Message('note_off', channel=12, note=61, velocity=0, time=22)
Message('note_on', channel=12, note=57, velocity=100, time=2)
Message('note_off', channel=12, note=57, velocity=0, time=22)
Message('note_on', channel=12, note=54, velocity=100, time=2)
Message('note_off', channel=12, note=54, velocity=0, time=22)
Message('note_on', channel=12, note=59, velocity=100, time=2)
Message('note_off', channel=12, note=59, velocity=0, time=22)
Message('note_on', channel=12, note=56, velocity=100, time=2)
Message('note_off', channel=12, note=56, velocity=0, time=22)
Message('note_on', channel=12, note=52, velocity=100, time=2)
Message('note_off', channel=12, note=52, velocity=0, time=22)
Message('note_on', channel=12, note=57, velocity=100, time=2)
Message('note_off', channel=12, note=57, velocity=0, time=22)
Message('note_on', channel=12, note=54, velocity=100, time=2)
Message('note_off', channel=12, note=54, velocity=0, time=22)
Message('note_on', channel=12, note=49, velocity=100, time=2)
Message('note_off', channel=12, note=49, velocity=0, time=22)
Message('note_on', channel=12, note=56, velocity=100, time=2)
Message('note_off', channel=12, note=56, velocity=0, time=22)
Message('note_on', channel=12, note=52, velocity=100, time=2)
Message('note_off', channel=12, note=52, velocity=0, time=22)
Message('note_on', channel=12, note=47, velocity=100, time=2)
Message('note_off', channel=12, note=47, velocity=0, time=22)
Message('note_on', channel=12, note=54, velocity=100, time=2)
Message('note_off', channel=12, note=54, velocity=0, time=22)
Message('note_on', channel=12, note=45, velocity=100, time=2)
Message('note_off', channel=12, note=45, velocity=0, time=22)
Message('note_on', channel=12, note=57, velocity=100, time=2)
Message('note_off', channel=12, note=57, velocity=0, time=22)
Message('note_on', channel=12, note=52, velocity=100, time=2)
Message('note_off', channel=12, note=52, velocity=0, time=22)
Message('note_on', channel=12, note=57, velocity=100, time=2)
Message('note_off', channel=12, note=57, velocity=0, time=22)
Message('note_on', channel=12, note=54, velocity=100, time=2)
Message('note_off', channel=12, note=54, velocity=0, time=22)
Message('note_on', channel=12, note=50, velocity=100, time=2)
Message('note_off', channel=12, note=50, velocity=0, time=22)
Message('note_on', channel=12, note=57, velocity=100, time=2)
Message('note_off', channel=12, note=57, velocity=0, time=22)
Message('note_on', channel=12, note=54, velocity=100, time=2)
Message('note_off', channel=12, note=54, velocity=0, time=22)
Message('note_on', channel=12, note=50, velocity=100, time=2)
Message('note_off', channel=12, note=50, velocity=0, time=22)
Message('note_on', channel=12, note=62, velocity=100, time=2)
Message('note_off', channel=12, note=62, velocity=0, time=22)
Message('note_on', channel=12, note=57, velocity=100, time=2)
Message('note_off', channel=12, note=57, velocity=0, time=22)
Message('note_on', channel=12, note=56, velocity=100, time=2)
Message('note_off', channel=12, note=56, velocity=0, time=22)
Message('note_on', channel=12, note=52, velocity=100, time=2)
Message('note_off', channel=12, note=52, velocity=0, time=22)
Message('note_on', channel=12, note=47, velocity=100, time=2)
Message('note_off', channel=12, note=47, velocity=0, time=22)
Message('note_on', channel=12, note=56, velocity=100, time=2)
Message('note_off', channel=12, note=56, velocity=0, time=22)
Message('note_on', channel=12, note=52, velocity=100, time=2)
Message('note_off', channel=12, note=52, velocity=0, time=22)
Message('note_on', channel=12, note=47, velocity=100, time=2)
Message('note_off', channel=12, note=47, velocity=0, time=22)
Message('note_on', channel=12, note=59, velocity=100, time=2)
Message('note_off', channel=12, note=59, velocity=0, time=22)
Message('note_on', channel=12, note=56, velocity=100, time=2)
Message('note_off', channel=12, note=56, velocity=0, time=22)
Message('note_on', channel=12, note=57, velocity=100, time=2)
Message('note_off', channel=12, note=57, velocity=0, time=22)
Message('note_on', channel=12, note=61, velocity=100, time=2)
Message('note_off', channel=12, note=61, velocity=0, time=22)
Message('note_on', channel=12, note=66, velocity=100, time=2)
Message('note_off', channel=12, note=66, velocity=0, time=22)
Message('note_on', channel=12, note=59, velocity=100, time=2)
Message('note_off', channel=12, note=59, velocity=0, time=22)
Message('note_on', channel=12, note=64, velocity=100, time=2)
Message('note_off', channel=12, note=64, velocity=0, time=22)
Message('note_on', channel=12, note=68, velocity=100, time=2)
Message('note_off', channel=12, note=68, velocity=0, time=22)
Message('note_on', channel=12, note=61, velocity=100, time=2)
Message('note_off', channel=12, note=61, velocity=0, time=22)
Message('note_on', channel=12, note=66, velocity=100, time=2)
Message('note_off', channel=12, note=66, velocity=0, time=22)
Message('note_on', channel=12, note=69, velocity=100, time=2)
Message('note_off', channel=12, note=69, velocity=0, time=22)
Message('note_on', channel=12, note=68, velocity=100, time=2)
Message('note_off', channel=12, note=68, velocity=0, time=22)
Message('note_on', channel=12, note=64, velocity=100, time=2)
Message('note_off', channel=12, note=64, velocity=0, time=22)
Message('note_on', channel=12, note=59, velocity=100, time=2)
Message('note_off', channel=12, note=59, velocity=0, time=22)
Message('note_on', channel=12, note=66, velocity=100, time=2)
Message('note_off', channel=12, note=66, velocity=0, time=22)
Message('note_on', channel=12, note=61, velocity=100, time=2)
Message('note_off', channel=12, note=61, velocity=0, time=22)
Message('note_on', channel=12, note=57, velocity=100, time=2)
Message('note_off', channel=12, note=57, velocity=0, time=22)
Message('note_on', channel=12, note=56, velocity=100, time=2)
Message('note_off', channel=12, note=56, velocity=0, time=22)
Message('note_on', channel=12, note=54, velocity=100, time=2)
Message('note_off', channel=12, note=54, velocity=0, time=22)
Message('note_on', channel=12, note=50, velocity=100, time=2)
Message('note_off', channel=12, note=50, velocity=0, time=22)
Message('note_on', channel=12, note=45, velocity=100, time=2)
Message('note_off', channel=12, note=45, velocity=0, time=22)
Message('note_on', channel=12, note=50, velocity=100, time=2)
Message('note_off', channel=12, note=50, velocity=0, time=22)
Message('note_on', channel=12, note=57, velocity=100, time=2)
Message('note_off', channel=12, note=57, velocity=0, time=22)
Message('note_on', channel=12, note=54, velocity=100, time=2)
Message('note_off', channel=12, note=54, velocity=0, time=22)
Message('note_on', channel=12, note=50, velocity=100, time=2)
Message('note_off', channel=12, note=50, velocity=0, time=22)
Message('note_on', channel=12, note=45, velocity=100, time=2)
Message('note_off', channel=12, note=45, velocity=0, time=22)
Message('note_on', channel=12, note=47, velocity=100, time=2)
Message('note_off', channel=12, note=47, velocity=0, time=22)
Message('note_on', channel=12, note=52, velocity=100, time=2)
Message('note_off', channel=12, note=52, velocity=0, time=22)
Message('note_on', channel=12, note=56, velocity=100, time=2)
Message('note_off', channel=12, note=56, velocity=0, time=22)
Message('note_on', channel=12, note=59, velocity=100, time=2)
Message('note_off', channel=12, note=59, velocity=0, time=22)
Message('note_on', channel=12, note=56, velocity=100, time=2)
Message('note_off', channel=12, note=56, velocity=0, time=22)
Message('note_on', channel=12, note=59, velocity=100, time=2)
Message('note_off', channel=12, note=59, velocity=0, time=22)
Message('note_on', channel=12, note=64, velocity=100, time=2)
Message('note_off', channel=12, note=64, velocity=0, time=22)
Message('note_on', channel=12, note=59, velocity=100, time=2)
Message('note_off', channel=12, note=59, velocity=0, time=22)
Message('note_on', channel=12, note=61, velocity=100, time=2)
Message('note_off', channel=12, note=61, velocity=0, time=22)
Message('note_on', channel=12, note=57, velocity=100, time=2)
Message('note_off', channel=12, note=57, velocity=0, time=22)
Message('note_on', channel=12, note=54, velocity=100, time=2)
Message('note_off', channel=12, note=54, velocity=0, time=22)
Message('note_on', channel=12, note=59, velocity=100, time=2)
Message('note_off', channel=12, note=59, velocity=0, time=22)
Message('note_on', channel=12, note=56, velocity=100, time=2)
Message('note_off', channel=12, note=56, velocity=0, time=22)
Message('note_on', channel=12, note=52, velocity=100, time=2)
Message('note_off', channel=12, note=52, velocity=0, time=22)
Message('note_on', channel=12, note=57, velocity=100, time=2)
Message('note_off', channel=12, note=57, velocity=0, time=22)
Message('note_on', channel=12, note=54, velocity=100, time=2)
Message('note_off', channel=12, note=54, velocity=0, time=22)
Message('note_on', channel=12, note=49, velocity=100, time=2)
Message('note_off', channel=12, note=49, velocity=0, time=22)
Message('note_on', channel=12, note=56, velocity=100, time=2)
Message('note_off', channel=12, note=56, velocity=0, time=22)
Message('note_on', channel=12, note=52, velocity=100, time=2)
Message('note_off', channel=12, note=52, velocity=0, time=22)
Message('note_on', channel=12, note=47, velocity=100, time=2)
Message('note_off', channel=12, note=47, velocity=0, time=22)
Message('note_on', channel=12, note=54, velocity=100, time=2)
Message('note_off', channel=12, note=54, velocity=0, time=22)
Message('note_on', channel=12, note=45, velocity=100, time=2)
Message('note_off', channel=12, note=45, velocity=0, time=22)
Message('note_on', channel=12, note=57, velocity=100, time=2)
Message('note_off', channel=12, note=57, velocity=0, time=22)
Message('note_on', channel=12, note=52, velocity=100, time=2)
Message('note_off', channel=12, note=52, velocity=0, time=22)
Message('note_on', channel=12, note=57, velocity=100, time=2)
Message('note_off', channel=12, note=57, velocity=0, time=22)
Message('note_on', channel=12, note=54, velocity=100, time=2)
Message('note_off', channel=12, note=54, velocity=0, time=22)
Message('note_on', channel=12, note=50, velocity=100, time=2)
Message('note_off', channel=12, note=50, velocity=0, time=22)
Message('note_on', channel=12, note=57, velocity=100, time=2)
Message('note_off', channel=12, note=57, velocity=0, time=22)
Message('note_on', channel=12, note=54, velocity=100, time=2)
Message('note_off', channel=12, note=54, velocity=0, time=22)
Message('note_on', channel=12, note=50, velocity=100, time=2)
Message('note_off', channel=12, note=50, velocity=0, time=22)
Message('note_on', channel=12, note=62, velocity=100, time=2)
Message('note_off', channel=12, note=62, velocity=0, time=22)
Message('note_on', channel=12, note=57, velocity=100, time=2)
Message('note_off', channel=12, note=57, velocity=0, time=22)
Message('note_on', channel=12, note=56, velocity=100, time=2)
Message('note_off', channel=12, note=56, velocity=0, time=22)
Message('note_on', channel=12, note=52, velocity=100, time=2)
Message('note_off', channel=12, note=52, velocity=0, time=22)
Message('note_on', channel=12, note=47, velocity=100, time=2)
Message('note_off', channel=12, note=47, velocity=0, time=22)
Message('note_on', channel=12, note=56, velocity=100, time=2)
Message('note_off', channel=12, note=56, velocity=0, time=22)
Message('note_on', channel=12, note=52, velocity=100, time=2)
Message('note_off', channel=12, note=52, velocity=0, time=22)
Message('note_on', channel=12, note=47, velocity=100, time=2)
Message('note_off', channel=12, note=47, velocity=0, time=22)
Message('note_on', channel=12, note=59, velocity=100, time=2)
Message('note_off', channel=12, note=59, velocity=0, time=22)
Message('note_on', channel=12, note=56, velocity=100, time=2)
Message('note_off', channel=12, note=56, velocity=0, time=22)
Message('note_on', channel=12, note=57, velocity=100, time=2)
Message('note_off', channel=12, note=57, velocity=0, time=22)
Message('note_on', channel=12, note=61, velocity=100, time=2)
Message('note_off', channel=12, note=61, velocity=0, time=22)
Message('note_on', channel=12, note=66, velocity=100, time=2)
Message('note_off', channel=12, note=66, velocity=0, time=22)
Message('note_on', channel=12, note=59, velocity=100, time=2)
Message('note_off', channel=12, note=59, velocity=0, time=22)
Message('note_on', channel=12, note=64, velocity=100, time=2)
Message('note_off', channel=12, note=64, velocity=0, time=22)
Message('note_on', channel=12, note=68, velocity=100, time=2)
Message('note_off', channel=12, note=68, velocity=0, time=22)
Message('note_on', channel=12, note=61, velocity=100, time=2)
Message('note_off', channel=12, note=61, velocity=0, time=22)
Message('note_on', channel=12, note=66, velocity=100, time=2)
Message('note_off', channel=12, note=66, velocity=0, time=22)
Message('note_on', channel=12, note=69, velocity=100, time=2)
Message('note_off', channel=12, note=69, velocity=0, time=22)
Message('note_on', channel=12, note=68, velocity=100, time=2)
Message('note_off', channel=12, note=68, velocity=0, time=22)
Message('note_on', channel=12, note=64, velocity=100, time=2)
Message('note_off', channel=12, note=64, velocity=0, time=22)
Message('note_on', channel=12, note=59, velocity=100, time=2)
Message('note_off', channel=12, note=59, velocity=0, time=22)
Message('note_on', channel=12, note=66, velocity=100, time=2)
Message('note_off', channel=12, note=66, velocity=0, time=22)
Message('note_on', channel=12, note=61, velocity=100, time=2)
Message('note_off', channel=12, note=61, velocity=0, time=22)
Message('note_on', channel=12, note=57, velocity=100, time=2)
Message('note_off', channel=12, note=57, velocity=0, time=22)
Message('note_on', channel=12, note=56, velocity=100, time=2)
Message('note_off', channel=12, note=56, velocity=0, time=22)
Message('note_on', channel=12, note=54, velocity=100, time=2)
Message('note_off', channel=12, note=54, velocity=0, time=22)
Message('note_on', channel=12, note=50, velocity=100, time=2)
Message('note_off', channel=12, note=50, velocity=0, time=22)
Message('note_on', channel=12, note=45, velocity=100, time=2)
Message('note_off', channel=12, note=45, velocity=0, time=22)
Message('note_on', channel=12, note=50, velocity=100, time=2)
Message('note_off', channel=12, note=50, velocity=0, time=22)
Message('note_on', channel=12, note=57, velocity=100, time=2)
Message('note_off', channel=12, note=57, velocity=0, time=22)
Message('note_on', channel=12, note=54, velocity=100, time=2)
Message('note_off', channel=12, note=54, velocity=0, time=22)
Message('note_on', channel=12, note=50, velocity=100, time=2)
Message('note_off', channel=12, note=50, velocity=0, time=22)
Message('note_on', channel=12, note=45, velocity=100, time=2)
Message('note_off', channel=12, note=45, velocity=0, time=22)
Message('note_on', channel=12, note=47, velocity=100, time=2)
Message('note_off', channel=12, note=47, velocity=0, time=22)
Message('note_on', channel=12, note=52, velocity=100, time=2)
Message('note_off', channel=12, note=52, velocity=0, time=22)
Message('note_on', channel=12, note=56, velocity=100, time=2)
Message('note_off', channel=12, note=56, velocity=0, time=22)
Message('note_on', channel=12, note=59, velocity=100, time=2)
Message('note_off', channel=12, note=59, velocity=0, time=22)
Message('note_on', channel=12, note=56, velocity=100, time=2)
Message('note_off', channel=12, note=56, velocity=0, time=22)
Message('note_on', channel=12, note=59, velocity=100, time=2)
Message('note_off', channel=12, note=59, velocity=0, time=22)
Message('note_on', channel=12, note=64, velocity=100, time=2)
Message('note_off', channel=12, note=64, velocity=0, time=22)
Message('note_on', channel=12, note=59, velocity=100, time=2)
Message('note_off', channel=12, note=59, velocity=0, time=22)
Message('note_on', channel=12, note=61, velocity=100, time=2)
Message('note_off', channel=12, note=61, velocity=0, time=22)
Message('note_on', channel=12, note=57, velocity=100, time=2)
Message('note_off', channel=12, note=57, velocity=0, time=22)
Message('note_on', channel=12, note=54, velocity=100, time=2)
Message('note_off', channel=12, note=54, velocity=0, time=22)
Message('note_on', channel=12, note=59, velocity=100, time=2)
Message('note_off', channel=12, note=59, velocity=0, time=22)
Message('note_on', channel=12, note=56, velocity=100, time=2)
Message('note_off', channel=12, note=56, velocity=0, time=22)
Message('note_on', channel=12, note=52, velocity=100, time=2)
Message('note_off', channel=12, note=52, velocity=0, time=22)
Message('note_on', channel=12, note=57, velocity=100, time=2)
Message('note_off', channel=12, note=57, velocity=0, time=22)
Message('note_on', channel=12, note=54, velocity=100, time=2)
Message('note_off', channel=12, note=54, velocity=0, time=22)
Message('note_on', channel=12, note=49, velocity=100, time=2)
Message('note_off', channel=12, note=49, velocity=0, time=22)
Message('note_on', channel=12, note=56, velocity=100, time=2)
Message('note_off', channel=12, note=56, velocity=0, time=22)
Message('note_on', channel=12, note=52, velocity=100, time=2)
Message('note_off', channel=12, note=52, velocity=0, time=22)
Message('note_on', channel=12, note=47, velocity=100, time=2)
Message('note_off', channel=12, note=47, velocity=0, time=22)
Message('note_on', channel=12, note=54, velocity=100, time=2)
Message('note_off', channel=12, note=54, velocity=0, time=22)
Message('note_on', channel=12, note=45, velocity=100, time=2)
Message('note_off', channel=12, note=45, velocity=0, time=22)
Message('note_on', channel=12, note=57, velocity=100, time=2)
Message('note_off', channel=12, note=57, velocity=0, time=22)
Message('note_on', channel=12, note=52, velocity=100, time=2)
Message('note_off', channel=12, note=52, velocity=0, time=22)
Message('note_on', channel=12, note=57, velocity=100, time=2)
Message('note_off', channel=12, note=57, velocity=0, time=22)
Message('note_on', channel=12, note=54, velocity=100, time=2)
Message('note_off', channel=12, note=54, velocity=0, time=22)
Message('note_on', channel=12, note=50, velocity=100, time=2)
Message('note_off', channel=12, note=50, velocity=0, time=22)
Message('note_on', channel=12, note=57, velocity=100, time=2)
Message('note_off', channel=12, note=57, velocity=0, time=22)
Message('note_on', channel=12, note=54, velocity=100, time=2)
Message('note_off', channel=12, note=54, velocity=0, time=22)
Message('note_on', channel=12, note=50, velocity=100, time=2)
Message('note_off', channel=12, note=50, velocity=0, time=22)
Message('note_on', channel=12, note=62, velocity=100, time=2)
Message('note_off', channel=12, note=62, velocity=0, time=22)
Message('note_on', channel=12, note=57, velocity=100, time=2)
Message('note_off', channel=12, note=57, velocity=0, time=22)
Message('note_on', channel=12, note=56, velocity=100, time=2)
Message('note_off', channel=12, note=56, velocity=0, time=22)
Message('note_on', channel=12, note=52, velocity=100, time=2)
Message('note_off', channel=12, note=52, velocity=0, time=22)
Message('note_on', channel=12, note=47, velocity=100, time=2)
Message('note_off', channel=12, note=47, velocity=0, time=22)
Message('note_on', channel=12, note=56, velocity=100, time=2)
Message('note_off', channel=12, note=56, velocity=0, time=22)
Message('note_on', channel=12, note=52, velocity=100, time=2)
Message('note_off', channel=12, note=52, velocity=0, time=22)
Message('note_on', channel=12, note=47, velocity=100, time=2)
Message('note_off', channel=12, note=47, velocity=0, time=22)
Message('note_on', channel=12, note=59, velocity=100, time=2)
Message('note_off', channel=12, note=59, velocity=0, time=22)
Message('note_on', channel=12, note=56, velocity=100, time=2)
Message('note_off', channel=12, note=56, velocity=0, time=22)
Message('note_on', channel=12, note=57, velocity=100, time=2)
Message('note_off', channel=12, note=57, velocity=0, time=22)
Message('note_on', channel=12, note=61, velocity=100, time=2)
Message('note_off', channel=12, note=61, velocity=0, time=22)
Message('note_on', channel=12, note=66, velocity=100, time=2)
Message('note_off', channel=12, note=66, velocity=0, time=22)
Message('note_on', channel=12, note=59, velocity=100, time=2)
Message('note_off', channel=12, note=59, velocity=0, time=22)
Message('note_on', channel=12, note=64, velocity=100, time=2)
Message('note_off', channel=12, note=64, velocity=0, time=22)
Message('note_on', channel=12, note=68, velocity=100, time=2)
Message('note_off', channel=12, note=68, velocity=0, time=22)
Message('note_on', channel=12, note=61, velocity=100, time=2)
Message('note_off', channel=12, note=61, velocity=0, time=22)
Message('note_on', channel=12, note=66, velocity=100, time=2)
Message('note_off', channel=12, note=66, velocity=0, time=22)
Message('note_on', channel=12, note=69, velocity=100, time=2)
Message('note_off', channel=12, note=69, velocity=0, time=22)
Message('note_on', channel=12, note=68, velocity=100, time=2)
Message('note_off', channel=12, note=68, velocity=0, time=22)
Message('note_on', channel=12, note=64, velocity=100, time=2)
Message('note_off', channel=12, note=64, velocity=0, time=22)
Message('note_on', channel=12, note=59, velocity=100, time=2)
Message('note_off', channel=12, note=59, velocity=0, time=22)
Message('note_on', channel=12, note=66, velocity=100, time=2)
Message('note_off', channel=12, note=66, velocity=0, time=22)
Message('note_on', channel=12, note=61, velocity=100, time=2)
Message('note_off', channel=12, note=61, velocity=0, time=22)
Message('note_on', channel=12, note=57, velocity=100, time=2)
Message('note_off', channel=12, note=57, velocity=0, time=22)
Message('note_on', channel=12, note=56, velocity=100, time=2)
Message('note_off', channel=12, note=56, velocity=0, time=22)
Message('note_on', channel=12, note=54, velocity=100, time=2)
Message('note_off', channel=12, note=54, velocity=0, time=22)
Message('note_on', channel=12, note=50, velocity=100, time=2)
Message('note_off', channel=12, note=50, velocity=0, time=22)
Message('note_on', channel=12, note=45, velocity=100, time=2)
Message('note_off', channel=12, note=45, velocity=0, time=22)
Message('note_on', channel=12, note=50, velocity=100, time=2)
Message('note_off', channel=12, note=50, velocity=0, time=22)
Message('note_on', channel=12, note=57, velocity=100, time=2)
Message('note_off', channel=12, note=57, velocity=0, time=22)
Message('note_on', channel=12, note=54, velocity=100, time=2)
Message('note_off', channel=12, note=54, velocity=0, time=22)
Message('note_on', channel=12, note=50, velocity=100, time=2)
Message('note_off', channel=12, note=50, velocity=0, time=22)
Message('note_on', channel=12, note=45, velocity=100, time=2)
Message('note_off', channel=12, note=45, velocity=0, time=22)
Message('note_on', channel=12, note=47, velocity=100, time=2)
Message('note_off', channel=12, note=47, velocity=0, time=22)
Message('note_on', channel=12, note=52, velocity=100, time=2)
Message('note_off', channel=12, note=52, velocity=0, time=22)
Message('note_on', channel=12, note=56, velocity=100, time=2)
Message('note_off', channel=12, note=56, velocity=0, time=22)
Message('note_on', channel=12, note=59, velocity=100, time=2)
Message('note_off', channel=12, note=59, velocity=0, time=22)
Message('note_on', channel=12, note=56, velocity=100, time=2)
Message('note_off', channel=12, note=56, velocity=0, time=22)
Message('note_on', channel=12, note=59, velocity=100, time=2)
Message('note_off', channel=12, note=59, velocity=0, time=22)
Message('note_on', channel=12, note=64, velocity=100, time=2)
Message('note_off', channel=12, note=64, velocity=0, time=22)
Message('note_on', channel=12, note=59, velocity=100, time=2)
Message('note_off', channel=12, note=59, velocity=0, time=22)
Message('note_on', channel=12, note=61, velocity=100, time=2)
Message('note_off', channel=12, note=61, velocity=0, time=22)
Message('note_on', channel=12, note=57, velocity=100, time=2)
Message('note_off', channel=12, note=57, velocity=0, time=22)
Message('note_on', channel=12, note=54, velocity=100, time=2)
Message('note_off', channel=12, note=54, velocity=0, time=22)
Message('note_on', channel=12, note=59, velocity=100, time=2)
Message('note_off', channel=12, note=59, velocity=0, time=22)
Message('note_on', channel=12, note=56, velocity=100, time=2)
Message('note_off', channel=12, note=56, velocity=0, time=22)
Message('note_on', channel=12, note=52, velocity=100, time=2)
Message('note_off', channel=12, note=52, velocity=0, time=22)
Message('note_on', channel=12, note=57, velocity=100, time=2)
Message('note_off', channel=12, note=57, velocity=0, time=22)
Message('note_on', channel=12, note=54, velocity=100, time=2)
Message('note_off', channel=12, note=54, velocity=0, time=22)
Message('note_on', channel=12, note=49, velocity=100, time=2)
Message('note_off', channel=12, note=49, velocity=0, time=22)
Message('note_on', channel=12, note=56, velocity=100, time=2)
Message('note_off', channel=12, note=56, velocity=0, time=22)
Message('note_on', channel=12, note=52, velocity=100, time=2)
Message('note_off', channel=12, note=52, velocity=0, time=22)
Message('note_on', channel=12, note=47, velocity=100, time=2)
Message('note_off', channel=12, note=47, velocity=0, time=22)
Message('note_on', channel=12, note=54, velocity=100, time=2)
Message('note_off', channel=12, note=54, velocity=0, time=22)
Message('note_on', channel=12, note=45, velocity=100, time=2)
Message('note_off', channel=12, note=45, velocity=0, time=22)
Message('note_on', channel=12, note=57, velocity=100, time=2)
Message('note_off', channel=12, note=57, velocity=0, time=22)
Message('note_on', channel=12, note=52, velocity=100, time=2)
Message('note_off', channel=12, note=52, velocity=0, time=22)
Message('note_on', channel=12, note=57, velocity=100, time=2)
Message('note_off', channel=12, note=57, velocity=0, time=22)
Message('note_on', channel=12, note=54, velocity=100, time=2)
Message('note_off', channel=12, note=54, velocity=0, time=22)
Message('note_on', channel=12, note=50, velocity=100, time=2)
Message('note_off', channel=12, note=50, velocity=0, time=22)
Message('note_on', channel=12, note=57, velocity=100, time=2)
Message('note_off', channel=12, note=57, velocity=0, time=22)
Message('note_on', channel=12, note=54, velocity=100, time=2)
Message('note_off', channel=12, note=54, velocity=0, time=22)
Message('note_on', channel=12, note=50, velocity=100, time=2)
Message('note_off', channel=12, note=50, velocity=0, time=22)
Message('note_on', channel=12, note=62, velocity=100, time=2)
Message('note_off', channel=12, note=62, velocity=0, time=22)
Message('note_on', channel=12, note=57, velocity=100, time=2)
Message('note_off', channel=12, note=57, velocity=0, time=22)
Message('note_on', channel=12, note=56, velocity=100, time=2)
Message('note_off', channel=12, note=56, velocity=0, time=22)
Message('note_on', channel=12, note=52, velocity=100, time=2)
Message('note_off', channel=12, note=52, velocity=0, time=22)
Message('note_on', channel=12, note=47, velocity=100, time=2)
Message('note_off', channel=12, note=47, velocity=0, time=22)
Message('note_on', channel=12, note=56, velocity=100, time=2)
Message('note_off', channel=12, note=56, velocity=0, time=22)
Message('note_on', channel=12, note=52, velocity=100, time=2)
Message('note_off', channel=12, note=52, velocity=0, time=22)
Message('note_on', channel=12, note=47, velocity=100, time=2)
Message('note_off', channel=12, note=47, velocity=0, time=22)
Message('note_on', channel=12, note=59, velocity=100, time=2)
Message('note_off', channel=12, note=59, velocity=0, time=22)
Message('note_on', channel=12, note=56, velocity=100, time=2)
Message('note_off', channel=12, note=56, velocity=0, time=22)
Message('note_on', channel=12, note=57, velocity=100, time=2)
Message('note_off', channel=12, note=57, velocity=0, time=22)
Message('note_on', channel=12, note=61, velocity=100, time=2)
Message('note_off', channel=12, note=61, velocity=0, time=22)
Message('note_on', channel=12, note=66, velocity=100, time=2)
Message('note_off', channel=12, note=66, velocity=0, time=22)
Message('note_on', channel=12, note=59, velocity=100, time=2)
Message('note_off', channel=12, note=59, velocity=0, time=22)
Message('note_on', channel=12, note=64, velocity=100, time=2)
Message('note_off', channel=12, note=64, velocity=0, time=22)
Message('note_on', channel=12, note=68, velocity=100, time=2)
Message('note_off', channel=12, note=68, velocity=0, time=22)
Message('note_on', channel=12, note=61, velocity=100, time=2)
Message('note_off', channel=12, note=61, velocity=0, time=22)
Message('note_on', channel=12, note=66, velocity=100, time=2)
Message('note_off', channel=12, note=66, velocity=0, time=22)
Message('note_on', channel=12, note=66, velocity=120, time=2)
Message('note_on', channel=12, note=57, velocity=120, time=0)
Message('note_off', channel=12, note=66, velocity=0, time=92)
Message('note_off', channel=12, note=57, velocity=0, time=0)
Message('note_on', channel=12, note=59, velocity=120, time=4)
Message('note_on', channel=12, note=68, velocity=120, time=0)
Message('control_change', channel=12, control=10, value=70, time=88)
Message('note_off', channel=12, note=68, velocity=0, time=4)
Message('note_off', channel=12, note=59, velocity=0, time=0)
Message('note_on', channel=12, note=69, velocity=120, time=4)
Message('note_on', channel=12, note=61, velocity=120, time=0)
Message('note_off', channel=12, note=69, velocity=0, time=282)
Message('note_off', channel=12, note=61, velocity=0, time=0)
Message('note_on', channel=12, note=73, velocity=120, time=6)
Message('note_on', channel=12, note=69, velocity=120, time=0)
Message('note_off', channel=12, note=73, velocity=0, time=92)
Message('note_off', channel=12, note=69, velocity=0, time=0)
Message('note_on', channel=12, note=61, velocity=120, time=4)
Message('note_on', channel=12, note=68, velocity=120, time=0)
Message('note_off', channel=12, note=61, velocity=0, time=182)
Message('note_off', channel=12, note=68, velocity=0, time=0)
Message('note_on', channel=12, note=68, velocity=120, time=10)
Message('note_on', channel=12, note=73, velocity=120, time=0)
Message('note_off', channel=12, note=68, velocity=0, time=182)
Message('note_off', channel=12, note=73, velocity=0, time=0)
Message('note_on', channel=12, note=63, velocity=120, time=10)
Message('note_on', channel=12, note=66, velocity=120, time=0)
Message('note_off', channel=12, note=63, velocity=0, time=642)
Message('note_on', channel=12, note=63, velocity=120, time=18)
Message('note_off', channel=12, note=66, velocity=0, time=6)
Message('note_on', channel=12, note=66, velocity=120, time=6)
Message('note_off', channel=12, note=63, velocity=0, time=32)
Message('note_off', channel=12, note=66, velocity=0, time=12)
Message('note_on', channel=12, note=63, velocity=120, time=4)
Message('note_on', channel=12, note=68, velocity=120, time=0)
Message('note_off', channel=12, note=63, velocity=0, time=44)
Message('note_off', channel=12, note=68, velocity=0, time=0)
Message('note_on', channel=12, note=61, velocity=120, time=4)
Message('note_on', channel=12, note=69, velocity=120, time=0)
Message('note_off', channel=12, note=61, velocity=0, time=134)
Message('note_off', channel=12, note=69, velocity=0, time=0)
Message('note_on', channel=12, note=57, velocity=120, time=10)
Message('note_on', channel=12, note=61, velocity=120, time=0)
Message('note_off', channel=12, note=57, velocity=0, time=92)
Message('note_off', channel=12, note=61, velocity=0, time=0)
Message('note_on', channel=12, note=59, velocity=120, time=4)
Message('note_on', channel=12, note=68, velocity=120, time=0)
Message('note_off', channel=12, note=59, velocity=0, time=44)
Message('note_off', channel=12, note=68, velocity=0, time=0)
Message('note_on', channel=12, note=69, velocity=120, time=4)
Message('note_on', channel=12, note=61, velocity=120, time=0)
Message('note_off', channel=12, note=69, velocity=0, time=44)
Message('note_off', channel=12, note=61, velocity=0, time=0)
Message('note_on', channel=12, note=59, velocity=120, time=4)
Message('note_on', channel=12, note=68, velocity=120, time=0)
Message('note_off', channel=12, note=59, velocity=0, time=182)
Message('note_off', channel=12, note=68, velocity=0, time=0)
Message('note_on', channel=12, note=71, velocity=120, time=10)
Message('note_on', channel=12, note=68, velocity=120, time=0)
Message('note_off', channel=12, note=71, velocity=0, time=134)
Message('note_off', channel=12, note=68, velocity=0, time=0)
Message('note_on', channel=12, note=73, velocity=120, time=10)
Message('note_on', channel=12, note=69, velocity=120, time=0)
Message('note_off', channel=12, note=73, velocity=0, time=92)
Message('note_off', channel=12, note=69, velocity=0, time=0)
Message('note_on', channel=12, note=61, velocity=120, time=4)
Message('note_on', channel=12, note=69, velocity=120, time=0)
Message('note_off', channel=12, note=61, velocity=0, time=566)
Message('note_off', channel=12, note=69, velocity=0, time=0)
Message('note_on', channel=12, note=57, velocity=120, time=10)
Message('note_on', channel=12, note=66, velocity=120, time=0)
Message('note_off', channel=12, note=57, velocity=0, time=92)
Message('note_off', channel=12, note=66, velocity=0, time=0)
Message('note_on', channel=12, note=59, velocity=120, time=4)
Message('note_on', channel=12, note=68, velocity=120, time=0)
Message('note_off', channel=12, note=59, velocity=0, time=92)
Message('note_off', channel=12, note=68, velocity=0, time=0)
Message('note_on', channel=12, note=61, velocity=120, time=4)
Message('note_on', channel=12, note=69, velocity=120, time=0)
Message('note_off', channel=12, note=61, velocity=0, time=282)
Message('note_off', channel=12, note=69, velocity=0, time=0)
Message('note_on', channel=12, note=73, velocity=120, time=6)
Message('note_on', channel=12, note=69, velocity=120, time=0)
Message('note_off', channel=12, note=73, velocity=0, time=92)
Message('note_off', channel=12, note=69, velocity=0, time=0)
Message('note_on', channel=12, note=61, velocity=120, time=4)
Message('note_on', channel=12, note=68, velocity=120, time=0)
Message('note_off', channel=12, note=61, velocity=0, time=182)
Message('note_off', channel=12, note=68, velocity=0, time=0)
Message('note_on', channel=12, note=73, velocity=120, time=10)
Message('note_on', channel=12, note=68, velocity=120, time=0)
Message('note_off', channel=12, note=73, velocity=0, time=182)
Message('note_off', channel=12, note=68, velocity=0, time=0)
Message('note_on', channel=12, note=63, velocity=120, time=10)
Message('note_on', channel=12, note=66, velocity=120, time=0)
Message('note_off', channel=12, note=63, velocity=0, time=642)
Message('note_on', channel=12, note=63, velocity=120, time=18)
Message('note_off', channel=12, note=66, velocity=0, time=6)
Message('note_on', channel=12, note=66, velocity=120, time=6)
Message('note_off', channel=12, note=63, velocity=0, time=32)
Message('note_off', channel=12, note=66, velocity=0, time=12)
Message('note_on', channel=12, note=63, velocity=120, time=4)
Message('note_on', channel=12, note=68, velocity=120, time=0)
Message('note_off', channel=12, note=63, velocity=0, time=44)
Message('note_off', channel=12, note=68, velocity=0, time=0)
Message('note_on', channel=12, note=61, velocity=120, time=4)
Message('note_on', channel=12, note=69, velocity=120, time=0)
Message('note_off', channel=12, note=61, velocity=0, time=134)
Message('note_off', channel=12, note=69, velocity=0, time=0)
Message('note_on', channel=12, note=61, velocity=120, time=10)
Message('note_on', channel=12, note=57, velocity=120, time=0)
Message('note_off', channel=12, note=61, velocity=0, time=92)
Message('note_off', channel=12, note=57, velocity=0, time=0)
Message('note_on', channel=12, note=68, velocity=120, time=4)
Message('note_on', channel=12, note=59, velocity=120, time=0)
Message('note_off', channel=12, note=68, velocity=0, time=44)
Message('note_off', channel=12, note=59, velocity=0, time=0)
Message('note_on', channel=12, note=69, velocity=120, time=4)
Message('note_on', channel=12, note=61, velocity=120, time=0)
Message('note_off', channel=12, note=69, velocity=0, time=44)
Message('note_off', channel=12, note=61, velocity=0, time=0)
Message('note_on', channel=12, note=59, velocity=120, time=4)
Message('note_on', channel=12, note=68, velocity=120, time=0)
Message('note_off', channel=12, note=59, velocity=0, time=116)
Message('note_off', channel=12, note=68, velocity=0, time=0)
Message('note_on', channel=12, note=59, velocity=120, time=4)
Message('note_on', channel=12, note=56, velocity=120, time=0)
Message('note_off', channel=12, note=59, velocity=0, time=68)
Message('note_off', channel=12, note=56, velocity=0, time=0)
Message('note_on', channel=12, note=68, velocity=120, time=4)
Message('note_on', channel=12, note=69, velocity=120, time=48)
Message('note_off', channel=12, note=68, velocity=0, time=44)
Message('note_on', channel=12, note=71, velocity=120, time=4)
Message('note_off', channel=12, note=71, velocity=0, time=22)
Message('note_off', channel=12, note=69, velocity=0, time=22)
Message('note_on', channel=12, note=71, velocity=120, time=4)
Message('note_off', channel=12, note=71, velocity=0, time=22)
Message('note_on', channel=12, note=68, velocity=120, time=2)
Message('note_off', channel=12, note=68, velocity=0, time=22)
Message('note_on', channel=12, note=69, velocity=120, time=2)
Message('note_on', channel=12, note=66, velocity=120, time=24)
Message('note_on', channel=12, note=76, velocity=120, time=88)
Message('note_off', channel=12, note=76, velocity=0, time=22)
Message('note_off', channel=12, note=66, velocity=0, time=292)
Message('note_off', channel=12, note=69, velocity=0, time=0)
Message('note_on', channel=12, note=69, velocity=120, time=6)
Message('note_on', channel=12, note=78, velocity=120, time=184)
Message('note_off', channel=12, note=69, velocity=0, time=194)
Message('note_off', channel=12, note=78, velocity=0, time=184)
Message('note_on', channel=12, note=54, velocity=100, time=2894)
Message('note_off', channel=12, note=54, velocity=0, time=22)
Message('note_on', channel=12, note=50, velocity=100, time=2)
Message('note_off', channel=12, note=50, velocity=0, time=22)
Message('note_on', channel=12, note=45, velocity=100, time=2)
Message('note_off', channel=12, note=45, velocity=0, time=22)
Message('note_on', channel=12, note=50, velocity=100, time=2)
Message('note_off', channel=12, note=50, velocity=0, time=22)
Message('note_on', channel=12, note=57, velocity=100, time=2)
Message('note_off', channel=12, note=57, velocity=0, time=22)
Message('note_on', channel=12, note=54, velocity=100, time=2)
Message('note_off', channel=12, note=54, velocity=0, time=22)
Message('note_on', channel=12, note=50, velocity=100, time=2)
Message('note_off', channel=12, note=50, velocity=0, time=22)
Message('note_on', channel=12, note=45, velocity=100, time=2)
Message('control_change', channel=12, control=10, value=30, time=16)
Message('note_off', channel=12, note=45, velocity=0, time=6)
Message('note_on', channel=12, note=47, velocity=100, time=2)
Message('note_off', channel=12, note=47, velocity=0, time=22)
Message('note_on', channel=12, note=52, velocity=100, time=2)
Message('note_off', channel=12, note=52, velocity=0, time=22)
Message('note_on', channel=12, note=56, velocity=100, time=2)
Message('note_off', channel=12, note=56, velocity=0, time=22)
Message('note_on', channel=12, note=59, velocity=100, time=2)
Message('note_off', channel=12, note=59, velocity=0, time=22)
Message('note_on', channel=12, note=56, velocity=100, time=2)
Message('note_off', channel=12, note=56, velocity=0, time=22)
Message('note_on', channel=12, note=59, velocity=100, time=2)
Message('note_off', channel=12, note=59, velocity=0, time=22)
Message('note_on', channel=12, note=64, velocity=100, time=2)
Message('note_off', channel=12, note=64, velocity=0, time=22)
Message('note_on', channel=12, note=59, velocity=100, time=2)
Message('note_off', channel=12, note=59, velocity=0, time=22)
Message('note_on', channel=12, note=61, velocity=100, time=2)
Message('note_off', channel=12, note=61, velocity=0, time=22)
Message('note_on', channel=12, note=57, velocity=100, time=2)
Message('note_off', channel=12, note=57, velocity=0, time=22)
Message('note_on', channel=12, note=54, velocity=100, time=2)
Message('note_off', channel=12, note=54, velocity=0, time=22)
Message('note_on', channel=12, note=59, velocity=100, time=2)
Message('note_off', channel=12, note=59, velocity=0, time=22)
Message('note_on', channel=12, note=56, velocity=100, time=2)
Message('note_off', channel=12, note=56, velocity=0, time=22)
Message('note_on', channel=12, note=52, velocity=100, time=2)
Message('note_off', channel=12, note=52, velocity=0, time=22)
Message('note_on', channel=12, note=57, velocity=100, time=2)
Message('note_off', channel=12, note=57, velocity=0, time=22)
Message('note_on', channel=12, note=54, velocity=100, time=2)
Message('note_off', channel=12, note=54, velocity=0, time=22)
Message('note_on', channel=12, note=49, velocity=100, time=2)
Message('note_off', channel=12, note=49, velocity=0, time=22)
Message('note_on', channel=12, note=56, velocity=100, time=2)
Message('note_off', channel=12, note=56, velocity=0, time=22)
Message('note_on', channel=12, note=52, velocity=100, time=2)
Message('note_off', channel=12, note=52, velocity=0, time=22)
Message('note_on', channel=12, note=47, velocity=100, time=2)
Message('note_off', channel=12, note=47, velocity=0, time=22)
Message('note_on', channel=12, note=54, velocity=100, time=2)
Message('note_off', channel=12, note=54, velocity=0, time=22)
Message('note_on', channel=12, note=45, velocity=100, time=2)
Message('note_off', channel=12, note=45, velocity=0, time=22)
Message('note_on', channel=12, note=57, velocity=100, time=2)
Message('note_off', channel=12, note=57, velocity=0, time=22)
Message('note_on', channel=12, note=52, velocity=100, time=2)
Message('note_off', channel=12, note=52, velocity=0, time=22)
Message('note_on', channel=12, note=57, velocity=100, time=2)
Message('note_off', channel=12, note=57, velocity=0, time=22)
Message('note_on', channel=12, note=54, velocity=100, time=2)
Message('note_off', channel=12, note=54, velocity=0, time=22)
Message('note_on', channel=12, note=50, velocity=100, time=2)
Message('note_off', channel=12, note=50, velocity=0, time=22)
Message('note_on', channel=12, note=57, velocity=100, time=2)
Message('note_off', channel=12, note=57, velocity=0, time=22)
Message('note_on', channel=12, note=54, velocity=100, time=2)
Message('note_off', channel=12, note=54, velocity=0, time=22)
Message('note_on', channel=12, note=50, velocity=100, time=2)
Message('note_off', channel=12, note=50, velocity=0, time=22)
Message('note_on', channel=12, note=62, velocity=100, time=2)
Message('note_off', channel=12, note=62, velocity=0, time=22)
Message('note_on', channel=12, note=57, velocity=100, time=2)
Message('note_off', channel=12, note=57, velocity=0, time=22)
Message('note_on', channel=12, note=56, velocity=100, time=2)
Message('note_off', channel=12, note=56, velocity=0, time=22)
Message('note_on', channel=12, note=52, velocity=100, time=2)
Message('note_off', channel=12, note=52, velocity=0, time=22)
Message('note_on', channel=12, note=47, velocity=100, time=2)
Message('note_off', channel=12, note=47, velocity=0, time=22)
Message('note_on', channel=12, note=56, velocity=100, time=2)
Message('note_off', channel=12, note=56, velocity=0, time=22)
Message('note_on', channel=12, note=52, velocity=100, time=2)
Message('note_off', channel=12, note=52, velocity=0, time=22)
Message('note_on', channel=12, note=47, velocity=100, time=2)
Message('note_off', channel=12, note=47, velocity=0, time=22)
Message('note_on', channel=12, note=59, velocity=100, time=2)
Message('note_off', channel=12, note=59, velocity=0, time=22)
Message('note_on', channel=12, note=56, velocity=100, time=2)
Message('note_off', channel=12, note=56, velocity=0, time=22)
Message('note_on', channel=12, note=57, velocity=100, time=2)
Message('note_off', channel=12, note=57, velocity=0, time=22)
Message('note_on', channel=12, note=61, velocity=100, time=2)
Message('note_off', channel=12, note=61, velocity=0, time=22)
Message('note_on', channel=12, note=66, velocity=100, time=2)
Message('note_off', channel=12, note=66, velocity=0, time=22)
Message('note_on', channel=12, note=59, velocity=100, time=2)
Message('note_off', channel=12, note=59, velocity=0, time=22)
Message('note_on', channel=12, note=64, velocity=100, time=2)
Message('note_off', channel=12, note=64, velocity=0, time=22)
Message('note_on', channel=12, note=68, velocity=100, time=2)
Message('note_off', channel=12, note=68, velocity=0, time=22)
Message('note_on', channel=12, note=61, velocity=100, time=2)
Message('note_off', channel=12, note=61, velocity=0, time=22)
Message('note_on', channel=12, note=66, velocity=100, time=2)
Message('note_off', channel=12, note=66, velocity=0, time=22)
Message('note_on', channel=12, note=69, velocity=100, time=2)
Message('note_off', channel=12, note=69, velocity=0, time=22)
Message('note_on', channel=12, note=68, velocity=100, time=2)
Message('note_off', channel=12, note=68, velocity=0, time=22)
Message('note_on', channel=12, note=64, velocity=100, time=2)
Message('note_off', channel=12, note=64, velocity=0, time=22)
Message('note_on', channel=12, note=59, velocity=100, time=2)
Message('note_off', channel=12, note=59, velocity=0, time=22)
Message('note_on', channel=12, note=66, velocity=100, time=2)
Message('note_off', channel=12, note=66, velocity=0, time=22)
Message('note_on', channel=12, note=61, velocity=100, time=2)
Message('note_off', channel=12, note=61, velocity=0, time=22)
Message('note_on', channel=12, note=57, velocity=100, time=2)
Message('note_off', channel=12, note=57, velocity=0, time=22)
Message('note_on', channel=12, note=56, velocity=100, time=2)
Message('note_off', channel=12, note=56, velocity=0, time=22)
Message('note_on', channel=12, note=54, velocity=100, time=2)
Message('note_off', channel=12, note=54, velocity=0, time=22)
Message('note_on', channel=12, note=50, velocity=100, time=2)
Message('note_off', channel=12, note=50, velocity=0, time=22)
Message('note_on', channel=12, note=45, velocity=100, time=2)
Message('note_off', channel=12, note=45, velocity=0, time=22)
Message('note_on', channel=12, note=50, velocity=100, time=2)
Message('note_off', channel=12, note=50, velocity=0, time=22)
Message('note_on', channel=12, note=57, velocity=100, time=2)
Message('note_off', channel=12, note=57, velocity=0, time=22)
Message('note_on', channel=12, note=54, velocity=100, time=2)
Message('note_off', channel=12, note=54, velocity=0, time=22)
Message('note_on', channel=12, note=50, velocity=100, time=2)
Message('note_off', channel=12, note=50, velocity=0, time=22)
Message('note_on', channel=12, note=45, velocity=100, time=2)
Message('note_off', channel=12, note=45, velocity=0, time=22)
Message('note_on', channel=12, note=47, velocity=100, time=2)
Message('note_off', channel=12, note=47, velocity=0, time=22)
Message('note_on', channel=12, note=52, velocity=100, time=2)
Message('note_off', channel=12, note=52, velocity=0, time=22)
Message('note_on', channel=12, note=56, velocity=100, time=2)
Message('note_off', channel=12, note=56, velocity=0, time=22)
Message('note_on', channel=12, note=59, velocity=100, time=2)
Message('note_off', channel=12, note=59, velocity=0, time=22)
Message('note_on', channel=12, note=56, velocity=100, time=2)
Message('note_off', channel=12, note=56, velocity=0, time=22)
Message('note_on', channel=12, note=59, velocity=100, time=2)
Message('note_off', channel=12, note=59, velocity=0, time=22)
Message('note_on', channel=12, note=64, velocity=100, time=2)
Message('note_off', channel=12, note=64, velocity=0, time=22)
Message('note_on', channel=12, note=59, velocity=100, time=2)
Message('note_off', channel=12, note=59, velocity=0, time=22)
Message('note_on', channel=12, note=61, velocity=100, time=2)
Message('note_off', channel=12, note=61, velocity=0, time=22)
Message('note_on', channel=12, note=57, velocity=100, time=2)
Message('note_off', channel=12, note=57, velocity=0, time=22)
Message('note_on', channel=12, note=54, velocity=100, time=2)
Message('note_off', channel=12, note=54, velocity=0, time=22)
Message('note_on', channel=12, note=59, velocity=100, time=2)
Message('note_off', channel=12, note=59, velocity=0, time=22)
Message('note_on', channel=12, note=56, velocity=100, time=2)
Message('note_off', channel=12, note=56, velocity=0, time=22)
Message('note_on', channel=12, note=52, velocity=100, time=2)
Message('note_off', channel=12, note=52, velocity=0, time=22)
Message('note_on', channel=12, note=57, velocity=100, time=2)
Message('note_off', channel=12, note=57, velocity=0, time=22)
Message('note_on', channel=12, note=54, velocity=100, time=2)
Message('note_off', channel=12, note=54, velocity=0, time=22)
Message('note_on', channel=12, note=49, velocity=100, time=2)
Message('note_off', channel=12, note=49, velocity=0, time=22)
Message('note_on', channel=12, note=56, velocity=100, time=2)
Message('note_off', channel=12, note=56, velocity=0, time=22)
Message('note_on', channel=12, note=52, velocity=100, time=2)
Message('note_off', channel=12, note=52, velocity=0, time=22)
Message('note_on', channel=12, note=47, velocity=100, time=2)
Message('note_off', channel=12, note=47, velocity=0, time=22)
Message('note_on', channel=12, note=54, velocity=100, time=2)
Message('note_off', channel=12, note=54, velocity=0, time=22)
Message('note_on', channel=12, note=45, velocity=100, time=2)
Message('note_off', channel=12, note=45, velocity=0, time=22)
Message('note_on', channel=12, note=57, velocity=100, time=2)
Message('note_off', channel=12, note=57, velocity=0, time=22)
Message('note_on', channel=12, note=52, velocity=100, time=2)
Message('note_off', channel=12, note=52, velocity=0, time=22)
Message('note_on', channel=12, note=57, velocity=100, time=2)
Message('note_off', channel=12, note=57, velocity=0, time=22)
Message('note_on', channel=12, note=54, velocity=100, time=2)
Message('note_off', channel=12, note=54, velocity=0, time=22)
Message('note_on', channel=12, note=50, velocity=100, time=2)
Message('note_off', channel=12, note=50, velocity=0, time=22)
Message('note_on', channel=12, note=57, velocity=100, time=2)
Message('note_off', channel=12, note=57, velocity=0, time=22)
Message('note_on', channel=12, note=54, velocity=100, time=2)
Message('note_off', channel=12, note=54, velocity=0, time=22)
Message('note_on', channel=12, note=50, velocity=100, time=2)
Message('note_off', channel=12, note=50, velocity=0, time=22)
Message('note_on', channel=12, note=62, velocity=100, time=2)
Message('note_off', channel=12, note=62, velocity=0, time=22)
Message('note_on', channel=12, note=57, velocity=100, time=2)
Message('note_off', channel=12, note=57, velocity=0, time=22)
Message('note_on', channel=12, note=56, velocity=100, time=2)
Message('note_off', channel=12, note=56, velocity=0, time=22)
Message('note_on', channel=12, note=52, velocity=100, time=2)
Message('note_off', channel=12, note=52, velocity=0, time=22)
Message('note_on', channel=12, note=47, velocity=100, time=2)
Message('note_off', channel=12, note=47, velocity=0, time=22)
Message('note_on', channel=12, note=56, velocity=100, time=2)
Message('note_off', channel=12, note=56, velocity=0, time=22)
Message('note_on', channel=12, note=52, velocity=100, time=2)
Message('note_off', channel=12, note=52, velocity=0, time=22)
Message('note_on', channel=12, note=47, velocity=100, time=2)
Message('note_off', channel=12, note=47, velocity=0, time=22)
Message('note_on', channel=12, note=59, velocity=100, time=2)
Message('note_off', channel=12, note=59, velocity=0, time=22)
Message('note_on', channel=12, note=56, velocity=100, time=2)
Message('note_off', channel=12, note=56, velocity=0, time=22)
Message('note_on', channel=12, note=57, velocity=100, time=2)
Message('note_off', channel=12, note=57, velocity=0, time=22)
Message('note_on', channel=12, note=61, velocity=100, time=2)
Message('note_off', channel=12, note=61, velocity=0, time=22)
Message('note_on', channel=12, note=66, velocity=100, time=2)
Message('note_off', channel=12, note=66, velocity=0, time=22)
Message('note_on', channel=12, note=59, velocity=100, time=2)
Message('note_off', channel=12, note=59, velocity=0, time=22)
Message('note_on', channel=12, note=64, velocity=100, time=2)
Message('note_off', channel=12, note=64, velocity=0, time=22)
Message('note_on', channel=12, note=68, velocity=100, time=2)
Message('note_off', channel=12, note=68, velocity=0, time=22)
Message('note_on', channel=12, note=61, velocity=100, time=2)
Message('note_off', channel=12, note=61, velocity=0, time=22)
Message('note_on', channel=12, note=66, velocity=100, time=2)
Message('note_off', channel=12, note=66, velocity=0, time=22)
Message('note_on', channel=12, note=69, velocity=100, time=2)
Message('note_off', channel=12, note=69, velocity=0, time=22)
Message('note_on', channel=12, note=68, velocity=100, time=2)
Message('note_off', channel=12, note=68, velocity=0, time=22)
Message('note_on', channel=12, note=64, velocity=100, time=2)
Message('note_off', channel=12, note=64, velocity=0, time=22)
Message('note_on', channel=12, note=59, velocity=100, time=2)
Message('note_off', channel=12, note=59, velocity=0, time=22)
Message('note_on', channel=12, note=66, velocity=100, time=2)
Message('note_off', channel=12, note=66, velocity=0, time=22)
Message('note_on', channel=12, note=61, velocity=100, time=2)
Message('note_off', channel=12, note=61, velocity=0, time=22)
Message('note_on', channel=12, note=57, velocity=100, time=2)
Message('note_off', channel=12, note=57, velocity=0, time=22)
Message('note_on', channel=12, note=56, velocity=100, time=2)
Message('note_off', channel=12, note=56, velocity=0, time=22)
Message('note_on', channel=12, note=54, velocity=100, time=2)
Message('note_off', channel=12, note=54, velocity=0, time=22)
Message('note_on', channel=12, note=50, velocity=100, time=2)
Message('note_off', channel=12, note=50, velocity=0, time=22)
Message('note_on', channel=12, note=45, velocity=100, time=2)
Message('note_off', channel=12, note=45, velocity=0, time=22)
Message('note_on', channel=12, note=50, velocity=100, time=2)
Message('note_off', channel=12, note=50, velocity=0, time=22)
Message('note_on', channel=12, note=57, velocity=100, time=2)
Message('note_off', channel=12, note=57, velocity=0, time=22)
Message('note_on', channel=12, note=54, velocity=100, time=2)
Message('note_off', channel=12, note=54, velocity=0, time=22)
Message('note_on', channel=12, note=50, velocity=100, time=2)
Message('note_off', channel=12, note=50, velocity=0, time=22)
Message('note_on', channel=12, note=45, velocity=100, time=2)
Message('note_off', channel=12, note=45, velocity=0, time=22)
Message('note_on', channel=12, note=47, velocity=100, time=2)
Message('note_off', channel=12, note=47, velocity=0, time=22)
Message('note_on', channel=12, note=52, velocity=100, time=2)
Message('note_off', channel=12, note=52, velocity=0, time=22)
Message('note_on', channel=12, note=56, velocity=100, time=2)
Message('note_off', channel=12, note=56, velocity=0, time=22)
Message('note_on', channel=12, note=59, velocity=100, time=2)
Message('note_off', channel=12, note=59, velocity=0, time=22)
Message('note_on', channel=12, note=56, velocity=100, time=2)
Message('note_off', channel=12, note=56, velocity=0, time=22)
Message('note_on', channel=12, note=59, velocity=100, time=2)
Message('note_off', channel=12, note=59, velocity=0, time=22)
Message('note_on', channel=12, note=64, velocity=100, time=2)
Message('note_off', channel=12, note=64, velocity=0, time=22)
Message('note_on', channel=12, note=59, velocity=100, time=2)
Message('note_off', channel=12, note=59, velocity=0, time=22)
Message('note_on', channel=12, note=61, velocity=100, time=2)
Message('note_off', channel=12, note=61, velocity=0, time=22)
Message('note_on', channel=12, note=57, velocity=100, time=2)
Message('note_off', channel=12, note=57, velocity=0, time=22)
Message('note_on', channel=12, note=54, velocity=100, time=2)
Message('note_off', channel=12, note=54, velocity=0, time=22)
Message('note_on', channel=12, note=59, velocity=100, time=2)
Message('note_off', channel=12, note=59, velocity=0, time=22)
Message('note_on', channel=12, note=56, velocity=100, time=2)
Message('note_off', channel=12, note=56, velocity=0, time=22)
Message('note_on', channel=12, note=52, velocity=100, time=2)
Message('note_off', channel=12, note=52, velocity=0, time=22)
Message('note_on', channel=12, note=57, velocity=100, time=2)
Message('note_off', channel=12, note=57, velocity=0, time=22)
Message('note_on', channel=12, note=54, velocity=100, time=2)
Message('note_off', channel=12, note=54, velocity=0, time=22)
Message('note_on', channel=12, note=49, velocity=100, time=2)
Message('note_off', channel=12, note=49, velocity=0, time=22)
Message('note_on', channel=12, note=56, velocity=100, time=2)
Message('note_off', channel=12, note=56, velocity=0, time=22)
Message('note_on', channel=12, note=52, velocity=100, time=2)
Message('note_off', channel=12, note=52, velocity=0, time=22)
Message('note_on', channel=12, note=47, velocity=100, time=2)
Message('note_off', channel=12, note=47, velocity=0, time=22)
Message('note_on', channel=12, note=54, velocity=100, time=2)
Message('note_off', channel=12, note=54, velocity=0, time=22)
Message('note_on', channel=12, note=45, velocity=100, time=2)
Message('note_off', channel=12, note=45, velocity=0, time=22)
Message('note_on', channel=12, note=57, velocity=100, time=2)
Message('note_off', channel=12, note=57, velocity=0, time=22)
Message('note_on', channel=12, note=52, velocity=100, time=2)
Message('note_off', channel=12, note=52, velocity=0, time=22)
Message('note_on', channel=12, note=57, velocity=100, time=2)
Message('note_off', channel=12, note=57, velocity=0, time=22)
Message('note_on', channel=12, note=54, velocity=100, time=2)
Message('note_off', channel=12, note=54, velocity=0, time=22)
Message('note_on', channel=12, note=50, velocity=100, time=2)
Message('note_off', channel=12, note=50, velocity=0, time=22)
Message('note_on', channel=12, note=57, velocity=100, time=2)
Message('note_off', channel=12, note=57, velocity=0, time=22)
Message('note_on', channel=12, note=54, velocity=100, time=2)
Message('note_off', channel=12, note=54, velocity=0, time=22)
Message('note_on', channel=12, note=50, velocity=100, time=2)
Message('note_off', channel=12, note=50, velocity=0, time=22)
Message('note_on', channel=12, note=62, velocity=100, time=2)
Message('note_off', channel=12, note=62, velocity=0, time=22)
Message('note_on', channel=12, note=57, velocity=100, time=2)
Message('note_off', channel=12, note=57, velocity=0, time=22)
Message('note_on', channel=12, note=56, velocity=100, time=2)
Message('note_off', channel=12, note=56, velocity=0, time=22)
Message('note_on', channel=12, note=52, velocity=100, time=2)
Message('note_off', channel=12, note=52, velocity=0, time=22)
Message('note_on', channel=12, note=47, velocity=100, time=2)
Message('note_off', channel=12, note=47, velocity=0, time=22)
Message('note_on', channel=12, note=56, velocity=100, time=2)
Message('note_off', channel=12, note=56, velocity=0, time=22)
Message('note_on', channel=12, note=52, velocity=100, time=2)
Message('note_off', channel=12, note=52, velocity=0, time=22)
Message('note_on', channel=12, note=47, velocity=100, time=2)
Message('note_off', channel=12, note=47, velocity=0, time=22)
Message('note_on', channel=12, note=59, velocity=100, time=2)
Message('note_off', channel=12, note=59, velocity=0, time=22)
Message('note_on', channel=12, note=56, velocity=100, time=2)
Message('note_off', channel=12, note=56, velocity=0, time=22)
Message('note_on', channel=12, note=57, velocity=100, time=2)
Message('note_off', channel=12, note=57, velocity=0, time=22)
Message('note_on', channel=12, note=61, velocity=100, time=2)
Message('note_off', channel=12, note=61, velocity=0, time=22)
Message('note_on', channel=12, note=66, velocity=100, time=2)
Message('note_off', channel=12, note=66, velocity=0, time=22)
Message('note_on', channel=12, note=59, velocity=100, time=2)
Message('note_off', channel=12, note=59, velocity=0, time=22)
Message('note_on', channel=12, note=64, velocity=100, time=2)
Message('note_off', channel=12, note=64, velocity=0, time=22)
Message('note_on', channel=12, note=68, velocity=100, time=2)
Message('note_off', channel=12, note=68, velocity=0, time=22)
Message('note_on', channel=12, note=61, velocity=100, time=2)
Message('note_off', channel=12, note=61, velocity=0, time=22)
Message('note_on', channel=12, note=66, velocity=100, time=2)
Message('note_off', channel=12, note=66, velocity=0, time=22)
Message('note_on', channel=12, note=69, velocity=100, time=2)
Message('note_off', channel=12, note=69, velocity=0, time=22)
Message('note_on', channel=12, note=68, velocity=100, time=2)
Message('note_off', channel=12, note=68, velocity=0, time=22)
Message('note_on', channel=12, note=64, velocity=100, time=2)
Message('note_off', channel=12, note=64, velocity=0, time=22)
Message('note_on', channel=12, note=59, velocity=100, time=2)
Message('note_off', channel=12, note=59, velocity=0, time=22)
Message('note_on', channel=12, note=66, velocity=100, time=2)
Message('note_off', channel=12, note=66, velocity=0, time=22)
Message('note_on', channel=12, note=61, velocity=100, time=2)
Message('note_off', channel=12, note=61, velocity=0, time=22)
Message('note_on', channel=12, note=57, velocity=100, time=2)
Message('note_off', channel=12, note=57, velocity=0, time=22)
Message('note_on', channel=12, note=56, velocity=100, time=2)
Message('note_off', channel=12, note=56, velocity=0, time=22)
Message('note_on', channel=12, note=54, velocity=100, time=2)
Message('note_off', channel=12, note=54, velocity=0, time=22)
Message('note_on', channel=12, note=50, velocity=100, time=2)
Message('note_off', channel=12, note=50, velocity=0, time=22)
Message('note_on', channel=12, note=45, velocity=100, time=2)
Message('note_off', channel=12, note=45, velocity=0, time=22)
Message('note_on', channel=12, note=50, velocity=100, time=2)
Message('note_off', channel=12, note=50, velocity=0, time=22)
Message('note_on', channel=12, note=57, velocity=100, time=2)
Message('note_off', channel=12, note=57, velocity=0, time=22)
Message('note_on', channel=12, note=54, velocity=100, time=2)
Message('note_off', channel=12, note=54, velocity=0, time=22)
Message('note_on', channel=12, note=50, velocity=100, time=2)
Message('note_off', channel=12, note=50, velocity=0, time=22)
Message('note_on', channel=12, note=45, velocity=100, time=2)
Message('note_off', channel=12, note=45, velocity=0, time=22)
Message('note_on', channel=12, note=47, velocity=100, time=2)
Message('note_off', channel=12, note=47, velocity=0, time=22)
Message('note_on', channel=12, note=52, velocity=100, time=2)
Message('note_off', channel=12, note=52, velocity=0, time=22)
Message('note_on', channel=12, note=56, velocity=100, time=2)
Message('note_off', channel=12, note=56, velocity=0, time=22)
Message('note_on', channel=12, note=59, velocity=100, time=2)
Message('note_off', channel=12, note=59, velocity=0, time=22)
Message('note_on', channel=12, note=56, velocity=100, time=2)
Message('note_off', channel=12, note=56, velocity=0, time=22)
Message('note_on', channel=12, note=59, velocity=100, time=2)
Message('note_off', channel=12, note=59, velocity=0, time=22)
Message('note_on', channel=12, note=64, velocity=100, time=2)
Message('note_off', channel=12, note=64, velocity=0, time=22)
Message('note_on', channel=12, note=59, velocity=100, time=2)
Message('note_off', channel=12, note=59, velocity=0, time=22)
Message('note_on', channel=12, note=61, velocity=100, time=2)
Message('note_off', channel=12, note=61, velocity=0, time=22)
Message('note_on', channel=12, note=57, velocity=100, time=2)
Message('note_off', channel=12, note=57, velocity=0, time=22)
Message('note_on', channel=12, note=54, velocity=100, time=2)
Message('note_off', channel=12, note=54, velocity=0, time=22)
Message('note_on', channel=12, note=59, velocity=100, time=2)
Message('note_off', channel=12, note=59, velocity=0, time=22)
Message('note_on', channel=12, note=56, velocity=100, time=2)
Message('note_off', channel=12, note=56, velocity=0, time=22)
Message('note_on', channel=12, note=52, velocity=100, time=2)
Message('note_off', channel=12, note=52, velocity=0, time=22)
Message('note_on', channel=12, note=57, velocity=100, time=2)
Message('note_off', channel=12, note=57, velocity=0, time=22)
Message('note_on', channel=12, note=54, velocity=100, time=2)
Message('note_off', channel=12, note=54, velocity=0, time=22)
Message('note_on', channel=12, note=49, velocity=100, time=2)
Message('note_off', channel=12, note=49, velocity=0, time=22)
Message('note_on', channel=12, note=56, velocity=100, time=2)
Message('note_off', channel=12, note=56, velocity=0, time=22)
Message('note_on', channel=12, note=52, velocity=100, time=2)
Message('note_off', channel=12, note=52, velocity=0, time=22)
Message('note_on', channel=12, note=47, velocity=100, time=2)
Message('note_off', channel=12, note=47, velocity=0, time=22)
Message('note_on', channel=12, note=54, velocity=100, time=2)
Message('note_off', channel=12, note=54, velocity=0, time=22)
Message('note_on', channel=12, note=45, velocity=100, time=2)
Message('note_off', channel=12, note=45, velocity=0, time=22)
Message('note_on', channel=12, note=57, velocity=100, time=2)
Message('note_off', channel=12, note=57, velocity=0, time=22)
Message('note_on', channel=12, note=52, velocity=100, time=2)
Message('note_off', channel=12, note=52, velocity=0, time=22)
Message('note_on', channel=12, note=57, velocity=100, time=2)
Message('note_off', channel=12, note=57, velocity=0, time=22)
Message('note_on', channel=12, note=54, velocity=100, time=2)
Message('note_off', channel=12, note=54, velocity=0, time=22)
Message('note_on', channel=12, note=50, velocity=100, time=2)
Message('note_off', channel=12, note=50, velocity=0, time=22)
Message('note_on', channel=12, note=57, velocity=100, time=2)
Message('note_off', channel=12, note=57, velocity=0, time=22)
Message('note_on', channel=12, note=54, velocity=100, time=2)
Message('note_off', channel=12, note=54, velocity=0, time=22)
Message('note_on', channel=12, note=50, velocity=100, time=2)
Message('note_off', channel=12, note=50, velocity=0, time=22)
Message('note_on', channel=12, note=62, velocity=100, time=2)
Message('note_off', channel=12, note=62, velocity=0, time=22)
Message('note_on', channel=12, note=57, velocity=100, time=2)
Message('note_off', channel=12, note=57, velocity=0, time=22)
Message('note_on', channel=12, note=56, velocity=100, time=2)
Message('note_off', channel=12, note=56, velocity=0, time=22)
Message('note_on', channel=12, note=52, velocity=100, time=2)
Message('note_off', channel=12, note=52, velocity=0, time=22)
Message('note_on', channel=12, note=47, velocity=100, time=2)
Message('note_off', channel=12, note=47, velocity=0, time=22)
Message('note_on', channel=12, note=56, velocity=100, time=2)
Message('note_off', channel=12, note=56, velocity=0, time=22)
Message('note_on', channel=12, note=52, velocity=100, time=2)
Message('note_off', channel=12, note=52, velocity=0, time=22)
Message('note_on', channel=12, note=47, velocity=100, time=2)
Message('note_off', channel=12, note=47, velocity=0, time=22)
Message('note_on', channel=12, note=59, velocity=100, time=2)
Message('note_off', channel=12, note=59, velocity=0, time=22)
Message('note_on', channel=12, note=56, velocity=100, time=2)
Message('note_off', channel=12, note=56, velocity=0, time=22)
Message('note_on', channel=12, note=57, velocity=100, time=2)
Message('note_off', channel=12, note=57, velocity=0, time=22)
Message('note_on', channel=12, note=61, velocity=100, time=2)
Message('note_off', channel=12, note=61, velocity=0, time=22)
Message('note_on', channel=12, note=66, velocity=100, time=2)
Message('note_off', channel=12, note=66, velocity=0, time=22)
Message('note_on', channel=12, note=59, velocity=100, time=2)
Message('note_off', channel=12, note=59, velocity=0, time=22)
Message('note_on', channel=12, note=64, velocity=100, time=2)
Message('note_off', channel=12, note=64, velocity=0, time=22)
Message('note_on', channel=12, note=68, velocity=100, time=2)
Message('note_off', channel=12, note=68, velocity=0, time=22)
Message('note_on', channel=12, note=61, velocity=100, time=2)
Message('note_off', channel=12, note=61, velocity=0, time=22)
Message('note_on', channel=12, note=66, velocity=100, time=2)
Message('note_off', channel=12, note=66, velocity=0, time=22)
Message('note_on', channel=12, note=57, velocity=100, time=2)
Message('note_off', channel=12, note=57, velocity=0, time=22)
Message('note_on', channel=12, note=61, velocity=100, time=2)
Message('note_off', channel=12, note=61, velocity=0, time=22)
Message('note_on', channel=12, note=66, velocity=100, time=2)
Message('note_off', channel=12, note=66, velocity=0, time=22)
Message('note_on', channel=12, note=59, velocity=100, time=2)
Message('note_off', channel=12, note=59, velocity=0, time=22)
Message('note_on', channel=12, note=64, velocity=100, time=2)
Message('note_off', channel=12, note=64, velocity=0, time=22)
Message('note_on', channel=12, note=68, velocity=100, time=2)
Message('note_off', channel=12, note=68, velocity=0, time=22)
Message('note_on', channel=12, note=61, velocity=100, time=2)
Message('note_off', channel=12, note=61, velocity=0, time=22)
Message('note_on', channel=12, note=66, velocity=100, time=2)
Message('note_off', channel=12, note=66, velocity=0, time=22)
Message('note_on', channel=12, note=54, velocity=100, time=2)
Message('note_off', channel=12, note=54, velocity=0, time=22)
Message('note_on', channel=12, note=50, velocity=100, time=2)
Message('note_off', channel=12, note=50, velocity=0, time=22)
Message('note_on', channel=12, note=45, velocity=100, time=2)
Message('note_off', channel=12, note=45, velocity=0, time=22)
Message('note_on', channel=12, note=50, velocity=100, time=2)
Message('note_off', channel=12, note=50, velocity=0, time=22)
Message('note_on', channel=12, note=57, velocity=100, time=2)
Message('note_off', channel=12, note=57, velocity=0, time=22)
Message('note_on', channel=12, note=54, velocity=100, time=2)
Message('note_off', channel=12, note=54, velocity=0, time=22)
Message('note_on', channel=12, note=50, velocity=100, time=2)
Message('note_off', channel=12, note=50, velocity=0, time=22)
Message('note_on', channel=12, note=45, velocity=100, time=2)
Message('note_off', channel=12, note=45, velocity=0, time=22)
Message('note_on', channel=12, note=47, velocity=100, time=2)
Message('note_off', channel=12, note=47, velocity=0, time=22)
Message('note_on', channel=12, note=52, velocity=100, time=2)
Message('note_off', channel=12, note=52, velocity=0, time=22)
Message('note_on', channel=12, note=56, velocity=100, time=2)
Message('note_off', channel=12, note=56, velocity=0, time=22)
Message('note_on', channel=12, note=59, velocity=100, time=2)
Message('note_off', channel=12, note=59, velocity=0, time=22)
Message('note_on', channel=12, note=56, velocity=100, time=2)
Message('note_off', channel=12, note=56, velocity=0, time=22)
Message('note_on', channel=12, note=59, velocity=100, time=2)
Message('note_off', channel=12, note=59, velocity=0, time=22)
Message('note_on', channel=12, note=64, velocity=100, time=2)
Message('note_off', channel=12, note=64, velocity=0, time=22)
Message('note_on', channel=12, note=59, velocity=100, time=2)
Message('note_off', channel=12, note=59, velocity=0, time=22)
Message('note_on', channel=12, note=61, velocity=100, time=2)
Message('note_off', channel=12, note=61, velocity=0, time=22)
Message('note_on', channel=12, note=57, velocity=100, time=2)
Message('note_off', channel=12, note=57, velocity=0, time=22)
Message('note_on', channel=12, note=54, velocity=100, time=2)
Message('note_off', channel=12, note=54, velocity=0, time=22)
Message('note_on', channel=12, note=59, velocity=100, time=2)
Message('note_off', channel=12, note=59, velocity=0, time=22)
Message('note_on', channel=12, note=56, velocity=100, time=2)
Message('note_off', channel=12, note=56, velocity=0, time=22)
Message('note_on', channel=12, note=52, velocity=100, time=2)
Message('note_off', channel=12, note=52, velocity=0, time=22)
Message('note_on', channel=12, note=57, velocity=100, time=2)
Message('note_off', channel=12, note=57, velocity=0, time=22)
Message('note_on', channel=12, note=54, velocity=100, time=2)
Message('note_off', channel=12, note=54, velocity=0, time=22)
Message('note_on', channel=12, note=49, velocity=100, time=2)
Message('note_off', channel=12, note=49, velocity=0, time=22)
Message('note_on', channel=12, note=56, velocity=100, time=2)
Message('note_off', channel=12, note=56, velocity=0, time=22)
Message('note_on', channel=12, note=52, velocity=100, time=2)
Message('note_off', channel=12, note=52, velocity=0, time=22)
Message('note_on', channel=12, note=47, velocity=100, time=2)
Message('note_off', channel=12, note=47, velocity=0, time=22)
Message('note_on', channel=12, note=54, velocity=100, time=2)
Message('note_off', channel=12, note=54, velocity=0, time=22)
Message('note_on', channel=12, note=45, velocity=100, time=2)
Message('note_off', channel=12, note=45, velocity=0, time=22)
Message('note_on', channel=12, note=57, velocity=100, time=2)
Message('note_off', channel=12, note=57, velocity=0, time=22)
Message('note_on', channel=12, note=52, velocity=100, time=2)
Message('note_off', channel=12, note=52, velocity=0, time=22)
Message('note_on', channel=12, note=57, velocity=100, time=2)
Message('note_off', channel=12, note=57, velocity=0, time=22)
Message('note_on', channel=12, note=54, velocity=100, time=2)
Message('note_off', channel=12, note=54, velocity=0, time=22)
Message('note_on', channel=12, note=50, velocity=100, time=2)
Message('note_off', channel=12, note=50, velocity=0, time=22)
Message('note_on', channel=12, note=57, velocity=100, time=2)
Message('note_off', channel=12, note=57, velocity=0, time=22)
Message('note_on', channel=12, note=54, velocity=100, time=2)
Message('note_off', channel=12, note=54, velocity=0, time=22)
Message('note_on', channel=12, note=50, velocity=100, time=2)
Message('note_off', channel=12, note=50, velocity=0, time=22)
Message('note_on', channel=12, note=62, velocity=100, time=2)
Message('note_off', channel=12, note=62, velocity=0, time=22)
Message('note_on', channel=12, note=57, velocity=100, time=2)
Message('note_off', channel=12, note=57, velocity=0, time=22)
Message('note_on', channel=12, note=56, velocity=100, time=2)
Message('note_off', channel=12, note=56, velocity=0, time=22)
Message('note_on', channel=12, note=52, velocity=100, time=2)
Message('note_off', channel=12, note=52, velocity=0, time=22)
Message('note_on', channel=12, note=47, velocity=100, time=2)
Message('note_off', channel=12, note=47, velocity=0, time=22)
Message('note_on', channel=12, note=56, velocity=100, time=2)
Message('note_off', channel=12, note=56, velocity=0, time=22)
Message('note_on', channel=12, note=52, velocity=100, time=2)
Message('note_off', channel=12, note=52, velocity=0, time=22)
Message('note_on', channel=12, note=47, velocity=100, time=2)
Message('note_off', channel=12, note=47, velocity=0, time=22)
Message('note_on', channel=12, note=59, velocity=100, time=2)
Message('note_off', channel=12, note=59, velocity=0, time=22)
Message('note_on', channel=12, note=56, velocity=100, time=2)
Message('note_off', channel=12, note=56, velocity=0, time=22)
Message('note_on', channel=12, note=57, velocity=100, time=2)
Message('note_off', channel=12, note=57, velocity=0, time=22)
Message('note_on', channel=12, note=61, velocity=100, time=2)
Message('note_off', channel=12, note=61, velocity=0, time=22)
Message('note_on', channel=12, note=66, velocity=100, time=2)
Message('note_off', channel=12, note=66, velocity=0, time=22)
Message('note_on', channel=12, note=59, velocity=100, time=2)
Message('note_off', channel=12, note=59, velocity=0, time=22)
Message('note_on', channel=12, note=64, velocity=100, time=2)
Message('note_off', channel=12, note=64, velocity=0, time=22)
Message('note_on', channel=12, note=68, velocity=100, time=2)
Message('note_off', channel=12, note=68, velocity=0, time=22)
Message('note_on', channel=12, note=61, velocity=100, time=2)
Message('note_off', channel=12, note=61, velocity=0, time=22)
Message('note_on', channel=12, note=66, velocity=100, time=2)
Message('note_off', channel=12, note=66, velocity=0, time=22)
Message('note_on', channel=12, note=69, velocity=100, time=2)
Message('note_off', channel=12, note=69, velocity=0, time=22)
Message('note_on', channel=12, note=68, velocity=100, time=2)
Message('note_off', channel=12, note=68, velocity=0, time=22)
Message('note_on', channel=12, note=64, velocity=100, time=2)
Message('note_off', channel=12, note=64, velocity=0, time=22)
Message('note_on', channel=12, note=59, velocity=100, time=2)
Message('note_off', channel=12, note=59, velocity=0, time=22)
Message('note_on', channel=12, note=66, velocity=100, time=2)
Message('note_off', channel=12, note=66, velocity=0, time=22)
Message('note_on', channel=12, note=61, velocity=100, time=2)
Message('note_off', channel=12, note=61, velocity=0, time=22)
Message('note_on', channel=12, note=57, velocity=100, time=2)
Message('note_off', channel=12, note=57, velocity=0, time=22)
Message('note_on', channel=12, note=56, velocity=100, time=2)
Message('note_off', channel=12, note=56, velocity=0, time=22)
Message('note_on', channel=12, note=54, velocity=100, time=2)
Message('note_off', channel=12, note=54, velocity=0, time=22)
Message('note_on', channel=12, note=50, velocity=100, time=2)
Message('note_off', channel=12, note=50, velocity=0, time=22)
Message('note_on', channel=12, note=45, velocity=100, time=2)
Message('note_off', channel=12, note=45, velocity=0, time=22)
Message('note_on', channel=12, note=50, velocity=100, time=2)
Message('note_off', channel=12, note=50, velocity=0, time=22)
Message('note_on', channel=12, note=57, velocity=100, time=2)
Message('note_off', channel=12, note=57, velocity=0, time=22)
Message('note_on', channel=12, note=54, velocity=100, time=2)
Message('note_off', channel=12, note=54, velocity=0, time=22)
Message('note_on', channel=12, note=50, velocity=100, time=2)
Message('note_off', channel=12, note=50, velocity=0, time=22)
Message('note_on', channel=12, note=45, velocity=100, time=2)
Message('note_off', channel=12, note=45, velocity=0, time=22)
Message('note_on', channel=12, note=47, velocity=100, time=2)
Message('note_off', channel=12, note=47, velocity=0, time=22)
Message('note_on', channel=12, note=52, velocity=100, time=2)
Message('note_off', channel=12, note=52, velocity=0, time=22)
Message('note_on', channel=12, note=56, velocity=100, time=2)
Message('note_off', channel=12, note=56, velocity=0, time=22)
Message('note_on', channel=12, note=59, velocity=100, time=2)
Message('note_off', channel=12, note=59, velocity=0, time=22)
Message('note_on', channel=12, note=56, velocity=100, time=2)
Message('note_off', channel=12, note=56, velocity=0, time=22)
Message('note_on', channel=12, note=59, velocity=100, time=2)
Message('note_off', channel=12, note=59, velocity=0, time=22)
Message('note_on', channel=12, note=64, velocity=100, time=2)
Message('note_off', channel=12, note=64, velocity=0, time=22)
Message('note_on', channel=12, note=59, velocity=100, time=2)
Message('note_off', channel=12, note=59, velocity=0, time=22)
Message('note_on', channel=12, note=61, velocity=100, time=2)
Message('note_off', channel=12, note=61, velocity=0, time=22)
Message('note_on', channel=12, note=57, velocity=100, time=2)
Message('note_off', channel=12, note=57, velocity=0, time=22)
Message('note_on', channel=12, note=54, velocity=100, time=2)
Message('note_off', channel=12, note=54, velocity=0, time=22)
Message('note_on', channel=12, note=59, velocity=100, time=2)
Message('note_off', channel=12, note=59, velocity=0, time=22)
Message('note_on', channel=12, note=56, velocity=100, time=2)
Message('note_off', channel=12, note=56, velocity=0, time=22)
Message('note_on', channel=12, note=52, velocity=100, time=2)
Message('note_off', channel=12, note=52, velocity=0, time=22)
Message('note_on', channel=12, note=57, velocity=100, time=2)
Message('note_off', channel=12, note=57, velocity=0, time=22)
Message('note_on', channel=12, note=54, velocity=100, time=2)
Message('note_off', channel=12, note=54, velocity=0, time=22)
Message('note_on', channel=12, note=49, velocity=100, time=2)
Message('note_off', channel=12, note=49, velocity=0, time=22)
Message('note_on', channel=12, note=56, velocity=100, time=2)
Message('note_off', channel=12, note=56, velocity=0, time=22)
Message('note_on', channel=12, note=52, velocity=100, time=2)
Message('note_off', channel=12, note=52, velocity=0, time=22)
Message('note_on', channel=12, note=47, velocity=100, time=2)
Message('note_off', channel=12, note=47, velocity=0, time=22)
Message('note_on', channel=12, note=54, velocity=100, time=2)
Message('note_off', channel=12, note=54, velocity=0, time=22)
Message('note_on', channel=12, note=45, velocity=100, time=2)
Message('note_off', channel=12, note=45, velocity=0, time=22)
Message('note_on', channel=12, note=57, velocity=100, time=2)
Message('note_off', channel=12, note=57, velocity=0, time=22)
Message('note_on', channel=12, note=52, velocity=100, time=2)
Message('note_off', channel=12, note=52, velocity=0, time=22)
Message('note_on', channel=12, note=57, velocity=100, time=2)
Message('note_off', channel=12, note=57, velocity=0, time=22)
Message('note_on', channel=12, note=54, velocity=100, time=2)
Message('note_off', channel=12, note=54, velocity=0, time=22)
Message('note_on', channel=12, note=50, velocity=100, time=2)
Message('note_off', channel=12, note=50, velocity=0, time=22)
Message('note_on', channel=12, note=57, velocity=100, time=2)
Message('note_off', channel=12, note=57, velocity=0, time=22)
Message('note_on', channel=12, note=54, velocity=100, time=2)
Message('note_off', channel=12, note=54, velocity=0, time=22)
Message('note_on', channel=12, note=50, velocity=100, time=2)
Message('note_off', channel=12, note=50, velocity=0, time=22)
Message('note_on', channel=12, note=62, velocity=100, time=2)
Message('note_off', channel=12, note=62, velocity=0, time=22)
Message('note_on', channel=12, note=57, velocity=100, time=2)
Message('note_off', channel=12, note=57, velocity=0, time=22)
Message('note_on', channel=12, note=56, velocity=100, time=2)
Message('note_off', channel=12, note=56, velocity=0, time=22)
Message('note_on', channel=12, note=52, velocity=100, time=2)
Message('note_off', channel=12, note=52, velocity=0, time=22)
Message('note_on', channel=12, note=47, velocity=100, time=2)
Message('note_off', channel=12, note=47, velocity=0, time=22)
Message('note_on', channel=12, note=56, velocity=100, time=2)
Message('note_off', channel=12, note=56, velocity=0, time=22)
Message('note_on', channel=12, note=52, velocity=100, time=2)
Message('note_off', channel=12, note=52, velocity=0, time=22)
Message('note_on', channel=12, note=47, velocity=100, time=2)
Message('note_off', channel=12, note=47, velocity=0, time=22)
Message('note_on', channel=12, note=59, velocity=100, time=2)
Message('note_off', channel=12, note=59, velocity=0, time=22)
Message('note_on', channel=12, note=56, velocity=100, time=2)
Message('note_off', channel=12, note=56, velocity=0, time=22)
Message('note_on', channel=12, note=57, velocity=100, time=2)
Message('note_off', channel=12, note=57, velocity=0, time=22)
Message('note_on', channel=12, note=61, velocity=100, time=2)
Message('note_off', channel=12, note=61, velocity=0, time=22)
Message('note_on', channel=12, note=66, velocity=100, time=2)
Message('note_off', channel=12, note=66, velocity=0, time=22)
Message('note_on', channel=12, note=59, velocity=100, time=2)
Message('note_off', channel=12, note=59, velocity=0, time=22)
Message('note_on', channel=12, note=64, velocity=100, time=2)
Message('note_off', channel=12, note=64, velocity=0, time=22)
Message('note_on', channel=12, note=68, velocity=100, time=2)
Message('note_off', channel=12, note=68, velocity=0, time=22)
Message('note_on', channel=12, note=61, velocity=100, time=2)
Message('note_off', channel=12, note=61, velocity=0, time=22)
Message('note_on', channel=12, note=66, velocity=100, time=2)
Message('note_off', channel=12, note=66, velocity=0, time=22)
Message('note_on', channel=12, note=69, velocity=100, time=2)
Message('note_off', channel=12, note=69, velocity=0, time=22)
Message('note_on', channel=12, note=68, velocity=100, time=2)
Message('note_off', channel=12, note=68, velocity=0, time=22)
Message('note_on', channel=12, note=64, velocity=100, time=2)
Message('note_off', channel=12, note=64, velocity=0, time=22)
Message('note_on', channel=12, note=59, velocity=100, time=2)
Message('note_off', channel=12, note=59, velocity=0, time=22)
Message('note_on', channel=12, note=66, velocity=100, time=2)
Message('note_off', channel=12, note=66, velocity=0, time=22)
Message('note_on', channel=12, note=61, velocity=100, time=2)
Message('note_off', channel=12, note=61, velocity=0, time=22)
Message('note_on', channel=12, note=57, velocity=100, time=2)
Message('note_off', channel=12, note=57, velocity=0, time=22)
Message('note_on', channel=12, note=56, velocity=100, time=2)
Message('note_off', channel=12, note=56, velocity=0, time=22)
Message('note_on', channel=12, note=54, velocity=100, time=2)
Message('note_off', channel=12, note=54, velocity=0, time=22)
Message('note_on', channel=12, note=50, velocity=100, time=2)
Message('note_off', channel=12, note=50, velocity=0, time=22)
Message('note_on', channel=12, note=45, velocity=100, time=2)
Message('note_off', channel=12, note=45, velocity=0, time=22)
Message('note_on', channel=12, note=50, velocity=100, time=2)
Message('note_off', channel=12, note=50, velocity=0, time=22)
Message('note_on', channel=12, note=57, velocity=100, time=2)
Message('note_off', channel=12, note=57, velocity=0, time=22)
Message('note_on', channel=12, note=54, velocity=100, time=2)
Message('note_off', channel=12, note=54, velocity=0, time=22)
Message('note_on', channel=12, note=50, velocity=100, time=2)
Message('note_off', channel=12, note=50, velocity=0, time=22)
Message('note_on', channel=12, note=45, velocity=100, time=2)
Message('note_off', channel=12, note=45, velocity=0, time=22)
Message('note_on', channel=12, note=47, velocity=100, time=2)
Message('note_off', channel=12, note=47, velocity=0, time=22)
Message('note_on', channel=12, note=52, velocity=100, time=2)
Message('note_off', channel=12, note=52, velocity=0, time=22)
Message('note_on', channel=12, note=56, velocity=100, time=2)
Message('note_off', channel=12, note=56, velocity=0, time=22)
Message('note_on', channel=12, note=59, velocity=100, time=2)
Message('note_off', channel=12, note=59, velocity=0, time=22)
Message('note_on', channel=12, note=56, velocity=100, time=2)
Message('note_off', channel=12, note=56, velocity=0, time=22)
Message('note_on', channel=12, note=59, velocity=100, time=2)
Message('note_off', channel=12, note=59, velocity=0, time=22)
Message('note_on', channel=12, note=64, velocity=100, time=2)
Message('note_off', channel=12, note=64, velocity=0, time=22)
Message('note_on', channel=12, note=59, velocity=100, time=2)
Message('note_off', channel=12, note=59, velocity=0, time=22)
Message('note_on', channel=12, note=61, velocity=100, time=2)
Message('note_off', channel=12, note=61, velocity=0, time=22)
Message('note_on', channel=12, note=57, velocity=100, time=2)
Message('note_off', channel=12, note=57, velocity=0, time=22)
Message('note_on', channel=12, note=54, velocity=100, time=2)
Message('note_off', channel=12, note=54, velocity=0, time=22)
Message('note_on', channel=12, note=59, velocity=100, time=2)
Message('note_off', channel=12, note=59, velocity=0, time=22)
Message('note_on', channel=12, note=56, velocity=100, time=2)
Message('note_off', channel=12, note=56, velocity=0, time=22)
Message('note_on', channel=12, note=52, velocity=100, time=2)
Message('note_off', channel=12, note=52, velocity=0, time=22)
Message('note_on', channel=12, note=57, velocity=100, time=2)
Message('note_off', channel=12, note=57, velocity=0, time=22)
Message('note_on', channel=12, note=54, velocity=100, time=2)
Message('note_off', channel=12, note=54, velocity=0, time=22)
Message('note_on', channel=12, note=49, velocity=100, time=2)
Message('note_off', channel=12, note=49, velocity=0, time=22)
Message('note_on', channel=12, note=56, velocity=100, time=2)
Message('note_off', channel=12, note=56, velocity=0, time=22)
Message('note_on', channel=12, note=52, velocity=100, time=2)
Message('note_off', channel=12, note=52, velocity=0, time=22)
Message('note_on', channel=12, note=47, velocity=100, time=2)
Message('note_off', channel=12, note=47, velocity=0, time=22)
Message('note_on', channel=12, note=54, velocity=100, time=2)
Message('note_off', channel=12, note=54, velocity=0, time=22)
Message('note_on', channel=12, note=45, velocity=100, time=2)
Message('note_off', channel=12, note=45, velocity=0, time=22)
Message('note_on', channel=12, note=57, velocity=100, time=2)
Message('note_off', channel=12, note=57, velocity=0, time=22)
Message('note_on', channel=12, note=52, velocity=100, time=2)
Message('note_off', channel=12, note=52, velocity=0, time=22)
Message('note_on', channel=12, note=57, velocity=100, time=2)
Message('note_off', channel=12, note=57, velocity=0, time=22)
Message('note_on', channel=12, note=54, velocity=100, time=2)
Message('note_off', channel=12, note=54, velocity=0, time=22)
Message('note_on', channel=12, note=50, velocity=100, time=2)
Message('note_off', channel=12, note=50, velocity=0, time=22)
Message('note_on', channel=12, note=57, velocity=100, time=2)
Message('note_off', channel=12, note=57, velocity=0, time=22)
Message('note_on', channel=12, note=54, velocity=100, time=2)
Message('note_off', channel=12, note=54, velocity=0, time=22)
Message('note_on', channel=12, note=50, velocity=100, time=2)
Message('note_off', channel=12, note=50, velocity=0, time=22)
Message('note_on', channel=12, note=62, velocity=100, time=2)
Message('note_off', channel=12, note=62, velocity=0, time=22)
Message('note_on', channel=12, note=57, velocity=100, time=2)
Message('note_off', channel=12, note=57, velocity=0, time=22)
Message('note_on', channel=12, note=56, velocity=100, time=2)
Message('note_off', channel=12, note=56, velocity=0, time=22)
Message('note_on', channel=12, note=52, velocity=100, time=2)
Message('note_off', channel=12, note=52, velocity=0, time=22)
Message('note_on', channel=12, note=47, velocity=100, time=2)
Message('note_off', channel=12, note=47, velocity=0, time=22)
Message('note_on', channel=12, note=56, velocity=100, time=2)
Message('note_off', channel=12, note=56, velocity=0, time=22)
Message('note_on', channel=12, note=52, velocity=100, time=2)
Message('note_off', channel=12, note=52, velocity=0, time=22)
Message('note_on', channel=12, note=47, velocity=100, time=2)
Message('note_off', channel=12, note=47, velocity=0, time=22)
Message('note_on', channel=12, note=59, velocity=100, time=2)
Message('note_off', channel=12, note=59, velocity=0, time=22)
Message('note_on', channel=12, note=56, velocity=100, time=2)
Message('note_off', channel=12, note=56, velocity=0, time=22)
Message('note_on', channel=12, note=57, velocity=100, time=2)
Message('note_off', channel=12, note=57, velocity=0, time=22)
Message('note_on', channel=12, note=61, velocity=100, time=2)
Message('note_off', channel=12, note=61, velocity=0, time=22)
Message('note_on', channel=12, note=66, velocity=100, time=2)
Message('note_off', channel=12, note=66, velocity=0, time=22)
Message('note_on', channel=12, note=59, velocity=100, time=2)
Message('note_off', channel=12, note=59, velocity=0, time=22)
Message('note_on', channel=12, note=64, velocity=100, time=2)
Message('note_off', channel=12, note=64, velocity=0, time=22)
Message('note_on', channel=12, note=68, velocity=100, time=2)
Message('note_off', channel=12, note=68, velocity=0, time=22)
Message('note_on', channel=12, note=61, velocity=100, time=2)
Message('note_off', channel=12, note=61, velocity=0, time=22)
Message('note_on', channel=12, note=66, velocity=100, time=2)
Message('note_off', channel=12, note=66, velocity=0, time=22)
Message('note_on', channel=12, note=69, velocity=100, time=2)
Message('note_off', channel=12, note=69, velocity=0, time=22)
Message('note_on', channel=12, note=68, velocity=100, time=2)
Message('note_off', channel=12, note=68, velocity=0, time=22)
Message('note_on', channel=12, note=64, velocity=100, time=2)
Message('note_off', channel=12, note=64, velocity=0, time=22)
Message('note_on', channel=12, note=59, velocity=100, time=2)
Message('note_off', channel=12, note=59, velocity=0, time=22)
Message('note_on', channel=12, note=66, velocity=100, time=2)
Message('note_off', channel=12, note=66, velocity=0, time=22)
Message('note_on', channel=12, note=61, velocity=100, time=2)
Message('note_off', channel=12, note=61, velocity=0, time=22)
Message('note_on', channel=12, note=57, velocity=100, time=2)
Message('note_off', channel=12, note=57, velocity=0, time=22)
Message('note_on', channel=12, note=56, velocity=100, time=2)
Message('note_off', channel=12, note=56, velocity=0, time=22)
Message('note_on', channel=12, note=54, velocity=100, time=2)
Message('note_off', channel=12, note=54, velocity=0, time=22)
Message('note_on', channel=12, note=50, velocity=100, time=2)
Message('note_off', channel=12, note=50, velocity=0, time=22)
Message('note_on', channel=12, note=45, velocity=100, time=2)
Message('note_off', channel=12, note=45, velocity=0, time=22)
Message('note_on', channel=12, note=50, velocity=100, time=2)
Message('note_off', channel=12, note=50, velocity=0, time=22)
Message('note_on', channel=12, note=57, velocity=100, time=2)
Message('note_off', channel=12, note=57, velocity=0, time=22)
Message('note_on', channel=12, note=54, velocity=100, time=2)
Message('note_off', channel=12, note=54, velocity=0, time=22)
Message('note_on', channel=12, note=50, velocity=100, time=2)
Message('note_off', channel=12, note=50, velocity=0, time=22)
Message('note_on', channel=12, note=45, velocity=100, time=2)
Message('note_off', channel=12, note=45, velocity=0, time=22)
Message('note_on', channel=12, note=47, velocity=100, time=2)
Message('note_off', channel=12, note=47, velocity=0, time=22)
Message('note_on', channel=12, note=52, velocity=100, time=2)
Message('note_off', channel=12, note=52, velocity=0, time=22)
Message('note_on', channel=12, note=56, velocity=100, time=2)
Message('note_off', channel=12, note=56, velocity=0, time=22)
Message('note_on', channel=12, note=59, velocity=100, time=2)
Message('note_off', channel=12, note=59, velocity=0, time=22)
Message('note_on', channel=12, note=56, velocity=100, time=2)
Message('note_off', channel=12, note=56, velocity=0, time=22)
Message('note_on', channel=12, note=59, velocity=100, time=2)
Message('note_off', channel=12, note=59, velocity=0, time=22)
Message('note_on', channel=12, note=64, velocity=100, time=2)
Message('note_off', channel=12, note=64, velocity=0, time=22)
Message('note_on', channel=12, note=59, velocity=100, time=2)
Message('note_off', channel=12, note=59, velocity=0, time=22)
Message('note_on', channel=12, note=61, velocity=100, time=2)
Message('note_off', channel=12, note=61, velocity=0, time=22)
Message('note_on', channel=12, note=57, velocity=100, time=2)
Message('note_off', channel=12, note=57, velocity=0, time=22)
Message('note_on', channel=12, note=54, velocity=100, time=2)
Message('note_off', channel=12, note=54, velocity=0, time=22)
Message('note_on', channel=12, note=59, velocity=100, time=2)
Message('note_off', channel=12, note=59, velocity=0, time=22)
Message('note_on', channel=12, note=56, velocity=100, time=2)
Message('note_off', channel=12, note=56, velocity=0, time=22)
Message('note_on', channel=12, note=52, velocity=100, time=2)
Message('note_off', channel=12, note=52, velocity=0, time=22)
Message('note_on', channel=12, note=57, velocity=100, time=2)
Message('note_off', channel=12, note=57, velocity=0, time=22)
Message('note_on', channel=12, note=54, velocity=100, time=2)
Message('note_off', channel=12, note=54, velocity=0, time=22)
Message('note_on', channel=12, note=49, velocity=100, time=2)
Message('note_off', channel=12, note=49, velocity=0, time=22)
Message('note_on', channel=12, note=56, velocity=100, time=2)
Message('note_off', channel=12, note=56, velocity=0, time=22)
Message('note_on', channel=12, note=52, velocity=100, time=2)
Message('note_off', channel=12, note=52, velocity=0, time=22)
Message('note_on', channel=12, note=47, velocity=100, time=2)
Message('note_off', channel=12, note=47, velocity=0, time=22)
Message('note_on', channel=12, note=54, velocity=100, time=2)
Message('note_off', channel=12, note=54, velocity=0, time=22)
Message('note_on', channel=12, note=45, velocity=100, time=2)
Message('note_off', channel=12, note=45, velocity=0, time=22)
Message('note_on', channel=12, note=57, velocity=100, time=2)
Message('note_off', channel=12, note=57, velocity=0, time=22)
Message('note_on', channel=12, note=52, velocity=100, time=2)
Message('note_off', channel=12, note=52, velocity=0, time=22)
Message('note_on', channel=12, note=57, velocity=100, time=2)
Message('note_off', channel=12, note=57, velocity=0, time=22)
Message('note_on', channel=12, note=54, velocity=100, time=2)
Message('note_off', channel=12, note=54, velocity=0, time=22)
Message('note_on', channel=12, note=50, velocity=100, time=2)
Message('note_off', channel=12, note=50, velocity=0, time=22)
Message('note_on', channel=12, note=57, velocity=100, time=2)
Message('note_off', channel=12, note=57, velocity=0, time=22)
Message('note_on', channel=12, note=54, velocity=100, time=2)
Message('note_off', channel=12, note=54, velocity=0, time=22)
Message('note_on', channel=12, note=50, velocity=100, time=2)
Message('note_off', channel=12, note=50, velocity=0, time=22)
Message('note_on', channel=12, note=62, velocity=100, time=2)
Message('note_off', channel=12, note=62, velocity=0, time=22)
Message('note_on', channel=12, note=57, velocity=100, time=2)
Message('note_off', channel=12, note=57, velocity=0, time=22)
Message('note_on', channel=12, note=56, velocity=100, time=2)
Message('note_off', channel=12, note=56, velocity=0, time=22)
Message('note_on', channel=12, note=52, velocity=100, time=2)
Message('note_off', channel=12, note=52, velocity=0, time=22)
Message('note_on', channel=12, note=47, velocity=100, time=2)
Message('note_off', channel=12, note=47, velocity=0, time=22)
Message('note_on', channel=12, note=56, velocity=100, time=2)
Message('note_off', channel=12, note=56, velocity=0, time=22)
Message('note_on', channel=12, note=52, velocity=100, time=2)
Message('note_off', channel=12, note=52, velocity=0, time=22)
Message('note_on', channel=12, note=47, velocity=100, time=2)
Message('note_off', channel=12, note=47, velocity=0, time=22)
Message('note_on', channel=12, note=59, velocity=100, time=2)
Message('note_off', channel=12, note=59, velocity=0, time=22)
Message('note_on', channel=12, note=56, velocity=100, time=2)
Message('note_off', channel=12, note=56, velocity=0, time=22)
Message('note_on', channel=12, note=57, velocity=100, time=2)
Message('note_off', channel=12, note=57, velocity=0, time=22)
Message('note_on', channel=12, note=61, velocity=100, time=2)
Message('note_off', channel=12, note=61, velocity=0, time=22)
Message('note_on', channel=12, note=66, velocity=100, time=2)
Message('note_off', channel=12, note=66, velocity=0, time=22)
Message('note_on', channel=12, note=59, velocity=100, time=2)
Message('note_off', channel=12, note=59, velocity=0, time=22)
Message('note_on', channel=12, note=64, velocity=100, time=2)
Message('note_off', channel=12, note=64, velocity=0, time=22)
Message('note_on', channel=12, note=68, velocity=100, time=2)
Message('note_off', channel=12, note=68, velocity=0, time=22)
Message('note_on', channel=12, note=61, velocity=100, time=2)
Message('note_off', channel=12, note=61, velocity=0, time=22)
Message('note_on', channel=12, note=66, velocity=100, time=2)
Message('note_off', channel=12, note=66, velocity=0, time=22)
Message('note_on', channel=12, note=66, velocity=120, time=2)
Message('note_on', channel=12, note=57, velocity=120, time=0)
Message('note_off', channel=12, note=66, velocity=0, time=92)
Message('note_off', channel=12, note=57, velocity=0, time=0)
Message('note_on', channel=12, note=68, velocity=120, time=4)
Message('note_on', channel=12, note=59, velocity=120, time=0)
Message('control_change', channel=12, control=10, value=70, time=88)
Message('note_off', channel=12, note=59, velocity=0, time=4)
Message('note_off', channel=12, note=68, velocity=0, time=0)
Message('control_change', channel=12, control=101, value=0, time=388)
Message('control_change', channel=12, control=100, value=0, time=0)
Message('control_change', channel=12, control=6, value=12, time=0)
Message('control_change', channel=12, control=10, value=70, time=0)
Message('control_change', channel=12, control=7, value=80, time=0)
Message('pitchwheel', channel=12, pitch=0, time=0)
Message('program_change', channel=12, program=4, time=0)
Message('control_change', channel=12, control=91, value=20, time=0)
Message('control_change', channel=12, control=93, value=0, time=0)
Message('control_change', channel=12, control=101, value=0, time=1)
Message('control_change', channel=12, control=100, value=0, time=0)
Message('control_change', channel=12, control=6, value=12, time=0)
Message('control_change', channel=12, control=10, value=70, time=0)
Message('control_change', channel=12, control=7, value=80, time=0)
Message('pitchwheel', channel=12, pitch=0, time=0)
Message('program_change', channel=12, program=4, time=0)
Message('control_change', channel=12, control=91, value=20, time=0)
Message('control_change', channel=12, control=93, value=0, time=0)
Message('control_change', channel=12, control=101, value=0, time=0)
Message('control_change', channel=12, control=100, value=0, time=0)
Message('control_change', channel=12, control=6, value=12, time=0)
Message('control_change', channel=12, control=10, value=70, time=0)
Message('control_change', channel=12, control=7, value=80, time=0)
Message('pitchwheel', channel=12, pitch=0, time=0)
Message('program_change', channel=12, program=4, time=0)
Message('control_change', channel=12, control=91, value=20, time=0)
Message('control_change', channel=12, control=93, value=0, time=0)
MetaMessage('end_of_track', time=0)
=== Track 14
MetaMessage('track_name', name='Channel #14', time=0)
Message('control_change', channel=13, control=10, value=64, time=0)
Message('control_change', channel=13, control=7, value=100, time=0)
Message('pitchwheel', channel=13, pitch=0, time=0)
Message('control_change', channel=13, control=101, value=0, time=0)
Message('control_change', channel=13, control=100, value=0, time=0)
Message('control_change', channel=13, control=6, value=12, time=0)
Message('control_change', channel=13, control=10, value=64, time=0)
Message('control_change', channel=13, control=7, value=100, time=0)
Message('pitchwheel', channel=13, pitch=0, time=0)
Message('program_change', channel=13, program=0, time=0)
Message('control_change', channel=13, control=91, value=50, time=0)
Message('control_change', channel=13, control=93, value=10, time=0)
Message('control_change', channel=13, control=101, value=0, time=0)
Message('control_change', channel=13, control=100, value=0, time=0)
Message('control_change', channel=13, control=6, value=12, time=0)
Message('control_change', channel=13, control=10, value=64, time=0)
Message('control_change', channel=13, control=7, value=100, time=0)
Message('pitchwheel', channel=13, pitch=0, time=0)
Message('program_change', channel=13, program=0, time=0)
Message('control_change', channel=13, control=91, value=50, time=0)
Message('control_change', channel=13, control=93, value=10, time=0)
Message('control_change', channel=13, control=10, value=64, time=0)
Message('control_change', channel=13, control=7, value=100, time=0)
Message('pitchwheel', channel=13, pitch=0, time=0)
Message('program_change', channel=13, program=0, time=0)
Message('control_change', channel=13, control=91, value=50, time=0)
Message('control_change', channel=13, control=93, value=10, time=0)
Message('control_change', channel=13, control=101, value=0, time=0)
Message('control_change', channel=13, control=100, value=0, time=0)
Message('control_change', channel=13, control=6, value=12, time=0)
Message('control_change', channel=13, control=10, value=64, time=0)
Message('control_change', channel=13, control=7, value=100, time=0)
Message('pitchwheel', channel=13, pitch=0, time=0)
Message('program_change', channel=13, program=0, time=0)
Message('control_change', channel=13, control=91, value=50, time=0)
Message('control_change', channel=13, control=93, value=10, time=0)
Message('control_change', channel=13, control=10, value=64, time=0)
Message('control_change', channel=13, control=7, value=100, time=0)
Message('pitchwheel', channel=13, pitch=0, time=0)
Message('program_change', channel=13, program=0, time=0)
Message('control_change', channel=13, control=91, value=50, time=0)
Message('control_change', channel=13, control=93, value=10, time=0)
Message('note_on', channel=13, note=56, velocity=90, time=9600)
Message('note_on', channel=13, note=57, velocity=90, time=24)
Message('note_off', channel=13, note=56, velocity=0, time=22)
Message('note_on', channel=13, note=61, velocity=90, time=2)
Message('note_off', channel=13, note=57, velocity=0, time=22)
Message('note_on', channel=13, note=66, velocity=90, time=2)
Message('note_off', channel=13, note=61, velocity=0, time=22)
Message('note_on', channel=13, note=69, velocity=90, time=2)
Message('note_off', channel=13, note=66, velocity=0, time=22)
Message('note_on', channel=13, note=73, velocity=90, time=2)
Message('note_off', channel=13, note=69, velocity=0, time=22)
Message('note_on', channel=13, note=78, velocity=90, time=2)
Message('note_off', channel=13, note=73, velocity=0, time=22)
Message('note_on', channel=13, note=81, velocity=90, time=2)
Message('note_off', channel=13, note=78, velocity=0, time=22)
Message('note_on', channel=13, note=73, velocity=90, time=2)
Message('note_off', channel=13, note=81, velocity=0, time=22)
Message('note_on', channel=13, note=78, velocity=90, time=2)
Message('note_off', channel=13, note=73, velocity=0, time=22)
Message('note_on', channel=13, note=81, velocity=90, time=2)
Message('note_off', channel=13, note=78, velocity=0, time=22)
Message('note_on', channel=13, note=80, velocity=90, time=2)
Message('note_off', channel=13, note=81, velocity=0, time=22)
Message('note_on', channel=13, note=69, velocity=90, time=2)
Message('note_off', channel=13, note=80, velocity=0, time=22)
Message('note_on', channel=13, note=73, velocity=90, time=2)
Message('note_off', channel=13, note=69, velocity=0, time=22)
Message('note_on', channel=13, note=76, velocity=90, time=2)
Message('note_off', channel=13, note=73, velocity=0, time=22)
Message('note_on', channel=13, note=78, velocity=90, time=2)
Message('note_off', channel=13, note=76, velocity=0, time=22)
Message('note_on', channel=13, note=52, velocity=90, time=2)
Message('note_off', channel=13, note=78, velocity=0, time=22)
Message('note_on', channel=13, note=54, velocity=90, time=2)
Message('note_off', channel=13, note=52, velocity=0, time=22)
Message('note_on', channel=13, note=56, velocity=90, time=2)
Message('note_off', channel=13, note=54, velocity=0, time=22)
Message('note_on', channel=13, note=61, velocity=90, time=2)
Message('note_off', channel=13, note=56, velocity=0, time=22)
Message('note_on', channel=13, note=64, velocity=90, time=2)
Message('note_off', channel=13, note=61, velocity=0, time=22)
Message('note_on', channel=13, note=68, velocity=90, time=2)
Message('note_off', channel=13, note=64, velocity=0, time=22)
Message('note_on', channel=13, note=73, velocity=90, time=2)
Message('note_off', channel=13, note=68, velocity=0, time=22)
Message('note_on', channel=13, note=76, velocity=90, time=2)
Message('note_off', channel=13, note=73, velocity=0, time=22)
Message('note_on', channel=13, note=80, velocity=90, time=2)
Message('note_off', channel=13, note=76, velocity=0, time=22)
Message('note_on', channel=13, note=83, velocity=90, time=2)
Message('note_off', channel=13, note=80, velocity=0, time=22)
Message('note_on', channel=13, note=80, velocity=90, time=2)
Message('note_off', channel=13, note=83, velocity=0, time=22)
Message('note_on', channel=13, note=88, velocity=90, time=2)
Message('note_off', channel=13, note=80, velocity=0, time=22)
Message('note_on', channel=13, note=83, velocity=90, time=2)
Message('note_off', channel=13, note=88, velocity=0, time=22)
Message('note_on', channel=13, note=80, velocity=90, time=2)
Message('note_off', channel=13, note=83, velocity=0, time=22)
Message('note_on', channel=13, note=76, velocity=90, time=2)
Message('note_off', channel=13, note=80, velocity=0, time=22)
Message('note_on', channel=13, note=71, velocity=90, time=2)
Message('note_off', channel=13, note=76, velocity=0, time=22)
Message('note_on', channel=13, note=51, velocity=90, time=2)
Message('note_off', channel=13, note=71, velocity=0, time=22)
Message('note_on', channel=13, note=56, velocity=90, time=2)
Message('note_off', channel=13, note=51, velocity=0, time=22)
Message('note_on', channel=13, note=59, velocity=90, time=2)
Message('note_off', channel=13, note=56, velocity=0, time=22)
Message('note_on', channel=13, note=63, velocity=90, time=2)
Message('note_off', channel=13, note=59, velocity=0, time=22)
Message('note_on', channel=13, note=68, velocity=90, time=2)
Message('note_off', channel=13, note=63, velocity=0, time=22)
Message('note_on', channel=13, note=71, velocity=90, time=2)
Message('note_off', channel=13, note=68, velocity=0, time=22)
Message('note_on', channel=13, note=68, velocity=90, time=2)
Message('note_off', channel=13, note=71, velocity=0, time=22)
Message('note_on', channel=13, note=71, velocity=90, time=2)
Message('note_off', channel=13, note=68, velocity=0, time=22)
Message('note_on', channel=13, note=75, velocity=90, time=2)
Message('note_off', channel=13, note=71, velocity=0, time=22)
Message('note_on', channel=13, note=78, velocity=90, time=2)
Message('note_off', channel=13, note=75, velocity=0, time=22)
Message('note_on', channel=13, note=80, velocity=90, time=2)
Message('note_off', channel=13, note=78, velocity=0, time=22)
Message('note_on', channel=13, note=83, velocity=90, time=2)
Message('note_off', channel=13, note=80, velocity=0, time=22)
Message('note_on', channel=13, note=80, velocity=90, time=2)
Message('note_off', channel=13, note=83, velocity=0, time=22)
Message('note_on', channel=13, note=83, velocity=90, time=2)
Message('note_off', channel=13, note=80, velocity=0, time=22)
Message('note_on', channel=13, note=75, velocity=90, time=2)
Message('note_off', channel=13, note=83, velocity=0, time=22)
Message('note_on', channel=13, note=68, velocity=90, time=2)
Message('note_off', channel=13, note=75, velocity=0, time=22)
Message('note_on', channel=13, note=75, velocity=90, time=2)
Message('note_off', channel=13, note=68, velocity=0, time=22)
Message('note_on', channel=13, note=71, velocity=90, time=2)
Message('note_off', channel=13, note=75, velocity=0, time=22)
Message('note_on', channel=13, note=69, velocity=90, time=2)
Message('note_off', channel=13, note=71, velocity=0, time=22)
Message('note_on', channel=13, note=68, velocity=90, time=2)
Message('note_off', channel=13, note=69, velocity=0, time=22)
Message('note_on', channel=13, note=71, velocity=90, time=2)
Message('note_off', channel=13, note=68, velocity=0, time=22)
Message('note_on', channel=13, note=68, velocity=90, time=2)
Message('note_off', channel=13, note=71, velocity=0, time=22)
Message('note_on', channel=13, note=63, velocity=90, time=2)
Message('note_off', channel=13, note=68, velocity=0, time=22)
Message('note_on', channel=13, note=59, velocity=90, time=2)
Message('note_off', channel=13, note=63, velocity=0, time=22)
Message('note_on', channel=13, note=57, velocity=90, time=2)
Message('note_off', channel=13, note=59, velocity=0, time=22)
Message('note_on', channel=13, note=56, velocity=90, time=2)
Message('note_off', channel=13, note=57, velocity=0, time=22)
Message('note_on', channel=13, note=57, velocity=90, time=2)
Message('note_off', channel=13, note=56, velocity=0, time=22)
Message('note_on', channel=13, note=59, velocity=90, time=2)
Message('note_off', channel=13, note=57, velocity=0, time=22)
Message('note_on', channel=13, note=61, velocity=90, time=2)
Message('note_off', channel=13, note=59, velocity=0, time=22)
Message('note_on', channel=13, note=68, velocity=90, time=2)
Message('note_off', channel=13, note=61, velocity=0, time=22)
Message('note_on', channel=13, note=69, velocity=90, time=2)
Message('note_off', channel=13, note=68, velocity=0, time=22)
Message('note_on', channel=13, note=68, velocity=90, time=2)
Message('note_off', channel=13, note=69, velocity=0, time=22)
Message('note_on', channel=13, note=50, velocity=90, time=2)
Message('note_off', channel=13, note=68, velocity=0, time=22)
Message('note_on', channel=13, note=54, velocity=90, time=2)
Message('note_off', channel=13, note=50, velocity=0, time=22)
Message('note_on', channel=13, note=57, velocity=90, time=2)
Message('note_off', channel=13, note=54, velocity=0, time=22)
Message('note_on', channel=13, note=62, velocity=90, time=2)
Message('note_off', channel=13, note=57, velocity=0, time=22)
Message('note_on', channel=13, note=66, velocity=90, time=2)
Message('note_off', channel=13, note=62, velocity=0, time=22)
Message('note_on', channel=13, note=69, velocity=90, time=2)
Message('note_off', channel=13, note=66, velocity=0, time=22)
Message('note_on', channel=13, note=74, velocity=90, time=2)
Message('note_off', channel=13, note=69, velocity=0, time=22)
Message('note_on', channel=13, note=78, velocity=90, time=2)
Message('note_off', channel=13, note=74, velocity=0, time=22)
Message('note_on', channel=13, note=81, velocity=90, time=2)
Message('note_off', channel=13, note=78, velocity=0, time=22)
Message('note_on', channel=13, note=80, velocity=90, time=2)
Message('note_off', channel=13, note=81, velocity=0, time=22)
Message('note_on', channel=13, note=76, velocity=90, time=2)
Message('note_off', channel=13, note=80, velocity=0, time=22)
Message('note_on', channel=13, note=74, velocity=90, time=2)
Message('note_off', channel=13, note=76, velocity=0, time=22)
Message('note_on', channel=13, note=78, velocity=90, time=2)
Message('note_off', channel=13, note=74, velocity=0, time=22)
Message('note_on', channel=13, note=81, velocity=90, time=2)
Message('note_off', channel=13, note=78, velocity=0, time=22)
Message('note_on', channel=13, note=78, velocity=90, time=2)
Message('note_off', channel=13, note=81, velocity=0, time=22)
Message('note_on', channel=13, note=74, velocity=90, time=2)
Message('note_off', channel=13, note=78, velocity=0, time=22)
Message('note_on', channel=13, note=52, velocity=90, time=2)
Message('note_off', channel=13, note=74, velocity=0, time=22)
Message('note_on', channel=13, note=56, velocity=90, time=2)
Message('note_off', channel=13, note=52, velocity=0, time=22)
Message('note_on', channel=13, note=59, velocity=90, time=2)
Message('note_off', channel=13, note=56, velocity=0, time=22)
Message('note_on', channel=13, note=64, velocity=90, time=2)
Message('note_off', channel=13, note=59, velocity=0, time=22)
Message('note_on', channel=13, note=68, velocity=90, time=2)
Message('note_off', channel=13, note=64, velocity=0, time=22)
Message('note_on', channel=13, note=71, velocity=90, time=2)
Message('note_off', channel=13, note=68, velocity=0, time=22)
Message('note_on', channel=13, note=76, velocity=90, time=2)
Message('note_off', channel=13, note=71, velocity=0, time=22)
Message('note_on', channel=13, note=80, velocity=90, time=2)
Message('note_off', channel=13, note=76, velocity=0, time=22)
Message('note_on', channel=13, note=83, velocity=90, time=2)
Message('note_off', channel=13, note=80, velocity=0, time=22)
Message('note_on', channel=13, note=80, velocity=90, time=2)
Message('note_off', channel=13, note=83, velocity=0, time=22)
Message('note_on', channel=13, note=76, velocity=90, time=2)
Message('note_off', channel=13, note=80, velocity=0, time=22)
Message('note_on', channel=13, note=83, velocity=90, time=2)
Message('note_off', channel=13, note=76, velocity=0, time=22)
Message('note_on', channel=13, note=80, velocity=90, time=2)
Message('note_off', channel=13, note=83, velocity=0, time=22)
Message('note_on', channel=13, note=76, velocity=90, time=2)
Message('note_off', channel=13, note=80, velocity=0, time=22)
Message('note_on', channel=13, note=83, velocity=90, time=2)
Message('note_off', channel=13, note=76, velocity=0, time=22)
Message('note_on', channel=13, note=76, velocity=90, time=2)
Message('note_off', channel=13, note=83, velocity=0, time=22)
Message('note_on', channel=13, note=54, velocity=90, time=2)
Message('note_off', channel=13, note=76, velocity=0, time=22)
Message('note_on', channel=13, note=56, velocity=90, time=2)
Message('note_off', channel=13, note=54, velocity=0, time=22)
Message('note_on', channel=13, note=57, velocity=90, time=2)
Message('note_off', channel=13, note=56, velocity=0, time=22)
Message('note_on', channel=13, note=61, velocity=90, time=2)
Message('note_off', channel=13, note=57, velocity=0, time=22)
Message('note_on', channel=13, note=66, velocity=90, time=2)
Message('note_off', channel=13, note=61, velocity=0, time=22)
Message('note_on', channel=13, note=68, velocity=90, time=2)
Message('note_off', channel=13, note=66, velocity=0, time=22)
Message('note_on', channel=13, note=69, velocity=90, time=2)
Message('note_off', channel=13, note=68, velocity=0, time=22)
Message('note_on', channel=13, note=73, velocity=90, time=2)
Message('note_off', channel=13, note=69, velocity=0, time=22)
Message('note_on', channel=13, note=78, velocity=90, time=2)
Message('note_off', channel=13, note=73, velocity=0, time=22)
Message('note_on', channel=13, note=80, velocity=90, time=2)
Message('note_off', channel=13, note=78, velocity=0, time=22)
Message('note_on', channel=13, note=81, velocity=90, time=2)
Message('note_off', channel=13, note=80, velocity=0, time=22)
Message('note_on', channel=13, note=85, velocity=90, time=2)
Message('note_off', channel=13, note=81, velocity=0, time=22)
Message('note_on', channel=13, note=90, velocity=90, time=2)
Message('note_off', channel=13, note=85, velocity=0, time=22)
Message('note_on', channel=13, note=85, velocity=90, time=2)
Message('note_off', channel=13, note=90, velocity=0, time=22)
Message('note_on', channel=13, note=81, velocity=90, time=2)
Message('note_off', channel=13, note=85, velocity=0, time=22)
Message('note_on', channel=13, note=80, velocity=90, time=2)
Message('note_off', channel=13, note=81, velocity=0, time=22)
Message('note_on', channel=13, note=78, velocity=90, time=2)
Message('note_off', channel=13, note=80, velocity=0, time=22)
Message('note_on', channel=13, note=81, velocity=90, time=2)
Message('note_off', channel=13, note=78, velocity=0, time=22)
Message('note_on', channel=13, note=80, velocity=90, time=2)
Message('note_off', channel=13, note=81, velocity=0, time=22)
Message('note_on', channel=13, note=73, velocity=90, time=2)
Message('note_off', channel=13, note=80, velocity=0, time=22)
Message('note_on', channel=13, note=80, velocity=90, time=2)
Message('note_off', channel=13, note=73, velocity=0, time=22)
Message('note_on', channel=13, note=78, velocity=90, time=2)
Message('note_off', channel=13, note=80, velocity=0, time=22)
Message('note_on', channel=13, note=71, velocity=90, time=2)
Message('note_off', channel=13, note=78, velocity=0, time=22)
Message('note_on', channel=13, note=78, velocity=90, time=2)
Message('note_off', channel=13, note=71, velocity=0, time=22)
Message('note_on', channel=13, note=76, velocity=90, time=2)
Message('note_off', channel=13, note=78, velocity=0, time=22)
Message('note_on', channel=13, note=69, velocity=90, time=2)
Message('note_off', channel=13, note=76, velocity=0, time=22)
Message('note_on', channel=13, note=76, velocity=90, time=2)
Message('note_off', channel=13, note=69, velocity=0, time=22)
Message('note_on', channel=13, note=74, velocity=90, time=2)
Message('note_off', channel=13, note=76, velocity=0, time=22)
Message('note_on', channel=13, note=73, velocity=90, time=2)
Message('note_off', channel=13, note=74, velocity=0, time=22)
Message('note_on', channel=13, note=71, velocity=90, time=2)
Message('note_off', channel=13, note=73, velocity=0, time=22)
Message('note_on', channel=13, note=69, velocity=90, time=2)
Message('note_off', channel=13, note=71, velocity=0, time=22)
Message('note_on', channel=13, note=68, velocity=90, time=2)
Message('note_off', channel=13, note=69, velocity=0, time=22)
Message('note_on', channel=13, note=56, velocity=100, time=2)
Message('note_off', channel=13, note=68, velocity=0, time=22)
Message('note_on', channel=13, note=57, velocity=100, time=2)
Message('note_off', channel=13, note=56, velocity=0, time=22)
Message('note_on', channel=13, note=61, velocity=100, time=2)
Message('note_off', channel=13, note=57, velocity=0, time=22)
Message('note_on', channel=13, note=66, velocity=100, time=2)
Message('note_off', channel=13, note=61, velocity=0, time=22)
Message('note_on', channel=13, note=69, velocity=100, time=2)
Message('note_off', channel=13, note=66, velocity=0, time=22)
Message('note_on', channel=13, note=73, velocity=100, time=2)
Message('note_off', channel=13, note=69, velocity=0, time=22)
Message('note_on', channel=13, note=78, velocity=100, time=2)
Message('note_off', channel=13, note=73, velocity=0, time=22)
Message('note_on', channel=13, note=81, velocity=101, time=2)
Message('note_off', channel=13, note=78, velocity=0, time=22)
Message('note_on', channel=13, note=73, velocity=101, time=2)
Message('note_off', channel=13, note=81, velocity=0, time=22)
Message('note_on', channel=13, note=78, velocity=101, time=2)
Message('note_off', channel=13, note=73, velocity=0, time=22)
Message('note_on', channel=13, note=81, velocity=101, time=2)
Message('note_off', channel=13, note=78, velocity=0, time=22)
Message('note_on', channel=13, note=80, velocity=101, time=2)
Message('note_off', channel=13, note=81, velocity=0, time=22)
Message('note_on', channel=13, note=69, velocity=101, time=2)
Message('note_off', channel=13, note=80, velocity=0, time=22)
Message('note_on', channel=13, note=73, velocity=101, time=2)
Message('note_off', channel=13, note=69, velocity=0, time=22)
Message('note_on', channel=13, note=76, velocity=101, time=2)
Message('note_off', channel=13, note=73, velocity=0, time=22)
Message('note_on', channel=13, note=78, velocity=101, time=2)
Message('note_off', channel=13, note=76, velocity=0, time=22)
Message('note_on', channel=13, note=52, velocity=101, time=2)
Message('note_off', channel=13, note=78, velocity=0, time=22)
Message('note_on', channel=13, note=54, velocity=101, time=2)
Message('note_off', channel=13, note=52, velocity=0, time=22)
Message('note_on', channel=13, note=56, velocity=101, time=2)
Message('note_off', channel=13, note=54, velocity=0, time=22)
Message('note_on', channel=13, note=61, velocity=101, time=2)
Message('note_off', channel=13, note=56, velocity=0, time=22)
Message('note_on', channel=13, note=64, velocity=102, time=2)
Message('note_off', channel=13, note=61, velocity=0, time=22)
Message('note_on', channel=13, note=68, velocity=102, time=2)
Message('note_off', channel=13, note=64, velocity=0, time=22)
Message('note_on', channel=13, note=73, velocity=102, time=2)
Message('note_off', channel=13, note=68, velocity=0, time=22)
Message('note_on', channel=13, note=76, velocity=102, time=2)
Message('note_off', channel=13, note=73, velocity=0, time=22)
Message('note_on', channel=13, note=80, velocity=102, time=2)
Message('note_off', channel=13, note=76, velocity=0, time=22)
Message('note_on', channel=13, note=83, velocity=102, time=2)
Message('note_off', channel=13, note=80, velocity=0, time=22)
Message('note_on', channel=13, note=80, velocity=102, time=2)
Message('note_off', channel=13, note=83, velocity=0, time=22)
Message('note_on', channel=13, note=88, velocity=102, time=2)
Message('note_off', channel=13, note=80, velocity=0, time=22)
Message('note_on', channel=13, note=83, velocity=102, time=2)
Message('note_off', channel=13, note=88, velocity=0, time=22)
Message('note_on', channel=13, note=80, velocity=102, time=2)
Message('note_off', channel=13, note=83, velocity=0, time=22)
Message('note_on', channel=13, note=76, velocity=102, time=2)
Message('note_off', channel=13, note=80, velocity=0, time=22)
Message('note_on', channel=13, note=71, velocity=102, time=2)
Message('note_off', channel=13, note=76, velocity=0, time=22)
Message('note_on', channel=13, note=51, velocity=103, time=2)
Message('note_off', channel=13, note=71, velocity=0, time=22)
Message('note_on', channel=13, note=56, velocity=103, time=2)
Message('note_off', channel=13, note=51, velocity=0, time=22)
Message('note_on', channel=13, note=59, velocity=103, time=2)
Message('note_off', channel=13, note=56, velocity=0, time=22)
Message('note_on', channel=13, note=63, velocity=103, time=2)
Message('note_off', channel=13, note=59, velocity=0, time=22)
Message('note_on', channel=13, note=68, velocity=103, time=2)
Message('note_off', channel=13, note=63, velocity=0, time=22)
Message('note_on', channel=13, note=71, velocity=103, time=2)
Message('note_off', channel=13, note=68, velocity=0, time=22)
Message('note_on', channel=13, note=68, velocity=103, time=2)
Message('note_off', channel=13, note=71, velocity=0, time=22)
Message('note_on', channel=13, note=71, velocity=103, time=2)
Message('note_off', channel=13, note=68, velocity=0, time=22)
Message('note_on', channel=13, note=75, velocity=103, time=2)
Message('note_off', channel=13, note=71, velocity=0, time=22)
Message('note_on', channel=13, note=78, velocity=103, time=2)
Message('note_off', channel=13, note=75, velocity=0, time=22)
Message('note_on', channel=13, note=80, velocity=103, time=2)
Message('note_off', channel=13, note=78, velocity=0, time=22)
Message('note_on', channel=13, note=83, velocity=103, time=2)
Message('note_off', channel=13, note=80, velocity=0, time=22)
Message('note_on', channel=13, note=80, velocity=103, time=2)
Message('note_off', channel=13, note=83, velocity=0, time=22)
Message('note_on', channel=13, note=83, velocity=104, time=2)
Message('note_off', channel=13, note=80, velocity=0, time=22)
Message('note_on', channel=13, note=75, velocity=104, time=2)
Message('note_off', channel=13, note=83, velocity=0, time=22)
Message('note_on', channel=13, note=68, velocity=104, time=2)
Message('note_off', channel=13, note=75, velocity=0, time=22)
Message('note_on', channel=13, note=75, velocity=104, time=2)
Message('note_off', channel=13, note=68, velocity=0, time=22)
Message('note_on', channel=13, note=71, velocity=104, time=2)
Message('note_off', channel=13, note=75, velocity=0, time=22)
Message('note_on', channel=13, note=69, velocity=104, time=2)
Message('note_off', channel=13, note=71, velocity=0, time=22)
Message('note_on', channel=13, note=68, velocity=104, time=2)
Message('note_off', channel=13, note=69, velocity=0, time=22)
Message('note_on', channel=13, note=71, velocity=104, time=2)
Message('note_off', channel=13, note=68, velocity=0, time=22)
Message('note_on', channel=13, note=68, velocity=104, time=2)
Message('note_off', channel=13, note=71, velocity=0, time=22)
Message('note_on', channel=13, note=63, velocity=104, time=2)
Message('note_off', channel=13, note=68, velocity=0, time=22)
Message('note_on', channel=13, note=59, velocity=104, time=2)
Message('note_off', channel=13, note=63, velocity=0, time=22)
Message('note_on', channel=13, note=57, velocity=104, time=2)
Message('note_off', channel=13, note=59, velocity=0, time=22)
Message('note_on', channel=13, note=56, velocity=104, time=2)
Message('note_off', channel=13, note=57, velocity=0, time=22)
Message('note_on', channel=13, note=57, velocity=105, time=2)
Message('note_off', channel=13, note=56, velocity=0, time=22)
Message('note_on', channel=13, note=59, velocity=105, time=2)
Message('note_off', channel=13, note=57, velocity=0, time=22)
Message('note_on', channel=13, note=61, velocity=105, time=2)
Message('note_off', channel=13, note=59, velocity=0, time=22)
Message('note_on', channel=13, note=68, velocity=105, time=2)
Message('note_off', channel=13, note=61, velocity=0, time=22)
Message('note_on', channel=13, note=69, velocity=105, time=2)
Message('note_off', channel=13, note=68, velocity=0, time=22)
Message('note_on', channel=13, note=68, velocity=105, time=2)
Message('note_off', channel=13, note=69, velocity=0, time=22)
Message('note_on', channel=13, note=50, velocity=105, time=2)
Message('note_off', channel=13, note=68, velocity=0, time=22)
Message('note_on', channel=13, note=54, velocity=105, time=2)
Message('note_off', channel=13, note=50, velocity=0, time=22)
Message('note_on', channel=13, note=57, velocity=105, time=2)
Message('note_off', channel=13, note=54, velocity=0, time=22)
Message('note_on', channel=13, note=62, velocity=105, time=2)
Message('note_off', channel=13, note=57, velocity=0, time=22)
Message('note_on', channel=13, note=66, velocity=105, time=2)
Message('note_off', channel=13, note=62, velocity=0, time=22)
Message('note_on', channel=13, note=69, velocity=105, time=2)
Message('note_off', channel=13, note=66, velocity=0, time=22)
Message('note_on', channel=13, note=74, velocity=105, time=2)
Message('note_off', channel=13, note=69, velocity=0, time=22)
Message('note_on', channel=13, note=78, velocity=106, time=2)
Message('note_off', channel=13, note=74, velocity=0, time=22)
Message('note_on', channel=13, note=81, velocity=106, time=2)
Message('note_off', channel=13, note=78, velocity=0, time=22)
Message('note_on', channel=13, note=80, velocity=106, time=2)
Message('note_off', channel=13, note=81, velocity=0, time=22)
Message('note_on', channel=13, note=76, velocity=106, time=2)
Message('note_off', channel=13, note=80, velocity=0, time=22)
Message('note_on', channel=13, note=74, velocity=106, time=2)
Message('note_off', channel=13, note=76, velocity=0, time=22)
Message('note_on', channel=13, note=78, velocity=106, time=2)
Message('note_off', channel=13, note=74, velocity=0, time=22)
Message('note_on', channel=13, note=81, velocity=106, time=2)
Message('note_off', channel=13, note=78, velocity=0, time=22)
Message('note_on', channel=13, note=78, velocity=106, time=2)
Message('note_off', channel=13, note=81, velocity=0, time=22)
Message('note_on', channel=13, note=74, velocity=106, time=2)
Message('note_off', channel=13, note=78, velocity=0, time=22)
Message('note_on', channel=13, note=52, velocity=106, time=2)
Message('note_off', channel=13, note=74, velocity=0, time=22)
Message('note_on', channel=13, note=56, velocity=106, time=2)
Message('note_off', channel=13, note=52, velocity=0, time=22)
Message('note_on', channel=13, note=59, velocity=106, time=2)
Message('note_off', channel=13, note=56, velocity=0, time=22)
Message('note_on', channel=13, note=64, velocity=106, time=2)
Message('note_off', channel=13, note=59, velocity=0, time=22)
Message('note_on', channel=13, note=68, velocity=107, time=2)
Message('note_off', channel=13, note=64, velocity=0, time=22)
Message('note_on', channel=13, note=71, velocity=107, time=2)
Message('note_off', channel=13, note=68, velocity=0, time=22)
Message('note_on', channel=13, note=76, velocity=107, time=2)
Message('note_off', channel=13, note=71, velocity=0, time=22)
Message('note_on', channel=13, note=80, velocity=107, time=2)
Message('note_off', channel=13, note=76, velocity=0, time=22)
Message('note_on', channel=13, note=83, velocity=107, time=2)
Message('note_off', channel=13, note=80, velocity=0, time=22)
Message('note_on', channel=13, note=80, velocity=107, time=2)
Message('note_off', channel=13, note=83, velocity=0, time=22)
Message('note_on', channel=13, note=76, velocity=107, time=2)
Message('note_off', channel=13, note=80, velocity=0, time=22)
Message('note_on', channel=13, note=83, velocity=107, time=2)
Message('note_off', channel=13, note=76, velocity=0, time=22)
Message('note_on', channel=13, note=80, velocity=107, time=2)
Message('note_off', channel=13, note=83, velocity=0, time=22)
Message('note_on', channel=13, note=76, velocity=107, time=2)
Message('note_off', channel=13, note=80, velocity=0, time=22)
Message('note_on', channel=13, note=83, velocity=107, time=2)
Message('note_off', channel=13, note=76, velocity=0, time=22)
Message('note_on', channel=13, note=76, velocity=107, time=2)
Message('note_off', channel=13, note=83, velocity=0, time=22)
Message('note_on', channel=13, note=54, velocity=108, time=2)
Message('note_off', channel=13, note=76, velocity=0, time=22)
Message('note_on', channel=13, note=56, velocity=108, time=2)
Message('note_off', channel=13, note=54, velocity=0, time=22)
Message('note_on', channel=13, note=57, velocity=108, time=2)
Message('note_off', channel=13, note=56, velocity=0, time=22)
Message('note_on', channel=13, note=61, velocity=108, time=2)
Message('note_off', channel=13, note=57, velocity=0, time=22)
Message('note_on', channel=13, note=66, velocity=108, time=2)
Message('note_off', channel=13, note=61, velocity=0, time=22)
Message('note_on', channel=13, note=68, velocity=108, time=2)
Message('note_off', channel=13, note=66, velocity=0, time=22)
Message('note_on', channel=13, note=69, velocity=108, time=2)
Message('note_off', channel=13, note=68, velocity=0, time=22)
Message('note_on', channel=13, note=73, velocity=108, time=2)
Message('note_off', channel=13, note=69, velocity=0, time=22)
Message('note_on', channel=13, note=78, velocity=108, time=2)
Message('note_off', channel=13, note=73, velocity=0, time=22)
Message('note_on', channel=13, note=80, velocity=108, time=2)
Message('note_off', channel=13, note=78, velocity=0, time=22)
Message('note_on', channel=13, note=81, velocity=108, time=2)
Message('note_off', channel=13, note=80, velocity=0, time=22)
Message('note_on', channel=13, note=85, velocity=108, time=2)
Message('note_off', channel=13, note=81, velocity=0, time=22)
Message('note_on', channel=13, note=90, velocity=108, time=2)
Message('note_off', channel=13, note=85, velocity=0, time=22)
Message('note_on', channel=13, note=85, velocity=109, time=2)
Message('note_off', channel=13, note=90, velocity=0, time=22)
Message('note_on', channel=13, note=81, velocity=109, time=2)
Message('note_off', channel=13, note=85, velocity=0, time=22)
Message('note_on', channel=13, note=80, velocity=109, time=2)
Message('note_off', channel=13, note=81, velocity=0, time=22)
Message('note_on', channel=13, note=78, velocity=109, time=2)
Message('note_off', channel=13, note=80, velocity=0, time=22)
Message('note_on', channel=13, note=81, velocity=109, time=2)
Message('note_off', channel=13, note=78, velocity=0, time=22)
Message('note_on', channel=13, note=80, velocity=109, time=2)
Message('note_off', channel=13, note=81, velocity=0, time=22)
Message('note_on', channel=13, note=73, velocity=109, time=2)
Message('note_off', channel=13, note=80, velocity=0, time=22)
Message('note_on', channel=13, note=80, velocity=109, time=2)
Message('note_off', channel=13, note=73, velocity=0, time=22)
Message('note_on', channel=13, note=78, velocity=109, time=2)
Message('note_off', channel=13, note=80, velocity=0, time=22)
Message('note_on', channel=13, note=71, velocity=109, time=2)
Message('note_off', channel=13, note=78, velocity=0, time=22)
Message('note_on', channel=13, note=78, velocity=109, time=2)
Message('note_off', channel=13, note=71, velocity=0, time=22)
Message('note_on', channel=13, note=76, velocity=109, time=2)
Message('note_off', channel=13, note=78, velocity=0, time=22)
Message('note_on', channel=13, note=69, velocity=109, time=2)
Message('note_off', channel=13, note=76, velocity=0, time=22)
Message('note_on', channel=13, note=76, velocity=110, time=2)
Message('note_off', channel=13, note=69, velocity=0, time=22)
Message('note_on', channel=13, note=74, velocity=110, time=2)
Message('note_off', channel=13, note=76, velocity=0, time=22)
Message('note_on', channel=13, note=73, velocity=110, time=2)
Message('note_off', channel=13, note=74, velocity=0, time=22)
Message('note_on', channel=13, note=71, velocity=110, time=2)
Message('note_off', channel=13, note=73, velocity=0, time=22)
Message('note_on', channel=13, note=69, velocity=110, time=2)
Message('note_off', channel=13, note=71, velocity=0, time=22)
Message('note_on', channel=13, note=68, velocity=110, time=2)
Message('note_off', channel=13, note=69, velocity=0, time=22)
Message('note_on', channel=13, note=69, velocity=110, time=2)
Message('note_on', channel=13, note=62, velocity=110, time=0)
Message('note_off', channel=13, note=68, velocity=0, time=22)
Message('note_off', channel=13, note=69, velocity=0, time=22)
Message('note_off', channel=13, note=62, velocity=0, time=0)
Message('note_on', channel=13, note=81, velocity=110, time=4)
Message('note_on', channel=13, note=78, velocity=110, time=0)
Message('note_off', channel=13, note=81, velocity=0, time=44)
Message('note_off', channel=13, note=78, velocity=0, time=0)
Message('note_on', channel=13, note=69, velocity=110, time=4)
Message('note_on', channel=13, note=62, velocity=110, time=0)
Message('note_off', channel=13, note=69, velocity=0, time=44)
Message('note_off', channel=13, note=62, velocity=0, time=0)
Message('note_on', channel=13, note=78, velocity=110, time=4)
Message('note_on', channel=13, note=81, velocity=110, time=0)
Message('note_off', channel=13, note=78, velocity=0, time=44)
Message('note_off', channel=13, note=81, velocity=0, time=0)
Message('note_on', channel=13, note=64, velocity=110, time=4)
Message('note_on', channel=13, note=71, velocity=110, time=0)
Message('note_off', channel=13, note=64, velocity=0, time=44)
Message('note_off', channel=13, note=71, velocity=0, time=0)
Message('note_on', channel=13, note=83, velocity=110, time=4)
Message('note_on', channel=13, note=80, velocity=110, time=0)
Message('note_off', channel=13, note=80, velocity=0, time=44)
Message('note_off', channel=13, note=83, velocity=0, time=0)
Message('note_on', channel=13, note=64, velocity=110, time=4)
Message('note_on', channel=13, note=71, velocity=110, time=0)
Message('note_off', channel=13, note=64, velocity=0, time=44)
Message('note_off', channel=13, note=71, velocity=0, time=0)
Message('note_on', channel=13, note=80, velocity=110, time=4)
Message('note_on', channel=13, note=83, velocity=110, time=0)
Message('note_off', channel=13, note=80, velocity=0, time=44)
Message('note_off', channel=13, note=83, velocity=0, time=0)
Message('note_on', channel=13, note=66, velocity=110, time=4)
Message('note_on', channel=13, note=73, velocity=110, time=0)
Message('note_off', channel=13, note=66, velocity=0, time=44)
Message('note_off', channel=13, note=73, velocity=0, time=0)
Message('note_on', channel=13, note=81, velocity=110, time=4)
Message('note_on', channel=13, note=78, velocity=110, time=0)
Message('note_off', channel=13, note=78, velocity=0, time=44)
Message('note_off', channel=13, note=81, velocity=0, time=0)
Message('note_on', channel=13, note=66, velocity=110, time=4)
Message('note_on', channel=13, note=73, velocity=110, time=0)
Message('note_off', channel=13, note=66, velocity=0, time=44)
Message('note_off', channel=13, note=73, velocity=0, time=0)
Message('note_on', channel=13, note=78, velocity=110, time=4)
Message('note_on', channel=13, note=81, velocity=110, time=0)
Message('note_off', channel=13, note=78, velocity=0, time=44)
Message('note_off', channel=13, note=81, velocity=0, time=0)
Message('note_on', channel=13, note=66, velocity=110, time=4)
Message('note_on', channel=13, note=73, velocity=110, time=0)
Message('note_off', channel=13, note=66, velocity=0, time=44)
Message('note_off', channel=13, note=73, velocity=0, time=0)
Message('note_on', channel=13, note=81, velocity=110, time=4)
Message('note_on', channel=13, note=78, velocity=110, time=0)
Message('note_off', channel=13, note=78, velocity=0, time=44)
Message('note_off', channel=13, note=81, velocity=0, time=0)
Message('note_on', channel=13, note=66, velocity=110, time=4)
Message('note_on', channel=13, note=73, velocity=110, time=0)
Message('note_off', channel=13, note=73, velocity=0, time=44)
Message('note_off', channel=13, note=66, velocity=0, time=0)
Message('note_on', channel=13, note=78, velocity=110, time=4)
Message('note_on', channel=13, note=81, velocity=110, time=0)
Message('note_off', channel=13, note=78, velocity=0, time=44)
Message('note_off', channel=13, note=81, velocity=0, time=0)
Message('note_on', channel=13, note=69, velocity=110, time=4)
Message('note_on', channel=13, note=62, velocity=110, time=0)
Message('note_off', channel=13, note=69, velocity=0, time=44)
Message('note_off', channel=13, note=62, velocity=0, time=0)
Message('note_on', channel=13, note=74, velocity=110, time=4)
Message('note_on', channel=13, note=78, velocity=110, time=0)
Message('note_off', channel=13, note=74, velocity=0, time=44)
Message('note_off', channel=13, note=78, velocity=0, time=0)
Message('note_on', channel=13, note=69, velocity=110, time=4)
Message('note_on', channel=13, note=62, velocity=110, time=0)
Message('note_off', channel=13, note=69, velocity=0, time=44)
Message('note_off', channel=13, note=62, velocity=0, time=0)
Message('note_on', channel=13, note=78, velocity=110, time=4)
Message('note_on', channel=13, note=74, velocity=110, time=0)
Message('note_off', channel=13, note=78, velocity=0, time=44)
Message('note_off', channel=13, note=74, velocity=0, time=0)
Message('note_on', channel=13, note=71, velocity=110, time=4)
Message('note_on', channel=13, note=64, velocity=110, time=0)
Message('note_off', channel=13, note=71, velocity=0, time=44)
Message('note_off', channel=13, note=64, velocity=0, time=0)
Message('note_on', channel=13, note=76, velocity=110, time=4)
Message('note_on', channel=13, note=80, velocity=110, time=0)
Message('note_off', channel=13, note=80, velocity=0, time=44)
Message('note_off', channel=13, note=76, velocity=0, time=0)
Message('note_on', channel=13, note=64, velocity=110, time=4)
Message('note_on', channel=13, note=71, velocity=110, time=0)
Message('note_off', channel=13, note=64, velocity=0, time=44)
Message('note_off', channel=13, note=71, velocity=0, time=0)
Message('note_on', channel=13, note=80, velocity=110, time=4)
Message('note_on', channel=13, note=76, velocity=110, time=0)
Message('note_off', channel=13, note=80, velocity=0, time=44)
Message('note_off', channel=13, note=76, velocity=0, time=0)
Message('note_on', channel=13, note=66, velocity=110, time=4)
Message('note_on', channel=13, note=73, velocity=110, time=0)
Message('note_off', channel=13, note=66, velocity=0, time=44)
Message('note_off', channel=13, note=73, velocity=0, time=0)
Message('note_on', channel=13, note=78, velocity=110, time=4)
Message('note_on', channel=13, note=81, velocity=110, time=0)
Message('note_off', channel=13, note=78, velocity=0, time=44)
Message('note_off', channel=13, note=81, velocity=0, time=0)
Message('note_on', channel=13, note=66, velocity=110, time=4)
Message('note_on', channel=13, note=73, velocity=110, time=0)
Message('note_off', channel=13, note=66, velocity=0, time=44)
Message('note_off', channel=13, note=73, velocity=0, time=0)
Message('note_on', channel=13, note=80, velocity=110, time=4)
Message('note_on', channel=13, note=83, velocity=110, time=0)
Message('note_off', channel=13, note=80, velocity=0, time=44)
Message('note_off', channel=13, note=83, velocity=0, time=0)
Message('note_on', channel=13, note=73, velocity=110, time=4)
Message('note_on', channel=13, note=66, velocity=110, time=0)
Message('note_off', channel=13, note=73, velocity=0, time=44)
Message('note_off', channel=13, note=66, velocity=0, time=0)
Message('note_on', channel=13, note=85, velocity=110, time=4)
Message('note_on', channel=13, note=81, velocity=110, time=0)
Message('note_off', channel=13, note=81, velocity=0, time=44)
Message('note_off', channel=13, note=85, velocity=0, time=0)
Message('note_on', channel=13, note=66, velocity=110, time=4)
Message('note_on', channel=13, note=73, velocity=110, time=0)
Message('note_off', channel=13, note=73, velocity=0, time=44)
Message('note_off', channel=13, note=66, velocity=0, time=0)
Message('note_on', channel=13, note=81, velocity=110, time=4)
Message('note_on', channel=13, note=90, velocity=110, time=0)
Message('note_off', channel=13, note=81, velocity=0, time=44)
Message('note_off', channel=13, note=90, velocity=0, time=0)
Message('note_on', channel=13, note=62, velocity=110, time=4)
Message('note_on', channel=13, note=69, velocity=110, time=0)
Message('note_off', channel=13, note=62, velocity=0, time=44)
Message('note_off', channel=13, note=69, velocity=0, time=0)
Message('note_on', channel=13, note=81, velocity=110, time=4)
Message('note_on', channel=13, note=78, velocity=110, time=0)
Message('note_off', channel=13, note=81, velocity=0, time=44)
Message('note_off', channel=13, note=78, velocity=0, time=0)
Message('note_on', channel=13, note=62, velocity=110, time=4)
Message('note_on', channel=13, note=69, velocity=110, time=0)
Message('note_off', channel=13, note=62, velocity=0, time=44)
Message('note_off', channel=13, note=69, velocity=0, time=0)
Message('note_on', channel=13, note=78, velocity=110, time=4)
Message('note_on', channel=13, note=81, velocity=110, time=0)
Message('note_off', channel=13, note=78, velocity=0, time=44)
Message('note_off', channel=13, note=81, velocity=0, time=0)
Message('note_on', channel=13, note=71, velocity=110, time=4)
Message('note_on', channel=13, note=64, velocity=110, time=0)
Message('note_off', channel=13, note=71, velocity=0, time=44)
Message('note_off', channel=13, note=64, velocity=0, time=0)
Message('note_on', channel=13, note=80, velocity=110, time=4)
Message('note_on', channel=13, note=83, velocity=110, time=0)
Message('note_off', channel=13, note=83, velocity=0, time=44)
Message('note_off', channel=13, note=80, velocity=0, time=0)
Message('note_on', channel=13, note=71, velocity=110, time=4)
Message('note_on', channel=13, note=64, velocity=110, time=0)
Message('note_off', channel=13, note=71, velocity=0, time=44)
Message('note_off', channel=13, note=64, velocity=0, time=0)
Message('note_on', channel=13, note=80, velocity=110, time=4)
Message('note_on', channel=13, note=83, velocity=110, time=0)
Message('note_off', channel=13, note=80, velocity=0, time=44)
Message('note_off', channel=13, note=83, velocity=0, time=0)
Message('note_on', channel=13, note=66, velocity=110, time=4)
Message('note_on', channel=13, note=73, velocity=110, time=0)
Message('note_off', channel=13, note=66, velocity=0, time=44)
Message('note_off', channel=13, note=73, velocity=0, time=0)
Message('note_on', channel=13, note=81, velocity=110, time=4)
Message('note_on', channel=13, note=78, velocity=110, time=0)
Message('note_off', channel=13, note=78, velocity=0, time=44)
Message('note_off', channel=13, note=81, velocity=0, time=0)
Message('note_on', channel=13, note=66, velocity=110, time=4)
Message('note_on', channel=13, note=73, velocity=110, time=0)
Message('note_off', channel=13, note=66, velocity=0, time=44)
Message('note_off', channel=13, note=73, velocity=0, time=0)
Message('note_on', channel=13, note=78, velocity=110, time=4)
Message('note_on', channel=13, note=81, velocity=110, time=0)
Message('note_off', channel=13, note=78, velocity=0, time=44)
Message('note_off', channel=13, note=81, velocity=0, time=0)
Message('note_on', channel=13, note=73, velocity=110, time=4)
Message('note_on', channel=13, note=66, velocity=110, time=0)
Message('note_off', channel=13, note=73, velocity=0, time=44)
Message('note_off', channel=13, note=66, velocity=0, time=0)
Message('note_on', channel=13, note=78, velocity=110, time=4)
Message('note_on', channel=13, note=81, velocity=110, time=0)
Message('note_off', channel=13, note=81, velocity=0, time=44)
Message('note_off', channel=13, note=78, velocity=0, time=0)
Message('note_on', channel=13, note=73, velocity=110, time=4)
Message('note_on', channel=13, note=66, velocity=110, time=0)
Message('note_off', channel=13, note=73, velocity=0, time=44)
Message('note_off', channel=13, note=66, velocity=0, time=0)
Message('note_on', channel=13, note=78, velocity=110, time=4)
Message('note_on', channel=13, note=81, velocity=110, time=0)
Message('note_off', channel=13, note=78, velocity=0, time=44)
Message('note_off', channel=13, note=81, velocity=0, time=0)
Message('note_on', channel=13, note=69, velocity=110, time=4)
Message('note_on', channel=13, note=62, velocity=110, time=0)
Message('note_off', channel=13, note=69, velocity=0, time=44)
Message('note_off', channel=13, note=62, velocity=0, time=0)
Message('note_on', channel=13, note=74, velocity=110, time=4)
Message('note_on', channel=13, note=78, velocity=110, time=0)
Message('note_off', channel=13, note=74, velocity=0, time=44)
Message('note_off', channel=13, note=78, velocity=0, time=0)
Message('note_on', channel=13, note=69, velocity=110, time=4)
Message('note_on', channel=13, note=62, velocity=110, time=0)
Message('note_off', channel=13, note=69, velocity=0, time=44)
Message('note_off', channel=13, note=62, velocity=0, time=0)
Message('note_on', channel=13, note=78, velocity=110, time=4)
Message('note_on', channel=13, note=74, velocity=110, time=0)
Message('note_off', channel=13, note=78, velocity=0, time=44)
Message('note_off', channel=13, note=74, velocity=0, time=0)
Message('note_on', channel=13, note=71, velocity=110, time=4)
Message('note_on', channel=13, note=64, velocity=110, time=0)
Message('note_off', channel=13, note=71, velocity=0, time=44)
Message('note_off', channel=13, note=64, velocity=0, time=0)
Message('note_on', channel=13, note=76, velocity=110, time=4)
Message('note_on', channel=13, note=80, velocity=110, time=0)
Message('note_off', channel=13, note=80, velocity=0, time=44)
Message('note_off', channel=13, note=76, velocity=0, time=0)
Message('note_on', channel=13, note=64, velocity=110, time=4)
Message('note_on', channel=13, note=71, velocity=110, time=0)
Message('note_off', channel=13, note=64, velocity=0, time=44)
Message('note_off', channel=13, note=71, velocity=0, time=0)
Message('note_on', channel=13, note=80, velocity=110, time=4)
Message('note_on', channel=13, note=76, velocity=110, time=0)
Message('note_off', channel=13, note=80, velocity=0, time=44)
Message('note_off', channel=13, note=76, velocity=0, time=0)
Message('note_on', channel=13, note=73, velocity=110, time=4)
Message('note_on', channel=13, note=66, velocity=110, time=0)
Message('note_off', channel=13, note=73, velocity=0, time=44)
Message('note_off', channel=13, note=66, velocity=0, time=0)
Message('note_on', channel=13, note=78, velocity=110, time=4)
Message('note_on', channel=13, note=81, velocity=110, time=0)
Message('note_off', channel=13, note=78, velocity=0, time=44)
Message('note_off', channel=13, note=81, velocity=0, time=0)
Message('note_on', channel=13, note=73, velocity=110, time=4)
Message('note_on', channel=13, note=66, velocity=110, time=0)
Message('note_off', channel=13, note=73, velocity=0, time=44)
Message('note_off', channel=13, note=66, velocity=0, time=0)
Message('note_on', channel=13, note=83, velocity=110, time=4)
Message('note_on', channel=13, note=80, velocity=110, time=0)
Message('note_off', channel=13, note=83, velocity=0, time=44)
Message('note_off', channel=13, note=80, velocity=0, time=0)
Message('note_on', channel=13, note=73, velocity=110, time=4)
Message('note_on', channel=13, note=66, velocity=110, time=0)
Message('note_off', channel=13, note=73, velocity=0, time=44)
Message('note_off', channel=13, note=66, velocity=0, time=0)
Message('note_on', channel=13, note=81, velocity=110, time=4)
Message('note_on', channel=13, note=85, velocity=110, time=0)
Message('note_off', channel=13, note=85, velocity=0, time=44)
Message('note_off', channel=13, note=81, velocity=0, time=0)
Message('note_on', channel=13, note=73, velocity=110, time=4)
Message('note_on', channel=13, note=66, velocity=110, time=0)
Message('note_off', channel=13, note=73, velocity=0, time=44)
Message('note_off', channel=13, note=66, velocity=0, time=0)
Message('note_on', channel=13, note=90, velocity=110, time=4)
Message('note_on', channel=13, note=81, velocity=110, time=0)
Message('note_off', channel=13, note=90, velocity=0, time=44)
Message('note_off', channel=13, note=81, velocity=0, time=0)
Message('control_change', channel=13, control=101, value=0, time=12676)
Message('control_change', channel=13, control=100, value=0, time=0)
Message('control_change', channel=13, control=6, value=12, time=0)
Message('control_change', channel=13, control=10, value=64, time=0)
Message('control_change', channel=13, control=7, value=100, time=0)
Message('pitchwheel', channel=13, pitch=0, time=0)
Message('program_change', channel=13, program=0, time=0)
Message('control_change', channel=13, control=91, value=50, time=0)
Message('control_change', channel=13, control=93, value=10, time=0)
Message('control_change', channel=13, control=101, value=0, time=1)
Message('control_change', channel=13, control=100, value=0, time=0)
Message('control_change', channel=13, control=6, value=12, time=0)
Message('control_change', channel=13, control=10, value=64, time=0)
Message('control_change', channel=13, control=7, value=100, time=0)
Message('pitchwheel', channel=13, pitch=0, time=0)
Message('program_change', channel=13, program=0, time=0)
Message('control_change', channel=13, control=91, value=50, time=0)
Message('control_change', channel=13, control=93, value=10, time=0)
Message('control_change', channel=13, control=101, value=0, time=0)
Message('control_change', channel=13, control=100, value=0, time=0)
Message('control_change', channel=13, control=6, value=12, time=0)
Message('control_change', channel=13, control=10, value=64, time=0)
Message('control_change', channel=13, control=7, value=100, time=0)
Message('pitchwheel', channel=13, pitch=0, time=0)
Message('program_change', channel=13, program=0, time=0)
Message('control_change', channel=13, control=91, value=50, time=0)
Message('control_change', channel=13, control=93, value=10, time=0)
MetaMessage('end_of_track', time=0)
=== Track 15
MetaMessage('track_name', name='Channel #15', time=0)
Message('control_change', channel=14, control=10, value=90, time=0)
Message('control_change', channel=14, control=7, value=85, time=0)
Message('pitchwheel', channel=14, pitch=0, time=0)
Message('control_change', channel=14, control=101, value=0, time=0)
Message('control_change', channel=14, control=100, value=0, time=0)
Message('control_change', channel=14, control=6, value=12, time=0)
Message('control_change', channel=14, control=10, value=90, time=0)
Message('control_change', channel=14, control=7, value=85, time=0)
Message('pitchwheel', channel=14, pitch=0, time=0)
Message('program_change', channel=14, program=0, time=0)
Message('control_change', channel=14, control=91, value=50, time=0)
Message('control_change', channel=14, control=93, value=5, time=0)
Message('control_change', channel=14, control=101, value=0, time=0)
Message('control_change', channel=14, control=100, value=0, time=0)
Message('control_change', channel=14, control=6, value=12, time=0)
Message('control_change', channel=14, control=10, value=90, time=0)
Message('control_change', channel=14, control=7, value=85, time=0)
Message('pitchwheel', channel=14, pitch=0, time=0)
Message('program_change', channel=14, program=0, time=0)
Message('control_change', channel=14, control=91, value=50, time=0)
Message('control_change', channel=14, control=93, value=5, time=0)
Message('control_change', channel=14, control=10, value=90, time=0)
Message('control_change', channel=14, control=7, value=85, time=0)
Message('pitchwheel', channel=14, pitch=0, time=0)
Message('program_change', channel=14, program=0, time=0)
Message('control_change', channel=14, control=91, value=50, time=0)
Message('control_change', channel=14, control=93, value=5, time=0)
Message('control_change', channel=14, control=101, value=0, time=0)
Message('control_change', channel=14, control=100, value=0, time=0)
Message('control_change', channel=14, control=6, value=12, time=0)
Message('control_change', channel=14, control=10, value=90, time=0)
Message('control_change', channel=14, control=7, value=85, time=0)
Message('pitchwheel', channel=14, pitch=0, time=0)
Message('program_change', channel=14, program=0, time=0)
Message('control_change', channel=14, control=91, value=50, time=0)
Message('control_change', channel=14, control=93, value=5, time=0)
Message('control_change', channel=14, control=10, value=90, time=0)
Message('control_change', channel=14, control=7, value=85, time=0)
Message('pitchwheel', channel=14, pitch=0, time=0)
Message('program_change', channel=14, program=0, time=0)
Message('control_change', channel=14, control=91, value=50, time=0)
Message('control_change', channel=14, control=93, value=5, time=0)
Message('note_on', channel=14, note=44, velocity=90, time=9600)
Message('note_on', channel=14, note=45, velocity=90, time=24)
Message('note_off', channel=14, note=44, velocity=0, time=22)
Message('note_on', channel=14, note=49, velocity=90, time=2)
Message('note_off', channel=14, note=45, velocity=0, time=22)
Message('note_on', channel=14, note=54, velocity=90, time=2)
Message('note_off', channel=14, note=49, velocity=0, time=22)
Message('note_on', channel=14, note=57, velocity=90, time=2)
Message('note_off', channel=14, note=54, velocity=0, time=22)
Message('note_on', channel=14, note=61, velocity=90, time=2)
Message('note_off', channel=14, note=57, velocity=0, time=22)
Message('note_on', channel=14, note=66, velocity=90, time=2)
Message('note_off', channel=14, note=61, velocity=0, time=22)
Message('note_on', channel=14, note=69, velocity=90, time=2)
Message('note_off', channel=14, note=66, velocity=0, time=22)
Message('note_on', channel=14, note=61, velocity=90, time=2)
Message('note_off', channel=14, note=69, velocity=0, time=22)
Message('note_on', channel=14, note=66, velocity=90, time=2)
Message('note_off', channel=14, note=61, velocity=0, time=22)
Message('note_on', channel=14, note=69, velocity=90, time=2)
Message('note_off', channel=14, note=66, velocity=0, time=22)
Message('note_on', channel=14, note=68, velocity=90, time=2)
Message('note_off', channel=14, note=69, velocity=0, time=22)
Message('note_on', channel=14, note=57, velocity=90, time=2)
Message('note_off', channel=14, note=68, velocity=0, time=22)
Message('note_on', channel=14, note=61, velocity=90, time=2)
Message('note_off', channel=14, note=57, velocity=0, time=22)
Message('note_on', channel=14, note=64, velocity=90, time=2)
Message('note_off', channel=14, note=61, velocity=0, time=22)
Message('note_on', channel=14, note=66, velocity=90, time=2)
Message('note_off', channel=14, note=64, velocity=0, time=22)
Message('note_on', channel=14, note=40, velocity=90, time=2)
Message('note_off', channel=14, note=66, velocity=0, time=22)
Message('note_on', channel=14, note=42, velocity=90, time=2)
Message('note_off', channel=14, note=40, velocity=0, time=22)
Message('note_on', channel=14, note=44, velocity=90, time=2)
Message('note_off', channel=14, note=42, velocity=0, time=22)
Message('note_on', channel=14, note=49, velocity=90, time=2)
Message('note_off', channel=14, note=44, velocity=0, time=22)
Message('note_on', channel=14, note=52, velocity=90, time=2)
Message('note_off', channel=14, note=49, velocity=0, time=22)
Message('note_on', channel=14, note=56, velocity=90, time=2)
Message('note_off', channel=14, note=52, velocity=0, time=22)
Message('note_on', channel=14, note=61, velocity=90, time=2)
Message('note_off', channel=14, note=56, velocity=0, time=22)
Message('note_on', channel=14, note=64, velocity=90, time=2)
Message('note_off', channel=14, note=61, velocity=0, time=22)
Message('note_on', channel=14, note=68, velocity=90, time=2)
Message('note_off', channel=14, note=64, velocity=0, time=22)
Message('note_on', channel=14, note=71, velocity=90, time=2)
Message('note_off', channel=14, note=68, velocity=0, time=22)
Message('note_on', channel=14, note=68, velocity=90, time=2)
Message('note_off', channel=14, note=71, velocity=0, time=22)
Message('note_on', channel=14, note=76, velocity=90, time=2)
Message('note_off', channel=14, note=68, velocity=0, time=22)
Message('note_on', channel=14, note=71, velocity=90, time=2)
Message('note_off', channel=14, note=76, velocity=0, time=22)
Message('note_on', channel=14, note=68, velocity=90, time=2)
Message('note_off', channel=14, note=71, velocity=0, time=22)
Message('note_on', channel=14, note=64, velocity=90, time=2)
Message('note_off', channel=14, note=68, velocity=0, time=22)
Message('note_on', channel=14, note=59, velocity=90, time=2)
Message('note_off', channel=14, note=64, velocity=0, time=22)
Message('note_on', channel=14, note=39, velocity=90, time=2)
Message('note_off', channel=14, note=59, velocity=0, time=22)
Message('note_on', channel=14, note=44, velocity=90, time=2)
Message('note_off', channel=14, note=39, velocity=0, time=22)
Message('note_on', channel=14, note=47, velocity=90, time=2)
Message('note_off', channel=14, note=44, velocity=0, time=22)
Message('note_on', channel=14, note=51, velocity=90, time=2)
Message('note_off', channel=14, note=47, velocity=0, time=22)
Message('note_on', channel=14, note=56, velocity=90, time=2)
Message('note_off', channel=14, note=51, velocity=0, time=22)
Message('note_on', channel=14, note=59, velocity=90, time=2)
Message('note_off', channel=14, note=56, velocity=0, time=22)
Message('note_on', channel=14, note=56, velocity=90, time=2)
Message('note_off', channel=14, note=59, velocity=0, time=22)
Message('note_on', channel=14, note=59, velocity=90, time=2)
Message('note_off', channel=14, note=56, velocity=0, time=22)
Message('note_on', channel=14, note=63, velocity=90, time=2)
Message('note_off', channel=14, note=59, velocity=0, time=22)
Message('note_on', channel=14, note=66, velocity=90, time=2)
Message('note_off', channel=14, note=63, velocity=0, time=22)
Message('note_on', channel=14, note=68, velocity=90, time=2)
Message('note_off', channel=14, note=66, velocity=0, time=22)
Message('note_on', channel=14, note=71, velocity=90, time=2)
Message('note_off', channel=14, note=68, velocity=0, time=22)
Message('note_on', channel=14, note=68, velocity=90, time=2)
Message('note_off', channel=14, note=71, velocity=0, time=22)
Message('note_on', channel=14, note=71, velocity=90, time=2)
Message('note_off', channel=14, note=68, velocity=0, time=22)
Message('note_on', channel=14, note=63, velocity=90, time=2)
Message('note_off', channel=14, note=71, velocity=0, time=22)
Message('note_on', channel=14, note=56, velocity=90, time=2)
Message('note_off', channel=14, note=63, velocity=0, time=22)
Message('note_on', channel=14, note=63, velocity=90, time=2)
Message('note_off', channel=14, note=56, velocity=0, time=22)
Message('note_on', channel=14, note=59, velocity=90, time=2)
Message('note_off', channel=14, note=63, velocity=0, time=22)
Message('note_on', channel=14, note=57, velocity=90, time=2)
Message('note_off', channel=14, note=59, velocity=0, time=22)
Message('note_on', channel=14, note=56, velocity=90, time=2)
Message('note_off', channel=14, note=57, velocity=0, time=22)
Message('note_on', channel=14, note=59, velocity=90, time=2)
Message('note_off', channel=14, note=56, velocity=0, time=22)
Message('note_on', channel=14, note=56, velocity=90, time=2)
Message('note_off', channel=14, note=59, velocity=0, time=22)
Message('note_on', channel=14, note=51, velocity=90, time=2)
Message('note_off', channel=14, note=56, velocity=0, time=22)
Message('note_on', channel=14, note=47, velocity=90, time=2)
Message('note_off', channel=14, note=51, velocity=0, time=22)
Message('note_on', channel=14, note=45, velocity=90, time=2)
Message('note_off', channel=14, note=47, velocity=0, time=22)
Message('note_on', channel=14, note=44, velocity=90, time=2)
Message('note_off', channel=14, note=45, velocity=0, time=22)
Message('note_on', channel=14, note=45, velocity=90, time=2)
Message('note_off', channel=14, note=44, velocity=0, time=22)
Message('note_on', channel=14, note=47, velocity=90, time=2)
Message('note_off', channel=14, note=45, velocity=0, time=22)
Message('note_on', channel=14, note=49, velocity=90, time=2)
Message('note_off', channel=14, note=47, velocity=0, time=22)
Message('note_on', channel=14, note=56, velocity=90, time=2)
Message('note_off', channel=14, note=49, velocity=0, time=22)
Message('note_on', channel=14, note=57, velocity=90, time=2)
Message('note_off', channel=14, note=56, velocity=0, time=22)
Message('note_on', channel=14, note=56, velocity=90, time=2)
Message('note_off', channel=14, note=57, velocity=0, time=22)
Message('note_on', channel=14, note=38, velocity=90, time=2)
Message('note_off', channel=14, note=56, velocity=0, time=22)
Message('note_on', channel=14, note=42, velocity=90, time=2)
Message('note_off', channel=14, note=38, velocity=0, time=22)
Message('note_on', channel=14, note=45, velocity=90, time=2)
Message('note_off', channel=14, note=42, velocity=0, time=22)
Message('note_on', channel=14, note=50, velocity=90, time=2)
Message('note_off', channel=14, note=45, velocity=0, time=22)
Message('note_on', channel=14, note=54, velocity=90, time=2)
Message('note_off', channel=14, note=50, velocity=0, time=22)
Message('note_on', channel=14, note=57, velocity=90, time=2)
Message('note_off', channel=14, note=54, velocity=0, time=22)
Message('note_on', channel=14, note=62, velocity=90, time=2)
Message('note_off', channel=14, note=57, velocity=0, time=22)
Message('note_on', channel=14, note=66, velocity=90, time=2)
Message('note_off', channel=14, note=62, velocity=0, time=22)
Message('note_on', channel=14, note=69, velocity=90, time=2)
Message('note_off', channel=14, note=66, velocity=0, time=22)
Message('note_on', channel=14, note=68, velocity=90, time=2)
Message('note_off', channel=14, note=69, velocity=0, time=22)
Message('note_on', channel=14, note=64, velocity=90, time=2)
Message('note_off', channel=14, note=68, velocity=0, time=22)
Message('note_on', channel=14, note=62, velocity=90, time=2)
Message('note_off', channel=14, note=64, velocity=0, time=22)
Message('note_on', channel=14, note=66, velocity=90, time=2)
Message('note_off', channel=14, note=62, velocity=0, time=22)
Message('note_on', channel=14, note=69, velocity=90, time=2)
Message('note_off', channel=14, note=66, velocity=0, time=22)
Message('note_on', channel=14, note=66, velocity=90, time=2)
Message('note_off', channel=14, note=69, velocity=0, time=22)
Message('note_on', channel=14, note=62, velocity=90, time=2)
Message('note_off', channel=14, note=66, velocity=0, time=22)
Message('note_on', channel=14, note=40, velocity=90, time=2)
Message('note_off', channel=14, note=62, velocity=0, time=22)
Message('note_on', channel=14, note=44, velocity=90, time=2)
Message('note_off', channel=14, note=40, velocity=0, time=22)
Message('note_on', channel=14, note=47, velocity=90, time=2)
Message('note_off', channel=14, note=44, velocity=0, time=22)
Message('note_on', channel=14, note=52, velocity=90, time=2)
Message('note_off', channel=14, note=47, velocity=0, time=22)
Message('note_on', channel=14, note=56, velocity=90, time=2)
Message('note_off', channel=14, note=52, velocity=0, time=22)
Message('note_on', channel=14, note=59, velocity=90, time=2)
Message('note_off', channel=14, note=56, velocity=0, time=22)
Message('note_on', channel=14, note=64, velocity=90, time=2)
Message('note_off', channel=14, note=59, velocity=0, time=22)
Message('note_on', channel=14, note=68, velocity=90, time=2)
Message('note_off', channel=14, note=64, velocity=0, time=22)
Message('note_on', channel=14, note=71, velocity=90, time=2)
Message('note_off', channel=14, note=68, velocity=0, time=22)
Message('note_on', channel=14, note=68, velocity=90, time=2)
Message('note_off', channel=14, note=71, velocity=0, time=22)
Message('note_on', channel=14, note=64, velocity=90, time=2)
Message('note_off', channel=14, note=68, velocity=0, time=22)
Message('note_on', channel=14, note=71, velocity=90, time=2)
Message('note_off', channel=14, note=64, velocity=0, time=22)
Message('note_on', channel=14, note=68, velocity=90, time=2)
Message('note_off', channel=14, note=71, velocity=0, time=22)
Message('note_on', channel=14, note=64, velocity=90, time=2)
Message('note_off', channel=14, note=68, velocity=0, time=22)
Message('note_on', channel=14, note=71, velocity=90, time=2)
Message('note_off', channel=14, note=64, velocity=0, time=22)
Message('note_on', channel=14, note=64, velocity=90, time=2)
Message('note_off', channel=14, note=71, velocity=0, time=22)
Message('note_on', channel=14, note=42, velocity=90, time=2)
Message('note_off', channel=14, note=64, velocity=0, time=22)
Message('note_on', channel=14, note=44, velocity=90, time=2)
Message('note_off', channel=14, note=42, velocity=0, time=22)
Message('note_on', channel=14, note=45, velocity=90, time=2)
Message('note_off', channel=14, note=44, velocity=0, time=22)
Message('note_on', channel=14, note=49, velocity=90, time=2)
Message('note_off', channel=14, note=45, velocity=0, time=22)
Message('note_on', channel=14, note=54, velocity=90, time=2)
Message('note_off', channel=14, note=49, velocity=0, time=22)
Message('note_on', channel=14, note=56, velocity=90, time=2)
Message('note_off', channel=14, note=54, velocity=0, time=22)
Message('note_on', channel=14, note=57, velocity=90, time=2)
Message('note_off', channel=14, note=56, velocity=0, time=22)
Message('note_on', channel=14, note=61, velocity=90, time=2)
Message('note_off', channel=14, note=57, velocity=0, time=22)
Message('note_on', channel=14, note=66, velocity=90, time=2)
Message('note_off', channel=14, note=61, velocity=0, time=22)
Message('note_on', channel=14, note=68, velocity=90, time=2)
Message('note_off', channel=14, note=66, velocity=0, time=22)
Message('note_on', channel=14, note=69, velocity=90, time=2)
Message('note_off', channel=14, note=68, velocity=0, time=22)
Message('note_on', channel=14, note=73, velocity=90, time=2)
Message('note_off', channel=14, note=69, velocity=0, time=22)
Message('note_on', channel=14, note=78, velocity=90, time=2)
Message('note_off', channel=14, note=73, velocity=0, time=22)
Message('note_on', channel=14, note=73, velocity=90, time=2)
Message('note_off', channel=14, note=78, velocity=0, time=22)
Message('note_on', channel=14, note=69, velocity=90, time=2)
Message('note_off', channel=14, note=73, velocity=0, time=22)
Message('note_on', channel=14, note=68, velocity=90, time=2)
Message('note_off', channel=14, note=69, velocity=0, time=22)
Message('note_on', channel=14, note=66, velocity=90, time=2)
Message('note_off', channel=14, note=68, velocity=0, time=22)
Message('note_on', channel=14, note=69, velocity=90, time=2)
Message('note_off', channel=14, note=66, velocity=0, time=22)
Message('note_on', channel=14, note=68, velocity=90, time=2)
Message('note_off', channel=14, note=69, velocity=0, time=22)
Message('note_on', channel=14, note=61, velocity=90, time=2)
Message('note_off', channel=14, note=68, velocity=0, time=22)
Message('note_on', channel=14, note=68, velocity=90, time=2)
Message('note_off', channel=14, note=61, velocity=0, time=22)
Message('note_on', channel=14, note=66, velocity=90, time=2)
Message('note_off', channel=14, note=68, velocity=0, time=22)
Message('note_on', channel=14, note=59, velocity=90, time=2)
Message('note_off', channel=14, note=66, velocity=0, time=22)
Message('note_on', channel=14, note=66, velocity=90, time=2)
Message('note_off', channel=14, note=59, velocity=0, time=22)
Message('note_on', channel=14, note=64, velocity=90, time=2)
Message('note_off', channel=14, note=66, velocity=0, time=22)
Message('note_on', channel=14, note=57, velocity=90, time=2)
Message('note_off', channel=14, note=64, velocity=0, time=22)
Message('note_on', channel=14, note=64, velocity=90, time=2)
Message('note_off', channel=14, note=57, velocity=0, time=22)
Message('note_on', channel=14, note=62, velocity=90, time=2)
Message('note_off', channel=14, note=64, velocity=0, time=22)
Message('note_on', channel=14, note=61, velocity=90, time=2)
Message('note_off', channel=14, note=62, velocity=0, time=22)
Message('note_on', channel=14, note=59, velocity=90, time=2)
Message('note_off', channel=14, note=61, velocity=0, time=22)
Message('note_on', channel=14, note=57, velocity=90, time=2)
Message('note_off', channel=14, note=59, velocity=0, time=22)
Message('note_on', channel=14, note=56, velocity=90, time=2)
Message('note_off', channel=14, note=57, velocity=0, time=22)
Message('note_on', channel=14, note=44, velocity=100, time=2)
Message('note_off', channel=14, note=56, velocity=0, time=22)
Message('note_on', channel=14, note=45, velocity=100, time=2)
Message('note_off', channel=14, note=44, velocity=0, time=22)
Message('note_on', channel=14, note=49, velocity=100, time=2)
Message('note_off', channel=14, note=45, velocity=0, time=22)
Message('note_on', channel=14, note=54, velocity=100, time=2)
Message('note_off', channel=14, note=49, velocity=0, time=22)
Message('note_on', channel=14, note=57, velocity=100, time=2)
Message('note_off', channel=14, note=54, velocity=0, time=22)
Message('note_on', channel=14, note=61, velocity=100, time=2)
Message('note_off', channel=14, note=57, velocity=0, time=22)
Message('note_on', channel=14, note=66, velocity=100, time=2)
Message('note_off', channel=14, note=61, velocity=0, time=22)
Message('note_on', channel=14, note=69, velocity=101, time=2)
Message('note_off', channel=14, note=66, velocity=0, time=22)
Message('note_on', channel=14, note=61, velocity=101, time=2)
Message('note_off', channel=14, note=69, velocity=0, time=22)
Message('note_on', channel=14, note=66, velocity=101, time=2)
Message('note_off', channel=14, note=61, velocity=0, time=22)
Message('note_on', channel=14, note=69, velocity=101, time=2)
Message('note_off', channel=14, note=66, velocity=0, time=22)
Message('note_on', channel=14, note=68, velocity=101, time=2)
Message('note_off', channel=14, note=69, velocity=0, time=22)
Message('note_on', channel=14, note=57, velocity=101, time=2)
Message('note_off', channel=14, note=68, velocity=0, time=22)
Message('note_on', channel=14, note=61, velocity=101, time=2)
Message('note_off', channel=14, note=57, velocity=0, time=22)
Message('note_on', channel=14, note=64, velocity=101, time=2)
Message('note_off', channel=14, note=61, velocity=0, time=22)
Message('note_on', channel=14, note=66, velocity=101, time=2)
Message('note_off', channel=14, note=64, velocity=0, time=22)
Message('note_on', channel=14, note=40, velocity=101, time=2)
Message('note_off', channel=14, note=66, velocity=0, time=22)
Message('note_on', channel=14, note=42, velocity=101, time=2)
Message('note_off', channel=14, note=40, velocity=0, time=22)
Message('note_on', channel=14, note=44, velocity=101, time=2)
Message('note_off', channel=14, note=42, velocity=0, time=22)
Message('note_on', channel=14, note=49, velocity=101, time=2)
Message('note_off', channel=14, note=44, velocity=0, time=22)
Message('note_on', channel=14, note=52, velocity=102, time=2)
Message('note_off', channel=14, note=49, velocity=0, time=22)
Message('note_on', channel=14, note=56, velocity=102, time=2)
Message('note_off', channel=14, note=52, velocity=0, time=22)
Message('note_on', channel=14, note=61, velocity=102, time=2)
Message('note_off', channel=14, note=56, velocity=0, time=22)
Message('note_on', channel=14, note=64, velocity=102, time=2)
Message('note_off', channel=14, note=61, velocity=0, time=22)
Message('note_on', channel=14, note=68, velocity=102, time=2)
Message('note_off', channel=14, note=64, velocity=0, time=22)
Message('note_on', channel=14, note=71, velocity=102, time=2)
Message('note_off', channel=14, note=68, velocity=0, time=22)
Message('note_on', channel=14, note=68, velocity=102, time=2)
Message('note_off', channel=14, note=71, velocity=0, time=22)
Message('note_on', channel=14, note=76, velocity=102, time=2)
Message('note_off', channel=14, note=68, velocity=0, time=22)
Message('note_on', channel=14, note=71, velocity=102, time=2)
Message('note_off', channel=14, note=76, velocity=0, time=22)
Message('note_on', channel=14, note=68, velocity=102, time=2)
Message('note_off', channel=14, note=71, velocity=0, time=22)
Message('note_on', channel=14, note=64, velocity=102, time=2)
Message('note_off', channel=14, note=68, velocity=0, time=22)
Message('note_on', channel=14, note=59, velocity=102, time=2)
Message('note_off', channel=14, note=64, velocity=0, time=22)
Message('note_on', channel=14, note=39, velocity=103, time=2)
Message('note_off', channel=14, note=59, velocity=0, time=22)
Message('note_on', channel=14, note=44, velocity=103, time=2)
Message('note_off', channel=14, note=39, velocity=0, time=22)
Message('note_on', channel=14, note=47, velocity=103, time=2)
Message('note_off', channel=14, note=44, velocity=0, time=22)
Message('note_on', channel=14, note=51, velocity=103, time=2)
Message('note_off', channel=14, note=47, velocity=0, time=22)
Message('note_on', channel=14, note=56, velocity=103, time=2)
Message('note_off', channel=14, note=51, velocity=0, time=22)
Message('note_on', channel=14, note=59, velocity=103, time=2)
Message('note_off', channel=14, note=56, velocity=0, time=22)
Message('note_on', channel=14, note=56, velocity=103, time=2)
Message('note_off', channel=14, note=59, velocity=0, time=22)
Message('note_on', channel=14, note=59, velocity=103, time=2)
Message('note_off', channel=14, note=56, velocity=0, time=22)
Message('note_on', channel=14, note=63, velocity=103, time=2)
Message('note_off', channel=14, note=59, velocity=0, time=22)
Message('note_on', channel=14, note=66, velocity=103, time=2)
Message('note_off', channel=14, note=63, velocity=0, time=22)
Message('note_on', channel=14, note=68, velocity=103, time=2)
Message('note_off', channel=14, note=66, velocity=0, time=22)
Message('note_on', channel=14, note=71, velocity=103, time=2)
Message('note_off', channel=14, note=68, velocity=0, time=22)
Message('note_on', channel=14, note=68, velocity=103, time=2)
Message('note_off', channel=14, note=71, velocity=0, time=22)
Message('note_on', channel=14, note=71, velocity=104, time=2)
Message('note_off', channel=14, note=68, velocity=0, time=22)
Message('note_on', channel=14, note=63, velocity=104, time=2)
Message('note_off', channel=14, note=71, velocity=0, time=22)
Message('note_on', channel=14, note=56, velocity=104, time=2)
Message('note_off', channel=14, note=63, velocity=0, time=22)
Message('note_on', channel=14, note=63, velocity=104, time=2)
Message('note_off', channel=14, note=56, velocity=0, time=22)
Message('note_on', channel=14, note=59, velocity=104, time=2)
Message('note_off', channel=14, note=63, velocity=0, time=22)
Message('note_on', channel=14, note=57, velocity=104, time=2)
Message('note_off', channel=14, note=59, velocity=0, time=22)
Message('note_on', channel=14, note=56, velocity=104, time=2)
Message('note_off', channel=14, note=57, velocity=0, time=22)
Message('note_on', channel=14, note=59, velocity=104, time=2)
Message('note_off', channel=14, note=56, velocity=0, time=22)
Message('note_on', channel=14, note=56, velocity=104, time=2)
Message('note_off', channel=14, note=59, velocity=0, time=22)
Message('note_on', channel=14, note=51, velocity=104, time=2)
Message('note_off', channel=14, note=56, velocity=0, time=22)
Message('note_on', channel=14, note=47, velocity=104, time=2)
Message('note_off', channel=14, note=51, velocity=0, time=22)
Message('note_on', channel=14, note=45, velocity=104, time=2)
Message('note_off', channel=14, note=47, velocity=0, time=22)
Message('note_on', channel=14, note=44, velocity=104, time=2)
Message('note_off', channel=14, note=45, velocity=0, time=22)
Message('note_on', channel=14, note=45, velocity=105, time=2)
Message('note_off', channel=14, note=44, velocity=0, time=22)
Message('note_on', channel=14, note=47, velocity=105, time=2)
Message('note_off', channel=14, note=45, velocity=0, time=22)
Message('note_on', channel=14, note=49, velocity=105, time=2)
Message('note_off', channel=14, note=47, velocity=0, time=22)
Message('note_on', channel=14, note=56, velocity=105, time=2)
Message('note_off', channel=14, note=49, velocity=0, time=22)
Message('note_on', channel=14, note=57, velocity=105, time=2)
Message('note_off', channel=14, note=56, velocity=0, time=22)
Message('note_on', channel=14, note=56, velocity=105, time=2)
Message('note_off', channel=14, note=57, velocity=0, time=22)
Message('note_on', channel=14, note=38, velocity=105, time=2)
Message('note_off', channel=14, note=56, velocity=0, time=22)
Message('note_on', channel=14, note=42, velocity=105, time=2)
Message('note_off', channel=14, note=38, velocity=0, time=22)
Message('note_on', channel=14, note=45, velocity=105, time=2)
Message('note_off', channel=14, note=42, velocity=0, time=22)
Message('note_on', channel=14, note=50, velocity=105, time=2)
Message('note_off', channel=14, note=45, velocity=0, time=22)
Message('note_on', channel=14, note=54, velocity=105, time=2)
Message('note_off', channel=14, note=50, velocity=0, time=22)
Message('note_on', channel=14, note=57, velocity=105, time=2)
Message('note_off', channel=14, note=54, velocity=0, time=22)
Message('note_on', channel=14, note=62, velocity=105, time=2)
Message('note_off', channel=14, note=57, velocity=0, time=22)
Message('note_on', channel=14, note=66, velocity=106, time=2)
Message('note_off', channel=14, note=62, velocity=0, time=22)
Message('note_on', channel=14, note=69, velocity=106, time=2)
Message('note_off', channel=14, note=66, velocity=0, time=22)
Message('note_on', channel=14, note=68, velocity=106, time=2)
Message('note_off', channel=14, note=69, velocity=0, time=22)
Message('note_on', channel=14, note=64, velocity=106, time=2)
Message('note_off', channel=14, note=68, velocity=0, time=22)
Message('note_on', channel=14, note=62, velocity=106, time=2)
Message('note_off', channel=14, note=64, velocity=0, time=22)
Message('note_on', channel=14, note=66, velocity=106, time=2)
Message('note_off', channel=14, note=62, velocity=0, time=22)
Message('note_on', channel=14, note=69, velocity=106, time=2)
Message('note_off', channel=14, note=66, velocity=0, time=22)
Message('note_on', channel=14, note=66, velocity=106, time=2)
Message('note_off', channel=14, note=69, velocity=0, time=22)
Message('note_on', channel=14, note=62, velocity=106, time=2)
Message('note_off', channel=14, note=66, velocity=0, time=22)
Message('note_on', channel=14, note=40, velocity=106, time=2)
Message('note_off', channel=14, note=62, velocity=0, time=22)
Message('note_on', channel=14, note=44, velocity=106, time=2)
Message('note_off', channel=14, note=40, velocity=0, time=22)
Message('note_on', channel=14, note=47, velocity=106, time=2)
Message('note_off', channel=14, note=44, velocity=0, time=22)
Message('note_on', channel=14, note=52, velocity=106, time=2)
Message('note_off', channel=14, note=47, velocity=0, time=22)
Message('note_on', channel=14, note=56, velocity=107, time=2)
Message('note_off', channel=14, note=52, velocity=0, time=22)
Message('note_on', channel=14, note=59, velocity=107, time=2)
Message('note_off', channel=14, note=56, velocity=0, time=22)
Message('note_on', channel=14, note=64, velocity=107, time=2)
Message('note_off', channel=14, note=59, velocity=0, time=22)
Message('note_on', channel=14, note=68, velocity=107, time=2)
Message('note_off', channel=14, note=64, velocity=0, time=22)
Message('note_on', channel=14, note=71, velocity=107, time=2)
Message('note_off', channel=14, note=68, velocity=0, time=22)
Message('note_on', channel=14, note=68, velocity=107, time=2)
Message('note_off', channel=14, note=71, velocity=0, time=22)
Message('note_on', channel=14, note=64, velocity=107, time=2)
Message('note_off', channel=14, note=68, velocity=0, time=22)
Message('note_on', channel=14, note=71, velocity=107, time=2)
Message('note_off', channel=14, note=64, velocity=0, time=22)
Message('note_on', channel=14, note=68, velocity=107, time=2)
Message('note_off', channel=14, note=71, velocity=0, time=22)
Message('note_on', channel=14, note=64, velocity=107, time=2)
Message('note_off', channel=14, note=68, velocity=0, time=22)
Message('note_on', channel=14, note=71, velocity=107, time=2)
Message('note_off', channel=14, note=64, velocity=0, time=22)
Message('note_on', channel=14, note=64, velocity=107, time=2)
Message('note_off', channel=14, note=71, velocity=0, time=22)
Message('note_on', channel=14, note=42, velocity=108, time=2)
Message('note_off', channel=14, note=64, velocity=0, time=22)
Message('note_on', channel=14, note=44, velocity=108, time=2)
Message('note_off', channel=14, note=42, velocity=0, time=22)
Message('note_on', channel=14, note=45, velocity=108, time=2)
Message('note_off', channel=14, note=44, velocity=0, time=22)
Message('note_on', channel=14, note=49, velocity=108, time=2)
Message('note_off', channel=14, note=45, velocity=0, time=22)
Message('note_on', channel=14, note=54, velocity=108, time=2)
Message('note_off', channel=14, note=49, velocity=0, time=22)
Message('note_on', channel=14, note=56, velocity=108, time=2)
Message('note_off', channel=14, note=54, velocity=0, time=22)
Message('note_on', channel=14, note=57, velocity=108, time=2)
Message('note_off', channel=14, note=56, velocity=0, time=22)
Message('note_on', channel=14, note=61, velocity=108, time=2)
Message('note_off', channel=14, note=57, velocity=0, time=22)
Message('note_on', channel=14, note=66, velocity=108, time=2)
Message('note_off', channel=14, note=61, velocity=0, time=22)
Message('note_on', channel=14, note=68, velocity=108, time=2)
Message('note_off', channel=14, note=66, velocity=0, time=22)
Message('note_on', channel=14, note=69, velocity=108, time=2)
Message('note_off', channel=14, note=68, velocity=0, time=22)
Message('note_on', channel=14, note=73, velocity=108, time=2)
Message('note_off', channel=14, note=69, velocity=0, time=22)
Message('note_on', channel=14, note=78, velocity=108, time=2)
Message('note_off', channel=14, note=73, velocity=0, time=22)
Message('note_on', channel=14, note=73, velocity=109, time=2)
Message('note_off', channel=14, note=78, velocity=0, time=22)
Message('note_on', channel=14, note=69, velocity=109, time=2)
Message('note_off', channel=14, note=73, velocity=0, time=22)
Message('note_on', channel=14, note=68, velocity=109, time=2)
Message('note_off', channel=14, note=69, velocity=0, time=22)
Message('note_on', channel=14, note=66, velocity=109, time=2)
Message('note_off', channel=14, note=68, velocity=0, time=22)
Message('note_on', channel=14, note=69, velocity=109, time=2)
Message('note_off', channel=14, note=66, velocity=0, time=22)
Message('note_on', channel=14, note=68, velocity=109, time=2)
Message('note_off', channel=14, note=69, velocity=0, time=22)
Message('note_on', channel=14, note=61, velocity=109, time=2)
Message('note_off', channel=14, note=68, velocity=0, time=22)
Message('note_on', channel=14, note=68, velocity=109, time=2)
Message('note_off', channel=14, note=61, velocity=0, time=22)
Message('note_on', channel=14, note=66, velocity=109, time=2)
Message('note_off', channel=14, note=68, velocity=0, time=22)
Message('note_on', channel=14, note=59, velocity=109, time=2)
Message('note_off', channel=14, note=66, velocity=0, time=22)
Message('note_on', channel=14, note=66, velocity=109, time=2)
Message('note_off', channel=14, note=59, velocity=0, time=22)
Message('note_on', channel=14, note=64, velocity=109, time=2)
Message('note_off', channel=14, note=66, velocity=0, time=22)
Message('note_on', channel=14, note=57, velocity=109, time=2)
Message('note_off', channel=14, note=64, velocity=0, time=22)
Message('note_on', channel=14, note=64, velocity=110, time=2)
Message('note_off', channel=14, note=57, velocity=0, time=22)
Message('note_on', channel=14, note=62, velocity=110, time=2)
Message('note_off', channel=14, note=64, velocity=0, time=22)
Message('note_on', channel=14, note=61, velocity=110, time=2)
Message('note_off', channel=14, note=62, velocity=0, time=22)
Message('note_on', channel=14, note=59, velocity=110, time=2)
Message('note_off', channel=14, note=61, velocity=0, time=22)
Message('note_on', channel=14, note=57, velocity=110, time=2)
Message('note_off', channel=14, note=59, velocity=0, time=22)
Message('note_on', channel=14, note=56, velocity=110, time=2)
Message('note_off', channel=14, note=57, velocity=0, time=22)
Message('note_on', channel=14, note=50, velocity=110, time=2)
Message('note_on', channel=14, note=57, velocity=110, time=0)
Message('note_off', channel=14, note=56, velocity=0, time=22)
Message('note_off', channel=14, note=50, velocity=0, time=22)
Message('note_off', channel=14, note=57, velocity=0, time=0)
Message('note_on', channel=14, note=66, velocity=110, time=4)
Message('note_on', channel=14, note=69, velocity=110, time=0)
Message('note_off', channel=14, note=66, velocity=0, time=44)
Message('note_off', channel=14, note=69, velocity=0, time=0)
Message('note_on', channel=14, note=50, velocity=110, time=4)
Message('note_on', channel=14, note=57, velocity=110, time=0)
Message('note_off', channel=14, note=50, velocity=0, time=44)
Message('note_off', channel=14, note=57, velocity=0, time=0)
Message('note_on', channel=14, note=69, velocity=110, time=4)
Message('note_on', channel=14, note=66, velocity=110, time=0)
Message('note_off', channel=14, note=69, velocity=0, time=44)
Message('note_off', channel=14, note=66, velocity=0, time=0)
Message('note_on', channel=14, note=59, velocity=110, time=4)
Message('note_on', channel=14, note=52, velocity=110, time=0)
Message('note_off', channel=14, note=59, velocity=0, time=44)
Message('note_off', channel=14, note=52, velocity=0, time=0)
Message('note_on', channel=14, note=68, velocity=110, time=4)
Message('note_on', channel=14, note=71, velocity=110, time=0)
Message('note_off', channel=14, note=68, velocity=0, time=44)
Message('note_off', channel=14, note=71, velocity=0, time=0)
Message('note_on', channel=14, note=52, velocity=110, time=4)
Message('note_on', channel=14, note=59, velocity=110, time=0)
Message('note_off', channel=14, note=52, velocity=0, time=44)
Message('note_off', channel=14, note=59, velocity=0, time=0)
Message('note_on', channel=14, note=71, velocity=110, time=4)
Message('note_on', channel=14, note=68, velocity=110, time=0)
Message('note_off', channel=14, note=71, velocity=0, time=44)
Message('note_off', channel=14, note=68, velocity=0, time=0)
Message('note_on', channel=14, note=54, velocity=110, time=4)
Message('note_on', channel=14, note=61, velocity=110, time=0)
Message('note_off', channel=14, note=54, velocity=0, time=44)
Message('note_off', channel=14, note=61, velocity=0, time=0)
Message('note_on', channel=14, note=69, velocity=110, time=4)
Message('note_on', channel=14, note=66, velocity=110, time=0)
Message('note_off', channel=14, note=69, velocity=0, time=44)
Message('note_off', channel=14, note=66, velocity=0, time=0)
Message('note_on', channel=14, note=61, velocity=110, time=4)
Message('note_on', channel=14, note=54, velocity=110, time=0)
Message('note_off', channel=14, note=61, velocity=0, time=44)
Message('note_off', channel=14, note=54, velocity=0, time=0)
Message('note_on', channel=14, note=69, velocity=110, time=4)
Message('note_on', channel=14, note=66, velocity=110, time=0)
Message('note_off', channel=14, note=69, velocity=0, time=44)
Message('note_off', channel=14, note=66, velocity=0, time=0)
Message('note_on', channel=14, note=54, velocity=110, time=4)
Message('note_on', channel=14, note=61, velocity=110, time=0)
Message('note_off', channel=14, note=54, velocity=0, time=44)
Message('note_off', channel=14, note=61, velocity=0, time=0)
Message('note_on', channel=14, note=69, velocity=110, time=4)
Message('note_on', channel=14, note=66, velocity=110, time=0)
Message('note_off', channel=14, note=69, velocity=0, time=44)
Message('note_off', channel=14, note=66, velocity=0, time=0)
Message('note_on', channel=14, note=61, velocity=110, time=4)
Message('note_on', channel=14, note=54, velocity=110, time=0)
Message('note_off', channel=14, note=61, velocity=0, time=44)
Message('note_off', channel=14, note=54, velocity=0, time=0)
Message('note_on', channel=14, note=66, velocity=110, time=4)
Message('note_on', channel=14, note=69, velocity=110, time=0)
Message('note_off', channel=14, note=66, velocity=0, time=44)
Message('note_off', channel=14, note=69, velocity=0, time=0)
Message('note_on', channel=14, note=50, velocity=110, time=4)
Message('note_on', channel=14, note=57, velocity=110, time=0)
Message('note_off', channel=14, note=50, velocity=0, time=44)
Message('note_off', channel=14, note=57, velocity=0, time=0)
Message('note_on', channel=14, note=62, velocity=110, time=4)
Message('note_on', channel=14, note=66, velocity=110, time=0)
Message('note_off', channel=14, note=62, velocity=0, time=44)
Message('note_off', channel=14, note=66, velocity=0, time=0)
Message('note_on', channel=14, note=57, velocity=110, time=4)
Message('note_on', channel=14, note=50, velocity=110, time=0)
Message('note_off', channel=14, note=57, velocity=0, time=44)
Message('note_off', channel=14, note=50, velocity=0, time=0)
Message('note_on', channel=14, note=66, velocity=110, time=4)
Message('note_on', channel=14, note=62, velocity=110, time=0)
Message('note_off', channel=14, note=66, velocity=0, time=44)
Message('note_off', channel=14, note=62, velocity=0, time=0)
Message('note_on', channel=14, note=59, velocity=110, time=4)
Message('note_on', channel=14, note=52, velocity=110, time=0)
Message('note_off', channel=14, note=59, velocity=0, time=44)
Message('note_off', channel=14, note=52, velocity=0, time=0)
Message('note_on', channel=14, note=68, velocity=110, time=4)
Message('note_on', channel=14, note=64, velocity=110, time=0)
Message('note_off', channel=14, note=68, velocity=0, time=44)
Message('note_off', channel=14, note=64, velocity=0, time=0)
Message('note_on', channel=14, note=52, velocity=110, time=4)
Message('note_on', channel=14, note=59, velocity=110, time=0)
Message('note_off', channel=14, note=52, velocity=0, time=44)
Message('note_off', channel=14, note=59, velocity=0, time=0)
Message('note_on', channel=14, note=64, velocity=110, time=4)
Message('note_on', channel=14, note=68, velocity=110, time=0)
Message('note_off', channel=14, note=64, velocity=0, time=44)
Message('note_off', channel=14, note=68, velocity=0, time=0)
Message('note_on', channel=14, note=54, velocity=110, time=4)
Message('note_on', channel=14, note=61, velocity=110, time=0)
Message('note_off', channel=14, note=54, velocity=0, time=44)
Message('note_off', channel=14, note=61, velocity=0, time=0)
Message('note_on', channel=14, note=69, velocity=110, time=4)
Message('note_on', channel=14, note=66, velocity=110, time=0)
Message('note_off', channel=14, note=69, velocity=0, time=44)
Message('note_off', channel=14, note=66, velocity=0, time=0)
Message('note_on', channel=14, note=61, velocity=110, time=4)
Message('note_on', channel=14, note=54, velocity=110, time=0)
Message('note_off', channel=14, note=61, velocity=0, time=44)
Message('note_off', channel=14, note=54, velocity=0, time=0)
Message('note_on', channel=14, note=68, velocity=110, time=4)
Message('note_on', channel=14, note=71, velocity=110, time=0)
Message('note_off', channel=14, note=68, velocity=0, time=44)
Message('note_off', channel=14, note=71, velocity=0, time=0)
Message('note_on', channel=14, note=61, velocity=110, time=4)
Message('note_on', channel=14, note=54, velocity=110, time=0)
Message('note_off', channel=14, note=61, velocity=0, time=44)
Message('note_off', channel=14, note=54, velocity=0, time=0)
Message('note_on', channel=14, note=73, velocity=110, time=4)
Message('note_on', channel=14, note=69, velocity=110, time=0)
Message('note_off', channel=14, note=73, velocity=0, time=44)
Message('note_off', channel=14, note=69, velocity=0, time=0)
Message('note_on', channel=14, note=54, velocity=110, time=4)
Message('note_on', channel=14, note=61, velocity=110, time=0)
Message('note_off', channel=14, note=54, velocity=0, time=44)
Message('note_off', channel=14, note=61, velocity=0, time=0)
Message('note_on', channel=14, note=69, velocity=110, time=4)
Message('note_on', channel=14, note=78, velocity=110, time=0)
Message('note_off', channel=14, note=69, velocity=0, time=44)
Message('note_off', channel=14, note=78, velocity=0, time=0)
Message('note_on', channel=14, note=57, velocity=110, time=4)
Message('note_on', channel=14, note=50, velocity=110, time=0)
Message('note_off', channel=14, note=57, velocity=0, time=44)
Message('note_off', channel=14, note=50, velocity=0, time=0)
Message('note_on', channel=14, note=69, velocity=110, time=4)
Message('note_on', channel=14, note=66, velocity=110, time=0)
Message('note_off', channel=14, note=69, velocity=0, time=44)
Message('note_off', channel=14, note=66, velocity=0, time=0)
Message('note_on', channel=14, note=57, velocity=110, time=4)
Message('note_on', channel=14, note=50, velocity=110, time=0)
Message('note_off', channel=14, note=57, velocity=0, time=44)
Message('note_off', channel=14, note=50, velocity=0, time=0)
Message('note_on', channel=14, note=66, velocity=110, time=4)
Message('note_on', channel=14, note=69, velocity=110, time=0)
Message('note_off', channel=14, note=66, velocity=0, time=44)
Message('note_off', channel=14, note=69, velocity=0, time=0)
Message('note_on', channel=14, note=52, velocity=110, time=4)
Message('note_on', channel=14, note=59, velocity=110, time=0)
Message('note_off', channel=14, note=52, velocity=0, time=44)
Message('note_off', channel=14, note=59, velocity=0, time=0)
Message('note_on', channel=14, note=71, velocity=110, time=4)
Message('note_on', channel=14, note=68, velocity=110, time=0)
Message('note_off', channel=14, note=71, velocity=0, time=44)
Message('note_off', channel=14, note=68, velocity=0, time=0)
Message('note_on', channel=14, note=59, velocity=110, time=4)
Message('note_on', channel=14, note=52, velocity=110, time=0)
Message('note_off', channel=14, note=59, velocity=0, time=44)
Message('note_off', channel=14, note=52, velocity=0, time=0)
Message('note_on', channel=14, note=71, velocity=110, time=4)
Message('note_on', channel=14, note=68, velocity=110, time=0)
Message('note_off', channel=14, note=71, velocity=0, time=44)
Message('note_off', channel=14, note=68, velocity=0, time=0)
Message('note_on', channel=14, note=54, velocity=110, time=4)
Message('note_on', channel=14, note=61, velocity=110, time=0)
Message('note_off', channel=14, note=54, velocity=0, time=44)
Message('note_off', channel=14, note=61, velocity=0, time=0)
Message('note_on', channel=14, note=69, velocity=110, time=4)
Message('note_on', channel=14, note=66, velocity=110, time=0)
Message('note_off', channel=14, note=69, velocity=0, time=44)
Message('note_off', channel=14, note=66, velocity=0, time=0)
Message('note_on', channel=14, note=61, velocity=110, time=4)
Message('note_on', channel=14, note=54, velocity=110, time=0)
Message('note_off', channel=14, note=61, velocity=0, time=44)
Message('note_off', channel=14, note=54, velocity=0, time=0)
Message('note_on', channel=14, note=69, velocity=110, time=4)
Message('note_on', channel=14, note=66, velocity=110, time=0)
Message('note_off', channel=14, note=69, velocity=0, time=44)
Message('note_off', channel=14, note=66, velocity=0, time=0)
Message('note_on', channel=14, note=61, velocity=110, time=4)
Message('note_on', channel=14, note=54, velocity=110, time=0)
Message('note_off', channel=14, note=61, velocity=0, time=44)
Message('note_off', channel=14, note=54, velocity=0, time=0)
Message('note_on', channel=14, note=69, velocity=110, time=4)
Message('note_on', channel=14, note=66, velocity=110, time=0)
Message('note_off', channel=14, note=69, velocity=0, time=44)
Message('note_off', channel=14, note=66, velocity=0, time=0)
Message('note_on', channel=14, note=54, velocity=110, time=4)
Message('note_on', channel=14, note=61, velocity=110, time=0)
Message('note_off', channel=14, note=54, velocity=0, time=44)
Message('note_off', channel=14, note=61, velocity=0, time=0)
Message('note_on', channel=14, note=66, velocity=110, time=4)
Message('note_on', channel=14, note=69, velocity=110, time=0)
Message('note_off', channel=14, note=66, velocity=0, time=44)
Message('note_off', channel=14, note=69, velocity=0, time=0)
Message('note_on', channel=14, note=57, velocity=110, time=4)
Message('note_on', channel=14, note=50, velocity=110, time=0)
Message('note_off', channel=14, note=57, velocity=0, time=44)
Message('note_off', channel=14, note=50, velocity=0, time=0)
Message('note_on', channel=14, note=62, velocity=110, time=4)
Message('note_on', channel=14, note=66, velocity=110, time=0)
Message('note_off', channel=14, note=62, velocity=0, time=44)
Message('note_off', channel=14, note=66, velocity=0, time=0)
Message('note_on', channel=14, note=57, velocity=110, time=4)
Message('note_on', channel=14, note=50, velocity=110, time=0)
Message('note_off', channel=14, note=57, velocity=0, time=44)
Message('note_off', channel=14, note=50, velocity=0, time=0)
Message('note_on', channel=14, note=62, velocity=110, time=4)
Message('note_on', channel=14, note=66, velocity=110, time=0)
Message('note_off', channel=14, note=62, velocity=0, time=44)
Message('note_off', channel=14, note=66, velocity=0, time=0)
Message('note_on', channel=14, note=52, velocity=110, time=4)
Message('note_on', channel=14, note=59, velocity=110, time=0)
Message('note_off', channel=14, note=52, velocity=0, time=44)
Message('note_off', channel=14, note=59, velocity=0, time=0)
Message('note_on', channel=14, note=64, velocity=110, time=4)
Message('note_on', channel=14, note=68, velocity=110, time=0)
Message('note_off', channel=14, note=64, velocity=0, time=44)
Message('note_off', channel=14, note=68, velocity=0, time=0)
Message('note_on', channel=14, note=59, velocity=110, time=4)
Message('note_on', channel=14, note=52, velocity=110, time=0)
Message('note_off', channel=14, note=59, velocity=0, time=44)
Message('note_off', channel=14, note=52, velocity=0, time=0)
Message('note_on', channel=14, note=64, velocity=110, time=4)
Message('note_on', channel=14, note=68, velocity=110, time=0)
Message('note_off', channel=14, note=64, velocity=0, time=44)
Message('note_off', channel=14, note=68, velocity=0, time=0)
Message('note_on', channel=14, note=61, velocity=110, time=4)
Message('note_on', channel=14, note=54, velocity=110, time=0)
Message('note_off', channel=14, note=61, velocity=0, time=44)
Message('note_off', channel=14, note=54, velocity=0, time=0)
Message('note_on', channel=14, note=66, velocity=110, time=4)
Message('note_on', channel=14, note=69, velocity=110, time=0)
Message('note_off', channel=14, note=66, velocity=0, time=44)
Message('note_off', channel=14, note=69, velocity=0, time=0)
Message('note_on', channel=14, note=61, velocity=110, time=4)
Message('note_on', channel=14, note=54, velocity=110, time=0)
Message('note_off', channel=14, note=61, velocity=0, time=44)
Message('note_off', channel=14, note=54, velocity=0, time=0)
Message('note_on', channel=14, note=71, velocity=110, time=4)
Message('note_on', channel=14, note=68, velocity=110, time=0)
Message('note_off', channel=14, note=71, velocity=0, time=44)
Message('note_off', channel=14, note=68, velocity=0, time=0)
Message('note_on', channel=14, note=61, velocity=110, time=4)
Message('note_on', channel=14, note=54, velocity=110, time=0)
Message('note_off', channel=14, note=61, velocity=0, time=44)
Message('note_off', channel=14, note=54, velocity=0, time=0)
Message('note_on', channel=14, note=73, velocity=110, time=4)
Message('note_on', channel=14, note=69, velocity=110, time=0)
Message('note_off', channel=14, note=73, velocity=0, time=44)
Message('note_off', channel=14, note=69, velocity=0, time=0)
Message('note_on', channel=14, note=54, velocity=110, time=4)
Message('note_on', channel=14, note=61, velocity=110, time=0)
Message('note_off', channel=14, note=54, velocity=0, time=44)
Message('note_off', channel=14, note=61, velocity=0, time=0)
Message('note_on', channel=14, note=78, velocity=110, time=4)
Message('note_on', channel=14, note=69, velocity=110, time=0)
Message('note_off', channel=14, note=69, velocity=0, time=44)
Message('note_off', channel=14, note=78, velocity=0, time=0)
Message('control_change', channel=14, control=101, value=0, time=12676)
Message('control_change', channel=14, control=100, value=0, time=0)
Message('control_change', channel=14, control=6, value=12, time=0)
Message('control_change', channel=14, control=10, value=90, time=0)
Message('control_change', channel=14, control=7, value=85, time=0)
Message('pitchwheel', channel=14, pitch=0, time=0)
Message('program_change', channel=14, program=0, time=0)
Message('control_change', channel=14, control=91, value=50, time=0)
Message('control_change', channel=14, control=93, value=5, time=0)
Message('control_change', channel=14, control=101, value=0, time=1)
Message('control_change', channel=14, control=100, value=0, time=0)
Message('control_change', channel=14, control=6, value=12, time=0)
Message('control_change', channel=14, control=10, value=90, time=0)
Message('control_change', channel=14, control=7, value=85, time=0)
Message('pitchwheel', channel=14, pitch=0, time=0)
Message('program_change', channel=14, program=0, time=0)
Message('control_change', channel=14, control=91, value=50, time=0)
Message('control_change', channel=14, control=93, value=5, time=0)
Message('control_change', channel=14, control=101, value=0, time=0)
Message('control_change', channel=14, control=100, value=0, time=0)
Message('control_change', channel=14, control=6, value=12, time=0)
Message('control_change', channel=14, control=10, value=90, time=0)
Message('control_change', channel=14, control=7, value=85, time=0)
Message('pitchwheel', channel=14, pitch=0, time=0)
Message('program_change', channel=14, program=0, time=0)
Message('control_change', channel=14, control=91, value=50, time=0)
Message('control_change', channel=14, control=93, value=5, time=0)
MetaMessage('end_of_track', time=0)
=== Track 16
MetaMessage('track_name', name='Channel #16', time=0)
Message('control_change', channel=15, control=10, value=40, time=0)
Message('control_change', channel=15, control=7, value=60, time=0)
Message('pitchwheel', channel=15, pitch=0, time=0)
Message('control_change', channel=15, control=101, value=0, time=0)
Message('control_change', channel=15, control=100, value=0, time=0)
Message('control_change', channel=15, control=6, value=12, time=0)
Message('control_change', channel=15, control=10, value=40, time=0)
Message('control_change', channel=15, control=7, value=60, time=0)
Message('pitchwheel', channel=15, pitch=0, time=0)
Message('program_change', channel=15, program=110, time=0)
Message('control_change', channel=15, control=91, value=80, time=0)
Message('control_change', channel=15, control=93, value=0, time=0)
Message('control_change', channel=15, control=101, value=0, time=0)
Message('control_change', channel=15, control=100, value=0, time=0)
Message('control_change', channel=15, control=6, value=12, time=0)
Message('control_change', channel=15, control=10, value=40, time=0)
Message('control_change', channel=15, control=7, value=60, time=0)
Message('pitchwheel', channel=15, pitch=0, time=0)
Message('program_change', channel=15, program=110, time=0)
Message('control_change', channel=15, control=91, value=80, time=0)
Message('control_change', channel=15, control=93, value=0, time=0)
Message('control_change', channel=15, control=10, value=40, time=0)
Message('control_change', channel=15, control=7, value=60, time=0)
Message('pitchwheel', channel=15, pitch=0, time=0)
Message('program_change', channel=15, program=110, time=0)
Message('control_change', channel=15, control=91, value=80, time=0)
Message('control_change', channel=15, control=93, value=0, time=0)
Message('control_change', channel=15, control=101, value=0, time=0)
Message('control_change', channel=15, control=100, value=0, time=0)
Message('control_change', channel=15, control=6, value=12, time=0)
Message('control_change', channel=15, control=10, value=40, time=0)
Message('control_change', channel=15, control=7, value=60, time=0)
Message('pitchwheel', channel=15, pitch=0, time=0)
Message('program_change', channel=15, program=110, time=0)
Message('control_change', channel=15, control=91, value=80, time=0)
Message('control_change', channel=15, control=93, value=0, time=0)
Message('control_change', channel=15, control=10, value=40, time=0)
Message('control_change', channel=15, control=7, value=60, time=0)
Message('pitchwheel', channel=15, pitch=0, time=0)
Message('program_change', channel=15, program=110, time=0)
Message('control_change', channel=15, control=91, value=80, time=0)
Message('control_change', channel=15, control=93, value=0, time=0)
Message('note_on', channel=15, note=54, velocity=100, time=384)
Message('note_off', channel=15, note=54, velocity=0, time=134)
Message('note_on', channel=15, note=66, velocity=100, time=10)
Message('note_off', channel=15, note=66, velocity=0, time=44)
Message('note_on', channel=15, note=64, velocity=100, time=4)
Message('note_off', channel=15, note=64, velocity=0, time=68)
Message('note_on', channel=15, note=69, velocity=80, time=4)
Message('note_off', channel=15, note=69, velocity=0, time=68)
Message('note_on', channel=15, note=68, velocity=100, time=4)
Message('note_off', channel=15, note=68, velocity=0, time=44)
Message('note_on', channel=15, note=64, velocity=100, time=4)
Message('note_off', channel=15, note=64, velocity=0, time=34)
Message('note_on', channel=15, note=61, velocity=80, time=14)
Message('note_off', channel=15, note=61, velocity=0, time=34)
Message('note_on', channel=15, note=64, velocity=100, time=14)
Message('note_off', channel=15, note=64, velocity=0, time=44)
Message('note_on', channel=15, note=64, velocity=90, time=4)
Message('note_off', channel=15, note=64, velocity=0, time=22)
Message('note_on', channel=15, note=66, velocity=110, time=2)
Message('note_off', channel=15, note=66, velocity=0, time=206)
Message('note_on', channel=15, note=54, velocity=100, time=10)
Message('note_off', channel=15, note=54, velocity=0, time=134)
Message('note_on', channel=15, note=66, velocity=80, time=10)
Message('note_off', channel=15, note=66, velocity=0, time=44)
Message('note_on', channel=15, note=65, velocity=100, time=4)
Message('note_off', channel=15, note=65, velocity=0, time=68)
Message('note_on', channel=15, note=66, velocity=80, time=4)
Message('note_off', channel=15, note=66, velocity=0, time=68)
Message('note_on', channel=15, note=68, velocity=90, time=4)
Message('note_on', channel=15, note=61, velocity=100, time=48)
Message('note_off', channel=15, note=68, velocity=0, time=10)
Message('note_off', channel=15, note=61, velocity=0, time=368)
Message('note_on', channel=15, note=54, velocity=100, time=6)
Message('note_off', channel=15, note=54, velocity=0, time=134)
Message('note_on', channel=15, note=66, velocity=100, time=10)
Message('note_off', channel=15, note=66, velocity=0, time=44)
Message('note_on', channel=15, note=64, velocity=100, time=4)
Message('note_off', channel=15, note=64, velocity=0, time=68)
Message('note_on', channel=15, note=66, velocity=80, time=4)
Message('note_off', channel=15, note=66, velocity=0, time=68)
Message('note_on', channel=15, note=68, velocity=100, time=4)
Message('note_off', channel=15, note=68, velocity=0, time=44)
Message('note_on', channel=15, note=69, velocity=100, time=4)
Message('note_off', channel=15, note=69, velocity=0, time=34)
Message('note_on', channel=15, note=61, velocity=80, time=14)
Message('note_off', channel=15, note=61, velocity=0, time=34)
Message('note_on', channel=15, note=68, velocity=100, time=14)
Message('note_off', channel=15, note=68, velocity=0, time=44)
Message('note_on', channel=15, note=68, velocity=90, time=4)
Message('note_off', channel=15, note=68, velocity=0, time=22)
Message('note_on', channel=15, note=69, velocity=90, time=2)
Message('note_off', channel=15, note=69, velocity=0, time=116)
Message('note_on', channel=15, note=71, velocity=90, time=4)
Message('note_off', channel=15, note=71, velocity=0, time=92)
Message('note_on', channel=15, note=73, velocity=100, time=4)
Message('note_off', channel=15, note=73, velocity=0, time=44)
Message('note_on', channel=15, note=66, velocity=90, time=4)
Message('note_off', channel=15, note=66, velocity=0, time=34)
Message('note_on', channel=15, note=68, velocity=100, time=62)
Message('note_off', channel=15, note=68, velocity=0, time=22)
Message('note_on', channel=15, note=69, velocity=90, time=2)
Message('note_off', channel=15, note=69, velocity=0, time=22)
Message('note_on', channel=15, note=68, velocity=100, time=2)
Message('note_off', channel=15, note=68, velocity=0, time=68)
Message('note_on', channel=15, note=64, velocity=80, time=4)
Message('note_off', channel=15, note=64, velocity=0, time=68)
Message('note_on', channel=15, note=61, velocity=90, time=4)
Message('note_off', channel=15, note=61, velocity=0, time=44)
Message('note_on', channel=15, note=64, velocity=100, time=4)
Message('note_off', channel=15, note=64, velocity=0, time=34)
Message('note_on', channel=15, note=61, velocity=80, time=14)
Message('note_off', channel=15, note=61, velocity=0, time=34)
Message('note_on', channel=15, note=64, velocity=100, time=14)
Message('note_off', channel=15, note=64, velocity=0, time=44)
Message('note_on', channel=15, note=64, velocity=90, time=4)
Message('note_off', channel=15, note=64, velocity=0, time=22)
Message('note_on', channel=15, note=66, velocity=110, time=2)
Message('note_off', channel=15, note=66, velocity=0, time=206)
Message('note_on', channel=15, note=54, velocity=120, time=10)
Message('note_off', channel=15, note=54, velocity=0, time=134)
Message('note_on', channel=15, note=66, velocity=120, time=10)
Message('note_off', channel=15, note=66, velocity=0, time=44)
Message('note_on', channel=15, note=64, velocity=120, time=4)
Message('note_off', channel=15, note=64, velocity=0, time=68)
Message('note_on', channel=15, note=69, velocity=100, time=4)
Message('note_off', channel=15, note=69, velocity=0, time=68)
Message('note_on', channel=15, note=68, velocity=120, time=4)
Message('note_off', channel=15, note=68, velocity=0, time=44)
Message('note_on', channel=15, note=64, velocity=120, time=4)
Message('note_off', channel=15, note=64, velocity=0, time=34)
Message('note_on', channel=15, note=61, velocity=100, time=14)
Message('note_off', channel=15, note=61, velocity=0, time=34)
Message('note_on', channel=15, note=64, velocity=120, time=14)
Message('note_off', channel=15, note=64, velocity=0, time=44)
Message('note_on', channel=15, note=64, velocity=110, time=4)
Message('note_off', channel=15, note=64, velocity=0, time=22)
Message('note_on', channel=15, note=66, velocity=127, time=2)
Message('note_off', channel=15, note=66, velocity=0, time=206)
Message('note_on', channel=15, note=54, velocity=120, time=10)
Message('note_off', channel=15, note=54, velocity=0, time=134)
Message('note_on', channel=15, note=66, velocity=100, time=10)
Message('note_off', channel=15, note=66, velocity=0, time=44)
Message('note_on', channel=15, note=65, velocity=120, time=4)
Message('note_off', channel=15, note=65, velocity=0, time=68)
Message('note_on', channel=15, note=66, velocity=100, time=4)
Message('note_off', channel=15, note=66, velocity=0, time=68)
Message('note_on', channel=15, note=68, velocity=110, time=4)
Message('note_on', channel=15, note=61, velocity=120, time=48)
Message('note_off', channel=15, note=68, velocity=0, time=10)
Message('note_off', channel=15, note=61, velocity=0, time=368)
Message('note_on', channel=15, note=54, velocity=120, time=6)
Message('note_off', channel=15, note=54, velocity=0, time=134)
Message('note_on', channel=15, note=66, velocity=120, time=10)
Message('note_off', channel=15, note=66, velocity=0, time=44)
Message('note_on', channel=15, note=64, velocity=120, time=4)
Message('note_off', channel=15, note=64, velocity=0, time=68)
Message('note_on', channel=15, note=66, velocity=100, time=4)
Message('note_off', channel=15, note=66, velocity=0, time=68)
Message('note_on', channel=15, note=68, velocity=120, time=4)
Message('note_off', channel=15, note=68, velocity=0, time=44)
Message('note_on', channel=15, note=69, velocity=120, time=4)
Message('note_off', channel=15, note=69, velocity=0, time=34)
Message('note_on', channel=15, note=61, velocity=100, time=14)
Message('note_off', channel=15, note=61, velocity=0, time=34)
Message('note_on', channel=15, note=68, velocity=120, time=14)
Message('note_off', channel=15, note=68, velocity=0, time=44)
Message('note_on', channel=15, note=68, velocity=110, time=4)
Message('note_off', channel=15, note=68, velocity=0, time=22)
Message('note_on', channel=15, note=69, velocity=110, time=2)
Message('note_off', channel=15, note=69, velocity=0, time=116)
Message('note_on', channel=15, note=71, velocity=110, time=4)
Message('note_off', channel=15, note=71, velocity=0, time=92)
Message('note_on', channel=15, note=73, velocity=120, time=4)
Message('note_off', channel=15, note=73, velocity=0, time=44)
Message('note_on', channel=15, note=66, velocity=110, time=4)
Message('note_off', channel=15, note=66, velocity=0, time=34)
Message('note_on', channel=15, note=68, velocity=120, time=62)
Message('note_off', channel=15, note=68, velocity=0, time=22)
Message('note_on', channel=15, note=69, velocity=110, time=2)
Message('note_off', channel=15, note=69, velocity=0, time=22)
Message('note_on', channel=15, note=68, velocity=120, time=2)
Message('note_off', channel=15, note=68, velocity=0, time=68)
Message('note_on', channel=15, note=64, velocity=100, time=4)
Message('note_off', channel=15, note=64, velocity=0, time=68)
Message('note_on', channel=15, note=61, velocity=110, time=4)
Message('note_off', channel=15, note=61, velocity=0, time=44)
Message('note_on', channel=15, note=64, velocity=120, time=4)
Message('note_off', channel=15, note=64, velocity=0, time=34)
Message('note_on', channel=15, note=61, velocity=100, time=14)
Message('note_off', channel=15, note=61, velocity=0, time=34)
Message('note_on', channel=15, note=64, velocity=120, time=14)
Message('note_off', channel=15, note=64, velocity=0, time=44)
Message('note_on', channel=15, note=64, velocity=110, time=4)
Message('note_off', channel=15, note=64, velocity=0, time=22)
Message('note_on', channel=15, note=66, velocity=127, time=2)
Message('note_off', channel=15, note=66, velocity=0, time=206)
Message('note_on', channel=15, note=54, velocity=120, time=10)
Message('note_off', channel=15, note=54, velocity=0, time=134)
Message('note_on', channel=15, note=66, velocity=120, time=10)
Message('note_off', channel=15, note=66, velocity=0, time=44)
Message('note_on', channel=15, note=64, velocity=120, time=4)
Message('note_off', channel=15, note=64, velocity=0, time=68)
Message('note_on', channel=15, note=69, velocity=100, time=4)
Message('note_off', channel=15, note=69, velocity=0, time=68)
Message('note_on', channel=15, note=68, velocity=120, time=4)
Message('note_off', channel=15, note=68, velocity=0, time=44)
Message('note_on', channel=15, note=64, velocity=120, time=4)
Message('note_off', channel=15, note=64, velocity=0, time=34)
Message('note_on', channel=15, note=61, velocity=100, time=14)
Message('note_off', channel=15, note=61, velocity=0, time=34)
Message('note_on', channel=15, note=64, velocity=120, time=14)
Message('note_off', channel=15, note=64, velocity=0, time=44)
Message('note_on', channel=15, note=64, velocity=110, time=4)
Message('note_off', channel=15, note=64, velocity=0, time=22)
Message('note_on', channel=15, note=66, velocity=127, time=2)
Message('note_off', channel=15, note=66, velocity=0, time=206)
Message('note_on', channel=15, note=54, velocity=120, time=10)
Message('note_off', channel=15, note=54, velocity=0, time=134)
Message('note_on', channel=15, note=66, velocity=100, time=10)
Message('note_off', channel=15, note=66, velocity=0, time=44)
Message('note_on', channel=15, note=65, velocity=120, time=4)
Message('note_off', channel=15, note=65, velocity=0, time=68)
Message('note_on', channel=15, note=66, velocity=100, time=4)
Message('note_off', channel=15, note=66, velocity=0, time=68)
Message('note_on', channel=15, note=68, velocity=110, time=4)
Message('note_on', channel=15, note=61, velocity=120, time=48)
Message('note_off', channel=15, note=68, velocity=0, time=10)
Message('note_off', channel=15, note=61, velocity=0, time=368)
Message('note_on', channel=15, note=54, velocity=120, time=6)
Message('note_off', channel=15, note=54, velocity=0, time=134)
Message('note_on', channel=15, note=66, velocity=120, time=10)
Message('note_off', channel=15, note=66, velocity=0, time=44)
Message('note_on', channel=15, note=64, velocity=120, time=4)
Message('note_off', channel=15, note=64, velocity=0, time=68)
Message('note_on', channel=15, note=66, velocity=100, time=4)
Message('note_off', channel=15, note=66, velocity=0, time=68)
Message('note_on', channel=15, note=68, velocity=120, time=4)
Message('note_off', channel=15, note=68, velocity=0, time=44)
Message('note_on', channel=15, note=69, velocity=120, time=4)
Message('note_off', channel=15, note=69, velocity=0, time=34)
Message('note_on', channel=15, note=61, velocity=100, time=14)
Message('note_off', channel=15, note=61, velocity=0, time=34)
Message('note_on', channel=15, note=68, velocity=120, time=14)
Message('note_off', channel=15, note=68, velocity=0, time=44)
Message('note_on', channel=15, note=68, velocity=110, time=4)
Message('note_off', channel=15, note=68, velocity=0, time=22)
Message('note_on', channel=15, note=69, velocity=110, time=2)
Message('note_off', channel=15, note=69, velocity=0, time=116)
Message('note_on', channel=15, note=71, velocity=110, time=4)
Message('note_off', channel=15, note=71, velocity=0, time=92)
Message('note_on', channel=15, note=73, velocity=120, time=4)
Message('note_off', channel=15, note=73, velocity=0, time=44)
Message('note_on', channel=15, note=66, velocity=110, time=4)
Message('note_off', channel=15, note=66, velocity=0, time=34)
Message('note_on', channel=15, note=68, velocity=120, time=62)
Message('note_off', channel=15, note=68, velocity=0, time=22)
Message('note_on', channel=15, note=69, velocity=110, time=2)
Message('note_off', channel=15, note=69, velocity=0, time=22)
Message('note_on', channel=15, note=68, velocity=120, time=2)
Message('note_off', channel=15, note=68, velocity=0, time=68)
Message('note_on', channel=15, note=64, velocity=100, time=4)
Message('note_off', channel=15, note=64, velocity=0, time=68)
Message('note_on', channel=15, note=61, velocity=110, time=4)
Message('note_off', channel=15, note=61, velocity=0, time=44)
Message('note_on', channel=15, note=64, velocity=120, time=4)
Message('note_off', channel=15, note=64, velocity=0, time=34)
Message('note_on', channel=15, note=61, velocity=100, time=14)
Message('note_off', channel=15, note=61, velocity=0, time=34)
Message('note_on', channel=15, note=64, velocity=120, time=14)
Message('note_off', channel=15, note=64, velocity=0, time=44)
Message('note_on', channel=15, note=64, velocity=110, time=4)
Message('note_off', channel=15, note=64, velocity=0, time=22)
Message('note_on', channel=15, note=66, velocity=127, time=2)
Message('note_off', channel=15, note=66, velocity=0, time=206)
Message('note_on', channel=15, note=42, velocity=120, time=6154)
Message('note_off', channel=15, note=42, velocity=0, time=134)
Message('note_on', channel=15, note=54, velocity=120, time=10)
Message('note_off', channel=15, note=54, velocity=0, time=44)
Message('note_on', channel=15, note=52, velocity=120, time=4)
Message('note_off', channel=15, note=52, velocity=0, time=68)
Message('note_on', channel=15, note=57, velocity=100, time=4)
Message('note_off', channel=15, note=57, velocity=0, time=68)
Message('note_on', channel=15, note=56, velocity=120, time=4)
Message('note_off', channel=15, note=56, velocity=0, time=44)
Message('note_on', channel=15, note=52, velocity=120, time=4)
Message('note_off', channel=15, note=52, velocity=0, time=34)
Message('note_on', channel=15, note=49, velocity=100, time=14)
Message('note_off', channel=15, note=49, velocity=0, time=34)
Message('note_on', channel=15, note=52, velocity=120, time=14)
Message('note_off', channel=15, note=52, velocity=0, time=44)
Message('note_on', channel=15, note=52, velocity=110, time=4)
Message('note_off', channel=15, note=52, velocity=0, time=22)
Message('note_on', channel=15, note=54, velocity=127, time=2)
Message('note_off', channel=15, note=54, velocity=0, time=206)
Message('note_on', channel=15, note=42, velocity=120, time=10)
Message('note_off', channel=15, note=42, velocity=0, time=134)
Message('note_on', channel=15, note=54, velocity=100, time=10)
Message('note_off', channel=15, note=54, velocity=0, time=44)
Message('note_on', channel=15, note=53, velocity=120, time=4)
Message('note_off', channel=15, note=53, velocity=0, time=68)
Message('note_on', channel=15, note=54, velocity=100, time=4)
Message('note_off', channel=15, note=54, velocity=0, time=68)
Message('note_on', channel=15, note=56, velocity=110, time=4)
Message('note_on', channel=15, note=49, velocity=120, time=48)
Message('note_off', channel=15, note=56, velocity=0, time=10)
Message('note_off', channel=15, note=49, velocity=0, time=368)
Message('note_on', channel=15, note=42, velocity=120, time=6)
Message('note_off', channel=15, note=42, velocity=0, time=134)
Message('note_on', channel=15, note=54, velocity=120, time=10)
Message('note_off', channel=15, note=54, velocity=0, time=44)
Message('note_on', channel=15, note=52, velocity=120, time=4)
Message('note_off', channel=15, note=52, velocity=0, time=68)
Message('note_on', channel=15, note=54, velocity=100, time=4)
Message('note_off', channel=15, note=54, velocity=0, time=68)
Message('note_on', channel=15, note=56, velocity=120, time=4)
Message('note_off', channel=15, note=56, velocity=0, time=44)
Message('note_on', channel=15, note=57, velocity=120, time=4)
Message('note_off', channel=15, note=57, velocity=0, time=34)
Message('note_on', channel=15, note=49, velocity=100, time=14)
Message('note_off', channel=15, note=49, velocity=0, time=34)
Message('note_on', channel=15, note=56, velocity=120, time=14)
Message('note_off', channel=15, note=56, velocity=0, time=44)
Message('note_on', channel=15, note=56, velocity=110, time=4)
Message('note_off', channel=15, note=56, velocity=0, time=22)
Message('note_on', channel=15, note=57, velocity=110, time=2)
Message('note_off', channel=15, note=57, velocity=0, time=116)
Message('note_on', channel=15, note=59, velocity=110, time=4)
Message('note_off', channel=15, note=59, velocity=0, time=92)
Message('note_on', channel=15, note=61, velocity=120, time=4)
Message('note_off', channel=15, note=61, velocity=0, time=44)
Message('note_on', channel=15, note=54, velocity=110, time=4)
Message('note_off', channel=15, note=54, velocity=0, time=34)
Message('note_on', channel=15, note=56, velocity=120, time=62)
Message('note_off', channel=15, note=56, velocity=0, time=22)
Message('note_on', channel=15, note=57, velocity=110, time=2)
Message('note_off', channel=15, note=57, velocity=0, time=22)
Message('note_on', channel=15, note=56, velocity=120, time=2)
Message('note_off', channel=15, note=56, velocity=0, time=68)
Message('note_on', channel=15, note=52, velocity=100, time=4)
Message('note_off', channel=15, note=52, velocity=0, time=68)
Message('note_on', channel=15, note=49, velocity=110, time=4)
Message('note_off', channel=15, note=49, velocity=0, time=44)
Message('note_on', channel=15, note=52, velocity=120, time=4)
Message('note_off', channel=15, note=52, velocity=0, time=34)
Message('note_on', channel=15, note=49, velocity=100, time=14)
Message('note_off', channel=15, note=49, velocity=0, time=34)
Message('note_on', channel=15, note=52, velocity=120, time=14)
Message('note_off', channel=15, note=52, velocity=0, time=44)
Message('note_on', channel=15, note=52, velocity=110, time=4)
Message('note_off', channel=15, note=52, velocity=0, time=22)
Message('note_on', channel=15, note=54, velocity=127, time=2)
Message('note_off', channel=15, note=54, velocity=0, time=206)
Message('note_on', channel=15, note=54, velocity=120, time=10)
Message('note_off', channel=15, note=54, velocity=0, time=134)
Message('note_on', channel=15, note=66, velocity=120, time=10)
Message('note_off', channel=15, note=66, velocity=0, time=44)
Message('note_on', channel=15, note=64, velocity=120, time=4)
Message('note_off', channel=15, note=64, velocity=0, time=68)
Message('note_on', channel=15, note=69, velocity=100, time=4)
Message('note_off', channel=15, note=69, velocity=0, time=68)
Message('note_on', channel=15, note=68, velocity=120, time=4)
Message('note_off', channel=15, note=68, velocity=0, time=44)
Message('note_on', channel=15, note=64, velocity=120, time=4)
Message('note_off', channel=15, note=64, velocity=0, time=34)
Message('note_on', channel=15, note=61, velocity=100, time=14)
Message('note_off', channel=15, note=61, velocity=0, time=34)
Message('note_on', channel=15, note=64, velocity=120, time=14)
Message('note_off', channel=15, note=64, velocity=0, time=44)
Message('note_on', channel=15, note=64, velocity=110, time=4)
Message('note_off', channel=15, note=64, velocity=0, time=22)
Message('note_on', channel=15, note=66, velocity=127, time=2)
Message('note_off', channel=15, note=66, velocity=0, time=206)
Message('note_on', channel=15, note=54, velocity=120, time=10)
Message('note_off', channel=15, note=54, velocity=0, time=134)
Message('note_on', channel=15, note=66, velocity=100, time=10)
Message('note_off', channel=15, note=66, velocity=0, time=44)
Message('note_on', channel=15, note=65, velocity=120, time=4)
Message('note_off', channel=15, note=65, velocity=0, time=68)
Message('note_on', channel=15, note=66, velocity=100, time=4)
Message('note_off', channel=15, note=66, velocity=0, time=68)
Message('note_on', channel=15, note=68, velocity=110, time=4)
Message('note_on', channel=15, note=61, velocity=120, time=48)
Message('note_off', channel=15, note=68, velocity=0, time=10)
Message('note_off', channel=15, note=61, velocity=0, time=368)
Message('note_on', channel=15, note=54, velocity=120, time=6)
Message('note_off', channel=15, note=54, velocity=0, time=134)
Message('note_on', channel=15, note=66, velocity=120, time=10)
Message('note_off', channel=15, note=66, velocity=0, time=44)
Message('note_on', channel=15, note=64, velocity=120, time=4)
Message('note_off', channel=15, note=64, velocity=0, time=68)
Message('note_on', channel=15, note=66, velocity=100, time=4)
Message('note_off', channel=15, note=66, velocity=0, time=68)
Message('note_on', channel=15, note=68, velocity=120, time=4)
Message('note_off', channel=15, note=68, velocity=0, time=44)
Message('note_on', channel=15, note=69, velocity=120, time=4)
Message('note_off', channel=15, note=69, velocity=0, time=34)
Message('note_on', channel=15, note=61, velocity=100, time=14)
Message('note_off', channel=15, note=61, velocity=0, time=34)
Message('note_on', channel=15, note=68, velocity=120, time=14)
Message('note_off', channel=15, note=68, velocity=0, time=44)
Message('note_on', channel=15, note=68, velocity=110, time=4)
Message('note_off', channel=15, note=68, velocity=0, time=22)
Message('note_on', channel=15, note=69, velocity=110, time=2)
Message('note_off', channel=15, note=69, velocity=0, time=116)
Message('note_on', channel=15, note=71, velocity=110, time=4)
Message('note_off', channel=15, note=71, velocity=0, time=92)
Message('note_on', channel=15, note=73, velocity=120, time=4)
Message('note_off', channel=15, note=73, velocity=0, time=44)
Message('note_on', channel=15, note=66, velocity=110, time=4)
Message('note_off', channel=15, note=66, velocity=0, time=34)
Message('note_on', channel=15, note=68, velocity=120, time=62)
Message('note_off', channel=15, note=68, velocity=0, time=22)
Message('note_on', channel=15, note=69, velocity=110, time=2)
Message('note_off', channel=15, note=69, velocity=0, time=22)
Message('note_on', channel=15, note=68, velocity=120, time=2)
Message('note_off', channel=15, note=68, velocity=0, time=68)
Message('note_on', channel=15, note=64, velocity=100, time=4)
Message('note_off', channel=15, note=64, velocity=0, time=68)
Message('note_on', channel=15, note=61, velocity=110, time=4)
Message('note_off', channel=15, note=61, velocity=0, time=44)
Message('note_on', channel=15, note=64, velocity=120, time=4)
Message('note_off', channel=15, note=64, velocity=0, time=34)
Message('note_on', channel=15, note=61, velocity=100, time=14)
Message('note_off', channel=15, note=61, velocity=0, time=34)
Message('note_on', channel=15, note=64, velocity=120, time=14)
Message('note_off', channel=15, note=64, velocity=0, time=44)
Message('note_on', channel=15, note=64, velocity=110, time=4)
Message('note_off', channel=15, note=64, velocity=0, time=22)
Message('note_on', channel=15, note=66, velocity=127, time=2)
Message('note_off', channel=15, note=66, velocity=0, time=206)
Message('note_on', channel=15, note=54, velocity=120, time=10)
Message('note_off', channel=15, note=54, velocity=0, time=134)
Message('note_on', channel=15, note=66, velocity=120, time=10)
Message('note_off', channel=15, note=66, velocity=0, time=44)
Message('note_on', channel=15, note=64, velocity=120, time=4)
Message('note_off', channel=15, note=64, velocity=0, time=68)
Message('note_on', channel=15, note=69, velocity=100, time=4)
Message('note_off', channel=15, note=69, velocity=0, time=68)
Message('note_on', channel=15, note=68, velocity=120, time=4)
Message('note_off', channel=15, note=68, velocity=0, time=44)
Message('note_on', channel=15, note=64, velocity=120, time=4)
Message('note_off', channel=15, note=64, velocity=0, time=34)
Message('note_on', channel=15, note=61, velocity=100, time=14)
Message('note_off', channel=15, note=61, velocity=0, time=34)
Message('note_on', channel=15, note=64, velocity=120, time=14)
Message('note_off', channel=15, note=64, velocity=0, time=44)
Message('note_on', channel=15, note=64, velocity=110, time=4)
Message('note_off', channel=15, note=64, velocity=0, time=22)
Message('note_on', channel=15, note=66, velocity=127, time=2)
Message('note_off', channel=15, note=66, velocity=0, time=206)
Message('note_on', channel=15, note=54, velocity=120, time=10)
Message('note_off', channel=15, note=54, velocity=0, time=134)
Message('note_on', channel=15, note=66, velocity=100, time=10)
Message('note_off', channel=15, note=66, velocity=0, time=44)
Message('note_on', channel=15, note=65, velocity=120, time=4)
Message('note_off', channel=15, note=65, velocity=0, time=68)
Message('note_on', channel=15, note=66, velocity=100, time=4)
Message('note_off', channel=15, note=66, velocity=0, time=68)
Message('note_on', channel=15, note=68, velocity=110, time=4)
Message('note_on', channel=15, note=61, velocity=120, time=48)
Message('note_off', channel=15, note=68, velocity=0, time=10)
Message('note_off', channel=15, note=61, velocity=0, time=368)
Message('note_on', channel=15, note=54, velocity=120, time=6)
Message('note_off', channel=15, note=54, velocity=0, time=134)
Message('note_on', channel=15, note=66, velocity=120, time=10)
Message('note_off', channel=15, note=66, velocity=0, time=44)
Message('note_on', channel=15, note=64, velocity=120, time=4)
Message('note_off', channel=15, note=64, velocity=0, time=68)
Message('note_on', channel=15, note=66, velocity=100, time=4)
Message('note_off', channel=15, note=66, velocity=0, time=68)
Message('note_on', channel=15, note=68, velocity=120, time=4)
Message('note_off', channel=15, note=68, velocity=0, time=44)
Message('note_on', channel=15, note=69, velocity=120, time=4)
Message('note_off', channel=15, note=69, velocity=0, time=34)
Message('note_on', channel=15, note=61, velocity=100, time=14)
Message('note_off', channel=15, note=61, velocity=0, time=34)
Message('note_on', channel=15, note=68, velocity=120, time=14)
Message('note_off', channel=15, note=68, velocity=0, time=44)
Message('note_on', channel=15, note=68, velocity=110, time=4)
Message('note_off', channel=15, note=68, velocity=0, time=22)
Message('note_on', channel=15, note=69, velocity=110, time=2)
Message('note_off', channel=15, note=69, velocity=0, time=116)
Message('note_on', channel=15, note=71, velocity=110, time=4)
Message('note_off', channel=15, note=71, velocity=0, time=92)
Message('note_on', channel=15, note=73, velocity=120, time=4)
Message('note_off', channel=15, note=73, velocity=0, time=44)
Message('note_on', channel=15, note=66, velocity=110, time=4)
Message('note_off', channel=15, note=66, velocity=0, time=34)
Message('note_on', channel=15, note=68, velocity=120, time=62)
Message('note_off', channel=15, note=68, velocity=0, time=22)
Message('note_on', channel=15, note=69, velocity=110, time=2)
Message('note_off', channel=15, note=69, velocity=0, time=22)
Message('note_on', channel=15, note=68, velocity=120, time=2)
Message('note_off', channel=15, note=68, velocity=0, time=68)
Message('note_on', channel=15, note=64, velocity=100, time=4)
Message('note_off', channel=15, note=64, velocity=0, time=68)
Message('note_on', channel=15, note=61, velocity=110, time=4)
Message('note_off', channel=15, note=61, velocity=0, time=44)
Message('note_on', channel=15, note=64, velocity=120, time=4)
Message('note_off', channel=15, note=64, velocity=0, time=34)
Message('note_on', channel=15, note=61, velocity=100, time=14)
Message('note_off', channel=15, note=61, velocity=0, time=34)
Message('note_on', channel=15, note=64, velocity=120, time=14)
Message('note_off', channel=15, note=64, velocity=0, time=44)
Message('note_on', channel=15, note=64, velocity=110, time=4)
Message('note_off', channel=15, note=64, velocity=0, time=22)
Message('note_on', channel=15, note=66, velocity=127, time=2)
Message('note_off', channel=15, note=66, velocity=0, time=206)
Message('note_on', channel=15, note=54, velocity=120, time=10)
Message('note_off', channel=15, note=54, velocity=0, time=134)
Message('note_on', channel=15, note=66, velocity=120, time=10)
Message('note_off', channel=15, note=66, velocity=0, time=44)
Message('note_on', channel=15, note=64, velocity=120, time=4)
Message('note_off', channel=15, note=64, velocity=0, time=68)
Message('note_on', channel=15, note=69, velocity=100, time=4)
Message('note_off', channel=15, note=69, velocity=0, time=68)
Message('note_on', channel=15, note=68, velocity=120, time=4)
Message('note_off', channel=15, note=68, velocity=0, time=44)
Message('note_on', channel=15, note=64, velocity=120, time=4)
Message('note_off', channel=15, note=64, velocity=0, time=34)
Message('note_on', channel=15, note=61, velocity=100, time=14)
Message('note_off', channel=15, note=61, velocity=0, time=34)
Message('note_on', channel=15, note=64, velocity=120, time=14)
Message('note_off', channel=15, note=64, velocity=0, time=44)
Message('note_on', channel=15, note=64, velocity=110, time=4)
Message('note_off', channel=15, note=64, velocity=0, time=22)
Message('note_on', channel=15, note=66, velocity=127, time=2)
Message('note_off', channel=15, note=66, velocity=0, time=206)
Message('note_on', channel=15, note=54, velocity=120, time=10)
Message('note_off', channel=15, note=54, velocity=0, time=134)
Message('note_on', channel=15, note=66, velocity=100, time=10)
Message('note_off', channel=15, note=66, velocity=0, time=44)
Message('note_on', channel=15, note=65, velocity=120, time=4)
Message('note_off', channel=15, note=65, velocity=0, time=68)
Message('note_on', channel=15, note=66, velocity=100, time=4)
Message('note_off', channel=15, note=66, velocity=0, time=68)
Message('note_on', channel=15, note=68, velocity=110, time=4)
Message('note_on', channel=15, note=61, velocity=120, time=48)
Message('note_off', channel=15, note=68, velocity=0, time=10)
Message('note_off', channel=15, note=61, velocity=0, time=368)
Message('note_on', channel=15, note=54, velocity=120, time=6)
Message('note_off', channel=15, note=54, velocity=0, time=134)
Message('note_on', channel=15, note=66, velocity=120, time=10)
Message('note_off', channel=15, note=66, velocity=0, time=44)
Message('note_on', channel=15, note=64, velocity=120, time=4)
Message('note_off', channel=15, note=64, velocity=0, time=68)
Message('note_on', channel=15, note=66, velocity=100, time=4)
Message('note_off', channel=15, note=66, velocity=0, time=68)
Message('note_on', channel=15, note=68, velocity=120, time=4)
Message('note_off', channel=15, note=68, velocity=0, time=44)
Message('note_on', channel=15, note=69, velocity=120, time=4)
Message('note_off', channel=15, note=69, velocity=0, time=34)
Message('note_on', channel=15, note=61, velocity=100, time=14)
Message('note_off', channel=15, note=61, velocity=0, time=34)
Message('note_on', channel=15, note=68, velocity=120, time=14)
Message('note_off', channel=15, note=68, velocity=0, time=44)
Message('note_on', channel=15, note=68, velocity=110, time=4)
Message('note_off', channel=15, note=68, velocity=0, time=22)
Message('note_on', channel=15, note=69, velocity=110, time=2)
Message('note_off', channel=15, note=69, velocity=0, time=116)
Message('note_on', channel=15, note=71, velocity=110, time=4)
Message('note_off', channel=15, note=71, velocity=0, time=92)
Message('note_on', channel=15, note=73, velocity=120, time=4)
Message('note_off', channel=15, note=73, velocity=0, time=44)
Message('note_on', channel=15, note=66, velocity=110, time=4)
Message('note_off', channel=15, note=66, velocity=0, time=34)
Message('note_on', channel=15, note=68, velocity=120, time=62)
Message('note_off', channel=15, note=68, velocity=0, time=22)
Message('note_on', channel=15, note=69, velocity=110, time=2)
Message('note_off', channel=15, note=69, velocity=0, time=22)
Message('note_on', channel=15, note=68, velocity=120, time=2)
Message('note_off', channel=15, note=68, velocity=0, time=68)
Message('note_on', channel=15, note=64, velocity=100, time=4)
Message('note_off', channel=15, note=64, velocity=0, time=68)
Message('note_on', channel=15, note=61, velocity=110, time=4)
Message('note_off', channel=15, note=61, velocity=0, time=44)
Message('note_on', channel=15, note=64, velocity=120, time=4)
Message('note_off', channel=15, note=64, velocity=0, time=34)
Message('note_on', channel=15, note=61, velocity=100, time=14)
Message('note_off', channel=15, note=61, velocity=0, time=34)
Message('note_on', channel=15, note=64, velocity=120, time=14)
Message('note_off', channel=15, note=64, velocity=0, time=44)
Message('note_on', channel=15, note=64, velocity=110, time=4)
Message('note_off', channel=15, note=64, velocity=0, time=22)
Message('note_on', channel=15, note=66, velocity=127, time=2)
Message('note_off', channel=15, note=66, velocity=0, time=206)
Message('note_on', channel=15, note=54, velocity=120, time=10)
Message('note_off', channel=15, note=54, velocity=0, time=134)
Message('note_on', channel=15, note=66, velocity=120, time=10)
Message('note_off', channel=15, note=66, velocity=0, time=44)
Message('note_on', channel=15, note=64, velocity=120, time=4)
Message('note_off', channel=15, note=64, velocity=0, time=68)
Message('note_on', channel=15, note=69, velocity=100, time=4)
Message('note_off', channel=15, note=69, velocity=0, time=68)
Message('note_on', channel=15, note=68, velocity=120, time=4)
Message('note_off', channel=15, note=68, velocity=0, time=44)
Message('note_on', channel=15, note=64, velocity=120, time=4)
Message('note_off', channel=15, note=64, velocity=0, time=34)
Message('note_on', channel=15, note=61, velocity=100, time=14)
Message('note_off', channel=15, note=61, velocity=0, time=34)
Message('note_on', channel=15, note=64, velocity=120, time=14)
Message('note_off', channel=15, note=64, velocity=0, time=44)
Message('note_on', channel=15, note=64, velocity=110, time=4)
Message('note_off', channel=15, note=64, velocity=0, time=22)
Message('note_on', channel=15, note=66, velocity=127, time=2)
Message('note_off', channel=15, note=66, velocity=0, time=206)
Message('note_on', channel=15, note=54, velocity=120, time=10)
Message('note_off', channel=15, note=54, velocity=0, time=134)
Message('note_on', channel=15, note=66, velocity=100, time=10)
Message('note_off', channel=15, note=66, velocity=0, time=44)
Message('note_on', channel=15, note=65, velocity=120, time=4)
Message('note_off', channel=15, note=65, velocity=0, time=68)
Message('note_on', channel=15, note=66, velocity=100, time=4)
Message('note_off', channel=15, note=66, velocity=0, time=68)
Message('note_on', channel=15, note=68, velocity=110, time=4)
Message('note_on', channel=15, note=61, velocity=120, time=48)
Message('note_off', channel=15, note=68, velocity=0, time=10)
Message('note_off', channel=15, note=61, velocity=0, time=368)
Message('note_on', channel=15, note=54, velocity=120, time=6)
Message('note_off', channel=15, note=54, velocity=0, time=134)
Message('note_on', channel=15, note=66, velocity=120, time=10)
Message('note_off', channel=15, note=66, velocity=0, time=44)
Message('note_on', channel=15, note=64, velocity=120, time=4)
Message('note_off', channel=15, note=64, velocity=0, time=68)
Message('note_on', channel=15, note=66, velocity=100, time=4)
Message('note_off', channel=15, note=66, velocity=0, time=68)
Message('note_on', channel=15, note=68, velocity=120, time=4)
Message('note_off', channel=15, note=68, velocity=0, time=44)
Message('note_on', channel=15, note=69, velocity=120, time=4)
Message('note_off', channel=15, note=69, velocity=0, time=34)
Message('note_on', channel=15, note=61, velocity=100, time=14)
Message('note_off', channel=15, note=61, velocity=0, time=34)
Message('note_on', channel=15, note=68, velocity=120, time=14)
Message('note_off', channel=15, note=68, velocity=0, time=44)
Message('note_on', channel=15, note=68, velocity=110, time=4)
Message('note_off', channel=15, note=68, velocity=0, time=22)
Message('note_on', channel=15, note=69, velocity=110, time=2)
Message('note_off', channel=15, note=69, velocity=0, time=116)
Message('note_on', channel=15, note=71, velocity=110, time=4)
Message('note_off', channel=15, note=71, velocity=0, time=92)
Message('note_on', channel=15, note=73, velocity=120, time=4)
Message('note_off', channel=15, note=73, velocity=0, time=44)
Message('note_on', channel=15, note=66, velocity=110, time=4)
Message('note_off', channel=15, note=66, velocity=0, time=34)
Message('note_on', channel=15, note=68, velocity=120, time=62)
Message('note_off', channel=15, note=68, velocity=0, time=22)
Message('note_on', channel=15, note=69, velocity=110, time=2)
Message('note_off', channel=15, note=69, velocity=0, time=22)
Message('note_on', channel=15, note=68, velocity=120, time=2)
Message('note_off', channel=15, note=68, velocity=0, time=68)
Message('note_on', channel=15, note=64, velocity=100, time=4)
Message('note_off', channel=15, note=64, velocity=0, time=68)
Message('note_on', channel=15, note=61, velocity=110, time=4)
Message('note_off', channel=15, note=61, velocity=0, time=44)
Message('note_on', channel=15, note=64, velocity=120, time=4)
Message('note_off', channel=15, note=64, velocity=0, time=34)
Message('note_on', channel=15, note=61, velocity=100, time=14)
Message('note_off', channel=15, note=61, velocity=0, time=34)
Message('note_on', channel=15, note=64, velocity=120, time=14)
Message('note_off', channel=15, note=64, velocity=0, time=44)
Message('note_on', channel=15, note=64, velocity=110, time=4)
Message('note_off', channel=15, note=64, velocity=0, time=22)
Message('note_on', channel=15, note=66, velocity=127, time=2)
Message('note_off', channel=15, note=66, velocity=0, time=206)
Message('control_change', channel=15, control=101, value=0, time=394)
Message('control_change', channel=15, control=100, value=0, time=0)
Message('control_change', channel=15, control=6, value=12, time=0)
Message('control_change', channel=15, control=10, value=40, time=0)
Message('control_change', channel=15, control=7, value=60, time=0)
Message('pitchwheel', channel=15, pitch=0, time=0)
Message('program_change', channel=15, program=110, time=0)
Message('control_change', channel=15, control=91, value=80, time=0)
Message('control_change', channel=15, control=93, value=0, time=0)
Message('control_change', channel=15, control=101, value=0, time=1)
Message('control_change', channel=15, control=100, value=0, time=0)
Message('control_change', channel=15, control=6, value=12, time=0)
Message('control_change', channel=15, control=10, value=40, time=0)
Message('control_change', channel=15, control=7, value=60, time=0)
Message('pitchwheel', channel=15, pitch=0, time=0)
Message('program_change', channel=15, program=110, time=0)
Message('control_change', channel=15, control=91, value=80, time=0)
Message('control_change', channel=15, control=93, value=0, time=0)
Message('control_change', channel=15, control=101, value=0, time=0)
Message('control_change', channel=15, control=100, value=0, time=0)
Message('control_change', channel=15, control=6, value=12, time=0)
Message('control_change', channel=15, control=10, value=40, time=0)
Message('control_change', channel=15, control=7, value=60, time=0)
Message('pitchwheel', channel=15, pitch=0, time=0)
Message('program_change', channel=15, program=110, time=0)
Message('control_change', channel=15, control=91, value=80, time=0)
Message('control_change', channel=15, control=93, value=0, time=0)
MetaMessage('end_of_track', time=0)
